<svg width="391" height="32" viewBox="0 0 391 32" fill="none" xmlns="http://www.w3.org/2000/svg">
<path d="M26.316 14V4.2H30.908C32.084 4.2 32.98 4.43333 33.596 4.9C34.212 5.35733 34.52 5.97333 34.52 6.748C34.52 7.27067 34.3987 7.71867 34.156 8.092C33.9133 8.456 33.5867 8.74067 33.176 8.946C32.7747 9.142 32.336 9.24 31.86 9.24L32.112 8.736C32.6627 8.736 33.1573 8.83867 33.596 9.044C34.0347 9.24 34.38 9.52933 34.632 9.912C34.8933 10.2947 35.024 10.7707 35.024 11.34C35.024 12.18 34.702 12.8333 34.058 13.3C33.414 13.7667 32.4573 14 31.188 14H26.316ZM28.136 12.572H31.076C31.7573 12.572 32.28 12.46 32.644 12.236C33.008 12.012 33.19 11.6527 33.19 11.158C33.19 10.6727 33.008 10.318 32.644 10.094C32.28 9.86067 31.7573 9.744 31.076 9.744H27.996V8.33H30.712C31.3467 8.33 31.832 8.218 32.168 7.994C32.5133 7.77 32.686 7.434 32.686 6.986C32.686 6.52867 32.5133 6.188 32.168 5.964C31.832 5.74 31.3467 5.628 30.712 5.628H28.136V12.572ZM41.5584 14.14C40.7931 14.14 40.0884 14.014 39.4444 13.762C38.8004 13.51 38.2404 13.16 37.7644 12.712C37.2884 12.2547 36.9197 11.7227 36.6584 11.116C36.3971 10.5 36.2664 9.828 36.2664 9.1C36.2664 8.372 36.3971 7.70467 36.6584 7.098C36.9197 6.482 37.2884 5.95 37.7644 5.502C38.2404 5.04467 38.8004 4.69 39.4444 4.438C40.0884 4.186 40.7884 4.06 41.5444 4.06C42.3097 4.06 43.0097 4.186 43.6444 4.438C44.2884 4.69 44.8484 5.04467 45.3244 5.502C45.8004 5.95 46.1691 6.482 46.4304 7.098C46.6917 7.70467 46.8224 8.372 46.8224 9.1C46.8224 9.828 46.6917 10.5 46.4304 11.116C46.1691 11.732 45.8004 12.264 45.3244 12.712C44.8484 13.16 44.2884 13.51 43.6444 13.762C43.0097 14.014 42.3144 14.14 41.5584 14.14ZM41.5444 12.544C42.0391 12.544 42.4964 12.46 42.9164 12.292C43.3364 12.124 43.7004 11.886 44.0084 11.578C44.3164 11.2607 44.5544 10.8967 44.7224 10.486C44.8997 10.066 44.9884 9.604 44.9884 9.1C44.9884 8.596 44.8997 8.13867 44.7224 7.728C44.5544 7.308 44.3164 6.944 44.0084 6.636C43.7004 6.31867 43.3364 6.076 42.9164 5.908C42.4964 5.74 42.0391 5.656 41.5444 5.656C41.0497 5.656 40.5924 5.74 40.1724 5.908C39.7617 6.076 39.3977 6.31867 39.0804 6.636C38.7724 6.944 38.5297 7.308 38.3524 7.728C38.1844 8.13867 38.1004 8.596 38.1004 9.1C38.1004 9.59467 38.1844 10.052 38.3524 10.472C38.5297 10.892 38.7724 11.2607 39.0804 11.578C39.3884 11.886 39.7524 12.124 40.1724 12.292C40.5924 12.46 41.0497 12.544 41.5444 12.544ZM48.7515 14V4.2H52.7835C53.6515 4.2 54.3935 4.34 55.0095 4.62C55.6349 4.9 56.1155 5.30133 56.4515 5.824C56.7875 6.34667 56.9555 6.96733 56.9555 7.686C56.9555 8.40467 56.7875 9.02533 56.4515 9.548C56.1155 10.0707 55.6349 10.472 55.0095 10.752C54.3935 11.032 53.6515 11.172 52.7835 11.172H49.7595L50.5715 10.318V14H48.7515ZM50.5715 10.514L49.7595 9.632H52.6995C53.5022 9.632 54.1042 9.464 54.5055 9.128C54.9162 8.78267 55.1215 8.302 55.1215 7.686C55.1215 7.06067 54.9162 6.58 54.5055 6.244C54.1042 5.908 53.5022 5.74 52.6995 5.74H49.7595L50.5715 4.844V10.514ZM58.773 14V4.2H62.805C63.673 4.2 64.415 4.34 65.031 4.62C65.6564 4.9 66.137 5.30133 66.473 5.824C66.809 6.34667 66.977 6.96733 66.977 7.686C66.977 8.40467 66.809 9.02533 66.473 9.548C66.137 10.0707 65.6564 10.472 65.031 10.752C64.415 11.032 63.673 11.172 62.805 11.172H59.781L60.593 10.318V14H58.773ZM60.593 10.514L59.781 9.632H62.721C63.5237 9.632 64.1257 9.464 64.527 9.128C64.9377 8.78267 65.143 8.302 65.143 7.686C65.143 7.06067 64.9377 6.58 64.527 6.244C64.1257 5.908 63.5237 5.74 62.721 5.74H59.781L60.593 4.844V10.514ZM74.7884 14V5.74H71.5404V4.2H79.8564V5.74H76.6084V14H74.7884ZM85.2638 14V12.488L85.1658 12.166V9.52C85.1658 9.00667 85.0118 8.61 84.7038 8.33C84.3958 8.04067 83.9291 7.896 83.3038 7.896C82.8838 7.896 82.4684 7.96133 82.0578 8.092C81.6564 8.22267 81.3158 8.40467 81.0358 8.638L80.3498 7.364C80.7511 7.056 81.2271 6.82733 81.7778 6.678C82.3378 6.51933 82.9164 6.44 83.5138 6.44C84.5964 6.44 85.4318 6.70133 86.0198 7.224C86.6171 7.73733 86.9158 8.53533 86.9158 9.618V14H85.2638ZM82.9118 14.098C82.3518 14.098 81.8618 14.0047 81.4418 13.818C81.0218 13.622 80.6951 13.356 80.4618 13.02C80.2378 12.6747 80.1258 12.2873 80.1258 11.858C80.1258 11.438 80.2238 11.06 80.4198 10.724C80.6251 10.388 80.9564 10.122 81.4138 9.926C81.8711 9.73 82.4778 9.632 83.2338 9.632H85.4038V10.794H83.3598C82.7624 10.794 82.3611 10.892 82.1558 11.088C81.9504 11.2747 81.8478 11.508 81.8478 11.788C81.8478 12.1053 81.9738 12.3573 82.2258 12.544C82.4778 12.7307 82.8278 12.824 83.2758 12.824C83.7051 12.824 84.0878 12.726 84.4238 12.53C84.7691 12.334 85.0164 12.0447 85.1658 11.662L85.4598 12.712C85.2918 13.1507 84.9884 13.4913 84.5498 13.734C84.1204 13.9767 83.5744 14.098 82.9118 14.098ZM93.3057 14.098C92.699 14.098 92.1437 13.958 91.6397 13.678C91.145 13.398 90.7483 12.978 90.4497 12.418C90.1603 11.8487 90.0157 11.13 90.0157 10.262C90.0157 9.38467 90.1557 8.666 90.4357 8.106C90.725 7.546 91.117 7.13067 91.6117 6.86C92.1063 6.58 92.671 6.44 93.3057 6.44C94.043 6.44 94.6917 6.59867 95.2517 6.916C95.821 7.23333 96.269 7.67667 96.5957 8.246C96.9317 8.81533 97.0997 9.48733 97.0997 10.262C97.0997 11.0367 96.9317 11.7133 96.5957 12.292C96.269 12.8613 95.821 13.3047 95.2517 13.622C94.6917 13.9393 94.043 14.098 93.3057 14.098ZM89.1617 16.716V6.524H90.8277V8.288L90.7717 10.276L90.9117 12.264V16.716H89.1617ZM93.1097 12.6C93.5297 12.6 93.903 12.5067 94.2297 12.32C94.5657 12.1333 94.8317 11.8627 95.0277 11.508C95.2237 11.1533 95.3217 10.738 95.3217 10.262C95.3217 9.77667 95.2237 9.36133 95.0277 9.016C94.8317 8.66133 94.5657 8.39067 94.2297 8.204C93.903 8.01733 93.5297 7.924 93.1097 7.924C92.6897 7.924 92.3117 8.01733 91.9757 8.204C91.6397 8.39067 91.3737 8.66133 91.1777 9.016C90.9817 9.36133 90.8837 9.77667 90.8837 10.262C90.8837 10.738 90.9817 11.1533 91.1777 11.508C91.3737 11.8627 91.6397 12.1333 91.9757 12.32C92.3117 12.5067 92.6897 12.6 93.1097 12.6ZM102.273 14.098C101.443 14.098 100.715 13.9347 100.089 13.608C99.4733 13.272 98.9927 12.8147 98.6473 12.236C98.3113 11.6573 98.1433 10.9993 98.1433 10.262C98.1433 9.51533 98.3067 8.85733 98.6333 8.288C98.9693 7.70933 99.4267 7.25667 100.005 6.93C100.593 6.60333 101.261 6.44 102.007 6.44C102.735 6.44 103.384 6.59867 103.953 6.916C104.523 7.23333 104.971 7.68133 105.297 8.26C105.624 8.83867 105.787 9.52 105.787 10.304C105.787 10.3787 105.783 10.4627 105.773 10.556C105.773 10.6493 105.769 10.738 105.759 10.822H99.5293V9.66H104.835L104.149 10.024C104.159 9.59467 104.07 9.21667 103.883 8.89C103.697 8.56333 103.44 8.30667 103.113 8.12C102.796 7.93333 102.427 7.84 102.007 7.84C101.578 7.84 101.2 7.93333 100.873 8.12C100.556 8.30667 100.304 8.568 100.117 8.904C99.94 9.23067 99.8513 9.618 99.8513 10.066V10.346C99.8513 10.794 99.954 11.1907 100.159 11.536C100.365 11.8813 100.654 12.1473 101.027 12.334C101.401 12.5207 101.83 12.614 102.315 12.614C102.735 12.614 103.113 12.5487 103.449 12.418C103.785 12.2873 104.084 12.082 104.345 11.802L105.283 12.88C104.947 13.272 104.523 13.5753 104.009 13.79C103.505 13.9953 102.927 14.098 102.273 14.098ZM109.778 14.098C109.153 14.098 108.551 14.0187 107.972 13.86C107.403 13.692 106.95 13.4913 106.614 13.258L107.286 11.928C107.622 12.1427 108.024 12.32 108.49 12.46C108.957 12.6 109.424 12.67 109.89 12.67C110.441 12.67 110.838 12.5953 111.08 12.446C111.332 12.2967 111.458 12.096 111.458 11.844C111.458 11.6387 111.374 11.4847 111.206 11.382C111.038 11.27 110.819 11.186 110.548 11.13C110.278 11.074 109.974 11.0227 109.638 10.976C109.312 10.9293 108.98 10.8687 108.644 10.794C108.318 10.71 108.019 10.5933 107.748 10.444C107.478 10.2853 107.258 10.0753 107.09 9.814C106.922 9.55267 106.838 9.20733 106.838 8.778C106.838 8.302 106.974 7.89133 107.244 7.546C107.515 7.19133 107.893 6.92067 108.378 6.734C108.873 6.538 109.456 6.44 110.128 6.44C110.632 6.44 111.141 6.496 111.654 6.608C112.168 6.72 112.592 6.87867 112.928 7.084L112.256 8.414C111.902 8.19933 111.542 8.05467 111.178 7.98C110.824 7.896 110.469 7.854 110.114 7.854C109.582 7.854 109.186 7.93333 108.924 8.092C108.672 8.25067 108.546 8.45133 108.546 8.694C108.546 8.918 108.63 9.086 108.798 9.198C108.966 9.31 109.186 9.39867 109.456 9.464C109.727 9.52933 110.026 9.58533 110.352 9.632C110.688 9.66933 111.02 9.73 111.346 9.814C111.673 9.898 111.972 10.0147 112.242 10.164C112.522 10.304 112.746 10.5047 112.914 10.766C113.082 11.0273 113.166 11.368 113.166 11.788C113.166 12.2547 113.026 12.6607 112.746 13.006C112.476 13.3513 112.088 13.622 111.584 13.818C111.08 14.0047 110.478 14.098 109.778 14.098Z" fill="black"/>
<path d="M4.704 14.14C3.92933 14.14 3.22933 13.944 2.604 13.552C1.988 13.16 1.50267 12.5907 1.148 11.844C0.793333 11.088 0.616 10.1733 0.616 9.1C0.616 8.02667 0.793333 7.11667 1.148 6.37C1.50267 5.614 1.988 5.04 2.604 4.648C3.22933 4.256 3.92933 4.06 4.704 4.06C5.488 4.06 6.188 4.256 6.804 4.648C7.42 5.04 7.90533 5.614 8.26 6.37C8.624 7.11667 8.806 8.02667 8.806 9.1C8.806 10.1733 8.624 11.088 8.26 11.844C7.90533 12.5907 7.42 13.16 6.804 13.552C6.188 13.944 5.488 14.14 4.704 14.14ZM4.704 12.558C5.16133 12.558 5.558 12.4367 5.894 12.194C6.23 11.942 6.49133 11.5593 6.678 11.046C6.874 10.5327 6.972 9.884 6.972 9.1C6.972 8.30667 6.874 7.658 6.678 7.154C6.49133 6.64067 6.23 6.26267 5.894 6.02C5.558 5.768 5.16133 5.642 4.704 5.642C4.26533 5.642 3.87333 5.768 3.528 6.02C3.192 6.26267 2.926 6.64067 2.73 7.154C2.54333 7.658 2.45 8.30667 2.45 9.1C2.45 9.884 2.54333 10.5327 2.73 11.046C2.926 11.5593 3.192 11.942 3.528 12.194C3.87333 12.4367 4.26533 12.558 4.704 12.558ZM10.1759 11.774V10.514L15.0059 4.2H16.9519L12.1919 10.514L11.2819 10.234H19.0519V11.774H10.1759ZM15.5519 14V11.774L15.6079 10.234V8.26H17.3159V14H15.5519ZM21.4633 14.098C21.146 14.098 20.8753 13.9907 20.6513 13.776C20.4273 13.552 20.3153 13.272 20.3153 12.936C20.3153 12.5813 20.4273 12.3013 20.6513 12.096C20.8753 11.8813 21.146 11.774 21.4633 11.774C21.7806 11.774 22.0513 11.8813 22.2753 12.096C22.4993 12.3013 22.6113 12.5813 22.6113 12.936C22.6113 13.272 22.4993 13.552 22.2753 13.776C22.0513 13.9907 21.7806 14.098 21.4633 14.098Z" fill="black"/>
<path d="M372.712 17.17C371.771 17.17 370.921 16.932 370.162 16.456C369.414 15.98 368.825 15.2887 368.394 14.382C367.963 13.464 367.748 12.3533 367.748 11.05C367.748 9.74667 367.963 8.64167 368.394 7.735C368.825 6.817 369.414 6.12 370.162 5.644C370.921 5.168 371.771 4.93 372.712 4.93C373.664 4.93 374.514 5.168 375.262 5.644C376.01 6.12 376.599 6.817 377.03 7.735C377.472 8.64167 377.693 9.74667 377.693 11.05C377.693 12.3533 377.472 13.464 377.03 14.382C376.599 15.2887 376.01 15.98 375.262 16.456C374.514 16.932 373.664 17.17 372.712 17.17ZM372.712 15.249C373.267 15.249 373.749 15.1017 374.157 14.807C374.565 14.501 374.882 14.0363 375.109 13.413C375.347 12.7897 375.466 12.002 375.466 11.05C375.466 10.0867 375.347 9.299 375.109 8.687C374.882 8.06367 374.565 7.60467 374.157 7.31C373.749 7.004 373.267 6.851 372.712 6.851C372.179 6.851 371.703 7.004 371.284 7.31C370.876 7.60467 370.553 8.06367 370.315 8.687C370.088 9.299 369.975 10.0867 369.975 11.05C369.975 12.002 370.088 12.7897 370.315 13.413C370.553 14.0363 370.876 14.501 371.284 14.807C371.703 15.1017 372.179 15.249 372.712 15.249ZM380.887 17V15.521L385.613 11.033C386.01 10.659 386.304 10.3303 386.497 10.047C386.69 9.76367 386.814 9.503 386.871 9.265C386.939 9.01567 386.973 8.78333 386.973 8.568C386.973 8.024 386.786 7.60467 386.412 7.31C386.038 7.004 385.488 6.851 384.763 6.851C384.185 6.851 383.658 6.953 383.182 7.157C382.717 7.361 382.315 7.67267 381.975 8.092L380.428 6.902C380.893 6.27867 381.516 5.797 382.298 5.457C383.091 5.10567 383.975 4.93 384.95 4.93C385.811 4.93 386.559 5.07167 387.194 5.355C387.84 5.627 388.333 6.018 388.673 6.528C389.024 7.038 389.2 7.64433 389.2 8.347C389.2 8.73233 389.149 9.11767 389.047 9.503C388.945 9.877 388.752 10.2737 388.469 10.693C388.186 11.1123 387.772 11.5827 387.228 12.104L383.165 15.963L382.706 15.13H389.659V17H380.887Z" fill="#16713D"/>
<path d="M27.26 31.94C26.8933 31.3333 26.61 30.6333 26.41 29.84C26.2167 29.0467 26.12 28.1867 26.12 27.26C26.12 26.3333 26.2167 25.47 26.41 24.67C26.61 23.8633 26.8933 23.1667 27.26 22.58H27.74C27.3467 23.2467 27.06 23.9667 26.88 24.74C26.7 25.5133 26.61 26.3533 26.61 27.26C26.61 28.1667 26.7 29.0067 26.88 29.78C27.06 30.5533 27.3467 31.2733 27.74 31.94H27.26ZM31.2729 30.05C30.7529 30.05 30.2596 29.9633 29.7929 29.79C29.3329 29.61 28.9762 29.38 28.7229 29.1L28.9529 28.72C29.1929 28.9667 29.5196 29.1767 29.9329 29.35C30.3529 29.5167 30.7962 29.6 31.2629 29.6C31.7296 29.6 32.1096 29.54 32.4029 29.42C32.7029 29.2933 32.9229 29.1267 33.0629 28.92C33.2096 28.7133 33.2829 28.4833 33.2829 28.23C33.2829 27.93 33.2029 27.69 33.0429 27.51C32.8829 27.33 32.6729 27.1867 32.4129 27.08C32.1529 26.9733 31.8696 26.8833 31.5629 26.81C31.2562 26.7367 30.9462 26.66 30.6329 26.58C30.3196 26.4933 30.0329 26.3833 29.7729 26.25C29.5129 26.1167 29.3029 25.9367 29.1429 25.71C28.9896 25.4767 28.9129 25.1767 28.9129 24.81C28.9129 24.4767 28.9996 24.17 29.1729 23.89C29.3462 23.61 29.6162 23.3833 29.9829 23.21C30.3496 23.0367 30.8196 22.95 31.3929 22.95C31.7796 22.95 32.1596 23.0067 32.5329 23.12C32.9129 23.2333 33.2362 23.3867 33.5029 23.58L33.3129 23.99C33.0196 23.79 32.7029 23.6433 32.3629 23.55C32.0296 23.45 31.7062 23.4 31.3929 23.4C30.9462 23.4 30.5762 23.4633 30.2829 23.59C29.9896 23.7167 29.7729 23.8867 29.6329 24.1C29.4929 24.3067 29.4229 24.54 29.4229 24.8C29.4229 25.1 29.4996 25.34 29.6529 25.52C29.8129 25.7 30.0229 25.8433 30.2829 25.95C30.5429 26.0567 30.8296 26.1467 31.1429 26.22C31.4562 26.2933 31.7662 26.3733 32.0729 26.46C32.3796 26.54 32.6629 26.6467 32.9229 26.78C33.1829 26.9133 33.3929 27.0933 33.5529 27.32C33.7129 27.5467 33.7929 27.84 33.7929 28.2C33.7929 28.5267 33.7029 28.8333 33.5229 29.12C33.3429 29.4 33.0662 29.6267 32.6929 29.8C32.3262 29.9667 31.8529 30.05 31.2729 30.05ZM36.8866 30.04C36.4266 30.04 36.0733 29.9133 35.8266 29.66C35.5866 29.4067 35.4666 29.06 35.4666 28.62V23.64H35.9666V28.57C35.9666 28.9033 36.05 29.16 36.2166 29.34C36.3833 29.52 36.6233 29.61 36.9366 29.61C37.2633 29.61 37.5333 29.5133 37.7466 29.32L37.9566 29.67C37.8233 29.7967 37.66 29.89 37.4666 29.95C37.28 30.01 37.0866 30.04 36.8866 30.04ZM34.5066 25.21V24.78H37.6266V25.21H34.5066ZM39.351 30V24.78H39.831V26.21L39.781 26.05C39.9277 25.63 40.1743 25.3067 40.521 25.08C40.8677 24.8533 41.301 24.74 41.821 24.74V25.23C41.801 25.23 41.781 25.23 41.761 25.23C41.741 25.2233 41.721 25.22 41.701 25.22C41.121 25.22 40.6677 25.4033 40.341 25.77C40.0143 26.13 39.851 26.6333 39.851 27.28V30H39.351ZM45.1898 30.04C44.6898 30.04 44.2432 29.9267 43.8498 29.7C43.4632 29.4733 43.1532 29.16 42.9198 28.76C42.6932 28.36 42.5798 27.9033 42.5798 27.39C42.5798 26.87 42.6932 26.4133 42.9198 26.02C43.1532 25.62 43.4632 25.3067 43.8498 25.08C44.2432 24.8533 44.6898 24.74 45.1898 24.74C45.6898 24.74 46.1365 24.8533 46.5298 25.08C46.9232 25.3067 47.2332 25.62 47.4598 26.02C47.6865 26.4133 47.7998 26.87 47.7998 27.39C47.7998 27.9033 47.6865 28.36 47.4598 28.76C47.2332 29.16 46.9232 29.4733 46.5298 29.7C46.1365 29.9267 45.6898 30.04 45.1898 30.04ZM45.1898 29.59C45.5898 29.59 45.9498 29.5 46.2698 29.32C46.5898 29.1333 46.8398 28.8733 47.0198 28.54C47.1998 28.2067 47.2898 27.8233 47.2898 27.39C47.2898 26.95 47.1998 26.5667 47.0198 26.24C46.8398 25.9067 46.5898 25.65 46.2698 25.47C45.9498 25.2833 45.5898 25.19 45.1898 25.19C44.7898 25.19 44.4298 25.2833 44.1098 25.47C43.7965 25.65 43.5465 25.9067 43.3598 26.24C43.1798 26.5667 43.0898 26.95 43.0898 27.39C43.0898 27.8233 43.1798 28.2067 43.3598 28.54C43.5465 28.8733 43.7965 29.1333 44.1098 29.32C44.4298 29.5 44.7898 29.59 45.1898 29.59ZM51.901 24.74C52.3277 24.74 52.6977 24.8233 53.011 24.99C53.331 25.15 53.5777 25.3967 53.751 25.73C53.931 26.0567 54.021 26.4633 54.021 26.95V30H53.521V26.99C53.521 26.4033 53.371 25.9567 53.071 25.65C52.7777 25.3433 52.3643 25.19 51.831 25.19C51.4243 25.19 51.071 25.2733 50.771 25.44C50.471 25.6067 50.241 25.84 50.081 26.14C49.9277 26.44 49.851 26.8 49.851 27.22V30H49.351V24.78H49.831V26.23L49.761 26.07C49.921 25.6567 50.1843 25.3333 50.551 25.1C50.9177 24.86 51.3677 24.74 51.901 24.74ZM58.2495 31.98C57.7762 31.98 57.3262 31.9067 56.8995 31.76C56.4729 31.6133 56.1262 31.41 55.8595 31.15L56.1295 30.77C56.3895 31.01 56.6995 31.1967 57.0595 31.33C57.4262 31.4633 57.8195 31.53 58.2395 31.53C58.9395 31.53 59.4529 31.3667 59.7795 31.04C60.1129 30.7133 60.2795 30.2 60.2795 29.5V28.05L60.3795 27.27L60.2995 26.49V24.78H60.7795V29.44C60.7795 30.3133 60.5662 30.9533 60.1395 31.36C59.7195 31.7733 59.0895 31.98 58.2495 31.98ZM58.1095 29.81C57.6162 29.81 57.1729 29.7033 56.7795 29.49C56.3929 29.27 56.0829 28.97 55.8495 28.59C55.6229 28.2033 55.5095 27.7633 55.5095 27.27C55.5095 26.77 55.6229 26.33 55.8495 25.95C56.0829 25.57 56.3929 25.2733 56.7795 25.06C57.1729 24.8467 57.6162 24.74 58.1095 24.74C58.5829 24.74 59.0062 24.8433 59.3795 25.05C59.7595 25.25 60.0595 25.54 60.2795 25.92C60.4995 26.2933 60.6095 26.7433 60.6095 27.27C60.6095 27.79 60.4995 28.24 60.2795 28.62C60.0595 29 59.7595 29.2933 59.3795 29.5C59.0062 29.7067 58.5829 29.81 58.1095 29.81ZM58.1495 29.36C58.5695 29.36 58.9395 29.2733 59.2595 29.1C59.5795 28.92 59.8295 28.6733 60.0095 28.36C60.1962 28.04 60.2895 27.6767 60.2895 27.27C60.2895 26.8567 60.1962 26.4933 60.0095 26.18C59.8295 25.8667 59.5795 25.6233 59.2595 25.45C58.9395 25.2767 58.5695 25.19 58.1495 25.19C57.7429 25.19 57.3762 25.2767 57.0495 25.45C56.7295 25.6233 56.4762 25.8667 56.2895 26.18C56.1095 26.4933 56.0195 26.8567 56.0195 27.27C56.0195 27.6767 56.1095 28.04 56.2895 28.36C56.4762 28.6733 56.7295 28.92 57.0495 29.1C57.3762 29.2733 57.7429 29.36 58.1495 29.36ZM68.6143 30.05C68.0876 30.05 67.601 29.9633 67.1543 29.79C66.7076 29.61 66.3176 29.36 65.9843 29.04C65.6576 28.72 65.4043 28.3467 65.2243 27.92C65.0443 27.4867 64.9543 27.0133 64.9543 26.5C64.9543 25.9867 65.0443 25.5167 65.2243 25.09C65.4043 24.6567 65.661 24.28 65.9943 23.96C66.3276 23.64 66.7143 23.3933 67.1543 23.22C67.601 23.04 68.091 22.95 68.6243 22.95C69.131 22.95 69.601 23.03 70.0343 23.19C70.4676 23.35 70.8376 23.59 71.1443 23.91L70.8243 24.25C70.5176 23.95 70.181 23.7367 69.8143 23.61C69.4543 23.4833 69.061 23.42 68.6343 23.42C68.181 23.42 67.761 23.4967 67.3743 23.65C66.9876 23.8033 66.651 24.02 66.3643 24.3C66.0776 24.58 65.8543 24.9067 65.6943 25.28C65.541 25.6533 65.4643 26.06 65.4643 26.5C65.4643 26.94 65.541 27.3467 65.6943 27.72C65.8543 28.0933 66.0776 28.42 66.3643 28.7C66.651 28.98 66.9876 29.1967 67.3743 29.35C67.761 29.5033 68.181 29.58 68.6343 29.58C69.0476 29.58 69.4376 29.5167 69.8043 29.39C70.1776 29.2633 70.5176 29.0533 70.8243 28.76L71.1143 29.15C70.801 29.45 70.4243 29.6767 69.9843 29.83C69.551 29.9767 69.0943 30.05 68.6143 30.05ZM70.6243 29.1V26.53H71.1143V29.15L70.6243 29.1ZM73.1987 30V24.78H73.6787V26.21L73.6287 26.05C73.7753 25.63 74.022 25.3067 74.3687 25.08C74.7153 24.8533 75.1487 24.74 75.6687 24.74V25.23C75.6487 25.23 75.6287 25.23 75.6087 25.23C75.5887 25.2233 75.5687 25.22 75.5487 25.22C74.9687 25.22 74.5153 25.4033 74.1887 25.77C73.862 26.13 73.6987 26.6333 73.6987 27.28V30H73.1987ZM77.0463 30V24.78H77.5463V30H77.0463ZM77.2963 23.51C77.183 23.51 77.0863 23.47 77.0063 23.39C76.9263 23.31 76.8863 23.2167 76.8863 23.11C76.8863 22.9967 76.9263 22.9 77.0063 22.82C77.0863 22.74 77.183 22.7 77.2963 22.7C77.4163 22.7 77.513 22.74 77.5863 22.82C77.6663 22.8933 77.7063 22.9867 77.7063 23.1C77.7063 23.2133 77.6663 23.31 77.5863 23.39C77.513 23.47 77.4163 23.51 77.2963 23.51ZM82.2738 30.04C81.8138 30.04 81.3971 29.9333 81.0238 29.72C80.6571 29.5067 80.3638 29.2033 80.1438 28.81C79.9304 28.41 79.8238 27.9367 79.8238 27.39C79.8238 26.8433 79.9304 26.3733 80.1438 25.98C80.3638 25.58 80.6571 25.2733 81.0238 25.06C81.3971 24.8467 81.8138 24.74 82.2738 24.74C82.7671 24.74 83.2071 24.8533 83.5938 25.08C83.9871 25.3 84.2938 25.61 84.5138 26.01C84.7404 26.41 84.8538 26.87 84.8538 27.39C84.8538 27.91 84.7404 28.37 84.5138 28.77C84.2938 29.17 83.9871 29.4833 83.5938 29.71C83.2071 29.93 82.7671 30.04 82.2738 30.04ZM79.6538 31.94V24.78H80.1338V26.49L80.0538 27.4L80.1538 28.31V31.94H79.6538ZM82.2438 29.59C82.6438 29.59 83.0038 29.5 83.3238 29.32C83.6438 29.1333 83.8938 28.8733 84.0738 28.54C84.2604 28.2067 84.3538 27.8233 84.3538 27.39C84.3538 26.95 84.2604 26.5667 84.0738 26.24C83.8938 25.9067 83.6438 25.65 83.3238 25.47C83.0038 25.2833 82.6438 25.19 82.2438 25.19C81.8438 25.19 81.4838 25.2833 81.1637 25.47C80.8504 25.65 80.6004 25.9067 80.4138 26.24C80.2338 26.5667 80.1438 26.95 80.1438 27.39C80.1438 27.8233 80.2338 28.2067 80.4138 28.54C80.6004 28.8733 80.8504 29.1333 81.1637 29.32C81.4838 29.5 81.8438 29.59 82.2438 29.59ZM86.1758 30.04C86.0624 30.04 85.9624 30 85.8758 29.92C85.7958 29.8333 85.7558 29.73 85.7558 29.61C85.7558 29.49 85.7958 29.39 85.8758 29.31C85.9624 29.23 86.0624 29.19 86.1758 29.19C86.2891 29.19 86.3858 29.23 86.4658 29.31C86.5524 29.39 86.5958 29.49 86.5958 29.61C86.5958 29.73 86.5524 29.8333 86.4658 29.92C86.3858 30 86.2891 30.04 86.1758 30.04ZM92.8061 30.05C92.2861 30.05 91.7928 29.9633 91.3261 29.79C90.8661 29.61 90.5094 29.38 90.2561 29.1L90.4861 28.72C90.7261 28.9667 91.0528 29.1767 91.4661 29.35C91.8861 29.5167 92.3294 29.6 92.7961 29.6C93.2628 29.6 93.6428 29.54 93.9361 29.42C94.2361 29.2933 94.4561 29.1267 94.5961 28.92C94.7428 28.7133 94.8161 28.4833 94.8161 28.23C94.8161 27.93 94.7361 27.69 94.5761 27.51C94.4161 27.33 94.2061 27.1867 93.9461 27.08C93.6861 26.9733 93.4028 26.8833 93.0961 26.81C92.7894 26.7367 92.4794 26.66 92.1661 26.58C91.8528 26.4933 91.5661 26.3833 91.3061 26.25C91.0461 26.1167 90.8361 25.9367 90.6761 25.71C90.5228 25.4767 90.4461 25.1767 90.4461 24.81C90.4461 24.4767 90.5328 24.17 90.7061 23.89C90.8794 23.61 91.1494 23.3833 91.5161 23.21C91.8828 23.0367 92.3528 22.95 92.9261 22.95C93.3128 22.95 93.6928 23.0067 94.0661 23.12C94.4461 23.2333 94.7694 23.3867 95.0361 23.58L94.8461 23.99C94.5528 23.79 94.2361 23.6433 93.8961 23.55C93.5628 23.45 93.2394 23.4 92.9261 23.4C92.4794 23.4 92.1094 23.4633 91.8161 23.59C91.5228 23.7167 91.3061 23.8867 91.1661 24.1C91.0261 24.3067 90.9561 24.54 90.9561 24.8C90.9561 25.1 91.0328 25.34 91.1861 25.52C91.3461 25.7 91.5561 25.8433 91.8161 25.95C92.0761 26.0567 92.3628 26.1467 92.6761 26.22C92.9894 26.2933 93.2994 26.3733 93.6061 26.46C93.9128 26.54 94.1961 26.6467 94.4561 26.78C94.7161 26.9133 94.9261 27.0933 95.0861 27.32C95.2461 27.5467 95.3261 27.84 95.3261 28.2C95.3261 28.5267 95.2361 28.8333 95.0561 29.12C94.8761 29.4 94.5994 29.6267 94.2261 29.8C93.8594 29.9667 93.3861 30.05 92.8061 30.05ZM99.0198 30.04C98.4932 30.04 98.0265 29.9267 97.6198 29.7C97.2198 29.4733 96.9032 29.16 96.6698 28.76C96.4432 28.36 96.3298 27.9033 96.3298 27.39C96.3298 26.87 96.4365 26.4133 96.6498 26.02C96.8698 25.62 97.1698 25.3067 97.5498 25.08C97.9298 24.8533 98.3565 24.74 98.8298 24.74C99.3032 24.74 99.7265 24.85 100.1 25.07C100.48 25.29 100.777 25.6 100.99 26C101.21 26.3933 101.32 26.85 101.32 27.37C101.32 27.39 101.317 27.4133 101.31 27.44C101.31 27.46 101.31 27.4833 101.31 27.51H96.6998V27.12H101.04L100.84 27.31C100.847 26.9033 100.76 26.54 100.58 26.22C100.407 25.8933 100.17 25.64 99.8698 25.46C99.5698 25.2733 99.2232 25.18 98.8298 25.18C98.4432 25.18 98.0965 25.2733 97.7898 25.46C97.4898 25.64 97.2532 25.8933 97.0798 26.22C96.9065 26.54 96.8198 26.9067 96.8198 27.32V27.41C96.8198 27.8367 96.9132 28.2167 97.0998 28.55C97.2932 28.8767 97.5565 29.1333 97.8898 29.32C98.2232 29.5 98.6032 29.59 99.0298 29.59C99.3632 29.59 99.6732 29.53 99.9598 29.41C100.253 29.29 100.5 29.1067 100.7 28.86L100.99 29.19C100.763 29.47 100.477 29.6833 100.13 29.83C99.7898 29.97 99.4198 30.04 99.0198 30.04ZM104.937 30.04C104.43 30.04 103.977 29.9267 103.577 29.7C103.183 29.4733 102.87 29.16 102.637 28.76C102.41 28.36 102.297 27.9033 102.297 27.39C102.297 26.87 102.41 26.41 102.637 26.01C102.87 25.61 103.183 25.3 103.577 25.08C103.977 24.8533 104.43 24.74 104.937 24.74C105.357 24.74 105.737 24.82 106.077 24.98C106.423 25.14 106.703 25.38 106.917 25.7L106.547 25.97C106.36 25.7033 106.127 25.5067 105.847 25.38C105.567 25.2533 105.263 25.19 104.937 25.19C104.53 25.19 104.163 25.2833 103.837 25.47C103.517 25.65 103.263 25.9067 103.077 26.24C102.897 26.5667 102.807 26.95 102.807 27.39C102.807 27.83 102.897 28.2167 103.077 28.55C103.263 28.8767 103.517 29.1333 103.837 29.32C104.163 29.5 104.53 29.59 104.937 29.59C105.263 29.59 105.567 29.5267 105.847 29.4C106.127 29.2733 106.36 29.0767 106.547 28.81L106.917 29.08C106.703 29.4 106.423 29.64 106.077 29.8C105.737 29.96 105.357 30.04 104.937 30.04ZM110.534 30.04C110.087 30.04 109.7 29.96 109.374 29.8C109.047 29.6333 108.794 29.3867 108.614 29.06C108.44 28.7267 108.354 28.3167 108.354 27.83V24.78H108.854V27.79C108.854 28.3767 109.004 28.8233 109.304 29.13C109.604 29.4367 110.027 29.59 110.574 29.59C110.967 29.59 111.307 29.5067 111.594 29.34C111.88 29.1733 112.1 28.94 112.254 28.64C112.407 28.3333 112.484 27.9733 112.484 27.56V24.78H112.984V30H112.504V28.55L112.574 28.72C112.42 29.1267 112.164 29.45 111.804 29.69C111.45 29.9233 111.027 30.04 110.534 30.04ZM115.103 30V24.78H115.583V26.21L115.533 26.05C115.68 25.63 115.926 25.3067 116.273 25.08C116.62 24.8533 117.053 24.74 117.573 24.74V25.23C117.553 25.23 117.533 25.23 117.513 25.23C117.493 25.2233 117.473 25.22 117.453 25.22C116.873 25.22 116.42 25.4033 116.093 25.77C115.766 26.13 115.603 26.6333 115.603 27.28V30H115.103ZM121.022 30.04C120.495 30.04 120.028 29.9267 119.622 29.7C119.222 29.4733 118.905 29.16 118.672 28.76C118.445 28.36 118.332 27.9033 118.332 27.39C118.332 26.87 118.438 26.4133 118.652 26.02C118.872 25.62 119.172 25.3067 119.552 25.08C119.932 24.8533 120.358 24.74 120.832 24.74C121.305 24.74 121.728 24.85 122.102 25.07C122.482 25.29 122.778 25.6 122.992 26C123.212 26.3933 123.322 26.85 123.322 27.37C123.322 27.39 123.318 27.4133 123.312 27.44C123.312 27.46 123.312 27.4833 123.312 27.51H118.702V27.12H123.042L122.842 27.31C122.848 26.9033 122.762 26.54 122.582 26.22C122.408 25.8933 122.172 25.64 121.872 25.46C121.572 25.2733 121.225 25.18 120.832 25.18C120.445 25.18 120.098 25.2733 119.792 25.46C119.492 25.64 119.255 25.8933 119.082 26.22C118.908 26.54 118.822 26.9067 118.822 27.32V27.41C118.822 27.8367 118.915 28.2167 119.102 28.55C119.295 28.8767 119.558 29.1333 119.892 29.32C120.225 29.5 120.605 29.59 121.032 29.59C121.365 29.59 121.675 29.53 121.962 29.41C122.255 29.29 122.502 29.1067 122.702 28.86L122.992 29.19C122.765 29.47 122.478 29.6833 122.132 29.83C121.792 29.97 121.422 30.04 121.022 30.04ZM129.437 30.05C128.917 30.05 128.424 29.9633 127.957 29.79C127.497 29.61 127.14 29.38 126.887 29.1L127.117 28.72C127.357 28.9667 127.684 29.1767 128.097 29.35C128.517 29.5167 128.96 29.6 129.427 29.6C129.894 29.6 130.274 29.54 130.567 29.42C130.867 29.2933 131.087 29.1267 131.227 28.92C131.374 28.7133 131.447 28.4833 131.447 28.23C131.447 27.93 131.367 27.69 131.207 27.51C131.047 27.33 130.837 27.1867 130.577 27.08C130.317 26.9733 130.034 26.8833 129.727 26.81C129.42 26.7367 129.11 26.66 128.797 26.58C128.484 26.4933 128.197 26.3833 127.937 26.25C127.677 26.1167 127.467 25.9367 127.307 25.71C127.154 25.4767 127.077 25.1767 127.077 24.81C127.077 24.4767 127.164 24.17 127.337 23.89C127.51 23.61 127.78 23.3833 128.147 23.21C128.514 23.0367 128.984 22.95 129.557 22.95C129.944 22.95 130.324 23.0067 130.697 23.12C131.077 23.2333 131.4 23.3867 131.667 23.58L131.477 23.99C131.184 23.79 130.867 23.6433 130.527 23.55C130.194 23.45 129.87 23.4 129.557 23.4C129.11 23.4 128.74 23.4633 128.447 23.59C128.154 23.7167 127.937 23.8867 127.797 24.1C127.657 24.3067 127.587 24.54 127.587 24.8C127.587 25.1 127.664 25.34 127.817 25.52C127.977 25.7 128.187 25.8433 128.447 25.95C128.707 26.0567 128.994 26.1467 129.307 26.22C129.62 26.2933 129.93 26.3733 130.237 26.46C130.544 26.54 130.827 26.6467 131.087 26.78C131.347 26.9133 131.557 27.0933 131.717 27.32C131.877 27.5467 131.957 27.84 131.957 28.2C131.957 28.5267 131.867 28.8333 131.687 29.12C131.507 29.4 131.23 29.6267 130.857 29.8C130.49 29.9667 130.017 30.05 129.437 30.05ZM135.651 30.04C135.124 30.04 134.657 29.9267 134.251 29.7C133.851 29.4733 133.534 29.16 133.301 28.76C133.074 28.36 132.961 27.9033 132.961 27.39C132.961 26.87 133.067 26.4133 133.281 26.02C133.501 25.62 133.801 25.3067 134.181 25.08C134.561 24.8533 134.987 24.74 135.461 24.74C135.934 24.74 136.357 24.85 136.731 25.07C137.111 25.29 137.407 25.6 137.621 26C137.841 26.3933 137.951 26.85 137.951 27.37C137.951 27.39 137.947 27.4133 137.941 27.44C137.941 27.46 137.941 27.4833 137.941 27.51H133.331V27.12H137.671L137.471 27.31C137.477 26.9033 137.391 26.54 137.211 26.22C137.037 25.8933 136.801 25.64 136.501 25.46C136.201 25.2733 135.854 25.18 135.461 25.18C135.074 25.18 134.727 25.2733 134.421 25.46C134.121 25.64 133.884 25.8933 133.711 26.22C133.537 26.54 133.451 26.9067 133.451 27.32V27.41C133.451 27.8367 133.544 28.2167 133.731 28.55C133.924 28.8767 134.187 29.1333 134.521 29.32C134.854 29.5 135.234 29.59 135.661 29.59C135.994 29.59 136.304 29.53 136.591 29.41C136.884 29.29 137.131 29.1067 137.331 28.86L137.621 29.19C137.394 29.47 137.107 29.6833 136.761 29.83C136.421 29.97 136.051 30.04 135.651 30.04ZM142.641 30V28.81L142.621 28.63V26.67C142.621 26.1833 142.488 25.8133 142.221 25.56C141.961 25.3067 141.578 25.18 141.071 25.18C140.711 25.18 140.374 25.2433 140.061 25.37C139.754 25.49 139.491 25.6467 139.271 25.84L139.021 25.48C139.281 25.2467 139.594 25.0667 139.961 24.94C140.328 24.8067 140.711 24.74 141.111 24.74C141.758 24.74 142.254 24.9033 142.601 25.23C142.948 25.5567 143.121 26.0433 143.121 26.69V30H142.641ZM140.761 30.04C140.374 30.04 140.038 29.98 139.751 29.86C139.471 29.7333 139.254 29.5567 139.101 29.33C138.954 29.1033 138.881 28.8433 138.881 28.55C138.881 28.2833 138.941 28.0433 139.061 27.83C139.188 27.61 139.394 27.4333 139.681 27.3C139.968 27.16 140.351 27.09 140.831 27.09H142.751V27.48H140.841C140.301 27.48 139.921 27.58 139.701 27.78C139.488 27.98 139.381 28.23 139.381 28.53C139.381 28.8633 139.508 29.13 139.761 29.33C140.014 29.53 140.371 29.63 140.831 29.63C141.271 29.63 141.641 29.53 141.941 29.33C142.248 29.13 142.474 28.84 142.621 28.46L142.761 28.8C142.621 29.18 142.381 29.4833 142.041 29.71C141.708 29.93 141.281 30.04 140.761 30.04ZM145.181 30V22.58H145.681V30H145.181ZM147.729 30.04C147.615 30.04 147.515 30 147.429 29.92C147.349 29.8333 147.309 29.73 147.309 29.61C147.309 29.49 147.349 29.39 147.429 29.31C147.515 29.23 147.615 29.19 147.729 29.19C147.842 29.19 147.939 29.23 148.019 29.31C148.105 29.39 148.149 29.49 148.149 29.61C148.149 29.73 148.105 29.8333 148.019 29.92C147.939 30 147.842 30.04 147.729 30.04ZM149.68 31.94H149.21C149.597 31.2733 149.88 30.5533 150.06 29.78C150.24 29.0067 150.33 28.1667 150.33 27.26C150.33 26.3533 150.24 25.5133 150.06 24.74C149.88 23.9667 149.597 23.2467 149.21 22.58H149.68C150.047 23.1667 150.33 23.8633 150.53 24.67C150.73 25.47 150.83 26.3333 150.83 27.26C150.83 28.1867 150.73 29.0467 150.53 29.84C150.33 30.6333 150.047 31.3333 149.68 31.94Z" fill="black"/>
</svg>
