<svg width="391" height="32" viewBox="0 0 391 32" fill="none" xmlns="http://www.w3.org/2000/svg">
<path d="M26.316 14V4.2H30.908C32.084 4.2 32.98 4.43333 33.596 4.9C34.212 5.35733 34.52 5.97333 34.52 6.748C34.52 7.27067 34.3987 7.71867 34.156 8.092C33.9133 8.456 33.5867 8.74067 33.176 8.946C32.7747 9.142 32.336 9.24 31.86 9.24L32.112 8.736C32.6627 8.736 33.1573 8.83867 33.596 9.044C34.0347 9.24 34.38 9.52933 34.632 9.912C34.8933 10.2947 35.024 10.7707 35.024 11.34C35.024 12.18 34.702 12.8333 34.058 13.3C33.414 13.7667 32.4573 14 31.188 14H26.316ZM28.136 12.572H31.076C31.7573 12.572 32.28 12.46 32.644 12.236C33.008 12.012 33.19 11.6527 33.19 11.158C33.19 10.6727 33.008 10.318 32.644 10.094C32.28 9.86067 31.7573 9.744 31.076 9.744H27.996V8.33H30.712C31.3467 8.33 31.832 8.218 32.168 7.994C32.5133 7.77 32.686 7.434 32.686 6.986C32.686 6.52867 32.5133 6.188 32.168 5.964C31.832 5.74 31.3467 5.628 30.712 5.628H28.136V12.572ZM39.9624 14.098C39.3277 14.098 38.7677 13.9813 38.2824 13.748C37.7971 13.5053 37.4191 13.1413 37.1484 12.656C36.8777 12.1613 36.7424 11.5407 36.7424 10.794V6.524H38.4924V10.556C38.4924 11.228 38.6417 11.732 38.9404 12.068C39.2484 12.3947 39.6824 12.558 40.2424 12.558C40.6531 12.558 41.0077 12.474 41.3064 12.306C41.6144 12.138 41.8524 11.886 42.0204 11.55C42.1977 11.214 42.2864 10.7987 42.2864 10.304V6.524H44.0364V14H42.3704V11.984L42.6644 12.6C42.4124 13.0853 42.0437 13.4587 41.5584 13.72C41.0731 13.972 40.5411 14.098 39.9624 14.098ZM50.4717 14.098C49.837 14.098 49.2724 13.958 48.7777 13.678C48.283 13.398 47.891 12.978 47.6017 12.418C47.3217 11.8487 47.1817 11.13 47.1817 10.262C47.1817 9.38467 47.3264 8.666 47.6157 8.106C47.9144 7.546 48.311 7.13067 48.8057 6.86C49.3097 6.58 49.865 6.44 50.4717 6.44C51.209 6.44 51.8577 6.59867 52.4177 6.916C52.987 7.23333 53.435 7.67667 53.7617 8.246C54.0977 8.81533 54.2657 9.48733 54.2657 10.262C54.2657 11.0367 54.0977 11.7087 53.7617 12.278C53.435 12.8473 52.987 13.2953 52.4177 13.622C51.8577 13.9393 51.209 14.098 50.4717 14.098ZM46.3277 14V3.612H48.0777V8.26L47.9377 10.248L47.9937 12.236V14H46.3277ZM50.2757 12.6C50.6957 12.6 51.069 12.5067 51.3957 12.32C51.7317 12.1333 51.9977 11.8627 52.1937 11.508C52.3897 11.1533 52.4877 10.738 52.4877 10.262C52.4877 9.77667 52.3897 9.36133 52.1937 9.016C51.9977 8.66133 51.7317 8.39067 51.3957 8.204C51.069 8.01733 50.6957 7.924 50.2757 7.924C49.8557 7.924 49.4777 8.01733 49.1417 8.204C48.8057 8.39067 48.5397 8.66133 48.3437 9.016C48.1477 9.36133 48.0497 9.77667 48.0497 10.262C48.0497 10.738 48.1477 11.1533 48.3437 11.508C48.5397 11.8627 48.8057 12.1333 49.1417 12.32C49.4777 12.5067 49.8557 12.6 50.2757 12.6ZM60.0693 14.098C59.4347 14.098 58.87 13.958 58.3753 13.678C57.8807 13.398 57.4887 12.978 57.1993 12.418C56.9193 11.8487 56.7793 11.13 56.7793 10.262C56.7793 9.38467 56.924 8.666 57.2133 8.106C57.512 7.546 57.9087 7.13067 58.4033 6.86C58.9073 6.58 59.4627 6.44 60.0693 6.44C60.8067 6.44 61.4553 6.59867 62.0153 6.916C62.5847 7.23333 63.0327 7.67667 63.3593 8.246C63.6953 8.81533 63.8633 9.48733 63.8633 10.262C63.8633 11.0367 63.6953 11.7087 63.3593 12.278C63.0327 12.8473 62.5847 13.2953 62.0153 13.622C61.4553 13.9393 60.8067 14.098 60.0693 14.098ZM55.9253 14V3.612H57.6753V8.26L57.5353 10.248L57.5913 12.236V14H55.9253ZM59.8733 12.6C60.2933 12.6 60.6667 12.5067 60.9933 12.32C61.3293 12.1333 61.5953 11.8627 61.7913 11.508C61.9873 11.1533 62.0853 10.738 62.0853 10.262C62.0853 9.77667 61.9873 9.36133 61.7913 9.016C61.5953 8.66133 61.3293 8.39067 60.9933 8.204C60.6667 8.01733 60.2933 7.924 59.8733 7.924C59.4533 7.924 59.0753 8.01733 58.7393 8.204C58.4033 8.39067 58.1373 8.66133 57.9413 9.016C57.7453 9.36133 57.6473 9.77667 57.6473 10.262C57.6473 10.738 57.7453 11.1533 57.9413 11.508C58.1373 11.8627 58.4033 12.1333 58.7393 12.32C59.0753 12.5067 59.4533 12.6 59.8733 12.6ZM65.523 14V3.612H67.273V14H65.523ZM73.0839 14.098C72.2532 14.098 71.5252 13.9347 70.8999 13.608C70.2839 13.272 69.8032 12.8147 69.4579 12.236C69.1219 11.6573 68.9539 10.9993 68.9539 10.262C68.9539 9.51533 69.1172 8.85733 69.4439 8.288C69.7799 7.70933 70.2372 7.25667 70.8159 6.93C71.4039 6.60333 72.0712 6.44 72.8179 6.44C73.5459 6.44 74.1945 6.59867 74.7639 6.916C75.3332 7.23333 75.7812 7.68133 76.1079 8.26C76.4345 8.83867 76.5979 9.52 76.5979 10.304C76.5979 10.3787 76.5932 10.4627 76.5839 10.556C76.5839 10.6493 76.5792 10.738 76.5699 10.822H70.3399V9.66H75.6459L74.9599 10.024C74.9692 9.59467 74.8805 9.21667 74.6939 8.89C74.5072 8.56333 74.2505 8.30667 73.9239 8.12C73.6065 7.93333 73.2379 7.84 72.8179 7.84C72.3885 7.84 72.0105 7.93333 71.6839 8.12C71.3665 8.30667 71.1145 8.568 70.9279 8.904C70.7505 9.23067 70.6619 9.618 70.6619 10.066V10.346C70.6619 10.794 70.7645 11.1907 70.9699 11.536C71.1752 11.8813 71.4645 12.1473 71.8379 12.334C72.2112 12.5207 72.6405 12.614 73.1259 12.614C73.5459 12.614 73.9239 12.5487 74.2599 12.418C74.5959 12.2873 74.8945 12.082 75.1559 11.802L76.0939 12.88C75.7579 13.272 75.3332 13.5753 74.8199 13.79C74.3159 13.9953 73.7372 14.098 73.0839 14.098ZM84.626 14L81.378 4.2H83.268L86.166 13.062H85.228L88.238 4.2H89.918L92.844 13.062H91.934L94.902 4.2H96.638L93.39 14H91.458L88.784 6.006H89.288L86.572 14H84.626ZM97.6656 14V6.524H99.3316V8.582L99.1356 7.98C99.3596 7.476 99.7096 7.09333 100.186 6.832C100.671 6.57067 101.273 6.44 101.992 6.44V8.106C101.917 8.08733 101.847 8.078 101.782 8.078C101.716 8.06867 101.651 8.064 101.586 8.064C100.923 8.064 100.396 8.26 100.004 8.652C99.6116 9.03467 99.4156 9.60867 99.4156 10.374V14H97.6656ZM107.549 14V12.488L107.451 12.166V9.52C107.451 9.00667 107.297 8.61 106.989 8.33C106.681 8.04067 106.214 7.896 105.589 7.896C105.169 7.896 104.754 7.96133 104.343 8.092C103.942 8.22267 103.601 8.40467 103.321 8.638L102.635 7.364C103.036 7.056 103.512 6.82733 104.063 6.678C104.623 6.51933 105.202 6.44 105.799 6.44C106.882 6.44 107.717 6.70133 108.305 7.224C108.902 7.73733 109.201 8.53533 109.201 9.618V14H107.549ZM105.197 14.098C104.637 14.098 104.147 14.0047 103.727 13.818C103.307 13.622 102.98 13.356 102.747 13.02C102.523 12.6747 102.411 12.2873 102.411 11.858C102.411 11.438 102.509 11.06 102.705 10.724C102.91 10.388 103.242 10.122 103.699 9.926C104.156 9.73 104.763 9.632 105.519 9.632H107.689V10.794H105.645C105.048 10.794 104.646 10.892 104.441 11.088C104.236 11.2747 104.133 11.508 104.133 11.788C104.133 12.1053 104.259 12.3573 104.511 12.544C104.763 12.7307 105.113 12.824 105.561 12.824C105.99 12.824 106.373 12.726 106.709 12.53C107.054 12.334 107.302 12.0447 107.451 11.662L107.745 12.712C107.577 13.1507 107.274 13.4913 106.835 13.734C106.406 13.9767 105.86 14.098 105.197 14.098ZM115.591 14.098C114.984 14.098 114.429 13.958 113.925 13.678C113.43 13.398 113.033 12.978 112.735 12.418C112.445 11.8487 112.301 11.13 112.301 10.262C112.301 9.38467 112.441 8.666 112.721 8.106C113.01 7.546 113.402 7.13067 113.897 6.86C114.391 6.58 114.956 6.44 115.591 6.44C116.328 6.44 116.977 6.59867 117.537 6.916C118.106 7.23333 118.554 7.67667 118.881 8.246C119.217 8.81533 119.385 9.48733 119.385 10.262C119.385 11.0367 119.217 11.7133 118.881 12.292C118.554 12.8613 118.106 13.3047 117.537 13.622C116.977 13.9393 116.328 14.098 115.591 14.098ZM111.447 16.716V6.524H113.113V8.288L113.057 10.276L113.197 12.264V16.716H111.447ZM115.395 12.6C115.815 12.6 116.188 12.5067 116.515 12.32C116.851 12.1333 117.117 11.8627 117.313 11.508C117.509 11.1533 117.607 10.738 117.607 10.262C117.607 9.77667 117.509 9.36133 117.313 9.016C117.117 8.66133 116.851 8.39067 116.515 8.204C116.188 8.01733 115.815 7.924 115.395 7.924C114.975 7.924 114.597 8.01733 114.261 8.204C113.925 8.39067 113.659 8.66133 113.463 9.016C113.267 9.36133 113.169 9.77667 113.169 10.262C113.169 10.738 113.267 11.1533 113.463 11.508C113.659 11.8627 113.925 12.1333 114.261 12.32C114.597 12.5067 114.975 12.6 115.395 12.6ZM125.082 14V4.2H129.114C129.982 4.2 130.724 4.34 131.34 4.62C131.965 4.9 132.446 5.30133 132.782 5.824C133.118 6.34667 133.286 6.96733 133.286 7.686C133.286 8.40467 133.118 9.02533 132.782 9.548C132.446 10.0613 131.965 10.458 131.34 10.738C130.724 11.0087 129.982 11.144 129.114 11.144H126.09L126.902 10.318V14H125.082ZM131.494 14L129.016 10.444H130.962L133.454 14H131.494ZM126.902 10.514L126.09 9.646H129.03C129.832 9.646 130.434 9.47333 130.836 9.128C131.246 8.78267 131.452 8.302 131.452 7.686C131.452 7.06067 131.246 6.58 130.836 6.244C130.434 5.908 129.832 5.74 129.03 5.74H126.09L126.902 4.844V10.514ZM138.514 14.098C137.749 14.098 137.067 13.9347 136.47 13.608C135.873 13.272 135.401 12.8147 135.056 12.236C134.711 11.6573 134.538 10.9993 134.538 10.262C134.538 9.51533 134.711 8.85733 135.056 8.288C135.401 7.70933 135.873 7.25667 136.47 6.93C137.067 6.60333 137.749 6.44 138.514 6.44C139.289 6.44 139.975 6.60333 140.572 6.93C141.179 7.25667 141.65 7.70467 141.986 8.274C142.331 8.84333 142.504 9.506 142.504 10.262C142.504 10.9993 142.331 11.6573 141.986 12.236C141.65 12.8147 141.179 13.272 140.572 13.608C139.975 13.9347 139.289 14.098 138.514 14.098ZM138.514 12.6C138.943 12.6 139.326 12.5067 139.662 12.32C139.998 12.1333 140.259 11.8627 140.446 11.508C140.642 11.1533 140.74 10.738 140.74 10.262C140.74 9.77667 140.642 9.36133 140.446 9.016C140.259 8.66133 139.998 8.39067 139.662 8.204C139.326 8.01733 138.948 7.924 138.528 7.924C138.099 7.924 137.716 8.01733 137.38 8.204C137.053 8.39067 136.792 8.66133 136.596 9.016C136.4 9.36133 136.302 9.77667 136.302 10.262C136.302 10.738 136.4 11.1533 136.596 11.508C136.792 11.8627 137.053 12.1333 137.38 12.32C137.716 12.5067 138.094 12.6 138.514 12.6ZM144.177 14V3.612H145.927V14H144.177ZM148.224 14V3.612H149.974V14H148.224Z" fill="black"/>
<path d="M4.704 14.14C3.92933 14.14 3.22933 13.944 2.604 13.552C1.988 13.16 1.50267 12.5907 1.148 11.844C0.793333 11.088 0.616 10.1733 0.616 9.1C0.616 8.02667 0.793333 7.11667 1.148 6.37C1.50267 5.614 1.988 5.04 2.604 4.648C3.22933 4.256 3.92933 4.06 4.704 4.06C5.488 4.06 6.188 4.256 6.804 4.648C7.42 5.04 7.90533 5.614 8.26 6.37C8.624 7.11667 8.806 8.02667 8.806 9.1C8.806 10.1733 8.624 11.088 8.26 11.844C7.90533 12.5907 7.42 13.16 6.804 13.552C6.188 13.944 5.488 14.14 4.704 14.14ZM4.704 12.558C5.16133 12.558 5.558 12.4367 5.894 12.194C6.23 11.942 6.49133 11.5593 6.678 11.046C6.874 10.5327 6.972 9.884 6.972 9.1C6.972 8.30667 6.874 7.658 6.678 7.154C6.49133 6.64067 6.23 6.26267 5.894 6.02C5.558 5.768 5.16133 5.642 4.704 5.642C4.26533 5.642 3.87333 5.768 3.528 6.02C3.192 6.26267 2.926 6.64067 2.73 7.154C2.54333 7.658 2.45 8.30667 2.45 9.1C2.45 9.884 2.54333 10.5327 2.73 11.046C2.926 11.5593 3.192 11.942 3.528 12.194C3.87333 12.4367 4.26533 12.558 4.704 12.558ZM14.2499 14.14C13.4379 14.14 12.7333 14.0187 12.1359 13.776C11.5386 13.5333 11.0766 13.1927 10.7499 12.754C10.4233 12.306 10.2599 11.7833 10.2599 11.186C10.2599 10.5887 10.4186 10.0847 10.7359 9.674C11.0533 9.26333 11.5106 8.95067 12.1079 8.736C12.7053 8.52133 13.4193 8.414 14.2499 8.414C15.0806 8.414 15.7946 8.52133 16.3919 8.736C16.9986 8.95067 17.4606 9.268 17.7779 9.688C18.1046 10.0987 18.2679 10.598 18.2679 11.186C18.2679 11.7833 18.0999 12.306 17.7639 12.754C17.4373 13.1927 16.9706 13.5333 16.3639 13.776C15.7666 14.0187 15.0619 14.14 14.2499 14.14ZM14.2499 12.712C14.9219 12.712 15.4539 12.572 15.8459 12.292C16.2379 12.012 16.4339 11.6247 16.4339 11.13C16.4339 10.6447 16.2379 10.262 15.8459 9.982C15.4539 9.702 14.9219 9.562 14.2499 9.562C13.5779 9.562 13.0506 9.702 12.6679 9.982C12.2853 10.262 12.0939 10.6447 12.0939 11.13C12.0939 11.6247 12.2853 12.012 12.6679 12.292C13.0506 12.572 13.5779 12.712 14.2499 12.712ZM14.2499 9.366C13.4939 9.366 12.8453 9.268 12.3039 9.072C11.7626 8.86667 11.3426 8.57267 11.0439 8.19C10.7546 7.798 10.6099 7.33133 10.6099 6.79C10.6099 6.23 10.7593 5.74933 11.0579 5.348C11.3659 4.93733 11.7953 4.62 12.3459 4.396C12.8966 4.172 13.5313 4.06 14.2499 4.06C14.9779 4.06 15.6173 4.172 16.1679 4.396C16.7186 4.62 17.1479 4.93733 17.4559 5.348C17.7639 5.74933 17.9179 6.23 17.9179 6.79C17.9179 7.33133 17.7686 7.798 17.4699 8.19C17.1806 8.57267 16.7606 8.86667 16.2099 9.072C15.6593 9.268 15.0059 9.366 14.2499 9.366ZM14.2499 8.246C14.8286 8.246 15.2859 8.12467 15.6219 7.882C15.9579 7.63 16.1259 7.294 16.1259 6.874C16.1259 6.43533 15.9533 6.09467 15.6079 5.852C15.2626 5.60933 14.8099 5.488 14.2499 5.488C13.6899 5.488 13.2419 5.60933 12.9059 5.852C12.5699 6.09467 12.4019 6.43533 12.4019 6.874C12.4019 7.294 12.5653 7.63 12.8919 7.882C13.2279 8.12467 13.6806 8.246 14.2499 8.246ZM20.9575 14.098C20.6401 14.098 20.3695 13.9907 20.1455 13.776C19.9215 13.552 19.8095 13.272 19.8095 12.936C19.8095 12.5813 19.9215 12.3013 20.1455 12.096C20.3695 11.8813 20.6401 11.774 20.9575 11.774C21.2748 11.774 21.5455 11.8813 21.7695 12.096C21.9935 12.3013 22.1055 12.5813 22.1055 12.936C22.1055 13.272 21.9935 13.552 21.7695 13.776C21.5455 13.9907 21.2748 14.098 20.9575 14.098Z" fill="black"/>
<path d="M372.712 17.17C371.771 17.17 370.921 16.932 370.162 16.456C369.414 15.98 368.825 15.2887 368.394 14.382C367.963 13.464 367.748 12.3533 367.748 11.05C367.748 9.74667 367.963 8.64167 368.394 7.735C368.825 6.817 369.414 6.12 370.162 5.644C370.921 5.168 371.771 4.93 372.712 4.93C373.664 4.93 374.514 5.168 375.262 5.644C376.01 6.12 376.599 6.817 377.03 7.735C377.472 8.64167 377.693 9.74667 377.693 11.05C377.693 12.3533 377.472 13.464 377.03 14.382C376.599 15.2887 376.01 15.98 375.262 16.456C374.514 16.932 373.664 17.17 372.712 17.17ZM372.712 15.249C373.267 15.249 373.749 15.1017 374.157 14.807C374.565 14.501 374.882 14.0363 375.109 13.413C375.347 12.7897 375.466 12.002 375.466 11.05C375.466 10.0867 375.347 9.299 375.109 8.687C374.882 8.06367 374.565 7.60467 374.157 7.31C373.749 7.004 373.267 6.851 372.712 6.851C372.179 6.851 371.703 7.004 371.284 7.31C370.876 7.60467 370.553 8.06367 370.315 8.687C370.088 9.299 369.975 10.0867 369.975 11.05C369.975 12.002 370.088 12.7897 370.315 13.413C370.553 14.0363 370.876 14.501 371.284 14.807C371.703 15.1017 372.179 15.249 372.712 15.249ZM384.63 17.17C383.792 17.17 382.97 17.051 382.165 16.813C381.372 16.5637 380.703 16.2237 380.159 15.793L381.111 14.076C381.542 14.4273 382.063 14.7107 382.675 14.926C383.287 15.1413 383.928 15.249 384.596 15.249C385.39 15.249 386.007 15.0903 386.449 14.773C386.891 14.4443 387.112 14.0023 387.112 13.447C387.112 12.903 386.908 12.4723 386.5 12.155C386.092 11.8377 385.435 11.679 384.528 11.679H383.44V10.166L386.84 6.12L387.129 6.953H380.737V5.1H388.846V6.579L385.446 10.625L384.29 9.945H384.953C386.415 9.945 387.509 10.2737 388.234 10.931C388.971 11.577 389.339 12.41 389.339 13.43C389.339 14.0987 389.169 14.7163 388.829 15.283C388.489 15.8497 387.968 16.3087 387.265 16.66C386.574 17 385.696 17.17 384.63 17.17Z" fill="#16713D"/>
<path d="M27.26 31.94C26.8933 31.3333 26.61 30.6333 26.41 29.84C26.2167 29.0467 26.12 28.1867 26.12 27.26C26.12 26.3333 26.2167 25.47 26.41 24.67C26.61 23.8633 26.8933 23.1667 27.26 22.58H27.74C27.3467 23.2467 27.06 23.9667 26.88 24.74C26.7 25.5133 26.61 26.3533 26.61 27.26C26.61 28.1667 26.7 29.0067 26.88 29.78C27.06 30.5533 27.3467 31.2733 27.74 31.94H27.26ZM32.3929 30.05C31.8729 30.05 31.3896 29.9633 30.9429 29.79C30.5029 29.61 30.1196 29.36 29.7929 29.04C29.4662 28.72 29.2129 28.3467 29.0329 27.92C28.8529 27.4867 28.7629 27.0133 28.7629 26.5C28.7629 25.9867 28.8529 25.5167 29.0329 25.09C29.2129 24.6567 29.4662 24.28 29.7929 23.96C30.1262 23.64 30.5129 23.3933 30.9529 23.22C31.3929 23.04 31.8729 22.95 32.3929 22.95C32.8862 22.95 33.3462 23.03 33.7729 23.19C34.2062 23.35 34.5762 23.5933 34.8829 23.92L34.5629 24.25C34.2629 23.9567 33.9296 23.7467 33.5629 23.62C33.2029 23.4867 32.8196 23.42 32.4129 23.42C31.9662 23.42 31.5496 23.4967 31.1629 23.65C30.7829 23.8033 30.4496 24.02 30.1629 24.3C29.8829 24.58 29.6629 24.9067 29.5029 25.28C29.3496 25.6533 29.2729 26.06 29.2729 26.5C29.2729 26.94 29.3496 27.3467 29.5029 27.72C29.6629 28.0933 29.8829 28.42 30.1629 28.7C30.4496 28.98 30.7829 29.1967 31.1629 29.35C31.5496 29.5033 31.9662 29.58 32.4129 29.58C32.8196 29.58 33.2029 29.5167 33.5629 29.39C33.9296 29.2567 34.2629 29.04 34.5629 28.74L34.8829 29.07C34.5762 29.3967 34.2062 29.6433 33.7729 29.81C33.3462 29.97 32.8862 30.05 32.3929 30.05ZM36.4311 30V22.58H36.9311V30H36.4311ZM41.1585 30.04C40.6318 30.04 40.1652 29.9267 39.7585 29.7C39.3585 29.4733 39.0418 29.16 38.8085 28.76C38.5818 28.36 38.4685 27.9033 38.4685 27.39C38.4685 26.87 38.5752 26.4133 38.7885 26.02C39.0085 25.62 39.3085 25.3067 39.6885 25.08C40.0685 24.8533 40.4952 24.74 40.9685 24.74C41.4418 24.74 41.8652 24.85 42.2385 25.07C42.6185 25.29 42.9152 25.6 43.1285 26C43.3485 26.3933 43.4585 26.85 43.4585 27.37C43.4585 27.39 43.4552 27.4133 43.4485 27.44C43.4485 27.46 43.4485 27.4833 43.4485 27.51H38.8385V27.12H43.1785L42.9785 27.31C42.9852 26.9033 42.8985 26.54 42.7185 26.22C42.5452 25.8933 42.3085 25.64 42.0085 25.46C41.7085 25.2733 41.3618 25.18 40.9685 25.18C40.5818 25.18 40.2352 25.2733 39.9285 25.46C39.6285 25.64 39.3918 25.8933 39.2185 26.22C39.0452 26.54 38.9585 26.9067 38.9585 27.32V27.41C38.9585 27.8367 39.0518 28.2167 39.2385 28.55C39.4318 28.8767 39.6952 29.1333 40.0285 29.32C40.3618 29.5 40.7418 29.59 41.1685 29.59C41.5018 29.59 41.8118 29.53 42.0985 29.41C42.3918 29.29 42.6385 29.1067 42.8385 28.86L43.1285 29.19C42.9018 29.47 42.6152 29.6833 42.2685 29.83C41.9285 29.97 41.5585 30.04 41.1585 30.04ZM48.1488 30V28.81L48.1288 28.63V26.67C48.1288 26.1833 47.9955 25.8133 47.7288 25.56C47.4688 25.3067 47.0855 25.18 46.5788 25.18C46.2188 25.18 45.8822 25.2433 45.5688 25.37C45.2622 25.49 44.9988 25.6467 44.7788 25.84L44.5288 25.48C44.7888 25.2467 45.1022 25.0667 45.4688 24.94C45.8355 24.8067 46.2188 24.74 46.6188 24.74C47.2655 24.74 47.7622 24.9033 48.1088 25.23C48.4555 25.5567 48.6288 26.0433 48.6288 26.69V30H48.1488ZM46.2688 30.04C45.8822 30.04 45.5455 29.98 45.2588 29.86C44.9788 29.7333 44.7622 29.5567 44.6088 29.33C44.4622 29.1033 44.3888 28.8433 44.3888 28.55C44.3888 28.2833 44.4488 28.0433 44.5688 27.83C44.6955 27.61 44.9022 27.4333 45.1888 27.3C45.4755 27.16 45.8588 27.09 46.3388 27.09H48.2588V27.48H46.3488C45.8088 27.48 45.4288 27.58 45.2088 27.78C44.9955 27.98 44.8888 28.23 44.8888 28.53C44.8888 28.8633 45.0155 29.13 45.2688 29.33C45.5222 29.53 45.8788 29.63 46.3388 29.63C46.7788 29.63 47.1488 29.53 47.4488 29.33C47.7555 29.13 47.9822 28.84 48.1288 28.46L48.2688 28.8C48.1288 29.18 47.8888 29.4833 47.5488 29.71C47.2155 29.93 46.7888 30.04 46.2688 30.04ZM50.6889 30V24.78H51.1689V26.21L51.1189 26.05C51.2656 25.63 51.5122 25.3067 51.8589 25.08C52.2056 24.8533 52.6389 24.74 53.1589 24.74V25.23C53.1389 25.23 53.1189 25.23 53.0989 25.23C53.0789 25.2233 53.0589 25.22 53.0389 25.22C52.4589 25.22 52.0056 25.4033 51.6789 25.77C51.3522 26.13 51.1889 26.6333 51.1889 27.28V30H50.6889ZM57.3528 30V23H59.8628C60.4495 23 60.9528 23.0933 61.3728 23.28C61.7928 23.4667 62.1161 23.7367 62.3428 24.09C62.5695 24.4367 62.6828 24.86 62.6828 25.36C62.6828 25.8467 62.5695 26.2667 62.3428 26.62C62.1161 26.9733 61.7928 27.2433 61.3728 27.43C60.9528 27.6167 60.4495 27.71 59.8628 27.71H57.6328L57.8628 27.47V30H57.3528ZM57.8628 27.5L57.6328 27.25H59.8628C60.6161 27.25 61.1861 27.0867 61.5728 26.76C61.9661 26.4267 62.1628 25.96 62.1628 25.36C62.1628 24.7533 61.9661 24.2867 61.5728 23.96C61.1861 23.6267 60.6161 23.46 59.8628 23.46H57.6328L57.8628 23.21V27.5ZM64.0776 30V24.78H64.5576V26.21L64.5076 26.05C64.6542 25.63 64.9009 25.3067 65.2476 25.08C65.5942 24.8533 66.0276 24.74 66.5476 24.74V25.23C66.5276 25.23 66.5076 25.23 66.4876 25.23C66.4676 25.2233 66.4476 25.22 66.4276 25.22C65.8476 25.22 65.3942 25.4033 65.0676 25.77C64.7409 26.13 64.5776 26.6333 64.5776 27.28V30H64.0776ZM69.9164 30.04C69.4164 30.04 68.9697 29.9267 68.5764 29.7C68.1897 29.4733 67.8797 29.16 67.6464 28.76C67.4197 28.36 67.3064 27.9033 67.3064 27.39C67.3064 26.87 67.4197 26.4133 67.6464 26.02C67.8797 25.62 68.1897 25.3067 68.5764 25.08C68.9697 24.8533 69.4164 24.74 69.9164 24.74C70.4164 24.74 70.8631 24.8533 71.2564 25.08C71.6497 25.3067 71.9597 25.62 72.1864 26.02C72.4131 26.4133 72.5264 26.87 72.5264 27.39C72.5264 27.9033 72.4131 28.36 72.1864 28.76C71.9597 29.16 71.6497 29.4733 71.2564 29.7C70.8631 29.9267 70.4164 30.04 69.9164 30.04ZM69.9164 29.59C70.3164 29.59 70.6764 29.5 70.9964 29.32C71.3164 29.1333 71.5664 28.8733 71.7464 28.54C71.9264 28.2067 72.0164 27.8233 72.0164 27.39C72.0164 26.95 71.9264 26.5667 71.7464 26.24C71.5664 25.9067 71.3164 25.65 70.9964 25.47C70.6764 25.2833 70.3164 25.19 69.9164 25.19C69.5164 25.19 69.1564 25.2833 68.8364 25.47C68.5231 25.65 68.2731 25.9067 68.0864 26.24C67.9064 26.5667 67.8164 26.95 67.8164 27.39C67.8164 27.8233 67.9064 28.2067 68.0864 28.54C68.2731 28.8733 68.5231 29.1333 68.8364 29.32C69.1564 29.5 69.5164 29.59 69.9164 29.59ZM75.5976 30.04C75.1376 30.04 74.7842 29.9133 74.5376 29.66C74.2976 29.4067 74.1776 29.06 74.1776 28.62V23.64H74.6776V28.57C74.6776 28.9033 74.7609 29.16 74.9276 29.34C75.0942 29.52 75.3342 29.61 75.6476 29.61C75.9742 29.61 76.2442 29.5133 76.4576 29.32L76.6676 29.67C76.5342 29.7967 76.3709 29.89 76.1776 29.95C75.9909 30.01 75.7976 30.04 75.5976 30.04ZM73.2176 25.21V24.78H76.3376V25.21H73.2176ZM79.9964 30.04C79.4697 30.04 79.0031 29.9267 78.5964 29.7C78.1964 29.4733 77.8797 29.16 77.6464 28.76C77.4197 28.36 77.3064 27.9033 77.3064 27.39C77.3064 26.87 77.4131 26.4133 77.6264 26.02C77.8464 25.62 78.1464 25.3067 78.5264 25.08C78.9064 24.8533 79.3331 24.74 79.8064 24.74C80.2797 24.74 80.7031 24.85 81.0764 25.07C81.4564 25.29 81.7531 25.6 81.9664 26C82.1864 26.3933 82.2964 26.85 82.2964 27.37C82.2964 27.39 82.2931 27.4133 82.2864 27.44C82.2864 27.46 82.2864 27.4833 82.2864 27.51H77.6764V27.12H82.0164L81.8164 27.31C81.8231 26.9033 81.7364 26.54 81.5564 26.22C81.3831 25.8933 81.1464 25.64 80.8464 25.46C80.5464 25.2733 80.1997 25.18 79.8064 25.18C79.4197 25.18 79.0731 25.2733 78.7664 25.46C78.4664 25.64 78.2297 25.8933 78.0564 26.22C77.8831 26.54 77.7964 26.9067 77.7964 27.32V27.41C77.7964 27.8367 77.8897 28.2167 78.0764 28.55C78.2697 28.8767 78.5331 29.1333 78.8664 29.32C79.1997 29.5 79.5797 29.59 80.0064 29.59C80.3397 29.59 80.6497 29.53 80.9364 29.41C81.2297 29.29 81.4764 29.1067 81.6764 28.86L81.9664 29.19C81.7397 29.47 81.4531 29.6833 81.1064 29.83C80.7664 29.97 80.3964 30.04 79.9964 30.04ZM85.9132 30.04C85.4065 30.04 84.9532 29.9267 84.5532 29.7C84.1599 29.4733 83.8465 29.16 83.6132 28.76C83.3865 28.36 83.2732 27.9033 83.2732 27.39C83.2732 26.87 83.3865 26.41 83.6132 26.01C83.8465 25.61 84.1599 25.3 84.5532 25.08C84.9532 24.8533 85.4065 24.74 85.9132 24.74C86.3332 24.74 86.7132 24.82 87.0532 24.98C87.3999 25.14 87.6799 25.38 87.8932 25.7L87.5232 25.97C87.3365 25.7033 87.1032 25.5067 86.8232 25.38C86.5432 25.2533 86.2399 25.19 85.9132 25.19C85.5065 25.19 85.1399 25.2833 84.8132 25.47C84.4932 25.65 84.2399 25.9067 84.0532 26.24C83.8732 26.5667 83.7832 26.95 83.7832 27.39C83.7832 27.83 83.8732 28.2167 84.0532 28.55C84.2399 28.8767 84.4932 29.1333 84.8132 29.32C85.1399 29.5 85.5065 29.59 85.9132 29.59C86.2399 29.59 86.5432 29.5267 86.8232 29.4C87.1032 29.2733 87.3365 29.0767 87.5232 28.81L87.8932 29.08C87.6799 29.4 87.3999 29.64 87.0532 29.8C86.7132 29.96 86.3332 30.04 85.9132 30.04ZM90.9687 30.04C90.5087 30.04 90.1553 29.9133 89.9087 29.66C89.6687 29.4067 89.5487 29.06 89.5487 28.62V23.64H90.0487V28.57C90.0487 28.9033 90.132 29.16 90.2987 29.34C90.4653 29.52 90.7053 29.61 91.0187 29.61C91.3453 29.61 91.6153 29.5133 91.8287 29.32L92.0387 29.67C91.9053 29.7967 91.742 29.89 91.5487 29.95C91.362 30.01 91.1687 30.04 90.9687 30.04ZM88.5887 25.21V24.78H91.7087V25.21H88.5887ZM93.433 30V24.78H93.933V30H93.433ZM93.683 23.51C93.5697 23.51 93.473 23.47 93.393 23.39C93.313 23.31 93.273 23.2167 93.273 23.11C93.273 22.9967 93.313 22.9 93.393 22.82C93.473 22.74 93.5697 22.7 93.683 22.7C93.803 22.7 93.8997 22.74 93.973 22.82C94.053 22.8933 94.093 22.9867 94.093 23.1C94.093 23.2133 94.053 23.31 93.973 23.39C93.8997 23.47 93.803 23.51 93.683 23.51ZM98.0805 30.04C97.5805 30.04 97.1338 29.9267 96.7405 29.7C96.3538 29.4733 96.0438 29.16 95.8105 28.76C95.5838 28.36 95.4705 27.9033 95.4705 27.39C95.4705 26.87 95.5838 26.4133 95.8105 26.02C96.0438 25.62 96.3538 25.3067 96.7405 25.08C97.1338 24.8533 97.5805 24.74 98.0805 24.74C98.5805 24.74 99.0271 24.8533 99.4205 25.08C99.8138 25.3067 100.124 25.62 100.35 26.02C100.577 26.4133 100.69 26.87 100.69 27.39C100.69 27.9033 100.577 28.36 100.35 28.76C100.124 29.16 99.8138 29.4733 99.4205 29.7C99.0271 29.9267 98.5805 30.04 98.0805 30.04ZM98.0805 29.59C98.4805 29.59 98.8405 29.5 99.1605 29.32C99.4805 29.1333 99.7305 28.8733 99.9105 28.54C100.09 28.2067 100.18 27.8233 100.18 27.39C100.18 26.95 100.09 26.5667 99.9105 26.24C99.7305 25.9067 99.4805 25.65 99.1605 25.47C98.8405 25.2833 98.4805 25.19 98.0805 25.19C97.6805 25.19 97.3205 25.2833 97.0005 25.47C96.6871 25.65 96.4371 25.9067 96.2505 26.24C96.0705 26.5667 95.9805 26.95 95.9805 27.39C95.9805 27.8233 96.0705 28.2067 96.2505 28.54C96.4371 28.8733 96.6871 29.1333 97.0005 29.32C97.3205 29.5 97.6805 29.59 98.0805 29.59ZM104.792 24.74C105.218 24.74 105.588 24.8233 105.902 24.99C106.222 25.15 106.468 25.3967 106.642 25.73C106.822 26.0567 106.912 26.4633 106.912 26.95V30H106.412V26.99C106.412 26.4033 106.262 25.9567 105.962 25.65C105.668 25.3433 105.255 25.19 104.722 25.19C104.315 25.19 103.962 25.2733 103.662 25.44C103.362 25.6067 103.132 25.84 102.972 26.14C102.818 26.44 102.742 26.8 102.742 27.22V30H102.242V24.78H102.722V26.23L102.652 26.07C102.812 25.6567 103.075 25.3333 103.442 25.1C103.808 24.86 104.258 24.74 104.792 24.74ZM108.91 30.04C108.797 30.04 108.697 30 108.61 29.92C108.53 29.8333 108.49 29.73 108.49 29.61C108.49 29.49 108.53 29.39 108.61 29.31C108.697 29.23 108.797 29.19 108.91 29.19C109.023 29.19 109.12 29.23 109.2 29.31C109.287 29.39 109.33 29.49 109.33 29.61C109.33 29.73 109.287 29.8333 109.2 29.92C109.12 30 109.023 30.04 108.91 30.04ZM115.54 30.05C115.02 30.05 114.527 29.9633 114.06 29.79C113.6 29.61 113.244 29.38 112.99 29.1L113.22 28.72C113.46 28.9667 113.787 29.1767 114.2 29.35C114.62 29.5167 115.064 29.6 115.53 29.6C115.997 29.6 116.377 29.54 116.67 29.42C116.97 29.2933 117.19 29.1267 117.33 28.92C117.477 28.7133 117.55 28.4833 117.55 28.23C117.55 27.93 117.47 27.69 117.31 27.51C117.15 27.33 116.94 27.1867 116.68 27.08C116.42 26.9733 116.137 26.8833 115.83 26.81C115.524 26.7367 115.214 26.66 114.9 26.58C114.587 26.4933 114.3 26.3833 114.04 26.25C113.78 26.1167 113.57 25.9367 113.41 25.71C113.257 25.4767 113.18 25.1767 113.18 24.81C113.18 24.4767 113.267 24.17 113.44 23.89C113.614 23.61 113.884 23.3833 114.25 23.21C114.617 23.0367 115.087 22.95 115.66 22.95C116.047 22.95 116.427 23.0067 116.8 23.12C117.18 23.2333 117.504 23.3867 117.77 23.58L117.58 23.99C117.287 23.79 116.97 23.6433 116.63 23.55C116.297 23.45 115.974 23.4 115.66 23.4C115.214 23.4 114.844 23.4633 114.55 23.59C114.257 23.7167 114.04 23.8867 113.9 24.1C113.76 24.3067 113.69 24.54 113.69 24.8C113.69 25.1 113.767 25.34 113.92 25.52C114.08 25.7 114.29 25.8433 114.55 25.95C114.81 26.0567 115.097 26.1467 115.41 26.22C115.724 26.2933 116.034 26.3733 116.34 26.46C116.647 26.54 116.93 26.6467 117.19 26.78C117.45 26.9133 117.66 27.0933 117.82 27.32C117.98 27.5467 118.06 27.84 118.06 28.2C118.06 28.5267 117.97 28.8333 117.79 29.12C117.61 29.4 117.334 29.6267 116.96 29.8C116.594 29.9667 116.12 30.05 115.54 30.05ZM121.754 30.04C121.308 30.04 120.921 29.96 120.594 29.8C120.268 29.6333 120.014 29.3867 119.834 29.06C119.661 28.7267 119.574 28.3167 119.574 27.83V24.78H120.074V27.79C120.074 28.3767 120.224 28.8233 120.524 29.13C120.824 29.4367 121.248 29.59 121.794 29.59C122.188 29.59 122.528 29.5067 122.814 29.34C123.101 29.1733 123.321 28.94 123.474 28.64C123.628 28.3333 123.704 27.9733 123.704 27.56V24.78H124.204V30H123.724V28.55L123.794 28.72C123.641 29.1267 123.384 29.45 123.024 29.69C122.671 29.9233 122.248 30.04 121.754 30.04ZM128.944 30.04C128.484 30.04 128.067 29.9333 127.694 29.72C127.327 29.5067 127.034 29.2033 126.814 28.81C126.6 28.41 126.494 27.9367 126.494 27.39C126.494 26.8433 126.6 26.3733 126.814 25.98C127.034 25.58 127.327 25.2733 127.694 25.06C128.067 24.8467 128.484 24.74 128.944 24.74C129.437 24.74 129.877 24.8533 130.264 25.08C130.657 25.3 130.964 25.61 131.184 26.01C131.41 26.41 131.524 26.87 131.524 27.39C131.524 27.91 131.41 28.37 131.184 28.77C130.964 29.17 130.657 29.4833 130.264 29.71C129.877 29.93 129.437 30.04 128.944 30.04ZM126.324 31.94V24.78H126.804V26.49L126.724 27.4L126.824 28.31V31.94H126.324ZM128.914 29.59C129.314 29.59 129.674 29.5 129.994 29.32C130.314 29.1333 130.564 28.8733 130.744 28.54C130.93 28.2067 131.024 27.8233 131.024 27.39C131.024 26.95 130.93 26.5667 130.744 26.24C130.564 25.9067 130.314 25.65 129.994 25.47C129.674 25.2833 129.314 25.19 128.914 25.19C128.514 25.19 128.154 25.2833 127.834 25.47C127.52 25.65 127.27 25.9067 127.084 26.24C126.904 26.5667 126.814 26.95 126.814 27.39C126.814 27.8233 126.904 28.2067 127.084 28.54C127.27 28.8733 127.52 29.1333 127.834 29.32C128.154 29.5 128.514 29.59 128.914 29.59ZM135.192 30.04C134.665 30.04 134.198 29.9267 133.792 29.7C133.392 29.4733 133.075 29.16 132.842 28.76C132.615 28.36 132.502 27.9033 132.502 27.39C132.502 26.87 132.608 26.4133 132.822 26.02C133.042 25.62 133.342 25.3067 133.722 25.08C134.102 24.8533 134.528 24.74 135.002 24.74C135.475 24.74 135.898 24.85 136.272 25.07C136.652 25.29 136.948 25.6 137.162 26C137.382 26.3933 137.492 26.85 137.492 27.37C137.492 27.39 137.488 27.4133 137.482 27.44C137.482 27.46 137.482 27.4833 137.482 27.51H132.872V27.12H137.212L137.012 27.31C137.018 26.9033 136.932 26.54 136.752 26.22C136.578 25.8933 136.342 25.64 136.042 25.46C135.742 25.2733 135.395 25.18 135.002 25.18C134.615 25.18 134.268 25.2733 133.962 25.46C133.662 25.64 133.425 25.8933 133.252 26.22C133.078 26.54 132.992 26.9067 132.992 27.32V27.41C132.992 27.8367 133.085 28.2167 133.272 28.55C133.465 28.8767 133.728 29.1333 134.062 29.32C134.395 29.5 134.775 29.59 135.202 29.59C135.535 29.59 135.845 29.53 136.132 29.41C136.425 29.29 136.672 29.1067 136.872 28.86L137.162 29.19C136.935 29.47 136.648 29.6833 136.302 29.83C135.962 29.97 135.592 30.04 135.192 30.04ZM139.039 30V24.78H139.519V26.21L139.469 26.05C139.615 25.63 139.862 25.3067 140.209 25.08C140.555 24.8533 140.989 24.74 141.509 24.74V25.23C141.489 25.23 141.469 25.23 141.449 25.23C141.429 25.2233 141.409 25.22 141.389 25.22C140.809 25.22 140.355 25.4033 140.029 25.77C139.702 26.13 139.539 26.6333 139.539 27.28V30H139.039ZM142.886 30V24.78H143.386V30H142.886ZM143.136 23.51C143.023 23.51 142.926 23.47 142.846 23.39C142.766 23.31 142.726 23.2167 142.726 23.11C142.726 22.9967 142.766 22.9 142.846 22.82C142.926 22.74 143.023 22.7 143.136 22.7C143.256 22.7 143.353 22.74 143.426 22.82C143.506 22.8933 143.546 22.9867 143.546 23.1C143.546 23.2133 143.506 23.31 143.426 23.39C143.353 23.47 143.256 23.51 143.136 23.51ZM147.534 30.04C147.034 30.04 146.587 29.9267 146.194 29.7C145.807 29.4733 145.497 29.16 145.264 28.76C145.037 28.36 144.924 27.9033 144.924 27.39C144.924 26.87 145.037 26.4133 145.264 26.02C145.497 25.62 145.807 25.3067 146.194 25.08C146.587 24.8533 147.034 24.74 147.534 24.74C148.034 24.74 148.48 24.8533 148.874 25.08C149.267 25.3067 149.577 25.62 149.804 26.02C150.03 26.4133 150.144 26.87 150.144 27.39C150.144 27.9033 150.03 28.36 149.804 28.76C149.577 29.16 149.267 29.4733 148.874 29.7C148.48 29.9267 148.034 30.04 147.534 30.04ZM147.534 29.59C147.934 29.59 148.294 29.5 148.614 29.32C148.934 29.1333 149.184 28.8733 149.364 28.54C149.544 28.2067 149.634 27.8233 149.634 27.39C149.634 26.95 149.544 26.5667 149.364 26.24C149.184 25.9067 148.934 25.65 148.614 25.47C148.294 25.2833 147.934 25.19 147.534 25.19C147.134 25.19 146.774 25.2833 146.454 25.47C146.14 25.65 145.89 25.9067 145.704 26.24C145.524 26.5667 145.434 26.95 145.434 27.39C145.434 27.8233 145.524 28.2067 145.704 28.54C145.89 28.8733 146.14 29.1333 146.454 29.32C146.774 29.5 147.134 29.59 147.534 29.59ZM151.695 30V24.78H152.175V26.21L152.125 26.05C152.271 25.63 152.518 25.3067 152.865 25.08C153.211 24.8533 153.645 24.74 154.165 24.74V25.23C154.145 25.23 154.125 25.23 154.105 25.23C154.085 25.2233 154.065 25.22 154.045 25.22C153.465 25.22 153.011 25.4033 152.685 25.77C152.358 26.13 152.195 26.6333 152.195 27.28V30H151.695ZM158.359 30V23H161.129C161.869 23 162.519 23.15 163.079 23.45C163.639 23.75 164.072 24.1633 164.379 24.69C164.692 25.2167 164.849 25.82 164.849 26.5C164.849 27.18 164.692 27.7833 164.379 28.31C164.072 28.8367 163.639 29.25 163.079 29.55C162.519 29.85 161.869 30 161.129 30H158.359ZM158.869 29.54H161.089C161.749 29.54 162.322 29.41 162.809 29.15C163.295 28.89 163.672 28.5333 163.939 28.08C164.205 27.62 164.339 27.0933 164.339 26.5C164.339 25.9067 164.205 25.3833 163.939 24.93C163.672 24.47 163.295 24.11 162.809 23.85C162.322 23.59 161.749 23.46 161.089 23.46H158.869V29.54ZM168.58 30.04C168.134 30.04 167.747 29.96 167.42 29.8C167.094 29.6333 166.84 29.3867 166.66 29.06C166.487 28.7267 166.4 28.3167 166.4 27.83V24.78H166.9V27.79C166.9 28.3767 167.05 28.8233 167.35 29.13C167.65 29.4367 168.074 29.59 168.62 29.59C169.014 29.59 169.354 29.5067 169.64 29.34C169.927 29.1733 170.147 28.94 170.3 28.64C170.454 28.3333 170.53 27.9733 170.53 27.56V24.78H171.03V30H170.55V28.55L170.62 28.72C170.467 29.1267 170.21 29.45 169.85 29.69C169.497 29.9233 169.074 30.04 168.58 30.04ZM173.15 30V24.78H173.63V26.21L173.58 26.05C173.727 25.63 173.973 25.3067 174.32 25.08C174.667 24.8533 175.1 24.74 175.62 24.74V25.23C175.6 25.23 175.58 25.23 175.56 25.23C175.54 25.2233 175.52 25.22 175.5 25.22C174.92 25.22 174.467 25.4033 174.14 25.77C173.813 26.13 173.65 26.6333 173.65 27.28V30H173.15ZM179.897 30V28.81L179.877 28.63V26.67C179.877 26.1833 179.744 25.8133 179.477 25.56C179.217 25.3067 178.834 25.18 178.327 25.18C177.967 25.18 177.63 25.2433 177.317 25.37C177.01 25.49 176.747 25.6467 176.527 25.84L176.277 25.48C176.537 25.2467 176.85 25.0667 177.217 24.94C177.584 24.8067 177.967 24.74 178.367 24.74C179.014 24.74 179.51 24.9033 179.857 25.23C180.204 25.5567 180.377 26.0433 180.377 26.69V30H179.897ZM178.017 30.04C177.63 30.04 177.294 29.98 177.007 29.86C176.727 29.7333 176.51 29.5567 176.357 29.33C176.21 29.1033 176.137 28.8433 176.137 28.55C176.137 28.2833 176.197 28.0433 176.317 27.83C176.444 27.61 176.65 27.4333 176.937 27.3C177.224 27.16 177.607 27.09 178.087 27.09H180.007V27.48H178.097C177.557 27.48 177.177 27.58 176.957 27.78C176.744 27.98 176.637 28.23 176.637 28.53C176.637 28.8633 176.764 29.13 177.017 29.33C177.27 29.53 177.627 29.63 178.087 29.63C178.527 29.63 178.897 29.53 179.197 29.33C179.504 29.13 179.73 28.84 179.877 28.46L180.017 28.8C179.877 29.18 179.637 29.4833 179.297 29.71C178.964 29.93 178.537 30.04 178.017 30.04ZM185.057 30.04C184.597 30.04 184.18 29.9333 183.807 29.72C183.44 29.5067 183.147 29.2 182.927 28.8C182.714 28.4 182.607 27.93 182.607 27.39C182.607 26.8367 182.714 26.3633 182.927 25.97C183.147 25.5767 183.44 25.2733 183.807 25.06C184.18 24.8467 184.597 24.74 185.057 24.74C185.55 24.74 185.99 24.8533 186.377 25.08C186.77 25.3 187.077 25.61 187.297 26.01C187.524 26.4033 187.637 26.8633 187.637 27.39C187.637 27.91 187.524 28.37 187.297 28.77C187.077 29.17 186.77 29.4833 186.377 29.71C185.99 29.93 185.55 30.04 185.057 30.04ZM182.437 30V22.58H182.937V26.47L182.837 27.38L182.917 28.29V30H182.437ZM185.027 29.59C185.427 29.59 185.787 29.5 186.107 29.32C186.427 29.1333 186.677 28.8733 186.857 28.54C187.044 28.2067 187.137 27.8233 187.137 27.39C187.137 26.95 187.044 26.5667 186.857 26.24C186.677 25.9067 186.427 25.65 186.107 25.47C185.787 25.2833 185.427 25.19 185.027 25.19C184.627 25.19 184.267 25.2833 183.947 25.47C183.634 25.65 183.384 25.9067 183.197 26.24C183.017 26.5667 182.927 26.95 182.927 27.39C182.927 27.8233 183.017 28.2067 183.197 28.54C183.384 28.8733 183.634 29.1333 183.947 29.32C184.267 29.5 184.627 29.59 185.027 29.59ZM189.185 30V24.78H189.685V30H189.185ZM189.435 23.51C189.322 23.51 189.225 23.47 189.145 23.39C189.065 23.31 189.025 23.2167 189.025 23.11C189.025 22.9967 189.065 22.9 189.145 22.82C189.225 22.74 189.322 22.7 189.435 22.7C189.555 22.7 189.652 22.74 189.725 22.82C189.805 22.8933 189.845 22.9867 189.845 23.1C189.845 23.2133 189.805 23.31 189.725 23.39C189.652 23.47 189.555 23.51 189.435 23.51ZM191.792 30V22.58H192.292V30H191.792ZM194.4 30V24.78H194.9V30H194.4ZM194.65 23.51C194.537 23.51 194.44 23.47 194.36 23.39C194.28 23.31 194.24 23.2167 194.24 23.11C194.24 22.9967 194.28 22.9 194.36 22.82C194.44 22.74 194.537 22.7 194.65 22.7C194.77 22.7 194.867 22.74 194.94 22.82C195.02 22.8933 195.06 22.9867 195.06 23.1C195.06 23.2133 195.02 23.31 194.94 23.39C194.867 23.47 194.77 23.51 194.65 23.51ZM198.527 30.04C198.067 30.04 197.714 29.9133 197.467 29.66C197.227 29.4067 197.107 29.06 197.107 28.62V23.64H197.607V28.57C197.607 28.9033 197.691 29.16 197.857 29.34C198.024 29.52 198.264 29.61 198.577 29.61C198.904 29.61 199.174 29.5133 199.387 29.32L199.597 29.67C199.464 29.7967 199.301 29.89 199.107 29.95C198.921 30.01 198.727 30.04 198.527 30.04ZM196.147 25.21V24.78H199.267V25.21H196.147ZM200.774 31.98C200.534 31.98 200.307 31.94 200.094 31.86C199.887 31.78 199.711 31.6633 199.564 31.51L199.814 31.13C199.947 31.27 200.091 31.3733 200.244 31.44C200.404 31.5067 200.584 31.54 200.784 31.54C201.024 31.54 201.234 31.4733 201.414 31.34C201.601 31.2067 201.774 30.9633 201.934 30.61L202.294 29.81L202.364 29.72L204.574 24.78H205.084L202.404 30.71C202.264 31.03 202.111 31.28 201.944 31.46C201.784 31.6467 201.607 31.78 201.414 31.86C201.221 31.94 201.007 31.98 200.774 31.98ZM202.284 30.13L199.864 24.78H200.394L202.594 29.69L202.284 30.13ZM205.775 30.04C205.662 30.04 205.562 30 205.475 29.92C205.395 29.8333 205.355 29.73 205.355 29.61C205.355 29.49 205.395 29.39 205.475 29.31C205.562 29.23 205.662 29.19 205.775 29.19C205.889 29.19 205.985 29.23 206.065 29.31C206.152 29.39 206.195 29.49 206.195 29.61C206.195 29.73 206.152 29.8333 206.065 29.92C205.985 30 205.889 30.04 205.775 30.04ZM207.727 31.94H207.257C207.644 31.2733 207.927 30.5533 208.107 29.78C208.287 29.0067 208.377 28.1667 208.377 27.26C208.377 26.3533 208.287 25.5133 208.107 24.74C207.927 23.9667 207.644 23.2467 207.257 22.58H207.727C208.094 23.1667 208.377 23.8633 208.577 24.67C208.777 25.47 208.877 26.3333 208.877 27.26C208.877 28.1867 208.777 29.0467 208.577 29.84C208.377 30.6333 208.094 31.3333 207.727 31.94Z" fill="black"/>
</svg>
