<svg width="391" height="32" viewBox="0 0 391 32" fill="none" xmlns="http://www.w3.org/2000/svg">
<path d="M27.982 8.708H32.868V10.248H27.982V8.708ZM28.136 14H26.316V4.2H33.47V5.726H28.136V14ZM34.9253 14V6.524H36.5913V8.582L36.3953 7.98C36.6193 7.476 36.9693 7.09333 37.4453 6.832C37.9307 6.57067 38.5327 6.44 39.2513 6.44V8.106C39.1767 8.08733 39.1067 8.078 39.0413 8.078C38.976 8.06867 38.9107 8.064 38.8453 8.064C38.1827 8.064 37.6553 8.26 37.2633 8.652C36.8713 9.03467 36.6753 9.60867 36.6753 10.374V14H34.9253ZM44.8087 14V12.488L44.7107 12.166V9.52C44.7107 9.00667 44.5567 8.61 44.2487 8.33C43.9407 8.04067 43.474 7.896 42.8487 7.896C42.4287 7.896 42.0134 7.96133 41.6027 8.092C41.2014 8.22267 40.8607 8.40467 40.5807 8.638L39.8947 7.364C40.296 7.056 40.772 6.82733 41.3227 6.678C41.8827 6.51933 42.4614 6.44 43.0587 6.44C44.1414 6.44 44.9767 6.70133 45.5647 7.224C46.162 7.73733 46.4607 8.53533 46.4607 9.618V14H44.8087ZM42.4567 14.098C41.8967 14.098 41.4067 14.0047 40.9867 13.818C40.5667 13.622 40.24 13.356 40.0067 13.02C39.7827 12.6747 39.6707 12.2873 39.6707 11.858C39.6707 11.438 39.7687 11.06 39.9647 10.724C40.17 10.388 40.5014 10.122 40.9587 9.926C41.416 9.73 42.0227 9.632 42.7787 9.632H44.9487V10.794H42.9047C42.3074 10.794 41.906 10.892 41.7007 11.088C41.4954 11.2747 41.3927 11.508 41.3927 11.788C41.3927 12.1053 41.5187 12.3573 41.7707 12.544C42.0227 12.7307 42.3727 12.824 42.8207 12.824C43.25 12.824 43.6327 12.726 43.9687 12.53C44.314 12.334 44.5614 12.0447 44.7107 11.662L45.0047 12.712C44.8367 13.1507 44.5334 13.4913 44.0947 13.734C43.6654 13.9767 43.1194 14.098 42.4567 14.098ZM52.1083 16.814C51.4176 16.814 50.7409 16.7207 50.0783 16.534C49.4249 16.3567 48.8883 16.0953 48.4683 15.75L49.2523 14.434C49.5789 14.7047 49.9896 14.9193 50.4843 15.078C50.9883 15.246 51.4969 15.33 52.0103 15.33C52.8316 15.33 53.4336 15.1387 53.8163 14.756C54.1989 14.3827 54.3903 13.818 54.3903 13.062V11.732L54.5303 10.038L54.4743 8.344V6.524H56.1403V12.866C56.1403 14.2193 55.7949 15.2133 55.1043 15.848C54.4136 16.492 53.4149 16.814 52.1083 16.814ZM51.8843 13.664C51.1749 13.664 50.5309 13.5147 49.9523 13.216C49.3829 12.908 48.9303 12.4833 48.5943 11.942C48.2676 11.4007 48.1043 10.766 48.1043 10.038C48.1043 9.31933 48.2676 8.68933 48.5943 8.148C48.9303 7.60667 49.3829 7.18667 49.9523 6.888C50.5309 6.58933 51.1749 6.44 51.8843 6.44C52.5189 6.44 53.0883 6.566 53.5923 6.818C54.0963 7.07 54.4976 7.462 54.7963 7.994C55.1043 8.526 55.2583 9.20733 55.2583 10.038C55.2583 10.8687 55.1043 11.5547 54.7963 12.096C54.4976 12.628 54.0963 13.0247 53.5923 13.286C53.0883 13.538 52.5189 13.664 51.8843 13.664ZM52.1503 12.18C52.5889 12.18 52.9809 12.0913 53.3263 11.914C53.6716 11.7273 53.9376 11.4753 54.1243 11.158C54.3203 10.8313 54.4183 10.458 54.4183 10.038C54.4183 9.618 54.3203 9.24933 54.1243 8.932C53.9376 8.60533 53.6716 8.358 53.3263 8.19C52.9809 8.01267 52.5889 7.924 52.1503 7.924C51.7116 7.924 51.3149 8.01267 50.9603 8.19C50.6149 8.358 50.3443 8.60533 50.1483 8.932C49.9616 9.24933 49.8683 9.618 49.8683 10.038C49.8683 10.458 49.9616 10.8313 50.1483 11.158C50.3443 11.4753 50.6149 11.7273 50.9603 11.914C51.3149 12.0913 51.7116 12.18 52.1503 12.18ZM58.441 14V6.524H60.191V14H58.441ZM59.323 5.292C58.9963 5.292 58.7256 5.18933 58.511 4.984C58.3056 4.77867 58.203 4.53133 58.203 4.242C58.203 3.94333 58.3056 3.696 58.511 3.5C58.7256 3.29467 58.9963 3.192 59.323 3.192C59.6496 3.192 59.9156 3.29 60.121 3.486C60.3356 3.67267 60.443 3.91067 60.443 4.2C60.443 4.508 60.3403 4.76933 60.135 4.984C59.9296 5.18933 59.659 5.292 59.323 5.292ZM62.4878 14V3.612H64.2378V14H62.4878ZM70.0487 14.098C69.2181 14.098 68.4901 13.9347 67.8647 13.608C67.2487 13.272 66.7681 12.8147 66.4227 12.236C66.0867 11.6573 65.9187 10.9993 65.9187 10.262C65.9187 9.51533 66.0821 8.85733 66.4087 8.288C66.7447 7.70933 67.2021 7.25667 67.7807 6.93C68.3687 6.60333 69.0361 6.44 69.7827 6.44C70.5107 6.44 71.1594 6.59867 71.7287 6.916C72.2981 7.23333 72.7461 7.68133 73.0727 8.26C73.3994 8.83867 73.5627 9.52 73.5627 10.304C73.5627 10.3787 73.5581 10.4627 73.5487 10.556C73.5487 10.6493 73.5441 10.738 73.5347 10.822H67.3047V9.66H72.6107L71.9247 10.024C71.9341 9.59467 71.8454 9.21667 71.6587 8.89C71.4721 8.56333 71.2154 8.30667 70.8887 8.12C70.5714 7.93333 70.2027 7.84 69.7827 7.84C69.3534 7.84 68.9754 7.93333 68.6487 8.12C68.3314 8.30667 68.0794 8.568 67.8927 8.904C67.7154 9.23067 67.6267 9.618 67.6267 10.066V10.346C67.6267 10.794 67.7294 11.1907 67.9347 11.536C68.1401 11.8813 68.4294 12.1473 68.8027 12.334C69.1761 12.5207 69.6054 12.614 70.0907 12.614C70.5107 12.614 70.8887 12.5487 71.2247 12.418C71.5607 12.2873 71.8594 12.082 72.1207 11.802L73.0587 12.88C72.7227 13.272 72.2981 13.5753 71.7847 13.79C71.2807 13.9953 70.7021 14.098 70.0487 14.098ZM86.1688 4.2H87.9888V14H86.1688V4.2ZM81.1008 14H79.2808V4.2H81.1008V14ZM86.3088 9.8H80.9468V8.246H86.3088V9.8ZM95.0528 14V12.488L94.9548 12.166V9.52C94.9548 9.00667 94.8008 8.61 94.4928 8.33C94.1848 8.04067 93.7182 7.896 93.0928 7.896C92.6728 7.896 92.2575 7.96133 91.8468 8.092C91.4455 8.22267 91.1048 8.40467 90.8248 8.638L90.1388 7.364C90.5402 7.056 91.0162 6.82733 91.5668 6.678C92.1268 6.51933 92.7055 6.44 93.3028 6.44C94.3855 6.44 95.2208 6.70133 95.8088 7.224C96.4062 7.73733 96.7048 8.53533 96.7048 9.618V14H95.0528ZM92.7008 14.098C92.1408 14.098 91.6508 14.0047 91.2308 13.818C90.8108 13.622 90.4842 13.356 90.2508 13.02C90.0268 12.6747 89.9148 12.2873 89.9148 11.858C89.9148 11.438 90.0128 11.06 90.2088 10.724C90.4142 10.388 90.7455 10.122 91.2028 9.926C91.6602 9.73 92.2668 9.632 93.0228 9.632H95.1928V10.794H93.1488C92.5515 10.794 92.1502 10.892 91.9448 11.088C91.7395 11.2747 91.6368 11.508 91.6368 11.788C91.6368 12.1053 91.7628 12.3573 92.0148 12.544C92.2668 12.7307 92.6168 12.824 93.0648 12.824C93.4942 12.824 93.8768 12.726 94.2128 12.53C94.5582 12.334 94.8055 12.0447 94.9548 11.662L95.2488 12.712C95.0808 13.1507 94.7775 13.4913 94.3388 13.734C93.9095 13.9767 93.3635 14.098 92.7008 14.098ZM103.193 6.44C103.79 6.44 104.322 6.55667 104.789 6.79C105.265 7.02333 105.638 7.38267 105.909 7.868C106.179 8.344 106.315 8.96 106.315 9.716V14H104.565V9.94C104.565 9.27733 104.406 8.78267 104.089 8.456C103.781 8.12933 103.347 7.966 102.787 7.966C102.376 7.966 102.012 8.05 101.695 8.218C101.377 8.386 101.13 8.638 100.953 8.974C100.785 9.30067 100.701 9.716 100.701 10.22V14H98.9507V6.524H100.617V8.54L100.323 7.924C100.584 7.448 100.962 7.084 101.457 6.832C101.961 6.57067 102.539 6.44 103.193 6.44ZM111.712 14.098C110.994 14.098 110.345 13.9393 109.766 13.622C109.197 13.2953 108.749 12.8473 108.422 12.278C108.096 11.7087 107.932 11.0367 107.932 10.262C107.932 9.48733 108.096 8.81533 108.422 8.246C108.749 7.67667 109.197 7.23333 109.766 6.916C110.345 6.59867 110.994 6.44 111.712 6.44C112.338 6.44 112.898 6.58 113.392 6.86C113.887 7.13067 114.279 7.546 114.568 8.106C114.858 8.666 115.002 9.38467 115.002 10.262C115.002 11.13 114.862 11.8487 114.582 12.418C114.302 12.978 113.915 13.398 113.42 13.678C112.926 13.958 112.356 14.098 111.712 14.098ZM111.922 12.6C112.342 12.6 112.716 12.5067 113.042 12.32C113.378 12.1333 113.644 11.8627 113.84 11.508C114.046 11.1533 114.148 10.738 114.148 10.262C114.148 9.77667 114.046 9.36133 113.84 9.016C113.644 8.66133 113.378 8.39067 113.042 8.204C112.716 8.01733 112.342 7.924 111.922 7.924C111.502 7.924 111.124 8.01733 110.788 8.204C110.462 8.39067 110.196 8.66133 109.99 9.016C109.794 9.36133 109.696 9.77667 109.696 10.262C109.696 10.738 109.794 11.1533 109.99 11.508C110.196 11.8627 110.462 12.1333 110.788 12.32C111.124 12.5067 111.502 12.6 111.922 12.6ZM114.19 14V12.236L114.26 10.248L114.12 8.26V3.612H115.856V14H114.19ZM118.16 14V3.612H119.91V14H118.16ZM125.721 14.098C124.89 14.098 124.162 13.9347 123.537 13.608C122.921 13.272 122.44 12.8147 122.095 12.236C121.759 11.6573 121.591 10.9993 121.591 10.262C121.591 9.51533 121.754 8.85733 122.081 8.288C122.417 7.70933 122.874 7.25667 123.453 6.93C124.041 6.60333 124.708 6.44 125.455 6.44C126.183 6.44 126.831 6.59867 127.401 6.916C127.97 7.23333 128.418 7.68133 128.745 8.26C129.071 8.83867 129.235 9.52 129.235 10.304C129.235 10.3787 129.23 10.4627 129.221 10.556C129.221 10.6493 129.216 10.738 129.207 10.822H122.977V9.66H128.283L127.597 10.024C127.606 9.59467 127.517 9.21667 127.331 8.89C127.144 8.56333 126.887 8.30667 126.561 8.12C126.243 7.93333 125.875 7.84 125.455 7.84C125.025 7.84 124.647 7.93333 124.321 8.12C124.003 8.30667 123.751 8.568 123.565 8.904C123.387 9.23067 123.299 9.618 123.299 10.066V10.346C123.299 10.794 123.401 11.1907 123.607 11.536C123.812 11.8813 124.101 12.1473 124.475 12.334C124.848 12.5207 125.277 12.614 125.763 12.614C126.183 12.614 126.561 12.5487 126.897 12.418C127.233 12.2873 127.531 12.082 127.793 11.802L128.731 12.88C128.395 13.272 127.97 13.5753 127.457 13.79C126.953 13.9953 126.374 14.098 125.721 14.098ZM137.263 14L134.015 4.2H135.905L138.803 13.062H137.865L140.875 4.2H142.555L145.481 13.062H144.571L147.539 4.2H149.275L146.027 14H144.095L141.421 6.006H141.925L139.209 14H137.263ZM150.658 14V6.524H152.408V14H150.658ZM151.54 5.292C151.213 5.292 150.942 5.18933 150.728 4.984C150.522 4.77867 150.42 4.53133 150.42 4.242C150.42 3.94333 150.522 3.696 150.728 3.5C150.942 3.29467 151.213 3.192 151.54 3.192C151.866 3.192 152.132 3.29 152.338 3.486C152.552 3.67267 152.66 3.91067 152.66 4.2C152.66 4.508 152.557 4.76933 152.352 4.984C152.146 5.18933 151.876 5.292 151.54 5.292ZM157.519 14.098C156.697 14.098 156.063 13.888 155.615 13.468C155.167 13.0387 154.943 12.4087 154.943 11.578V4.872H156.693V11.536C156.693 11.8907 156.781 12.166 156.959 12.362C157.145 12.558 157.402 12.656 157.729 12.656C158.121 12.656 158.447 12.5533 158.709 12.348L159.199 13.594C158.993 13.762 158.741 13.888 158.443 13.972C158.144 14.056 157.836 14.098 157.519 14.098ZM153.711 7.98V6.58H158.695V7.98H153.711ZM164.88 6.44C165.478 6.44 166.01 6.55667 166.476 6.79C166.952 7.02333 167.326 7.38267 167.596 7.868C167.867 8.344 168.002 8.96 168.002 9.716V14H166.252V9.94C166.252 9.27733 166.094 8.78267 165.776 8.456C165.468 8.12933 165.034 7.966 164.474 7.966C164.064 7.966 163.7 8.05 163.382 8.218C163.065 8.386 162.818 8.638 162.64 8.974C162.472 9.30067 162.388 9.716 162.388 10.22V14H160.638V3.612H162.388V8.54L162.01 7.924C162.272 7.448 162.65 7.084 163.144 6.832C163.648 6.57067 164.227 6.44 164.88 6.44ZM178.795 14.14C178.049 14.14 177.353 14.0187 176.709 13.776C176.075 13.524 175.519 13.174 175.043 12.726C174.577 12.2687 174.213 11.732 173.951 11.116C173.69 10.5 173.559 9.828 173.559 9.1C173.559 8.372 173.69 7.7 173.951 7.084C174.213 6.468 174.581 5.936 175.057 5.488C175.533 5.03067 176.089 4.68067 176.723 4.438C177.358 4.186 178.053 4.06 178.809 4.06C179.612 4.06 180.345 4.2 181.007 4.48C181.67 4.75067 182.23 5.15667 182.687 5.698L181.511 6.804C181.157 6.42133 180.76 6.13667 180.321 5.95C179.883 5.754 179.407 5.656 178.893 5.656C178.38 5.656 177.909 5.74 177.479 5.908C177.059 6.076 176.691 6.314 176.373 6.622C176.065 6.93 175.823 7.294 175.645 7.714C175.477 8.134 175.393 8.596 175.393 9.1C175.393 9.604 175.477 10.066 175.645 10.486C175.823 10.906 176.065 11.27 176.373 11.578C176.691 11.886 177.059 12.124 177.479 12.292C177.909 12.46 178.38 12.544 178.893 12.544C179.407 12.544 179.883 12.4507 180.321 12.264C180.76 12.068 181.157 11.774 181.511 11.382L182.687 12.502C182.23 13.034 181.67 13.44 181.007 13.72C180.345 14 179.607 14.14 178.795 14.14ZM188.801 14V12.488L188.703 12.166V9.52C188.703 9.00667 188.549 8.61 188.241 8.33C187.933 8.04067 187.466 7.896 186.841 7.896C186.421 7.896 186.006 7.96133 185.595 8.092C185.194 8.22267 184.853 8.40467 184.573 8.638L183.887 7.364C184.288 7.056 184.764 6.82733 185.315 6.678C185.875 6.51933 186.454 6.44 187.051 6.44C188.134 6.44 188.969 6.70133 189.557 7.224C190.154 7.73733 190.453 8.53533 190.453 9.618V14H188.801ZM186.449 14.098C185.889 14.098 185.399 14.0047 184.979 13.818C184.559 13.622 184.232 13.356 183.999 13.02C183.775 12.6747 183.663 12.2873 183.663 11.858C183.663 11.438 183.761 11.06 183.957 10.724C184.162 10.388 184.494 10.122 184.951 9.926C185.408 9.73 186.015 9.632 186.771 9.632H188.941V10.794H186.897C186.3 10.794 185.898 10.892 185.693 11.088C185.488 11.2747 185.385 11.508 185.385 11.788C185.385 12.1053 185.511 12.3573 185.763 12.544C186.015 12.7307 186.365 12.824 186.813 12.824C187.242 12.824 187.625 12.726 187.961 12.53C188.306 12.334 188.554 12.0447 188.703 11.662L188.997 12.712C188.829 13.1507 188.526 13.4913 188.087 13.734C187.658 13.9767 187.112 14.098 186.449 14.098ZM192.699 14V6.524H194.365V8.582L194.169 7.98C194.393 7.476 194.743 7.09333 195.219 6.832C195.704 6.57067 196.306 6.44 197.025 6.44V8.106C196.95 8.08733 196.88 8.078 196.815 8.078C196.749 8.06867 196.684 8.064 196.619 8.064C195.956 8.064 195.429 8.26 195.037 8.652C194.645 9.03467 194.449 9.60867 194.449 10.374V14H192.699ZM201.955 14.098C201.124 14.098 200.396 13.9347 199.771 13.608C199.155 13.272 198.674 12.8147 198.329 12.236C197.993 11.6573 197.825 10.9993 197.825 10.262C197.825 9.51533 197.988 8.85733 198.315 8.288C198.651 7.70933 199.108 7.25667 199.687 6.93C200.275 6.60333 200.942 6.44 201.689 6.44C202.417 6.44 203.066 6.59867 203.635 6.916C204.204 7.23333 204.652 7.68133 204.979 8.26C205.306 8.83867 205.469 9.52 205.469 10.304C205.469 10.3787 205.464 10.4627 205.455 10.556C205.455 10.6493 205.45 10.738 205.441 10.822H199.211V9.66H204.517L203.831 10.024C203.84 9.59467 203.752 9.21667 203.565 8.89C203.378 8.56333 203.122 8.30667 202.795 8.12C202.478 7.93333 202.109 7.84 201.689 7.84C201.26 7.84 200.882 7.93333 200.555 8.12C200.238 8.30667 199.986 8.568 199.799 8.904C199.622 9.23067 199.533 9.618 199.533 10.066V10.346C199.533 10.794 199.636 11.1907 199.841 11.536C200.046 11.8813 200.336 12.1473 200.709 12.334C201.082 12.5207 201.512 12.614 201.997 12.614C202.417 12.614 202.795 12.5487 203.131 12.418C203.467 12.2873 203.766 12.082 204.027 11.802L204.965 12.88C204.629 13.272 204.204 13.5753 203.691 13.79C203.187 13.9953 202.608 14.098 201.955 14.098ZM211.187 14V4.2H215.219C216.087 4.2 216.829 4.34 217.445 4.62C218.07 4.9 218.551 5.30133 218.887 5.824C219.223 6.34667 219.391 6.96733 219.391 7.686C219.391 8.40467 219.223 9.02533 218.887 9.548C218.551 10.0707 218.07 10.472 217.445 10.752C216.829 11.032 216.087 11.172 215.219 11.172H212.195L213.007 10.318V14H211.187ZM213.007 10.514L212.195 9.632H215.135C215.938 9.632 216.54 9.464 216.941 9.128C217.352 8.78267 217.557 8.302 217.557 7.686C217.557 7.06067 217.352 6.58 216.941 6.244C216.54 5.908 215.938 5.74 215.135 5.74H212.195L213.007 4.844V10.514ZM220.972 14V6.524H222.638V8.582L222.442 7.98C222.666 7.476 223.016 7.09333 223.492 6.832C223.978 6.57067 224.58 6.44 225.298 6.44V8.106C225.224 8.08733 225.154 8.078 225.088 8.078C225.023 8.06867 224.958 8.064 224.892 8.064C224.23 8.064 223.702 8.26 223.31 8.652C222.918 9.03467 222.722 9.60867 222.722 10.374V14H220.972ZM226.783 14V6.524H228.533V14H226.783ZM227.665 5.292C227.338 5.292 227.067 5.18933 226.853 4.984C226.647 4.77867 226.545 4.53133 226.545 4.242C226.545 3.94333 226.647 3.696 226.853 3.5C227.067 3.29467 227.338 3.192 227.665 3.192C227.991 3.192 228.257 3.29 228.463 3.486C228.677 3.67267 228.785 3.91067 228.785 4.2C228.785 4.508 228.682 4.76933 228.477 4.984C228.271 5.18933 228.001 5.292 227.665 5.292ZM235.072 6.44C235.669 6.44 236.201 6.55667 236.668 6.79C237.144 7.02333 237.517 7.38267 237.788 7.868C238.058 8.344 238.194 8.96 238.194 9.716V14H236.444V9.94C236.444 9.27733 236.285 8.78267 235.968 8.456C235.66 8.12933 235.226 7.966 234.666 7.966C234.255 7.966 233.891 8.05 233.574 8.218C233.256 8.386 233.009 8.638 232.832 8.974C232.664 9.30067 232.58 9.716 232.58 10.22V14H230.83V6.524H232.496V8.54L232.202 7.924C232.463 7.448 232.841 7.084 233.336 6.832C233.84 6.57067 234.418 6.44 235.072 6.44ZM243.228 14.098C242.406 14.098 241.772 13.888 241.324 13.468C240.876 13.0387 240.652 12.4087 240.652 11.578V4.872H242.402V11.536C242.402 11.8907 242.49 12.166 242.668 12.362C242.854 12.558 243.111 12.656 243.438 12.656C243.83 12.656 244.156 12.5533 244.418 12.348L244.908 13.594C244.702 13.762 244.45 13.888 244.152 13.972C243.853 14.056 243.545 14.098 243.228 14.098ZM239.42 7.98V6.58H244.404V7.98H239.42ZM249.615 14.098C248.784 14.098 248.056 13.9347 247.431 13.608C246.815 13.272 246.334 12.8147 245.989 12.236C245.653 11.6573 245.485 10.9993 245.485 10.262C245.485 9.51533 245.648 8.85733 245.975 8.288C246.311 7.70933 246.768 7.25667 247.347 6.93C247.935 6.60333 248.602 6.44 249.349 6.44C250.077 6.44 250.726 6.59867 251.295 6.916C251.864 7.23333 252.312 7.68133 252.639 8.26C252.966 8.83867 253.129 9.52 253.129 10.304C253.129 10.3787 253.124 10.4627 253.115 10.556C253.115 10.6493 253.11 10.738 253.101 10.822H246.871V9.66H252.177L251.491 10.024C251.5 9.59467 251.412 9.21667 251.225 8.89C251.038 8.56333 250.782 8.30667 250.455 8.12C250.138 7.93333 249.769 7.84 249.349 7.84C248.92 7.84 248.542 7.93333 248.215 8.12C247.898 8.30667 247.646 8.568 247.459 8.904C247.282 9.23067 247.193 9.618 247.193 10.066V10.346C247.193 10.794 247.296 11.1907 247.501 11.536C247.706 11.8813 247.996 12.1473 248.369 12.334C248.742 12.5207 249.172 12.614 249.657 12.614C250.077 12.614 250.455 12.5487 250.791 12.418C251.127 12.2873 251.426 12.082 251.687 11.802L252.625 12.88C252.289 13.272 251.864 13.5753 251.351 13.79C250.847 13.9953 250.268 14.098 249.615 14.098ZM254.81 14V6.524H256.476V8.582L256.28 7.98C256.504 7.476 256.854 7.09333 257.33 6.832C257.815 6.57067 258.417 6.44 259.136 6.44V8.106C259.061 8.08733 258.991 8.078 258.926 8.078C258.861 8.06867 258.795 8.064 258.73 8.064C258.067 8.064 257.54 8.26 257.148 8.652C256.756 9.03467 256.56 9.60867 256.56 10.374V14H254.81ZM266.714 14V5.74H263.466V4.2H271.782V5.74H268.534V14H266.714ZM277.19 14V12.488L277.092 12.166V9.52C277.092 9.00667 276.938 8.61 276.63 8.33C276.322 8.04067 275.855 7.896 275.23 7.896C274.81 7.896 274.394 7.96133 273.984 8.092C273.582 8.22267 273.242 8.40467 272.962 8.638L272.276 7.364C272.677 7.056 273.153 6.82733 273.704 6.678C274.264 6.51933 274.842 6.44 275.44 6.44C276.522 6.44 277.358 6.70133 277.946 7.224C278.543 7.73733 278.842 8.53533 278.842 9.618V14H277.19ZM274.838 14.098C274.278 14.098 273.788 14.0047 273.368 13.818C272.948 13.622 272.621 13.356 272.388 13.02C272.164 12.6747 272.052 12.2873 272.052 11.858C272.052 11.438 272.15 11.06 272.346 10.724C272.551 10.388 272.882 10.122 273.34 9.926C273.797 9.73 274.404 9.632 275.16 9.632H277.33V10.794H275.286C274.688 10.794 274.287 10.892 274.082 11.088C273.876 11.2747 273.774 11.508 273.774 11.788C273.774 12.1053 273.9 12.3573 274.152 12.544C274.404 12.7307 274.754 12.824 275.202 12.824C275.631 12.824 276.014 12.726 276.35 12.53C276.695 12.334 276.942 12.0447 277.092 11.662L277.386 12.712C277.218 13.1507 276.914 13.4913 276.476 13.734C276.046 13.9767 275.5 14.098 274.838 14.098ZM285.231 14.098C284.625 14.098 284.069 13.958 283.565 13.678C283.071 13.398 282.674 12.978 282.375 12.418C282.086 11.8487 281.941 11.13 281.941 10.262C281.941 9.38467 282.081 8.666 282.361 8.106C282.651 7.546 283.043 7.13067 283.537 6.86C284.032 6.58 284.597 6.44 285.231 6.44C285.969 6.44 286.617 6.59867 287.177 6.916C287.747 7.23333 288.195 7.67667 288.521 8.246C288.857 8.81533 289.025 9.48733 289.025 10.262C289.025 11.0367 288.857 11.7133 288.521 12.292C288.195 12.8613 287.747 13.3047 287.177 13.622C286.617 13.9393 285.969 14.098 285.231 14.098ZM281.087 16.716V6.524H282.753V8.288L282.697 10.276L282.837 12.264V16.716H281.087ZM285.035 12.6C285.455 12.6 285.829 12.5067 286.155 12.32C286.491 12.1333 286.757 11.8627 286.953 11.508C287.149 11.1533 287.247 10.738 287.247 10.262C287.247 9.77667 287.149 9.36133 286.953 9.016C286.757 8.66133 286.491 8.39067 286.155 8.204C285.829 8.01733 285.455 7.924 285.035 7.924C284.615 7.924 284.237 8.01733 283.901 8.204C283.565 8.39067 283.299 8.66133 283.103 9.016C282.907 9.36133 282.809 9.77667 282.809 10.262C282.809 10.738 282.907 11.1533 283.103 11.508C283.299 11.8627 283.565 12.1333 283.901 12.32C284.237 12.5067 284.615 12.6 285.035 12.6ZM294.199 14.098C293.368 14.098 292.64 13.9347 292.015 13.608C291.399 13.272 290.918 12.8147 290.573 12.236C290.237 11.6573 290.069 10.9993 290.069 10.262C290.069 9.51533 290.232 8.85733 290.559 8.288C290.895 7.70933 291.352 7.25667 291.931 6.93C292.519 6.60333 293.186 6.44 293.933 6.44C294.661 6.44 295.31 6.59867 295.879 6.916C296.448 7.23333 296.896 7.68133 297.223 8.26C297.55 8.83867 297.713 9.52 297.713 10.304C297.713 10.3787 297.708 10.4627 297.699 10.556C297.699 10.6493 297.694 10.738 297.685 10.822H291.455V9.66H296.761L296.075 10.024C296.084 9.59467 295.996 9.21667 295.809 8.89C295.622 8.56333 295.366 8.30667 295.039 8.12C294.722 7.93333 294.353 7.84 293.933 7.84C293.504 7.84 293.126 7.93333 292.799 8.12C292.482 8.30667 292.23 8.568 292.043 8.904C291.866 9.23067 291.777 9.618 291.777 10.066V10.346C291.777 10.794 291.88 11.1907 292.085 11.536C292.29 11.8813 292.58 12.1473 292.953 12.334C293.326 12.5207 293.756 12.614 294.241 12.614C294.661 12.614 295.039 12.5487 295.375 12.418C295.711 12.2873 296.01 12.082 296.271 11.802L297.209 12.88C296.873 13.272 296.448 13.5753 295.935 13.79C295.431 13.9953 294.852 14.098 294.199 14.098ZM301.704 14.098C301.079 14.098 300.477 14.0187 299.898 13.86C299.329 13.692 298.876 13.4913 298.54 13.258L299.212 11.928C299.548 12.1427 299.949 12.32 300.416 12.46C300.883 12.6 301.349 12.67 301.816 12.67C302.367 12.67 302.763 12.5953 303.006 12.446C303.258 12.2967 303.384 12.096 303.384 11.844C303.384 11.6387 303.3 11.4847 303.132 11.382C302.964 11.27 302.745 11.186 302.474 11.13C302.203 11.074 301.9 11.0227 301.564 10.976C301.237 10.9293 300.906 10.8687 300.57 10.794C300.243 10.71 299.945 10.5933 299.674 10.444C299.403 10.2853 299.184 10.0753 299.016 9.814C298.848 9.55267 298.764 9.20733 298.764 8.778C298.764 8.302 298.899 7.89133 299.17 7.546C299.441 7.19133 299.819 6.92067 300.304 6.734C300.799 6.538 301.382 6.44 302.054 6.44C302.558 6.44 303.067 6.496 303.58 6.608C304.093 6.72 304.518 6.87867 304.854 7.084L304.182 8.414C303.827 8.19933 303.468 8.05467 303.104 7.98C302.749 7.896 302.395 7.854 302.04 7.854C301.508 7.854 301.111 7.93333 300.85 8.092C300.598 8.25067 300.472 8.45133 300.472 8.694C300.472 8.918 300.556 9.086 300.724 9.198C300.892 9.31 301.111 9.39867 301.382 9.464C301.653 9.52933 301.951 9.58533 302.278 9.632C302.614 9.66933 302.945 9.73 303.272 9.814C303.599 9.898 303.897 10.0147 304.168 10.164C304.448 10.304 304.672 10.5047 304.84 10.766C305.008 11.0273 305.092 11.368 305.092 11.788C305.092 12.2547 304.952 12.6607 304.672 13.006C304.401 13.3513 304.014 13.622 303.51 13.818C303.006 14.0047 302.404 14.098 301.704 14.098Z" fill="black"/>
<path d="M4.704 14.14C3.92933 14.14 3.22933 13.944 2.604 13.552C1.988 13.16 1.50267 12.5907 1.148 11.844C0.793333 11.088 0.616 10.1733 0.616 9.1C0.616 8.02667 0.793333 7.11667 1.148 6.37C1.50267 5.614 1.988 5.04 2.604 4.648C3.22933 4.256 3.92933 4.06 4.704 4.06C5.488 4.06 6.188 4.256 6.804 4.648C7.42 5.04 7.90533 5.614 8.26 6.37C8.624 7.11667 8.806 8.02667 8.806 9.1C8.806 10.1733 8.624 11.088 8.26 11.844C7.90533 12.5907 7.42 13.16 6.804 13.552C6.188 13.944 5.488 14.14 4.704 14.14ZM4.704 12.558C5.16133 12.558 5.558 12.4367 5.894 12.194C6.23 11.942 6.49133 11.5593 6.678 11.046C6.874 10.5327 6.972 9.884 6.972 9.1C6.972 8.30667 6.874 7.658 6.678 7.154C6.49133 6.64067 6.23 6.26267 5.894 6.02C5.558 5.768 5.16133 5.642 4.704 5.642C4.26533 5.642 3.87333 5.768 3.528 6.02C3.192 6.26267 2.926 6.64067 2.73 7.154C2.54333 7.658 2.45 8.30667 2.45 9.1C2.45 9.884 2.54333 10.5327 2.73 11.046C2.926 11.5593 3.192 11.942 3.528 12.194C3.87333 12.4367 4.26533 12.558 4.704 12.558ZM13.5639 14.14C12.8733 14.14 12.1966 14.042 11.5339 13.846C10.8806 13.6407 10.3299 13.3607 9.88192 13.006L10.6519 11.592C11.0066 11.8813 11.4359 12.1147 11.9399 12.292C12.4533 12.4693 12.9853 12.558 13.5359 12.558C14.1799 12.558 14.6839 12.4227 15.0479 12.152C15.4213 11.8813 15.6079 11.5173 15.6079 11.06C15.6079 10.752 15.5286 10.4813 15.3699 10.248C15.2206 10.0147 14.9499 9.83733 14.5579 9.716C14.1753 9.59467 13.6479 9.534 12.9759 9.534H10.6099L11.1139 4.2H16.8679V5.726H11.7859L12.7379 4.858L12.3599 8.848L11.4079 7.994H13.3819C14.3526 7.994 15.1319 8.12467 15.7199 8.386C16.3173 8.638 16.7513 8.99267 17.0219 9.45C17.3019 9.898 17.4419 10.4113 17.4419 10.99C17.4419 11.5593 17.3019 12.082 17.0219 12.558C16.7419 13.034 16.3126 13.4167 15.7339 13.706C15.1646 13.9953 14.4413 14.14 13.5639 14.14ZM19.8637 14.098C19.5464 14.098 19.2757 13.9907 19.0517 13.776C18.8277 13.552 18.7157 13.272 18.7157 12.936C18.7157 12.5813 18.8277 12.3013 19.0517 12.096C19.2757 11.8813 19.5464 11.774 19.8637 11.774C20.181 11.774 20.4517 11.8813 20.6757 12.096C20.8997 12.3013 21.0117 12.5813 21.0117 12.936C21.0117 13.272 20.8997 13.552 20.6757 13.776C20.4517 13.9907 20.181 14.098 19.8637 14.098Z" fill="black"/>
<path d="M372.712 17.17C371.771 17.17 370.921 16.932 370.162 16.456C369.414 15.98 368.825 15.2887 368.394 14.382C367.963 13.464 367.748 12.3533 367.748 11.05C367.748 9.74667 367.963 8.64167 368.394 7.735C368.825 6.817 369.414 6.12 370.162 5.644C370.921 5.168 371.771 4.93 372.712 4.93C373.664 4.93 374.514 5.168 375.262 5.644C376.01 6.12 376.599 6.817 377.03 7.735C377.472 8.64167 377.693 9.74667 377.693 11.05C377.693 12.3533 377.472 13.464 377.03 14.382C376.599 15.2887 376.01 15.98 375.262 16.456C374.514 16.932 373.664 17.17 372.712 17.17ZM372.712 15.249C373.267 15.249 373.749 15.1017 374.157 14.807C374.565 14.501 374.882 14.0363 375.109 13.413C375.347 12.7897 375.466 12.002 375.466 11.05C375.466 10.0867 375.347 9.299 375.109 8.687C374.882 8.06367 374.565 7.60467 374.157 7.31C373.749 7.004 373.267 6.851 372.712 6.851C372.179 6.851 371.703 7.004 371.284 7.31C370.876 7.60467 370.553 8.06367 370.315 8.687C370.088 9.299 369.975 10.0867 369.975 11.05C369.975 12.002 370.088 12.7897 370.315 13.413C370.553 14.0363 370.876 14.501 371.284 14.807C371.703 15.1017 372.179 15.249 372.712 15.249ZM380.887 17V15.521L385.613 11.033C386.01 10.659 386.304 10.3303 386.497 10.047C386.69 9.76367 386.814 9.503 386.871 9.265C386.939 9.01567 386.973 8.78333 386.973 8.568C386.973 8.024 386.786 7.60467 386.412 7.31C386.038 7.004 385.488 6.851 384.763 6.851C384.185 6.851 383.658 6.953 383.182 7.157C382.717 7.361 382.315 7.67267 381.975 8.092L380.428 6.902C380.893 6.27867 381.516 5.797 382.298 5.457C383.091 5.10567 383.975 4.93 384.95 4.93C385.811 4.93 386.559 5.07167 387.194 5.355C387.84 5.627 388.333 6.018 388.673 6.528C389.024 7.038 389.2 7.64433 389.2 8.347C389.2 8.73233 389.149 9.11767 389.047 9.503C388.945 9.877 388.752 10.2737 388.469 10.693C388.186 11.1123 387.772 11.5827 387.228 12.104L383.165 15.963L382.706 15.13H389.659V17H380.887Z" fill="#16713D"/>
<path d="M27.26 31.94C26.8933 31.3333 26.61 30.6333 26.41 29.84C26.2167 29.0467 26.12 28.1867 26.12 27.26C26.12 26.3333 26.2167 25.47 26.41 24.67C26.61 23.8633 26.8933 23.1667 27.26 22.58H27.74C27.3467 23.2467 27.06 23.9667 26.88 24.74C26.7 25.5133 26.61 26.3533 26.61 27.26C26.61 28.1667 26.7 29.0067 26.88 29.78C27.06 30.5533 27.3467 31.2733 27.74 31.94H27.26ZM32.3929 30.05C31.8729 30.05 31.3896 29.9633 30.9429 29.79C30.5029 29.61 30.1196 29.36 29.7929 29.04C29.4662 28.72 29.2129 28.3467 29.0329 27.92C28.8529 27.4867 28.7629 27.0133 28.7629 26.5C28.7629 25.9867 28.8529 25.5167 29.0329 25.09C29.2129 24.6567 29.4662 24.28 29.7929 23.96C30.1262 23.64 30.5129 23.3933 30.9529 23.22C31.3929 23.04 31.8729 22.95 32.3929 22.95C32.8862 22.95 33.3462 23.03 33.7729 23.19C34.2062 23.35 34.5762 23.5933 34.8829 23.92L34.5629 24.25C34.2629 23.9567 33.9296 23.7467 33.5629 23.62C33.2029 23.4867 32.8196 23.42 32.4129 23.42C31.9662 23.42 31.5496 23.4967 31.1629 23.65C30.7829 23.8033 30.4496 24.02 30.1629 24.3C29.8829 24.58 29.6629 24.9067 29.5029 25.28C29.3496 25.6533 29.2729 26.06 29.2729 26.5C29.2729 26.94 29.3496 27.3467 29.5029 27.72C29.6629 28.0933 29.8829 28.42 30.1629 28.7C30.4496 28.98 30.7829 29.1967 31.1629 29.35C31.5496 29.5033 31.9662 29.58 32.4129 29.58C32.8196 29.58 33.2029 29.5167 33.5629 29.39C33.9296 29.2567 34.2629 29.04 34.5629 28.74L34.8829 29.07C34.5762 29.3967 34.2062 29.6433 33.7729 29.81C33.3462 29.97 32.8862 30.05 32.3929 30.05ZM36.4311 30V22.58H36.9311V30H36.4311ZM41.1585 30.04C40.6318 30.04 40.1652 29.9267 39.7585 29.7C39.3585 29.4733 39.0418 29.16 38.8085 28.76C38.5818 28.36 38.4685 27.9033 38.4685 27.39C38.4685 26.87 38.5752 26.4133 38.7885 26.02C39.0085 25.62 39.3085 25.3067 39.6885 25.08C40.0685 24.8533 40.4952 24.74 40.9685 24.74C41.4418 24.74 41.8652 24.85 42.2385 25.07C42.6185 25.29 42.9152 25.6 43.1285 26C43.3485 26.3933 43.4585 26.85 43.4585 27.37C43.4585 27.39 43.4552 27.4133 43.4485 27.44C43.4485 27.46 43.4485 27.4833 43.4485 27.51H38.8385V27.12H43.1785L42.9785 27.31C42.9852 26.9033 42.8985 26.54 42.7185 26.22C42.5452 25.8933 42.3085 25.64 42.0085 25.46C41.7085 25.2733 41.3618 25.18 40.9685 25.18C40.5818 25.18 40.2352 25.2733 39.9285 25.46C39.6285 25.64 39.3918 25.8933 39.2185 26.22C39.0452 26.54 38.9585 26.9067 38.9585 27.32V27.41C38.9585 27.8367 39.0518 28.2167 39.2385 28.55C39.4318 28.8767 39.6952 29.1333 40.0285 29.32C40.3618 29.5 40.7418 29.59 41.1685 29.59C41.5018 29.59 41.8118 29.53 42.0985 29.41C42.3918 29.29 42.6385 29.1067 42.8385 28.86L43.1285 29.19C42.9018 29.47 42.6152 29.6833 42.2685 29.83C41.9285 29.97 41.5585 30.04 41.1585 30.04ZM48.1488 30V28.81L48.1288 28.63V26.67C48.1288 26.1833 47.9955 25.8133 47.7288 25.56C47.4688 25.3067 47.0855 25.18 46.5788 25.18C46.2188 25.18 45.8822 25.2433 45.5688 25.37C45.2622 25.49 44.9988 25.6467 44.7788 25.84L44.5288 25.48C44.7888 25.2467 45.1022 25.0667 45.4688 24.94C45.8355 24.8067 46.2188 24.74 46.6188 24.74C47.2655 24.74 47.7622 24.9033 48.1088 25.23C48.4555 25.5567 48.6288 26.0433 48.6288 26.69V30H48.1488ZM46.2688 30.04C45.8822 30.04 45.5455 29.98 45.2588 29.86C44.9788 29.7333 44.7622 29.5567 44.6088 29.33C44.4622 29.1033 44.3888 28.8433 44.3888 28.55C44.3888 28.2833 44.4488 28.0433 44.5688 27.83C44.6955 27.61 44.9022 27.4333 45.1888 27.3C45.4755 27.16 45.8588 27.09 46.3388 27.09H48.2588V27.48H46.3488C45.8088 27.48 45.4288 27.58 45.2088 27.78C44.9955 27.98 44.8888 28.23 44.8888 28.53C44.8888 28.8633 45.0155 29.13 45.2688 29.33C45.5222 29.53 45.8788 29.63 46.3388 29.63C46.7788 29.63 47.1488 29.53 47.4488 29.33C47.7555 29.13 47.9822 28.84 48.1288 28.46L48.2688 28.8C48.1288 29.18 47.8888 29.4833 47.5488 29.71C47.2155 29.93 46.7888 30.04 46.2688 30.04ZM50.6889 30V24.78H51.1689V26.21L51.1189 26.05C51.2656 25.63 51.5122 25.3067 51.8589 25.08C52.2056 24.8533 52.6389 24.74 53.1589 24.74V25.23C53.1389 25.23 53.1189 25.23 53.0989 25.23C53.0789 25.2233 53.0589 25.22 53.0389 25.22C52.4589 25.22 52.0056 25.4033 51.6789 25.77C51.3522 26.13 51.1889 26.6333 51.1889 27.28V30H50.6889ZM58.9128 30L56.5328 23H57.0728L59.3328 29.69H59.0628L61.3928 23H61.8828L64.1928 29.69H63.9328L66.2128 23H66.7128L64.3428 30H63.8028L61.5628 23.53H61.6928L59.4528 30H58.9128ZM70.9125 30V28.81L70.8925 28.63V26.67C70.8925 26.1833 70.7592 25.8133 70.4925 25.56C70.2325 25.3067 69.8492 25.18 69.3425 25.18C68.9825 25.18 68.6458 25.2433 68.3325 25.37C68.0258 25.49 67.7625 25.6467 67.5425 25.84L67.2925 25.48C67.5525 25.2467 67.8658 25.0667 68.2325 24.94C68.5992 24.8067 68.9825 24.74 69.3825 24.74C70.0292 24.74 70.5258 24.9033 70.8725 25.23C71.2192 25.5567 71.3925 26.0433 71.3925 26.69V30H70.9125ZM69.0325 30.04C68.6458 30.04 68.3092 29.98 68.0225 29.86C67.7425 29.7333 67.5258 29.5567 67.3725 29.33C67.2258 29.1033 67.1525 28.8433 67.1525 28.55C67.1525 28.2833 67.2125 28.0433 67.3325 27.83C67.4592 27.61 67.6658 27.4333 67.9525 27.3C68.2392 27.16 68.6225 27.09 69.1025 27.09H71.0225V27.48H69.1125C68.5725 27.48 68.1925 27.58 67.9725 27.78C67.7592 27.98 67.6525 28.23 67.6525 28.53C67.6525 28.8633 67.7792 29.13 68.0325 29.33C68.2858 29.53 68.6425 29.63 69.1025 29.63C69.5425 29.63 69.9125 29.53 70.2125 29.33C70.5192 29.13 70.7458 28.84 70.8925 28.46L71.0325 28.8C70.8925 29.18 70.6525 29.4833 70.3125 29.71C69.9792 29.93 69.5525 30.04 69.0325 30.04ZM73.4526 30V24.78H73.9326V26.21L73.8826 26.05C74.0292 25.63 74.2759 25.3067 74.6226 25.08C74.9692 24.8533 75.4026 24.74 75.9226 24.74V25.23C75.9026 25.23 75.8826 25.23 75.8626 25.23C75.8426 25.2233 75.8226 25.22 75.8026 25.22C75.2226 25.22 74.7692 25.4033 74.4426 25.77C74.1159 26.13 73.9526 26.6333 73.9526 27.28V30H73.4526ZM79.8502 24.74C80.2769 24.74 80.6469 24.8233 80.9602 24.99C81.2802 25.15 81.5269 25.3967 81.7002 25.73C81.8802 26.0567 81.9702 26.4633 81.9702 26.95V30H81.4702V26.99C81.4702 26.4033 81.3202 25.9567 81.0202 25.65C80.7269 25.3433 80.3136 25.19 79.7802 25.19C79.3736 25.19 79.0202 25.2733 78.7202 25.44C78.4202 25.6067 78.1902 25.84 78.0302 26.14C77.8769 26.44 77.8002 26.8 77.8002 27.22V30H77.3002V24.78H77.7802V26.23L77.7102 26.07C77.8702 25.6567 78.1336 25.3333 78.5002 25.1C78.8669 24.86 79.3169 24.74 79.8502 24.74ZM84.0288 30V24.78H84.5288V30H84.0288ZM84.2788 23.51C84.1654 23.51 84.0688 23.47 83.9888 23.39C83.9088 23.31 83.8688 23.2167 83.8688 23.11C83.8688 22.9967 83.9088 22.9 83.9888 22.82C84.0688 22.74 84.1654 22.7 84.2788 22.7C84.3988 22.7 84.4954 22.74 84.5688 22.82C84.6488 22.8933 84.6888 22.9867 84.6888 23.1C84.6888 23.2133 84.6488 23.31 84.5688 23.39C84.4954 23.47 84.3988 23.51 84.2788 23.51ZM89.1862 24.74C89.6128 24.74 89.9828 24.8233 90.2962 24.99C90.6162 25.15 90.8628 25.3967 91.0362 25.73C91.2162 26.0567 91.3062 26.4633 91.3062 26.95V30H90.8062V26.99C90.8062 26.4033 90.6562 25.9567 90.3562 25.65C90.0628 25.3433 89.6495 25.19 89.1162 25.19C88.7095 25.19 88.3562 25.2733 88.0562 25.44C87.7562 25.6067 87.5262 25.84 87.3662 26.14C87.2128 26.44 87.1362 26.8 87.1362 27.22V30H86.6362V24.78H87.1162V26.23L87.0462 26.07C87.2062 25.6567 87.4695 25.3333 87.8362 25.1C88.2028 24.86 88.6528 24.74 89.1862 24.74ZM95.5347 31.98C95.0614 31.98 94.6114 31.9067 94.1847 31.76C93.758 31.6133 93.4114 31.41 93.1447 31.15L93.4147 30.77C93.6747 31.01 93.9847 31.1967 94.3447 31.33C94.7114 31.4633 95.1047 31.53 95.5247 31.53C96.2247 31.53 96.738 31.3667 97.0647 31.04C97.398 30.7133 97.5647 30.2 97.5647 29.5V28.05L97.6647 27.27L97.5847 26.49V24.78H98.0647V29.44C98.0647 30.3133 97.8514 30.9533 97.4247 31.36C97.0047 31.7733 96.3747 31.98 95.5347 31.98ZM95.3947 29.81C94.9014 29.81 94.458 29.7033 94.0647 29.49C93.678 29.27 93.368 28.97 93.1347 28.59C92.908 28.2033 92.7947 27.7633 92.7947 27.27C92.7947 26.77 92.908 26.33 93.1347 25.95C93.368 25.57 93.678 25.2733 94.0647 25.06C94.458 24.8467 94.9014 24.74 95.3947 24.74C95.868 24.74 96.2914 24.8433 96.6647 25.05C97.0447 25.25 97.3447 25.54 97.5647 25.92C97.7847 26.2933 97.8947 26.7433 97.8947 27.27C97.8947 27.79 97.7847 28.24 97.5647 28.62C97.3447 29 97.0447 29.2933 96.6647 29.5C96.2914 29.7067 95.868 29.81 95.3947 29.81ZM95.4347 29.36C95.8547 29.36 96.2247 29.2733 96.5447 29.1C96.8647 28.92 97.1147 28.6733 97.2947 28.36C97.4814 28.04 97.5747 27.6767 97.5747 27.27C97.5747 26.8567 97.4814 26.4933 97.2947 26.18C97.1147 25.8667 96.8647 25.6233 96.5447 25.45C96.2247 25.2767 95.8547 25.19 95.4347 25.19C95.028 25.19 94.6614 25.2767 94.3347 25.45C94.0147 25.6233 93.7614 25.8667 93.5747 26.18C93.3947 26.4933 93.3047 26.8567 93.3047 27.27C93.3047 27.6767 93.3947 28.04 93.5747 28.36C93.7614 28.6733 94.0147 28.92 94.3347 29.1C94.6614 29.2733 95.028 29.36 95.4347 29.36ZM102.909 30V23H103.339L106.589 28.61H106.359L109.599 23H110.019L110.029 30H109.529L109.519 23.77H109.659L106.589 29.07H106.339L103.259 23.77H103.409V30H102.909ZM114.43 30.04C113.903 30.04 113.437 29.9267 113.03 29.7C112.63 29.4733 112.313 29.16 112.08 28.76C111.853 28.36 111.74 27.9033 111.74 27.39C111.74 26.87 111.847 26.4133 112.06 26.02C112.28 25.62 112.58 25.3067 112.96 25.08C113.34 24.8533 113.767 24.74 114.24 24.74C114.713 24.74 115.137 24.85 115.51 25.07C115.89 25.29 116.187 25.6 116.4 26C116.62 26.3933 116.73 26.85 116.73 27.37C116.73 27.39 116.727 27.4133 116.72 27.44C116.72 27.46 116.72 27.4833 116.72 27.51H112.11V27.12H116.45L116.25 27.31C116.257 26.9033 116.17 26.54 115.99 26.22C115.817 25.8933 115.58 25.64 115.28 25.46C114.98 25.2733 114.633 25.18 114.24 25.18C113.853 25.18 113.507 25.2733 113.2 25.46C112.9 25.64 112.663 25.8933 112.49 26.22C112.317 26.54 112.23 26.9067 112.23 27.32V27.41C112.23 27.8367 112.323 28.2167 112.51 28.55C112.703 28.8767 112.967 29.1333 113.3 29.32C113.633 29.5 114.013 29.59 114.44 29.59C114.773 29.59 115.083 29.53 115.37 29.41C115.663 29.29 115.91 29.1067 116.11 28.86L116.4 29.19C116.173 29.47 115.887 29.6833 115.54 29.83C115.2 29.97 114.83 30.04 114.43 30.04ZM119.597 30.04C119.163 30.04 118.757 29.9767 118.377 29.85C118.003 29.7233 117.713 29.5633 117.507 29.37L117.737 28.97C117.937 29.1433 118.203 29.2933 118.537 29.42C118.87 29.54 119.23 29.6 119.617 29.6C120.163 29.6 120.557 29.51 120.797 29.33C121.037 29.15 121.157 28.9133 121.157 28.62C121.157 28.4067 121.093 28.24 120.967 28.12C120.847 27.9933 120.683 27.8967 120.477 27.83C120.27 27.7633 120.043 27.71 119.797 27.67C119.55 27.6233 119.303 27.5733 119.057 27.52C118.81 27.4667 118.583 27.39 118.377 27.29C118.17 27.19 118.003 27.0533 117.877 26.88C117.757 26.7 117.697 26.4633 117.697 26.17C117.697 25.9033 117.77 25.6633 117.917 25.45C118.063 25.2367 118.283 25.0667 118.577 24.94C118.87 24.8067 119.237 24.74 119.677 24.74C120.003 24.74 120.33 24.7867 120.657 24.88C120.99 24.9733 121.26 25.0967 121.467 25.25L121.237 25.65C121.017 25.4833 120.77 25.3633 120.497 25.29C120.223 25.2167 119.947 25.18 119.667 25.18C119.16 25.18 118.787 25.2733 118.547 25.46C118.313 25.6467 118.197 25.88 118.197 26.16C118.197 26.38 118.257 26.5567 118.377 26.69C118.503 26.8167 118.67 26.9167 118.877 26.99C119.083 27.0567 119.31 27.1133 119.557 27.16C119.803 27.2 120.05 27.2467 120.297 27.3C120.543 27.3533 120.77 27.43 120.977 27.53C121.183 27.6233 121.347 27.7567 121.467 27.93C121.593 28.0967 121.657 28.3233 121.657 28.61C121.657 28.8967 121.577 29.1467 121.417 29.36C121.263 29.5733 121.033 29.74 120.727 29.86C120.42 29.98 120.043 30.04 119.597 30.04ZM124.372 30.04C123.939 30.04 123.532 29.9767 123.152 29.85C122.779 29.7233 122.489 29.5633 122.282 29.37L122.512 28.97C122.712 29.1433 122.979 29.2933 123.312 29.42C123.646 29.54 124.006 29.6 124.392 29.6C124.939 29.6 125.332 29.51 125.572 29.33C125.812 29.15 125.932 28.9133 125.932 28.62C125.932 28.4067 125.869 28.24 125.742 28.12C125.622 27.9933 125.459 27.8967 125.252 27.83C125.046 27.7633 124.819 27.71 124.572 27.67C124.326 27.6233 124.079 27.5733 123.832 27.52C123.586 27.4667 123.359 27.39 123.152 27.29C122.946 27.19 122.779 27.0533 122.652 26.88C122.532 26.7 122.472 26.4633 122.472 26.17C122.472 25.9033 122.546 25.6633 122.692 25.45C122.839 25.2367 123.059 25.0667 123.352 24.94C123.646 24.8067 124.012 24.74 124.452 24.74C124.779 24.74 125.106 24.7867 125.432 24.88C125.766 24.9733 126.036 25.0967 126.242 25.25L126.012 25.65C125.792 25.4833 125.546 25.3633 125.272 25.29C124.999 25.2167 124.722 25.18 124.442 25.18C123.936 25.18 123.562 25.2733 123.322 25.46C123.089 25.6467 122.972 25.88 122.972 26.16C122.972 26.38 123.032 26.5567 123.152 26.69C123.279 26.8167 123.446 26.9167 123.652 26.99C123.859 27.0567 124.086 27.1133 124.332 27.16C124.579 27.2 124.826 27.2467 125.072 27.3C125.319 27.3533 125.546 27.43 125.752 27.53C125.959 27.6233 126.122 27.7567 126.242 27.93C126.369 28.0967 126.432 28.3233 126.432 28.61C126.432 28.8967 126.352 29.1467 126.192 29.36C126.039 29.5733 125.809 29.74 125.502 29.86C125.196 29.98 124.819 30.04 124.372 30.04ZM131.118 30V28.81L131.098 28.63V26.67C131.098 26.1833 130.964 25.8133 130.698 25.56C130.438 25.3067 130.054 25.18 129.548 25.18C129.188 25.18 128.851 25.2433 128.538 25.37C128.231 25.49 127.968 25.6467 127.748 25.84L127.498 25.48C127.758 25.2467 128.071 25.0667 128.438 24.94C128.804 24.8067 129.188 24.74 129.588 24.74C130.234 24.74 130.731 24.9033 131.078 25.23C131.424 25.5567 131.598 26.0433 131.598 26.69V30H131.118ZM129.238 30.04C128.851 30.04 128.514 29.98 128.228 29.86C127.948 29.7333 127.731 29.5567 127.578 29.33C127.431 29.1033 127.358 28.8433 127.358 28.55C127.358 28.2833 127.418 28.0433 127.538 27.83C127.664 27.61 127.871 27.4333 128.158 27.3C128.444 27.16 128.828 27.09 129.308 27.09H131.228V27.48H129.318C128.778 27.48 128.398 27.58 128.178 27.78C127.964 27.98 127.858 28.23 127.858 28.53C127.858 28.8633 127.984 29.13 128.238 29.33C128.491 29.53 128.848 29.63 129.308 29.63C129.748 29.63 130.118 29.53 130.418 29.33C130.724 29.13 130.951 28.84 131.098 28.46L131.238 28.8C131.098 29.18 130.858 29.4833 130.518 29.71C130.184 29.93 129.758 30.04 129.238 30.04ZM135.828 31.98C135.354 31.98 134.904 31.9067 134.478 31.76C134.051 31.6133 133.704 31.41 133.438 31.15L133.708 30.77C133.968 31.01 134.278 31.1967 134.638 31.33C135.004 31.4633 135.398 31.53 135.818 31.53C136.518 31.53 137.031 31.3667 137.358 31.04C137.691 30.7133 137.858 30.2 137.858 29.5V28.05L137.958 27.27L137.878 26.49V24.78H138.358V29.44C138.358 30.3133 138.144 30.9533 137.718 31.36C137.298 31.7733 136.668 31.98 135.828 31.98ZM135.688 29.81C135.194 29.81 134.751 29.7033 134.358 29.49C133.971 29.27 133.661 28.97 133.428 28.59C133.201 28.2033 133.088 27.7633 133.088 27.27C133.088 26.77 133.201 26.33 133.428 25.95C133.661 25.57 133.971 25.2733 134.358 25.06C134.751 24.8467 135.194 24.74 135.688 24.74C136.161 24.74 136.584 24.8433 136.958 25.05C137.338 25.25 137.638 25.54 137.858 25.92C138.078 26.2933 138.188 26.7433 138.188 27.27C138.188 27.79 138.078 28.24 137.858 28.62C137.638 29 137.338 29.2933 136.958 29.5C136.584 29.7067 136.161 29.81 135.688 29.81ZM135.728 29.36C136.148 29.36 136.518 29.2733 136.838 29.1C137.158 28.92 137.408 28.6733 137.588 28.36C137.774 28.04 137.868 27.6767 137.868 27.27C137.868 26.8567 137.774 26.4933 137.588 26.18C137.408 25.8667 137.158 25.6233 136.838 25.45C136.518 25.2767 136.148 25.19 135.728 25.19C135.321 25.19 134.954 25.2767 134.628 25.45C134.308 25.6233 134.054 25.8667 133.868 26.18C133.688 26.4933 133.598 26.8567 133.598 27.27C133.598 27.6767 133.688 28.04 133.868 28.36C134.054 28.6733 134.308 28.92 134.628 29.1C134.954 29.2733 135.321 29.36 135.728 29.36ZM142.594 30.04C142.067 30.04 141.601 29.9267 141.194 29.7C140.794 29.4733 140.477 29.16 140.244 28.76C140.017 28.36 139.904 27.9033 139.904 27.39C139.904 26.87 140.011 26.4133 140.224 26.02C140.444 25.62 140.744 25.3067 141.124 25.08C141.504 24.8533 141.931 24.74 142.404 24.74C142.877 24.74 143.301 24.85 143.674 25.07C144.054 25.29 144.351 25.6 144.564 26C144.784 26.3933 144.894 26.85 144.894 27.37C144.894 27.39 144.891 27.4133 144.884 27.44C144.884 27.46 144.884 27.4833 144.884 27.51H140.274V27.12H144.614L144.414 27.31C144.421 26.9033 144.334 26.54 144.154 26.22C143.981 25.8933 143.744 25.64 143.444 25.46C143.144 25.2733 142.797 25.18 142.404 25.18C142.017 25.18 141.671 25.2733 141.364 25.46C141.064 25.64 140.827 25.8933 140.654 26.22C140.481 26.54 140.394 26.9067 140.394 27.32V27.41C140.394 27.8367 140.487 28.2167 140.674 28.55C140.867 28.8767 141.131 29.1333 141.464 29.32C141.797 29.5 142.177 29.59 142.604 29.59C142.937 29.59 143.247 29.53 143.534 29.41C143.827 29.29 144.074 29.1067 144.274 28.86L144.564 29.19C144.337 29.47 144.051 29.6833 143.704 29.83C143.364 29.97 142.994 30.04 142.594 30.04ZM145.961 31.43L146.351 29.74L146.401 30.03C146.274 30.03 146.168 29.99 146.081 29.91C146.001 29.83 145.961 29.73 145.961 29.61C145.961 29.49 146.001 29.39 146.081 29.31C146.168 29.23 146.268 29.19 146.381 29.19C146.508 29.19 146.608 29.2333 146.681 29.32C146.761 29.4 146.801 29.4967 146.801 29.61C146.801 29.6567 146.798 29.7033 146.791 29.75C146.784 29.7967 146.774 29.8433 146.761 29.89C146.748 29.9367 146.731 29.9967 146.711 30.07L146.321 31.43H145.961ZM151.171 30V23H153.681C154.268 23 154.771 23.0933 155.191 23.28C155.611 23.4667 155.935 23.7367 156.161 24.09C156.388 24.4367 156.501 24.86 156.501 25.36C156.501 25.8467 156.388 26.2667 156.161 26.62C155.935 26.9733 155.611 27.2433 155.191 27.43C154.771 27.6167 154.268 27.71 153.681 27.71H151.451L151.681 27.47V30H151.171ZM151.681 27.5L151.451 27.25H153.681C154.435 27.25 155.005 27.0867 155.391 26.76C155.785 26.4267 155.981 25.96 155.981 25.36C155.981 24.7533 155.785 24.2867 155.391 23.96C155.005 23.6267 154.435 23.46 153.681 23.46H151.451L151.681 23.21V27.5ZM157.896 30V24.78H158.376V26.21L158.326 26.05C158.473 25.63 158.719 25.3067 159.066 25.08C159.413 24.8533 159.846 24.74 160.366 24.74V25.23C160.346 25.23 160.326 25.23 160.306 25.23C160.286 25.2233 160.266 25.22 160.246 25.22C159.666 25.22 159.213 25.4033 158.886 25.77C158.559 26.13 158.396 26.6333 158.396 27.28V30H157.896ZM163.735 30.04C163.235 30.04 162.788 29.9267 162.395 29.7C162.008 29.4733 161.698 29.16 161.465 28.76C161.238 28.36 161.125 27.9033 161.125 27.39C161.125 26.87 161.238 26.4133 161.465 26.02C161.698 25.62 162.008 25.3067 162.395 25.08C162.788 24.8533 163.235 24.74 163.735 24.74C164.235 24.74 164.681 24.8533 165.075 25.08C165.468 25.3067 165.778 25.62 166.005 26.02C166.231 26.4133 166.345 26.87 166.345 27.39C166.345 27.9033 166.231 28.36 166.005 28.76C165.778 29.16 165.468 29.4733 165.075 29.7C164.681 29.9267 164.235 30.04 163.735 30.04ZM163.735 29.59C164.135 29.59 164.495 29.5 164.815 29.32C165.135 29.1333 165.385 28.8733 165.565 28.54C165.745 28.2067 165.835 27.8233 165.835 27.39C165.835 26.95 165.745 26.5667 165.565 26.24C165.385 25.9067 165.135 25.65 164.815 25.47C164.495 25.2833 164.135 25.19 163.735 25.19C163.335 25.19 162.975 25.2833 162.655 25.47C162.341 25.65 162.091 25.9067 161.905 26.24C161.725 26.5667 161.635 26.95 161.635 27.39C161.635 27.8233 161.725 28.2067 161.905 28.54C162.091 28.8733 162.341 29.1333 162.655 29.32C162.975 29.5 163.335 29.59 163.735 29.59ZM169.416 30.04C168.956 30.04 168.603 29.9133 168.356 29.66C168.116 29.4067 167.996 29.06 167.996 28.62V23.64H168.496V28.57C168.496 28.9033 168.579 29.16 168.746 29.34C168.913 29.52 169.153 29.61 169.466 29.61C169.793 29.61 170.063 29.5133 170.276 29.32L170.486 29.67C170.353 29.7967 170.189 29.89 169.996 29.95C169.809 30.01 169.616 30.04 169.416 30.04ZM167.036 25.21V24.78H170.156V25.21H167.036ZM173.815 30.04C173.288 30.04 172.821 29.9267 172.415 29.7C172.015 29.4733 171.698 29.16 171.465 28.76C171.238 28.36 171.125 27.9033 171.125 27.39C171.125 26.87 171.231 26.4133 171.445 26.02C171.665 25.62 171.965 25.3067 172.345 25.08C172.725 24.8533 173.151 24.74 173.625 24.74C174.098 24.74 174.521 24.85 174.895 25.07C175.275 25.29 175.571 25.6 175.785 26C176.005 26.3933 176.115 26.85 176.115 27.37C176.115 27.39 176.111 27.4133 176.105 27.44C176.105 27.46 176.105 27.4833 176.105 27.51H171.495V27.12H175.835L175.635 27.31C175.641 26.9033 175.555 26.54 175.375 26.22C175.201 25.8933 174.965 25.64 174.665 25.46C174.365 25.2733 174.018 25.18 173.625 25.18C173.238 25.18 172.891 25.2733 172.585 25.46C172.285 25.64 172.048 25.8933 171.875 26.22C171.701 26.54 171.615 26.9067 171.615 27.32V27.41C171.615 27.8367 171.708 28.2167 171.895 28.55C172.088 28.8767 172.351 29.1333 172.685 29.32C173.018 29.5 173.398 29.59 173.825 29.59C174.158 29.59 174.468 29.53 174.755 29.41C175.048 29.29 175.295 29.1067 175.495 28.86L175.785 29.19C175.558 29.47 175.271 29.6833 174.925 29.83C174.585 29.97 174.215 30.04 173.815 30.04ZM179.732 30.04C179.225 30.04 178.772 29.9267 178.372 29.7C177.978 29.4733 177.665 29.16 177.432 28.76C177.205 28.36 177.092 27.9033 177.092 27.39C177.092 26.87 177.205 26.41 177.432 26.01C177.665 25.61 177.978 25.3 178.372 25.08C178.772 24.8533 179.225 24.74 179.732 24.74C180.152 24.74 180.532 24.82 180.872 24.98C181.218 25.14 181.498 25.38 181.712 25.7L181.342 25.97C181.155 25.7033 180.922 25.5067 180.642 25.38C180.362 25.2533 180.058 25.19 179.732 25.19C179.325 25.19 178.958 25.2833 178.632 25.47C178.312 25.65 178.058 25.9067 177.872 26.24C177.692 26.5667 177.602 26.95 177.602 27.39C177.602 27.83 177.692 28.2167 177.872 28.55C178.058 28.8767 178.312 29.1333 178.632 29.32C178.958 29.5 179.325 29.59 179.732 29.59C180.058 29.59 180.362 29.5267 180.642 29.4C180.922 29.2733 181.155 29.0767 181.342 28.81L181.712 29.08C181.498 29.4 181.218 29.64 180.872 29.8C180.532 29.96 180.152 30.04 179.732 30.04ZM184.787 30.04C184.327 30.04 183.974 29.9133 183.727 29.66C183.487 29.4067 183.367 29.06 183.367 28.62V23.64H183.867V28.57C183.867 28.9033 183.95 29.16 184.117 29.34C184.284 29.52 184.524 29.61 184.837 29.61C185.164 29.61 185.434 29.5133 185.647 29.32L185.857 29.67C185.724 29.7967 185.56 29.89 185.367 29.95C185.18 30.01 184.987 30.04 184.787 30.04ZM182.407 25.21V24.78H185.527V25.21H182.407ZM188.571 30.04C188.138 30.04 187.731 29.9767 187.351 29.85C186.978 29.7233 186.688 29.5633 186.481 29.37L186.711 28.97C186.911 29.1433 187.178 29.2933 187.511 29.42C187.845 29.54 188.205 29.6 188.591 29.6C189.138 29.6 189.531 29.51 189.771 29.33C190.011 29.15 190.131 28.9133 190.131 28.62C190.131 28.4067 190.068 28.24 189.941 28.12C189.821 27.9933 189.658 27.8967 189.451 27.83C189.245 27.7633 189.018 27.71 188.771 27.67C188.525 27.6233 188.278 27.5733 188.031 27.52C187.785 27.4667 187.558 27.39 187.351 27.29C187.145 27.19 186.978 27.0533 186.851 26.88C186.731 26.7 186.671 26.4633 186.671 26.17C186.671 25.9033 186.745 25.6633 186.891 25.45C187.038 25.2367 187.258 25.0667 187.551 24.94C187.845 24.8067 188.211 24.74 188.651 24.74C188.978 24.74 189.305 24.7867 189.631 24.88C189.965 24.9733 190.235 25.0967 190.441 25.25L190.211 25.65C189.991 25.4833 189.745 25.3633 189.471 25.29C189.198 25.2167 188.921 25.18 188.641 25.18C188.135 25.18 187.761 25.2733 187.521 25.46C187.288 25.6467 187.171 25.88 187.171 26.16C187.171 26.38 187.231 26.5567 187.351 26.69C187.478 26.8167 187.645 26.9167 187.851 26.99C188.058 27.0567 188.285 27.1133 188.531 27.16C188.778 27.2 189.025 27.2467 189.271 27.3C189.518 27.3533 189.745 27.43 189.951 27.53C190.158 27.6233 190.321 27.7567 190.441 27.93C190.568 28.0967 190.631 28.3233 190.631 28.61C190.631 28.8967 190.551 29.1467 190.391 29.36C190.238 29.5733 190.008 29.74 189.701 29.86C189.395 29.98 189.018 30.04 188.571 30.04ZM196.595 30.05C196.075 30.05 195.582 29.9633 195.115 29.79C194.655 29.61 194.298 29.38 194.045 29.1L194.275 28.72C194.515 28.9667 194.842 29.1767 195.255 29.35C195.675 29.5167 196.118 29.6 196.585 29.6C197.052 29.6 197.432 29.54 197.725 29.42C198.025 29.2933 198.245 29.1267 198.385 28.92C198.532 28.7133 198.605 28.4833 198.605 28.23C198.605 27.93 198.525 27.69 198.365 27.51C198.205 27.33 197.995 27.1867 197.735 27.08C197.475 26.9733 197.192 26.8833 196.885 26.81C196.578 26.7367 196.268 26.66 195.955 26.58C195.642 26.4933 195.355 26.3833 195.095 26.25C194.835 26.1167 194.625 25.9367 194.465 25.71C194.312 25.4767 194.235 25.1767 194.235 24.81C194.235 24.4767 194.322 24.17 194.495 23.89C194.668 23.61 194.938 23.3833 195.305 23.21C195.672 23.0367 196.142 22.95 196.715 22.95C197.102 22.95 197.482 23.0067 197.855 23.12C198.235 23.2333 198.558 23.3867 198.825 23.58L198.635 23.99C198.342 23.79 198.025 23.6433 197.685 23.55C197.352 23.45 197.028 23.4 196.715 23.4C196.268 23.4 195.898 23.4633 195.605 23.59C195.312 23.7167 195.095 23.8867 194.955 24.1C194.815 24.3067 194.745 24.54 194.745 24.8C194.745 25.1 194.822 25.34 194.975 25.52C195.135 25.7 195.345 25.8433 195.605 25.95C195.865 26.0567 196.152 26.1467 196.465 26.22C196.778 26.2933 197.088 26.3733 197.395 26.46C197.702 26.54 197.985 26.6467 198.245 26.78C198.505 26.9133 198.715 27.0933 198.875 27.32C199.035 27.5467 199.115 27.84 199.115 28.2C199.115 28.5267 199.025 28.8333 198.845 29.12C198.665 29.4 198.388 29.6267 198.015 29.8C197.648 29.9667 197.175 30.05 196.595 30.05ZM202.809 30.04C202.282 30.04 201.816 29.9267 201.409 29.7C201.009 29.4733 200.692 29.16 200.459 28.76C200.232 28.36 200.119 27.9033 200.119 27.39C200.119 26.87 200.226 26.4133 200.439 26.02C200.659 25.62 200.959 25.3067 201.339 25.08C201.719 24.8533 202.146 24.74 202.619 24.74C203.092 24.74 203.516 24.85 203.889 25.07C204.269 25.29 204.566 25.6 204.779 26C204.999 26.3933 205.109 26.85 205.109 27.37C205.109 27.39 205.106 27.4133 205.099 27.44C205.099 27.46 205.099 27.4833 205.099 27.51H200.489V27.12H204.829L204.629 27.31C204.636 26.9033 204.549 26.54 204.369 26.22C204.196 25.8933 203.959 25.64 203.659 25.46C203.359 25.2733 203.012 25.18 202.619 25.18C202.232 25.18 201.886 25.2733 201.579 25.46C201.279 25.64 201.042 25.8933 200.869 26.22C200.696 26.54 200.609 26.9067 200.609 27.32V27.41C200.609 27.8367 200.702 28.2167 200.889 28.55C201.082 28.8767 201.346 29.1333 201.679 29.32C202.012 29.5 202.392 29.59 202.819 29.59C203.152 29.59 203.462 29.53 203.749 29.41C204.042 29.29 204.289 29.1067 204.489 28.86L204.779 29.19C204.552 29.47 204.266 29.6833 203.919 29.83C203.579 29.97 203.209 30.04 202.809 30.04ZM209.206 24.74C209.632 24.74 210.002 24.8233 210.316 24.99C210.636 25.15 210.882 25.3967 211.056 25.73C211.236 26.0567 211.326 26.4633 211.326 26.95V30H210.826V26.99C210.826 26.4033 210.676 25.9567 210.376 25.65C210.082 25.3433 209.669 25.19 209.136 25.19C208.729 25.19 208.376 25.2733 208.076 25.44C207.776 25.6067 207.546 25.84 207.386 26.14C207.232 26.44 207.156 26.8 207.156 27.22V30H206.656V24.78H207.136V26.23L207.066 26.07C207.226 25.6567 207.489 25.3333 207.856 25.1C208.222 24.86 208.672 24.74 209.206 24.74ZM214.704 30.04C214.271 30.04 213.864 29.9767 213.484 29.85C213.111 29.7233 212.821 29.5633 212.614 29.37L212.844 28.97C213.044 29.1433 213.311 29.2933 213.644 29.42C213.978 29.54 214.338 29.6 214.724 29.6C215.271 29.6 215.664 29.51 215.904 29.33C216.144 29.15 216.264 28.9133 216.264 28.62C216.264 28.4067 216.201 28.24 216.074 28.12C215.954 27.9933 215.791 27.8967 215.584 27.83C215.378 27.7633 215.151 27.71 214.904 27.67C214.658 27.6233 214.411 27.5733 214.164 27.52C213.918 27.4667 213.691 27.39 213.484 27.29C213.278 27.19 213.111 27.0533 212.984 26.88C212.864 26.7 212.804 26.4633 212.804 26.17C212.804 25.9033 212.878 25.6633 213.024 25.45C213.171 25.2367 213.391 25.0667 213.684 24.94C213.978 24.8067 214.344 24.74 214.784 24.74C215.111 24.74 215.438 24.7867 215.764 24.88C216.098 24.9733 216.368 25.0967 216.574 25.25L216.344 25.65C216.124 25.4833 215.878 25.3633 215.604 25.29C215.331 25.2167 215.054 25.18 214.774 25.18C214.268 25.18 213.894 25.2733 213.654 25.46C213.421 25.6467 213.304 25.88 213.304 26.16C213.304 26.38 213.364 26.5567 213.484 26.69C213.611 26.8167 213.778 26.9167 213.984 26.99C214.191 27.0567 214.418 27.1133 214.664 27.16C214.911 27.2 215.158 27.2467 215.404 27.3C215.651 27.3533 215.878 27.43 216.084 27.53C216.291 27.6233 216.454 27.7567 216.574 27.93C216.701 28.0967 216.764 28.3233 216.764 28.61C216.764 28.8967 216.684 29.1467 216.524 29.36C216.371 29.5733 216.141 29.74 215.834 29.86C215.528 29.98 215.151 30.04 214.704 30.04ZM218.16 30V24.78H218.66V30H218.16ZM218.41 23.51C218.296 23.51 218.2 23.47 218.12 23.39C218.04 23.31 218 23.2167 218 23.11C218 22.9967 218.04 22.9 218.12 22.82C218.2 22.74 218.296 22.7 218.41 22.7C218.53 22.7 218.626 22.74 218.7 22.82C218.78 22.8933 218.82 22.9867 218.82 23.1C218.82 23.2133 218.78 23.31 218.7 23.39C218.626 23.47 218.53 23.51 218.41 23.51ZM222.287 30.04C221.827 30.04 221.474 29.9133 221.227 29.66C220.987 29.4067 220.867 29.06 220.867 28.62V23.64H221.367V28.57C221.367 28.9033 221.45 29.16 221.617 29.34C221.784 29.52 222.024 29.61 222.337 29.61C222.664 29.61 222.934 29.5133 223.147 29.32L223.357 29.67C223.224 29.7967 223.06 29.89 222.867 29.95C222.68 30.01 222.487 30.04 222.287 30.04ZM219.907 25.21V24.78H223.027V25.21H219.907ZM224.751 30V24.78H225.251V30H224.751ZM225.001 23.51C224.888 23.51 224.791 23.47 224.711 23.39C224.631 23.31 224.591 23.2167 224.591 23.11C224.591 22.9967 224.631 22.9 224.711 22.82C224.791 22.74 224.888 22.7 225.001 22.7C225.121 22.7 225.218 22.74 225.291 22.82C225.371 22.8933 225.411 22.9867 225.411 23.1C225.411 23.2133 225.371 23.31 225.291 23.39C225.218 23.47 225.121 23.51 225.001 23.51ZM228.679 30L226.329 24.78H226.859L229.059 29.72H228.819L231.039 24.78H231.549L229.189 30H228.679ZM234.616 30.04C234.089 30.04 233.622 29.9267 233.216 29.7C232.816 29.4733 232.499 29.16 232.266 28.76C232.039 28.36 231.926 27.9033 231.926 27.39C231.926 26.87 232.032 26.4133 232.246 26.02C232.466 25.62 232.766 25.3067 233.146 25.08C233.526 24.8533 233.952 24.74 234.426 24.74C234.899 24.74 235.322 24.85 235.696 25.07C236.076 25.29 236.372 25.6 236.586 26C236.806 26.3933 236.916 26.85 236.916 27.37C236.916 27.39 236.912 27.4133 236.906 27.44C236.906 27.46 236.906 27.4833 236.906 27.51H232.296V27.12H236.636L236.436 27.31C236.442 26.9033 236.356 26.54 236.176 26.22C236.002 25.8933 235.766 25.64 235.466 25.46C235.166 25.2733 234.819 25.18 234.426 25.18C234.039 25.18 233.692 25.2733 233.386 25.46C233.086 25.64 232.849 25.8933 232.676 26.22C232.502 26.54 232.416 26.9067 232.416 27.32V27.41C232.416 27.8367 232.509 28.2167 232.696 28.55C232.889 28.8767 233.152 29.1333 233.486 29.32C233.819 29.5 234.199 29.59 234.626 29.59C234.959 29.59 235.269 29.53 235.556 29.41C235.849 29.29 236.096 29.1067 236.296 28.86L236.586 29.19C236.359 29.47 236.072 29.6833 235.726 29.83C235.386 29.97 235.016 30.04 234.616 30.04ZM243.031 30.05C242.511 30.05 242.017 29.9633 241.551 29.79C241.091 29.61 240.734 29.38 240.481 29.1L240.711 28.72C240.951 28.9667 241.277 29.1767 241.691 29.35C242.111 29.5167 242.554 29.6 243.021 29.6C243.487 29.6 243.867 29.54 244.161 29.42C244.461 29.2933 244.681 29.1267 244.821 28.92C244.967 28.7133 245.041 28.4833 245.041 28.23C245.041 27.93 244.961 27.69 244.801 27.51C244.641 27.33 244.431 27.1867 244.171 27.08C243.911 26.9733 243.627 26.8833 243.321 26.81C243.014 26.7367 242.704 26.66 242.391 26.58C242.077 26.4933 241.791 26.3833 241.531 26.25C241.271 26.1167 241.061 25.9367 240.901 25.71C240.747 25.4767 240.671 25.1767 240.671 24.81C240.671 24.4767 240.757 24.17 240.931 23.89C241.104 23.61 241.374 23.3833 241.741 23.21C242.107 23.0367 242.577 22.95 243.151 22.95C243.537 22.95 243.917 23.0067 244.291 23.12C244.671 23.2333 244.994 23.3867 245.261 23.58L245.071 23.99C244.777 23.79 244.461 23.6433 244.121 23.55C243.787 23.45 243.464 23.4 243.151 23.4C242.704 23.4 242.334 23.4633 242.041 23.59C241.747 23.7167 241.531 23.8867 241.391 24.1C241.251 24.3067 241.181 24.54 241.181 24.8C241.181 25.1 241.257 25.34 241.411 25.52C241.571 25.7 241.781 25.8433 242.041 25.95C242.301 26.0567 242.587 26.1467 242.901 26.22C243.214 26.2933 243.524 26.3733 243.831 26.46C244.137 26.54 244.421 26.6467 244.681 26.78C244.941 26.9133 245.151 27.0933 245.311 27.32C245.471 27.5467 245.551 27.84 245.551 28.2C245.551 28.5267 245.461 28.8333 245.281 29.12C245.101 29.4 244.824 29.6267 244.451 29.8C244.084 29.9667 243.611 30.05 243.031 30.05ZM249.674 24.74C250.101 24.74 250.471 24.8233 250.784 24.99C251.104 25.15 251.351 25.3967 251.524 25.73C251.704 26.0567 251.794 26.4633 251.794 26.95V30H251.294V26.99C251.294 26.4033 251.144 25.9567 250.844 25.65C250.551 25.3433 250.138 25.19 249.604 25.19C249.198 25.19 248.844 25.2733 248.544 25.44C248.244 25.6067 248.014 25.84 247.854 26.14C247.701 26.44 247.624 26.8 247.624 27.22V30H247.124V22.58H247.624V26.23L247.534 26.07C247.694 25.6567 247.958 25.3333 248.324 25.1C248.691 24.86 249.141 24.74 249.674 24.74ZM253.853 30V24.78H254.353V30H253.853ZM254.103 23.51C253.99 23.51 253.893 23.47 253.813 23.39C253.733 23.31 253.693 23.2167 253.693 23.11C253.693 22.9967 253.733 22.9 253.813 22.82C253.893 22.74 253.99 22.7 254.103 22.7C254.223 22.7 254.32 22.74 254.393 22.82C254.473 22.8933 254.513 22.9867 254.513 23.1C254.513 23.2133 254.473 23.31 254.393 23.39C254.32 23.47 254.223 23.51 254.103 23.51ZM259.08 30.04C258.62 30.04 258.204 29.9333 257.83 29.72C257.464 29.5067 257.17 29.2033 256.95 28.81C256.737 28.41 256.63 27.9367 256.63 27.39C256.63 26.8433 256.737 26.3733 256.95 25.98C257.17 25.58 257.464 25.2733 257.83 25.06C258.204 24.8467 258.62 24.74 259.08 24.74C259.574 24.74 260.014 24.8533 260.4 25.08C260.794 25.3 261.1 25.61 261.32 26.01C261.547 26.41 261.66 26.87 261.66 27.39C261.66 27.91 261.547 28.37 261.32 28.77C261.1 29.17 260.794 29.4833 260.4 29.71C260.014 29.93 259.574 30.04 259.08 30.04ZM256.46 31.94V24.78H256.94V26.49L256.86 27.4L256.96 28.31V31.94H256.46ZM259.05 29.59C259.45 29.59 259.81 29.5 260.13 29.32C260.45 29.1333 260.7 28.8733 260.88 28.54C261.067 28.2067 261.16 27.8233 261.16 27.39C261.16 26.95 261.067 26.5667 260.88 26.24C260.7 25.9067 260.45 25.65 260.13 25.47C259.81 25.2833 259.45 25.19 259.05 25.19C258.65 25.19 258.29 25.2833 257.97 25.47C257.657 25.65 257.407 25.9067 257.22 26.24C257.04 26.5667 256.95 26.95 256.95 27.39C256.95 27.8233 257.04 28.2067 257.22 28.54C257.407 28.8733 257.657 29.1333 257.97 29.32C258.29 29.5 258.65 29.59 259.05 29.59ZM269.708 24.74C270.128 24.74 270.492 24.8233 270.798 24.99C271.112 25.15 271.355 25.3967 271.528 25.73C271.702 26.0567 271.788 26.4633 271.788 26.95V30H271.288V26.99C271.288 26.4033 271.145 25.9567 270.858 25.65C270.572 25.3433 270.172 25.19 269.658 25.19C269.265 25.19 268.925 25.2733 268.638 25.44C268.352 25.6067 268.132 25.84 267.978 26.14C267.825 26.44 267.748 26.8 267.748 27.22V30H267.248V26.99C267.248 26.4033 267.105 25.9567 266.818 25.65C266.532 25.3433 266.132 25.19 265.618 25.19C265.225 25.19 264.885 25.2733 264.598 25.44C264.312 25.6067 264.092 25.84 263.938 26.14C263.785 26.44 263.708 26.8 263.708 27.22V30H263.208V24.78H263.688V26.22L263.618 26.06C263.772 25.6533 264.028 25.3333 264.388 25.1C264.748 24.86 265.182 24.74 265.688 24.74C266.208 24.74 266.645 24.8733 266.998 25.14C267.358 25.4 267.585 25.79 267.678 26.31L267.508 26.24C267.648 25.7933 267.912 25.4333 268.298 25.16C268.685 24.88 269.155 24.74 269.708 24.74ZM275.973 30.04C275.446 30.04 274.98 29.9267 274.573 29.7C274.173 29.4733 273.856 29.16 273.623 28.76C273.396 28.36 273.283 27.9033 273.283 27.39C273.283 26.87 273.39 26.4133 273.603 26.02C273.823 25.62 274.123 25.3067 274.503 25.08C274.883 24.8533 275.31 24.74 275.783 24.74C276.256 24.74 276.68 24.85 277.053 25.07C277.433 25.29 277.73 25.6 277.943 26C278.163 26.3933 278.273 26.85 278.273 27.37C278.273 27.39 278.27 27.4133 278.263 27.44C278.263 27.46 278.263 27.4833 278.263 27.51H273.653V27.12H277.993L277.793 27.31C277.8 26.9033 277.713 26.54 277.533 26.22C277.36 25.8933 277.123 25.64 276.823 25.46C276.523 25.2733 276.176 25.18 275.783 25.18C275.396 25.18 275.05 25.2733 274.743 25.46C274.443 25.64 274.206 25.8933 274.033 26.22C273.86 26.54 273.773 26.9067 273.773 27.32V27.41C273.773 27.8367 273.866 28.2167 274.053 28.55C274.246 28.8767 274.51 29.1333 274.843 29.32C275.176 29.5 275.556 29.59 275.983 29.59C276.316 29.59 276.626 29.53 276.913 29.41C277.206 29.29 277.453 29.1067 277.653 28.86L277.943 29.19C277.716 29.47 277.43 29.6833 277.083 29.83C276.743 29.97 276.373 30.04 275.973 30.04ZM282.37 24.74C282.796 24.74 283.166 24.8233 283.48 24.99C283.8 25.15 284.046 25.3967 284.22 25.73C284.4 26.0567 284.49 26.4633 284.49 26.95V30H283.99V26.99C283.99 26.4033 283.84 25.9567 283.54 25.65C283.246 25.3433 282.833 25.19 282.3 25.19C281.893 25.19 281.54 25.2733 281.24 25.44C280.94 25.6067 280.71 25.84 280.55 26.14C280.396 26.44 280.32 26.8 280.32 27.22V30H279.82V24.78H280.3V26.23L280.23 26.07C280.39 25.6567 280.653 25.3333 281.02 25.1C281.386 24.86 281.836 24.74 282.37 24.74ZM288.068 30.04C287.608 30.04 287.255 29.9133 287.008 29.66C286.768 29.4067 286.648 29.06 286.648 28.62V23.64H287.148V28.57C287.148 28.9033 287.232 29.16 287.398 29.34C287.565 29.52 287.805 29.61 288.118 29.61C288.445 29.61 288.715 29.5133 288.928 29.32L289.138 29.67C289.005 29.7967 288.842 29.89 288.648 29.95C288.462 30.01 288.268 30.04 288.068 30.04ZM285.688 25.21V24.78H288.808V25.21H285.688ZM291.853 30.04C291.419 30.04 291.013 29.9767 290.633 29.85C290.259 29.7233 289.969 29.5633 289.763 29.37L289.993 28.97C290.193 29.1433 290.459 29.2933 290.793 29.42C291.126 29.54 291.486 29.6 291.873 29.6C292.419 29.6 292.813 29.51 293.053 29.33C293.293 29.15 293.413 28.9133 293.413 28.62C293.413 28.4067 293.349 28.24 293.223 28.12C293.103 27.9933 292.939 27.8967 292.733 27.83C292.526 27.7633 292.299 27.71 292.053 27.67C291.806 27.6233 291.559 27.5733 291.313 27.52C291.066 27.4667 290.839 27.39 290.633 27.29C290.426 27.19 290.259 27.0533 290.133 26.88C290.013 26.7 289.953 26.4633 289.953 26.17C289.953 25.9033 290.026 25.6633 290.173 25.45C290.319 25.2367 290.539 25.0667 290.833 24.94C291.126 24.8067 291.493 24.74 291.933 24.74C292.259 24.74 292.586 24.7867 292.913 24.88C293.246 24.9733 293.516 25.0967 293.723 25.25L293.493 25.65C293.273 25.4833 293.026 25.3633 292.753 25.29C292.479 25.2167 292.203 25.18 291.923 25.18C291.416 25.18 291.043 25.2733 290.803 25.46C290.569 25.6467 290.453 25.88 290.453 26.16C290.453 26.38 290.513 26.5567 290.633 26.69C290.759 26.8167 290.926 26.9167 291.133 26.99C291.339 27.0567 291.566 27.1133 291.813 27.16C292.059 27.2 292.306 27.2467 292.553 27.3C292.799 27.3533 293.026 27.43 293.233 27.53C293.439 27.6233 293.603 27.7567 293.723 27.93C293.849 28.0967 293.913 28.3233 293.913 28.61C293.913 28.8967 293.833 29.1467 293.673 29.36C293.519 29.5733 293.289 29.74 292.983 29.86C292.676 29.98 292.299 30.04 291.853 30.04ZM295.198 31.94H294.728C295.115 31.2733 295.398 30.5533 295.578 29.78C295.758 29.0067 295.848 28.1667 295.848 27.26C295.848 26.3533 295.758 25.5133 295.578 24.74C295.398 23.9667 295.115 23.2467 294.728 22.58H295.198C295.565 23.1667 295.848 23.8633 296.048 24.67C296.248 25.47 296.348 26.3333 296.348 27.26C296.348 28.1867 296.248 29.0467 296.048 29.84C295.848 30.6333 295.565 31.3333 295.198 31.94Z" fill="black"/>
</svg>
