<svg width="391" height="32" viewBox="0 0 391 32" fill="none" xmlns="http://www.w3.org/2000/svg">
<path d="M26.316 14V4.2H30.348C31.216 4.2 31.958 4.34 32.574 4.62C33.1993 4.9 33.68 5.30133 34.016 5.824C34.352 6.34667 34.52 6.96733 34.52 7.686C34.52 8.40467 34.352 9.02533 34.016 9.548C33.68 10.0707 33.1993 10.472 32.574 10.752C31.958 11.032 31.216 11.172 30.348 11.172H27.324L28.136 10.318V14H26.316ZM28.136 10.514L27.324 9.632H30.264C31.0667 9.632 31.6687 9.464 32.07 9.128C32.4807 8.78267 32.686 8.302 32.686 7.686C32.686 7.06067 32.4807 6.58 32.07 6.244C31.6687 5.908 31.0667 5.74 30.264 5.74H27.324L28.136 4.844V10.514ZM41.0662 14.14C40.3009 14.14 39.5962 14.014 38.9522 13.762C38.3082 13.51 37.7482 13.16 37.2722 12.712C36.7962 12.2547 36.4275 11.7227 36.1662 11.116C35.9049 10.5 35.7742 9.828 35.7742 9.1C35.7742 8.372 35.9049 7.70467 36.1662 7.098C36.4275 6.482 36.7962 5.95 37.2722 5.502C37.7482 5.04467 38.3082 4.69 38.9522 4.438C39.5962 4.186 40.2962 4.06 41.0522 4.06C41.8175 4.06 42.5175 4.186 43.1522 4.438C43.7962 4.69 44.3562 5.04467 44.8322 5.502C45.3082 5.95 45.6769 6.482 45.9382 7.098C46.1995 7.70467 46.3302 8.372 46.3302 9.1C46.3302 9.828 46.1995 10.5 45.9382 11.116C45.6769 11.732 45.3082 12.264 44.8322 12.712C44.3562 13.16 43.7962 13.51 43.1522 13.762C42.5175 14.014 41.8222 14.14 41.0662 14.14ZM41.0522 12.544C41.5469 12.544 42.0042 12.46 42.4242 12.292C42.8442 12.124 43.2082 11.886 43.5162 11.578C43.8242 11.2607 44.0622 10.8967 44.2302 10.486C44.4075 10.066 44.4962 9.604 44.4962 9.1C44.4962 8.596 44.4075 8.13867 44.2302 7.728C44.0622 7.308 43.8242 6.944 43.5162 6.636C43.2082 6.31867 42.8442 6.076 42.4242 5.908C42.0042 5.74 41.5469 5.656 41.0522 5.656C40.5575 5.656 40.1002 5.74 39.6802 5.908C39.2695 6.076 38.9055 6.31867 38.5882 6.636C38.2802 6.944 38.0375 7.308 37.8602 7.728C37.6922 8.13867 37.6082 8.596 37.6082 9.1C37.6082 9.59467 37.6922 10.052 37.8602 10.472C38.0375 10.892 38.2802 11.2607 38.5882 11.578C38.8962 11.886 39.2602 12.124 39.6802 12.292C40.1002 12.46 40.5575 12.544 41.0522 12.544ZM48.2594 14V4.2H52.5434C53.6074 4.2 54.5407 4.40533 55.3434 4.816C56.146 5.22667 56.7714 5.796 57.2194 6.524C57.6674 7.252 57.8914 8.11067 57.8914 9.1C57.8914 10.08 57.6674 10.9387 57.2194 11.676C56.7714 12.404 56.146 12.9733 55.3434 13.384C54.5407 13.7947 53.6074 14 52.5434 14H48.2594ZM50.0794 12.46H52.4594C53.1967 12.46 53.8314 12.32 54.3634 12.04C54.9047 11.76 55.32 11.368 55.6094 10.864C55.908 10.36 56.0574 9.772 56.0574 9.1C56.0574 8.41867 55.908 7.83067 55.6094 7.336C55.32 6.832 54.9047 6.44 54.3634 6.16C53.8314 5.88 53.1967 5.74 52.4594 5.74H50.0794V12.46ZM68.2309 14.14C67.4842 14.14 66.7889 14.0187 66.1449 13.776C65.5102 13.524 64.9549 13.174 64.4789 12.726C64.0122 12.2687 63.6482 11.732 63.3869 11.116C63.1256 10.5 62.9949 9.828 62.9949 9.1C62.9949 8.372 63.1256 7.7 63.3869 7.084C63.6482 6.468 64.0169 5.936 64.4929 5.488C64.9689 5.03067 65.5242 4.68067 66.1589 4.438C66.7936 4.186 67.4889 4.06 68.2449 4.06C69.0476 4.06 69.7802 4.2 70.4429 4.48C71.1056 4.75067 71.6656 5.15667 72.1229 5.698L70.9469 6.804C70.5922 6.42133 70.1956 6.13667 69.7569 5.95C69.3182 5.754 68.8422 5.656 68.3289 5.656C67.8156 5.656 67.3442 5.74 66.9149 5.908C66.4949 6.076 66.1262 6.314 65.8089 6.622C65.5009 6.93 65.2582 7.294 65.0809 7.714C64.9129 8.134 64.8289 8.596 64.8289 9.1C64.8289 9.604 64.9129 10.066 65.0809 10.486C65.2582 10.906 65.5009 11.27 65.8089 11.578C66.1262 11.886 66.4949 12.124 66.9149 12.292C67.3442 12.46 67.8156 12.544 68.3289 12.544C68.8422 12.544 69.3182 12.4507 69.7569 12.264C70.1956 12.068 70.5922 11.774 70.9469 11.382L72.1229 12.502C71.6656 13.034 71.1056 13.44 70.4429 13.72C69.7802 14 69.0429 14.14 68.2309 14.14ZM76.7717 14.098C76.0063 14.098 75.325 13.9347 74.7277 13.608C74.1303 13.272 73.659 12.8147 73.3137 12.236C72.9683 11.6573 72.7957 10.9993 72.7957 10.262C72.7957 9.51533 72.9683 8.85733 73.3137 8.288C73.659 7.70933 74.1303 7.25667 74.7277 6.93C75.325 6.60333 76.0063 6.44 76.7717 6.44C77.5463 6.44 78.2323 6.60333 78.8297 6.93C79.4363 7.25667 79.9077 7.70467 80.2437 8.274C80.589 8.84333 80.7617 9.506 80.7617 10.262C80.7617 10.9993 80.589 11.6573 80.2437 12.236C79.9077 12.8147 79.4363 13.272 78.8297 13.608C78.2323 13.9347 77.5463 14.098 76.7717 14.098ZM76.7717 12.6C77.201 12.6 77.5837 12.5067 77.9197 12.32C78.2557 12.1333 78.517 11.8627 78.7037 11.508C78.8997 11.1533 78.9977 10.738 78.9977 10.262C78.9977 9.77667 78.8997 9.36133 78.7037 9.016C78.517 8.66133 78.2557 8.39067 77.9197 8.204C77.5837 8.01733 77.2057 7.924 76.7857 7.924C76.3563 7.924 75.9737 8.01733 75.6377 8.204C75.311 8.39067 75.0497 8.66133 74.8537 9.016C74.6577 9.36133 74.5597 9.77667 74.5597 10.262C74.5597 10.738 74.6577 11.1533 74.8537 11.508C75.0497 11.8627 75.311 12.1333 75.6377 12.32C75.9737 12.5067 76.3517 12.6 76.7717 12.6ZM85.5991 14.098C84.9644 14.098 84.4044 13.9813 83.9191 13.748C83.4338 13.5053 83.0558 13.1413 82.7851 12.656C82.5144 12.1613 82.3791 11.5407 82.3791 10.794V6.524H84.1291V10.556C84.1291 11.228 84.2784 11.732 84.5771 12.068C84.8851 12.3947 85.3191 12.558 85.8791 12.558C86.2898 12.558 86.6444 12.474 86.9431 12.306C87.2511 12.138 87.4891 11.886 87.6571 11.55C87.8344 11.214 87.9231 10.7987 87.9231 10.304V6.524H89.6731V14H88.0071V11.984L88.3011 12.6C88.0491 13.0853 87.6804 13.4587 87.1951 13.72C86.7098 13.972 86.1778 14.098 85.5991 14.098ZM91.9644 14V6.524H93.6304V8.582L93.4344 7.98C93.6584 7.476 94.0084 7.09333 94.4844 6.832C94.9697 6.57067 95.5717 6.44 96.2904 6.44V8.106C96.2157 8.08733 96.1457 8.078 96.0804 8.078C96.0151 8.06867 95.9497 8.064 95.8844 8.064C95.2217 8.064 94.6944 8.26 94.3024 8.652C93.9104 9.03467 93.7144 9.60867 93.7144 10.374V14H91.9644ZM97.775 14V6.524H99.525V14H97.775ZM98.657 5.292C98.3303 5.292 98.0596 5.18933 97.845 4.984C97.6396 4.77867 97.537 4.53133 97.537 4.242C97.537 3.94333 97.6396 3.696 97.845 3.5C98.0596 3.29467 98.3303 3.192 98.657 3.192C98.9836 3.192 99.2496 3.29 99.455 3.486C99.6696 3.67267 99.777 3.91067 99.777 4.2C99.777 4.508 99.6743 4.76933 99.469 4.984C99.2636 5.18933 98.993 5.292 98.657 5.292ZM105.336 14.098C104.505 14.098 103.777 13.9347 103.152 13.608C102.536 13.272 102.055 12.8147 101.71 12.236C101.374 11.6573 101.206 10.9993 101.206 10.262C101.206 9.51533 101.369 8.85733 101.696 8.288C102.032 7.70933 102.489 7.25667 103.068 6.93C103.656 6.60333 104.323 6.44 105.07 6.44C105.798 6.44 106.446 6.59867 107.016 6.916C107.585 7.23333 108.033 7.68133 108.36 8.26C108.686 8.83867 108.85 9.52 108.85 10.304C108.85 10.3787 108.845 10.4627 108.836 10.556C108.836 10.6493 108.831 10.738 108.822 10.822H102.592V9.66H107.898L107.212 10.024C107.221 9.59467 107.132 9.21667 106.946 8.89C106.759 8.56333 106.502 8.30667 106.176 8.12C105.858 7.93333 105.49 7.84 105.07 7.84C104.64 7.84 104.262 7.93333 103.936 8.12C103.618 8.30667 103.366 8.568 103.18 8.904C103.002 9.23067 102.914 9.618 102.914 10.066V10.346C102.914 10.794 103.016 11.1907 103.222 11.536C103.427 11.8813 103.716 12.1473 104.09 12.334C104.463 12.5207 104.892 12.614 105.378 12.614C105.798 12.614 106.176 12.5487 106.512 12.418C106.848 12.2873 107.146 12.082 107.408 11.802L108.346 12.88C108.01 13.272 107.585 13.5753 107.072 13.79C106.568 13.9953 105.989 14.098 105.336 14.098ZM110.531 14V6.524H112.197V8.582L112.001 7.98C112.225 7.476 112.575 7.09333 113.051 6.832C113.536 6.57067 114.138 6.44 114.857 6.44V8.106C114.782 8.08733 114.712 8.078 114.647 8.078C114.581 8.06867 114.516 8.064 114.451 8.064C113.788 8.064 113.261 8.26 112.869 8.652C112.477 9.03467 112.281 9.60867 112.281 10.374V14H110.531ZM124.983 14.14C124.236 14.14 123.541 14.0187 122.897 13.776C122.262 13.524 121.707 13.174 121.231 12.726C120.764 12.2687 120.4 11.732 120.139 11.116C119.878 10.5 119.747 9.828 119.747 9.1C119.747 8.372 119.878 7.7 120.139 7.084C120.4 6.468 120.769 5.936 121.245 5.488C121.721 5.03067 122.276 4.68067 122.911 4.438C123.546 4.186 124.241 4.06 124.997 4.06C125.8 4.06 126.532 4.2 127.195 4.48C127.858 4.75067 128.418 5.15667 128.875 5.698L127.699 6.804C127.344 6.42133 126.948 6.13667 126.509 5.95C126.07 5.754 125.594 5.656 125.081 5.656C124.568 5.656 124.096 5.74 123.667 5.908C123.247 6.076 122.878 6.314 122.561 6.622C122.253 6.93 122.01 7.294 121.833 7.714C121.665 8.134 121.581 8.596 121.581 9.1C121.581 9.604 121.665 10.066 121.833 10.486C122.01 10.906 122.253 11.27 122.561 11.578C122.878 11.886 123.247 12.124 123.667 12.292C124.096 12.46 124.568 12.544 125.081 12.544C125.594 12.544 126.07 12.4507 126.509 12.264C126.948 12.068 127.344 11.774 127.699 11.382L128.875 12.502C128.418 13.034 127.858 13.44 127.195 13.72C126.532 14 125.795 14.14 124.983 14.14ZM133.524 14.098C132.758 14.098 132.077 13.9347 131.48 13.608C130.882 13.272 130.411 12.8147 130.066 12.236C129.72 11.6573 129.548 10.9993 129.548 10.262C129.548 9.51533 129.72 8.85733 130.066 8.288C130.411 7.70933 130.882 7.25667 131.48 6.93C132.077 6.60333 132.758 6.44 133.524 6.44C134.298 6.44 134.984 6.60333 135.582 6.93C136.188 7.25667 136.66 7.70467 136.996 8.274C137.341 8.84333 137.514 9.506 137.514 10.262C137.514 10.9993 137.341 11.6573 136.996 12.236C136.66 12.8147 136.188 13.272 135.582 13.608C134.984 13.9347 134.298 14.098 133.524 14.098ZM133.524 12.6C133.953 12.6 134.336 12.5067 134.672 12.32C135.008 12.1333 135.269 11.8627 135.456 11.508C135.652 11.1533 135.75 10.738 135.75 10.262C135.75 9.77667 135.652 9.36133 135.456 9.016C135.269 8.66133 135.008 8.39067 134.672 8.204C134.336 8.01733 133.958 7.924 133.538 7.924C133.108 7.924 132.726 8.01733 132.39 8.204C132.063 8.39067 131.802 8.66133 131.606 9.016C131.41 9.36133 131.312 9.77667 131.312 10.262C131.312 10.738 131.41 11.1533 131.606 11.508C131.802 11.8627 132.063 12.1333 132.39 12.32C132.726 12.5067 133.104 12.6 133.524 12.6ZM140.97 14L137.764 6.524H139.584L142.342 13.118H141.446L144.302 6.524H145.982L142.776 14H140.97ZM150.385 14.098C149.554 14.098 148.826 13.9347 148.201 13.608C147.585 13.272 147.104 12.8147 146.759 12.236C146.423 11.6573 146.255 10.9993 146.255 10.262C146.255 9.51533 146.418 8.85733 146.745 8.288C147.081 7.70933 147.538 7.25667 148.117 6.93C148.705 6.60333 149.372 6.44 150.119 6.44C150.847 6.44 151.495 6.59867 152.065 6.916C152.634 7.23333 153.082 7.68133 153.409 8.26C153.735 8.83867 153.899 9.52 153.899 10.304C153.899 10.3787 153.894 10.4627 153.885 10.556C153.885 10.6493 153.88 10.738 153.871 10.822H147.641V9.66H152.947L152.261 10.024C152.27 9.59467 152.181 9.21667 151.995 8.89C151.808 8.56333 151.551 8.30667 151.225 8.12C150.907 7.93333 150.539 7.84 150.119 7.84C149.689 7.84 149.311 7.93333 148.985 8.12C148.667 8.30667 148.415 8.568 148.229 8.904C148.051 9.23067 147.963 9.618 147.963 10.066V10.346C147.963 10.794 148.065 11.1907 148.271 11.536C148.476 11.8813 148.765 12.1473 149.139 12.334C149.512 12.5207 149.941 12.614 150.427 12.614C150.847 12.614 151.225 12.5487 151.561 12.418C151.897 12.2873 152.195 12.082 152.457 11.802L153.395 12.88C153.059 13.272 152.634 13.5753 152.121 13.79C151.617 13.9953 151.038 14.098 150.385 14.098ZM155.58 14V6.524H157.246V8.582L157.05 7.98C157.274 7.476 157.624 7.09333 158.1 6.832C158.585 6.57067 159.187 6.44 159.906 6.44V8.106C159.831 8.08733 159.761 8.078 159.696 8.078C159.63 8.06867 159.565 8.064 159.5 8.064C158.837 8.064 158.31 8.26 157.918 8.652C157.526 9.03467 157.33 9.60867 157.33 10.374V14H155.58ZM163.769 14.098C163.143 14.098 162.541 14.0187 161.963 13.86C161.393 13.692 160.941 13.4913 160.605 13.258L161.277 11.928C161.613 12.1427 162.014 12.32 162.481 12.46C162.947 12.6 163.414 12.67 163.881 12.67C164.431 12.67 164.828 12.5953 165.071 12.446C165.323 12.2967 165.449 12.096 165.449 11.844C165.449 11.6387 165.365 11.4847 165.197 11.382C165.029 11.27 164.809 11.186 164.539 11.13C164.268 11.074 163.965 11.0227 163.629 10.976C163.302 10.9293 162.971 10.8687 162.635 10.794C162.308 10.71 162.009 10.5933 161.739 10.444C161.468 10.2853 161.249 10.0753 161.081 9.814C160.913 9.55267 160.829 9.20733 160.829 8.778C160.829 8.302 160.964 7.89133 161.235 7.546C161.505 7.19133 161.883 6.92067 162.369 6.734C162.863 6.538 163.447 6.44 164.119 6.44C164.623 6.44 165.131 6.496 165.645 6.608C166.158 6.72 166.583 6.87867 166.919 7.084L166.247 8.414C165.892 8.19933 165.533 8.05467 165.169 7.98C164.814 7.896 164.459 7.854 164.105 7.854C163.573 7.854 163.176 7.93333 162.915 8.092C162.663 8.25067 162.537 8.45133 162.537 8.694C162.537 8.918 162.621 9.086 162.789 9.198C162.957 9.31 163.176 9.39867 163.447 9.464C163.717 9.52933 164.016 9.58533 164.343 9.632C164.679 9.66933 165.01 9.73 165.337 9.814C165.663 9.898 165.962 10.0147 166.233 10.164C166.513 10.304 166.737 10.5047 166.905 10.766C167.073 11.0273 167.157 11.368 167.157 11.788C167.157 12.2547 167.017 12.6607 166.737 13.006C166.466 13.3513 166.079 13.622 165.575 13.818C165.071 14.0047 164.469 14.098 163.769 14.098Z" fill="black"/>
<path d="M4.704 14.14C3.92933 14.14 3.22933 13.944 2.604 13.552C1.988 13.16 1.50267 12.5907 1.148 11.844C0.793333 11.088 0.616 10.1733 0.616 9.1C0.616 8.02667 0.793333 7.11667 1.148 6.37C1.50267 5.614 1.988 5.04 2.604 4.648C3.22933 4.256 3.92933 4.06 4.704 4.06C5.488 4.06 6.188 4.256 6.804 4.648C7.42 5.04 7.90533 5.614 8.26 6.37C8.624 7.11667 8.806 8.02667 8.806 9.1C8.806 10.1733 8.624 11.088 8.26 11.844C7.90533 12.5907 7.42 13.16 6.804 13.552C6.188 13.944 5.488 14.14 4.704 14.14ZM4.704 12.558C5.16133 12.558 5.558 12.4367 5.894 12.194C6.23 11.942 6.49133 11.5593 6.678 11.046C6.874 10.5327 6.972 9.884 6.972 9.1C6.972 8.30667 6.874 7.658 6.678 7.154C6.49133 6.64067 6.23 6.26267 5.894 6.02C5.558 5.768 5.16133 5.642 4.704 5.642C4.26533 5.642 3.87333 5.768 3.528 6.02C3.192 6.26267 2.926 6.64067 2.73 7.154C2.54333 7.658 2.45 8.30667 2.45 9.1C2.45 9.884 2.54333 10.5327 2.73 11.046C2.926 11.5593 3.192 11.942 3.528 12.194C3.87333 12.4367 4.26533 12.558 4.704 12.558ZM14.5579 14.14C13.6713 14.14 12.9106 13.9533 12.2759 13.58C11.6413 13.1973 11.1559 12.6467 10.8199 11.928C10.4839 11.2093 10.3159 10.3227 10.3159 9.268C10.3159 8.148 10.5166 7.20067 10.9179 6.426C11.3286 5.65133 11.8933 5.06333 12.6119 4.662C13.3399 4.26067 14.1753 4.06 15.1179 4.06C15.6126 4.06 16.0839 4.11133 16.5319 4.214C16.9893 4.31667 17.3766 4.47533 17.6939 4.69L17.0219 6.062C16.7513 5.88467 16.4573 5.76333 16.1399 5.698C15.8319 5.62333 15.5053 5.586 15.1599 5.586C14.2359 5.586 13.5033 5.87067 12.9619 6.44C12.4206 7.00933 12.1499 7.84933 12.1499 8.96C12.1499 9.13733 12.1546 9.34733 12.1639 9.59C12.1733 9.82333 12.2059 10.0613 12.2619 10.304L11.7019 9.688C11.8699 9.30533 12.0986 8.988 12.3879 8.736C12.6866 8.47467 13.0366 8.27867 13.4379 8.148C13.8486 8.01733 14.2919 7.952 14.7679 7.952C15.4119 7.952 15.9859 8.078 16.4899 8.33C16.9939 8.57267 17.3953 8.92267 17.6939 9.38C17.9926 9.828 18.1419 10.3553 18.1419 10.962C18.1419 11.606 17.9833 12.166 17.6659 12.642C17.3486 13.118 16.9193 13.4867 16.3779 13.748C15.8366 14.0093 15.2299 14.14 14.5579 14.14ZM14.4599 12.712C14.8333 12.712 15.1646 12.6467 15.4539 12.516C15.7433 12.376 15.9673 12.18 16.1259 11.928C16.2939 11.676 16.3779 11.382 16.3779 11.046C16.3779 10.5327 16.2006 10.1267 15.8459 9.828C15.4913 9.52933 15.0153 9.38 14.4179 9.38C14.0259 9.38 13.6806 9.45467 13.3819 9.604C13.0926 9.744 12.8593 9.94 12.6819 10.192C12.5139 10.444 12.4299 10.7333 12.4299 11.06C12.4299 11.3587 12.5093 11.634 12.6679 11.886C12.8266 12.138 13.0553 12.3387 13.3539 12.488C13.6619 12.6373 14.0306 12.712 14.4599 12.712ZM20.602 14.098C20.2847 14.098 20.014 13.9907 19.79 13.776C19.566 13.552 19.454 13.272 19.454 12.936C19.454 12.5813 19.566 12.3013 19.79 12.096C20.014 11.8813 20.2847 11.774 20.602 11.774C20.9193 11.774 21.19 11.8813 21.414 12.096C21.638 12.3013 21.75 12.5813 21.75 12.936C21.75 13.272 21.638 13.552 21.414 13.776C21.19 13.9907 20.9193 14.098 20.602 14.098Z" fill="black"/>
<path d="M372.712 17.17C371.771 17.17 370.921 16.932 370.162 16.456C369.414 15.98 368.825 15.2887 368.394 14.382C367.963 13.464 367.748 12.3533 367.748 11.05C367.748 9.74667 367.963 8.64167 368.394 7.735C368.825 6.817 369.414 6.12 370.162 5.644C370.921 5.168 371.771 4.93 372.712 4.93C373.664 4.93 374.514 5.168 375.262 5.644C376.01 6.12 376.599 6.817 377.03 7.735C377.472 8.64167 377.693 9.74667 377.693 11.05C377.693 12.3533 377.472 13.464 377.03 14.382C376.599 15.2887 376.01 15.98 375.262 16.456C374.514 16.932 373.664 17.17 372.712 17.17ZM372.712 15.249C373.267 15.249 373.749 15.1017 374.157 14.807C374.565 14.501 374.882 14.0363 375.109 13.413C375.347 12.7897 375.466 12.002 375.466 11.05C375.466 10.0867 375.347 9.299 375.109 8.687C374.882 8.06367 374.565 7.60467 374.157 7.31C373.749 7.004 373.267 6.851 372.712 6.851C372.179 6.851 371.703 7.004 371.284 7.31C370.876 7.60467 370.553 8.06367 370.315 8.687C370.088 9.299 369.975 10.0867 369.975 11.05C369.975 12.002 370.088 12.7897 370.315 13.413C370.553 14.0363 370.876 14.501 371.284 14.807C371.703 15.1017 372.179 15.249 372.712 15.249ZM380.887 17V15.521L385.613 11.033C386.01 10.659 386.304 10.3303 386.497 10.047C386.69 9.76367 386.814 9.503 386.871 9.265C386.939 9.01567 386.973 8.78333 386.973 8.568C386.973 8.024 386.786 7.60467 386.412 7.31C386.038 7.004 385.488 6.851 384.763 6.851C384.185 6.851 383.658 6.953 383.182 7.157C382.717 7.361 382.315 7.67267 381.975 8.092L380.428 6.902C380.893 6.27867 381.516 5.797 382.298 5.457C383.091 5.10567 383.975 4.93 384.95 4.93C385.811 4.93 386.559 5.07167 387.194 5.355C387.84 5.627 388.333 6.018 388.673 6.528C389.024 7.038 389.2 7.64433 389.2 8.347C389.2 8.73233 389.149 9.11767 389.047 9.503C388.945 9.877 388.752 10.2737 388.469 10.693C388.186 11.1123 387.772 11.5827 387.228 12.104L383.165 15.963L382.706 15.13H389.659V17H380.887Z" fill="#16713D"/>
<path d="M27.26 31.94C26.8933 31.3333 26.61 30.6333 26.41 29.84C26.2167 29.0467 26.12 28.1867 26.12 27.26C26.12 26.3333 26.2167 25.47 26.41 24.67C26.61 23.8633 26.8933 23.1667 27.26 22.58H27.74C27.3467 23.2467 27.06 23.9667 26.88 24.74C26.7 25.5133 26.61 26.3533 26.61 27.26C26.61 28.1667 26.7 29.0067 26.88 29.78C27.06 30.5533 27.3467 31.2733 27.74 31.94H27.26ZM31.2729 30.05C30.7529 30.05 30.2596 29.9633 29.7929 29.79C29.3329 29.61 28.9762 29.38 28.7229 29.1L28.9529 28.72C29.1929 28.9667 29.5196 29.1767 29.9329 29.35C30.3529 29.5167 30.7962 29.6 31.2629 29.6C31.7296 29.6 32.1096 29.54 32.4029 29.42C32.7029 29.2933 32.9229 29.1267 33.0629 28.92C33.2096 28.7133 33.2829 28.4833 33.2829 28.23C33.2829 27.93 33.2029 27.69 33.0429 27.51C32.8829 27.33 32.6729 27.1867 32.4129 27.08C32.1529 26.9733 31.8696 26.8833 31.5629 26.81C31.2562 26.7367 30.9462 26.66 30.6329 26.58C30.3196 26.4933 30.0329 26.3833 29.7729 26.25C29.5129 26.1167 29.3029 25.9367 29.1429 25.71C28.9896 25.4767 28.9129 25.1767 28.9129 24.81C28.9129 24.4767 28.9996 24.17 29.1729 23.89C29.3462 23.61 29.6162 23.3833 29.9829 23.21C30.3496 23.0367 30.8196 22.95 31.3929 22.95C31.7796 22.95 32.1596 23.0067 32.5329 23.12C32.9129 23.2333 33.2362 23.3867 33.5029 23.58L33.3129 23.99C33.0196 23.79 32.7029 23.6433 32.3629 23.55C32.0296 23.45 31.7062 23.4 31.3929 23.4C30.9462 23.4 30.5762 23.4633 30.2829 23.59C29.9896 23.7167 29.7729 23.8867 29.6329 24.1C29.4929 24.3067 29.4229 24.54 29.4229 24.8C29.4229 25.1 29.4996 25.34 29.6529 25.52C29.8129 25.7 30.0229 25.8433 30.2829 25.95C30.5429 26.0567 30.8296 26.1467 31.1429 26.22C31.4562 26.2933 31.7662 26.3733 32.0729 26.46C32.3796 26.54 32.6629 26.6467 32.9229 26.78C33.1829 26.9133 33.3929 27.0933 33.5529 27.32C33.7129 27.5467 33.7929 27.84 33.7929 28.2C33.7929 28.5267 33.7029 28.8333 33.5229 29.12C33.3429 29.4 33.0662 29.6267 32.6929 29.8C32.3262 29.9667 31.8529 30.05 31.2729 30.05ZM37.4866 30.04C36.96 30.04 36.4933 29.9267 36.0866 29.7C35.6866 29.4733 35.37 29.16 35.1366 28.76C34.91 28.36 34.7966 27.9033 34.7966 27.39C34.7966 26.87 34.9033 26.4133 35.1166 26.02C35.3366 25.62 35.6366 25.3067 36.0166 25.08C36.3966 24.8533 36.8233 24.74 37.2966 24.74C37.77 24.74 38.1933 24.85 38.5666 25.07C38.9466 25.29 39.2433 25.6 39.4566 26C39.6766 26.3933 39.7866 26.85 39.7866 27.37C39.7866 27.39 39.7833 27.4133 39.7766 27.44C39.7766 27.46 39.7766 27.4833 39.7766 27.51H35.1666V27.12H39.5066L39.3066 27.31C39.3133 26.9033 39.2266 26.54 39.0466 26.22C38.8733 25.8933 38.6366 25.64 38.3366 25.46C38.0366 25.2733 37.69 25.18 37.2966 25.18C36.91 25.18 36.5633 25.2733 36.2566 25.46C35.9566 25.64 35.72 25.8933 35.5466 26.22C35.3733 26.54 35.2866 26.9067 35.2866 27.32V27.41C35.2866 27.8367 35.38 28.2167 35.5666 28.55C35.76 28.8767 36.0233 29.1333 36.3566 29.32C36.69 29.5 37.07 29.59 37.4966 29.59C37.83 29.59 38.14 29.53 38.4266 29.41C38.72 29.29 38.9666 29.1067 39.1666 28.86L39.4566 29.19C39.23 29.47 38.9433 29.6833 38.5966 29.83C38.2566 29.97 37.8866 30.04 37.4866 30.04ZM43.4034 30.04C42.8968 30.04 42.4434 29.9267 42.0434 29.7C41.6501 29.4733 41.3368 29.16 41.1034 28.76C40.8768 28.36 40.7634 27.9033 40.7634 27.39C40.7634 26.87 40.8768 26.41 41.1034 26.01C41.3368 25.61 41.6501 25.3 42.0434 25.08C42.4434 24.8533 42.8968 24.74 43.4034 24.74C43.8234 24.74 44.2034 24.82 44.5434 24.98C44.8901 25.14 45.1701 25.38 45.3834 25.7L45.0134 25.97C44.8268 25.7033 44.5934 25.5067 44.3134 25.38C44.0334 25.2533 43.7301 25.19 43.4034 25.19C42.9968 25.19 42.6301 25.2833 42.3034 25.47C41.9834 25.65 41.7301 25.9067 41.5434 26.24C41.3634 26.5667 41.2734 26.95 41.2734 27.39C41.2734 27.83 41.3634 28.2167 41.5434 28.55C41.7301 28.8767 41.9834 29.1333 42.3034 29.32C42.6301 29.5 42.9968 29.59 43.4034 29.59C43.7301 29.59 44.0334 29.5267 44.3134 29.4C44.5934 29.2733 44.8268 29.0767 45.0134 28.81L45.3834 29.08C45.1701 29.4 44.8901 29.64 44.5434 29.8C44.2034 29.96 43.8234 30.04 43.4034 30.04ZM49.0003 30.04C48.5536 30.04 48.167 29.96 47.8403 29.8C47.5136 29.6333 47.2603 29.3867 47.0803 29.06C46.907 28.7267 46.8203 28.3167 46.8203 27.83V24.78H47.3203V27.79C47.3203 28.3767 47.4703 28.8233 47.7703 29.13C48.0703 29.4367 48.4936 29.59 49.0403 29.59C49.4336 29.59 49.7736 29.5067 50.0603 29.34C50.347 29.1733 50.567 28.94 50.7203 28.64C50.8736 28.3333 50.9503 27.9733 50.9503 27.56V24.78H51.4503V30H50.9703V28.55L51.0403 28.72C50.887 29.1267 50.6303 29.45 50.2703 29.69C49.917 29.9233 49.4936 30.04 49.0003 30.04ZM53.5698 30V24.78H54.0498V26.21L53.9998 26.05C54.1464 25.63 54.3931 25.3067 54.7398 25.08C55.0864 24.8533 55.5198 24.74 56.0398 24.74V25.23C56.0198 25.23 55.9998 25.23 55.9798 25.23C55.9598 25.2233 55.9398 25.22 55.9198 25.22C55.3398 25.22 54.8864 25.4033 54.5598 25.77C54.2331 26.13 54.0698 26.6333 54.0698 27.28V30H53.5698ZM59.4886 30.04C58.9619 30.04 58.4953 29.9267 58.0886 29.7C57.6886 29.4733 57.3719 29.16 57.1386 28.76C56.9119 28.36 56.7986 27.9033 56.7986 27.39C56.7986 26.87 56.9053 26.4133 57.1186 26.02C57.3386 25.62 57.6386 25.3067 58.0186 25.08C58.3986 24.8533 58.8253 24.74 59.2986 24.74C59.7719 24.74 60.1953 24.85 60.5686 25.07C60.9486 25.29 61.2453 25.6 61.4586 26C61.6786 26.3933 61.7886 26.85 61.7886 27.37C61.7886 27.39 61.7853 27.4133 61.7786 27.44C61.7786 27.46 61.7786 27.4833 61.7786 27.51H57.1686V27.12H61.5086L61.3086 27.31C61.3153 26.9033 61.2286 26.54 61.0486 26.22C60.8753 25.8933 60.6386 25.64 60.3386 25.46C60.0386 25.2733 59.6919 25.18 59.2986 25.18C58.9119 25.18 58.5653 25.2733 58.2586 25.46C57.9586 25.64 57.7219 25.8933 57.5486 26.22C57.3753 26.54 57.2886 26.9067 57.2886 27.32V27.41C57.2886 27.8367 57.3819 28.2167 57.5686 28.55C57.7619 28.8767 58.0253 29.1333 58.3586 29.32C58.6919 29.5 59.0719 29.59 59.4986 29.59C59.8319 29.59 60.1419 29.53 60.4286 29.41C60.7219 29.29 60.9686 29.1067 61.1686 28.86L61.4586 29.19C61.2319 29.47 60.9453 29.6833 60.5986 29.83C60.2586 29.97 59.8886 30.04 59.4886 30.04ZM63.2754 30.04C63.1621 30.04 63.0621 30 62.9754 29.92C62.8954 29.8333 62.8554 29.73 62.8554 29.61C62.8554 29.49 62.8954 29.39 62.9754 29.31C63.0621 29.23 63.1621 29.19 63.2754 29.19C63.3887 29.19 63.4854 29.23 63.5654 29.31C63.6521 29.39 63.6954 29.49 63.6954 29.61C63.6954 29.73 63.6521 29.8333 63.5654 29.92C63.4854 30 63.3887 30.04 63.2754 30.04ZM69.4057 30V23.46H66.8857V23H72.4357V23.46H69.9157V30H69.4057ZM76.5375 30V28.81L76.5175 28.63V26.67C76.5175 26.1833 76.3842 25.8133 76.1175 25.56C75.8575 25.3067 75.4742 25.18 74.9675 25.18C74.6075 25.18 74.2708 25.2433 73.9575 25.37C73.6508 25.49 73.3875 25.6467 73.1675 25.84L72.9175 25.48C73.1775 25.2467 73.4908 25.0667 73.8575 24.94C74.2242 24.8067 74.6075 24.74 75.0075 24.74C75.6542 24.74 76.1508 24.9033 76.4975 25.23C76.8442 25.5567 77.0175 26.0433 77.0175 26.69V30H76.5375ZM74.6575 30.04C74.2708 30.04 73.9342 29.98 73.6475 29.86C73.3675 29.7333 73.1508 29.5567 72.9975 29.33C72.8508 29.1033 72.7775 28.8433 72.7775 28.55C72.7775 28.2833 72.8375 28.0433 72.9575 27.83C73.0842 27.61 73.2908 27.4333 73.5775 27.3C73.8642 27.16 74.2475 27.09 74.7275 27.09H76.6475V27.48H74.7375C74.1975 27.48 73.8175 27.58 73.5975 27.78C73.3842 27.98 73.2775 28.23 73.2775 28.53C73.2775 28.8633 73.4042 29.13 73.6575 29.33C73.9108 29.53 74.2675 29.63 74.7275 29.63C75.1675 29.63 75.5375 29.53 75.8375 29.33C76.1442 29.13 76.3708 28.84 76.5175 28.46L76.6575 28.8C76.5175 29.18 76.2775 29.4833 75.9375 29.71C75.6042 29.93 75.1775 30.04 74.6575 30.04ZM85.5776 24.74C85.9976 24.74 86.3609 24.8233 86.6676 24.99C86.9809 25.15 87.2242 25.3967 87.3976 25.73C87.5709 26.0567 87.6576 26.4633 87.6576 26.95V30H87.1576V26.99C87.1576 26.4033 87.0142 25.9567 86.7276 25.65C86.4409 25.3433 86.0409 25.19 85.5276 25.19C85.1342 25.19 84.7942 25.2733 84.5076 25.44C84.2209 25.6067 84.0009 25.84 83.8476 26.14C83.6942 26.44 83.6176 26.8 83.6176 27.22V30H83.1176V26.99C83.1176 26.4033 82.9742 25.9567 82.6876 25.65C82.4009 25.3433 82.0009 25.19 81.4876 25.19C81.0942 25.19 80.7542 25.2733 80.4676 25.44C80.1809 25.6067 79.9609 25.84 79.8076 26.14C79.6542 26.44 79.5776 26.8 79.5776 27.22V30H79.0776V24.78H79.5576V26.22L79.4876 26.06C79.6409 25.6533 79.8976 25.3333 80.2576 25.1C80.6176 24.86 81.0509 24.74 81.5576 24.74C82.0776 24.74 82.5142 24.8733 82.8676 25.14C83.2276 25.4 83.4542 25.79 83.5476 26.31L83.3776 26.24C83.5176 25.7933 83.7809 25.4333 84.1676 25.16C84.5542 24.88 85.0242 24.74 85.5776 24.74ZM92.3421 30.04C91.8821 30.04 91.4654 29.9333 91.0921 29.72C90.7254 29.5067 90.4321 29.2033 90.2121 28.81C89.9988 28.41 89.8921 27.9367 89.8921 27.39C89.8921 26.8433 89.9988 26.3733 90.2121 25.98C90.4321 25.58 90.7254 25.2733 91.0921 25.06C91.4654 24.8467 91.8821 24.74 92.3421 24.74C92.8354 24.74 93.2754 24.8533 93.6621 25.08C94.0554 25.3 94.3621 25.61 94.5821 26.01C94.8088 26.41 94.9221 26.87 94.9221 27.39C94.9221 27.91 94.8088 28.37 94.5821 28.77C94.3621 29.17 94.0554 29.4833 93.6621 29.71C93.2754 29.93 92.8354 30.04 92.3421 30.04ZM89.7221 31.94V24.78H90.2021V26.49L90.1221 27.4L90.2221 28.31V31.94H89.7221ZM92.3121 29.59C92.7121 29.59 93.0721 29.5 93.3921 29.32C93.7121 29.1333 93.9621 28.8733 94.1421 28.54C94.3288 28.2067 94.4221 27.8233 94.4221 27.39C94.4221 26.95 94.3288 26.5667 94.1421 26.24C93.9621 25.9067 93.7121 25.65 93.3921 25.47C93.0721 25.2833 92.7121 25.19 92.3121 25.19C91.9121 25.19 91.5521 25.2833 91.2321 25.47C90.9188 25.65 90.6688 25.9067 90.4821 26.24C90.3021 26.5667 90.2121 26.95 90.2121 27.39C90.2121 27.8233 90.3021 28.2067 90.4821 28.54C90.6688 28.8733 90.9188 29.1333 91.2321 29.32C91.5521 29.5 91.9121 29.59 92.3121 29.59ZM98.5902 30.04C98.0635 30.04 97.5968 29.9267 97.1902 29.7C96.7902 29.4733 96.4735 29.16 96.2402 28.76C96.0135 28.36 95.9002 27.9033 95.9002 27.39C95.9002 26.87 96.0068 26.4133 96.2202 26.02C96.4402 25.62 96.7402 25.3067 97.1202 25.08C97.5002 24.8533 97.9268 24.74 98.4002 24.74C98.8735 24.74 99.2968 24.85 99.6702 25.07C100.05 25.29 100.347 25.6 100.56 26C100.78 26.3933 100.89 26.85 100.89 27.37C100.89 27.39 100.887 27.4133 100.88 27.44C100.88 27.46 100.88 27.4833 100.88 27.51H96.2702V27.12H100.61L100.41 27.31C100.417 26.9033 100.33 26.54 100.15 26.22C99.9768 25.8933 99.7402 25.64 99.4402 25.46C99.1402 25.2733 98.7935 25.18 98.4002 25.18C98.0135 25.18 97.6668 25.2733 97.3602 25.46C97.0602 25.64 96.8235 25.8933 96.6502 26.22C96.4768 26.54 96.3902 26.9067 96.3902 27.32V27.41C96.3902 27.8367 96.4835 28.2167 96.6702 28.55C96.8635 28.8767 97.1268 29.1333 97.4602 29.32C97.7935 29.5 98.1735 29.59 98.6002 29.59C98.9335 29.59 99.2435 29.53 99.5302 29.41C99.8235 29.29 100.07 29.1067 100.27 28.86L100.56 29.19C100.333 29.47 100.047 29.6833 99.7002 29.83C99.3602 29.97 98.9902 30.04 98.5902 30.04ZM102.437 30V24.78H102.917V26.21L102.867 26.05C103.014 25.63 103.26 25.3067 103.607 25.08C103.954 24.8533 104.387 24.74 104.907 24.74V25.23C104.887 25.23 104.867 25.23 104.847 25.23C104.827 25.2233 104.807 25.22 104.787 25.22C104.207 25.22 103.754 25.4033 103.427 25.77C103.1 26.13 102.937 26.6333 102.937 27.28V30H102.437ZM105.806 27.54V27.09H108.376V27.54H105.806ZM110.214 30V23H112.724C113.311 23 113.814 23.0933 114.234 23.28C114.654 23.4667 114.977 23.7367 115.204 24.09C115.431 24.4367 115.544 24.86 115.544 25.36C115.544 25.8467 115.431 26.2667 115.204 26.62C114.977 26.9733 114.654 27.2433 114.234 27.43C113.814 27.6167 113.311 27.71 112.724 27.71H110.494L110.724 27.47V30H110.214ZM110.724 27.5L110.494 27.25H112.724C113.477 27.25 114.047 27.0867 114.434 26.76C114.827 26.4267 115.024 25.96 115.024 25.36C115.024 24.7533 114.827 24.2867 114.434 23.96C114.047 23.6267 113.477 23.46 112.724 23.46H110.494L110.724 23.21V27.5ZM116.939 30V24.78H117.419V26.21L117.369 26.05C117.516 25.63 117.762 25.3067 118.109 25.08C118.456 24.8533 118.889 24.74 119.409 24.74V25.23C119.389 25.23 119.369 25.23 119.349 25.23C119.329 25.2233 119.309 25.22 119.289 25.22C118.709 25.22 118.256 25.4033 117.929 25.77C117.602 26.13 117.439 26.6333 117.439 27.28V30H116.939ZM122.778 30.04C122.278 30.04 121.831 29.9267 121.438 29.7C121.051 29.4733 120.741 29.16 120.508 28.76C120.281 28.36 120.168 27.9033 120.168 27.39C120.168 26.87 120.281 26.4133 120.508 26.02C120.741 25.62 121.051 25.3067 121.438 25.08C121.831 24.8533 122.278 24.74 122.778 24.74C123.278 24.74 123.724 24.8533 124.118 25.08C124.511 25.3067 124.821 25.62 125.048 26.02C125.274 26.4133 125.388 26.87 125.388 27.39C125.388 27.9033 125.274 28.36 125.048 28.76C124.821 29.16 124.511 29.4733 124.118 29.7C123.724 29.9267 123.278 30.04 122.778 30.04ZM122.778 29.59C123.178 29.59 123.538 29.5 123.858 29.32C124.178 29.1333 124.428 28.8733 124.608 28.54C124.788 28.2067 124.878 27.8233 124.878 27.39C124.878 26.95 124.788 26.5667 124.608 26.24C124.428 25.9067 124.178 25.65 123.858 25.47C123.538 25.2833 123.178 25.19 122.778 25.19C122.378 25.19 122.018 25.2833 121.698 25.47C121.384 25.65 121.134 25.9067 120.948 26.24C120.768 26.5667 120.678 26.95 120.678 27.39C120.678 27.8233 120.768 28.2067 120.948 28.54C121.134 28.8733 121.384 29.1333 121.698 29.32C122.018 29.5 122.378 29.59 122.778 29.59ZM128.979 30.04C128.479 30.04 128.032 29.9267 127.639 29.7C127.252 29.4733 126.942 29.16 126.709 28.76C126.482 28.36 126.369 27.9033 126.369 27.39C126.369 26.87 126.482 26.4133 126.709 26.02C126.942 25.62 127.252 25.3067 127.639 25.08C128.032 24.8533 128.479 24.74 128.979 24.74C129.479 24.74 129.926 24.8533 130.319 25.08C130.712 25.3067 131.022 25.62 131.249 26.02C131.476 26.4133 131.589 26.87 131.589 27.39C131.589 27.9033 131.476 28.36 131.249 28.76C131.022 29.16 130.712 29.4733 130.319 29.7C129.926 29.9267 129.479 30.04 128.979 30.04ZM128.979 29.59C129.379 29.59 129.739 29.5 130.059 29.32C130.379 29.1333 130.629 28.8733 130.809 28.54C130.989 28.2067 131.079 27.8233 131.079 27.39C131.079 26.95 130.989 26.5667 130.809 26.24C130.629 25.9067 130.379 25.65 130.059 25.47C129.739 25.2833 129.379 25.19 128.979 25.19C128.579 25.19 128.219 25.2833 127.899 25.47C127.586 25.65 127.336 25.9067 127.149 26.24C126.969 26.5667 126.879 26.95 126.879 27.39C126.879 27.8233 126.969 28.2067 127.149 28.54C127.336 28.8733 127.586 29.1333 127.899 29.32C128.219 29.5 128.579 29.59 128.979 29.59ZM133.24 30V23.98C133.24 23.5467 133.363 23.2 133.61 22.94C133.863 22.6733 134.223 22.54 134.69 22.54C134.883 22.54 135.073 22.57 135.26 22.63C135.447 22.6833 135.6 22.7667 135.72 22.88L135.52 23.26C135.42 23.16 135.3 23.0867 135.16 23.04C135.02 22.9933 134.87 22.97 134.71 22.97C134.39 22.97 134.147 23.06 133.98 23.24C133.813 23.4133 133.73 23.6733 133.73 24.02V24.9L133.74 25.14V30H133.24ZM132.28 25.21V24.78H135.4V25.21H132.28ZM136.264 30.04C136.15 30.04 136.05 30 135.964 29.92C135.884 29.8333 135.844 29.73 135.844 29.61C135.844 29.49 135.884 29.39 135.964 29.31C136.05 29.23 136.15 29.19 136.264 29.19C136.377 29.19 136.474 29.23 136.554 29.31C136.64 29.39 136.684 29.49 136.684 29.61C136.684 29.73 136.64 29.8333 136.554 29.92C136.474 30 136.377 30.04 136.264 30.04ZM141.054 30V23H143.824C144.564 23 145.214 23.15 145.774 23.45C146.334 23.75 146.767 24.1633 147.074 24.69C147.387 25.2167 147.544 25.82 147.544 26.5C147.544 27.18 147.387 27.7833 147.074 28.31C146.767 28.8367 146.334 29.25 145.774 29.55C145.214 29.85 144.564 30 143.824 30H141.054ZM141.564 29.54H143.784C144.444 29.54 145.017 29.41 145.504 29.15C145.991 28.89 146.367 28.5333 146.634 28.08C146.901 27.62 147.034 27.0933 147.034 26.5C147.034 25.9067 146.901 25.3833 146.634 24.93C146.367 24.47 145.991 24.11 145.504 23.85C145.017 23.59 144.444 23.46 143.784 23.46H141.564V29.54ZM151.276 30.04C150.749 30.04 150.282 29.9267 149.876 29.7C149.476 29.4733 149.159 29.16 148.926 28.76C148.699 28.36 148.586 27.9033 148.586 27.39C148.586 26.87 148.692 26.4133 148.906 26.02C149.126 25.62 149.426 25.3067 149.806 25.08C150.186 24.8533 150.612 24.74 151.086 24.74C151.559 24.74 151.982 24.85 152.356 25.07C152.736 25.29 153.032 25.6 153.246 26C153.466 26.3933 153.576 26.85 153.576 27.37C153.576 27.39 153.572 27.4133 153.566 27.44C153.566 27.46 153.566 27.4833 153.566 27.51H148.956V27.12H153.296L153.096 27.31C153.102 26.9033 153.016 26.54 152.836 26.22C152.662 25.8933 152.426 25.64 152.126 25.46C151.826 25.2733 151.479 25.18 151.086 25.18C150.699 25.18 150.352 25.2733 150.046 25.46C149.746 25.64 149.509 25.8933 149.336 26.22C149.162 26.54 149.076 26.9067 149.076 27.32V27.41C149.076 27.8367 149.169 28.2167 149.356 28.55C149.549 28.8767 149.812 29.1333 150.146 29.32C150.479 29.5 150.859 29.59 151.286 29.59C151.619 29.59 151.929 29.53 152.216 29.41C152.509 29.29 152.756 29.1067 152.956 28.86L153.246 29.19C153.019 29.47 152.732 29.6833 152.386 29.83C152.046 29.97 151.676 30.04 151.276 30.04ZM155.123 30V22.58H155.623V30H155.123ZM157.73 30V24.78H158.23V30H157.73ZM157.98 23.51C157.867 23.51 157.77 23.47 157.69 23.39C157.61 23.31 157.57 23.2167 157.57 23.11C157.57 22.9967 157.61 22.9 157.69 22.82C157.77 22.74 157.867 22.7 157.98 22.7C158.1 22.7 158.197 22.74 158.27 22.82C158.35 22.8933 158.39 22.9867 158.39 23.1C158.39 23.2133 158.35 23.31 158.27 23.39C158.197 23.47 158.1 23.51 157.98 23.51ZM161.657 30L159.307 24.78H159.837L162.037 29.72H161.797L164.017 24.78H164.527L162.167 30H161.657ZM167.594 30.04C167.067 30.04 166.601 29.9267 166.194 29.7C165.794 29.4733 165.477 29.16 165.244 28.76C165.017 28.36 164.904 27.9033 164.904 27.39C164.904 26.87 165.011 26.4133 165.224 26.02C165.444 25.62 165.744 25.3067 166.124 25.08C166.504 24.8533 166.931 24.74 167.404 24.74C167.877 24.74 168.301 24.85 168.674 25.07C169.054 25.29 169.351 25.6 169.564 26C169.784 26.3933 169.894 26.85 169.894 27.37C169.894 27.39 169.891 27.4133 169.884 27.44C169.884 27.46 169.884 27.4833 169.884 27.51H165.274V27.12H169.614L169.414 27.31C169.421 26.9033 169.334 26.54 169.154 26.22C168.981 25.8933 168.744 25.64 168.444 25.46C168.144 25.2733 167.797 25.18 167.404 25.18C167.017 25.18 166.671 25.2733 166.364 25.46C166.064 25.64 165.827 25.8933 165.654 26.22C165.481 26.54 165.394 26.9067 165.394 27.32V27.41C165.394 27.8367 165.487 28.2167 165.674 28.55C165.867 28.8767 166.131 29.1333 166.464 29.32C166.797 29.5 167.177 29.59 167.604 29.59C167.937 29.59 168.247 29.53 168.534 29.41C168.827 29.29 169.074 29.1067 169.274 28.86L169.564 29.19C169.337 29.47 169.051 29.6833 168.704 29.83C168.364 29.97 167.994 30.04 167.594 30.04ZM171.441 30V24.78H171.921V26.21L171.871 26.05C172.018 25.63 172.264 25.3067 172.611 25.08C172.958 24.8533 173.391 24.74 173.911 24.74V25.23C173.891 25.23 173.871 25.23 173.851 25.23C173.831 25.2233 173.811 25.22 173.791 25.22C173.211 25.22 172.758 25.4033 172.431 25.77C172.104 26.13 171.941 26.6333 171.941 27.28V30H171.441ZM177.36 30.04C176.833 30.04 176.366 29.9267 175.96 29.7C175.56 29.4733 175.243 29.16 175.01 28.76C174.783 28.36 174.67 27.9033 174.67 27.39C174.67 26.87 174.776 26.4133 174.99 26.02C175.21 25.62 175.51 25.3067 175.89 25.08C176.27 24.8533 176.696 24.74 177.17 24.74C177.643 24.74 178.066 24.85 178.44 25.07C178.82 25.29 179.116 25.6 179.33 26C179.55 26.3933 179.66 26.85 179.66 27.37C179.66 27.39 179.656 27.4133 179.65 27.44C179.65 27.46 179.65 27.4833 179.65 27.51H175.04V27.12H179.38L179.18 27.31C179.186 26.9033 179.1 26.54 178.92 26.22C178.746 25.8933 178.51 25.64 178.21 25.46C177.91 25.2733 177.563 25.18 177.17 25.18C176.783 25.18 176.436 25.2733 176.13 25.46C175.83 25.64 175.593 25.8933 175.42 26.22C175.246 26.54 175.16 26.9067 175.16 27.32V27.41C175.16 27.8367 175.253 28.2167 175.44 28.55C175.633 28.8767 175.896 29.1333 176.23 29.32C176.563 29.5 176.943 29.59 177.37 29.59C177.703 29.59 178.013 29.53 178.3 29.41C178.593 29.29 178.84 29.1067 179.04 28.86L179.33 29.19C179.103 29.47 178.816 29.6833 178.47 29.83C178.13 29.97 177.76 30.04 177.36 30.04ZM183.216 30.04C182.73 30.04 182.29 29.93 181.896 29.71C181.51 29.4833 181.203 29.17 180.976 28.77C180.75 28.37 180.636 27.91 180.636 27.39C180.636 26.8633 180.75 26.4033 180.976 26.01C181.203 25.61 181.51 25.3 181.896 25.08C182.29 24.8533 182.73 24.74 183.216 24.74C183.676 24.74 184.09 24.8467 184.456 25.06C184.83 25.2733 185.123 25.5767 185.336 25.97C185.556 26.3633 185.666 26.8367 185.666 27.39C185.666 27.93 185.56 28.4 185.346 28.8C185.133 29.2 184.84 29.5067 184.466 29.72C184.1 29.9333 183.683 30.04 183.216 30.04ZM183.246 29.59C183.646 29.59 184.003 29.5 184.316 29.32C184.636 29.1333 184.886 28.8733 185.066 28.54C185.253 28.2067 185.346 27.8233 185.346 27.39C185.346 26.95 185.253 26.5667 185.066 26.24C184.886 25.9067 184.636 25.65 184.316 25.47C184.003 25.2833 183.646 25.19 183.246 25.19C182.846 25.19 182.486 25.2833 182.166 25.47C181.853 25.65 181.603 25.9067 181.416 26.24C181.236 26.5667 181.146 26.95 181.146 27.39C181.146 27.8233 181.236 28.2067 181.416 28.54C181.603 28.8733 181.853 29.1333 182.166 29.32C182.486 29.5 182.846 29.59 183.246 29.59ZM185.356 30V28.29L185.446 27.38L185.346 26.47V22.58H185.846V30H185.356ZM187.895 30.04C187.781 30.04 187.681 30 187.595 29.92C187.515 29.8333 187.475 29.73 187.475 29.61C187.475 29.49 187.515 29.39 187.595 29.31C187.681 29.23 187.781 29.19 187.895 29.19C188.008 29.19 188.105 29.23 188.185 29.31C188.271 29.39 188.315 29.49 188.315 29.61C188.315 29.73 188.271 29.8333 188.185 29.92C188.105 30 188.008 30.04 187.895 30.04ZM189.846 31.94H189.376C189.763 31.2733 190.046 30.5533 190.226 29.78C190.406 29.0067 190.496 28.1667 190.496 27.26C190.496 26.3533 190.406 25.5133 190.226 24.74C190.046 23.9667 189.763 23.2467 189.376 22.58H189.846C190.213 23.1667 190.496 23.8633 190.696 24.67C190.896 25.47 190.996 26.3333 190.996 27.26C190.996 28.1867 190.896 29.0467 190.696 29.84C190.496 30.6333 190.213 31.3333 189.846 31.94Z" fill="black"/>
</svg>
