<svg width="387" height="32" viewBox="0 0 387 32" fill="none" xmlns="http://www.w3.org/2000/svg">
<path d="M26.316 14V4.2H30.348C31.216 4.2 31.958 4.34 32.574 4.62C33.1993 4.9 33.68 5.30133 34.016 5.824C34.352 6.34667 34.52 6.96733 34.52 7.686C34.52 8.40467 34.352 9.02533 34.016 9.548C33.68 10.0707 33.1993 10.472 32.574 10.752C31.958 11.032 31.216 11.172 30.348 11.172H27.324L28.136 10.318V14H26.316ZM28.136 10.514L27.324 9.632H30.264C31.0667 9.632 31.6687 9.464 32.07 9.128C32.4807 8.78267 32.686 8.302 32.686 7.686C32.686 7.06067 32.4807 6.58 32.07 6.244C31.6687 5.908 31.0667 5.74 30.264 5.74H27.324L28.136 4.844V10.514ZM36.3375 14V4.2H40.3695C41.2375 4.2 41.9795 4.34 42.5955 4.62C43.2208 4.9 43.7015 5.30133 44.0375 5.824C44.3735 6.34667 44.5415 6.96733 44.5415 7.686C44.5415 8.40467 44.3735 9.02533 44.0375 9.548C43.7015 10.0707 43.2208 10.472 42.5955 10.752C41.9795 11.032 41.2375 11.172 40.3695 11.172H37.3455L38.1575 10.318V14H36.3375ZM38.1575 10.514L37.3455 9.632H40.2855C41.0882 9.632 41.6902 9.464 42.0915 9.128C42.5022 8.78267 42.7075 8.302 42.7075 7.686C42.7075 7.06067 42.5022 6.58 42.0915 6.244C41.6902 5.908 41.0882 5.74 40.2855 5.74H37.3455L38.1575 4.844V10.514ZM50.3648 14V4.2H54.9568C56.1328 4.2 57.0288 4.43333 57.6448 4.9C58.2608 5.35733 58.5688 5.97333 58.5688 6.748C58.5688 7.27067 58.4475 7.71867 58.2048 8.092C57.9622 8.456 57.6355 8.74067 57.2248 8.946C56.8235 9.142 56.3848 9.24 55.9088 9.24L56.1608 8.736C56.7115 8.736 57.2062 8.83867 57.6448 9.044C58.0835 9.24 58.4288 9.52933 58.6808 9.912C58.9422 10.2947 59.0728 10.7707 59.0728 11.34C59.0728 12.18 58.7508 12.8333 58.1068 13.3C57.4628 13.7667 56.5062 14 55.2368 14H50.3648ZM52.1848 12.572H55.1248C55.8062 12.572 56.3288 12.46 56.6928 12.236C57.0568 12.012 57.2388 11.6527 57.2388 11.158C57.2388 10.6727 57.0568 10.318 56.6928 10.094C56.3288 9.86067 55.8062 9.744 55.1248 9.744H52.0448V8.33H54.7608C55.3955 8.33 55.8808 8.218 56.2168 7.994C56.5622 7.77 56.7348 7.434 56.7348 6.986C56.7348 6.52867 56.5622 6.188 56.2168 5.964C55.8808 5.74 55.3955 5.628 54.7608 5.628H52.1848V12.572ZM64.2072 14.098C63.4419 14.098 62.7606 13.9347 62.1632 13.608C61.5659 13.272 61.0946 12.8147 60.7492 12.236C60.4039 11.6573 60.2312 10.9993 60.2312 10.262C60.2312 9.51533 60.4039 8.85733 60.7492 8.288C61.0946 7.70933 61.5659 7.25667 62.1632 6.93C62.7606 6.60333 63.4419 6.44 64.2072 6.44C64.9819 6.44 65.6679 6.60333 66.2652 6.93C66.8719 7.25667 67.3432 7.70467 67.6792 8.274C68.0246 8.84333 68.1972 9.506 68.1972 10.262C68.1972 10.9993 68.0246 11.6573 67.6792 12.236C67.3432 12.8147 66.8719 13.272 66.2652 13.608C65.6679 13.9347 64.9819 14.098 64.2072 14.098ZM64.2072 12.6C64.6366 12.6 65.0192 12.5067 65.3552 12.32C65.6912 12.1333 65.9526 11.8627 66.1392 11.508C66.3352 11.1533 66.4332 10.738 66.4332 10.262C66.4332 9.77667 66.3352 9.36133 66.1392 9.016C65.9526 8.66133 65.6912 8.39067 65.3552 8.204C65.0192 8.01733 64.6412 7.924 64.2212 7.924C63.7919 7.924 63.4092 8.01733 63.0732 8.204C62.7466 8.39067 62.4852 8.66133 62.2892 9.016C62.0932 9.36133 61.9952 9.77667 61.9952 10.262C61.9952 10.738 62.0932 11.1533 62.2892 11.508C62.4852 11.8627 62.7466 12.1333 63.0732 12.32C63.4092 12.5067 63.7872 12.6 64.2072 12.6ZM68.6026 14L71.8926 9.716L71.8646 10.654L68.7286 6.524H70.6746L72.8726 9.464H72.1306L74.3426 6.524H76.2326L73.0686 10.654L73.0826 9.716L76.3586 14H74.3846L72.0746 10.878L72.8026 10.976L70.5346 14H68.6026ZM84.7251 14.14C83.9598 14.14 83.2271 14.0327 82.5271 13.818C81.8271 13.594 81.2718 13.3093 80.8611 12.964L81.4911 11.55C81.8831 11.858 82.3684 12.1147 82.9471 12.32C83.5258 12.5253 84.1184 12.628 84.7251 12.628C85.2384 12.628 85.6538 12.572 85.9711 12.46C86.2884 12.348 86.5218 12.1987 86.6711 12.012C86.8204 11.816 86.8951 11.5967 86.8951 11.354C86.8951 11.0553 86.7878 10.8173 86.5731 10.64C86.3584 10.4533 86.0784 10.3087 85.7331 10.206C85.3971 10.094 85.0191 9.99133 84.5991 9.898C84.1884 9.80467 83.7731 9.69733 83.3531 9.576C82.9424 9.44533 82.5644 9.282 82.2191 9.086C81.8831 8.88067 81.6078 8.61 81.3931 8.274C81.1784 7.938 81.0711 7.50867 81.0711 6.986C81.0711 6.454 81.2111 5.96867 81.4911 5.53C81.7804 5.082 82.2144 4.72733 82.7931 4.466C83.3811 4.19533 84.1231 4.06 85.0191 4.06C85.6071 4.06 86.1904 4.13467 86.7691 4.284C87.3478 4.43333 87.8518 4.648 88.2811 4.928L87.7071 6.342C87.2684 6.08067 86.8158 5.88933 86.3491 5.768C85.8824 5.63733 85.4344 5.572 85.0051 5.572C84.5011 5.572 84.0904 5.63267 83.7731 5.754C83.4651 5.87533 83.2364 6.034 83.0871 6.23C82.9471 6.426 82.8771 6.65 82.8771 6.902C82.8771 7.20067 82.9798 7.44333 83.1851 7.63C83.3998 7.80733 83.6751 7.94733 84.0111 8.05C84.3564 8.15267 84.7391 8.25533 85.1591 8.358C85.5791 8.45133 85.9944 8.55867 86.4051 8.68C86.8251 8.80133 87.2031 8.96 87.5391 9.156C87.8844 9.352 88.1598 9.618 88.3651 9.954C88.5798 10.29 88.6871 10.7147 88.6871 11.228C88.6871 11.7507 88.5424 12.236 88.2531 12.684C87.9731 13.1227 87.5391 13.4773 86.9511 13.748C86.3631 14.0093 85.6211 14.14 84.7251 14.14ZM93.1378 14.098C92.3164 14.098 91.6818 13.888 91.2338 13.468C90.7858 13.0387 90.5618 12.4087 90.5618 11.578V4.872H92.3118V11.536C92.3118 11.8907 92.4004 12.166 92.5778 12.362C92.7644 12.558 93.0211 12.656 93.3478 12.656C93.7398 12.656 94.0664 12.5533 94.3278 12.348L94.8178 13.594C94.6124 13.762 94.3604 13.888 94.0618 13.972C93.7631 14.056 93.4551 14.098 93.1378 14.098ZM89.3298 7.98V6.58H94.3138V7.98H89.3298ZM96.2574 14V6.524H97.9234V8.582L97.7274 7.98C97.9514 7.476 98.3014 7.09333 98.7774 6.832C99.2627 6.57067 99.8647 6.44 100.583 6.44V8.106C100.509 8.08733 100.439 8.078 100.373 8.078C100.308 8.06867 100.243 8.064 100.177 8.064C99.5147 8.064 98.9874 8.26 98.5954 8.652C98.2034 9.03467 98.0074 9.60867 98.0074 10.374V14H96.2574ZM106.141 14V12.488L106.043 12.166V9.52C106.043 9.00667 105.889 8.61 105.581 8.33C105.273 8.04067 104.806 7.896 104.181 7.896C103.761 7.896 103.345 7.96133 102.935 8.092C102.533 8.22267 102.193 8.40467 101.913 8.638L101.227 7.364C101.628 7.056 102.104 6.82733 102.655 6.678C103.215 6.51933 103.793 6.44 104.391 6.44C105.473 6.44 106.309 6.70133 106.897 7.224C107.494 7.73733 107.793 8.53533 107.793 9.618V14H106.141ZM103.789 14.098C103.229 14.098 102.739 14.0047 102.319 13.818C101.899 13.622 101.572 13.356 101.339 13.02C101.115 12.6747 101.003 12.2873 101.003 11.858C101.003 11.438 101.101 11.06 101.297 10.724C101.502 10.388 101.833 10.122 102.291 9.926C102.748 9.73 103.355 9.632 104.111 9.632H106.281V10.794H104.237C103.639 10.794 103.238 10.892 103.033 11.088C102.827 11.2747 102.725 11.508 102.725 11.788C102.725 12.1053 102.851 12.3573 103.103 12.544C103.355 12.7307 103.705 12.824 104.153 12.824C104.582 12.824 104.965 12.726 105.301 12.53C105.646 12.334 105.893 12.0447 106.043 11.662L106.337 12.712C106.169 13.1507 105.865 13.4913 105.427 13.734C104.997 13.9767 104.451 14.098 103.789 14.098ZM114.183 14.098C113.576 14.098 113.021 13.958 112.517 13.678C112.022 13.398 111.625 12.978 111.327 12.418C111.037 11.8487 110.893 11.13 110.893 10.262C110.893 9.38467 111.033 8.666 111.313 8.106C111.602 7.546 111.994 7.13067 112.489 6.86C112.983 6.58 113.548 6.44 114.183 6.44C114.92 6.44 115.569 6.59867 116.129 6.916C116.698 7.23333 117.146 7.67667 117.473 8.246C117.809 8.81533 117.977 9.48733 117.977 10.262C117.977 11.0367 117.809 11.7133 117.473 12.292C117.146 12.8613 116.698 13.3047 116.129 13.622C115.569 13.9393 114.92 14.098 114.183 14.098ZM110.039 16.716V6.524H111.705V8.288L111.649 10.276L111.789 12.264V16.716H110.039ZM113.987 12.6C114.407 12.6 114.78 12.5067 115.107 12.32C115.443 12.1333 115.709 11.8627 115.905 11.508C116.101 11.1533 116.199 10.738 116.199 10.262C116.199 9.77667 116.101 9.36133 115.905 9.016C115.709 8.66133 115.443 8.39067 115.107 8.204C114.78 8.01733 114.407 7.924 113.987 7.924C113.567 7.924 113.189 8.01733 112.853 8.204C112.517 8.39067 112.251 8.66133 112.055 9.016C111.859 9.36133 111.761 9.77667 111.761 10.262C111.761 10.738 111.859 11.1533 112.055 11.508C112.251 11.8627 112.517 12.1333 112.853 12.32C113.189 12.5067 113.567 12.6 113.987 12.6ZM123.78 14.098C123.174 14.098 122.618 13.958 122.114 13.678C121.62 13.398 121.223 12.978 120.924 12.418C120.635 11.8487 120.49 11.13 120.49 10.262C120.49 9.38467 120.63 8.666 120.91 8.106C121.2 7.546 121.592 7.13067 122.086 6.86C122.581 6.58 123.146 6.44 123.78 6.44C124.518 6.44 125.166 6.59867 125.726 6.916C126.296 7.23333 126.744 7.67667 127.07 8.246C127.406 8.81533 127.574 9.48733 127.574 10.262C127.574 11.0367 127.406 11.7133 127.07 12.292C126.744 12.8613 126.296 13.3047 125.726 13.622C125.166 13.9393 124.518 14.098 123.78 14.098ZM119.636 16.716V6.524H121.302V8.288L121.246 10.276L121.386 12.264V16.716H119.636ZM123.584 12.6C124.004 12.6 124.378 12.5067 124.704 12.32C125.04 12.1333 125.306 11.8627 125.502 11.508C125.698 11.1533 125.796 10.738 125.796 10.262C125.796 9.77667 125.698 9.36133 125.502 9.016C125.306 8.66133 125.04 8.39067 124.704 8.204C124.378 8.01733 124.004 7.924 123.584 7.924C123.164 7.924 122.786 8.01733 122.45 8.204C122.114 8.39067 121.848 8.66133 121.652 9.016C121.456 9.36133 121.358 9.77667 121.358 10.262C121.358 10.738 121.456 11.1533 121.652 11.508C121.848 11.8627 122.114 12.1333 122.45 12.32C122.786 12.5067 123.164 12.6 123.584 12.6ZM129.234 14V6.524H130.984V14H129.234ZM130.116 5.292C129.789 5.292 129.519 5.18933 129.304 4.984C129.099 4.77867 128.996 4.53133 128.996 4.242C128.996 3.94333 129.099 3.696 129.304 3.5C129.519 3.29467 129.789 3.192 130.116 3.192C130.443 3.192 130.709 3.29 130.914 3.486C131.129 3.67267 131.236 3.91067 131.236 4.2C131.236 4.508 131.133 4.76933 130.928 4.984C130.723 5.18933 130.452 5.292 130.116 5.292ZM137.523 6.44C138.12 6.44 138.652 6.55667 139.119 6.79C139.595 7.02333 139.968 7.38267 140.239 7.868C140.509 8.344 140.645 8.96 140.645 9.716V14H138.895V9.94C138.895 9.27733 138.736 8.78267 138.419 8.456C138.111 8.12933 137.677 7.966 137.117 7.966C136.706 7.966 136.342 8.05 136.025 8.218C135.707 8.386 135.46 8.638 135.283 8.974C135.115 9.30067 135.031 9.716 135.031 10.22V14H133.281V6.524H134.947V8.54L134.653 7.924C134.914 7.448 135.292 7.084 135.787 6.832C136.291 6.57067 136.869 6.44 137.523 6.44ZM146.266 16.814C145.576 16.814 144.899 16.7207 144.236 16.534C143.583 16.3567 143.046 16.0953 142.626 15.75L143.41 14.434C143.737 14.7047 144.148 14.9193 144.642 15.078C145.146 15.246 145.655 15.33 146.168 15.33C146.99 15.33 147.592 15.1387 147.974 14.756C148.357 14.3827 148.548 13.818 148.548 13.062V11.732L148.688 10.038L148.632 8.344V6.524H150.298V12.866C150.298 14.2193 149.953 15.2133 149.262 15.848C148.572 16.492 147.573 16.814 146.266 16.814ZM146.042 13.664C145.333 13.664 144.689 13.5147 144.11 13.216C143.541 12.908 143.088 12.4833 142.752 11.942C142.426 11.4007 142.262 10.766 142.262 10.038C142.262 9.31933 142.426 8.68933 142.752 8.148C143.088 7.60667 143.541 7.18667 144.11 6.888C144.689 6.58933 145.333 6.44 146.042 6.44C146.677 6.44 147.246 6.566 147.75 6.818C148.254 7.07 148.656 7.462 148.954 7.994C149.262 8.526 149.416 9.20733 149.416 10.038C149.416 10.8687 149.262 11.5547 148.954 12.096C148.656 12.628 148.254 13.0247 147.75 13.286C147.246 13.538 146.677 13.664 146.042 13.664ZM146.308 12.18C146.747 12.18 147.139 12.0913 147.484 11.914C147.83 11.7273 148.096 11.4753 148.282 11.158C148.478 10.8313 148.576 10.458 148.576 10.038C148.576 9.618 148.478 9.24933 148.282 8.932C148.096 8.60533 147.83 8.358 147.484 8.19C147.139 8.01267 146.747 7.924 146.308 7.924C145.87 7.924 145.473 8.01267 145.118 8.19C144.773 8.358 144.502 8.60533 144.306 8.932C144.12 9.24933 144.026 9.618 144.026 10.038C144.026 10.458 144.12 10.8313 144.306 11.158C144.502 11.4753 144.773 11.7273 145.118 11.914C145.473 12.0913 145.87 12.18 146.308 12.18ZM156.636 14V4.2H160.668C161.536 4.2 162.278 4.34 162.894 4.62C163.52 4.9 164 5.30133 164.336 5.824C164.672 6.34667 164.84 6.96733 164.84 7.686C164.84 8.40467 164.672 9.02533 164.336 9.548C164 10.0613 163.52 10.458 162.894 10.738C162.278 11.0087 161.536 11.144 160.668 11.144H157.644L158.456 10.318V14H156.636ZM163.048 14L160.57 10.444H162.516L165.008 14H163.048ZM158.456 10.514L157.644 9.646H160.584C161.387 9.646 161.989 9.47333 162.39 9.128C162.801 8.78267 163.006 8.302 163.006 7.686C163.006 7.06067 162.801 6.58 162.39 6.244C161.989 5.908 161.387 5.74 160.584 5.74H157.644L158.456 4.844V10.514ZM170.069 14.098C169.303 14.098 168.622 13.9347 168.025 13.608C167.427 13.272 166.956 12.8147 166.611 12.236C166.265 11.6573 166.093 10.9993 166.093 10.262C166.093 9.51533 166.265 8.85733 166.611 8.288C166.956 7.70933 167.427 7.25667 168.025 6.93C168.622 6.60333 169.303 6.44 170.069 6.44C170.843 6.44 171.529 6.60333 172.127 6.93C172.733 7.25667 173.205 7.70467 173.541 8.274C173.886 8.84333 174.059 9.506 174.059 10.262C174.059 10.9993 173.886 11.6573 173.541 12.236C173.205 12.8147 172.733 13.272 172.127 13.608C171.529 13.9347 170.843 14.098 170.069 14.098ZM170.069 12.6C170.498 12.6 170.881 12.5067 171.217 12.32C171.553 12.1333 171.814 11.8627 172.001 11.508C172.197 11.1533 172.295 10.738 172.295 10.262C172.295 9.77667 172.197 9.36133 172.001 9.016C171.814 8.66133 171.553 8.39067 171.217 8.204C170.881 8.01733 170.503 7.924 170.083 7.924C169.653 7.924 169.271 8.01733 168.935 8.204C168.608 8.39067 168.347 8.66133 168.151 9.016C167.955 9.36133 167.857 9.77667 167.857 10.262C167.857 10.738 167.955 11.1533 168.151 11.508C168.347 11.8627 168.608 12.1333 168.935 12.32C169.271 12.5067 169.649 12.6 170.069 12.6ZM175.732 14V3.612H177.482V14H175.732ZM179.779 14V3.612H181.529V14H179.779Z" fill="black"/>
<path d="M4.704 14.14C3.92933 14.14 3.22933 13.944 2.604 13.552C1.988 13.16 1.50267 12.5907 1.148 11.844C0.793333 11.088 0.616 10.1733 0.616 9.1C0.616 8.02667 0.793333 7.11667 1.148 6.37C1.50267 5.614 1.988 5.04 2.604 4.648C3.22933 4.256 3.92933 4.06 4.704 4.06C5.488 4.06 6.188 4.256 6.804 4.648C7.42 5.04 7.90533 5.614 8.26 6.37C8.624 7.11667 8.806 8.02667 8.806 9.1C8.806 10.1733 8.624 11.088 8.26 11.844C7.90533 12.5907 7.42 13.16 6.804 13.552C6.188 13.944 5.488 14.14 4.704 14.14ZM4.704 12.558C5.16133 12.558 5.558 12.4367 5.894 12.194C6.23 11.942 6.49133 11.5593 6.678 11.046C6.874 10.5327 6.972 9.884 6.972 9.1C6.972 8.30667 6.874 7.658 6.678 7.154C6.49133 6.64067 6.23 6.26267 5.894 6.02C5.558 5.768 5.16133 5.642 4.704 5.642C4.26533 5.642 3.87333 5.768 3.528 6.02C3.192 6.26267 2.926 6.64067 2.73 7.154C2.54333 7.658 2.45 8.30667 2.45 9.1C2.45 9.884 2.54333 10.5327 2.73 11.046C2.926 11.5593 3.192 11.942 3.528 12.194C3.87333 12.4367 4.26533 12.558 4.704 12.558ZM12.9792 14.14C12.2885 14.14 11.6119 14.042 10.9492 13.846C10.2959 13.6407 9.7452 13.3607 9.2972 13.006L10.0812 11.592C10.4359 11.8813 10.8652 12.1147 11.3692 12.292C11.8732 12.4693 12.4005 12.558 12.9512 12.558C13.6045 12.558 14.1132 12.4273 14.4772 12.166C14.8412 11.8953 15.0232 11.5313 15.0232 11.074C15.0232 10.626 14.8552 10.2713 14.5192 10.01C14.1832 9.74867 13.6419 9.618 12.8952 9.618H11.9992V8.372L14.7992 5.04L15.0372 5.726H9.7732V4.2H16.4512V5.418L13.6512 8.75L12.6992 8.19H13.2452C14.4492 8.19 15.3499 8.46067 15.9472 9.002C16.5539 9.534 16.8572 10.22 16.8572 11.06C16.8572 11.6107 16.7172 12.1193 16.4372 12.586C16.1572 13.0527 15.7279 13.4307 15.1492 13.72C14.5799 14 13.8565 14.14 12.9792 14.14ZM19.1396 14.098C18.8223 14.098 18.5516 13.9907 18.3276 13.776C18.1036 13.552 17.9916 13.272 17.9916 12.936C17.9916 12.5813 18.1036 12.3013 18.3276 12.096C18.5516 11.8813 18.8223 11.774 19.1396 11.774C19.457 11.774 19.7276 11.8813 19.9516 12.096C20.1756 12.3013 20.2876 12.5813 20.2876 12.936C20.2876 13.272 20.1756 13.552 19.9516 13.776C19.7276 13.9907 19.457 14.098 19.1396 14.098Z" fill="black"/>
<path d="M372.712 17.17C371.771 17.17 370.921 16.932 370.162 16.456C369.414 15.98 368.825 15.2887 368.394 14.382C367.963 13.464 367.748 12.3533 367.748 11.05C367.748 9.74667 367.963 8.64167 368.394 7.735C368.825 6.817 369.414 6.12 370.162 5.644C370.921 5.168 371.771 4.93 372.712 4.93C373.664 4.93 374.514 5.168 375.262 5.644C376.01 6.12 376.599 6.817 377.03 7.735C377.472 8.64167 377.693 9.74667 377.693 11.05C377.693 12.3533 377.472 13.464 377.03 14.382C376.599 15.2887 376.01 15.98 375.262 16.456C374.514 16.932 373.664 17.17 372.712 17.17ZM372.712 15.249C373.267 15.249 373.749 15.1017 374.157 14.807C374.565 14.501 374.882 14.0363 375.109 13.413C375.347 12.7897 375.466 12.002 375.466 11.05C375.466 10.0867 375.347 9.299 375.109 8.687C374.882 8.06367 374.565 7.60467 374.157 7.31C373.749 7.004 373.267 6.851 372.712 6.851C372.179 6.851 371.703 7.004 371.284 7.31C370.876 7.60467 370.553 8.06367 370.315 8.687C370.088 9.299 369.975 10.0867 369.975 11.05C369.975 12.002 370.088 12.7897 370.315 13.413C370.553 14.0363 370.876 14.501 371.284 14.807C371.703 15.1017 372.179 15.249 372.712 15.249ZM382.944 17V5.95L383.913 6.953H380.428V5.1H385.154V17H382.944Z" fill="#16713D"/>
<path d="M27.26 31.94C26.8933 31.3333 26.61 30.6333 26.41 29.84C26.2167 29.0467 26.12 28.1867 26.12 27.26C26.12 26.3333 26.2167 25.47 26.41 24.67C26.61 23.8633 26.8933 23.1667 27.26 22.58H27.74C27.3467 23.2467 27.06 23.9667 26.88 24.74C26.7 25.5133 26.61 26.3533 26.61 27.26C26.61 28.1667 26.7 29.0067 26.88 29.78C27.06 30.5533 27.3467 31.2733 27.74 31.94H27.26ZM31.2729 30.05C30.7529 30.05 30.2596 29.9633 29.7929 29.79C29.3329 29.61 28.9762 29.38 28.7229 29.1L28.9529 28.72C29.1929 28.9667 29.5196 29.1767 29.9329 29.35C30.3529 29.5167 30.7962 29.6 31.2629 29.6C31.7296 29.6 32.1096 29.54 32.4029 29.42C32.7029 29.2933 32.9229 29.1267 33.0629 28.92C33.2096 28.7133 33.2829 28.4833 33.2829 28.23C33.2829 27.93 33.2029 27.69 33.0429 27.51C32.8829 27.33 32.6729 27.1867 32.4129 27.08C32.1529 26.9733 31.8696 26.8833 31.5629 26.81C31.2562 26.7367 30.9462 26.66 30.6329 26.58C30.3196 26.4933 30.0329 26.3833 29.7729 26.25C29.5129 26.1167 29.3029 25.9367 29.1429 25.71C28.9896 25.4767 28.9129 25.1767 28.9129 24.81C28.9129 24.4767 28.9996 24.17 29.1729 23.89C29.3462 23.61 29.6162 23.3833 29.9829 23.21C30.3496 23.0367 30.8196 22.95 31.3929 22.95C31.7796 22.95 32.1596 23.0067 32.5329 23.12C32.9129 23.2333 33.2362 23.3867 33.5029 23.58L33.3129 23.99C33.0196 23.79 32.7029 23.6433 32.3629 23.55C32.0296 23.45 31.7062 23.4 31.3929 23.4C30.9462 23.4 30.5762 23.4633 30.2829 23.59C29.9896 23.7167 29.7729 23.8867 29.6329 24.1C29.4929 24.3067 29.4229 24.54 29.4229 24.8C29.4229 25.1 29.4996 25.34 29.6529 25.52C29.8129 25.7 30.0229 25.8433 30.2829 25.95C30.5429 26.0567 30.8296 26.1467 31.1429 26.22C31.4562 26.2933 31.7662 26.3733 32.0729 26.46C32.3796 26.54 32.6629 26.6467 32.9229 26.78C33.1829 26.9133 33.3929 27.0933 33.5529 27.32C33.7129 27.5467 33.7929 27.84 33.7929 28.2C33.7929 28.5267 33.7029 28.8333 33.5229 29.12C33.3429 29.4 33.0662 29.6267 32.6929 29.8C32.3262 29.9667 31.8529 30.05 31.2729 30.05ZM36.8866 30.04C36.4266 30.04 36.0733 29.9133 35.8266 29.66C35.5866 29.4067 35.4666 29.06 35.4666 28.62V23.64H35.9666V28.57C35.9666 28.9033 36.05 29.16 36.2166 29.34C36.3833 29.52 36.6233 29.61 36.9366 29.61C37.2633 29.61 37.5333 29.5133 37.7466 29.32L37.9566 29.67C37.8233 29.7967 37.66 29.89 37.4666 29.95C37.28 30.01 37.0866 30.04 36.8866 30.04ZM34.5066 25.21V24.78H37.6266V25.21H34.5066ZM39.351 30V24.78H39.831V26.21L39.781 26.05C39.9277 25.63 40.1743 25.3067 40.521 25.08C40.8677 24.8533 41.301 24.74 41.821 24.74V25.23C41.801 25.23 41.781 25.23 41.761 25.23C41.741 25.2233 41.721 25.22 41.701 25.22C41.121 25.22 40.6677 25.4033 40.341 25.77C40.0143 26.13 39.851 26.6333 39.851 27.28V30H39.351ZM45.1898 30.04C44.6898 30.04 44.2432 29.9267 43.8498 29.7C43.4632 29.4733 43.1532 29.16 42.9198 28.76C42.6932 28.36 42.5798 27.9033 42.5798 27.39C42.5798 26.87 42.6932 26.4133 42.9198 26.02C43.1532 25.62 43.4632 25.3067 43.8498 25.08C44.2432 24.8533 44.6898 24.74 45.1898 24.74C45.6898 24.74 46.1365 24.8533 46.5298 25.08C46.9232 25.3067 47.2332 25.62 47.4598 26.02C47.6865 26.4133 47.7998 26.87 47.7998 27.39C47.7998 27.9033 47.6865 28.36 47.4598 28.76C47.2332 29.16 46.9232 29.4733 46.5298 29.7C46.1365 29.9267 45.6898 30.04 45.1898 30.04ZM45.1898 29.59C45.5898 29.59 45.9498 29.5 46.2698 29.32C46.5898 29.1333 46.8398 28.8733 47.0198 28.54C47.1998 28.2067 47.2898 27.8233 47.2898 27.39C47.2898 26.95 47.1998 26.5667 47.0198 26.24C46.8398 25.9067 46.5898 25.65 46.2698 25.47C45.9498 25.2833 45.5898 25.19 45.1898 25.19C44.7898 25.19 44.4298 25.2833 44.1098 25.47C43.7965 25.65 43.5465 25.9067 43.3598 26.24C43.1798 26.5667 43.0898 26.95 43.0898 27.39C43.0898 27.8233 43.1798 28.2067 43.3598 28.54C43.5465 28.8733 43.7965 29.1333 44.1098 29.32C44.4298 29.5 44.7898 29.59 45.1898 29.59ZM51.901 24.74C52.3277 24.74 52.6977 24.8233 53.011 24.99C53.331 25.15 53.5777 25.3967 53.751 25.73C53.931 26.0567 54.021 26.4633 54.021 26.95V30H53.521V26.99C53.521 26.4033 53.371 25.9567 53.071 25.65C52.7777 25.3433 52.3643 25.19 51.831 25.19C51.4243 25.19 51.071 25.2733 50.771 25.44C50.471 25.6067 50.241 25.84 50.081 26.14C49.9277 26.44 49.851 26.8 49.851 27.22V30H49.351V24.78H49.831V26.23L49.761 26.07C49.921 25.6567 50.1843 25.3333 50.551 25.1C50.9177 24.86 51.3677 24.74 51.901 24.74ZM58.2495 31.98C57.7762 31.98 57.3262 31.9067 56.8995 31.76C56.4729 31.6133 56.1262 31.41 55.8595 31.15L56.1295 30.77C56.3895 31.01 56.6995 31.1967 57.0595 31.33C57.4262 31.4633 57.8195 31.53 58.2395 31.53C58.9395 31.53 59.4529 31.3667 59.7795 31.04C60.1129 30.7133 60.2795 30.2 60.2795 29.5V28.05L60.3795 27.27L60.2995 26.49V24.78H60.7795V29.44C60.7795 30.3133 60.5662 30.9533 60.1395 31.36C59.7195 31.7733 59.0895 31.98 58.2495 31.98ZM58.1095 29.81C57.6162 29.81 57.1729 29.7033 56.7795 29.49C56.3929 29.27 56.0829 28.97 55.8495 28.59C55.6229 28.2033 55.5095 27.7633 55.5095 27.27C55.5095 26.77 55.6229 26.33 55.8495 25.95C56.0829 25.57 56.3929 25.2733 56.7795 25.06C57.1729 24.8467 57.6162 24.74 58.1095 24.74C58.5829 24.74 59.0062 24.8433 59.3795 25.05C59.7595 25.25 60.0595 25.54 60.2795 25.92C60.4995 26.2933 60.6095 26.7433 60.6095 27.27C60.6095 27.79 60.4995 28.24 60.2795 28.62C60.0595 29 59.7595 29.2933 59.3795 29.5C59.0062 29.7067 58.5829 29.81 58.1095 29.81ZM58.1495 29.36C58.5695 29.36 58.9395 29.2733 59.2595 29.1C59.5795 28.92 59.8295 28.6733 60.0095 28.36C60.1962 28.04 60.2895 27.6767 60.2895 27.27C60.2895 26.8567 60.1962 26.4933 60.0095 26.18C59.8295 25.8667 59.5795 25.6233 59.2595 25.45C58.9395 25.2767 58.5695 25.19 58.1495 25.19C57.7429 25.19 57.3762 25.2767 57.0495 25.45C56.7295 25.6233 56.4762 25.8667 56.2895 26.18C56.1095 26.4933 56.0195 26.8567 56.0195 27.27C56.0195 27.6767 56.1095 28.04 56.2895 28.36C56.4762 28.6733 56.7295 28.92 57.0495 29.1C57.3762 29.2733 57.7429 29.36 58.1495 29.36ZM68.6143 30.05C68.0876 30.05 67.601 29.9633 67.1543 29.79C66.7076 29.61 66.3176 29.36 65.9843 29.04C65.6576 28.72 65.4043 28.3467 65.2243 27.92C65.0443 27.4867 64.9543 27.0133 64.9543 26.5C64.9543 25.9867 65.0443 25.5167 65.2243 25.09C65.4043 24.6567 65.661 24.28 65.9943 23.96C66.3276 23.64 66.7143 23.3933 67.1543 23.22C67.601 23.04 68.091 22.95 68.6243 22.95C69.131 22.95 69.601 23.03 70.0343 23.19C70.4676 23.35 70.8376 23.59 71.1443 23.91L70.8243 24.25C70.5176 23.95 70.181 23.7367 69.8143 23.61C69.4543 23.4833 69.061 23.42 68.6343 23.42C68.181 23.42 67.761 23.4967 67.3743 23.65C66.9876 23.8033 66.651 24.02 66.3643 24.3C66.0776 24.58 65.8543 24.9067 65.6943 25.28C65.541 25.6533 65.4643 26.06 65.4643 26.5C65.4643 26.94 65.541 27.3467 65.6943 27.72C65.8543 28.0933 66.0776 28.42 66.3643 28.7C66.651 28.98 66.9876 29.1967 67.3743 29.35C67.761 29.5033 68.181 29.58 68.6343 29.58C69.0476 29.58 69.4376 29.5167 69.8043 29.39C70.1776 29.2633 70.5176 29.0533 70.8243 28.76L71.1143 29.15C70.801 29.45 70.4243 29.6767 69.9843 29.83C69.551 29.9767 69.0943 30.05 68.6143 30.05ZM70.6243 29.1V26.53H71.1143V29.15L70.6243 29.1ZM73.1987 30V24.78H73.6787V26.21L73.6287 26.05C73.7753 25.63 74.022 25.3067 74.3687 25.08C74.7153 24.8533 75.1487 24.74 75.6687 24.74V25.23C75.6487 25.23 75.6287 25.23 75.6087 25.23C75.5887 25.2233 75.5687 25.22 75.5487 25.22C74.9687 25.22 74.5153 25.4033 74.1887 25.77C73.862 26.13 73.6987 26.6333 73.6987 27.28V30H73.1987ZM77.0463 30V24.78H77.5463V30H77.0463ZM77.2963 23.51C77.183 23.51 77.0863 23.47 77.0063 23.39C76.9263 23.31 76.8863 23.2167 76.8863 23.11C76.8863 22.9967 76.9263 22.9 77.0063 22.82C77.0863 22.74 77.183 22.7 77.2963 22.7C77.4163 22.7 77.513 22.74 77.5863 22.82C77.6663 22.8933 77.7063 22.9867 77.7063 23.1C77.7063 23.2133 77.6663 23.31 77.5863 23.39C77.513 23.47 77.4163 23.51 77.2963 23.51ZM82.2738 30.04C81.8138 30.04 81.3971 29.9333 81.0238 29.72C80.6571 29.5067 80.3638 29.2033 80.1438 28.81C79.9304 28.41 79.8238 27.9367 79.8238 27.39C79.8238 26.8433 79.9304 26.3733 80.1438 25.98C80.3638 25.58 80.6571 25.2733 81.0238 25.06C81.3971 24.8467 81.8138 24.74 82.2738 24.74C82.7671 24.74 83.2071 24.8533 83.5938 25.08C83.9871 25.3 84.2938 25.61 84.5138 26.01C84.7404 26.41 84.8538 26.87 84.8538 27.39C84.8538 27.91 84.7404 28.37 84.5138 28.77C84.2938 29.17 83.9871 29.4833 83.5938 29.71C83.2071 29.93 82.7671 30.04 82.2738 30.04ZM79.6538 31.94V24.78H80.1338V26.49L80.0538 27.4L80.1538 28.31V31.94H79.6538ZM82.2438 29.59C82.6438 29.59 83.0038 29.5 83.3238 29.32C83.6438 29.1333 83.8938 28.8733 84.0738 28.54C84.2604 28.2067 84.3538 27.8233 84.3538 27.39C84.3538 26.95 84.2604 26.5667 84.0738 26.24C83.8938 25.9067 83.6438 25.65 83.3238 25.47C83.0038 25.2833 82.6438 25.19 82.2438 25.19C81.8438 25.19 81.4838 25.2833 81.1637 25.47C80.8504 25.65 80.6004 25.9067 80.4138 26.24C80.2338 26.5667 80.1438 26.95 80.1438 27.39C80.1438 27.8233 80.2338 28.2067 80.4138 28.54C80.6004 28.8733 80.8504 29.1333 81.1637 29.32C81.4838 29.5 81.8438 29.59 82.2438 29.59ZM86.1758 30.04C86.0624 30.04 85.9624 30 85.8758 29.92C85.7958 29.8333 85.7558 29.73 85.7558 29.61C85.7558 29.49 85.7958 29.39 85.8758 29.31C85.9624 29.23 86.0624 29.19 86.1758 29.19C86.2891 29.19 86.3858 29.23 86.4658 29.31C86.5524 29.39 86.5958 29.49 86.5958 29.61C86.5958 29.73 86.5524 29.8333 86.4658 29.92C86.3858 30 86.2891 30.04 86.1758 30.04ZM92.8061 30.05C92.2861 30.05 91.7928 29.9633 91.3261 29.79C90.8661 29.61 90.5094 29.38 90.2561 29.1L90.4861 28.72C90.7261 28.9667 91.0528 29.1767 91.4661 29.35C91.8861 29.5167 92.3294 29.6 92.7961 29.6C93.2628 29.6 93.6428 29.54 93.9361 29.42C94.2361 29.2933 94.4561 29.1267 94.5961 28.92C94.7428 28.7133 94.8161 28.4833 94.8161 28.23C94.8161 27.93 94.7361 27.69 94.5761 27.51C94.4161 27.33 94.2061 27.1867 93.9461 27.08C93.6861 26.9733 93.4028 26.8833 93.0961 26.81C92.7894 26.7367 92.4794 26.66 92.1661 26.58C91.8528 26.4933 91.5661 26.3833 91.3061 26.25C91.0461 26.1167 90.8361 25.9367 90.6761 25.71C90.5228 25.4767 90.4461 25.1767 90.4461 24.81C90.4461 24.4767 90.5328 24.17 90.7061 23.89C90.8794 23.61 91.1494 23.3833 91.5161 23.21C91.8828 23.0367 92.3528 22.95 92.9261 22.95C93.3128 22.95 93.6928 23.0067 94.0661 23.12C94.4461 23.2333 94.7694 23.3867 95.0361 23.58L94.8461 23.99C94.5528 23.79 94.2361 23.6433 93.8961 23.55C93.5628 23.45 93.2394 23.4 92.9261 23.4C92.4794 23.4 92.1094 23.4633 91.8161 23.59C91.5228 23.7167 91.3061 23.8867 91.1661 24.1C91.0261 24.3067 90.9561 24.54 90.9561 24.8C90.9561 25.1 91.0328 25.34 91.1861 25.52C91.3461 25.7 91.5561 25.8433 91.8161 25.95C92.0761 26.0567 92.3628 26.1467 92.6761 26.22C92.9894 26.2933 93.2994 26.3733 93.6061 26.46C93.9128 26.54 94.1961 26.6467 94.4561 26.78C94.7161 26.9133 94.9261 27.0933 95.0861 27.32C95.2461 27.5467 95.3261 27.84 95.3261 28.2C95.3261 28.5267 95.2361 28.8333 95.0561 29.12C94.8761 29.4 94.5994 29.6267 94.2261 29.8C93.8594 29.9667 93.3861 30.05 92.8061 30.05ZM99.0198 30.04C98.4932 30.04 98.0265 29.9267 97.6198 29.7C97.2198 29.4733 96.9032 29.16 96.6698 28.76C96.4432 28.36 96.3298 27.9033 96.3298 27.39C96.3298 26.87 96.4365 26.4133 96.6498 26.02C96.8698 25.62 97.1698 25.3067 97.5498 25.08C97.9298 24.8533 98.3565 24.74 98.8298 24.74C99.3032 24.74 99.7265 24.85 100.1 25.07C100.48 25.29 100.777 25.6 100.99 26C101.21 26.3933 101.32 26.85 101.32 27.37C101.32 27.39 101.317 27.4133 101.31 27.44C101.31 27.46 101.31 27.4833 101.31 27.51H96.6998V27.12H101.04L100.84 27.31C100.847 26.9033 100.76 26.54 100.58 26.22C100.407 25.8933 100.17 25.64 99.8698 25.46C99.5698 25.2733 99.2232 25.18 98.8298 25.18C98.4432 25.18 98.0965 25.2733 97.7898 25.46C97.4898 25.64 97.2532 25.8933 97.0798 26.22C96.9065 26.54 96.8198 26.9067 96.8198 27.32V27.41C96.8198 27.8367 96.9132 28.2167 97.0998 28.55C97.2932 28.8767 97.5565 29.1333 97.8898 29.32C98.2232 29.5 98.6032 29.59 99.0298 29.59C99.3632 29.59 99.6732 29.53 99.9598 29.41C100.253 29.29 100.5 29.1067 100.7 28.86L100.99 29.19C100.763 29.47 100.477 29.6833 100.13 29.83C99.7898 29.97 99.4198 30.04 99.0198 30.04ZM104.937 30.04C104.43 30.04 103.977 29.9267 103.577 29.7C103.183 29.4733 102.87 29.16 102.637 28.76C102.41 28.36 102.297 27.9033 102.297 27.39C102.297 26.87 102.41 26.41 102.637 26.01C102.87 25.61 103.183 25.3 103.577 25.08C103.977 24.8533 104.43 24.74 104.937 24.74C105.357 24.74 105.737 24.82 106.077 24.98C106.423 25.14 106.703 25.38 106.917 25.7L106.547 25.97C106.36 25.7033 106.127 25.5067 105.847 25.38C105.567 25.2533 105.263 25.19 104.937 25.19C104.53 25.19 104.163 25.2833 103.837 25.47C103.517 25.65 103.263 25.9067 103.077 26.24C102.897 26.5667 102.807 26.95 102.807 27.39C102.807 27.83 102.897 28.2167 103.077 28.55C103.263 28.8767 103.517 29.1333 103.837 29.32C104.163 29.5 104.53 29.59 104.937 29.59C105.263 29.59 105.567 29.5267 105.847 29.4C106.127 29.2733 106.36 29.0767 106.547 28.81L106.917 29.08C106.703 29.4 106.423 29.64 106.077 29.8C105.737 29.96 105.357 30.04 104.937 30.04ZM110.534 30.04C110.087 30.04 109.7 29.96 109.374 29.8C109.047 29.6333 108.794 29.3867 108.614 29.06C108.44 28.7267 108.354 28.3167 108.354 27.83V24.78H108.854V27.79C108.854 28.3767 109.004 28.8233 109.304 29.13C109.604 29.4367 110.027 29.59 110.574 29.59C110.967 29.59 111.307 29.5067 111.594 29.34C111.88 29.1733 112.1 28.94 112.254 28.64C112.407 28.3333 112.484 27.9733 112.484 27.56V24.78H112.984V30H112.504V28.55L112.574 28.72C112.42 29.1267 112.164 29.45 111.804 29.69C111.45 29.9233 111.027 30.04 110.534 30.04ZM115.103 30V24.78H115.583V26.21L115.533 26.05C115.68 25.63 115.926 25.3067 116.273 25.08C116.62 24.8533 117.053 24.74 117.573 24.74V25.23C117.553 25.23 117.533 25.23 117.513 25.23C117.493 25.2233 117.473 25.22 117.453 25.22C116.873 25.22 116.42 25.4033 116.093 25.77C115.766 26.13 115.603 26.6333 115.603 27.28V30H115.103ZM121.022 30.04C120.495 30.04 120.028 29.9267 119.622 29.7C119.222 29.4733 118.905 29.16 118.672 28.76C118.445 28.36 118.332 27.9033 118.332 27.39C118.332 26.87 118.438 26.4133 118.652 26.02C118.872 25.62 119.172 25.3067 119.552 25.08C119.932 24.8533 120.358 24.74 120.832 24.74C121.305 24.74 121.728 24.85 122.102 25.07C122.482 25.29 122.778 25.6 122.992 26C123.212 26.3933 123.322 26.85 123.322 27.37C123.322 27.39 123.318 27.4133 123.312 27.44C123.312 27.46 123.312 27.4833 123.312 27.51H118.702V27.12H123.042L122.842 27.31C122.848 26.9033 122.762 26.54 122.582 26.22C122.408 25.8933 122.172 25.64 121.872 25.46C121.572 25.2733 121.225 25.18 120.832 25.18C120.445 25.18 120.098 25.2733 119.792 25.46C119.492 25.64 119.255 25.8933 119.082 26.22C118.908 26.54 118.822 26.9067 118.822 27.32V27.41C118.822 27.8367 118.915 28.2167 119.102 28.55C119.295 28.8767 119.558 29.1333 119.892 29.32C120.225 29.5 120.605 29.59 121.032 29.59C121.365 29.59 121.675 29.53 121.962 29.41C122.255 29.29 122.502 29.1067 122.702 28.86L122.992 29.19C122.765 29.47 122.478 29.6833 122.132 29.83C121.792 29.97 121.422 30.04 121.022 30.04ZM129.437 30.05C128.917 30.05 128.424 29.9633 127.957 29.79C127.497 29.61 127.14 29.38 126.887 29.1L127.117 28.72C127.357 28.9667 127.684 29.1767 128.097 29.35C128.517 29.5167 128.96 29.6 129.427 29.6C129.894 29.6 130.274 29.54 130.567 29.42C130.867 29.2933 131.087 29.1267 131.227 28.92C131.374 28.7133 131.447 28.4833 131.447 28.23C131.447 27.93 131.367 27.69 131.207 27.51C131.047 27.33 130.837 27.1867 130.577 27.08C130.317 26.9733 130.034 26.8833 129.727 26.81C129.42 26.7367 129.11 26.66 128.797 26.58C128.484 26.4933 128.197 26.3833 127.937 26.25C127.677 26.1167 127.467 25.9367 127.307 25.71C127.154 25.4767 127.077 25.1767 127.077 24.81C127.077 24.4767 127.164 24.17 127.337 23.89C127.51 23.61 127.78 23.3833 128.147 23.21C128.514 23.0367 128.984 22.95 129.557 22.95C129.944 22.95 130.324 23.0067 130.697 23.12C131.077 23.2333 131.4 23.3867 131.667 23.58L131.477 23.99C131.184 23.79 130.867 23.6433 130.527 23.55C130.194 23.45 129.87 23.4 129.557 23.4C129.11 23.4 128.74 23.4633 128.447 23.59C128.154 23.7167 127.937 23.8867 127.797 24.1C127.657 24.3067 127.587 24.54 127.587 24.8C127.587 25.1 127.664 25.34 127.817 25.52C127.977 25.7 128.187 25.8433 128.447 25.95C128.707 26.0567 128.994 26.1467 129.307 26.22C129.62 26.2933 129.93 26.3733 130.237 26.46C130.544 26.54 130.827 26.6467 131.087 26.78C131.347 26.9133 131.557 27.0933 131.717 27.32C131.877 27.5467 131.957 27.84 131.957 28.2C131.957 28.5267 131.867 28.8333 131.687 29.12C131.507 29.4 131.23 29.6267 130.857 29.8C130.49 29.9667 130.017 30.05 129.437 30.05ZM135.651 30.04C135.124 30.04 134.657 29.9267 134.251 29.7C133.851 29.4733 133.534 29.16 133.301 28.76C133.074 28.36 132.961 27.9033 132.961 27.39C132.961 26.87 133.067 26.4133 133.281 26.02C133.501 25.62 133.801 25.3067 134.181 25.08C134.561 24.8533 134.987 24.74 135.461 24.74C135.934 24.74 136.357 24.85 136.731 25.07C137.111 25.29 137.407 25.6 137.621 26C137.841 26.3933 137.951 26.85 137.951 27.37C137.951 27.39 137.947 27.4133 137.941 27.44C137.941 27.46 137.941 27.4833 137.941 27.51H133.331V27.12H137.671L137.471 27.31C137.477 26.9033 137.391 26.54 137.211 26.22C137.037 25.8933 136.801 25.64 136.501 25.46C136.201 25.2733 135.854 25.18 135.461 25.18C135.074 25.18 134.727 25.2733 134.421 25.46C134.121 25.64 133.884 25.8933 133.711 26.22C133.537 26.54 133.451 26.9067 133.451 27.32V27.41C133.451 27.8367 133.544 28.2167 133.731 28.55C133.924 28.8767 134.187 29.1333 134.521 29.32C134.854 29.5 135.234 29.59 135.661 29.59C135.994 29.59 136.304 29.53 136.591 29.41C136.884 29.29 137.131 29.1067 137.331 28.86L137.621 29.19C137.394 29.47 137.107 29.6833 136.761 29.83C136.421 29.97 136.051 30.04 135.651 30.04ZM142.641 30V28.81L142.621 28.63V26.67C142.621 26.1833 142.488 25.8133 142.221 25.56C141.961 25.3067 141.578 25.18 141.071 25.18C140.711 25.18 140.374 25.2433 140.061 25.37C139.754 25.49 139.491 25.6467 139.271 25.84L139.021 25.48C139.281 25.2467 139.594 25.0667 139.961 24.94C140.328 24.8067 140.711 24.74 141.111 24.74C141.758 24.74 142.254 24.9033 142.601 25.23C142.948 25.5567 143.121 26.0433 143.121 26.69V30H142.641ZM140.761 30.04C140.374 30.04 140.038 29.98 139.751 29.86C139.471 29.7333 139.254 29.5567 139.101 29.33C138.954 29.1033 138.881 28.8433 138.881 28.55C138.881 28.2833 138.941 28.0433 139.061 27.83C139.188 27.61 139.394 27.4333 139.681 27.3C139.968 27.16 140.351 27.09 140.831 27.09H142.751V27.48H140.841C140.301 27.48 139.921 27.58 139.701 27.78C139.488 27.98 139.381 28.23 139.381 28.53C139.381 28.8633 139.508 29.13 139.761 29.33C140.014 29.53 140.371 29.63 140.831 29.63C141.271 29.63 141.641 29.53 141.941 29.33C142.248 29.13 142.474 28.84 142.621 28.46L142.761 28.8C142.621 29.18 142.381 29.4833 142.041 29.71C141.708 29.93 141.281 30.04 140.761 30.04ZM145.181 30V22.58H145.681V30H145.181ZM147.729 30.04C147.615 30.04 147.515 30 147.429 29.92C147.349 29.8333 147.309 29.73 147.309 29.61C147.309 29.49 147.349 29.39 147.429 29.31C147.515 29.23 147.615 29.19 147.729 29.19C147.842 29.19 147.939 29.23 148.019 29.31C148.105 29.39 148.149 29.49 148.149 29.61C148.149 29.73 148.105 29.8333 148.019 29.92C147.939 30 147.842 30.04 147.729 30.04ZM149.68 31.94H149.21C149.597 31.2733 149.88 30.5533 150.06 29.78C150.24 29.0067 150.33 28.1667 150.33 27.26C150.33 26.3533 150.24 25.5133 150.06 24.74C149.88 23.9667 149.597 23.2467 149.21 22.58H149.68C150.047 23.1667 150.33 23.8633 150.53 24.67C150.73 25.47 150.83 26.3333 150.83 27.26C150.83 28.1867 150.73 29.0467 150.53 29.84C150.33 30.6333 150.047 31.3333 149.68 31.94Z" fill="black"/>
</svg>
