<svg width="392" height="32" viewBox="0 0 392 32" fill="none" xmlns="http://www.w3.org/2000/svg">
<path d="M26.316 14V4.2H30.348C31.216 4.2 31.958 4.34 32.574 4.62C33.1993 4.9 33.68 5.30133 34.016 5.824C34.352 6.34667 34.52 6.96733 34.52 7.686C34.52 8.40467 34.352 9.02533 34.016 9.548C33.68 10.0707 33.1993 10.472 32.574 10.752C31.958 11.032 31.216 11.172 30.348 11.172H27.324L28.136 10.318V14H26.316ZM28.136 10.514L27.324 9.632H30.264C31.0667 9.632 31.6687 9.464 32.07 9.128C32.4807 8.78267 32.686 8.302 32.686 7.686C32.686 7.06067 32.4807 6.58 32.07 6.244C31.6687 5.908 31.0667 5.74 30.264 5.74H27.324L28.136 4.844V10.514ZM39.1398 14L34.8558 4.2H36.8298L40.6518 13.062H39.5178L43.3818 4.2H45.2018L40.9318 14H39.1398ZM50.6762 14.14C49.9296 14.14 49.2342 14.0187 48.5902 13.776C47.9556 13.524 47.4002 13.174 46.9242 12.726C46.4576 12.2687 46.0936 11.732 45.8322 11.116C45.5709 10.5 45.4402 9.828 45.4402 9.1C45.4402 8.372 45.5709 7.7 45.8322 7.084C46.0936 6.468 46.4622 5.936 46.9382 5.488C47.4142 5.03067 47.9696 4.68067 48.6042 4.438C49.2389 4.186 49.9342 4.06 50.6902 4.06C51.4929 4.06 52.2256 4.2 52.8882 4.48C53.5509 4.75067 54.1109 5.15667 54.5682 5.698L53.3922 6.804C53.0376 6.42133 52.6409 6.13667 52.2022 5.95C51.7636 5.754 51.2876 5.656 50.7742 5.656C50.2609 5.656 49.7896 5.74 49.3602 5.908C48.9402 6.076 48.5716 6.314 48.2542 6.622C47.9462 6.93 47.7036 7.294 47.5262 7.714C47.3582 8.134 47.2742 8.596 47.2742 9.1C47.2742 9.604 47.3582 10.066 47.5262 10.486C47.7036 10.906 47.9462 11.27 48.2542 11.578C48.5716 11.886 48.9402 12.124 49.3602 12.292C49.7896 12.46 50.2609 12.544 50.7742 12.544C51.2876 12.544 51.7636 12.4507 52.2022 12.264C52.6409 12.068 53.0376 11.774 53.3922 11.382L54.5682 12.502C54.1109 13.034 53.5509 13.44 52.8882 13.72C52.2256 14 51.4882 14.14 50.6762 14.14ZM64.7172 14.14C63.9706 14.14 63.2752 14.0187 62.6312 13.776C61.9966 13.524 61.4412 13.174 60.9652 12.726C60.4986 12.2687 60.1346 11.732 59.8732 11.116C59.6119 10.5 59.4812 9.828 59.4812 9.1C59.4812 8.372 59.6119 7.7 59.8732 7.084C60.1346 6.468 60.5032 5.936 60.9792 5.488C61.4552 5.03067 62.0106 4.68067 62.6452 4.438C63.2799 4.186 63.9752 4.06 64.7312 4.06C65.5339 4.06 66.2666 4.2 66.9292 4.48C67.5919 4.75067 68.1519 5.15667 68.6092 5.698L67.4332 6.804C67.0786 6.42133 66.6819 6.13667 66.2432 5.95C65.8046 5.754 65.3286 5.656 64.8152 5.656C64.3019 5.656 63.8306 5.74 63.4012 5.908C62.9812 6.076 62.6126 6.314 62.2952 6.622C61.9872 6.93 61.7446 7.294 61.5672 7.714C61.3992 8.134 61.3152 8.596 61.3152 9.1C61.3152 9.604 61.3992 10.066 61.5672 10.486C61.7446 10.906 61.9872 11.27 62.2952 11.578C62.6126 11.886 62.9812 12.124 63.4012 12.292C63.8306 12.46 64.3019 12.544 64.8152 12.544C65.3286 12.544 65.8046 12.4507 66.2432 12.264C66.6819 12.068 67.0786 11.774 67.4332 11.382L68.6092 12.502C68.1519 13.034 67.5919 13.44 66.9292 13.72C66.2666 14 65.5292 14.14 64.7172 14.14ZM70.1851 14V3.612H71.9351V14H70.1851ZM74.232 14V6.524H75.982V14H74.232ZM75.114 5.292C74.7873 5.292 74.5167 5.18933 74.302 4.984C74.0967 4.77867 73.994 4.53133 73.994 4.242C73.994 3.94333 74.0967 3.696 74.302 3.5C74.5167 3.29467 74.7873 3.192 75.114 3.192C75.4407 3.192 75.7067 3.29 75.912 3.486C76.1267 3.67267 76.234 3.91067 76.234 4.2C76.234 4.508 76.1313 4.76933 75.926 4.984C75.7207 5.18933 75.45 5.292 75.114 5.292ZM82.5209 6.44C83.1182 6.44 83.6502 6.55667 84.1169 6.79C84.5929 7.02333 84.9662 7.38267 85.2369 7.868C85.5075 8.344 85.6429 8.96 85.6429 9.716V14H83.8929V9.94C83.8929 9.27733 83.7342 8.78267 83.4169 8.456C83.1089 8.12933 82.6749 7.966 82.1149 7.966C81.7042 7.966 81.3402 8.05 81.0229 8.218C80.7055 8.386 80.4582 8.638 80.2809 8.974C80.1129 9.30067 80.0289 9.716 80.0289 10.22V14H78.2789V6.524H79.9449V8.54L79.6509 7.924C79.9122 7.448 80.2902 7.084 80.7849 6.832C81.2889 6.57067 81.8675 6.44 82.5209 6.44ZM91.2645 16.814C90.5738 16.814 89.8972 16.7207 89.2345 16.534C88.5812 16.3567 88.0445 16.0953 87.6245 15.75L88.4085 14.434C88.7352 14.7047 89.1458 14.9193 89.6405 15.078C90.1445 15.246 90.6532 15.33 91.1665 15.33C91.9878 15.33 92.5898 15.1387 92.9725 14.756C93.3552 14.3827 93.5465 13.818 93.5465 13.062V11.732L93.6865 10.038L93.6305 8.344V6.524H95.2965V12.866C95.2965 14.2193 94.9512 15.2133 94.2605 15.848C93.5698 16.492 92.5712 16.814 91.2645 16.814ZM91.0405 13.664C90.3312 13.664 89.6872 13.5147 89.1085 13.216C88.5392 12.908 88.0865 12.4833 87.7505 11.942C87.4238 11.4007 87.2605 10.766 87.2605 10.038C87.2605 9.31933 87.4238 8.68933 87.7505 8.148C88.0865 7.60667 88.5392 7.18667 89.1085 6.888C89.6872 6.58933 90.3312 6.44 91.0405 6.44C91.6752 6.44 92.2445 6.566 92.7485 6.818C93.2525 7.07 93.6538 7.462 93.9525 7.994C94.2605 8.526 94.4145 9.20733 94.4145 10.038C94.4145 10.8687 94.2605 11.5547 93.9525 12.096C93.6538 12.628 93.2525 13.0247 92.7485 13.286C92.2445 13.538 91.6752 13.664 91.0405 13.664ZM91.3065 12.18C91.7452 12.18 92.1372 12.0913 92.4825 11.914C92.8278 11.7273 93.0938 11.4753 93.2805 11.158C93.4765 10.8313 93.5745 10.458 93.5745 10.038C93.5745 9.618 93.4765 9.24933 93.2805 8.932C93.0938 8.60533 92.8278 8.358 92.4825 8.19C92.1372 8.01267 91.7452 7.924 91.3065 7.924C90.8678 7.924 90.4712 8.01267 90.1165 8.19C89.7712 8.358 89.5005 8.60533 89.3045 8.932C89.1178 9.24933 89.0245 9.618 89.0245 10.038C89.0245 10.458 89.1178 10.8313 89.3045 11.158C89.5005 11.4753 89.7712 11.7273 90.1165 11.914C90.4712 12.0913 90.8678 12.18 91.3065 12.18ZM103.3 8.708H108.186V10.248H103.3V8.708ZM103.454 14H101.634V4.2H108.788V5.726H103.454V14ZM110.38 14V6.524H112.13V14H110.38ZM111.262 5.292C110.936 5.292 110.665 5.18933 110.45 4.984C110.245 4.77867 110.142 4.53133 110.142 4.242C110.142 3.94333 110.245 3.696 110.45 3.5C110.665 3.29467 110.936 3.192 111.262 3.192C111.589 3.192 111.855 3.29 112.06 3.486C112.275 3.67267 112.382 3.91067 112.382 4.2C112.382 4.508 112.28 4.76933 112.074 4.984C111.869 5.18933 111.598 5.292 111.262 5.292ZM114.427 14V3.612H116.177V14H114.427ZM127.91 6.44C128.508 6.44 129.035 6.55667 129.492 6.79C129.959 7.02333 130.323 7.38267 130.584 7.868C130.846 8.344 130.976 8.96 130.976 9.716V14H129.226V9.94C129.226 9.27733 129.082 8.78267 128.792 8.456C128.503 8.12933 128.088 7.966 127.546 7.966C127.164 7.966 126.823 8.05 126.524 8.218C126.235 8.386 126.006 8.63333 125.838 8.96C125.68 9.28667 125.6 9.702 125.6 10.206V14H123.85V9.94C123.85 9.27733 123.706 8.78267 123.416 8.456C123.127 8.12933 122.712 7.966 122.17 7.966C121.788 7.966 121.447 8.05 121.148 8.218C120.859 8.386 120.63 8.63333 120.462 8.96C120.304 9.28667 120.224 9.702 120.224 10.206V14H118.474V6.524H120.14V8.512L119.846 7.924C120.098 7.43867 120.462 7.07 120.938 6.818C121.424 6.566 121.974 6.44 122.59 6.44C123.29 6.44 123.897 6.61267 124.41 6.958C124.933 7.30333 125.278 7.826 125.446 8.526L124.76 8.288C125.003 7.728 125.404 7.28 125.964 6.944C126.524 6.608 127.173 6.44 127.91 6.44ZM139.56 14L136.312 4.2H138.202L141.1 13.062H140.162L143.172 4.2H144.852L147.778 13.062H146.868L149.836 4.2H151.572L148.324 14H146.392L143.718 6.006H144.222L141.506 14H139.56ZM152.599 14V6.524H154.265V8.582L154.069 7.98C154.293 7.476 154.643 7.09333 155.119 6.832C155.605 6.57067 156.207 6.44 156.925 6.44V8.106C156.851 8.08733 156.781 8.078 156.715 8.078C156.65 8.06867 156.585 8.064 156.519 8.064C155.857 8.064 155.329 8.26 154.937 8.652C154.545 9.03467 154.349 9.60867 154.349 10.374V14H152.599ZM162.483 14V12.488L162.385 12.166V9.52C162.385 9.00667 162.231 8.61 161.923 8.33C161.615 8.04067 161.148 7.896 160.523 7.896C160.103 7.896 159.687 7.96133 159.277 8.092C158.875 8.22267 158.535 8.40467 158.255 8.638L157.569 7.364C157.97 7.056 158.446 6.82733 158.997 6.678C159.557 6.51933 160.135 6.44 160.733 6.44C161.815 6.44 162.651 6.70133 163.239 7.224C163.836 7.73733 164.135 8.53533 164.135 9.618V14H162.483ZM160.131 14.098C159.571 14.098 159.081 14.0047 158.661 13.818C158.241 13.622 157.914 13.356 157.681 13.02C157.457 12.6747 157.345 12.2873 157.345 11.858C157.345 11.438 157.443 11.06 157.639 10.724C157.844 10.388 158.175 10.122 158.633 9.926C159.09 9.73 159.697 9.632 160.453 9.632H162.623V10.794H160.579C159.981 10.794 159.58 10.892 159.375 11.088C159.169 11.2747 159.067 11.508 159.067 11.788C159.067 12.1053 159.193 12.3573 159.445 12.544C159.697 12.7307 160.047 12.824 160.495 12.824C160.924 12.824 161.307 12.726 161.643 12.53C161.988 12.334 162.235 12.0447 162.385 11.662L162.679 12.712C162.511 13.1507 162.207 13.4913 161.769 13.734C161.339 13.9767 160.793 14.098 160.131 14.098ZM170.524 14.098C169.918 14.098 169.362 13.958 168.858 13.678C168.364 13.398 167.967 12.978 167.668 12.418C167.379 11.8487 167.234 11.13 167.234 10.262C167.234 9.38467 167.374 8.666 167.654 8.106C167.944 7.546 168.336 7.13067 168.83 6.86C169.325 6.58 169.89 6.44 170.524 6.44C171.262 6.44 171.91 6.59867 172.47 6.916C173.04 7.23333 173.488 7.67667 173.814 8.246C174.15 8.81533 174.318 9.48733 174.318 10.262C174.318 11.0367 174.15 11.7133 173.814 12.292C173.488 12.8613 173.04 13.3047 172.47 13.622C171.91 13.9393 171.262 14.098 170.524 14.098ZM166.38 16.716V6.524H168.046V8.288L167.99 10.276L168.13 12.264V16.716H166.38ZM170.328 12.6C170.748 12.6 171.122 12.5067 171.448 12.32C171.784 12.1333 172.05 11.8627 172.246 11.508C172.442 11.1533 172.54 10.738 172.54 10.262C172.54 9.77667 172.442 9.36133 172.246 9.016C172.05 8.66133 171.784 8.39067 171.448 8.204C171.122 8.01733 170.748 7.924 170.328 7.924C169.908 7.924 169.53 8.01733 169.194 8.204C168.858 8.39067 168.592 8.66133 168.396 9.016C168.2 9.36133 168.102 9.77667 168.102 10.262C168.102 10.738 168.2 11.1533 168.396 11.508C168.592 11.8627 168.858 12.1333 169.194 12.32C169.53 12.5067 169.908 12.6 170.328 12.6Z" fill="black"/>
<path d="M2.184 14V4.9L2.982 5.726H0.112V4.2H4.004V14H2.184ZM10.736 14.14C9.96136 14.14 9.26136 13.944 8.63603 13.552C8.02003 13.16 7.5347 12.5907 7.18003 11.844C6.82536 11.088 6.64803 10.1733 6.64803 9.1C6.64803 8.02667 6.82536 7.11667 7.18003 6.37C7.5347 5.614 8.02003 5.04 8.63603 4.648C9.26136 4.256 9.96136 4.06 10.736 4.06C11.52 4.06 12.22 4.256 12.836 4.648C13.452 5.04 13.9374 5.614 14.292 6.37C14.656 7.11667 14.838 8.02667 14.838 9.1C14.838 10.1733 14.656 11.088 14.292 11.844C13.9374 12.5907 13.452 13.16 12.836 13.552C12.22 13.944 11.52 14.14 10.736 14.14ZM10.736 12.558C11.1934 12.558 11.59 12.4367 11.926 12.194C12.262 11.942 12.5234 11.5593 12.71 11.046C12.906 10.5327 13.004 9.884 13.004 9.1C13.004 8.30667 12.906 7.658 12.71 7.154C12.5234 6.64067 12.262 6.26267 11.926 6.02C11.59 5.768 11.1934 5.642 10.736 5.642C10.2974 5.642 9.90536 5.768 9.56003 6.02C9.22403 6.26267 8.95803 6.64067 8.76203 7.154C8.57536 7.658 8.48203 8.30667 8.48203 9.1C8.48203 9.884 8.57536 10.5327 8.76203 11.046C8.95803 11.5593 9.22403 11.942 9.56003 12.194C9.90536 12.4367 10.2974 12.558 10.736 12.558ZM17.6959 14.098C17.3786 14.098 17.1079 13.9907 16.8839 13.776C16.6599 13.552 16.5479 13.272 16.5479 12.936C16.5479 12.5813 16.6599 12.3013 16.8839 12.096C17.1079 11.8813 17.3786 11.774 17.6959 11.774C18.0132 11.774 18.2839 11.8813 18.5079 12.096C18.7319 12.3013 18.8439 12.5813 18.8439 12.936C18.8439 13.272 18.7319 13.552 18.5079 13.776C18.2839 13.9907 18.0132 14.098 17.6959 14.098Z" fill="black"/>
<path d="M372.712 17.17C371.771 17.17 370.921 16.932 370.162 16.456C369.414 15.98 368.825 15.2887 368.394 14.382C367.963 13.464 367.748 12.3533 367.748 11.05C367.748 9.74667 367.963 8.64167 368.394 7.735C368.825 6.817 369.414 6.12 370.162 5.644C370.921 5.168 371.771 4.93 372.712 4.93C373.664 4.93 374.514 5.168 375.262 5.644C376.01 6.12 376.599 6.817 377.03 7.735C377.472 8.64167 377.693 9.74667 377.693 11.05C377.693 12.3533 377.472 13.464 377.03 14.382C376.599 15.2887 376.01 15.98 375.262 16.456C374.514 16.932 373.664 17.17 372.712 17.17ZM372.712 15.249C373.267 15.249 373.749 15.1017 374.157 14.807C374.565 14.501 374.882 14.0363 375.109 13.413C375.347 12.7897 375.466 12.002 375.466 11.05C375.466 10.0867 375.347 9.299 375.109 8.687C374.882 8.06367 374.565 7.60467 374.157 7.31C373.749 7.004 373.267 6.851 372.712 6.851C372.179 6.851 371.703 7.004 371.284 7.31C370.876 7.60467 370.553 8.06367 370.315 8.687C370.088 9.299 369.975 10.0867 369.975 11.05C369.975 12.002 370.088 12.7897 370.315 13.413C370.553 14.0363 370.876 14.501 371.284 14.807C371.703 15.1017 372.179 15.249 372.712 15.249ZM380.886 14.297V12.767L386.751 5.1H389.114L383.334 12.767L382.229 12.427H391.664V14.297H380.886ZM387.414 17V14.297L387.482 12.427V10.03H389.556V17H387.414Z" fill="#16713D"/>
<path d="M27.26 31.94C26.8933 31.3333 26.61 30.6333 26.41 29.84C26.2167 29.0467 26.12 28.1867 26.12 27.26C26.12 26.3333 26.2167 25.47 26.41 24.67C26.61 23.8633 26.8933 23.1667 27.26 22.58H27.74C27.3467 23.2467 27.06 23.9667 26.88 24.74C26.7 25.5133 26.61 26.3533 26.61 27.26C26.61 28.1667 26.7 29.0067 26.88 29.78C27.06 30.5533 27.3467 31.2733 27.74 31.94H27.26ZM29.8829 26.45H33.6729V26.91H29.8829V26.45ZM29.9429 30H29.4329V23H34.1129V23.46H29.9429V30ZM37.4359 30.04C36.9359 30.04 36.4893 29.9267 36.0959 29.7C35.7093 29.4733 35.3993 29.16 35.1659 28.76C34.9393 28.36 34.8259 27.9033 34.8259 27.39C34.8259 26.87 34.9393 26.4133 35.1659 26.02C35.3993 25.62 35.7093 25.3067 36.0959 25.08C36.4893 24.8533 36.9359 24.74 37.4359 24.74C37.9359 24.74 38.3826 24.8533 38.7759 25.08C39.1693 25.3067 39.4793 25.62 39.7059 26.02C39.9326 26.4133 40.0459 26.87 40.0459 27.39C40.0459 27.9033 39.9326 28.36 39.7059 28.76C39.4793 29.16 39.1693 29.4733 38.7759 29.7C38.3826 29.9267 37.9359 30.04 37.4359 30.04ZM37.4359 29.59C37.8359 29.59 38.1959 29.5 38.5159 29.32C38.8359 29.1333 39.0859 28.8733 39.2659 28.54C39.4459 28.2067 39.5359 27.8233 39.5359 27.39C39.5359 26.95 39.4459 26.5667 39.2659 26.24C39.0859 25.9067 38.8359 25.65 38.5159 25.47C38.1959 25.2833 37.8359 25.19 37.4359 25.19C37.0359 25.19 36.6759 25.2833 36.3559 25.47C36.0426 25.65 35.7926 25.9067 35.6059 26.24C35.4259 26.5667 35.3359 26.95 35.3359 27.39C35.3359 27.8233 35.4259 28.2067 35.6059 28.54C35.7926 28.8733 36.0426 29.1333 36.3559 29.32C36.6759 29.5 37.0359 29.59 37.4359 29.59ZM43.6371 30.04C43.1371 30.04 42.6904 29.9267 42.2971 29.7C41.9104 29.4733 41.6004 29.16 41.3671 28.76C41.1404 28.36 41.0271 27.9033 41.0271 27.39C41.0271 26.87 41.1404 26.4133 41.3671 26.02C41.6004 25.62 41.9104 25.3067 42.2971 25.08C42.6904 24.8533 43.1371 24.74 43.6371 24.74C44.1371 24.74 44.5838 24.8533 44.9771 25.08C45.3704 25.3067 45.6804 25.62 45.9071 26.02C46.1338 26.4133 46.2471 26.87 46.2471 27.39C46.2471 27.9033 46.1338 28.36 45.9071 28.76C45.6804 29.16 45.3704 29.4733 44.9771 29.7C44.5838 29.9267 44.1371 30.04 43.6371 30.04ZM43.6371 29.59C44.0371 29.59 44.3971 29.5 44.7171 29.32C45.0371 29.1333 45.2871 28.8733 45.4671 28.54C45.6471 28.2067 45.7371 27.8233 45.7371 27.39C45.7371 26.95 45.6471 26.5667 45.4671 26.24C45.2871 25.9067 45.0371 25.65 44.7171 25.47C44.3971 25.2833 44.0371 25.19 43.6371 25.19C43.2371 25.19 42.8771 25.2833 42.5571 25.47C42.2438 25.65 41.9938 25.9067 41.8071 26.24C41.6271 26.5667 41.5371 26.95 41.5371 27.39C41.5371 27.8233 41.6271 28.2067 41.8071 28.54C41.9938 28.8733 42.2438 29.1333 42.5571 29.32C42.8771 29.5 43.2371 29.59 43.6371 29.59ZM49.8083 30.04C49.3216 30.04 48.8816 29.93 48.4883 29.71C48.1016 29.4833 47.7949 29.17 47.5683 28.77C47.3416 28.37 47.2283 27.91 47.2283 27.39C47.2283 26.8633 47.3416 26.4033 47.5683 26.01C47.7949 25.61 48.1016 25.3 48.4883 25.08C48.8816 24.8533 49.3216 24.74 49.8083 24.74C50.2683 24.74 50.6816 24.8467 51.0483 25.06C51.4216 25.2733 51.7149 25.5767 51.9283 25.97C52.1483 26.3633 52.2583 26.8367 52.2583 27.39C52.2583 27.93 52.1516 28.4 51.9383 28.8C51.7249 29.2 51.4316 29.5067 51.0583 29.72C50.6916 29.9333 50.2749 30.04 49.8083 30.04ZM49.8383 29.59C50.2383 29.59 50.5949 29.5 50.9083 29.32C51.2283 29.1333 51.4783 28.8733 51.6583 28.54C51.8449 28.2067 51.9383 27.8233 51.9383 27.39C51.9383 26.95 51.8449 26.5667 51.6583 26.24C51.4783 25.9067 51.2283 25.65 50.9083 25.47C50.5949 25.2833 50.2383 25.19 49.8383 25.19C49.4383 25.19 49.0783 25.2833 48.7583 25.47C48.4449 25.65 48.1949 25.9067 48.0083 26.24C47.8283 26.5667 47.7383 26.95 47.7383 27.39C47.7383 27.8233 47.8283 28.2067 48.0083 28.54C48.1949 28.8733 48.4449 29.1333 48.7583 29.32C49.0783 29.5 49.4383 29.59 49.8383 29.59ZM51.9483 30V28.29L52.0383 27.38L51.9383 26.47V22.58H52.4383V30H51.9483ZM54.1063 27.54V27.09H56.6763V27.54H54.1063ZM61.5928 30.05C61.0661 30.05 60.5795 29.9633 60.1328 29.79C59.6861 29.61 59.2961 29.36 58.9628 29.04C58.6361 28.72 58.3828 28.3467 58.2028 27.92C58.0228 27.4867 57.9328 27.0133 57.9328 26.5C57.9328 25.9867 58.0228 25.5167 58.2028 25.09C58.3828 24.6567 58.6395 24.28 58.9728 23.96C59.3061 23.64 59.6928 23.3933 60.1328 23.22C60.5795 23.04 61.0695 22.95 61.6028 22.95C62.1095 22.95 62.5795 23.03 63.0128 23.19C63.4461 23.35 63.8161 23.59 64.1228 23.91L63.8028 24.25C63.4961 23.95 63.1595 23.7367 62.7928 23.61C62.4328 23.4833 62.0395 23.42 61.6128 23.42C61.1595 23.42 60.7395 23.4967 60.3528 23.65C59.9661 23.8033 59.6295 24.02 59.3428 24.3C59.0561 24.58 58.8328 24.9067 58.6728 25.28C58.5195 25.6533 58.4428 26.06 58.4428 26.5C58.4428 26.94 58.5195 27.3467 58.6728 27.72C58.8328 28.0933 59.0561 28.42 59.3428 28.7C59.6295 28.98 59.9661 29.1967 60.3528 29.35C60.7395 29.5033 61.1595 29.58 61.6128 29.58C62.0261 29.58 62.4161 29.5167 62.7828 29.39C63.1561 29.2633 63.4961 29.0533 63.8028 28.76L64.0928 29.15C63.7795 29.45 63.4028 29.6767 62.9628 29.83C62.5295 29.9767 62.0728 30.05 61.5928 30.05ZM63.6028 29.1V26.53H64.0928V29.15L63.6028 29.1ZM66.1772 30V24.78H66.6572V26.21L66.6072 26.05C66.7539 25.63 67.0005 25.3067 67.3472 25.08C67.6939 24.8533 68.1272 24.74 68.6472 24.74V25.23C68.6272 25.23 68.6072 25.23 68.5872 25.23C68.5672 25.2233 68.5472 25.22 68.5272 25.22C67.9472 25.22 67.4939 25.4033 67.1672 25.77C66.8405 26.13 66.6772 26.6333 66.6772 27.28V30H66.1772ZM72.9242 30V28.81L72.9042 28.63V26.67C72.9042 26.1833 72.7709 25.8133 72.5042 25.56C72.2442 25.3067 71.8609 25.18 71.3542 25.18C70.9942 25.18 70.6576 25.2433 70.3442 25.37C70.0376 25.49 69.7742 25.6467 69.5542 25.84L69.3042 25.48C69.5642 25.2467 69.8776 25.0667 70.2442 24.94C70.6109 24.8067 70.9942 24.74 71.3942 24.74C72.0409 24.74 72.5376 24.9033 72.8842 25.23C73.2309 25.5567 73.4042 26.0433 73.4042 26.69V30H72.9242ZM71.0442 30.04C70.6576 30.04 70.3209 29.98 70.0342 29.86C69.7542 29.7333 69.5376 29.5567 69.3842 29.33C69.2376 29.1033 69.1642 28.8433 69.1642 28.55C69.1642 28.2833 69.2242 28.0433 69.3442 27.83C69.4709 27.61 69.6776 27.4333 69.9642 27.3C70.2509 27.16 70.6342 27.09 71.1142 27.09H73.0342V27.48H71.1242C70.5842 27.48 70.2042 27.58 69.9842 27.78C69.7709 27.98 69.6642 28.23 69.6642 28.53C69.6642 28.8633 69.7909 29.13 70.0442 29.33C70.2976 29.53 70.6542 29.63 71.1142 29.63C71.5542 29.63 71.9242 29.53 72.2242 29.33C72.5309 29.13 72.7576 28.84 72.9042 28.46L73.0442 28.8C72.9042 29.18 72.6642 29.4833 72.3242 29.71C71.9909 29.93 71.5642 30.04 71.0442 30.04ZM77.4743 30.04C76.9876 30.04 76.5476 29.93 76.1543 29.71C75.7676 29.4833 75.461 29.17 75.2343 28.77C75.0076 28.37 74.8943 27.91 74.8943 27.39C74.8943 26.8633 75.0076 26.4033 75.2343 26.01C75.461 25.61 75.7676 25.3 76.1543 25.08C76.5476 24.8533 76.9876 24.74 77.4743 24.74C77.9343 24.74 78.3476 24.8467 78.7143 25.06C79.0876 25.2733 79.381 25.5767 79.5943 25.97C79.8143 26.3633 79.9243 26.8367 79.9243 27.39C79.9243 27.93 79.8176 28.4 79.6043 28.8C79.391 29.2 79.0976 29.5067 78.7243 29.72C78.3576 29.9333 77.941 30.04 77.4743 30.04ZM77.5043 29.59C77.9043 29.59 78.261 29.5 78.5743 29.32C78.8943 29.1333 79.1443 28.8733 79.3243 28.54C79.511 28.2067 79.6043 27.8233 79.6043 27.39C79.6043 26.95 79.511 26.5667 79.3243 26.24C79.1443 25.9067 78.8943 25.65 78.5743 25.47C78.261 25.2833 77.9043 25.19 77.5043 25.19C77.1043 25.19 76.7443 25.2833 76.4243 25.47C76.111 25.65 75.861 25.9067 75.6743 26.24C75.4943 26.5667 75.4043 26.95 75.4043 27.39C75.4043 27.8233 75.4943 28.2067 75.6743 28.54C75.861 28.8733 76.111 29.1333 76.4243 29.32C76.7443 29.5 77.1043 29.59 77.5043 29.59ZM79.6143 30V28.29L79.7043 27.38L79.6043 26.47V22.58H80.1043V30H79.6143ZM84.3323 30.04C83.8057 30.04 83.339 29.9267 82.9323 29.7C82.5323 29.4733 82.2157 29.16 81.9823 28.76C81.7557 28.36 81.6423 27.9033 81.6423 27.39C81.6423 26.87 81.749 26.4133 81.9623 26.02C82.1823 25.62 82.4823 25.3067 82.8623 25.08C83.2423 24.8533 83.669 24.74 84.1423 24.74C84.6157 24.74 85.039 24.85 85.4123 25.07C85.7923 25.29 86.089 25.6 86.3023 26C86.5223 26.3933 86.6323 26.85 86.6323 27.37C86.6323 27.39 86.629 27.4133 86.6223 27.44C86.6223 27.46 86.6223 27.4833 86.6223 27.51H82.0123V27.12H86.3523L86.1523 27.31C86.159 26.9033 86.0723 26.54 85.8923 26.22C85.719 25.8933 85.4823 25.64 85.1823 25.46C84.8823 25.2733 84.5357 25.18 84.1423 25.18C83.7557 25.18 83.409 25.2733 83.1023 25.46C82.8023 25.64 82.5657 25.8933 82.3923 26.22C82.219 26.54 82.1323 26.9067 82.1323 27.32V27.41C82.1323 27.8367 82.2257 28.2167 82.4123 28.55C82.6057 28.8767 82.869 29.1333 83.2023 29.32C83.5357 29.5 83.9157 29.59 84.3423 29.59C84.6757 29.59 84.9857 29.53 85.2723 29.41C85.5657 29.29 85.8123 29.1067 86.0123 28.86L86.3023 29.19C86.0757 29.47 85.789 29.6833 85.4423 29.83C85.1023 29.97 84.7323 30.04 84.3323 30.04ZM87.6991 31.43L88.0891 29.74L88.1391 30.03C88.0125 30.03 87.9058 29.99 87.8191 29.91C87.7391 29.83 87.6991 29.73 87.6991 29.61C87.6991 29.49 87.7391 29.39 87.8191 29.31C87.9058 29.23 88.0058 29.19 88.1191 29.19C88.2458 29.19 88.3458 29.2333 88.4191 29.32C88.4991 29.4 88.5391 29.4967 88.5391 29.61C88.5391 29.6567 88.5358 29.7033 88.5291 29.75C88.5225 29.7967 88.5125 29.8433 88.4991 29.89C88.4858 29.9367 88.4691 29.9967 88.4491 30.07L88.0591 31.43H87.6991ZM93.3595 26.45H97.1495V26.91H93.3595V26.45ZM93.4195 30H92.9095V23H97.5895V23.46H93.4195V30ZM98.9604 30V24.78H99.4404V26.21L99.3904 26.05C99.5371 25.63 99.7837 25.3067 100.13 25.08C100.477 24.8533 100.91 24.74 101.43 24.74V25.23C101.41 25.23 101.39 25.23 101.37 25.23C101.35 25.2233 101.33 25.22 101.31 25.22C100.73 25.22 100.277 25.4033 99.9504 25.77C99.6237 26.13 99.4604 26.6333 99.4604 27.28V30H98.9604ZM104.879 30.04C104.353 30.04 103.886 29.9267 103.479 29.7C103.079 29.4733 102.763 29.16 102.529 28.76C102.303 28.36 102.189 27.9033 102.189 27.39C102.189 26.87 102.296 26.4133 102.509 26.02C102.729 25.62 103.029 25.3067 103.409 25.08C103.789 24.8533 104.216 24.74 104.689 24.74C105.163 24.74 105.586 24.85 105.959 25.07C106.339 25.29 106.636 25.6 106.849 26C107.069 26.3933 107.179 26.85 107.179 27.37C107.179 27.39 107.176 27.4133 107.169 27.44C107.169 27.46 107.169 27.4833 107.169 27.51H102.559V27.12H106.899L106.699 27.31C106.706 26.9033 106.619 26.54 106.439 26.22C106.266 25.8933 106.029 25.64 105.729 25.46C105.429 25.2733 105.083 25.18 104.689 25.18C104.303 25.18 103.956 25.2733 103.649 25.46C103.349 25.64 103.113 25.8933 102.939 26.22C102.766 26.54 102.679 26.9067 102.679 27.32V27.41C102.679 27.8367 102.773 28.2167 102.959 28.55C103.153 28.8767 103.416 29.1333 103.749 29.32C104.083 29.5 104.463 29.59 104.889 29.59C105.223 29.59 105.533 29.53 105.819 29.41C106.113 29.29 106.359 29.1067 106.559 28.86L106.849 29.19C106.623 29.47 106.336 29.6833 105.989 29.83C105.649 29.97 105.279 30.04 104.879 30.04ZM110.046 30.04C109.613 30.04 109.206 29.9767 108.826 29.85C108.453 29.7233 108.163 29.5633 107.956 29.37L108.186 28.97C108.386 29.1433 108.653 29.2933 108.986 29.42C109.319 29.54 109.679 29.6 110.066 29.6C110.613 29.6 111.006 29.51 111.246 29.33C111.486 29.15 111.606 28.9133 111.606 28.62C111.606 28.4067 111.543 28.24 111.416 28.12C111.296 27.9933 111.133 27.8967 110.926 27.83C110.719 27.7633 110.493 27.71 110.246 27.67C109.999 27.6233 109.753 27.5733 109.506 27.52C109.259 27.4667 109.033 27.39 108.826 27.29C108.619 27.19 108.453 27.0533 108.326 26.88C108.206 26.7 108.146 26.4633 108.146 26.17C108.146 25.9033 108.219 25.6633 108.366 25.45C108.513 25.2367 108.733 25.0667 109.026 24.94C109.319 24.8067 109.686 24.74 110.126 24.74C110.453 24.74 110.779 24.7867 111.106 24.88C111.439 24.9733 111.709 25.0967 111.916 25.25L111.686 25.65C111.466 25.4833 111.219 25.3633 110.946 25.29C110.673 25.2167 110.396 25.18 110.116 25.18C109.609 25.18 109.236 25.2733 108.996 25.46C108.763 25.6467 108.646 25.88 108.646 26.16C108.646 26.38 108.706 26.5567 108.826 26.69C108.953 26.8167 109.119 26.9167 109.326 26.99C109.533 27.0567 109.759 27.1133 110.006 27.16C110.253 27.2 110.499 27.2467 110.746 27.3C110.993 27.3533 111.219 27.43 111.426 27.53C111.633 27.6233 111.796 27.7567 111.916 27.93C112.043 28.0967 112.106 28.3233 112.106 28.61C112.106 28.8967 112.026 29.1467 111.866 29.36C111.713 29.5733 111.483 29.74 111.176 29.86C110.869 29.98 110.493 30.04 110.046 30.04ZM116.051 24.74C116.478 24.74 116.848 24.8233 117.161 24.99C117.481 25.15 117.728 25.3967 117.901 25.73C118.081 26.0567 118.171 26.4633 118.171 26.95V30H117.671V26.99C117.671 26.4033 117.521 25.9567 117.221 25.65C116.928 25.3433 116.515 25.19 115.981 25.19C115.575 25.19 115.221 25.2733 114.921 25.44C114.621 25.6067 114.391 25.84 114.231 26.14C114.078 26.44 114.001 26.8 114.001 27.22V30H113.501V22.58H114.001V26.23L113.911 26.07C114.071 25.6567 114.335 25.3333 114.701 25.1C115.068 24.86 115.518 24.74 116.051 24.74ZM122.78 24.74C123.207 24.74 123.577 24.8233 123.89 24.99C124.21 25.15 124.457 25.3967 124.63 25.73C124.81 26.0567 124.9 26.4633 124.9 26.95V30H124.4V26.99C124.4 26.4033 124.25 25.9567 123.95 25.65C123.657 25.3433 123.243 25.19 122.71 25.19C122.303 25.19 121.95 25.2733 121.65 25.44C121.35 25.6067 121.12 25.84 120.96 26.14C120.807 26.44 120.73 26.8 120.73 27.22V30H120.23V24.78H120.71V26.23L120.64 26.07C120.8 25.6567 121.063 25.3333 121.43 25.1C121.797 24.86 122.247 24.74 122.78 24.74ZM129.078 30.04C128.552 30.04 128.085 29.9267 127.678 29.7C127.278 29.4733 126.962 29.16 126.728 28.76C126.502 28.36 126.388 27.9033 126.388 27.39C126.388 26.87 126.495 26.4133 126.708 26.02C126.928 25.62 127.228 25.3067 127.608 25.08C127.988 24.8533 128.415 24.74 128.888 24.74C129.362 24.74 129.785 24.85 130.158 25.07C130.538 25.29 130.835 25.6 131.048 26C131.268 26.3933 131.378 26.85 131.378 27.37C131.378 27.39 131.375 27.4133 131.368 27.44C131.368 27.46 131.368 27.4833 131.368 27.51H126.758V27.12H131.098L130.898 27.31C130.905 26.9033 130.818 26.54 130.638 26.22C130.465 25.8933 130.228 25.64 129.928 25.46C129.628 25.2733 129.282 25.18 128.888 25.18C128.502 25.18 128.155 25.2733 127.848 25.46C127.548 25.64 127.312 25.8933 127.138 26.22C126.965 26.54 126.878 26.9067 126.878 27.32V27.41C126.878 27.8367 126.972 28.2167 127.158 28.55C127.352 28.8767 127.615 29.1333 127.948 29.32C128.282 29.5 128.662 29.59 129.088 29.59C129.422 29.59 129.732 29.53 130.018 29.41C130.312 29.29 130.558 29.1067 130.758 28.86L131.048 29.19C130.822 29.47 130.535 29.6833 130.188 29.83C129.848 29.97 129.478 30.04 129.078 30.04ZM134.245 30.04C133.812 30.04 133.405 29.9767 133.025 29.85C132.652 29.7233 132.362 29.5633 132.155 29.37L132.385 28.97C132.585 29.1433 132.852 29.2933 133.185 29.42C133.519 29.54 133.879 29.6 134.265 29.6C134.812 29.6 135.205 29.51 135.445 29.33C135.685 29.15 135.805 28.9133 135.805 28.62C135.805 28.4067 135.742 28.24 135.615 28.12C135.495 27.9933 135.332 27.8967 135.125 27.83C134.919 27.7633 134.692 27.71 134.445 27.67C134.199 27.6233 133.952 27.5733 133.705 27.52C133.459 27.4667 133.232 27.39 133.025 27.29C132.819 27.19 132.652 27.0533 132.525 26.88C132.405 26.7 132.345 26.4633 132.345 26.17C132.345 25.9033 132.419 25.6633 132.565 25.45C132.712 25.2367 132.932 25.0667 133.225 24.94C133.519 24.8067 133.885 24.74 134.325 24.74C134.652 24.74 134.979 24.7867 135.305 24.88C135.639 24.9733 135.909 25.0967 136.115 25.25L135.885 25.65C135.665 25.4833 135.419 25.3633 135.145 25.29C134.872 25.2167 134.595 25.18 134.315 25.18C133.809 25.18 133.435 25.2733 133.195 25.46C132.962 25.6467 132.845 25.88 132.845 26.16C132.845 26.38 132.905 26.5567 133.025 26.69C133.152 26.8167 133.319 26.9167 133.525 26.99C133.732 27.0567 133.959 27.1133 134.205 27.16C134.452 27.2 134.699 27.2467 134.945 27.3C135.192 27.3533 135.419 27.43 135.625 27.53C135.832 27.6233 135.995 27.7567 136.115 27.93C136.242 28.0967 136.305 28.3233 136.305 28.61C136.305 28.8967 136.225 29.1467 136.065 29.36C135.912 29.5733 135.682 29.74 135.375 29.86C135.069 29.98 134.692 30.04 134.245 30.04ZM139.021 30.04C138.587 30.04 138.181 29.9767 137.801 29.85C137.427 29.7233 137.137 29.5633 136.931 29.37L137.161 28.97C137.361 29.1433 137.627 29.2933 137.961 29.42C138.294 29.54 138.654 29.6 139.041 29.6C139.587 29.6 139.981 29.51 140.221 29.33C140.461 29.15 140.581 28.9133 140.581 28.62C140.581 28.4067 140.517 28.24 140.391 28.12C140.271 27.9933 140.107 27.8967 139.901 27.83C139.694 27.7633 139.467 27.71 139.221 27.67C138.974 27.6233 138.727 27.5733 138.481 27.52C138.234 27.4667 138.007 27.39 137.801 27.29C137.594 27.19 137.427 27.0533 137.301 26.88C137.181 26.7 137.121 26.4633 137.121 26.17C137.121 25.9033 137.194 25.6633 137.341 25.45C137.487 25.2367 137.707 25.0667 138.001 24.94C138.294 24.8067 138.661 24.74 139.101 24.74C139.427 24.74 139.754 24.7867 140.081 24.88C140.414 24.9733 140.684 25.0967 140.891 25.25L140.661 25.65C140.441 25.4833 140.194 25.3633 139.921 25.29C139.647 25.2167 139.371 25.18 139.091 25.18C138.584 25.18 138.211 25.2733 137.971 25.46C137.737 25.6467 137.621 25.88 137.621 26.16C137.621 26.38 137.681 26.5567 137.801 26.69C137.927 26.8167 138.094 26.9167 138.301 26.99C138.507 27.0567 138.734 27.1133 138.981 27.16C139.227 27.2 139.474 27.2467 139.721 27.3C139.967 27.3533 140.194 27.43 140.401 27.53C140.607 27.6233 140.771 27.7567 140.891 27.93C141.017 28.0967 141.081 28.3233 141.081 28.61C141.081 28.8967 141.001 29.1467 140.841 29.36C140.687 29.5733 140.457 29.74 140.151 29.86C139.844 29.98 139.467 30.04 139.021 30.04ZM142.036 27.54V27.09H144.606V27.54H142.036ZM146.445 30V23H146.955V29.54H150.985V30H146.445ZM154.086 30.04C153.586 30.04 153.14 29.9267 152.746 29.7C152.36 29.4733 152.05 29.16 151.816 28.76C151.59 28.36 151.476 27.9033 151.476 27.39C151.476 26.87 151.59 26.4133 151.816 26.02C152.05 25.62 152.36 25.3067 152.746 25.08C153.14 24.8533 153.586 24.74 154.086 24.74C154.586 24.74 155.033 24.8533 155.426 25.08C155.82 25.3067 156.13 25.62 156.356 26.02C156.583 26.4133 156.696 26.87 156.696 27.39C156.696 27.9033 156.583 28.36 156.356 28.76C156.13 29.16 155.82 29.4733 155.426 29.7C155.033 29.9267 154.586 30.04 154.086 30.04ZM154.086 29.59C154.486 29.59 154.846 29.5 155.166 29.32C155.486 29.1333 155.736 28.8733 155.916 28.54C156.096 28.2067 156.186 27.8233 156.186 27.39C156.186 26.95 156.096 26.5667 155.916 26.24C155.736 25.9067 155.486 25.65 155.166 25.47C154.846 25.2833 154.486 25.19 154.086 25.19C153.686 25.19 153.326 25.2833 153.006 25.47C152.693 25.65 152.443 25.9067 152.256 26.24C152.076 26.5667 151.986 26.95 151.986 27.39C151.986 27.8233 152.076 28.2067 152.256 28.54C152.443 28.8733 152.693 29.1333 153.006 29.32C153.326 29.5 153.686 29.59 154.086 29.59ZM160.318 30.04C159.811 30.04 159.358 29.9267 158.958 29.7C158.564 29.4733 158.251 29.16 158.018 28.76C157.791 28.36 157.678 27.9033 157.678 27.39C157.678 26.87 157.791 26.41 158.018 26.01C158.251 25.61 158.564 25.3 158.958 25.08C159.358 24.8533 159.811 24.74 160.318 24.74C160.738 24.74 161.118 24.82 161.458 24.98C161.804 25.14 162.084 25.38 162.298 25.7L161.928 25.97C161.741 25.7033 161.508 25.5067 161.228 25.38C160.948 25.2533 160.644 25.19 160.318 25.19C159.911 25.19 159.544 25.2833 159.218 25.47C158.898 25.65 158.644 25.9067 158.458 26.24C158.278 26.5667 158.188 26.95 158.188 27.39C158.188 27.83 158.278 28.2167 158.458 28.55C158.644 28.8767 158.898 29.1333 159.218 29.32C159.544 29.5 159.911 29.59 160.318 29.59C160.644 29.59 160.948 29.5267 161.228 29.4C161.508 29.2733 161.741 29.0767 161.928 28.81L162.298 29.08C162.084 29.4 161.804 29.64 161.458 29.8C161.118 29.96 160.738 30.04 160.318 30.04ZM164.086 28.56L164.096 27.93L167.546 24.78H168.186L165.896 26.93L165.596 27.18L164.086 28.56ZM163.706 30V22.58H164.206V30H163.706ZM167.786 30L165.506 27.14L165.846 26.77L168.406 30H167.786ZM169.475 31.94H169.005C169.392 31.2733 169.675 30.5533 169.855 29.78C170.035 29.0067 170.125 28.1667 170.125 27.26C170.125 26.3533 170.035 25.5133 169.855 24.74C169.675 23.9667 169.392 23.2467 169.005 22.58H169.475C169.842 23.1667 170.125 23.8633 170.325 24.67C170.525 25.47 170.625 26.3333 170.625 27.26C170.625 28.1867 170.525 29.0467 170.325 29.84C170.125 30.6333 169.842 31.3333 169.475 31.94Z" fill="black"/>
</svg>
