<svg width="391" height="32" viewBox="0 0 391 32" fill="none" xmlns="http://www.w3.org/2000/svg">
<path d="M29.354 14.14C28.5887 14.14 27.856 14.0327 27.156 13.818C26.456 13.594 25.9007 13.3093 25.49 12.964L26.12 11.55C26.512 11.858 26.9973 12.1147 27.576 12.32C28.1547 12.5253 28.7473 12.628 29.354 12.628C29.8673 12.628 30.2827 12.572 30.6 12.46C30.9173 12.348 31.1507 12.1987 31.3 12.012C31.4493 11.816 31.524 11.5967 31.524 11.354C31.524 11.0553 31.4167 10.8173 31.202 10.64C30.9873 10.4533 30.7073 10.3087 30.362 10.206C30.026 10.094 29.648 9.99133 29.228 9.898C28.8173 9.80467 28.402 9.69733 27.982 9.576C27.5713 9.44533 27.1933 9.282 26.848 9.086C26.512 8.88067 26.2367 8.61 26.022 8.274C25.8073 7.938 25.7 7.50867 25.7 6.986C25.7 6.454 25.84 5.96867 26.12 5.53C26.4093 5.082 26.8433 4.72733 27.422 4.466C28.01 4.19533 28.752 4.06 29.648 4.06C30.236 4.06 30.8193 4.13467 31.398 4.284C31.9767 4.43333 32.4807 4.648 32.91 4.928L32.336 6.342C31.8973 6.08067 31.4447 5.88933 30.978 5.768C30.5113 5.63733 30.0633 5.572 29.634 5.572C29.13 5.572 28.7193 5.63267 28.402 5.754C28.094 5.87533 27.8653 6.034 27.716 6.23C27.576 6.426 27.506 6.65 27.506 6.902C27.506 7.20067 27.6087 7.44333 27.814 7.63C28.0287 7.80733 28.304 7.94733 28.64 8.05C28.9853 8.15267 29.368 8.25533 29.788 8.358C30.208 8.45133 30.6233 8.55867 31.034 8.68C31.454 8.80133 31.832 8.96 32.168 9.156C32.5133 9.352 32.7887 9.618 32.994 9.954C33.2087 10.29 33.316 10.7147 33.316 11.228C33.316 11.7507 33.1713 12.236 32.882 12.684C32.602 13.1227 32.168 13.4773 31.58 13.748C30.992 14.0093 30.25 14.14 29.354 14.14ZM38.4667 14.098C37.636 14.098 36.908 13.9347 36.2827 13.608C35.6667 13.272 35.186 12.8147 34.8407 12.236C34.5047 11.6573 34.3367 10.9993 34.3367 10.262C34.3367 9.51533 34.5 8.85733 34.8267 8.288C35.1627 7.70933 35.62 7.25667 36.1987 6.93C36.7867 6.60333 37.454 6.44 38.2007 6.44C38.9287 6.44 39.5774 6.59867 40.1467 6.916C40.716 7.23333 41.164 7.68133 41.4907 8.26C41.8174 8.83867 41.9807 9.52 41.9807 10.304C41.9807 10.3787 41.976 10.4627 41.9667 10.556C41.9667 10.6493 41.962 10.738 41.9527 10.822H35.7227V9.66H41.0287L40.3427 10.024C40.352 9.59467 40.2634 9.21667 40.0767 8.89C39.89 8.56333 39.6334 8.30667 39.3067 8.12C38.9894 7.93333 38.6207 7.84 38.2007 7.84C37.7714 7.84 37.3934 7.93333 37.0667 8.12C36.7494 8.30667 36.4974 8.568 36.3107 8.904C36.1334 9.23067 36.0447 9.618 36.0447 10.066V10.346C36.0447 10.794 36.1474 11.1907 36.3527 11.536C36.558 11.8813 36.8474 12.1473 37.2207 12.334C37.594 12.5207 38.0234 12.614 38.5087 12.614C38.9287 12.614 39.3067 12.5487 39.6427 12.418C39.9787 12.2873 40.2774 12.082 40.5387 11.802L41.4767 12.88C41.1407 13.272 40.716 13.5753 40.2027 13.79C39.6987 13.9953 39.12 14.098 38.4667 14.098ZM43.6617 14V3.612H45.4117V14H43.6617ZM47.9465 14V6.104C47.9465 5.32 48.1752 4.69467 48.6325 4.228C49.0992 3.752 49.7619 3.514 50.6205 3.514C50.9285 3.514 51.2179 3.54667 51.4885 3.612C51.7685 3.67733 52.0019 3.78 52.1885 3.92L51.7125 5.236C51.5819 5.13333 51.4325 5.05867 51.2645 5.012C51.0965 4.956 50.9239 4.928 50.7465 4.928C50.3825 4.928 50.1072 5.03067 49.9205 5.236C49.7339 5.432 49.6405 5.73067 49.6405 6.132V6.972L49.6965 7.756V14H47.9465ZM46.7145 7.98V6.58H51.6985V7.98H46.7145ZM52.3618 10.836V9.38H56.2118V10.836H52.3618ZM56.6214 14L61.0314 4.2H62.8234L67.2474 14H65.3434L61.5494 5.166H62.2774L58.4974 14H56.6214ZM58.6514 11.732L59.1414 10.304H64.4334L64.9234 11.732H58.6514ZM71.4214 14.098C70.7027 14.098 70.054 13.9393 69.4754 13.622C68.906 13.2953 68.458 12.8473 68.1314 12.278C67.8047 11.7087 67.6414 11.0367 67.6414 10.262C67.6414 9.48733 67.8047 8.81533 68.1314 8.246C68.458 7.67667 68.906 7.23333 69.4754 6.916C70.054 6.59867 70.7027 6.44 71.4214 6.44C72.0467 6.44 72.6067 6.58 73.1014 6.86C73.596 7.13067 73.988 7.546 74.2774 8.106C74.5667 8.666 74.7114 9.38467 74.7114 10.262C74.7114 11.13 74.5714 11.8487 74.2914 12.418C74.0114 12.978 73.624 13.398 73.1294 13.678C72.6347 13.958 72.0654 14.098 71.4214 14.098ZM71.6314 12.6C72.0514 12.6 72.4247 12.5067 72.7514 12.32C73.0874 12.1333 73.3534 11.8627 73.5494 11.508C73.7547 11.1533 73.8574 10.738 73.8574 10.262C73.8574 9.77667 73.7547 9.36133 73.5494 9.016C73.3534 8.66133 73.0874 8.39067 72.7514 8.204C72.4247 8.01733 72.0514 7.924 71.6314 7.924C71.2114 7.924 70.8334 8.01733 70.4974 8.204C70.1707 8.39067 69.9047 8.66133 69.6994 9.016C69.5034 9.36133 69.4054 9.77667 69.4054 10.262C69.4054 10.738 69.5034 11.1533 69.6994 11.508C69.9047 11.8627 70.1707 12.1333 70.4974 12.32C70.8334 12.5067 71.2114 12.6 71.6314 12.6ZM73.8994 14V12.236L73.9694 10.248L73.8294 8.26V3.612H75.5654V14H73.8994ZM82.1107 6.44C82.708 6.44 83.24 6.55667 83.7067 6.79C84.1827 7.02333 84.556 7.38267 84.8267 7.868C85.0974 8.344 85.2327 8.96 85.2327 9.716V14H83.4827V9.94C83.4827 9.27733 83.324 8.78267 83.0067 8.456C82.6987 8.12933 82.2647 7.966 81.7047 7.966C81.294 7.966 80.93 8.05 80.6127 8.218C80.2954 8.386 80.048 8.638 79.8707 8.974C79.7027 9.30067 79.6187 9.716 79.6187 10.22V14H77.8687V3.612H79.6187V8.54L79.2407 7.924C79.502 7.448 79.88 7.084 80.3747 6.832C80.8787 6.57067 81.4574 6.44 82.1107 6.44ZM90.9804 14.098C90.1497 14.098 89.4217 13.9347 88.7964 13.608C88.1804 13.272 87.6997 12.8147 87.3544 12.236C87.0184 11.6573 86.8504 10.9993 86.8504 10.262C86.8504 9.51533 87.0137 8.85733 87.3404 8.288C87.6764 7.70933 88.1337 7.25667 88.7124 6.93C89.3004 6.60333 89.9677 6.44 90.7144 6.44C91.4424 6.44 92.091 6.59867 92.6604 6.916C93.2297 7.23333 93.6777 7.68133 94.0044 8.26C94.331 8.83867 94.4944 9.52 94.4944 10.304C94.4944 10.3787 94.4897 10.4627 94.4804 10.556C94.4804 10.6493 94.4757 10.738 94.4664 10.822H88.2364V9.66H93.5424L92.8564 10.024C92.8657 9.59467 92.777 9.21667 92.5904 8.89C92.4037 8.56333 92.147 8.30667 91.8204 8.12C91.503 7.93333 91.1344 7.84 90.7144 7.84C90.285 7.84 89.907 7.93333 89.5804 8.12C89.263 8.30667 89.011 8.568 88.8244 8.904C88.647 9.23067 88.5584 9.618 88.5584 10.066V10.346C88.5584 10.794 88.661 11.1907 88.8664 11.536C89.0717 11.8813 89.361 12.1473 89.7344 12.334C90.1077 12.5207 90.537 12.614 91.0224 12.614C91.4424 12.614 91.8204 12.5487 92.1564 12.418C92.4924 12.2873 92.791 12.082 93.0524 11.802L93.9904 12.88C93.6544 13.272 93.2297 13.5753 92.7164 13.79C92.2124 13.9953 91.6337 14.098 90.9804 14.098ZM98.4853 14.098C97.86 14.098 97.258 14.0187 96.6793 13.86C96.11 13.692 95.6573 13.4913 95.3213 13.258L95.9933 11.928C96.3293 12.1427 96.7307 12.32 97.1973 12.46C97.664 12.6 98.1307 12.67 98.5973 12.67C99.148 12.67 99.5447 12.5953 99.7873 12.446C100.039 12.2967 100.165 12.096 100.165 11.844C100.165 11.6387 100.081 11.4847 99.9133 11.382C99.7453 11.27 99.526 11.186 99.2553 11.13C98.9847 11.074 98.6813 11.0227 98.3453 10.976C98.0187 10.9293 97.6873 10.8687 97.3513 10.794C97.0247 10.71 96.726 10.5933 96.4553 10.444C96.1847 10.2853 95.9653 10.0753 95.7973 9.814C95.6293 9.55267 95.5453 9.20733 95.5453 8.778C95.5453 8.302 95.6807 7.89133 95.9513 7.546C96.222 7.19133 96.6 6.92067 97.0853 6.734C97.58 6.538 98.1633 6.44 98.8353 6.44C99.3393 6.44 99.848 6.496 100.361 6.608C100.875 6.72 101.299 6.87867 101.635 7.084L100.963 8.414C100.609 8.19933 100.249 8.05467 99.8853 7.98C99.5307 7.896 99.176 7.854 98.8213 7.854C98.2893 7.854 97.8927 7.93333 97.6313 8.092C97.3793 8.25067 97.2533 8.45133 97.2533 8.694C97.2533 8.918 97.3373 9.086 97.5053 9.198C97.6733 9.31 97.8927 9.39867 98.1633 9.464C98.434 9.52933 98.7327 9.58533 99.0593 9.632C99.3953 9.66933 99.7267 9.73 100.053 9.814C100.38 9.898 100.679 10.0147 100.949 10.164C101.229 10.304 101.453 10.5047 101.621 10.766C101.789 11.0273 101.873 11.368 101.873 11.788C101.873 12.2547 101.733 12.6607 101.453 13.006C101.183 13.3513 100.795 13.622 100.291 13.818C99.7873 14.0047 99.1853 14.098 98.4853 14.098ZM103.38 14V6.524H105.13V14H103.38ZM104.262 5.292C103.936 5.292 103.665 5.18933 103.45 4.984C103.245 4.77867 103.142 4.53133 103.142 4.242C103.142 3.94333 103.245 3.696 103.45 3.5C103.665 3.29467 103.936 3.192 104.262 3.192C104.589 3.192 104.855 3.29 105.06 3.486C105.275 3.67267 105.382 3.91067 105.382 4.2C105.382 4.508 105.28 4.76933 105.074 4.984C104.869 5.18933 104.598 5.292 104.262 5.292ZM109.415 14L106.209 6.524H108.029L110.787 13.118H109.891L112.747 6.524H114.427L111.221 14H109.415ZM118.83 14.098C117.999 14.098 117.271 13.9347 116.646 13.608C116.03 13.272 115.549 12.8147 115.204 12.236C114.868 11.6573 114.7 10.9993 114.7 10.262C114.7 9.51533 114.863 8.85733 115.19 8.288C115.526 7.70933 115.983 7.25667 116.562 6.93C117.15 6.60333 117.817 6.44 118.564 6.44C119.292 6.44 119.941 6.59867 120.51 6.916C121.079 7.23333 121.527 7.68133 121.854 8.26C122.181 8.83867 122.344 9.52 122.344 10.304C122.344 10.3787 122.339 10.4627 122.33 10.556C122.33 10.6493 122.325 10.738 122.316 10.822H116.086V9.66H121.392L120.706 10.024C120.715 9.59467 120.627 9.21667 120.44 8.89C120.253 8.56333 119.997 8.30667 119.67 8.12C119.353 7.93333 118.984 7.84 118.564 7.84C118.135 7.84 117.757 7.93333 117.43 8.12C117.113 8.30667 116.861 8.568 116.674 8.904C116.497 9.23067 116.408 9.618 116.408 10.066V10.346C116.408 10.794 116.511 11.1907 116.716 11.536C116.921 11.8813 117.211 12.1473 117.584 12.334C117.957 12.5207 118.387 12.614 118.872 12.614C119.292 12.614 119.67 12.5487 120.006 12.418C120.342 12.2873 120.641 12.082 120.902 11.802L121.84 12.88C121.504 13.272 121.079 13.5753 120.566 13.79C120.062 13.9953 119.483 14.098 118.83 14.098ZM128.062 14V4.2H132.094C132.962 4.2 133.704 4.34 134.32 4.62C134.945 4.9 135.426 5.30133 135.762 5.824C136.098 6.34667 136.266 6.96733 136.266 7.686C136.266 8.40467 136.098 9.02533 135.762 9.548C135.426 10.0707 134.945 10.472 134.32 10.752C133.704 11.032 132.962 11.172 132.094 11.172H129.07L129.882 10.318V14H128.062ZM129.882 10.514L129.07 9.632H132.01C132.813 9.632 133.415 9.464 133.816 9.128C134.227 8.78267 134.432 8.302 134.432 7.686C134.432 7.06067 134.227 6.58 133.816 6.244C133.415 5.908 132.813 5.74 132.01 5.74H129.07L129.882 4.844V10.514ZM138.084 14V4.2H142.116C142.984 4.2 143.726 4.34 144.342 4.62C144.967 4.9 145.448 5.30133 145.784 5.824C146.12 6.34667 146.288 6.96733 146.288 7.686C146.288 8.40467 146.12 9.02533 145.784 9.548C145.448 10.0707 144.967 10.472 144.342 10.752C143.726 11.032 142.984 11.172 142.116 11.172H139.092L139.904 10.318V14H138.084ZM139.904 10.514L139.092 9.632H142.032C142.834 9.632 143.436 9.464 143.838 9.128C144.248 8.78267 144.454 8.302 144.454 7.686C144.454 7.06067 144.248 6.58 143.838 6.244C143.436 5.908 142.834 5.74 142.032 5.74H139.092L139.904 4.844V10.514ZM145.877 15.4L150.497 2.212H152.065L147.445 15.4H145.877ZM152.808 14V4.2H154.628V12.46H159.752V14H152.808ZM161.189 14V4.2H165.473C166.537 4.2 167.47 4.40533 168.273 4.816C169.076 5.22667 169.701 5.796 170.149 6.524C170.597 7.252 170.821 8.11067 170.821 9.1C170.821 10.08 170.597 10.9387 170.149 11.676C169.701 12.404 169.076 12.9733 168.273 13.384C167.47 13.7947 166.537 14 165.473 14H161.189ZM163.009 12.46H165.389C166.126 12.46 166.761 12.32 167.293 12.04C167.834 11.76 168.25 11.368 168.539 10.864C168.838 10.36 168.987 9.772 168.987 9.1C168.987 8.41867 168.838 7.83067 168.539 7.336C168.25 6.832 167.834 6.44 167.293 6.16C166.761 5.88 166.126 5.74 165.389 5.74H163.009V12.46ZM181.161 14.14C180.414 14.14 179.719 14.0187 179.075 13.776C178.44 13.524 177.885 13.174 177.409 12.726C176.942 12.2687 176.578 11.732 176.317 11.116C176.055 10.5 175.925 9.828 175.925 9.1C175.925 8.372 176.055 7.7 176.317 7.084C176.578 6.468 176.947 5.936 177.423 5.488C177.899 5.03067 178.454 4.68067 179.089 4.438C179.723 4.186 180.419 4.06 181.175 4.06C181.977 4.06 182.71 4.2 183.373 4.48C184.035 4.75067 184.595 5.15667 185.053 5.698L183.877 6.804C183.522 6.42133 183.125 6.13667 182.687 5.95C182.248 5.754 181.772 5.656 181.259 5.656C180.745 5.656 180.274 5.74 179.845 5.908C179.425 6.076 179.056 6.314 178.739 6.622C178.431 6.93 178.188 7.294 178.011 7.714C177.843 8.134 177.759 8.596 177.759 9.1C177.759 9.604 177.843 10.066 178.011 10.486C178.188 10.906 178.431 11.27 178.739 11.578C179.056 11.886 179.425 12.124 179.845 12.292C180.274 12.46 180.745 12.544 181.259 12.544C181.772 12.544 182.248 12.4507 182.687 12.264C183.125 12.068 183.522 11.774 183.877 11.382L185.053 12.502C184.595 13.034 184.035 13.44 183.373 13.72C182.71 14 181.973 14.14 181.161 14.14ZM189.701 14.098C188.936 14.098 188.255 13.9347 187.657 13.608C187.06 13.272 186.589 12.8147 186.243 12.236C185.898 11.6573 185.725 10.9993 185.725 10.262C185.725 9.51533 185.898 8.85733 186.243 8.288C186.589 7.70933 187.06 7.25667 187.657 6.93C188.255 6.60333 188.936 6.44 189.701 6.44C190.476 6.44 191.162 6.60333 191.759 6.93C192.366 7.25667 192.837 7.70467 193.173 8.274C193.519 8.84333 193.691 9.506 193.691 10.262C193.691 10.9993 193.519 11.6573 193.173 12.236C192.837 12.8147 192.366 13.272 191.759 13.608C191.162 13.9347 190.476 14.098 189.701 14.098ZM189.701 12.6C190.131 12.6 190.513 12.5067 190.849 12.32C191.185 12.1333 191.447 11.8627 191.633 11.508C191.829 11.1533 191.927 10.738 191.927 10.262C191.927 9.77667 191.829 9.36133 191.633 9.016C191.447 8.66133 191.185 8.39067 190.849 8.204C190.513 8.01733 190.135 7.924 189.715 7.924C189.286 7.924 188.903 8.01733 188.567 8.204C188.241 8.39067 187.979 8.66133 187.783 9.016C187.587 9.36133 187.489 9.77667 187.489 10.262C187.489 10.738 187.587 11.1533 187.783 11.508C187.979 11.8627 188.241 12.1333 188.567 12.32C188.903 12.5067 189.281 12.6 189.701 12.6ZM197.148 14L193.942 6.524H195.762L198.52 13.118H197.624L200.48 6.524H202.16L198.954 14H197.148ZM206.562 14.098C205.732 14.098 205.004 13.9347 204.378 13.608C203.762 13.272 203.282 12.8147 202.936 12.236C202.6 11.6573 202.432 10.9993 202.432 10.262C202.432 9.51533 202.596 8.85733 202.922 8.288C203.258 7.70933 203.716 7.25667 204.294 6.93C204.882 6.60333 205.55 6.44 206.296 6.44C207.024 6.44 207.673 6.59867 208.242 6.916C208.812 7.23333 209.26 7.68133 209.586 8.26C209.913 8.83867 210.076 9.52 210.076 10.304C210.076 10.3787 210.072 10.4627 210.062 10.556C210.062 10.6493 210.058 10.738 210.048 10.822H203.818V9.66H209.124L208.438 10.024C208.448 9.59467 208.359 9.21667 208.172 8.89C207.986 8.56333 207.729 8.30667 207.402 8.12C207.085 7.93333 206.716 7.84 206.296 7.84C205.867 7.84 205.489 7.93333 205.162 8.12C204.845 8.30667 204.593 8.568 204.406 8.904C204.229 9.23067 204.14 9.618 204.14 10.066V10.346C204.14 10.794 204.243 11.1907 204.448 11.536C204.654 11.8813 204.943 12.1473 205.316 12.334C205.69 12.5207 206.119 12.614 206.604 12.614C207.024 12.614 207.402 12.5487 207.738 12.418C208.074 12.2873 208.373 12.082 208.634 11.802L209.572 12.88C209.236 13.272 208.812 13.5753 208.298 13.79C207.794 13.9953 207.216 14.098 206.562 14.098ZM211.757 14V6.524H213.423V8.582L213.227 7.98C213.451 7.476 213.801 7.09333 214.277 6.832C214.763 6.57067 215.365 6.44 216.083 6.44V8.106C216.009 8.08733 215.939 8.078 215.873 8.078C215.808 8.06867 215.743 8.064 215.677 8.064C215.015 8.064 214.487 8.26 214.095 8.652C213.703 9.03467 213.507 9.60867 213.507 10.374V14H211.757ZM219.946 14.098C219.321 14.098 218.719 14.0187 218.14 13.86C217.571 13.692 217.118 13.4913 216.782 13.258L217.454 11.928C217.79 12.1427 218.192 12.32 218.658 12.46C219.125 12.6 219.592 12.67 220.058 12.67C220.609 12.67 221.006 12.5953 221.248 12.446C221.5 12.2967 221.626 12.096 221.626 11.844C221.626 11.6387 221.542 11.4847 221.374 11.382C221.206 11.27 220.987 11.186 220.716 11.13C220.446 11.074 220.142 11.0227 219.806 10.976C219.48 10.9293 219.148 10.8687 218.812 10.794C218.486 10.71 218.187 10.5933 217.916 10.444C217.646 10.2853 217.426 10.0753 217.258 9.814C217.09 9.55267 217.006 9.20733 217.006 8.778C217.006 8.302 217.142 7.89133 217.412 7.546C217.683 7.19133 218.061 6.92067 218.546 6.734C219.041 6.538 219.624 6.44 220.296 6.44C220.8 6.44 221.309 6.496 221.822 6.608C222.336 6.72 222.76 6.87867 223.096 7.084L222.424 8.414C222.07 8.19933 221.71 8.05467 221.346 7.98C220.992 7.896 220.637 7.854 220.282 7.854C219.75 7.854 219.354 7.93333 219.092 8.092C218.84 8.25067 218.714 8.45133 218.714 8.694C218.714 8.918 218.798 9.086 218.966 9.198C219.134 9.31 219.354 9.39867 219.624 9.464C219.895 9.52933 220.194 9.58533 220.52 9.632C220.856 9.66933 221.188 9.73 221.514 9.814C221.841 9.898 222.14 10.0147 222.41 10.164C222.69 10.304 222.914 10.5047 223.082 10.766C223.25 11.0273 223.334 11.368 223.334 11.788C223.334 12.2547 223.194 12.6607 222.914 13.006C222.644 13.3513 222.256 13.622 221.752 13.818C221.248 14.0047 220.646 14.098 219.946 14.098Z" fill="black"/>
<path d="M2.184 14V4.9L2.982 5.726H0.112V4.2H4.004V14H2.184ZM8.21603 14V4.9L9.01403 5.726H6.14403V4.2H10.036V14H8.21603ZM13.7721 14.098C13.4547 14.098 13.1841 13.9907 12.9601 13.776C12.7361 13.552 12.6241 13.272 12.6241 12.936C12.6241 12.5813 12.7361 12.3013 12.9601 12.096C13.1841 11.8813 13.4547 11.774 13.7721 11.774C14.0894 11.774 14.3601 11.8813 14.5841 12.096C14.8081 12.3013 14.9201 12.5813 14.9201 12.936C14.9201 13.272 14.8081 13.552 14.5841 13.776C14.3601 13.9907 14.0894 14.098 13.7721 14.098Z" fill="black"/>
<path d="M372.712 17.17C371.771 17.17 370.921 16.932 370.162 16.456C369.414 15.98 368.825 15.2887 368.394 14.382C367.963 13.464 367.748 12.3533 367.748 11.05C367.748 9.74667 367.963 8.64167 368.394 7.735C368.825 6.817 369.414 6.12 370.162 5.644C370.921 5.168 371.771 4.93 372.712 4.93C373.664 4.93 374.514 5.168 375.262 5.644C376.01 6.12 376.599 6.817 377.03 7.735C377.472 8.64167 377.693 9.74667 377.693 11.05C377.693 12.3533 377.472 13.464 377.03 14.382C376.599 15.2887 376.01 15.98 375.262 16.456C374.514 16.932 373.664 17.17 372.712 17.17ZM372.712 15.249C373.267 15.249 373.749 15.1017 374.157 14.807C374.565 14.501 374.882 14.0363 375.109 13.413C375.347 12.7897 375.466 12.002 375.466 11.05C375.466 10.0867 375.347 9.299 375.109 8.687C374.882 8.06367 374.565 7.60467 374.157 7.31C373.749 7.004 373.267 6.851 372.712 6.851C372.179 6.851 371.703 7.004 371.284 7.31C370.876 7.60467 370.553 8.06367 370.315 8.687C370.088 9.299 369.975 10.0867 369.975 11.05C369.975 12.002 370.088 12.7897 370.315 13.413C370.553 14.0363 370.876 14.501 371.284 14.807C371.703 15.1017 372.179 15.249 372.712 15.249ZM385 17.17C384.162 17.17 383.34 17.051 382.535 16.813C381.742 16.5637 381.073 16.2237 380.529 15.793L381.464 14.076C381.895 14.4273 382.416 14.7107 383.028 14.926C383.652 15.1413 384.298 15.249 384.966 15.249C385.748 15.249 386.36 15.0847 386.802 14.756C387.256 14.4273 387.482 13.9853 387.482 13.43C387.482 13.056 387.386 12.7273 387.193 12.444C387.012 12.1607 386.683 11.9453 386.207 11.798C385.743 11.6507 385.102 11.577 384.286 11.577H381.413L382.025 5.1H389.012V6.953H382.841L383.997 5.899L383.538 10.744L382.382 9.707H384.779C385.958 9.707 386.904 9.86567 387.618 10.183C388.344 10.489 388.871 10.9197 389.199 11.475C389.539 12.019 389.709 12.6423 389.709 13.345C389.709 14.0363 389.539 14.671 389.199 15.249C388.859 15.827 388.338 16.2917 387.635 16.643C386.944 16.9943 386.066 17.17 385 17.17Z" fill="#16713D"/>
<path d="M27.26 31.94C26.8933 31.3333 26.61 30.6333 26.41 29.84C26.2167 29.0467 26.12 28.1867 26.12 27.26C26.12 26.3333 26.2167 25.47 26.41 24.67C26.61 23.8633 26.8933 23.1667 27.26 22.58H27.74C27.3467 23.2467 27.06 23.9667 26.88 24.74C26.7 25.5133 26.61 26.3533 26.61 27.26C26.61 28.1667 26.7 29.0067 26.88 29.78C27.06 30.5533 27.3467 31.2733 27.74 31.94H27.26ZM29.8829 26.45H33.6729V26.91H29.8829V26.45ZM29.9429 30H29.4329V23H34.1129V23.46H29.9429V30ZM37.4359 30.04C36.9359 30.04 36.4893 29.9267 36.0959 29.7C35.7093 29.4733 35.3993 29.16 35.1659 28.76C34.9393 28.36 34.8259 27.9033 34.8259 27.39C34.8259 26.87 34.9393 26.4133 35.1659 26.02C35.3993 25.62 35.7093 25.3067 36.0959 25.08C36.4893 24.8533 36.9359 24.74 37.4359 24.74C37.9359 24.74 38.3826 24.8533 38.7759 25.08C39.1693 25.3067 39.4793 25.62 39.7059 26.02C39.9326 26.4133 40.0459 26.87 40.0459 27.39C40.0459 27.9033 39.9326 28.36 39.7059 28.76C39.4793 29.16 39.1693 29.4733 38.7759 29.7C38.3826 29.9267 37.9359 30.04 37.4359 30.04ZM37.4359 29.59C37.8359 29.59 38.1959 29.5 38.5159 29.32C38.8359 29.1333 39.0859 28.8733 39.2659 28.54C39.4459 28.2067 39.5359 27.8233 39.5359 27.39C39.5359 26.95 39.4459 26.5667 39.2659 26.24C39.0859 25.9067 38.8359 25.65 38.5159 25.47C38.1959 25.2833 37.8359 25.19 37.4359 25.19C37.0359 25.19 36.6759 25.2833 36.3559 25.47C36.0426 25.65 35.7926 25.9067 35.6059 26.24C35.4259 26.5667 35.3359 26.95 35.3359 27.39C35.3359 27.8233 35.4259 28.2067 35.6059 28.54C35.7926 28.8733 36.0426 29.1333 36.3559 29.32C36.6759 29.5 37.0359 29.59 37.4359 29.59ZM43.6371 30.04C43.1371 30.04 42.6904 29.9267 42.2971 29.7C41.9104 29.4733 41.6004 29.16 41.3671 28.76C41.1404 28.36 41.0271 27.9033 41.0271 27.39C41.0271 26.87 41.1404 26.4133 41.3671 26.02C41.6004 25.62 41.9104 25.3067 42.2971 25.08C42.6904 24.8533 43.1371 24.74 43.6371 24.74C44.1371 24.74 44.5838 24.8533 44.9771 25.08C45.3704 25.3067 45.6804 25.62 45.9071 26.02C46.1338 26.4133 46.2471 26.87 46.2471 27.39C46.2471 27.9033 46.1338 28.36 45.9071 28.76C45.6804 29.16 45.3704 29.4733 44.9771 29.7C44.5838 29.9267 44.1371 30.04 43.6371 30.04ZM43.6371 29.59C44.0371 29.59 44.3971 29.5 44.7171 29.32C45.0371 29.1333 45.2871 28.8733 45.4671 28.54C45.6471 28.2067 45.7371 27.8233 45.7371 27.39C45.7371 26.95 45.6471 26.5667 45.4671 26.24C45.2871 25.9067 45.0371 25.65 44.7171 25.47C44.3971 25.2833 44.0371 25.19 43.6371 25.19C43.2371 25.19 42.8771 25.2833 42.5571 25.47C42.2438 25.65 41.9938 25.9067 41.8071 26.24C41.6271 26.5667 41.5371 26.95 41.5371 27.39C41.5371 27.8233 41.6271 28.2067 41.8071 28.54C41.9938 28.8733 42.2438 29.1333 42.5571 29.32C42.8771 29.5 43.2371 29.59 43.6371 29.59ZM49.8083 30.04C49.3216 30.04 48.8816 29.93 48.4883 29.71C48.1016 29.4833 47.7949 29.17 47.5683 28.77C47.3416 28.37 47.2283 27.91 47.2283 27.39C47.2283 26.8633 47.3416 26.4033 47.5683 26.01C47.7949 25.61 48.1016 25.3 48.4883 25.08C48.8816 24.8533 49.3216 24.74 49.8083 24.74C50.2683 24.74 50.6816 24.8467 51.0483 25.06C51.4216 25.2733 51.7149 25.5767 51.9283 25.97C52.1483 26.3633 52.2583 26.8367 52.2583 27.39C52.2583 27.93 52.1516 28.4 51.9383 28.8C51.7249 29.2 51.4316 29.5067 51.0583 29.72C50.6916 29.9333 50.2749 30.04 49.8083 30.04ZM49.8383 29.59C50.2383 29.59 50.5949 29.5 50.9083 29.32C51.2283 29.1333 51.4783 28.8733 51.6583 28.54C51.8449 28.2067 51.9383 27.8233 51.9383 27.39C51.9383 26.95 51.8449 26.5667 51.6583 26.24C51.4783 25.9067 51.2283 25.65 50.9083 25.47C50.5949 25.2833 50.2383 25.19 49.8383 25.19C49.4383 25.19 49.0783 25.2833 48.7583 25.47C48.4449 25.65 48.1949 25.9067 48.0083 26.24C47.8283 26.5667 47.7383 26.95 47.7383 27.39C47.7383 27.8233 47.8283 28.2067 48.0083 28.54C48.1949 28.8733 48.4449 29.1333 48.7583 29.32C49.0783 29.5 49.4383 29.59 49.8383 29.59ZM51.9483 30V28.29L52.0383 27.38L51.9383 26.47V22.58H52.4383V30H51.9483ZM54.1063 27.54V27.09H56.6763V27.54H54.1063ZM61.5928 30.05C61.0661 30.05 60.5795 29.9633 60.1328 29.79C59.6861 29.61 59.2961 29.36 58.9628 29.04C58.6361 28.72 58.3828 28.3467 58.2028 27.92C58.0228 27.4867 57.9328 27.0133 57.9328 26.5C57.9328 25.9867 58.0228 25.5167 58.2028 25.09C58.3828 24.6567 58.6395 24.28 58.9728 23.96C59.3061 23.64 59.6928 23.3933 60.1328 23.22C60.5795 23.04 61.0695 22.95 61.6028 22.95C62.1095 22.95 62.5795 23.03 63.0128 23.19C63.4461 23.35 63.8161 23.59 64.1228 23.91L63.8028 24.25C63.4961 23.95 63.1595 23.7367 62.7928 23.61C62.4328 23.4833 62.0395 23.42 61.6128 23.42C61.1595 23.42 60.7395 23.4967 60.3528 23.65C59.9661 23.8033 59.6295 24.02 59.3428 24.3C59.0561 24.58 58.8328 24.9067 58.6728 25.28C58.5195 25.6533 58.4428 26.06 58.4428 26.5C58.4428 26.94 58.5195 27.3467 58.6728 27.72C58.8328 28.0933 59.0561 28.42 59.3428 28.7C59.6295 28.98 59.9661 29.1967 60.3528 29.35C60.7395 29.5033 61.1595 29.58 61.6128 29.58C62.0261 29.58 62.4161 29.5167 62.7828 29.39C63.1561 29.2633 63.4961 29.0533 63.8028 28.76L64.0928 29.15C63.7795 29.45 63.4028 29.6767 62.9628 29.83C62.5295 29.9767 62.0728 30.05 61.5928 30.05ZM63.6028 29.1V26.53H64.0928V29.15L63.6028 29.1ZM66.1772 30V24.78H66.6572V26.21L66.6072 26.05C66.7539 25.63 67.0005 25.3067 67.3472 25.08C67.6939 24.8533 68.1272 24.74 68.6472 24.74V25.23C68.6272 25.23 68.6072 25.23 68.5872 25.23C68.5672 25.2233 68.5472 25.22 68.5272 25.22C67.9472 25.22 67.4939 25.4033 67.1672 25.77C66.8405 26.13 66.6772 26.6333 66.6772 27.28V30H66.1772ZM72.9242 30V28.81L72.9042 28.63V26.67C72.9042 26.1833 72.7709 25.8133 72.5042 25.56C72.2442 25.3067 71.8609 25.18 71.3542 25.18C70.9942 25.18 70.6576 25.2433 70.3442 25.37C70.0376 25.49 69.7742 25.6467 69.5542 25.84L69.3042 25.48C69.5642 25.2467 69.8776 25.0667 70.2442 24.94C70.6109 24.8067 70.9942 24.74 71.3942 24.74C72.0409 24.74 72.5376 24.9033 72.8842 25.23C73.2309 25.5567 73.4042 26.0433 73.4042 26.69V30H72.9242ZM71.0442 30.04C70.6576 30.04 70.3209 29.98 70.0342 29.86C69.7542 29.7333 69.5376 29.5567 69.3842 29.33C69.2376 29.1033 69.1642 28.8433 69.1642 28.55C69.1642 28.2833 69.2242 28.0433 69.3442 27.83C69.4709 27.61 69.6776 27.4333 69.9642 27.3C70.2509 27.16 70.6342 27.09 71.1142 27.09H73.0342V27.48H71.1242C70.5842 27.48 70.2042 27.58 69.9842 27.78C69.7709 27.98 69.6642 28.23 69.6642 28.53C69.6642 28.8633 69.7909 29.13 70.0442 29.33C70.2976 29.53 70.6542 29.63 71.1142 29.63C71.5542 29.63 71.9242 29.53 72.2242 29.33C72.5309 29.13 72.7576 28.84 72.9042 28.46L73.0442 28.8C72.9042 29.18 72.6642 29.4833 72.3242 29.71C71.9909 29.93 71.5642 30.04 71.0442 30.04ZM77.4743 30.04C76.9876 30.04 76.5476 29.93 76.1543 29.71C75.7676 29.4833 75.461 29.17 75.2343 28.77C75.0076 28.37 74.8943 27.91 74.8943 27.39C74.8943 26.8633 75.0076 26.4033 75.2343 26.01C75.461 25.61 75.7676 25.3 76.1543 25.08C76.5476 24.8533 76.9876 24.74 77.4743 24.74C77.9343 24.74 78.3476 24.8467 78.7143 25.06C79.0876 25.2733 79.381 25.5767 79.5943 25.97C79.8143 26.3633 79.9243 26.8367 79.9243 27.39C79.9243 27.93 79.8176 28.4 79.6043 28.8C79.391 29.2 79.0976 29.5067 78.7243 29.72C78.3576 29.9333 77.941 30.04 77.4743 30.04ZM77.5043 29.59C77.9043 29.59 78.261 29.5 78.5743 29.32C78.8943 29.1333 79.1443 28.8733 79.3243 28.54C79.511 28.2067 79.6043 27.8233 79.6043 27.39C79.6043 26.95 79.511 26.5667 79.3243 26.24C79.1443 25.9067 78.8943 25.65 78.5743 25.47C78.261 25.2833 77.9043 25.19 77.5043 25.19C77.1043 25.19 76.7443 25.2833 76.4243 25.47C76.111 25.65 75.861 25.9067 75.6743 26.24C75.4943 26.5667 75.4043 26.95 75.4043 27.39C75.4043 27.8233 75.4943 28.2067 75.6743 28.54C75.861 28.8733 76.111 29.1333 76.4243 29.32C76.7443 29.5 77.1043 29.59 77.5043 29.59ZM79.6143 30V28.29L79.7043 27.38L79.6043 26.47V22.58H80.1043V30H79.6143ZM84.3323 30.04C83.8057 30.04 83.339 29.9267 82.9323 29.7C82.5323 29.4733 82.2157 29.16 81.9823 28.76C81.7557 28.36 81.6423 27.9033 81.6423 27.39C81.6423 26.87 81.749 26.4133 81.9623 26.02C82.1823 25.62 82.4823 25.3067 82.8623 25.08C83.2423 24.8533 83.669 24.74 84.1423 24.74C84.6157 24.74 85.039 24.85 85.4123 25.07C85.7923 25.29 86.089 25.6 86.3023 26C86.5223 26.3933 86.6323 26.85 86.6323 27.37C86.6323 27.39 86.629 27.4133 86.6223 27.44C86.6223 27.46 86.6223 27.4833 86.6223 27.51H82.0123V27.12H86.3523L86.1523 27.31C86.159 26.9033 86.0723 26.54 85.8923 26.22C85.719 25.8933 85.4823 25.64 85.1823 25.46C84.8823 25.2733 84.5357 25.18 84.1423 25.18C83.7557 25.18 83.409 25.2733 83.1023 25.46C82.8023 25.64 82.5657 25.8933 82.3923 26.22C82.219 26.54 82.1323 26.9067 82.1323 27.32V27.41C82.1323 27.8367 82.2257 28.2167 82.4123 28.55C82.6057 28.8767 82.869 29.1333 83.2023 29.32C83.5357 29.5 83.9157 29.59 84.3423 29.59C84.6757 29.59 84.9857 29.53 85.2723 29.41C85.5657 29.29 85.8123 29.1067 86.0123 28.86L86.3023 29.19C86.0757 29.47 85.789 29.6833 85.4423 29.83C85.1023 29.97 84.7323 30.04 84.3323 30.04ZM87.6991 31.43L88.0891 29.74L88.1391 30.03C88.0125 30.03 87.9058 29.99 87.8191 29.91C87.7391 29.83 87.6991 29.73 87.6991 29.61C87.6991 29.49 87.7391 29.39 87.8191 29.31C87.9058 29.23 88.0058 29.19 88.1191 29.19C88.2458 29.19 88.3458 29.2333 88.4191 29.32C88.4991 29.4 88.5391 29.4967 88.5391 29.61C88.5391 29.6567 88.5358 29.7033 88.5291 29.75C88.5225 29.7967 88.5125 29.8433 88.4991 29.89C88.4858 29.9367 88.4691 29.9967 88.4491 30.07L88.0591 31.43H87.6991ZM94.2495 30V23.46H91.7295V23H97.2795V23.46H94.7595V30H94.2495ZM98.2475 30V24.78H98.7275V26.21L98.6775 26.05C98.8242 25.63 99.0708 25.3067 99.4175 25.08C99.7642 24.8533 100.198 24.74 100.718 24.74V25.23C100.698 25.23 100.678 25.23 100.658 25.23C100.638 25.2233 100.618 25.22 100.598 25.22C100.018 25.22 99.5642 25.4033 99.2375 25.77C98.9108 26.13 98.7475 26.6333 98.7475 27.28V30H98.2475ZM104.995 30V28.81L104.975 28.63V26.67C104.975 26.1833 104.841 25.8133 104.575 25.56C104.315 25.3067 103.931 25.18 103.425 25.18C103.065 25.18 102.728 25.2433 102.415 25.37C102.108 25.49 101.845 25.6467 101.625 25.84L101.375 25.48C101.635 25.2467 101.948 25.0667 102.315 24.94C102.681 24.8067 103.065 24.74 103.465 24.74C104.111 24.74 104.608 24.9033 104.955 25.23C105.301 25.5567 105.475 26.0433 105.475 26.69V30H104.995ZM103.115 30.04C102.728 30.04 102.391 29.98 102.105 29.86C101.825 29.7333 101.608 29.5567 101.455 29.33C101.308 29.1033 101.235 28.8433 101.235 28.55C101.235 28.2833 101.295 28.0433 101.415 27.83C101.541 27.61 101.748 27.4333 102.035 27.3C102.321 27.16 102.705 27.09 103.185 27.09H105.105V27.48H103.195C102.655 27.48 102.275 27.58 102.055 27.78C101.841 27.98 101.735 28.23 101.735 28.53C101.735 28.8633 101.861 29.13 102.115 29.33C102.368 29.53 102.725 29.63 103.185 29.63C103.625 29.63 103.995 29.53 104.295 29.33C104.601 29.13 104.828 28.84 104.975 28.46L105.115 28.8C104.975 29.18 104.735 29.4833 104.395 29.71C104.061 29.93 103.635 30.04 103.115 30.04ZM110.085 24.74C110.511 24.74 110.881 24.8233 111.195 24.99C111.515 25.15 111.761 25.3967 111.935 25.73C112.115 26.0567 112.205 26.4633 112.205 26.95V30H111.705V26.99C111.705 26.4033 111.555 25.9567 111.255 25.65C110.961 25.3433 110.548 25.19 110.015 25.19C109.608 25.19 109.255 25.2733 108.955 25.44C108.655 25.6067 108.425 25.84 108.265 26.14C108.111 26.44 108.035 26.8 108.035 27.22V30H107.535V24.78H108.015V26.23L107.945 26.07C108.105 25.6567 108.368 25.3333 108.735 25.1C109.101 24.86 109.551 24.74 110.085 24.74ZM115.583 30.04C115.15 30.04 114.743 29.9767 114.363 29.85C113.99 29.7233 113.7 29.5633 113.493 29.37L113.723 28.97C113.923 29.1433 114.19 29.2933 114.523 29.42C114.856 29.54 115.216 29.6 115.603 29.6C116.15 29.6 116.543 29.51 116.783 29.33C117.023 29.15 117.143 28.9133 117.143 28.62C117.143 28.4067 117.08 28.24 116.953 28.12C116.833 27.9933 116.67 27.8967 116.463 27.83C116.256 27.7633 116.03 27.71 115.783 27.67C115.536 27.6233 115.29 27.5733 115.043 27.52C114.796 27.4667 114.57 27.39 114.363 27.29C114.156 27.19 113.99 27.0533 113.863 26.88C113.743 26.7 113.683 26.4633 113.683 26.17C113.683 25.9033 113.756 25.6633 113.903 25.45C114.05 25.2367 114.27 25.0667 114.563 24.94C114.856 24.8067 115.223 24.74 115.663 24.74C115.99 24.74 116.316 24.7867 116.643 24.88C116.976 24.9733 117.246 25.0967 117.453 25.25L117.223 25.65C117.003 25.4833 116.756 25.3633 116.483 25.29C116.21 25.2167 115.933 25.18 115.653 25.18C115.146 25.18 114.773 25.2733 114.533 25.46C114.3 25.6467 114.183 25.88 114.183 26.16C114.183 26.38 114.243 26.5567 114.363 26.69C114.49 26.8167 114.656 26.9167 114.863 26.99C115.07 27.0567 115.296 27.1133 115.543 27.16C115.79 27.2 116.036 27.2467 116.283 27.3C116.53 27.3533 116.756 27.43 116.963 27.53C117.17 27.6233 117.333 27.7567 117.453 27.93C117.58 28.0967 117.643 28.3233 117.643 28.61C117.643 28.8967 117.563 29.1467 117.403 29.36C117.25 29.5733 117.02 29.74 116.713 29.86C116.406 29.98 116.03 30.04 115.583 30.04ZM121.659 30.04C121.199 30.04 120.782 29.9333 120.409 29.72C120.042 29.5067 119.749 29.2033 119.529 28.81C119.315 28.41 119.209 27.9367 119.209 27.39C119.209 26.8433 119.315 26.3733 119.529 25.98C119.749 25.58 120.042 25.2733 120.409 25.06C120.782 24.8467 121.199 24.74 121.659 24.74C122.152 24.74 122.592 24.8533 122.979 25.08C123.372 25.3 123.679 25.61 123.899 26.01C124.125 26.41 124.239 26.87 124.239 27.39C124.239 27.91 124.125 28.37 123.899 28.77C123.679 29.17 123.372 29.4833 122.979 29.71C122.592 29.93 122.152 30.04 121.659 30.04ZM119.039 31.94V24.78H119.519V26.49L119.439 27.4L119.539 28.31V31.94H119.039ZM121.629 29.59C122.029 29.59 122.389 29.5 122.709 29.32C123.029 29.1333 123.279 28.8733 123.459 28.54C123.645 28.2067 123.739 27.8233 123.739 27.39C123.739 26.95 123.645 26.5667 123.459 26.24C123.279 25.9067 123.029 25.65 122.709 25.47C122.389 25.2833 122.029 25.19 121.629 25.19C121.229 25.19 120.869 25.2833 120.549 25.47C120.235 25.65 119.985 25.9067 119.799 26.24C119.619 26.5667 119.529 26.95 119.529 27.39C119.529 27.8233 119.619 28.2067 119.799 28.54C119.985 28.8733 120.235 29.1333 120.549 29.32C120.869 29.5 121.229 29.59 121.629 29.59ZM129.057 30V28.81L129.037 28.63V26.67C129.037 26.1833 128.904 25.8133 128.637 25.56C128.377 25.3067 127.994 25.18 127.487 25.18C127.127 25.18 126.79 25.2433 126.477 25.37C126.17 25.49 125.907 25.6467 125.687 25.84L125.437 25.48C125.697 25.2467 126.01 25.0667 126.377 24.94C126.744 24.8067 127.127 24.74 127.527 24.74C128.174 24.74 128.67 24.9033 129.017 25.23C129.364 25.5567 129.537 26.0433 129.537 26.69V30H129.057ZM127.177 30.04C126.79 30.04 126.454 29.98 126.167 29.86C125.887 29.7333 125.67 29.5567 125.517 29.33C125.37 29.1033 125.297 28.8433 125.297 28.55C125.297 28.2833 125.357 28.0433 125.477 27.83C125.604 27.61 125.81 27.4333 126.097 27.3C126.384 27.16 126.767 27.09 127.247 27.09H129.167V27.48H127.257C126.717 27.48 126.337 27.58 126.117 27.78C125.904 27.98 125.797 28.23 125.797 28.53C125.797 28.8633 125.924 29.13 126.177 29.33C126.43 29.53 126.787 29.63 127.247 29.63C127.687 29.63 128.057 29.53 128.357 29.33C128.664 29.13 128.89 28.84 129.037 28.46L129.177 28.8C129.037 29.18 128.797 29.4833 128.457 29.71C128.124 29.93 127.697 30.04 127.177 30.04ZM131.597 30V24.78H132.077V26.21L132.027 26.05C132.174 25.63 132.42 25.3067 132.767 25.08C133.114 24.8533 133.547 24.74 134.067 24.74V25.23C134.047 25.23 134.027 25.23 134.007 25.23C133.987 25.2233 133.967 25.22 133.947 25.22C133.367 25.22 132.914 25.4033 132.587 25.77C132.26 26.13 132.097 26.6333 132.097 27.28V30H131.597ZM137.516 30.04C136.989 30.04 136.523 29.9267 136.116 29.7C135.716 29.4733 135.399 29.16 135.166 28.76C134.939 28.36 134.826 27.9033 134.826 27.39C134.826 26.87 134.933 26.4133 135.146 26.02C135.366 25.62 135.666 25.3067 136.046 25.08C136.426 24.8533 136.853 24.74 137.326 24.74C137.799 24.74 138.223 24.85 138.596 25.07C138.976 25.29 139.273 25.6 139.486 26C139.706 26.3933 139.816 26.85 139.816 27.37C139.816 27.39 139.813 27.4133 139.806 27.44C139.806 27.46 139.806 27.4833 139.806 27.51H135.196V27.12H139.536L139.336 27.31C139.343 26.9033 139.256 26.54 139.076 26.22C138.903 25.8933 138.666 25.64 138.366 25.46C138.066 25.2733 137.719 25.18 137.326 25.18C136.939 25.18 136.593 25.2733 136.286 25.46C135.986 25.64 135.749 25.8933 135.576 26.22C135.403 26.54 135.316 26.9067 135.316 27.32V27.41C135.316 27.8367 135.409 28.2167 135.596 28.55C135.789 28.8767 136.053 29.1333 136.386 29.32C136.719 29.5 137.099 29.59 137.526 29.59C137.859 29.59 138.169 29.53 138.456 29.41C138.749 29.29 138.996 29.1067 139.196 28.86L139.486 29.19C139.259 29.47 138.973 29.6833 138.626 29.83C138.286 29.97 137.916 30.04 137.516 30.04ZM143.913 24.74C144.339 24.74 144.709 24.8233 145.023 24.99C145.343 25.15 145.589 25.3967 145.763 25.73C145.943 26.0567 146.033 26.4633 146.033 26.95V30H145.533V26.99C145.533 26.4033 145.383 25.9567 145.083 25.65C144.789 25.3433 144.376 25.19 143.843 25.19C143.436 25.19 143.083 25.2733 142.783 25.44C142.483 25.6067 142.253 25.84 142.093 26.14C141.939 26.44 141.863 26.8 141.863 27.22V30H141.363V24.78H141.843V26.23L141.773 26.07C141.933 25.6567 142.196 25.3333 142.563 25.1C142.929 24.86 143.379 24.74 143.913 24.74ZM149.611 30.04C149.151 30.04 148.798 29.9133 148.551 29.66C148.311 29.4067 148.191 29.06 148.191 28.62V23.64H148.691V28.57C148.691 28.9033 148.775 29.16 148.941 29.34C149.108 29.52 149.348 29.61 149.661 29.61C149.988 29.61 150.258 29.5133 150.471 29.32L150.681 29.67C150.548 29.7967 150.385 29.89 150.191 29.95C150.005 30.01 149.811 30.04 149.611 30.04ZM147.231 25.21V24.78H150.351V25.21H147.231ZM151.538 27.54V27.09H154.108V27.54H151.538ZM155.947 30V23H156.457V29.54H160.487V30H155.947ZM163.588 30.04C163.088 30.04 162.642 29.9267 162.248 29.7C161.862 29.4733 161.552 29.16 161.318 28.76C161.092 28.36 160.978 27.9033 160.978 27.39C160.978 26.87 161.092 26.4133 161.318 26.02C161.552 25.62 161.862 25.3067 162.248 25.08C162.642 24.8533 163.088 24.74 163.588 24.74C164.088 24.74 164.535 24.8533 164.928 25.08C165.322 25.3067 165.632 25.62 165.858 26.02C166.085 26.4133 166.198 26.87 166.198 27.39C166.198 27.9033 166.085 28.36 165.858 28.76C165.632 29.16 165.322 29.4733 164.928 29.7C164.535 29.9267 164.088 30.04 163.588 30.04ZM163.588 29.59C163.988 29.59 164.348 29.5 164.668 29.32C164.988 29.1333 165.238 28.8733 165.418 28.54C165.598 28.2067 165.688 27.8233 165.688 27.39C165.688 26.95 165.598 26.5667 165.418 26.24C165.238 25.9067 164.988 25.65 164.668 25.47C164.348 25.2833 163.988 25.19 163.588 25.19C163.188 25.19 162.828 25.2833 162.508 25.47C162.195 25.65 161.945 25.9067 161.758 26.24C161.578 26.5667 161.488 26.95 161.488 27.39C161.488 27.8233 161.578 28.2067 161.758 28.54C161.945 28.8733 162.195 29.1333 162.508 29.32C162.828 29.5 163.188 29.59 163.588 29.59ZM169.819 30.04C169.313 30.04 168.859 29.9267 168.459 29.7C168.066 29.4733 167.753 29.16 167.519 28.76C167.293 28.36 167.179 27.9033 167.179 27.39C167.179 26.87 167.293 26.41 167.519 26.01C167.753 25.61 168.066 25.3 168.459 25.08C168.859 24.8533 169.313 24.74 169.819 24.74C170.239 24.74 170.619 24.82 170.959 24.98C171.306 25.14 171.586 25.38 171.799 25.7L171.429 25.97C171.243 25.7033 171.009 25.5067 170.729 25.38C170.449 25.2533 170.146 25.19 169.819 25.19C169.413 25.19 169.046 25.2833 168.719 25.47C168.399 25.65 168.146 25.9067 167.959 26.24C167.779 26.5667 167.689 26.95 167.689 27.39C167.689 27.83 167.779 28.2167 167.959 28.55C168.146 28.8767 168.399 29.1333 168.719 29.32C169.046 29.5 169.413 29.59 169.819 29.59C170.146 29.59 170.449 29.5267 170.729 29.4C171.009 29.2733 171.243 29.0767 171.429 28.81L171.799 29.08C171.586 29.4 171.306 29.64 170.959 29.8C170.619 29.96 170.239 30.04 169.819 30.04ZM173.588 28.56L173.598 27.93L177.048 24.78H177.688L175.398 26.93L175.098 27.18L173.588 28.56ZM173.208 30V22.58H173.708V30H173.208ZM177.288 30L175.008 27.14L175.348 26.77L177.908 30H177.288ZM178.977 31.94H178.507C178.894 31.2733 179.177 30.5533 179.357 29.78C179.537 29.0067 179.627 28.1667 179.627 27.26C179.627 26.3533 179.537 25.5133 179.357 24.74C179.177 23.9667 178.894 23.2467 178.507 22.58H178.977C179.344 23.1667 179.627 23.8633 179.827 24.67C180.027 25.47 180.127 26.3333 180.127 27.26C180.127 28.1867 180.027 29.0467 179.827 29.84C179.627 30.6333 179.344 31.3333 178.977 31.94Z" fill="black"/>
</svg>
