<svg width="387" height="32" viewBox="0 0 387 32" fill="none" xmlns="http://www.w3.org/2000/svg">
<path d="M29.354 14.14C28.5887 14.14 27.856 14.0327 27.156 13.818C26.456 13.594 25.9007 13.3093 25.49 12.964L26.12 11.55C26.512 11.858 26.9973 12.1147 27.576 12.32C28.1547 12.5253 28.7473 12.628 29.354 12.628C29.8673 12.628 30.2827 12.572 30.6 12.46C30.9173 12.348 31.1507 12.1987 31.3 12.012C31.4493 11.816 31.524 11.5967 31.524 11.354C31.524 11.0553 31.4167 10.8173 31.202 10.64C30.9873 10.4533 30.7073 10.3087 30.362 10.206C30.026 10.094 29.648 9.99133 29.228 9.898C28.8173 9.80467 28.402 9.69733 27.982 9.576C27.5713 9.44533 27.1933 9.282 26.848 9.086C26.512 8.88067 26.2367 8.61 26.022 8.274C25.8073 7.938 25.7 7.50867 25.7 6.986C25.7 6.454 25.84 5.96867 26.12 5.53C26.4093 5.082 26.8433 4.72733 27.422 4.466C28.01 4.19533 28.752 4.06 29.648 4.06C30.236 4.06 30.8193 4.13467 31.398 4.284C31.9767 4.43333 32.4807 4.648 32.91 4.928L32.336 6.342C31.8973 6.08067 31.4447 5.88933 30.978 5.768C30.5113 5.63733 30.0633 5.572 29.634 5.572C29.13 5.572 28.7193 5.63267 28.402 5.754C28.094 5.87533 27.8653 6.034 27.716 6.23C27.576 6.426 27.506 6.65 27.506 6.902C27.506 7.20067 27.6087 7.44333 27.814 7.63C28.0287 7.80733 28.304 7.94733 28.64 8.05C28.9853 8.15267 29.368 8.25533 29.788 8.358C30.208 8.45133 30.6233 8.55867 31.034 8.68C31.454 8.80133 31.832 8.96 32.168 9.156C32.5133 9.352 32.7887 9.618 32.994 9.954C33.2087 10.29 33.316 10.7147 33.316 11.228C33.316 11.7507 33.1713 12.236 32.882 12.684C32.602 13.1227 32.168 13.4773 31.58 13.748C30.992 14.0093 30.25 14.14 29.354 14.14ZM37.7667 14.098C36.9454 14.098 36.3107 13.888 35.8627 13.468C35.4147 13.0387 35.1907 12.4087 35.1907 11.578V4.872H36.9407V11.536C36.9407 11.8907 37.0294 12.166 37.2067 12.362C37.3934 12.558 37.65 12.656 37.9767 12.656C38.3687 12.656 38.6954 12.5533 38.9567 12.348L39.4467 13.594C39.2414 13.762 38.9894 13.888 38.6907 13.972C38.392 14.056 38.084 14.098 37.7667 14.098ZM33.9587 7.98V6.58H38.9427V7.98H33.9587ZM40.8863 14V6.524H42.5523V8.582L42.3563 7.98C42.5803 7.476 42.9303 7.09333 43.4063 6.832C43.8916 6.57067 44.4936 6.44 45.2123 6.44V8.106C45.1376 8.08733 45.0676 8.078 45.0023 8.078C44.9369 8.06867 44.8716 8.064 44.8063 8.064C44.1436 8.064 43.6163 8.26 43.2243 8.652C42.8323 9.03467 42.6363 9.60867 42.6363 10.374V14H40.8863ZM50.1425 14.098C49.3118 14.098 48.5838 13.9347 47.9585 13.608C47.3425 13.272 46.8618 12.8147 46.5165 12.236C46.1805 11.6573 46.0125 10.9993 46.0125 10.262C46.0125 9.51533 46.1758 8.85733 46.5025 8.288C46.8385 7.70933 47.2958 7.25667 47.8745 6.93C48.4625 6.60333 49.1298 6.44 49.8765 6.44C50.6045 6.44 51.2531 6.59867 51.8225 6.916C52.3918 7.23333 52.8398 7.68133 53.1665 8.26C53.4931 8.83867 53.6565 9.52 53.6565 10.304C53.6565 10.3787 53.6518 10.4627 53.6425 10.556C53.6425 10.6493 53.6378 10.738 53.6285 10.822H47.3985V9.66H52.7045L52.0185 10.024C52.0278 9.59467 51.9391 9.21667 51.7525 8.89C51.5658 8.56333 51.3091 8.30667 50.9825 8.12C50.6651 7.93333 50.2965 7.84 49.8765 7.84C49.4471 7.84 49.0691 7.93333 48.7425 8.12C48.4251 8.30667 48.1731 8.568 47.9865 8.904C47.8091 9.23067 47.7205 9.618 47.7205 10.066V10.346C47.7205 10.794 47.8231 11.1907 48.0285 11.536C48.2338 11.8813 48.5231 12.1473 48.8965 12.334C49.2698 12.5207 49.6991 12.614 50.1845 12.614C50.6045 12.614 50.9825 12.5487 51.3185 12.418C51.6545 12.2873 51.9531 12.082 52.2145 11.802L53.1525 12.88C52.8165 13.272 52.3918 13.5753 51.8785 13.79C51.3745 13.9953 50.7958 14.098 50.1425 14.098ZM58.1515 14.098C57.3301 14.098 56.6955 13.888 56.2475 13.468C55.7995 13.0387 55.5755 12.4087 55.5755 11.578V4.872H57.3255V11.536C57.3255 11.8907 57.4141 12.166 57.5915 12.362C57.7781 12.558 58.0348 12.656 58.3615 12.656C58.7535 12.656 59.0801 12.5533 59.3415 12.348L59.8315 13.594C59.6261 13.762 59.3741 13.888 59.0755 13.972C58.7768 14.056 58.4688 14.098 58.1515 14.098ZM54.3435 7.98V6.58H59.3275V7.98H54.3435ZM64.455 14.098C63.671 14.098 62.971 13.9347 62.355 13.608C61.7483 13.272 61.2723 12.8147 60.927 12.236C60.5816 11.6573 60.409 10.9993 60.409 10.262C60.409 9.51533 60.5816 8.85733 60.927 8.288C61.2723 7.70933 61.7483 7.25667 62.355 6.93C62.971 6.60333 63.671 6.44 64.455 6.44C65.183 6.44 65.8223 6.58933 66.373 6.888C66.933 7.17733 67.3576 7.60667 67.647 8.176L66.303 8.96C66.079 8.60533 65.8036 8.344 65.477 8.176C65.1596 8.008 64.8143 7.924 64.441 7.924C64.0116 7.924 63.6243 8.01733 63.279 8.204C62.9336 8.39067 62.663 8.66133 62.467 9.016C62.271 9.36133 62.173 9.77667 62.173 10.262C62.173 10.7473 62.271 11.1673 62.467 11.522C62.663 11.8673 62.9336 12.1333 63.279 12.32C63.6243 12.5067 64.0116 12.6 64.441 12.6C64.8143 12.6 65.1596 12.516 65.477 12.348C65.8036 12.18 66.079 11.9187 66.303 11.564L67.647 12.348C67.3576 12.908 66.933 13.342 66.373 13.65C65.8223 13.9487 65.183 14.098 64.455 14.098ZM73.3334 6.44C73.9307 6.44 74.4627 6.55667 74.9294 6.79C75.4054 7.02333 75.7787 7.38267 76.0494 7.868C76.32 8.344 76.4554 8.96 76.4554 9.716V14H74.7054V9.94C74.7054 9.27733 74.5467 8.78267 74.2294 8.456C73.9214 8.12933 73.4874 7.966 72.9274 7.966C72.5167 7.966 72.1527 8.05 71.8354 8.218C71.518 8.386 71.2707 8.638 71.0934 8.974C70.9254 9.30067 70.8414 9.716 70.8414 10.22V14H69.0914V3.612H70.8414V8.54L70.4634 7.924C70.7247 7.448 71.1027 7.084 71.5974 6.832C72.1014 6.57067 72.68 6.44 73.3334 6.44ZM84.3785 8.708H89.2645V10.248H84.3785V8.708ZM84.5325 14H82.7125V4.2H89.8665V5.726H84.5325V14ZM91.4585 14V6.524H93.2085V14H91.4585ZM92.3405 5.292C92.0139 5.292 91.7432 5.18933 91.5285 4.984C91.3232 4.77867 91.2205 4.53133 91.2205 4.242C91.2205 3.94333 91.3232 3.696 91.5285 3.5C91.7432 3.29467 92.0139 3.192 92.3405 3.192C92.6672 3.192 92.9332 3.29 93.1385 3.486C93.3532 3.67267 93.4605 3.91067 93.4605 4.2C93.4605 4.508 93.3579 4.76933 93.1525 4.984C92.9472 5.18933 92.6765 5.292 92.3405 5.292ZM95.5054 14V3.612H97.2554V14H95.5054ZM108.988 6.44C109.586 6.44 110.113 6.55667 110.57 6.79C111.037 7.02333 111.401 7.38267 111.662 7.868C111.924 8.344 112.054 8.96 112.054 9.716V14H110.304V9.94C110.304 9.27733 110.16 8.78267 109.87 8.456C109.581 8.12933 109.166 7.966 108.624 7.966C108.242 7.966 107.901 8.05 107.602 8.218C107.313 8.386 107.084 8.63333 106.916 8.96C106.758 9.28667 106.678 9.702 106.678 10.206V14H104.928V9.94C104.928 9.27733 104.784 8.78267 104.494 8.456C104.205 8.12933 103.79 7.966 103.248 7.966C102.866 7.966 102.525 8.05 102.226 8.218C101.937 8.386 101.708 8.63333 101.54 8.96C101.382 9.28667 101.302 9.702 101.302 10.206V14H99.5523V6.524H101.218V8.512L100.924 7.924C101.176 7.43867 101.54 7.07 102.016 6.818C102.502 6.566 103.052 6.44 103.668 6.44C104.368 6.44 104.975 6.61267 105.488 6.958C106.011 7.30333 106.356 7.826 106.524 8.526L105.838 8.288C106.081 7.728 106.482 7.28 107.042 6.944C107.602 6.608 108.251 6.44 108.988 6.44Z" fill="black"/>
<path d="M4.704 14.14C3.92933 14.14 3.22933 13.944 2.604 13.552C1.988 13.16 1.50267 12.5907 1.148 11.844C0.793333 11.088 0.616 10.1733 0.616 9.1C0.616 8.02667 0.793333 7.11667 1.148 6.37C1.50267 5.614 1.988 5.04 2.604 4.648C3.22933 4.256 3.92933 4.06 4.704 4.06C5.488 4.06 6.188 4.256 6.804 4.648C7.42 5.04 7.90533 5.614 8.26 6.37C8.624 7.11667 8.806 8.02667 8.806 9.1C8.806 10.1733 8.624 11.088 8.26 11.844C7.90533 12.5907 7.42 13.16 6.804 13.552C6.188 13.944 5.488 14.14 4.704 14.14ZM4.704 12.558C5.16133 12.558 5.558 12.4367 5.894 12.194C6.23 11.942 6.49133 11.5593 6.678 11.046C6.874 10.5327 6.972 9.884 6.972 9.1C6.972 8.30667 6.874 7.658 6.678 7.154C6.49133 6.64067 6.23 6.26267 5.894 6.02C5.558 5.768 5.16133 5.642 4.704 5.642C4.26533 5.642 3.87333 5.768 3.528 6.02C3.192 6.26267 2.926 6.64067 2.73 7.154C2.54333 7.658 2.45 8.30667 2.45 9.1C2.45 9.884 2.54333 10.5327 2.73 11.046C2.926 11.5593 3.192 11.942 3.528 12.194C3.87333 12.4367 4.26533 12.558 4.704 12.558ZM9.89625 14V12.782L13.7883 9.086C14.1149 8.778 14.3576 8.50733 14.5163 8.274C14.6749 8.04067 14.7776 7.826 14.8243 7.63C14.8803 7.42467 14.9083 7.23333 14.9083 7.056C14.9083 6.608 14.7543 6.26267 14.4463 6.02C14.1383 5.768 13.6856 5.642 13.0883 5.642C12.6123 5.642 12.1783 5.726 11.7863 5.894C11.4036 6.062 11.0723 6.31867 10.7923 6.664L9.51825 5.684C9.90092 5.17067 10.4143 4.774 11.0583 4.494C11.7116 4.20467 12.4396 4.06 13.2423 4.06C13.9516 4.06 14.5676 4.17667 15.0903 4.41C15.6223 4.634 16.0283 4.956 16.3083 5.376C16.5976 5.796 16.7423 6.29533 16.7423 6.874C16.7423 7.19133 16.7003 7.50867 16.6163 7.826C16.5323 8.134 16.3736 8.46067 16.1403 8.806C15.9069 9.15133 15.5663 9.53867 15.1183 9.968L11.7723 13.146L11.3943 12.46H17.1202V14H9.89625ZM19.3994 14.098C19.0821 14.098 18.8114 13.9907 18.5874 13.776C18.3634 13.552 18.2514 13.272 18.2514 12.936C18.2514 12.5813 18.3634 12.3013 18.5874 12.096C18.8114 11.8813 19.0821 11.774 19.3994 11.774C19.7167 11.774 19.9874 11.8813 20.2114 12.096C20.4354 12.3013 20.5474 12.5813 20.5474 12.936C20.5474 13.272 20.4354 13.552 20.2114 13.776C19.9874 13.9907 19.7167 14.098 19.3994 14.098Z" fill="black"/>
<path d="M372.712 17.17C371.771 17.17 370.921 16.932 370.162 16.456C369.414 15.98 368.825 15.2887 368.394 14.382C367.963 13.464 367.748 12.3533 367.748 11.05C367.748 9.74667 367.963 8.64167 368.394 7.735C368.825 6.817 369.414 6.12 370.162 5.644C370.921 5.168 371.771 4.93 372.712 4.93C373.664 4.93 374.514 5.168 375.262 5.644C376.01 6.12 376.599 6.817 377.03 7.735C377.472 8.64167 377.693 9.74667 377.693 11.05C377.693 12.3533 377.472 13.464 377.03 14.382C376.599 15.2887 376.01 15.98 375.262 16.456C374.514 16.932 373.664 17.17 372.712 17.17ZM372.712 15.249C373.267 15.249 373.749 15.1017 374.157 14.807C374.565 14.501 374.882 14.0363 375.109 13.413C375.347 12.7897 375.466 12.002 375.466 11.05C375.466 10.0867 375.347 9.299 375.109 8.687C374.882 8.06367 374.565 7.60467 374.157 7.31C373.749 7.004 373.267 6.851 372.712 6.851C372.179 6.851 371.703 7.004 371.284 7.31C370.876 7.60467 370.553 8.06367 370.315 8.687C370.088 9.299 369.975 10.0867 369.975 11.05C369.975 12.002 370.088 12.7897 370.315 13.413C370.553 14.0363 370.876 14.501 371.284 14.807C371.703 15.1017 372.179 15.249 372.712 15.249ZM382.944 17V5.95L383.913 6.953H380.428V5.1H385.154V17H382.944Z" fill="#16713D"/>
<path d="M27.26 31.94C26.8933 31.3333 26.61 30.6333 26.41 29.84C26.2167 29.0467 26.12 28.1867 26.12 27.26C26.12 26.3333 26.2167 25.47 26.41 24.67C26.61 23.8633 26.8933 23.1667 27.26 22.58H27.74C27.3467 23.2467 27.06 23.9667 26.88 24.74C26.7 25.5133 26.61 26.3533 26.61 27.26C26.61 28.1667 26.7 29.0067 26.88 29.78C27.06 30.5533 27.3467 31.2733 27.74 31.94H27.26ZM31.2729 30.05C30.7529 30.05 30.2596 29.9633 29.7929 29.79C29.3329 29.61 28.9762 29.38 28.7229 29.1L28.9529 28.72C29.1929 28.9667 29.5196 29.1767 29.9329 29.35C30.3529 29.5167 30.7962 29.6 31.2629 29.6C31.7296 29.6 32.1096 29.54 32.4029 29.42C32.7029 29.2933 32.9229 29.1267 33.0629 28.92C33.2096 28.7133 33.2829 28.4833 33.2829 28.23C33.2829 27.93 33.2029 27.69 33.0429 27.51C32.8829 27.33 32.6729 27.1867 32.4129 27.08C32.1529 26.9733 31.8696 26.8833 31.5629 26.81C31.2562 26.7367 30.9462 26.66 30.6329 26.58C30.3196 26.4933 30.0329 26.3833 29.7729 26.25C29.5129 26.1167 29.3029 25.9367 29.1429 25.71C28.9896 25.4767 28.9129 25.1767 28.9129 24.81C28.9129 24.4767 28.9996 24.17 29.1729 23.89C29.3462 23.61 29.6162 23.3833 29.9829 23.21C30.3496 23.0367 30.8196 22.95 31.3929 22.95C31.7796 22.95 32.1596 23.0067 32.5329 23.12C32.9129 23.2333 33.2362 23.3867 33.5029 23.58L33.3129 23.99C33.0196 23.79 32.7029 23.6433 32.3629 23.55C32.0296 23.45 31.7062 23.4 31.3929 23.4C30.9462 23.4 30.5762 23.4633 30.2829 23.59C29.9896 23.7167 29.7729 23.8867 29.6329 24.1C29.4929 24.3067 29.4229 24.54 29.4229 24.8C29.4229 25.1 29.4996 25.34 29.6529 25.52C29.8129 25.7 30.0229 25.8433 30.2829 25.95C30.5429 26.0567 30.8296 26.1467 31.1429 26.22C31.4562 26.2933 31.7662 26.3733 32.0729 26.46C32.3796 26.54 32.6629 26.6467 32.9229 26.78C33.1829 26.9133 33.3929 27.0933 33.5529 27.32C33.7129 27.5467 33.7929 27.84 33.7929 28.2C33.7929 28.5267 33.7029 28.8333 33.5229 29.12C33.3429 29.4 33.0662 29.6267 32.6929 29.8C32.3262 29.9667 31.8529 30.05 31.2729 30.05ZM37.4866 30.04C36.96 30.04 36.4933 29.9267 36.0866 29.7C35.6866 29.4733 35.37 29.16 35.1366 28.76C34.91 28.36 34.7966 27.9033 34.7966 27.39C34.7966 26.87 34.9033 26.4133 35.1166 26.02C35.3366 25.62 35.6366 25.3067 36.0166 25.08C36.3966 24.8533 36.8233 24.74 37.2966 24.74C37.77 24.74 38.1933 24.85 38.5666 25.07C38.9466 25.29 39.2433 25.6 39.4566 26C39.6766 26.3933 39.7866 26.85 39.7866 27.37C39.7866 27.39 39.7833 27.4133 39.7766 27.44C39.7766 27.46 39.7766 27.4833 39.7766 27.51H35.1666V27.12H39.5066L39.3066 27.31C39.3133 26.9033 39.2266 26.54 39.0466 26.22C38.8733 25.8933 38.6366 25.64 38.3366 25.46C38.0366 25.2733 37.69 25.18 37.2966 25.18C36.91 25.18 36.5633 25.2733 36.2566 25.46C35.9566 25.64 35.72 25.8933 35.5466 26.22C35.3733 26.54 35.2866 26.9067 35.2866 27.32V27.41C35.2866 27.8367 35.38 28.2167 35.5666 28.55C35.76 28.8767 36.0233 29.1333 36.3566 29.32C36.69 29.5 37.07 29.59 37.4966 29.59C37.83 29.59 38.14 29.53 38.4266 29.41C38.72 29.29 38.9666 29.1067 39.1666 28.86L39.4566 29.19C39.23 29.47 38.9433 29.6833 38.5966 29.83C38.2566 29.97 37.8866 30.04 37.4866 30.04ZM43.4034 30.04C42.8968 30.04 42.4434 29.9267 42.0434 29.7C41.6501 29.4733 41.3368 29.16 41.1034 28.76C40.8768 28.36 40.7634 27.9033 40.7634 27.39C40.7634 26.87 40.8768 26.41 41.1034 26.01C41.3368 25.61 41.6501 25.3 42.0434 25.08C42.4434 24.8533 42.8968 24.74 43.4034 24.74C43.8234 24.74 44.2034 24.82 44.5434 24.98C44.8901 25.14 45.1701 25.38 45.3834 25.7L45.0134 25.97C44.8268 25.7033 44.5934 25.5067 44.3134 25.38C44.0334 25.2533 43.7301 25.19 43.4034 25.19C42.9968 25.19 42.6301 25.2833 42.3034 25.47C41.9834 25.65 41.7301 25.9067 41.5434 26.24C41.3634 26.5667 41.2734 26.95 41.2734 27.39C41.2734 27.83 41.3634 28.2167 41.5434 28.55C41.7301 28.8767 41.9834 29.1333 42.3034 29.32C42.6301 29.5 42.9968 29.59 43.4034 29.59C43.7301 29.59 44.0334 29.5267 44.3134 29.4C44.5934 29.2733 44.8268 29.0767 45.0134 28.81L45.3834 29.08C45.1701 29.4 44.8901 29.64 44.5434 29.8C44.2034 29.96 43.8234 30.04 43.4034 30.04ZM49.0003 30.04C48.5536 30.04 48.167 29.96 47.8403 29.8C47.5136 29.6333 47.2603 29.3867 47.0803 29.06C46.907 28.7267 46.8203 28.3167 46.8203 27.83V24.78H47.3203V27.79C47.3203 28.3767 47.4703 28.8233 47.7703 29.13C48.0703 29.4367 48.4936 29.59 49.0403 29.59C49.4336 29.59 49.7736 29.5067 50.0603 29.34C50.347 29.1733 50.567 28.94 50.7203 28.64C50.8736 28.3333 50.9503 27.9733 50.9503 27.56V24.78H51.4503V30H50.9703V28.55L51.0403 28.72C50.887 29.1267 50.6303 29.45 50.2703 29.69C49.917 29.9233 49.4936 30.04 49.0003 30.04ZM53.5698 30V24.78H54.0498V26.21L53.9998 26.05C54.1464 25.63 54.3931 25.3067 54.7398 25.08C55.0864 24.8533 55.5198 24.74 56.0398 24.74V25.23C56.0198 25.23 55.9998 25.23 55.9798 25.23C55.9598 25.2233 55.9398 25.22 55.9198 25.22C55.3398 25.22 54.8864 25.4033 54.5598 25.77C54.2331 26.13 54.0698 26.6333 54.0698 27.28V30H53.5698ZM59.4886 30.04C58.9619 30.04 58.4953 29.9267 58.0886 29.7C57.6886 29.4733 57.3719 29.16 57.1386 28.76C56.9119 28.36 56.7986 27.9033 56.7986 27.39C56.7986 26.87 56.9053 26.4133 57.1186 26.02C57.3386 25.62 57.6386 25.3067 58.0186 25.08C58.3986 24.8533 58.8253 24.74 59.2986 24.74C59.7719 24.74 60.1953 24.85 60.5686 25.07C60.9486 25.29 61.2453 25.6 61.4586 26C61.6786 26.3933 61.7886 26.85 61.7886 27.37C61.7886 27.39 61.7853 27.4133 61.7786 27.44C61.7786 27.46 61.7786 27.4833 61.7786 27.51H57.1686V27.12H61.5086L61.3086 27.31C61.3153 26.9033 61.2286 26.54 61.0486 26.22C60.8753 25.8933 60.6386 25.64 60.3386 25.46C60.0386 25.2733 59.6919 25.18 59.2986 25.18C58.9119 25.18 58.5653 25.2733 58.2586 25.46C57.9586 25.64 57.7219 25.8933 57.5486 26.22C57.3753 26.54 57.2886 26.9067 57.2886 27.32V27.41C57.2886 27.8367 57.3819 28.2167 57.5686 28.55C57.7619 28.8767 58.0253 29.1333 58.3586 29.32C58.6919 29.5 59.0719 29.59 59.4986 29.59C59.8319 29.59 60.1419 29.53 60.4286 29.41C60.7219 29.29 60.9686 29.1067 61.1686 28.86L61.4586 29.19C61.2319 29.47 60.9453 29.6833 60.5986 29.83C60.2586 29.97 59.8886 30.04 59.4886 30.04ZM63.2754 30.04C63.1621 30.04 63.0621 30 62.9754 29.92C62.8954 29.8333 62.8554 29.73 62.8554 29.61C62.8554 29.49 62.8954 29.39 62.9754 29.31C63.0621 29.23 63.1621 29.19 63.2754 29.19C63.3887 29.19 63.4854 29.23 63.5654 29.31C63.6521 29.39 63.6954 29.49 63.6954 29.61C63.6954 29.73 63.6521 29.8333 63.5654 29.92C63.4854 30 63.3887 30.04 63.2754 30.04ZM69.9057 30.05C69.3857 30.05 68.8924 29.9633 68.4257 29.79C67.9657 29.61 67.609 29.38 67.3557 29.1L67.5857 28.72C67.8257 28.9667 68.1524 29.1767 68.5657 29.35C68.9857 29.5167 69.429 29.6 69.8957 29.6C70.3624 29.6 70.7424 29.54 71.0357 29.42C71.3357 29.2933 71.5557 29.1267 71.6957 28.92C71.8424 28.7133 71.9157 28.4833 71.9157 28.23C71.9157 27.93 71.8357 27.69 71.6757 27.51C71.5157 27.33 71.3057 27.1867 71.0457 27.08C70.7857 26.9733 70.5024 26.8833 70.1957 26.81C69.889 26.7367 69.579 26.66 69.2657 26.58C68.9524 26.4933 68.6657 26.3833 68.4057 26.25C68.1457 26.1167 67.9357 25.9367 67.7757 25.71C67.6224 25.4767 67.5457 25.1767 67.5457 24.81C67.5457 24.4767 67.6324 24.17 67.8057 23.89C67.979 23.61 68.249 23.3833 68.6157 23.21C68.9824 23.0367 69.4524 22.95 70.0257 22.95C70.4124 22.95 70.7924 23.0067 71.1657 23.12C71.5457 23.2333 71.869 23.3867 72.1357 23.58L71.9457 23.99C71.6524 23.79 71.3357 23.6433 70.9957 23.55C70.6624 23.45 70.339 23.4 70.0257 23.4C69.579 23.4 69.209 23.4633 68.9157 23.59C68.6224 23.7167 68.4057 23.8867 68.2657 24.1C68.1257 24.3067 68.0557 24.54 68.0557 24.8C68.0557 25.1 68.1324 25.34 68.2857 25.52C68.4457 25.7 68.6557 25.8433 68.9157 25.95C69.1757 26.0567 69.4624 26.1467 69.7757 26.22C70.089 26.2933 70.399 26.3733 70.7057 26.46C71.0124 26.54 71.2957 26.6467 71.5557 26.78C71.8157 26.9133 72.0257 27.0933 72.1857 27.32C72.3457 27.5467 72.4257 27.84 72.4257 28.2C72.4257 28.5267 72.3357 28.8333 72.1557 29.12C71.9757 29.4 71.699 29.6267 71.3257 29.8C70.959 29.9667 70.4857 30.05 69.9057 30.05ZM75.5195 30.04C75.0595 30.04 74.7061 29.9133 74.4595 29.66C74.2195 29.4067 74.0995 29.06 74.0995 28.62V23.64H74.5995V28.57C74.5995 28.9033 74.6828 29.16 74.8495 29.34C75.0161 29.52 75.2561 29.61 75.5695 29.61C75.8961 29.61 76.1661 29.5133 76.3795 29.32L76.5895 29.67C76.4561 29.7967 76.2928 29.89 76.0995 29.95C75.9128 30.01 75.7195 30.04 75.5195 30.04ZM73.1395 25.21V24.78H76.2595V25.21H73.1395ZM77.9838 30V24.78H78.4638V26.21L78.4138 26.05C78.5605 25.63 78.8072 25.3067 79.1538 25.08C79.5005 24.8533 79.9338 24.74 80.4538 24.74V25.23C80.4338 25.23 80.4138 25.23 80.3938 25.23C80.3738 25.2233 80.3538 25.22 80.3338 25.22C79.7538 25.22 79.3005 25.4033 78.9738 25.77C78.6472 26.13 78.4838 26.6333 78.4838 27.28V30H77.9838ZM83.8227 30.04C83.3227 30.04 82.876 29.9267 82.4827 29.7C82.096 29.4733 81.786 29.16 81.5527 28.76C81.326 28.36 81.2127 27.9033 81.2127 27.39C81.2127 26.87 81.326 26.4133 81.5527 26.02C81.786 25.62 82.096 25.3067 82.4827 25.08C82.876 24.8533 83.3227 24.74 83.8227 24.74C84.3227 24.74 84.7693 24.8533 85.1627 25.08C85.556 25.3067 85.866 25.62 86.0927 26.02C86.3193 26.4133 86.4327 26.87 86.4327 27.39C86.4327 27.9033 86.3193 28.36 86.0927 28.76C85.866 29.16 85.556 29.4733 85.1627 29.7C84.7693 29.9267 84.3227 30.04 83.8227 30.04ZM83.8227 29.59C84.2227 29.59 84.5827 29.5 84.9027 29.32C85.2227 29.1333 85.4727 28.8733 85.6527 28.54C85.8327 28.2067 85.9227 27.8233 85.9227 27.39C85.9227 26.95 85.8327 26.5667 85.6527 26.24C85.4727 25.9067 85.2227 25.65 84.9027 25.47C84.5827 25.2833 84.2227 25.19 83.8227 25.19C83.4227 25.19 83.0627 25.2833 82.7427 25.47C82.4293 25.65 82.1793 25.9067 81.9927 26.24C81.8127 26.5667 81.7227 26.95 81.7227 27.39C81.7227 27.8233 81.8127 28.2067 81.9927 28.54C82.1793 28.8733 82.4293 29.1333 82.7427 29.32C83.0627 29.5 83.4227 29.59 83.8227 29.59ZM90.5338 24.74C90.9605 24.74 91.3305 24.8233 91.6438 24.99C91.9638 25.15 92.2105 25.3967 92.3838 25.73C92.5638 26.0567 92.6538 26.4633 92.6538 26.95V30H92.1538V26.99C92.1538 26.4033 92.0038 25.9567 91.7038 25.65C91.4105 25.3433 90.9972 25.19 90.4638 25.19C90.0572 25.19 89.7038 25.2733 89.4038 25.44C89.1038 25.6067 88.8738 25.84 88.7138 26.14C88.5605 26.44 88.4838 26.8 88.4838 27.22V30H87.9838V24.78H88.4638V26.23L88.3938 26.07C88.5538 25.6567 88.8172 25.3333 89.1838 25.1C89.5505 24.86 90.0005 24.74 90.5338 24.74ZM96.8823 31.98C96.409 31.98 95.959 31.9067 95.5323 31.76C95.1057 31.6133 94.759 31.41 94.4923 31.15L94.7623 30.77C95.0223 31.01 95.3323 31.1967 95.6923 31.33C96.059 31.4633 96.4523 31.53 96.8723 31.53C97.5723 31.53 98.0857 31.3667 98.4123 31.04C98.7457 30.7133 98.9123 30.2 98.9123 29.5V28.05L99.0123 27.27L98.9323 26.49V24.78H99.4123V29.44C99.4123 30.3133 99.199 30.9533 98.7723 31.36C98.3523 31.7733 97.7223 31.98 96.8823 31.98ZM96.7423 29.81C96.249 29.81 95.8057 29.7033 95.4123 29.49C95.0257 29.27 94.7157 28.97 94.4823 28.59C94.2557 28.2033 94.1423 27.7633 94.1423 27.27C94.1423 26.77 94.2557 26.33 94.4823 25.95C94.7157 25.57 95.0257 25.2733 95.4123 25.06C95.8057 24.8467 96.249 24.74 96.7423 24.74C97.2157 24.74 97.639 24.8433 98.0123 25.05C98.3923 25.25 98.6923 25.54 98.9123 25.92C99.1323 26.2933 99.2423 26.7433 99.2423 27.27C99.2423 27.79 99.1323 28.24 98.9123 28.62C98.6923 29 98.3923 29.2933 98.0123 29.5C97.639 29.7067 97.2157 29.81 96.7423 29.81ZM96.7823 29.36C97.2023 29.36 97.5723 29.2733 97.8923 29.1C98.2123 28.92 98.4623 28.6733 98.6423 28.36C98.829 28.04 98.9223 27.6767 98.9223 27.27C98.9223 26.8567 98.829 26.4933 98.6423 26.18C98.4623 25.8667 98.2123 25.6233 97.8923 25.45C97.5723 25.2767 97.2023 25.19 96.7823 25.19C96.3757 25.19 96.009 25.2767 95.6823 25.45C95.3623 25.6233 95.109 25.8667 94.9223 26.18C94.7423 26.4933 94.6523 26.8567 94.6523 27.27C94.6523 27.6767 94.7423 28.04 94.9223 28.36C95.109 28.6733 95.3623 28.92 95.6823 29.1C96.009 29.2733 96.3757 29.36 96.7823 29.36ZM101.469 30.04C101.355 30.04 101.255 30 101.169 29.92C101.089 29.8333 101.049 29.73 101.049 29.61C101.049 29.49 101.089 29.39 101.169 29.31C101.255 29.23 101.355 29.19 101.469 29.19C101.582 29.19 101.679 29.23 101.759 29.31C101.845 29.39 101.889 29.49 101.889 29.61C101.889 29.73 101.845 29.8333 101.759 29.92C101.679 30 101.582 30.04 101.469 30.04ZM108.099 30.05C107.579 30.05 107.086 29.9633 106.619 29.79C106.159 29.61 105.802 29.38 105.549 29.1L105.779 28.72C106.019 28.9667 106.346 29.1767 106.759 29.35C107.179 29.5167 107.622 29.6 108.089 29.6C108.556 29.6 108.936 29.54 109.229 29.42C109.529 29.2933 109.749 29.1267 109.889 28.92C110.036 28.7133 110.109 28.4833 110.109 28.23C110.109 27.93 110.029 27.69 109.869 27.51C109.709 27.33 109.499 27.1867 109.239 27.08C108.979 26.9733 108.696 26.8833 108.389 26.81C108.082 26.7367 107.772 26.66 107.459 26.58C107.146 26.4933 106.859 26.3833 106.599 26.25C106.339 26.1167 106.129 25.9367 105.969 25.71C105.816 25.4767 105.739 25.1767 105.739 24.81C105.739 24.4767 105.826 24.17 105.999 23.89C106.172 23.61 106.442 23.3833 106.809 23.21C107.176 23.0367 107.646 22.95 108.219 22.95C108.606 22.95 108.986 23.0067 109.359 23.12C109.739 23.2333 110.062 23.3867 110.329 23.58L110.139 23.99C109.846 23.79 109.529 23.6433 109.189 23.55C108.856 23.45 108.532 23.4 108.219 23.4C107.772 23.4 107.402 23.4633 107.109 23.59C106.816 23.7167 106.599 23.8867 106.459 24.1C106.319 24.3067 106.249 24.54 106.249 24.8C106.249 25.1 106.326 25.34 106.479 25.52C106.639 25.7 106.849 25.8433 107.109 25.95C107.369 26.0567 107.656 26.1467 107.969 26.22C108.282 26.2933 108.592 26.3733 108.899 26.46C109.206 26.54 109.489 26.6467 109.749 26.78C110.009 26.9133 110.219 27.0933 110.379 27.32C110.539 27.5467 110.619 27.84 110.619 28.2C110.619 28.5267 110.529 28.8333 110.349 29.12C110.169 29.4 109.892 29.6267 109.519 29.8C109.152 29.9667 108.679 30.05 108.099 30.05ZM114.313 30.04C113.786 30.04 113.319 29.9267 112.913 29.7C112.513 29.4733 112.196 29.16 111.963 28.76C111.736 28.36 111.623 27.9033 111.623 27.39C111.623 26.87 111.729 26.4133 111.943 26.02C112.163 25.62 112.463 25.3067 112.843 25.08C113.223 24.8533 113.649 24.74 114.123 24.74C114.596 24.74 115.019 24.85 115.393 25.07C115.773 25.29 116.069 25.6 116.283 26C116.503 26.3933 116.613 26.85 116.613 27.37C116.613 27.39 116.609 27.4133 116.603 27.44C116.603 27.46 116.603 27.4833 116.603 27.51H111.993V27.12H116.333L116.133 27.31C116.139 26.9033 116.053 26.54 115.873 26.22C115.699 25.8933 115.463 25.64 115.163 25.46C114.863 25.2733 114.516 25.18 114.123 25.18C113.736 25.18 113.389 25.2733 113.083 25.46C112.783 25.64 112.546 25.8933 112.373 26.22C112.199 26.54 112.113 26.9067 112.113 27.32V27.41C112.113 27.8367 112.206 28.2167 112.393 28.55C112.586 28.8767 112.849 29.1333 113.183 29.32C113.516 29.5 113.896 29.59 114.323 29.59C114.656 29.59 114.966 29.53 115.253 29.41C115.546 29.29 115.793 29.1067 115.993 28.86L116.283 29.19C116.056 29.47 115.769 29.6833 115.423 29.83C115.083 29.97 114.713 30.04 114.313 30.04ZM121.303 30V28.81L121.283 28.63V26.67C121.283 26.1833 121.15 25.8133 120.883 25.56C120.623 25.3067 120.24 25.18 119.733 25.18C119.373 25.18 119.036 25.2433 118.723 25.37C118.416 25.49 118.153 25.6467 117.933 25.84L117.683 25.48C117.943 25.2467 118.256 25.0667 118.623 24.94C118.99 24.8067 119.373 24.74 119.773 24.74C120.42 24.74 120.916 24.9033 121.263 25.23C121.61 25.5567 121.783 26.0433 121.783 26.69V30H121.303ZM119.423 30.04C119.036 30.04 118.7 29.98 118.413 29.86C118.133 29.7333 117.916 29.5567 117.763 29.33C117.616 29.1033 117.543 28.8433 117.543 28.55C117.543 28.2833 117.603 28.0433 117.723 27.83C117.85 27.61 118.056 27.4333 118.343 27.3C118.63 27.16 119.013 27.09 119.493 27.09H121.413V27.48H119.503C118.963 27.48 118.583 27.58 118.363 27.78C118.15 27.98 118.043 28.23 118.043 28.53C118.043 28.8633 118.17 29.13 118.423 29.33C118.676 29.53 119.033 29.63 119.493 29.63C119.933 29.63 120.303 29.53 120.603 29.33C120.91 29.13 121.136 28.84 121.283 28.46L121.423 28.8C121.283 29.18 121.043 29.4833 120.703 29.71C120.37 29.93 119.943 30.04 119.423 30.04ZM130.343 24.74C130.763 24.74 131.127 24.8233 131.433 24.99C131.747 25.15 131.99 25.3967 132.163 25.73C132.337 26.0567 132.423 26.4633 132.423 26.95V30H131.923V26.99C131.923 26.4033 131.78 25.9567 131.493 25.65C131.207 25.3433 130.807 25.19 130.293 25.19C129.9 25.19 129.56 25.2733 129.273 25.44C128.987 25.6067 128.767 25.84 128.613 26.14C128.46 26.44 128.383 26.8 128.383 27.22V30H127.883V26.99C127.883 26.4033 127.74 25.9567 127.453 25.65C127.167 25.3433 126.767 25.19 126.253 25.19C125.86 25.19 125.52 25.2733 125.233 25.44C124.947 25.6067 124.727 25.84 124.573 26.14C124.42 26.44 124.343 26.8 124.343 27.22V30H123.843V24.78H124.323V26.22L124.253 26.06C124.407 25.6533 124.663 25.3333 125.023 25.1C125.383 24.86 125.817 24.74 126.323 24.74C126.843 24.74 127.28 24.8733 127.633 25.14C127.993 25.4 128.22 25.79 128.313 26.31L128.143 26.24C128.283 25.7933 128.547 25.4333 128.933 25.16C129.32 24.88 129.79 24.74 130.343 24.74ZM134.488 30V22.58H134.988V30H134.488ZM139.215 30.04C138.688 30.04 138.222 29.9267 137.815 29.7C137.415 29.4733 137.098 29.16 136.865 28.76C136.638 28.36 136.525 27.9033 136.525 27.39C136.525 26.87 136.632 26.4133 136.845 26.02C137.065 25.62 137.365 25.3067 137.745 25.08C138.125 24.8533 138.552 24.74 139.025 24.74C139.498 24.74 139.922 24.85 140.295 25.07C140.675 25.29 140.972 25.6 141.185 26C141.405 26.3933 141.515 26.85 141.515 27.37C141.515 27.39 141.512 27.4133 141.505 27.44C141.505 27.46 141.505 27.4833 141.505 27.51H136.895V27.12H141.235L141.035 27.31C141.042 26.9033 140.955 26.54 140.775 26.22C140.602 25.8933 140.365 25.64 140.065 25.46C139.765 25.2733 139.418 25.18 139.025 25.18C138.638 25.18 138.292 25.2733 137.985 25.46C137.685 25.64 137.448 25.8933 137.275 26.22C137.102 26.54 137.015 26.9067 137.015 27.32V27.41C137.015 27.8367 137.108 28.2167 137.295 28.55C137.488 28.8767 137.752 29.1333 138.085 29.32C138.418 29.5 138.798 29.59 139.225 29.59C139.558 29.59 139.868 29.53 140.155 29.41C140.448 29.29 140.695 29.1067 140.895 28.86L141.185 29.19C140.958 29.47 140.672 29.6833 140.325 29.83C139.985 29.97 139.615 30.04 139.215 30.04ZM144.382 30.04C143.949 30.04 143.542 29.9767 143.162 29.85C142.789 29.7233 142.499 29.5633 142.292 29.37L142.522 28.97C142.722 29.1433 142.989 29.2933 143.322 29.42C143.655 29.54 144.015 29.6 144.402 29.6C144.949 29.6 145.342 29.51 145.582 29.33C145.822 29.15 145.942 28.9133 145.942 28.62C145.942 28.4067 145.879 28.24 145.752 28.12C145.632 27.9933 145.469 27.8967 145.262 27.83C145.055 27.7633 144.829 27.71 144.582 27.67C144.335 27.6233 144.089 27.5733 143.842 27.52C143.595 27.4667 143.369 27.39 143.162 27.29C142.955 27.19 142.789 27.0533 142.662 26.88C142.542 26.7 142.482 26.4633 142.482 26.17C142.482 25.9033 142.555 25.6633 142.702 25.45C142.849 25.2367 143.069 25.0667 143.362 24.94C143.655 24.8067 144.022 24.74 144.462 24.74C144.789 24.74 145.115 24.7867 145.442 24.88C145.775 24.9733 146.045 25.0967 146.252 25.25L146.022 25.65C145.802 25.4833 145.555 25.3633 145.282 25.29C145.009 25.2167 144.732 25.18 144.452 25.18C143.945 25.18 143.572 25.2733 143.332 25.46C143.099 25.6467 142.982 25.88 142.982 26.16C142.982 26.38 143.042 26.5567 143.162 26.69C143.289 26.8167 143.455 26.9167 143.662 26.99C143.869 27.0567 144.095 27.1133 144.342 27.16C144.589 27.2 144.835 27.2467 145.082 27.3C145.329 27.3533 145.555 27.43 145.762 27.53C145.969 27.6233 146.132 27.7567 146.252 27.93C146.379 28.0967 146.442 28.3233 146.442 28.61C146.442 28.8967 146.362 29.1467 146.202 29.36C146.049 29.5733 145.819 29.74 145.512 29.86C145.205 29.98 144.829 30.04 144.382 30.04ZM149.157 30.04C148.724 30.04 148.317 29.9767 147.937 29.85C147.564 29.7233 147.274 29.5633 147.067 29.37L147.297 28.97C147.497 29.1433 147.764 29.2933 148.097 29.42C148.431 29.54 148.791 29.6 149.177 29.6C149.724 29.6 150.117 29.51 150.357 29.33C150.597 29.15 150.717 28.9133 150.717 28.62C150.717 28.4067 150.654 28.24 150.527 28.12C150.407 27.9933 150.244 27.8967 150.037 27.83C149.831 27.7633 149.604 27.71 149.357 27.67C149.111 27.6233 148.864 27.5733 148.617 27.52C148.371 27.4667 148.144 27.39 147.937 27.29C147.731 27.19 147.564 27.0533 147.437 26.88C147.317 26.7 147.257 26.4633 147.257 26.17C147.257 25.9033 147.331 25.6633 147.477 25.45C147.624 25.2367 147.844 25.0667 148.137 24.94C148.431 24.8067 148.797 24.74 149.237 24.74C149.564 24.74 149.891 24.7867 150.217 24.88C150.551 24.9733 150.821 25.0967 151.027 25.25L150.797 25.65C150.577 25.4833 150.331 25.3633 150.057 25.29C149.784 25.2167 149.507 25.18 149.227 25.18C148.721 25.18 148.347 25.2733 148.107 25.46C147.874 25.6467 147.757 25.88 147.757 26.16C147.757 26.38 147.817 26.5567 147.937 26.69C148.064 26.8167 148.231 26.9167 148.437 26.99C148.644 27.0567 148.871 27.1133 149.117 27.16C149.364 27.2 149.611 27.2467 149.857 27.3C150.104 27.3533 150.331 27.43 150.537 27.53C150.744 27.6233 150.907 27.7567 151.027 27.93C151.154 28.0967 151.217 28.3233 151.217 28.61C151.217 28.8967 151.137 29.1467 150.977 29.36C150.824 29.5733 150.594 29.74 150.287 29.86C149.981 29.98 149.604 30.04 149.157 30.04ZM156.901 30L154.521 23H155.061L157.321 29.69H157.051L159.381 23H159.871L162.181 29.69H161.921L164.201 23H164.701L162.331 30H161.791L159.551 23.53H159.681L157.441 30H156.901ZM165.806 30V24.78H166.286V26.21L166.236 26.05C166.383 25.63 166.629 25.3067 166.976 25.08C167.323 24.8533 167.756 24.74 168.276 24.74V25.23C168.256 25.23 168.236 25.23 168.216 25.23C168.196 25.2233 168.176 25.22 168.156 25.22C167.576 25.22 167.123 25.4033 166.796 25.77C166.469 26.13 166.306 26.6333 166.306 27.28V30H165.806ZM172.553 30V28.81L172.533 28.63V26.67C172.533 26.1833 172.4 25.8133 172.133 25.56C171.873 25.3067 171.49 25.18 170.983 25.18C170.623 25.18 170.286 25.2433 169.973 25.37C169.666 25.49 169.403 25.6467 169.183 25.84L168.933 25.48C169.193 25.2467 169.506 25.0667 169.873 24.94C170.24 24.8067 170.623 24.74 171.023 24.74C171.67 24.74 172.166 24.9033 172.513 25.23C172.86 25.5567 173.033 26.0433 173.033 26.69V30H172.553ZM170.673 30.04C170.286 30.04 169.95 29.98 169.663 29.86C169.383 29.7333 169.166 29.5567 169.013 29.33C168.866 29.1033 168.793 28.8433 168.793 28.55C168.793 28.2833 168.853 28.0433 168.973 27.83C169.1 27.61 169.306 27.4333 169.593 27.3C169.88 27.16 170.263 27.09 170.743 27.09H172.663V27.48H170.753C170.213 27.48 169.833 27.58 169.613 27.78C169.4 27.98 169.293 28.23 169.293 28.53C169.293 28.8633 169.42 29.13 169.673 29.33C169.926 29.53 170.283 29.63 170.743 29.63C171.183 29.63 171.553 29.53 171.853 29.33C172.16 29.13 172.386 28.84 172.533 28.46L172.673 28.8C172.533 29.18 172.293 29.4833 171.953 29.71C171.62 29.93 171.193 30.04 170.673 30.04ZM177.713 30.04C177.253 30.04 176.837 29.9333 176.463 29.72C176.097 29.5067 175.803 29.2033 175.583 28.81C175.37 28.41 175.263 27.9367 175.263 27.39C175.263 26.8433 175.37 26.3733 175.583 25.98C175.803 25.58 176.097 25.2733 176.463 25.06C176.837 24.8467 177.253 24.74 177.713 24.74C178.207 24.74 178.647 24.8533 179.033 25.08C179.427 25.3 179.733 25.61 179.953 26.01C180.18 26.41 180.293 26.87 180.293 27.39C180.293 27.91 180.18 28.37 179.953 28.77C179.733 29.17 179.427 29.4833 179.033 29.71C178.647 29.93 178.207 30.04 177.713 30.04ZM175.093 31.94V24.78H175.573V26.49L175.493 27.4L175.593 28.31V31.94H175.093ZM177.683 29.59C178.083 29.59 178.443 29.5 178.763 29.32C179.083 29.1333 179.333 28.8733 179.513 28.54C179.7 28.2067 179.793 27.8233 179.793 27.39C179.793 26.95 179.7 26.5667 179.513 26.24C179.333 25.9067 179.083 25.65 178.763 25.47C178.443 25.2833 178.083 25.19 177.683 25.19C177.283 25.19 176.923 25.2833 176.603 25.47C176.29 25.65 176.04 25.9067 175.853 26.24C175.673 26.5667 175.583 26.95 175.583 27.39C175.583 27.8233 175.673 28.2067 175.853 28.54C176.04 28.8733 176.29 29.1333 176.603 29.32C176.923 29.5 177.283 29.59 177.683 29.59ZM184.461 30.04C184.001 30.04 183.585 29.9333 183.211 29.72C182.845 29.5067 182.551 29.2033 182.331 28.81C182.118 28.41 182.011 27.9367 182.011 27.39C182.011 26.8433 182.118 26.3733 182.331 25.98C182.551 25.58 182.845 25.2733 183.211 25.06C183.585 24.8467 184.001 24.74 184.461 24.74C184.955 24.74 185.395 24.8533 185.781 25.08C186.175 25.3 186.481 25.61 186.701 26.01C186.928 26.41 187.041 26.87 187.041 27.39C187.041 27.91 186.928 28.37 186.701 28.77C186.481 29.17 186.175 29.4833 185.781 29.71C185.395 29.93 184.955 30.04 184.461 30.04ZM181.841 31.94V24.78H182.321V26.49L182.241 27.4L182.341 28.31V31.94H181.841ZM184.431 29.59C184.831 29.59 185.191 29.5 185.511 29.32C185.831 29.1333 186.081 28.8733 186.261 28.54C186.448 28.2067 186.541 27.8233 186.541 27.39C186.541 26.95 186.448 26.5667 186.261 26.24C186.081 25.9067 185.831 25.65 185.511 25.47C185.191 25.2833 184.831 25.19 184.431 25.19C184.031 25.19 183.671 25.2833 183.351 25.47C183.038 25.65 182.788 25.9067 182.601 26.24C182.421 26.5667 182.331 26.95 182.331 27.39C182.331 27.8233 182.421 28.2067 182.601 28.54C182.788 28.8733 183.038 29.1333 183.351 29.32C183.671 29.5 184.031 29.59 184.431 29.59ZM188.589 30V24.78H189.089V30H188.589ZM188.839 23.51C188.726 23.51 188.629 23.47 188.549 23.39C188.469 23.31 188.429 23.2167 188.429 23.11C188.429 22.9967 188.469 22.9 188.549 22.82C188.629 22.74 188.726 22.7 188.839 22.7C188.959 22.7 189.056 22.74 189.129 22.82C189.209 22.8933 189.249 22.9867 189.249 23.1C189.249 23.2133 189.209 23.31 189.129 23.39C189.056 23.47 188.959 23.51 188.839 23.51ZM193.747 24.74C194.173 24.74 194.543 24.8233 194.857 24.99C195.177 25.15 195.423 25.3967 195.597 25.73C195.777 26.0567 195.867 26.4633 195.867 26.95V30H195.367V26.99C195.367 26.4033 195.217 25.9567 194.917 25.65C194.623 25.3433 194.21 25.19 193.677 25.19C193.27 25.19 192.917 25.2733 192.617 25.44C192.317 25.6067 192.087 25.84 191.927 26.14C191.773 26.44 191.697 26.8 191.697 27.22V30H191.197V24.78H191.677V26.23L191.607 26.07C191.767 25.6567 192.03 25.3333 192.397 25.1C192.763 24.86 193.213 24.74 193.747 24.74ZM200.095 31.98C199.622 31.98 199.172 31.9067 198.745 31.76C198.319 31.6133 197.972 31.41 197.705 31.15L197.975 30.77C198.235 31.01 198.545 31.1967 198.905 31.33C199.272 31.4633 199.665 31.53 200.085 31.53C200.785 31.53 201.299 31.3667 201.625 31.04C201.959 30.7133 202.125 30.2 202.125 29.5V28.05L202.225 27.27L202.145 26.49V24.78H202.625V29.44C202.625 30.3133 202.412 30.9533 201.985 31.36C201.565 31.7733 200.935 31.98 200.095 31.98ZM199.955 29.81C199.462 29.81 199.019 29.7033 198.625 29.49C198.239 29.27 197.929 28.97 197.695 28.59C197.469 28.2033 197.355 27.7633 197.355 27.27C197.355 26.77 197.469 26.33 197.695 25.95C197.929 25.57 198.239 25.2733 198.625 25.06C199.019 24.8467 199.462 24.74 199.955 24.74C200.429 24.74 200.852 24.8433 201.225 25.05C201.605 25.25 201.905 25.54 202.125 25.92C202.345 26.2933 202.455 26.7433 202.455 27.27C202.455 27.79 202.345 28.24 202.125 28.62C201.905 29 201.605 29.2933 201.225 29.5C200.852 29.7067 200.429 29.81 199.955 29.81ZM199.995 29.36C200.415 29.36 200.785 29.2733 201.105 29.1C201.425 28.92 201.675 28.6733 201.855 28.36C202.042 28.04 202.135 27.6767 202.135 27.27C202.135 26.8567 202.042 26.4933 201.855 26.18C201.675 25.8667 201.425 25.6233 201.105 25.45C200.785 25.2767 200.415 25.19 199.995 25.19C199.589 25.19 199.222 25.2767 198.895 25.45C198.575 25.6233 198.322 25.8667 198.135 26.18C197.955 26.4933 197.865 26.8567 197.865 27.27C197.865 27.6767 197.955 28.04 198.135 28.36C198.322 28.6733 198.575 28.92 198.895 29.1C199.222 29.2733 199.589 29.36 199.995 29.36ZM204.682 30.04C204.568 30.04 204.468 30 204.382 29.92C204.302 29.8333 204.262 29.73 204.262 29.61C204.262 29.49 204.302 29.39 204.382 29.31C204.468 29.23 204.568 29.19 204.682 29.19C204.795 29.19 204.892 29.23 204.972 29.31C205.058 29.39 205.102 29.49 205.102 29.61C205.102 29.73 205.058 29.8333 204.972 29.92C204.892 30 204.795 30.04 204.682 30.04ZM206.634 31.94H206.164C206.55 31.2733 206.834 30.5533 207.014 29.78C207.194 29.0067 207.284 28.1667 207.284 27.26C207.284 26.3533 207.194 25.5133 207.014 24.74C206.834 23.9667 206.55 23.2467 206.164 22.58H206.634C207 23.1667 207.284 23.8633 207.484 24.67C207.684 25.47 207.784 26.3333 207.784 27.26C207.784 28.1867 207.684 29.0467 207.484 29.84C207.284 30.6333 207 31.3333 206.634 31.94Z" fill="black"/>
</svg>
