<svg width="391" height="32" viewBox="0 0 391 32" fill="none" xmlns="http://www.w3.org/2000/svg">
<path d="M29.354 14.14C28.5887 14.14 27.856 14.0327 27.156 13.818C26.456 13.594 25.9007 13.3093 25.49 12.964L26.12 11.55C26.512 11.858 26.9973 12.1147 27.576 12.32C28.1547 12.5253 28.7473 12.628 29.354 12.628C29.8673 12.628 30.2827 12.572 30.6 12.46C30.9173 12.348 31.1507 12.1987 31.3 12.012C31.4493 11.816 31.524 11.5967 31.524 11.354C31.524 11.0553 31.4167 10.8173 31.202 10.64C30.9873 10.4533 30.7073 10.3087 30.362 10.206C30.026 10.094 29.648 9.99133 29.228 9.898C28.8173 9.80467 28.402 9.69733 27.982 9.576C27.5713 9.44533 27.1933 9.282 26.848 9.086C26.512 8.88067 26.2367 8.61 26.022 8.274C25.8073 7.938 25.7 7.50867 25.7 6.986C25.7 6.454 25.84 5.96867 26.12 5.53C26.4093 5.082 26.8433 4.72733 27.422 4.466C28.01 4.19533 28.752 4.06 29.648 4.06C30.236 4.06 30.8193 4.13467 31.398 4.284C31.9767 4.43333 32.4807 4.648 32.91 4.928L32.336 6.342C31.8973 6.08067 31.4447 5.88933 30.978 5.768C30.5113 5.63733 30.0633 5.572 29.634 5.572C29.13 5.572 28.7193 5.63267 28.402 5.754C28.094 5.87533 27.8653 6.034 27.716 6.23C27.576 6.426 27.506 6.65 27.506 6.902C27.506 7.20067 27.6087 7.44333 27.814 7.63C28.0287 7.80733 28.304 7.94733 28.64 8.05C28.9853 8.15267 29.368 8.25533 29.788 8.358C30.208 8.45133 30.6233 8.55867 31.034 8.68C31.454 8.80133 31.832 8.96 32.168 9.156C32.5133 9.352 32.7887 9.618 32.994 9.954C33.2087 10.29 33.316 10.7147 33.316 11.228C33.316 11.7507 33.1713 12.236 32.882 12.684C32.602 13.1227 32.168 13.4773 31.58 13.748C30.992 14.0093 30.25 14.14 29.354 14.14ZM38.1167 14.098C37.482 14.098 36.922 13.9813 36.4367 13.748C35.9514 13.5053 35.5734 13.1413 35.3027 12.656C35.032 12.1613 34.8967 11.5407 34.8967 10.794V6.524H36.6467V10.556C36.6467 11.228 36.796 11.732 37.0947 12.068C37.4027 12.3947 37.8367 12.558 38.3967 12.558C38.8074 12.558 39.162 12.474 39.4607 12.306C39.7687 12.138 40.0067 11.886 40.1747 11.55C40.352 11.214 40.4407 10.7987 40.4407 10.304V6.524H42.1907V14H40.5247V11.984L40.8187 12.6C40.5667 13.0853 40.198 13.4587 39.7127 13.72C39.2274 13.972 38.6954 14.098 38.1167 14.098ZM47.296 14.098C46.4747 14.098 45.84 13.888 45.392 13.468C44.944 13.0387 44.72 12.4087 44.72 11.578V4.872H46.47V11.536C46.47 11.8907 46.5587 12.166 46.736 12.362C46.9227 12.558 47.1793 12.656 47.506 12.656C47.898 12.656 48.2247 12.5533 48.486 12.348L48.976 13.594C48.7707 13.762 48.5187 13.888 48.22 13.972C47.9213 14.056 47.6133 14.098 47.296 14.098ZM43.488 7.98V6.58H48.472V7.98H43.488ZM50.4156 14V3.612H52.1656V14H50.4156ZM54.4625 14V6.524H56.2125V14H54.4625ZM55.3445 5.292C55.0178 5.292 54.7471 5.18933 54.5325 4.984C54.3271 4.77867 54.2245 4.53133 54.2245 4.242C54.2245 3.94333 54.3271 3.696 54.5325 3.5C54.7471 3.29467 55.0178 3.192 55.3445 3.192C55.6711 3.192 55.9371 3.29 56.1425 3.486C56.3571 3.67267 56.4645 3.91067 56.4645 4.2C56.4645 4.508 56.3618 4.76933 56.1565 4.984C55.9511 5.18933 55.6805 5.292 55.3445 5.292ZM64.5345 14V5.74H61.2865V4.2H69.6025V5.74H66.3545V14H64.5345ZM71.9875 14L69.2435 6.524H70.8955L73.2475 13.118H72.4635L74.9275 6.524H76.3975L78.7915 13.118H78.0215L80.4435 6.524H81.9975L79.2395 14H77.5595L75.3755 8.162H75.8935L73.6675 14H71.9875ZM83.2007 14V6.524H84.9507V14H83.2007ZM84.0827 5.292C83.7561 5.292 83.4854 5.18933 83.2707 4.984C83.0654 4.77867 82.9627 4.53133 82.9627 4.242C82.9627 3.94333 83.0654 3.696 83.2707 3.5C83.4854 3.29467 83.7561 3.192 84.0827 3.192C84.4094 3.192 84.6754 3.29 84.8807 3.486C85.0954 3.67267 85.2027 3.91067 85.2027 4.2C85.2027 4.508 85.1001 4.76933 84.8947 4.984C84.6894 5.18933 84.4187 5.292 84.0827 5.292ZM91.4896 6.44C92.0869 6.44 92.6189 6.55667 93.0856 6.79C93.5616 7.02333 93.9349 7.38267 94.2056 7.868C94.4763 8.344 94.6116 8.96 94.6116 9.716V14H92.8616V9.94C92.8616 9.27733 92.7029 8.78267 92.3856 8.456C92.0776 8.12933 91.6436 7.966 91.0836 7.966C90.6729 7.966 90.3089 8.05 89.9916 8.218C89.6743 8.386 89.4269 8.638 89.2496 8.974C89.0816 9.30067 88.9976 9.716 88.9976 10.22V14H87.2476V6.524H88.9136V8.54L88.6196 7.924C88.8809 7.448 89.2589 7.084 89.7536 6.832C90.2576 6.57067 90.8363 6.44 91.4896 6.44ZM100.359 14.098C99.5286 14.098 98.8006 13.9347 98.1753 13.608C97.5593 13.272 97.0786 12.8147 96.7333 12.236C96.3973 11.6573 96.2293 10.9993 96.2293 10.262C96.2293 9.51533 96.3926 8.85733 96.7193 8.288C97.0553 7.70933 97.5126 7.25667 98.0913 6.93C98.6793 6.60333 99.3466 6.44 100.093 6.44C100.821 6.44 101.47 6.59867 102.039 6.916C102.609 7.23333 103.057 7.68133 103.383 8.26C103.71 8.83867 103.873 9.52 103.873 10.304C103.873 10.3787 103.869 10.4627 103.859 10.556C103.859 10.6493 103.855 10.738 103.845 10.822H97.6153V9.66H102.921L102.235 10.024C102.245 9.59467 102.156 9.21667 101.969 8.89C101.783 8.56333 101.526 8.30667 101.199 8.12C100.882 7.93333 100.513 7.84 100.093 7.84C99.6639 7.84 99.2859 7.93333 98.9593 8.12C98.6419 8.30667 98.3899 8.568 98.2033 8.904C98.0259 9.23067 97.9373 9.618 97.9373 10.066V10.346C97.9373 10.794 98.0399 11.1907 98.2453 11.536C98.4506 11.8813 98.7399 12.1473 99.1133 12.334C99.4866 12.5207 99.9159 12.614 100.401 12.614C100.821 12.614 101.199 12.5487 101.535 12.418C101.871 12.2873 102.17 12.082 102.431 11.802L103.369 12.88C103.033 13.272 102.609 13.5753 102.095 13.79C101.591 13.9953 101.013 14.098 100.359 14.098Z" fill="black"/>
<path d="M4.704 14.14C3.92933 14.14 3.22933 13.944 2.604 13.552C1.988 13.16 1.50267 12.5907 1.148 11.844C0.793333 11.088 0.616 10.1733 0.616 9.1C0.616 8.02667 0.793333 7.11667 1.148 6.37C1.50267 5.614 1.988 5.04 2.604 4.648C3.22933 4.256 3.92933 4.06 4.704 4.06C5.488 4.06 6.188 4.256 6.804 4.648C7.42 5.04 7.90533 5.614 8.26 6.37C8.624 7.11667 8.806 8.02667 8.806 9.1C8.806 10.1733 8.624 11.088 8.26 11.844C7.90533 12.5907 7.42 13.16 6.804 13.552C6.188 13.944 5.488 14.14 4.704 14.14ZM4.704 12.558C5.16133 12.558 5.558 12.4367 5.894 12.194C6.23 11.942 6.49133 11.5593 6.678 11.046C6.874 10.5327 6.972 9.884 6.972 9.1C6.972 8.30667 6.874 7.658 6.678 7.154C6.49133 6.64067 6.23 6.26267 5.894 6.02C5.558 5.768 5.16133 5.642 4.704 5.642C4.26533 5.642 3.87333 5.768 3.528 6.02C3.192 6.26267 2.926 6.64067 2.73 7.154C2.54333 7.658 2.45 8.30667 2.45 9.1C2.45 9.884 2.54333 10.5327 2.73 11.046C2.926 11.5593 3.192 11.942 3.528 12.194C3.87333 12.4367 4.26533 12.558 4.704 12.558ZM11.8856 14L15.9316 4.928L16.4076 5.74H10.8496L11.7176 4.858V7.406H10.0236V4.2H17.6396V5.418L13.8316 14H11.8856ZM19.4399 14.098C19.1225 14.098 18.8519 13.9907 18.6279 13.776C18.4039 13.552 18.2919 13.272 18.2919 12.936C18.2919 12.5813 18.4039 12.3013 18.6279 12.096C18.8519 11.8813 19.1225 11.774 19.4399 11.774C19.7572 11.774 20.0279 11.8813 20.2519 12.096C20.4759 12.3013 20.5879 12.5813 20.5879 12.936C20.5879 13.272 20.4759 13.552 20.2519 13.776C20.0279 13.9907 19.7572 14.098 19.4399 14.098Z" fill="black"/>
<path d="M372.712 17.17C371.771 17.17 370.921 16.932 370.162 16.456C369.414 15.98 368.825 15.2887 368.394 14.382C367.963 13.464 367.748 12.3533 367.748 11.05C367.748 9.74667 367.963 8.64167 368.394 7.735C368.825 6.817 369.414 6.12 370.162 5.644C370.921 5.168 371.771 4.93 372.712 4.93C373.664 4.93 374.514 5.168 375.262 5.644C376.01 6.12 376.599 6.817 377.03 7.735C377.472 8.64167 377.693 9.74667 377.693 11.05C377.693 12.3533 377.472 13.464 377.03 14.382C376.599 15.2887 376.01 15.98 375.262 16.456C374.514 16.932 373.664 17.17 372.712 17.17ZM372.712 15.249C373.267 15.249 373.749 15.1017 374.157 14.807C374.565 14.501 374.882 14.0363 375.109 13.413C375.347 12.7897 375.466 12.002 375.466 11.05C375.466 10.0867 375.347 9.299 375.109 8.687C374.882 8.06367 374.565 7.60467 374.157 7.31C373.749 7.004 373.267 6.851 372.712 6.851C372.179 6.851 371.703 7.004 371.284 7.31C370.876 7.60467 370.553 8.06367 370.315 8.687C370.088 9.299 369.975 10.0867 369.975 11.05C369.975 12.002 370.088 12.7897 370.315 13.413C370.553 14.0363 370.876 14.501 371.284 14.807C371.703 15.1017 372.179 15.249 372.712 15.249ZM384.63 17.17C383.792 17.17 382.97 17.051 382.165 16.813C381.372 16.5637 380.703 16.2237 380.159 15.793L381.111 14.076C381.542 14.4273 382.063 14.7107 382.675 14.926C383.287 15.1413 383.928 15.249 384.596 15.249C385.39 15.249 386.007 15.0903 386.449 14.773C386.891 14.4443 387.112 14.0023 387.112 13.447C387.112 12.903 386.908 12.4723 386.5 12.155C386.092 11.8377 385.435 11.679 384.528 11.679H383.44V10.166L386.84 6.12L387.129 6.953H380.737V5.1H388.846V6.579L385.446 10.625L384.29 9.945H384.953C386.415 9.945 387.509 10.2737 388.234 10.931C388.971 11.577 389.339 12.41 389.339 13.43C389.339 14.0987 389.169 14.7163 388.829 15.283C388.489 15.8497 387.968 16.3087 387.265 16.66C386.574 17 385.696 17.17 384.63 17.17Z" fill="#16713D"/>
<path d="M27.26 31.94C26.8933 31.3333 26.61 30.6333 26.41 29.84C26.2167 29.0467 26.12 28.1867 26.12 27.26C26.12 26.3333 26.2167 25.47 26.41 24.67C26.61 23.8633 26.8933 23.1667 27.26 22.58H27.74C27.3467 23.2467 27.06 23.9667 26.88 24.74C26.7 25.5133 26.61 26.3533 26.61 27.26C26.61 28.1667 26.7 29.0067 26.88 29.78C27.06 30.5533 27.3467 31.2733 27.74 31.94H27.26ZM32.3929 30.05C31.8729 30.05 31.3896 29.9633 30.9429 29.79C30.5029 29.61 30.1196 29.36 29.7929 29.04C29.4662 28.72 29.2129 28.3467 29.0329 27.92C28.8529 27.4867 28.7629 27.0133 28.7629 26.5C28.7629 25.9867 28.8529 25.5167 29.0329 25.09C29.2129 24.6567 29.4662 24.28 29.7929 23.96C30.1262 23.64 30.5129 23.3933 30.9529 23.22C31.3929 23.04 31.8729 22.95 32.3929 22.95C32.8862 22.95 33.3462 23.03 33.7729 23.19C34.2062 23.35 34.5762 23.5933 34.8829 23.92L34.5629 24.25C34.2629 23.9567 33.9296 23.7467 33.5629 23.62C33.2029 23.4867 32.8196 23.42 32.4129 23.42C31.9662 23.42 31.5496 23.4967 31.1629 23.65C30.7829 23.8033 30.4496 24.02 30.1629 24.3C29.8829 24.58 29.6629 24.9067 29.5029 25.28C29.3496 25.6533 29.2729 26.06 29.2729 26.5C29.2729 26.94 29.3496 27.3467 29.5029 27.72C29.6629 28.0933 29.8829 28.42 30.1629 28.7C30.4496 28.98 30.7829 29.1967 31.1629 29.35C31.5496 29.5033 31.9662 29.58 32.4129 29.58C32.8196 29.58 33.2029 29.5167 33.5629 29.39C33.9296 29.2567 34.2629 29.04 34.5629 28.74L34.8829 29.07C34.5762 29.3967 34.2062 29.6433 33.7729 29.81C33.3462 29.97 32.8862 30.05 32.3929 30.05ZM36.4311 30V22.58H36.9311V30H36.4311ZM41.1585 30.04C40.6318 30.04 40.1652 29.9267 39.7585 29.7C39.3585 29.4733 39.0418 29.16 38.8085 28.76C38.5818 28.36 38.4685 27.9033 38.4685 27.39C38.4685 26.87 38.5752 26.4133 38.7885 26.02C39.0085 25.62 39.3085 25.3067 39.6885 25.08C40.0685 24.8533 40.4952 24.74 40.9685 24.74C41.4418 24.74 41.8652 24.85 42.2385 25.07C42.6185 25.29 42.9152 25.6 43.1285 26C43.3485 26.3933 43.4585 26.85 43.4585 27.37C43.4585 27.39 43.4552 27.4133 43.4485 27.44C43.4485 27.46 43.4485 27.4833 43.4485 27.51H38.8385V27.12H43.1785L42.9785 27.31C42.9852 26.9033 42.8985 26.54 42.7185 26.22C42.5452 25.8933 42.3085 25.64 42.0085 25.46C41.7085 25.2733 41.3618 25.18 40.9685 25.18C40.5818 25.18 40.2352 25.2733 39.9285 25.46C39.6285 25.64 39.3918 25.8933 39.2185 26.22C39.0452 26.54 38.9585 26.9067 38.9585 27.32V27.41C38.9585 27.8367 39.0518 28.2167 39.2385 28.55C39.4318 28.8767 39.6952 29.1333 40.0285 29.32C40.3618 29.5 40.7418 29.59 41.1685 29.59C41.5018 29.59 41.8118 29.53 42.0985 29.41C42.3918 29.29 42.6385 29.1067 42.8385 28.86L43.1285 29.19C42.9018 29.47 42.6152 29.6833 42.2685 29.83C41.9285 29.97 41.5585 30.04 41.1585 30.04ZM48.1488 30V28.81L48.1288 28.63V26.67C48.1288 26.1833 47.9955 25.8133 47.7288 25.56C47.4688 25.3067 47.0855 25.18 46.5788 25.18C46.2188 25.18 45.8822 25.2433 45.5688 25.37C45.2622 25.49 44.9988 25.6467 44.7788 25.84L44.5288 25.48C44.7888 25.2467 45.1022 25.0667 45.4688 24.94C45.8355 24.8067 46.2188 24.74 46.6188 24.74C47.2655 24.74 47.7622 24.9033 48.1088 25.23C48.4555 25.5567 48.6288 26.0433 48.6288 26.69V30H48.1488ZM46.2688 30.04C45.8822 30.04 45.5455 29.98 45.2588 29.86C44.9788 29.7333 44.7622 29.5567 44.6088 29.33C44.4622 29.1033 44.3888 28.8433 44.3888 28.55C44.3888 28.2833 44.4488 28.0433 44.5688 27.83C44.6955 27.61 44.9022 27.4333 45.1888 27.3C45.4755 27.16 45.8588 27.09 46.3388 27.09H48.2588V27.48H46.3488C45.8088 27.48 45.4288 27.58 45.2088 27.78C44.9955 27.98 44.8888 28.23 44.8888 28.53C44.8888 28.8633 45.0155 29.13 45.2688 29.33C45.5222 29.53 45.8788 29.63 46.3388 29.63C46.7788 29.63 47.1488 29.53 47.4488 29.33C47.7555 29.13 47.9822 28.84 48.1288 28.46L48.2688 28.8C48.1288 29.18 47.8888 29.4833 47.5488 29.71C47.2155 29.93 46.7888 30.04 46.2688 30.04ZM50.6889 30V24.78H51.1689V26.21L51.1189 26.05C51.2656 25.63 51.5122 25.3067 51.8589 25.08C52.2056 24.8533 52.6389 24.74 53.1589 24.74V25.23C53.1389 25.23 53.1189 25.23 53.0989 25.23C53.0789 25.2233 53.0589 25.22 53.0389 25.22C52.4589 25.22 52.0056 25.4033 51.6789 25.77C51.3522 26.13 51.1889 26.6333 51.1889 27.28V30H50.6889ZM57.3528 30V23H59.8628C60.4495 23 60.9528 23.0933 61.3728 23.28C61.7928 23.4667 62.1161 23.7367 62.3428 24.09C62.5695 24.4367 62.6828 24.86 62.6828 25.36C62.6828 25.8467 62.5695 26.2667 62.3428 26.62C62.1161 26.9733 61.7928 27.2433 61.3728 27.43C60.9528 27.6167 60.4495 27.71 59.8628 27.71H57.6328L57.8628 27.47V30H57.3528ZM57.8628 27.5L57.6328 27.25H59.8628C60.6161 27.25 61.1861 27.0867 61.5728 26.76C61.9661 26.4267 62.1628 25.96 62.1628 25.36C62.1628 24.7533 61.9661 24.2867 61.5728 23.96C61.1861 23.6267 60.6161 23.46 59.8628 23.46H57.6328L57.8628 23.21V27.5ZM64.0776 30V24.78H64.5576V26.21L64.5076 26.05C64.6542 25.63 64.9009 25.3067 65.2476 25.08C65.5942 24.8533 66.0276 24.74 66.5476 24.74V25.23C66.5276 25.23 66.5076 25.23 66.4876 25.23C66.4676 25.2233 66.4476 25.22 66.4276 25.22C65.8476 25.22 65.3942 25.4033 65.0676 25.77C64.7409 26.13 64.5776 26.6333 64.5776 27.28V30H64.0776ZM69.9164 30.04C69.4164 30.04 68.9697 29.9267 68.5764 29.7C68.1897 29.4733 67.8797 29.16 67.6464 28.76C67.4197 28.36 67.3064 27.9033 67.3064 27.39C67.3064 26.87 67.4197 26.4133 67.6464 26.02C67.8797 25.62 68.1897 25.3067 68.5764 25.08C68.9697 24.8533 69.4164 24.74 69.9164 24.74C70.4164 24.74 70.8631 24.8533 71.2564 25.08C71.6497 25.3067 71.9597 25.62 72.1864 26.02C72.4131 26.4133 72.5264 26.87 72.5264 27.39C72.5264 27.9033 72.4131 28.36 72.1864 28.76C71.9597 29.16 71.6497 29.4733 71.2564 29.7C70.8631 29.9267 70.4164 30.04 69.9164 30.04ZM69.9164 29.59C70.3164 29.59 70.6764 29.5 70.9964 29.32C71.3164 29.1333 71.5664 28.8733 71.7464 28.54C71.9264 28.2067 72.0164 27.8233 72.0164 27.39C72.0164 26.95 71.9264 26.5667 71.7464 26.24C71.5664 25.9067 71.3164 25.65 70.9964 25.47C70.6764 25.2833 70.3164 25.19 69.9164 25.19C69.5164 25.19 69.1564 25.2833 68.8364 25.47C68.5231 25.65 68.2731 25.9067 68.0864 26.24C67.9064 26.5667 67.8164 26.95 67.8164 27.39C67.8164 27.8233 67.9064 28.2067 68.0864 28.54C68.2731 28.8733 68.5231 29.1333 68.8364 29.32C69.1564 29.5 69.5164 29.59 69.9164 29.59ZM75.5976 30.04C75.1376 30.04 74.7842 29.9133 74.5376 29.66C74.2976 29.4067 74.1776 29.06 74.1776 28.62V23.64H74.6776V28.57C74.6776 28.9033 74.7609 29.16 74.9276 29.34C75.0942 29.52 75.3342 29.61 75.6476 29.61C75.9742 29.61 76.2442 29.5133 76.4576 29.32L76.6676 29.67C76.5342 29.7967 76.3709 29.89 76.1776 29.95C75.9909 30.01 75.7976 30.04 75.5976 30.04ZM73.2176 25.21V24.78H76.3376V25.21H73.2176ZM79.9964 30.04C79.4697 30.04 79.0031 29.9267 78.5964 29.7C78.1964 29.4733 77.8797 29.16 77.6464 28.76C77.4197 28.36 77.3064 27.9033 77.3064 27.39C77.3064 26.87 77.4131 26.4133 77.6264 26.02C77.8464 25.62 78.1464 25.3067 78.5264 25.08C78.9064 24.8533 79.3331 24.74 79.8064 24.74C80.2797 24.74 80.7031 24.85 81.0764 25.07C81.4564 25.29 81.7531 25.6 81.9664 26C82.1864 26.3933 82.2964 26.85 82.2964 27.37C82.2964 27.39 82.2931 27.4133 82.2864 27.44C82.2864 27.46 82.2864 27.4833 82.2864 27.51H77.6764V27.12H82.0164L81.8164 27.31C81.8231 26.9033 81.7364 26.54 81.5564 26.22C81.3831 25.8933 81.1464 25.64 80.8464 25.46C80.5464 25.2733 80.1997 25.18 79.8064 25.18C79.4197 25.18 79.0731 25.2733 78.7664 25.46C78.4664 25.64 78.2297 25.8933 78.0564 26.22C77.8831 26.54 77.7964 26.9067 77.7964 27.32V27.41C77.7964 27.8367 77.8897 28.2167 78.0764 28.55C78.2697 28.8767 78.5331 29.1333 78.8664 29.32C79.1997 29.5 79.5797 29.59 80.0064 29.59C80.3397 29.59 80.6497 29.53 80.9364 29.41C81.2297 29.29 81.4764 29.1067 81.6764 28.86L81.9664 29.19C81.7397 29.47 81.4531 29.6833 81.1064 29.83C80.7664 29.97 80.3964 30.04 79.9964 30.04ZM85.9132 30.04C85.4065 30.04 84.9532 29.9267 84.5532 29.7C84.1599 29.4733 83.8465 29.16 83.6132 28.76C83.3865 28.36 83.2732 27.9033 83.2732 27.39C83.2732 26.87 83.3865 26.41 83.6132 26.01C83.8465 25.61 84.1599 25.3 84.5532 25.08C84.9532 24.8533 85.4065 24.74 85.9132 24.74C86.3332 24.74 86.7132 24.82 87.0532 24.98C87.3999 25.14 87.6799 25.38 87.8932 25.7L87.5232 25.97C87.3365 25.7033 87.1032 25.5067 86.8232 25.38C86.5432 25.2533 86.2399 25.19 85.9132 25.19C85.5065 25.19 85.1399 25.2833 84.8132 25.47C84.4932 25.65 84.2399 25.9067 84.0532 26.24C83.8732 26.5667 83.7832 26.95 83.7832 27.39C83.7832 27.83 83.8732 28.2167 84.0532 28.55C84.2399 28.8767 84.4932 29.1333 84.8132 29.32C85.1399 29.5 85.5065 29.59 85.9132 29.59C86.2399 29.59 86.5432 29.5267 86.8232 29.4C87.1032 29.2733 87.3365 29.0767 87.5232 28.81L87.8932 29.08C87.6799 29.4 87.3999 29.64 87.0532 29.8C86.7132 29.96 86.3332 30.04 85.9132 30.04ZM90.9687 30.04C90.5087 30.04 90.1553 29.9133 89.9087 29.66C89.6687 29.4067 89.5487 29.06 89.5487 28.62V23.64H90.0487V28.57C90.0487 28.9033 90.132 29.16 90.2987 29.34C90.4653 29.52 90.7053 29.61 91.0187 29.61C91.3453 29.61 91.6153 29.5133 91.8287 29.32L92.0387 29.67C91.9053 29.7967 91.742 29.89 91.5487 29.95C91.362 30.01 91.1687 30.04 90.9687 30.04ZM88.5887 25.21V24.78H91.7087V25.21H88.5887ZM93.433 30V24.78H93.933V30H93.433ZM93.683 23.51C93.5697 23.51 93.473 23.47 93.393 23.39C93.313 23.31 93.273 23.2167 93.273 23.11C93.273 22.9967 93.313 22.9 93.393 22.82C93.473 22.74 93.5697 22.7 93.683 22.7C93.803 22.7 93.8997 22.74 93.973 22.82C94.053 22.8933 94.093 22.9867 94.093 23.1C94.093 23.2133 94.053 23.31 93.973 23.39C93.8997 23.47 93.803 23.51 93.683 23.51ZM98.0805 30.04C97.5805 30.04 97.1338 29.9267 96.7405 29.7C96.3538 29.4733 96.0438 29.16 95.8105 28.76C95.5838 28.36 95.4705 27.9033 95.4705 27.39C95.4705 26.87 95.5838 26.4133 95.8105 26.02C96.0438 25.62 96.3538 25.3067 96.7405 25.08C97.1338 24.8533 97.5805 24.74 98.0805 24.74C98.5805 24.74 99.0271 24.8533 99.4205 25.08C99.8138 25.3067 100.124 25.62 100.35 26.02C100.577 26.4133 100.69 26.87 100.69 27.39C100.69 27.9033 100.577 28.36 100.35 28.76C100.124 29.16 99.8138 29.4733 99.4205 29.7C99.0271 29.9267 98.5805 30.04 98.0805 30.04ZM98.0805 29.59C98.4805 29.59 98.8405 29.5 99.1605 29.32C99.4805 29.1333 99.7305 28.8733 99.9105 28.54C100.09 28.2067 100.18 27.8233 100.18 27.39C100.18 26.95 100.09 26.5667 99.9105 26.24C99.7305 25.9067 99.4805 25.65 99.1605 25.47C98.8405 25.2833 98.4805 25.19 98.0805 25.19C97.6805 25.19 97.3205 25.2833 97.0005 25.47C96.6871 25.65 96.4371 25.9067 96.2505 26.24C96.0705 26.5667 95.9805 26.95 95.9805 27.39C95.9805 27.8233 96.0705 28.2067 96.2505 28.54C96.4371 28.8733 96.6871 29.1333 97.0005 29.32C97.3205 29.5 97.6805 29.59 98.0805 29.59ZM104.792 24.74C105.218 24.74 105.588 24.8233 105.902 24.99C106.222 25.15 106.468 25.3967 106.642 25.73C106.822 26.0567 106.912 26.4633 106.912 26.95V30H106.412V26.99C106.412 26.4033 106.262 25.9567 105.962 25.65C105.668 25.3433 105.255 25.19 104.722 25.19C104.315 25.19 103.962 25.2733 103.662 25.44C103.362 25.6067 103.132 25.84 102.972 26.14C102.818 26.44 102.742 26.8 102.742 27.22V30H102.242V24.78H102.722V26.23L102.652 26.07C102.812 25.6567 103.075 25.3333 103.442 25.1C103.808 24.86 104.258 24.74 104.792 24.74ZM108.91 30.04C108.797 30.04 108.697 30 108.61 29.92C108.53 29.8333 108.49 29.73 108.49 29.61C108.49 29.49 108.53 29.39 108.61 29.31C108.697 29.23 108.797 29.19 108.91 29.19C109.023 29.19 109.12 29.23 109.2 29.31C109.287 29.39 109.33 29.49 109.33 29.61C109.33 29.73 109.287 29.8333 109.2 29.92C109.12 30 109.023 30.04 108.91 30.04ZM115.54 30.05C115.02 30.05 114.527 29.9633 114.06 29.79C113.6 29.61 113.244 29.38 112.99 29.1L113.22 28.72C113.46 28.9667 113.787 29.1767 114.2 29.35C114.62 29.5167 115.064 29.6 115.53 29.6C115.997 29.6 116.377 29.54 116.67 29.42C116.97 29.2933 117.19 29.1267 117.33 28.92C117.477 28.7133 117.55 28.4833 117.55 28.23C117.55 27.93 117.47 27.69 117.31 27.51C117.15 27.33 116.94 27.1867 116.68 27.08C116.42 26.9733 116.137 26.8833 115.83 26.81C115.524 26.7367 115.214 26.66 114.9 26.58C114.587 26.4933 114.3 26.3833 114.04 26.25C113.78 26.1167 113.57 25.9367 113.41 25.71C113.257 25.4767 113.18 25.1767 113.18 24.81C113.18 24.4767 113.267 24.17 113.44 23.89C113.614 23.61 113.884 23.3833 114.25 23.21C114.617 23.0367 115.087 22.95 115.66 22.95C116.047 22.95 116.427 23.0067 116.8 23.12C117.18 23.2333 117.504 23.3867 117.77 23.58L117.58 23.99C117.287 23.79 116.97 23.6433 116.63 23.55C116.297 23.45 115.974 23.4 115.66 23.4C115.214 23.4 114.844 23.4633 114.55 23.59C114.257 23.7167 114.04 23.8867 113.9 24.1C113.76 24.3067 113.69 24.54 113.69 24.8C113.69 25.1 113.767 25.34 113.92 25.52C114.08 25.7 114.29 25.8433 114.55 25.95C114.81 26.0567 115.097 26.1467 115.41 26.22C115.724 26.2933 116.034 26.3733 116.34 26.46C116.647 26.54 116.93 26.6467 117.19 26.78C117.45 26.9133 117.66 27.0933 117.82 27.32C117.98 27.5467 118.06 27.84 118.06 28.2C118.06 28.5267 117.97 28.8333 117.79 29.12C117.61 29.4 117.334 29.6267 116.96 29.8C116.594 29.9667 116.12 30.05 115.54 30.05ZM121.754 30.04C121.308 30.04 120.921 29.96 120.594 29.8C120.268 29.6333 120.014 29.3867 119.834 29.06C119.661 28.7267 119.574 28.3167 119.574 27.83V24.78H120.074V27.79C120.074 28.3767 120.224 28.8233 120.524 29.13C120.824 29.4367 121.248 29.59 121.794 29.59C122.188 29.59 122.528 29.5067 122.814 29.34C123.101 29.1733 123.321 28.94 123.474 28.64C123.628 28.3333 123.704 27.9733 123.704 27.56V24.78H124.204V30H123.724V28.55L123.794 28.72C123.641 29.1267 123.384 29.45 123.024 29.69C122.671 29.9233 122.248 30.04 121.754 30.04ZM128.944 30.04C128.484 30.04 128.067 29.9333 127.694 29.72C127.327 29.5067 127.034 29.2033 126.814 28.81C126.6 28.41 126.494 27.9367 126.494 27.39C126.494 26.8433 126.6 26.3733 126.814 25.98C127.034 25.58 127.327 25.2733 127.694 25.06C128.067 24.8467 128.484 24.74 128.944 24.74C129.437 24.74 129.877 24.8533 130.264 25.08C130.657 25.3 130.964 25.61 131.184 26.01C131.41 26.41 131.524 26.87 131.524 27.39C131.524 27.91 131.41 28.37 131.184 28.77C130.964 29.17 130.657 29.4833 130.264 29.71C129.877 29.93 129.437 30.04 128.944 30.04ZM126.324 31.94V24.78H126.804V26.49L126.724 27.4L126.824 28.31V31.94H126.324ZM128.914 29.59C129.314 29.59 129.674 29.5 129.994 29.32C130.314 29.1333 130.564 28.8733 130.744 28.54C130.93 28.2067 131.024 27.8233 131.024 27.39C131.024 26.95 130.93 26.5667 130.744 26.24C130.564 25.9067 130.314 25.65 129.994 25.47C129.674 25.2833 129.314 25.19 128.914 25.19C128.514 25.19 128.154 25.2833 127.834 25.47C127.52 25.65 127.27 25.9067 127.084 26.24C126.904 26.5667 126.814 26.95 126.814 27.39C126.814 27.8233 126.904 28.2067 127.084 28.54C127.27 28.8733 127.52 29.1333 127.834 29.32C128.154 29.5 128.514 29.59 128.914 29.59ZM135.192 30.04C134.665 30.04 134.198 29.9267 133.792 29.7C133.392 29.4733 133.075 29.16 132.842 28.76C132.615 28.36 132.502 27.9033 132.502 27.39C132.502 26.87 132.608 26.4133 132.822 26.02C133.042 25.62 133.342 25.3067 133.722 25.08C134.102 24.8533 134.528 24.74 135.002 24.74C135.475 24.74 135.898 24.85 136.272 25.07C136.652 25.29 136.948 25.6 137.162 26C137.382 26.3933 137.492 26.85 137.492 27.37C137.492 27.39 137.488 27.4133 137.482 27.44C137.482 27.46 137.482 27.4833 137.482 27.51H132.872V27.12H137.212L137.012 27.31C137.018 26.9033 136.932 26.54 136.752 26.22C136.578 25.8933 136.342 25.64 136.042 25.46C135.742 25.2733 135.395 25.18 135.002 25.18C134.615 25.18 134.268 25.2733 133.962 25.46C133.662 25.64 133.425 25.8933 133.252 26.22C133.078 26.54 132.992 26.9067 132.992 27.32V27.41C132.992 27.8367 133.085 28.2167 133.272 28.55C133.465 28.8767 133.728 29.1333 134.062 29.32C134.395 29.5 134.775 29.59 135.202 29.59C135.535 29.59 135.845 29.53 136.132 29.41C136.425 29.29 136.672 29.1067 136.872 28.86L137.162 29.19C136.935 29.47 136.648 29.6833 136.302 29.83C135.962 29.97 135.592 30.04 135.192 30.04ZM139.039 30V24.78H139.519V26.21L139.469 26.05C139.615 25.63 139.862 25.3067 140.209 25.08C140.555 24.8533 140.989 24.74 141.509 24.74V25.23C141.489 25.23 141.469 25.23 141.449 25.23C141.429 25.2233 141.409 25.22 141.389 25.22C140.809 25.22 140.355 25.4033 140.029 25.77C139.702 26.13 139.539 26.6333 139.539 27.28V30H139.039ZM142.886 30V24.78H143.386V30H142.886ZM143.136 23.51C143.023 23.51 142.926 23.47 142.846 23.39C142.766 23.31 142.726 23.2167 142.726 23.11C142.726 22.9967 142.766 22.9 142.846 22.82C142.926 22.74 143.023 22.7 143.136 22.7C143.256 22.7 143.353 22.74 143.426 22.82C143.506 22.8933 143.546 22.9867 143.546 23.1C143.546 23.2133 143.506 23.31 143.426 23.39C143.353 23.47 143.256 23.51 143.136 23.51ZM147.534 30.04C147.034 30.04 146.587 29.9267 146.194 29.7C145.807 29.4733 145.497 29.16 145.264 28.76C145.037 28.36 144.924 27.9033 144.924 27.39C144.924 26.87 145.037 26.4133 145.264 26.02C145.497 25.62 145.807 25.3067 146.194 25.08C146.587 24.8533 147.034 24.74 147.534 24.74C148.034 24.74 148.48 24.8533 148.874 25.08C149.267 25.3067 149.577 25.62 149.804 26.02C150.03 26.4133 150.144 26.87 150.144 27.39C150.144 27.9033 150.03 28.36 149.804 28.76C149.577 29.16 149.267 29.4733 148.874 29.7C148.48 29.9267 148.034 30.04 147.534 30.04ZM147.534 29.59C147.934 29.59 148.294 29.5 148.614 29.32C148.934 29.1333 149.184 28.8733 149.364 28.54C149.544 28.2067 149.634 27.8233 149.634 27.39C149.634 26.95 149.544 26.5667 149.364 26.24C149.184 25.9067 148.934 25.65 148.614 25.47C148.294 25.2833 147.934 25.19 147.534 25.19C147.134 25.19 146.774 25.2833 146.454 25.47C146.14 25.65 145.89 25.9067 145.704 26.24C145.524 26.5667 145.434 26.95 145.434 27.39C145.434 27.8233 145.524 28.2067 145.704 28.54C145.89 28.8733 146.14 29.1333 146.454 29.32C146.774 29.5 147.134 29.59 147.534 29.59ZM151.695 30V24.78H152.175V26.21L152.125 26.05C152.271 25.63 152.518 25.3067 152.865 25.08C153.211 24.8533 153.645 24.74 154.165 24.74V25.23C154.145 25.23 154.125 25.23 154.105 25.23C154.085 25.2233 154.065 25.22 154.045 25.22C153.465 25.22 153.011 25.4033 152.685 25.77C152.358 26.13 152.195 26.6333 152.195 27.28V30H151.695ZM158.359 30V23H161.129C161.869 23 162.519 23.15 163.079 23.45C163.639 23.75 164.072 24.1633 164.379 24.69C164.692 25.2167 164.849 25.82 164.849 26.5C164.849 27.18 164.692 27.7833 164.379 28.31C164.072 28.8367 163.639 29.25 163.079 29.55C162.519 29.85 161.869 30 161.129 30H158.359ZM158.869 29.54H161.089C161.749 29.54 162.322 29.41 162.809 29.15C163.295 28.89 163.672 28.5333 163.939 28.08C164.205 27.62 164.339 27.0933 164.339 26.5C164.339 25.9067 164.205 25.3833 163.939 24.93C163.672 24.47 163.295 24.11 162.809 23.85C162.322 23.59 161.749 23.46 161.089 23.46H158.869V29.54ZM168.58 30.04C168.134 30.04 167.747 29.96 167.42 29.8C167.094 29.6333 166.84 29.3867 166.66 29.06C166.487 28.7267 166.4 28.3167 166.4 27.83V24.78H166.9V27.79C166.9 28.3767 167.05 28.8233 167.35 29.13C167.65 29.4367 168.074 29.59 168.62 29.59C169.014 29.59 169.354 29.5067 169.64 29.34C169.927 29.1733 170.147 28.94 170.3 28.64C170.454 28.3333 170.53 27.9733 170.53 27.56V24.78H171.03V30H170.55V28.55L170.62 28.72C170.467 29.1267 170.21 29.45 169.85 29.69C169.497 29.9233 169.074 30.04 168.58 30.04ZM173.15 30V24.78H173.63V26.21L173.58 26.05C173.727 25.63 173.973 25.3067 174.32 25.08C174.667 24.8533 175.1 24.74 175.62 24.74V25.23C175.6 25.23 175.58 25.23 175.56 25.23C175.54 25.2233 175.52 25.22 175.5 25.22C174.92 25.22 174.467 25.4033 174.14 25.77C173.813 26.13 173.65 26.6333 173.65 27.28V30H173.15ZM179.897 30V28.81L179.877 28.63V26.67C179.877 26.1833 179.744 25.8133 179.477 25.56C179.217 25.3067 178.834 25.18 178.327 25.18C177.967 25.18 177.63 25.2433 177.317 25.37C177.01 25.49 176.747 25.6467 176.527 25.84L176.277 25.48C176.537 25.2467 176.85 25.0667 177.217 24.94C177.584 24.8067 177.967 24.74 178.367 24.74C179.014 24.74 179.51 24.9033 179.857 25.23C180.204 25.5567 180.377 26.0433 180.377 26.69V30H179.897ZM178.017 30.04C177.63 30.04 177.294 29.98 177.007 29.86C176.727 29.7333 176.51 29.5567 176.357 29.33C176.21 29.1033 176.137 28.8433 176.137 28.55C176.137 28.2833 176.197 28.0433 176.317 27.83C176.444 27.61 176.65 27.4333 176.937 27.3C177.224 27.16 177.607 27.09 178.087 27.09H180.007V27.48H178.097C177.557 27.48 177.177 27.58 176.957 27.78C176.744 27.98 176.637 28.23 176.637 28.53C176.637 28.8633 176.764 29.13 177.017 29.33C177.27 29.53 177.627 29.63 178.087 29.63C178.527 29.63 178.897 29.53 179.197 29.33C179.504 29.13 179.73 28.84 179.877 28.46L180.017 28.8C179.877 29.18 179.637 29.4833 179.297 29.71C178.964 29.93 178.537 30.04 178.017 30.04ZM185.057 30.04C184.597 30.04 184.18 29.9333 183.807 29.72C183.44 29.5067 183.147 29.2 182.927 28.8C182.714 28.4 182.607 27.93 182.607 27.39C182.607 26.8367 182.714 26.3633 182.927 25.97C183.147 25.5767 183.44 25.2733 183.807 25.06C184.18 24.8467 184.597 24.74 185.057 24.74C185.55 24.74 185.99 24.8533 186.377 25.08C186.77 25.3 187.077 25.61 187.297 26.01C187.524 26.4033 187.637 26.8633 187.637 27.39C187.637 27.91 187.524 28.37 187.297 28.77C187.077 29.17 186.77 29.4833 186.377 29.71C185.99 29.93 185.55 30.04 185.057 30.04ZM182.437 30V22.58H182.937V26.47L182.837 27.38L182.917 28.29V30H182.437ZM185.027 29.59C185.427 29.59 185.787 29.5 186.107 29.32C186.427 29.1333 186.677 28.8733 186.857 28.54C187.044 28.2067 187.137 27.8233 187.137 27.39C187.137 26.95 187.044 26.5667 186.857 26.24C186.677 25.9067 186.427 25.65 186.107 25.47C185.787 25.2833 185.427 25.19 185.027 25.19C184.627 25.19 184.267 25.2833 183.947 25.47C183.634 25.65 183.384 25.9067 183.197 26.24C183.017 26.5667 182.927 26.95 182.927 27.39C182.927 27.8233 183.017 28.2067 183.197 28.54C183.384 28.8733 183.634 29.1333 183.947 29.32C184.267 29.5 184.627 29.59 185.027 29.59ZM189.185 30V24.78H189.685V30H189.185ZM189.435 23.51C189.322 23.51 189.225 23.47 189.145 23.39C189.065 23.31 189.025 23.2167 189.025 23.11C189.025 22.9967 189.065 22.9 189.145 22.82C189.225 22.74 189.322 22.7 189.435 22.7C189.555 22.7 189.652 22.74 189.725 22.82C189.805 22.8933 189.845 22.9867 189.845 23.1C189.845 23.2133 189.805 23.31 189.725 23.39C189.652 23.47 189.555 23.51 189.435 23.51ZM191.792 30V22.58H192.292V30H191.792ZM194.4 30V24.78H194.9V30H194.4ZM194.65 23.51C194.537 23.51 194.44 23.47 194.36 23.39C194.28 23.31 194.24 23.2167 194.24 23.11C194.24 22.9967 194.28 22.9 194.36 22.82C194.44 22.74 194.537 22.7 194.65 22.7C194.77 22.7 194.867 22.74 194.94 22.82C195.02 22.8933 195.06 22.9867 195.06 23.1C195.06 23.2133 195.02 23.31 194.94 23.39C194.867 23.47 194.77 23.51 194.65 23.51ZM198.527 30.04C198.067 30.04 197.714 29.9133 197.467 29.66C197.227 29.4067 197.107 29.06 197.107 28.62V23.64H197.607V28.57C197.607 28.9033 197.691 29.16 197.857 29.34C198.024 29.52 198.264 29.61 198.577 29.61C198.904 29.61 199.174 29.5133 199.387 29.32L199.597 29.67C199.464 29.7967 199.301 29.89 199.107 29.95C198.921 30.01 198.727 30.04 198.527 30.04ZM196.147 25.21V24.78H199.267V25.21H196.147ZM200.774 31.98C200.534 31.98 200.307 31.94 200.094 31.86C199.887 31.78 199.711 31.6633 199.564 31.51L199.814 31.13C199.947 31.27 200.091 31.3733 200.244 31.44C200.404 31.5067 200.584 31.54 200.784 31.54C201.024 31.54 201.234 31.4733 201.414 31.34C201.601 31.2067 201.774 30.9633 201.934 30.61L202.294 29.81L202.364 29.72L204.574 24.78H205.084L202.404 30.71C202.264 31.03 202.111 31.28 201.944 31.46C201.784 31.6467 201.607 31.78 201.414 31.86C201.221 31.94 201.007 31.98 200.774 31.98ZM202.284 30.13L199.864 24.78H200.394L202.594 29.69L202.284 30.13ZM205.775 30.04C205.662 30.04 205.562 30 205.475 29.92C205.395 29.8333 205.355 29.73 205.355 29.61C205.355 29.49 205.395 29.39 205.475 29.31C205.562 29.23 205.662 29.19 205.775 29.19C205.889 29.19 205.985 29.23 206.065 29.31C206.152 29.39 206.195 29.49 206.195 29.61C206.195 29.73 206.152 29.8333 206.065 29.92C205.985 30 205.889 30.04 205.775 30.04ZM207.727 31.94H207.257C207.644 31.2733 207.927 30.5533 208.107 29.78C208.287 29.0067 208.377 28.1667 208.377 27.26C208.377 26.3533 208.287 25.5133 208.107 24.74C207.927 23.9667 207.644 23.2467 207.257 22.58H207.727C208.094 23.1667 208.377 23.8633 208.577 24.67C208.777 25.47 208.877 26.3333 208.877 27.26C208.877 28.1867 208.777 29.0467 208.577 29.84C208.377 30.6333 208.094 31.3333 207.727 31.94Z" fill="black"/>
</svg>
