<svg width="316" height="26" viewBox="0 0 316 26" fill="none" xmlns="http://www.w3.org/2000/svg">
<path d="M7.88826 25.466V5.406H0.000257819V1.666H20.1963V5.406H12.3083V25.466H7.88826ZM33.3285 25.466V21.794L33.0905 21.012V14.586C33.0905 13.3393 32.7165 12.376 31.9685 11.696C31.2205 10.9933 30.0872 10.642 28.5685 10.642C27.5485 10.642 26.5398 10.8007 25.5425 11.118C24.5678 11.4353 23.7405 11.8773 23.0605 12.444L21.3945 9.35C22.3692 8.602 23.5252 8.04667 24.8625 7.684C26.2225 7.29867 27.6278 7.106 29.0785 7.106C31.7078 7.106 33.7365 7.74067 35.1645 9.01C36.6152 10.2567 37.3405 12.1947 37.3405 14.824V25.466H33.3285ZM27.6165 25.704C26.2565 25.704 25.0665 25.4773 24.0465 25.024C23.0265 24.548 22.2332 23.902 21.6665 23.086C21.1225 22.2473 20.8505 21.3067 20.8505 20.264C20.8505 19.244 21.0885 18.326 21.5645 17.51C22.0632 16.694 22.8678 16.048 23.9785 15.572C25.0892 15.096 26.5625 14.858 28.3985 14.858H33.6685V17.68H28.7045C27.2538 17.68 26.2792 17.918 25.7805 18.394C25.2818 18.8473 25.0325 19.414 25.0325 20.094C25.0325 20.8647 25.3385 21.4767 25.9505 21.93C26.5625 22.3833 27.4125 22.61 28.5005 22.61C29.5432 22.61 30.4725 22.372 31.2885 21.896C32.1272 21.42 32.7278 20.7173 33.0905 19.788L33.8045 22.338C33.3965 23.4033 32.6598 24.2307 31.5945 24.82C30.5518 25.4093 29.2258 25.704 27.6165 25.704ZM52.8588 25.704C51.3175 25.704 49.9462 25.364 48.7448 24.684C47.5435 24.004 46.5915 22.984 45.8888 21.624C45.2088 20.2413 44.8688 18.496 44.8688 16.388C44.8688 14.2573 45.2202 12.512 45.9228 11.152C46.6482 9.792 47.6115 8.78334 48.8128 8.126C50.0368 7.446 51.3855 7.106 52.8588 7.106C54.6495 7.106 56.2248 7.49134 57.5848 8.262C58.9675 9.03267 60.0555 10.1093 60.8488 11.492C61.6648 12.8747 62.0728 14.5067 62.0728 16.388C62.0728 18.2693 61.6648 19.9013 60.8488 21.284C60.0555 22.6667 58.9675 23.7547 57.5848 24.548C56.2248 25.3187 54.6495 25.704 52.8588 25.704ZM42.7948 25.466V0.238002H47.0448V11.526L46.7048 16.354L46.8408 21.182V25.466H42.7948ZM52.3828 22.066C53.4028 22.066 54.3095 21.8393 55.1028 21.386C55.9188 20.9327 56.5648 20.2753 57.0408 19.414C57.5168 18.5527 57.7548 17.544 57.7548 16.388C57.7548 15.2093 57.5168 14.2007 57.0408 13.362C56.5648 12.5007 55.9188 11.8433 55.1028 11.39C54.3095 10.9367 53.4028 10.71 52.3828 10.71C51.3628 10.71 50.4448 10.9367 49.6288 11.39C48.8128 11.8433 48.1668 12.5007 47.6908 13.362C47.2148 14.2007 46.9768 15.2093 46.9768 16.388C46.9768 17.544 47.2148 18.5527 47.6908 19.414C48.1668 20.2753 48.8128 20.9327 49.6288 21.386C50.4448 21.8393 51.3628 22.066 52.3828 22.066ZM66.1034 25.466V0.238002H70.3534V25.466H66.1034ZM84.4656 25.704C82.4482 25.704 80.6802 25.3073 79.1616 24.514C77.6656 23.698 76.4982 22.5873 75.6596 21.182C74.8436 19.7767 74.4356 18.1787 74.4356 16.388C74.4356 14.5747 74.8322 12.9767 75.6256 11.594C76.4416 10.1887 77.5522 9.08934 78.9576 8.296C80.3856 7.50267 82.0062 7.106 83.8196 7.106C85.5876 7.106 87.1629 7.49134 88.5456 8.262C89.9282 9.03267 91.0162 10.1207 91.8096 11.526C92.6029 12.9313 92.9996 14.586 92.9996 16.49C92.9996 16.6713 92.9882 16.8753 92.9656 17.102C92.9656 17.3287 92.9542 17.544 92.9316 17.748H77.8016V14.926H90.6876L89.0216 15.81C89.0442 14.7673 88.8289 13.8493 88.3756 13.056C87.9222 12.2627 87.2989 11.6393 86.5056 11.186C85.7349 10.7327 84.8396 10.506 83.8196 10.506C82.7769 10.506 81.8589 10.7327 81.0656 11.186C80.2949 11.6393 79.6829 12.274 79.2296 13.09C78.7989 13.8833 78.5836 14.824 78.5836 15.912V16.592C78.5836 17.68 78.8329 18.6433 79.3316 19.482C79.8302 20.3207 80.5329 20.9667 81.4396 21.42C82.3462 21.8733 83.3889 22.1 84.5676 22.1C85.5876 22.1 86.5056 21.9413 87.3216 21.624C88.1376 21.3067 88.8629 20.808 89.4976 20.128L91.7756 22.746C90.9596 23.698 89.9282 24.4347 88.6816 24.956C87.4576 25.4547 86.0522 25.704 84.4656 25.704ZM118.038 25.806C116.18 25.806 114.468 25.5 112.904 24.888C111.34 24.276 109.98 23.426 108.824 22.338C107.668 21.2273 106.773 19.9353 106.138 18.462C105.504 16.966 105.186 15.334 105.186 13.566C105.186 11.798 105.504 10.1773 106.138 8.704C106.773 7.208 107.668 5.916 108.824 4.828C109.98 3.71734 111.34 2.856 112.904 2.244C114.468 1.632 116.168 1.326 118.004 1.326C119.863 1.326 121.563 1.632 123.104 2.244C124.668 2.856 126.028 3.71734 127.184 4.828C128.34 5.916 129.236 7.208 129.87 8.704C130.505 10.1773 130.822 11.798 130.822 13.566C130.822 15.334 130.505 16.966 129.87 18.462C129.236 19.958 128.34 21.25 127.184 22.338C126.028 23.426 124.668 24.276 123.104 24.888C121.563 25.5 119.874 25.806 118.038 25.806ZM118.004 21.93C119.206 21.93 120.316 21.726 121.336 21.318C122.356 20.91 123.24 20.332 123.988 19.584C124.736 18.8133 125.314 17.9293 125.722 16.932C126.153 15.912 126.368 14.79 126.368 13.566C126.368 12.342 126.153 11.2313 125.722 10.234C125.314 9.214 124.736 8.33 123.988 7.582C123.24 6.81134 122.356 6.222 121.336 5.814C120.316 5.406 119.206 5.202 118.004 5.202C116.803 5.202 115.692 5.406 114.672 5.814C113.675 6.222 112.791 6.81134 112.02 7.582C111.272 8.33 110.683 9.214 110.252 10.234C109.844 11.2313 109.64 12.342 109.64 13.566C109.64 14.7673 109.844 15.878 110.252 16.898C110.683 17.918 111.272 18.8133 112.02 19.584C112.768 20.332 113.652 20.91 114.672 21.318C115.692 21.726 116.803 21.93 118.004 21.93ZM135.678 25.466V6.29C135.678 4.386 136.233 2.86734 137.344 1.734C138.477 0.578003 140.086 2.98023e-06 142.172 2.98023e-06C142.92 2.98023e-06 143.622 0.079336 144.28 0.238002C144.96 0.396669 145.526 0.646003 145.98 0.986002L144.824 4.182C144.506 3.93267 144.144 3.75134 143.736 3.638C143.328 3.502 142.908 3.434 142.478 3.434C141.594 3.434 140.925 3.68334 140.472 4.182C140.018 4.658 139.792 5.38334 139.792 6.358V8.398L139.928 10.302V25.466H135.678ZM132.686 10.846V7.446H144.79V10.846H132.686Z" fill="#1D7A46"/>
<path d="M168.471 25.874C166.635 25.874 164.923 25.5793 163.337 24.99C161.773 24.378 160.413 23.5167 159.257 22.406C158.101 21.2953 157.194 19.992 156.537 18.496C155.902 17 155.585 15.3567 155.585 13.566C155.585 11.7753 155.902 10.132 156.537 8.636C157.194 7.14 158.101 5.83667 159.257 4.726C160.435 3.61534 161.807 2.76534 163.371 2.176C164.935 1.564 166.646 1.258 168.505 1.258C170.567 1.258 172.426 1.62067 174.081 2.346C175.758 3.04867 177.163 4.09134 178.297 5.474L174.761 8.738C173.945 7.80867 173.038 7.11734 172.041 6.664C171.043 6.188 169.955 5.95 168.777 5.95C167.666 5.95 166.646 6.13134 165.717 6.494C164.787 6.85667 163.983 7.378 163.303 8.058C162.623 8.738 162.09 9.54267 161.705 10.472C161.342 11.4013 161.161 12.4327 161.161 13.566C161.161 14.6993 161.342 15.7307 161.705 16.66C162.09 17.5893 162.623 18.394 163.303 19.074C163.983 19.754 164.787 20.2753 165.717 20.638C166.646 21.0007 167.666 21.182 168.777 21.182C169.955 21.182 171.043 20.9553 172.041 20.502C173.038 20.026 173.945 19.312 174.761 18.36L178.297 21.624C177.163 23.0067 175.758 24.0607 174.081 24.786C172.426 25.5113 170.556 25.874 168.471 25.874ZM189.715 25.738C187.766 25.738 186.032 25.33 184.513 24.514C183.017 23.698 181.827 22.5873 180.943 21.182C180.082 19.754 179.651 18.1333 179.651 16.32C179.651 14.484 180.082 12.8633 180.943 11.458C181.827 10.03 183.017 8.91934 184.513 8.126C186.032 7.31 187.766 6.902 189.715 6.902C191.642 6.902 193.365 7.31 194.883 8.126C196.402 8.91934 197.592 10.0187 198.453 11.424C199.315 12.8293 199.745 14.4613 199.745 16.32C199.745 18.1333 199.315 19.754 198.453 21.182C197.592 22.5873 196.402 23.698 194.883 24.514C193.365 25.33 191.642 25.738 189.715 25.738ZM189.715 21.386C190.599 21.386 191.393 21.182 192.095 20.774C192.798 20.366 193.353 19.788 193.761 19.04C194.169 18.2693 194.373 17.3627 194.373 16.32C194.373 15.2547 194.169 14.348 193.761 13.6C193.353 12.852 192.798 12.274 192.095 11.866C191.393 11.458 190.599 11.254 189.715 11.254C188.831 11.254 188.038 11.458 187.335 11.866C186.633 12.274 186.066 12.852 185.635 13.6C185.227 14.348 185.023 15.2547 185.023 16.32C185.023 17.3627 185.227 18.2693 185.635 19.04C186.066 19.788 186.633 20.366 187.335 20.774C188.038 21.182 188.831 21.386 189.715 21.386ZM214.409 6.902C215.859 6.902 217.151 7.19667 218.285 7.786C219.441 8.35267 220.347 9.23667 221.005 10.438C221.662 11.6167 221.991 13.1353 221.991 14.994V25.466H216.687V15.81C216.687 14.3367 216.358 13.2487 215.701 12.546C215.066 11.8433 214.159 11.492 212.981 11.492C212.142 11.492 211.383 11.6733 210.703 12.036C210.045 12.376 209.524 12.9087 209.139 13.634C208.776 14.3593 208.595 15.2887 208.595 16.422V25.466H203.291V7.174H208.357V12.24L207.405 10.71C208.062 9.486 209.003 8.54534 210.227 7.888C211.451 7.23067 212.845 6.902 214.409 6.902ZM234.279 25.738C232.125 25.738 230.448 25.194 229.247 24.106C228.045 22.9953 227.445 21.352 227.445 19.176V3.128H232.749V19.108C232.749 19.8787 232.953 20.4793 233.361 20.91C233.769 21.318 234.324 21.522 235.027 21.522C235.865 21.522 236.579 21.2953 237.169 20.842L238.597 24.582C238.053 24.9673 237.395 25.262 236.625 25.466C235.877 25.6473 235.095 25.738 234.279 25.738ZM224.623 11.662V7.582H237.305V11.662H224.623ZM250.088 25.738C248.002 25.738 246.166 25.33 244.58 24.514C243.016 23.698 241.803 22.5873 240.942 21.182C240.08 19.754 239.65 18.1333 239.65 16.32C239.65 14.484 240.069 12.8633 240.908 11.458C241.769 10.03 242.936 8.91934 244.41 8.126C245.883 7.31 247.549 6.902 249.408 6.902C251.198 6.902 252.808 7.28734 254.236 8.058C255.686 8.806 256.831 9.894 257.67 11.322C258.508 12.7273 258.928 14.416 258.928 16.388C258.928 16.592 258.916 16.83 258.894 17.102C258.871 17.3513 258.848 17.5893 258.826 17.816H243.968V14.722H256.038L253.998 15.64C253.998 14.688 253.805 13.8607 253.42 13.158C253.034 12.4553 252.502 11.9113 251.822 11.526C251.142 11.118 250.348 10.914 249.442 10.914C248.535 10.914 247.73 11.118 247.028 11.526C246.348 11.9113 245.815 12.4667 245.43 13.192C245.044 13.8947 244.852 14.7333 244.852 15.708V16.524C244.852 17.5213 245.067 18.4053 245.498 19.176C245.951 19.924 246.574 20.502 247.368 20.91C248.184 21.2953 249.136 21.488 250.224 21.488C251.198 21.488 252.048 21.3407 252.774 21.046C253.522 20.7513 254.202 20.3093 254.814 19.72L257.636 22.78C256.797 23.732 255.743 24.4687 254.474 24.99C253.204 25.4887 251.742 25.738 250.088 25.738ZM273.577 6.902C275.027 6.902 276.319 7.19667 277.453 7.786C278.609 8.35267 279.515 9.23667 280.173 10.438C280.83 11.6167 281.159 13.1353 281.159 14.994V25.466H275.855V15.81C275.855 14.3367 275.526 13.2487 274.869 12.546C274.234 11.8433 273.327 11.492 272.149 11.492C271.31 11.492 270.551 11.6733 269.871 12.036C269.213 12.376 268.692 12.9087 268.307 13.634C267.944 14.3593 267.763 15.2887 267.763 16.422V25.466H262.459V7.174H267.525V12.24L266.573 10.71C267.23 9.486 268.171 8.54534 269.395 7.888C270.619 7.23067 272.013 6.902 273.577 6.902ZM293.447 25.738C291.293 25.738 289.616 25.194 288.415 24.106C287.213 22.9953 286.613 21.352 286.613 19.176V3.128H291.917V19.108C291.917 19.8787 292.121 20.4793 292.529 20.91C292.937 21.318 293.492 21.522 294.195 21.522C295.033 21.522 295.747 21.2953 296.337 20.842L297.765 24.582C297.221 24.9673 296.563 25.262 295.793 25.466C295.045 25.6473 294.263 25.738 293.447 25.738ZM283.791 11.662V7.582H296.473V11.662H283.791ZM306.896 25.738C305.332 25.738 303.825 25.5567 302.374 25.194C300.946 24.8087 299.813 24.3327 298.974 23.766L300.742 19.958C301.581 20.4793 302.567 20.91 303.7 21.25C304.856 21.5673 305.989 21.726 307.1 21.726C308.324 21.726 309.185 21.5787 309.684 21.284C310.205 20.9893 310.466 20.5813 310.466 20.06C310.466 19.6293 310.262 19.312 309.854 19.108C309.469 18.8813 308.947 18.7113 308.29 18.598C307.633 18.4847 306.907 18.3713 306.114 18.258C305.343 18.1447 304.561 17.9973 303.768 17.816C302.975 17.612 302.249 17.3173 301.592 16.932C300.935 16.5467 300.402 16.0253 299.994 15.368C299.609 14.7107 299.416 13.8607 299.416 12.818C299.416 11.662 299.745 10.642 300.402 9.758C301.082 8.874 302.057 8.18267 303.326 7.684C304.595 7.16267 306.114 6.902 307.882 6.902C309.129 6.902 310.398 7.038 311.69 7.31C312.982 7.582 314.059 7.97867 314.92 8.5L313.152 12.274C312.268 11.7527 311.373 11.4013 310.466 11.22C309.582 11.016 308.721 10.914 307.882 10.914C306.703 10.914 305.842 11.0727 305.298 11.39C304.754 11.7073 304.482 12.1153 304.482 12.614C304.482 13.0673 304.675 13.4073 305.06 13.634C305.468 13.8607 306.001 14.042 306.658 14.178C307.315 14.314 308.029 14.4387 308.8 14.552C309.593 14.6427 310.387 14.79 311.18 14.994C311.973 15.198 312.687 15.4927 313.322 15.878C313.979 16.2407 314.512 16.7507 314.92 17.408C315.328 18.0427 315.532 18.8813 315.532 19.924C315.532 21.0573 315.192 22.066 314.512 22.95C313.832 23.8113 312.846 24.4913 311.554 24.99C310.285 25.4887 308.732 25.738 306.896 25.738Z" fill="#1B7944"/>
</svg>
