<svg width="387" height="32" viewBox="0 0 387 32" fill="none" xmlns="http://www.w3.org/2000/svg">
<path d="M28.304 14V5.74H25.056V4.2H33.372V5.74H30.124V14H28.304ZM34.3921 14V6.524H36.0581V8.582L35.8621 7.98C36.0861 7.476 36.4361 7.09333 36.9121 6.832C37.3975 6.57067 37.9995 6.44 38.7181 6.44V8.106C38.6435 8.08733 38.5735 8.078 38.5081 8.078C38.4428 8.06867 38.3775 8.064 38.3121 8.064C37.6495 8.064 37.1221 8.26 36.7301 8.652C36.3381 9.03467 36.1421 9.60867 36.1421 10.374V14H34.3921ZM44.2755 14V12.488L44.1775 12.166V9.52C44.1775 9.00667 44.0235 8.61 43.7155 8.33C43.4075 8.04067 42.9408 7.896 42.3155 7.896C41.8955 7.896 41.4802 7.96133 41.0695 8.092C40.6682 8.22267 40.3275 8.40467 40.0475 8.638L39.3615 7.364C39.7628 7.056 40.2388 6.82733 40.7895 6.678C41.3495 6.51933 41.9282 6.44 42.5255 6.44C43.6082 6.44 44.4435 6.70133 45.0315 7.224C45.6288 7.73733 45.9275 8.53533 45.9275 9.618V14H44.2755ZM41.9235 14.098C41.3635 14.098 40.8735 14.0047 40.4535 13.818C40.0335 13.622 39.7068 13.356 39.4735 13.02C39.2495 12.6747 39.1375 12.2873 39.1375 11.858C39.1375 11.438 39.2355 11.06 39.4315 10.724C39.6368 10.388 39.9682 10.122 40.4255 9.926C40.8828 9.73 41.4895 9.632 42.2455 9.632H44.4155V10.794H42.3715C41.7742 10.794 41.3728 10.892 41.1675 11.088C40.9622 11.2747 40.8595 11.508 40.8595 11.788C40.8595 12.1053 40.9855 12.3573 41.2375 12.544C41.4895 12.7307 41.8395 12.824 42.2875 12.824C42.7168 12.824 43.0995 12.726 43.4355 12.53C43.7808 12.334 44.0282 12.0447 44.1775 11.662L44.4715 12.712C44.3035 13.1507 44.0002 13.4913 43.5615 13.734C43.1322 13.9767 42.5862 14.098 41.9235 14.098ZM52.4154 6.44C53.0127 6.44 53.5447 6.55667 54.0114 6.79C54.4874 7.02333 54.8607 7.38267 55.1314 7.868C55.4021 8.344 55.5374 8.96 55.5374 9.716V14H53.7874V9.94C53.7874 9.27733 53.6287 8.78267 53.3114 8.456C53.0034 8.12933 52.5694 7.966 52.0094 7.966C51.5987 7.966 51.2347 8.05 50.9174 8.218C50.6001 8.386 50.3527 8.638 50.1754 8.974C50.0074 9.30067 49.9234 9.716 49.9234 10.22V14H48.1734V6.524H49.8394V8.54L49.5454 7.924C49.8067 7.448 50.1847 7.084 50.6794 6.832C51.1834 6.57067 51.7621 6.44 52.4154 6.44ZM60.0674 14.098C59.442 14.098 58.84 14.0187 58.2614 13.86C57.692 13.692 57.2394 13.4913 56.9034 13.258L57.5754 11.928C57.9114 12.1427 58.3127 12.32 58.7794 12.46C59.246 12.6 59.7127 12.67 60.1794 12.67C60.73 12.67 61.1267 12.5953 61.3694 12.446C61.6214 12.2967 61.7474 12.096 61.7474 11.844C61.7474 11.6387 61.6634 11.4847 61.4954 11.382C61.3274 11.27 61.108 11.186 60.8374 11.13C60.5667 11.074 60.2634 11.0227 59.9274 10.976C59.6007 10.9293 59.2694 10.8687 58.9334 10.794C58.6067 10.71 58.308 10.5933 58.0374 10.444C57.7667 10.2853 57.5474 10.0753 57.3794 9.814C57.2114 9.55267 57.1274 9.20733 57.1274 8.778C57.1274 8.302 57.2627 7.89133 57.5334 7.546C57.804 7.19133 58.182 6.92067 58.6674 6.734C59.162 6.538 59.7454 6.44 60.4174 6.44C60.9214 6.44 61.43 6.496 61.9434 6.608C62.4567 6.72 62.8814 6.87867 63.2174 7.084L62.5454 8.414C62.1907 8.19933 61.8314 8.05467 61.4674 7.98C61.1127 7.896 60.758 7.854 60.4034 7.854C59.8714 7.854 59.4747 7.93333 59.2134 8.092C58.9614 8.25067 58.8354 8.45133 58.8354 8.694C58.8354 8.918 58.9194 9.086 59.0874 9.198C59.2554 9.31 59.4747 9.39867 59.7454 9.464C60.016 9.52933 60.3147 9.58533 60.6414 9.632C60.9774 9.66933 61.3087 9.73 61.6354 9.814C61.962 9.898 62.2607 10.0147 62.5314 10.164C62.8114 10.304 63.0354 10.5047 63.2034 10.766C63.3714 11.0273 63.4554 11.368 63.4554 11.788C63.4554 12.2547 63.3154 12.6607 63.0354 13.006C62.7647 13.3513 62.3774 13.622 61.8734 13.818C61.3694 14.0047 60.7674 14.098 60.0674 14.098ZM69.1065 14.098C68.4998 14.098 67.9445 13.958 67.4405 13.678C66.9458 13.398 66.5491 12.978 66.2505 12.418C65.9611 11.8487 65.8165 11.13 65.8165 10.262C65.8165 9.38467 65.9565 8.666 66.2365 8.106C66.5258 7.546 66.9178 7.13067 67.4125 6.86C67.9071 6.58 68.4718 6.44 69.1065 6.44C69.8438 6.44 70.4925 6.59867 71.0525 6.916C71.6218 7.23333 72.0698 7.67667 72.3965 8.246C72.7325 8.81533 72.9005 9.48733 72.9005 10.262C72.9005 11.0367 72.7325 11.7133 72.3965 12.292C72.0698 12.8613 71.6218 13.3047 71.0525 13.622C70.4925 13.9393 69.8438 14.098 69.1065 14.098ZM64.9625 16.716V6.524H66.6285V8.288L66.5725 10.276L66.7125 12.264V16.716H64.9625ZM68.9105 12.6C69.3305 12.6 69.7038 12.5067 70.0305 12.32C70.3665 12.1333 70.6325 11.8627 70.8285 11.508C71.0245 11.1533 71.1225 10.738 71.1225 10.262C71.1225 9.77667 71.0245 9.36133 70.8285 9.016C70.6325 8.66133 70.3665 8.39067 70.0305 8.204C69.7038 8.01733 69.3305 7.924 68.9105 7.924C68.4905 7.924 68.1125 8.01733 67.7765 8.204C67.4405 8.39067 67.1745 8.66133 66.9785 9.016C66.7825 9.36133 66.6845 9.77667 66.6845 10.262C66.6845 10.738 66.7825 11.1533 66.9785 11.508C67.1745 11.8627 67.4405 12.1333 67.7765 12.32C68.1125 12.5067 68.4905 12.6 68.9105 12.6ZM79.0704 14V12.488L78.9724 12.166V9.52C78.9724 9.00667 78.8184 8.61 78.5104 8.33C78.2024 8.04067 77.7357 7.896 77.1104 7.896C76.6904 7.896 76.2751 7.96133 75.8644 8.092C75.4631 8.22267 75.1224 8.40467 74.8424 8.638L74.1564 7.364C74.5577 7.056 75.0337 6.82733 75.5844 6.678C76.1444 6.51933 76.7231 6.44 77.3204 6.44C78.4031 6.44 79.2384 6.70133 79.8264 7.224C80.4237 7.73733 80.7224 8.53533 80.7224 9.618V14H79.0704ZM76.7184 14.098C76.1584 14.098 75.6684 14.0047 75.2484 13.818C74.8284 13.622 74.5017 13.356 74.2684 13.02C74.0444 12.6747 73.9324 12.2873 73.9324 11.858C73.9324 11.438 74.0304 11.06 74.2264 10.724C74.4317 10.388 74.7631 10.122 75.2204 9.926C75.6777 9.73 76.2844 9.632 77.0404 9.632H79.2104V10.794H77.1664C76.5691 10.794 76.1677 10.892 75.9624 11.088C75.7571 11.2747 75.6544 11.508 75.6544 11.788C75.6544 12.1053 75.7804 12.3573 76.0324 12.544C76.2844 12.7307 76.6344 12.824 77.0824 12.824C77.5117 12.824 77.8944 12.726 78.2304 12.53C78.5757 12.334 78.8231 12.0447 78.9724 11.662L79.2664 12.712C79.0984 13.1507 78.7951 13.4913 78.3564 13.734C77.9271 13.9767 77.3811 14.098 76.7184 14.098ZM82.9683 14V6.524H84.6343V8.582L84.4383 7.98C84.6623 7.476 85.0123 7.09333 85.4883 6.832C85.9736 6.57067 86.5756 6.44 87.2943 6.44V8.106C87.2196 8.08733 87.1496 8.078 87.0843 8.078C87.019 8.06867 86.9536 8.064 86.8883 8.064C86.2256 8.064 85.6983 8.26 85.3063 8.652C84.9143 9.03467 84.7183 9.60867 84.7183 10.374V14H82.9683ZM92.2245 14.098C91.3938 14.098 90.6658 13.9347 90.0405 13.608C89.4245 13.272 88.9438 12.8147 88.5985 12.236C88.2625 11.6573 88.0945 10.9993 88.0945 10.262C88.0945 9.51533 88.2578 8.85733 88.5845 8.288C88.9205 7.70933 89.3778 7.25667 89.9565 6.93C90.5445 6.60333 91.2118 6.44 91.9585 6.44C92.6865 6.44 93.3352 6.59867 93.9045 6.916C94.4738 7.23333 94.9218 7.68133 95.2485 8.26C95.5752 8.83867 95.7385 9.52 95.7385 10.304C95.7385 10.3787 95.7338 10.4627 95.7245 10.556C95.7245 10.6493 95.7198 10.738 95.7105 10.822H89.4805V9.66H94.7865L94.1005 10.024C94.1098 9.59467 94.0212 9.21667 93.8345 8.89C93.6478 8.56333 93.3912 8.30667 93.0645 8.12C92.7472 7.93333 92.3785 7.84 91.9585 7.84C91.5292 7.84 91.1512 7.93333 90.8245 8.12C90.5072 8.30667 90.2552 8.568 90.0685 8.904C89.8912 9.23067 89.8025 9.618 89.8025 10.066V10.346C89.8025 10.794 89.9052 11.1907 90.1105 11.536C90.3158 11.8813 90.6052 12.1473 90.9785 12.334C91.3518 12.5207 91.7812 12.614 92.2665 12.614C92.6865 12.614 93.0645 12.5487 93.4005 12.418C93.7365 12.2873 94.0352 12.082 94.2965 11.802L95.2345 12.88C94.8985 13.272 94.4738 13.5753 93.9605 13.79C93.4565 13.9953 92.8778 14.098 92.2245 14.098ZM101.661 6.44C102.259 6.44 102.791 6.55667 103.257 6.79C103.733 7.02333 104.107 7.38267 104.377 7.868C104.648 8.344 104.783 8.96 104.783 9.716V14H103.033V9.94C103.033 9.27733 102.875 8.78267 102.557 8.456C102.249 8.12933 101.815 7.966 101.255 7.966C100.845 7.966 100.481 8.05 100.163 8.218C99.8462 8.386 99.5988 8.638 99.4215 8.974C99.2535 9.30067 99.1695 9.716 99.1695 10.22V14H97.4195V6.524H99.0855V8.54L98.7915 7.924C99.0528 7.448 99.4308 7.084 99.9255 6.832C100.429 6.57067 101.008 6.44 101.661 6.44ZM109.817 14.098C108.996 14.098 108.361 13.888 107.913 13.468C107.465 13.0387 107.241 12.4087 107.241 11.578V4.872H108.991V11.536C108.991 11.8907 109.08 12.166 109.257 12.362C109.444 12.558 109.701 12.656 110.027 12.656C110.419 12.656 110.746 12.5533 111.007 12.348L111.497 13.594C111.292 13.762 111.04 13.888 110.741 13.972C110.443 14.056 110.135 14.098 109.817 14.098ZM106.009 7.98V6.58H110.993V7.98H106.009ZM116.974 14V4.2H121.006C121.874 4.2 122.616 4.34 123.232 4.62C123.858 4.9 124.338 5.30133 124.674 5.824C125.01 6.34667 125.178 6.96733 125.178 7.686C125.178 8.40467 125.01 9.02533 124.674 9.548C124.338 10.0707 123.858 10.472 123.232 10.752C122.616 11.032 121.874 11.172 121.006 11.172H117.982L118.794 10.318V14H116.974ZM118.794 10.514L117.982 9.632H120.922C121.725 9.632 122.327 9.464 122.728 9.128C123.139 8.78267 123.344 8.302 123.344 7.686C123.344 7.06067 123.139 6.58 122.728 6.244C122.327 5.908 121.725 5.74 120.922 5.74H117.982L118.794 4.844V10.514ZM126.964 14V3.612H128.714V14H126.964ZM135.617 14V12.488L135.519 12.166V9.52C135.519 9.00667 135.365 8.61 135.057 8.33C134.749 8.04067 134.283 7.896 133.657 7.896C133.237 7.896 132.822 7.96133 132.411 8.092C132.01 8.22267 131.669 8.40467 131.389 8.638L130.703 7.364C131.105 7.056 131.581 6.82733 132.131 6.678C132.691 6.51933 133.27 6.44 133.867 6.44C134.95 6.44 135.785 6.70133 136.373 7.224C136.971 7.73733 137.269 8.53533 137.269 9.618V14H135.617ZM133.265 14.098C132.705 14.098 132.215 14.0047 131.795 13.818C131.375 13.622 131.049 13.356 130.815 13.02C130.591 12.6747 130.479 12.2873 130.479 11.858C130.479 11.438 130.577 11.06 130.773 10.724C130.979 10.388 131.31 10.122 131.767 9.926C132.225 9.73 132.831 9.632 133.587 9.632H135.757V10.794H133.713C133.116 10.794 132.715 10.892 132.509 11.088C132.304 11.2747 132.201 11.508 132.201 11.788C132.201 12.1053 132.327 12.3573 132.579 12.544C132.831 12.7307 133.181 12.824 133.629 12.824C134.059 12.824 134.441 12.726 134.777 12.53C135.123 12.334 135.37 12.0447 135.519 11.662L135.813 12.712C135.645 13.1507 135.342 13.4913 134.903 13.734C134.474 13.9767 133.928 14.098 133.265 14.098ZM141.825 14.098C141.2 14.098 140.598 14.0187 140.019 13.86C139.45 13.692 138.997 13.4913 138.661 13.258L139.333 11.928C139.669 12.1427 140.071 12.32 140.537 12.46C141.004 12.6 141.471 12.67 141.937 12.67C142.488 12.67 142.885 12.5953 143.127 12.446C143.379 12.2967 143.505 12.096 143.505 11.844C143.505 11.6387 143.421 11.4847 143.253 11.382C143.085 11.27 142.866 11.186 142.595 11.13C142.325 11.074 142.021 11.0227 141.685 10.976C141.359 10.9293 141.027 10.8687 140.691 10.794C140.365 10.71 140.066 10.5933 139.795 10.444C139.525 10.2853 139.305 10.0753 139.137 9.814C138.969 9.55267 138.885 9.20733 138.885 8.778C138.885 8.302 139.021 7.89133 139.291 7.546C139.562 7.19133 139.94 6.92067 140.425 6.734C140.92 6.538 141.503 6.44 142.175 6.44C142.679 6.44 143.188 6.496 143.701 6.608C144.215 6.72 144.639 6.87867 144.975 7.084L144.303 8.414C143.949 8.19933 143.589 8.05467 143.225 7.98C142.871 7.896 142.516 7.854 142.161 7.854C141.629 7.854 141.233 7.93333 140.971 8.092C140.719 8.25067 140.593 8.45133 140.593 8.694C140.593 8.918 140.677 9.086 140.845 9.198C141.013 9.31 141.233 9.39867 141.503 9.464C141.774 9.52933 142.073 9.58533 142.399 9.632C142.735 9.66933 143.067 9.73 143.393 9.814C143.72 9.898 144.019 10.0147 144.289 10.164C144.569 10.304 144.793 10.5047 144.961 10.766C145.129 11.0273 145.213 11.368 145.213 11.788C145.213 12.2547 145.073 12.6607 144.793 13.006C144.523 13.3513 144.135 13.622 143.631 13.818C143.127 14.0047 142.525 14.098 141.825 14.098ZM149.534 14.098C148.713 14.098 148.078 13.888 147.63 13.468C147.182 13.0387 146.958 12.4087 146.958 11.578V4.872H148.708V11.536C148.708 11.8907 148.797 12.166 148.974 12.362C149.161 12.558 149.418 12.656 149.744 12.656C150.136 12.656 150.463 12.5533 150.724 12.348L151.214 13.594C151.009 13.762 150.757 13.888 150.458 13.972C150.16 14.056 149.852 14.098 149.534 14.098ZM145.726 7.98V6.58H150.71V7.98H145.726ZM152.654 14V6.524H154.404V14H152.654ZM153.536 5.292C153.209 5.292 152.939 5.18933 152.724 4.984C152.519 4.77867 152.416 4.53133 152.416 4.242C152.416 3.94333 152.519 3.696 152.724 3.5C152.939 3.29467 153.209 3.192 153.536 3.192C153.863 3.192 154.129 3.29 154.334 3.486C154.549 3.67267 154.656 3.91067 154.656 4.2C154.656 4.508 154.553 4.76933 154.348 4.984C154.143 5.18933 153.872 5.292 153.536 5.292ZM160.131 14.098C159.347 14.098 158.647 13.9347 158.031 13.608C157.424 13.272 156.948 12.8147 156.603 12.236C156.257 11.6573 156.085 10.9993 156.085 10.262C156.085 9.51533 156.257 8.85733 156.603 8.288C156.948 7.70933 157.424 7.25667 158.031 6.93C158.647 6.60333 159.347 6.44 160.131 6.44C160.859 6.44 161.498 6.58933 162.049 6.888C162.609 7.17733 163.033 7.60667 163.323 8.176L161.979 8.96C161.755 8.60533 161.479 8.344 161.153 8.176C160.835 8.008 160.49 7.924 160.117 7.924C159.687 7.924 159.3 8.01733 158.955 8.204C158.609 8.39067 158.339 8.66133 158.143 9.016C157.947 9.36133 157.849 9.77667 157.849 10.262C157.849 10.7473 157.947 11.1673 158.143 11.522C158.339 11.8673 158.609 12.1333 158.955 12.32C159.3 12.5067 159.687 12.6 160.117 12.6C160.49 12.6 160.835 12.516 161.153 12.348C161.479 12.18 161.755 11.9187 161.979 11.564L163.323 12.348C163.033 12.908 162.609 13.342 162.049 13.65C161.498 13.9487 160.859 14.098 160.131 14.098ZM168.873 14V4.2H173.465C174.641 4.2 175.537 4.43333 176.153 4.9C176.769 5.35733 177.077 5.97333 177.077 6.748C177.077 7.27067 176.955 7.71867 176.713 8.092C176.47 8.456 176.143 8.74067 175.733 8.946C175.331 9.142 174.893 9.24 174.417 9.24L174.669 8.736C175.219 8.736 175.714 8.83867 176.153 9.044C176.591 9.24 176.937 9.52933 177.189 9.912C177.45 10.2947 177.581 10.7707 177.581 11.34C177.581 12.18 177.259 12.8333 176.615 13.3C175.971 13.7667 175.014 14 173.745 14H168.873ZM170.693 12.572H173.633C174.314 12.572 174.837 12.46 175.201 12.236C175.565 12.012 175.747 11.6527 175.747 11.158C175.747 10.6727 175.565 10.318 175.201 10.094C174.837 9.86067 174.314 9.744 173.633 9.744H170.553V8.33H173.269C173.903 8.33 174.389 8.218 174.725 7.994C175.07 7.77 175.243 7.434 175.243 6.986C175.243 6.52867 175.07 6.188 174.725 5.964C174.389 5.74 173.903 5.628 173.269 5.628H170.693V12.572ZM183.961 14V12.488L183.863 12.166V9.52C183.863 9.00667 183.709 8.61 183.401 8.33C183.093 8.04067 182.626 7.896 182.001 7.896C181.581 7.896 181.166 7.96133 180.755 8.092C180.354 8.22267 180.013 8.40467 179.733 8.638L179.047 7.364C179.448 7.056 179.924 6.82733 180.475 6.678C181.035 6.51933 181.614 6.44 182.211 6.44C183.294 6.44 184.129 6.70133 184.717 7.224C185.314 7.73733 185.613 8.53533 185.613 9.618V14H183.961ZM181.609 14.098C181.049 14.098 180.559 14.0047 180.139 13.818C179.719 13.622 179.392 13.356 179.159 13.02C178.935 12.6747 178.823 12.2873 178.823 11.858C178.823 11.438 178.921 11.06 179.117 10.724C179.322 10.388 179.654 10.122 180.111 9.926C180.568 9.73 181.175 9.632 181.931 9.632H184.101V10.794H182.057C181.46 10.794 181.058 10.892 180.853 11.088C180.648 11.2747 180.545 11.508 180.545 11.788C180.545 12.1053 180.671 12.3573 180.923 12.544C181.175 12.7307 181.525 12.824 181.973 12.824C182.402 12.824 182.785 12.726 183.121 12.53C183.466 12.334 183.714 12.0447 183.863 11.662L184.157 12.712C183.989 13.1507 183.686 13.4913 183.247 13.734C182.818 13.9767 182.272 14.098 181.609 14.098ZM191.261 16.814C190.57 16.814 189.893 16.7207 189.231 16.534C188.577 16.3567 188.041 16.0953 187.621 15.75L188.405 14.434C188.731 14.7047 189.142 14.9193 189.637 15.078C190.141 15.246 190.649 15.33 191.163 15.33C191.984 15.33 192.586 15.1387 192.969 14.756C193.351 14.3827 193.543 13.818 193.543 13.062V11.732L193.683 10.038L193.627 8.344V6.524H195.293V12.866C195.293 14.2193 194.947 15.2133 194.257 15.848C193.566 16.492 192.567 16.814 191.261 16.814ZM191.037 13.664C190.327 13.664 189.683 13.5147 189.105 13.216C188.535 12.908 188.083 12.4833 187.747 11.942C187.42 11.4007 187.257 10.766 187.257 10.038C187.257 9.31933 187.42 8.68933 187.747 8.148C188.083 7.60667 188.535 7.18667 189.105 6.888C189.683 6.58933 190.327 6.44 191.037 6.44C191.671 6.44 192.241 6.566 192.745 6.818C193.249 7.07 193.65 7.462 193.949 7.994C194.257 8.526 194.411 9.20733 194.411 10.038C194.411 10.8687 194.257 11.5547 193.949 12.096C193.65 12.628 193.249 13.0247 192.745 13.286C192.241 13.538 191.671 13.664 191.037 13.664ZM191.303 12.18C191.741 12.18 192.133 12.0913 192.479 11.914C192.824 11.7273 193.09 11.4753 193.277 11.158C193.473 10.8313 193.571 10.458 193.571 10.038C193.571 9.618 193.473 9.24933 193.277 8.932C193.09 8.60533 192.824 8.358 192.479 8.19C192.133 8.01267 191.741 7.924 191.303 7.924C190.864 7.924 190.467 8.01267 190.113 8.19C189.767 8.358 189.497 8.60533 189.301 8.932C189.114 9.24933 189.021 9.618 189.021 10.038C189.021 10.458 189.114 10.8313 189.301 11.158C189.497 11.4753 189.767 11.7273 190.113 11.914C190.467 12.0913 190.864 12.18 191.303 12.18ZM199.903 14.098C199.278 14.098 198.676 14.0187 198.097 13.86C197.528 13.692 197.075 13.4913 196.739 13.258L197.411 11.928C197.747 12.1427 198.149 12.32 198.615 12.46C199.082 12.6 199.549 12.67 200.015 12.67C200.566 12.67 200.963 12.5953 201.205 12.446C201.457 12.2967 201.583 12.096 201.583 11.844C201.583 11.6387 201.499 11.4847 201.331 11.382C201.163 11.27 200.944 11.186 200.673 11.13C200.403 11.074 200.099 11.0227 199.763 10.976C199.437 10.9293 199.105 10.8687 198.769 10.794C198.443 10.71 198.144 10.5933 197.873 10.444C197.603 10.2853 197.383 10.0753 197.215 9.814C197.047 9.55267 196.963 9.20733 196.963 8.778C196.963 8.302 197.099 7.89133 197.369 7.546C197.64 7.19133 198.018 6.92067 198.503 6.734C198.998 6.538 199.581 6.44 200.253 6.44C200.757 6.44 201.266 6.496 201.779 6.608C202.293 6.72 202.717 6.87867 203.053 7.084L202.381 8.414C202.027 8.19933 201.667 8.05467 201.303 7.98C200.949 7.896 200.594 7.854 200.239 7.854C199.707 7.854 199.311 7.93333 199.049 8.092C198.797 8.25067 198.671 8.45133 198.671 8.694C198.671 8.918 198.755 9.086 198.923 9.198C199.091 9.31 199.311 9.39867 199.581 9.464C199.852 9.52933 200.151 9.58533 200.477 9.632C200.813 9.66933 201.145 9.73 201.471 9.814C201.798 9.898 202.097 10.0147 202.367 10.164C202.647 10.304 202.871 10.5047 203.039 10.766C203.207 11.0273 203.291 11.368 203.291 11.788C203.291 12.2547 203.151 12.6607 202.871 13.006C202.601 13.3513 202.213 13.622 201.709 13.818C201.205 14.0047 200.603 14.098 199.903 14.098Z" fill="black"/>
<path d="M4.704 14.14C3.92933 14.14 3.22933 13.944 2.604 13.552C1.988 13.16 1.50267 12.5907 1.148 11.844C0.793333 11.088 0.616 10.1733 0.616 9.1C0.616 8.02667 0.793333 7.11667 1.148 6.37C1.50267 5.614 1.988 5.04 2.604 4.648C3.22933 4.256 3.92933 4.06 4.704 4.06C5.488 4.06 6.188 4.256 6.804 4.648C7.42 5.04 7.90533 5.614 8.26 6.37C8.624 7.11667 8.806 8.02667 8.806 9.1C8.806 10.1733 8.624 11.088 8.26 11.844C7.90533 12.5907 7.42 13.16 6.804 13.552C6.188 13.944 5.488 14.14 4.704 14.14ZM4.704 12.558C5.16133 12.558 5.558 12.4367 5.894 12.194C6.23 11.942 6.49133 11.5593 6.678 11.046C6.874 10.5327 6.972 9.884 6.972 9.1C6.972 8.30667 6.874 7.658 6.678 7.154C6.49133 6.64067 6.23 6.26267 5.894 6.02C5.558 5.768 5.16133 5.642 4.704 5.642C4.26533 5.642 3.87333 5.768 3.528 6.02C3.192 6.26267 2.926 6.64067 2.73 7.154C2.54333 7.658 2.45 8.30667 2.45 9.1C2.45 9.884 2.54333 10.5327 2.73 11.046C2.926 11.5593 3.192 11.942 3.528 12.194C3.87333 12.4367 4.26533 12.558 4.704 12.558ZM11.5903 14V4.9L12.3883 5.726H9.51825V4.2H13.4103V14H11.5903ZM16.4463 14.098C16.1289 14.098 15.8583 13.9907 15.6343 13.776C15.4103 13.552 15.2983 13.272 15.2983 12.936C15.2983 12.5813 15.4103 12.3013 15.6343 12.096C15.8583 11.8813 16.1289 11.774 16.4463 11.774C16.7636 11.774 17.0343 11.8813 17.2583 12.096C17.4823 12.3013 17.5943 12.5813 17.5943 12.936C17.5943 13.272 17.4823 13.552 17.2583 13.776C17.0343 13.9907 16.7636 14.098 16.4463 14.098Z" fill="black"/>
<path d="M372.712 17.17C371.771 17.17 370.921 16.932 370.162 16.456C369.414 15.98 368.825 15.2887 368.394 14.382C367.963 13.464 367.748 12.3533 367.748 11.05C367.748 9.74667 367.963 8.64167 368.394 7.735C368.825 6.817 369.414 6.12 370.162 5.644C370.921 5.168 371.771 4.93 372.712 4.93C373.664 4.93 374.514 5.168 375.262 5.644C376.01 6.12 376.599 6.817 377.03 7.735C377.472 8.64167 377.693 9.74667 377.693 11.05C377.693 12.3533 377.472 13.464 377.03 14.382C376.599 15.2887 376.01 15.98 375.262 16.456C374.514 16.932 373.664 17.17 372.712 17.17ZM372.712 15.249C373.267 15.249 373.749 15.1017 374.157 14.807C374.565 14.501 374.882 14.0363 375.109 13.413C375.347 12.7897 375.466 12.002 375.466 11.05C375.466 10.0867 375.347 9.299 375.109 8.687C374.882 8.06367 374.565 7.60467 374.157 7.31C373.749 7.004 373.267 6.851 372.712 6.851C372.179 6.851 371.703 7.004 371.284 7.31C370.876 7.60467 370.553 8.06367 370.315 8.687C370.088 9.299 369.975 10.0867 369.975 11.05C369.975 12.002 370.088 12.7897 370.315 13.413C370.553 14.0363 370.876 14.501 371.284 14.807C371.703 15.1017 372.179 15.249 372.712 15.249ZM382.944 17V5.95L383.913 6.953H380.428V5.1H385.154V17H382.944Z" fill="#16713D"/>
<path d="M27.26 31.94C26.8933 31.3333 26.61 30.6333 26.41 29.84C26.2167 29.0467 26.12 28.1867 26.12 27.26C26.12 26.3333 26.2167 25.47 26.41 24.67C26.61 23.8633 26.8933 23.1667 27.26 22.58H27.74C27.3467 23.2467 27.06 23.9667 26.88 24.74C26.7 25.5133 26.61 26.3533 26.61 27.26C26.61 28.1667 26.7 29.0067 26.88 29.78C27.06 30.5533 27.3467 31.2733 27.74 31.94H27.26ZM32.3929 30.05C31.8729 30.05 31.3896 29.9633 30.9429 29.79C30.5029 29.61 30.1196 29.36 29.7929 29.04C29.4662 28.72 29.2129 28.3467 29.0329 27.92C28.8529 27.4867 28.7629 27.0133 28.7629 26.5C28.7629 25.9867 28.8529 25.5167 29.0329 25.09C29.2129 24.6567 29.4662 24.28 29.7929 23.96C30.1262 23.64 30.5129 23.3933 30.9529 23.22C31.3929 23.04 31.8729 22.95 32.3929 22.95C32.8862 22.95 33.3462 23.03 33.7729 23.19C34.2062 23.35 34.5762 23.5933 34.8829 23.92L34.5629 24.25C34.2629 23.9567 33.9296 23.7467 33.5629 23.62C33.2029 23.4867 32.8196 23.42 32.4129 23.42C31.9662 23.42 31.5496 23.4967 31.1629 23.65C30.7829 23.8033 30.4496 24.02 30.1629 24.3C29.8829 24.58 29.6629 24.9067 29.5029 25.28C29.3496 25.6533 29.2729 26.06 29.2729 26.5C29.2729 26.94 29.3496 27.3467 29.5029 27.72C29.6629 28.0933 29.8829 28.42 30.1629 28.7C30.4496 28.98 30.7829 29.1967 31.1629 29.35C31.5496 29.5033 31.9662 29.58 32.4129 29.58C32.8196 29.58 33.2029 29.5167 33.5629 29.39C33.9296 29.2567 34.2629 29.04 34.5629 28.74L34.8829 29.07C34.5762 29.3967 34.2062 29.6433 33.7729 29.81C33.3462 29.97 32.8862 30.05 32.3929 30.05ZM36.4311 30V22.58H36.9311V30H36.4311ZM41.1585 30.04C40.6318 30.04 40.1652 29.9267 39.7585 29.7C39.3585 29.4733 39.0418 29.16 38.8085 28.76C38.5818 28.36 38.4685 27.9033 38.4685 27.39C38.4685 26.87 38.5752 26.4133 38.7885 26.02C39.0085 25.62 39.3085 25.3067 39.6885 25.08C40.0685 24.8533 40.4952 24.74 40.9685 24.74C41.4418 24.74 41.8652 24.85 42.2385 25.07C42.6185 25.29 42.9152 25.6 43.1285 26C43.3485 26.3933 43.4585 26.85 43.4585 27.37C43.4585 27.39 43.4552 27.4133 43.4485 27.44C43.4485 27.46 43.4485 27.4833 43.4485 27.51H38.8385V27.12H43.1785L42.9785 27.31C42.9852 26.9033 42.8985 26.54 42.7185 26.22C42.5452 25.8933 42.3085 25.64 42.0085 25.46C41.7085 25.2733 41.3618 25.18 40.9685 25.18C40.5818 25.18 40.2352 25.2733 39.9285 25.46C39.6285 25.64 39.3918 25.8933 39.2185 26.22C39.0452 26.54 38.9585 26.9067 38.9585 27.32V27.41C38.9585 27.8367 39.0518 28.2167 39.2385 28.55C39.4318 28.8767 39.6952 29.1333 40.0285 29.32C40.3618 29.5 40.7418 29.59 41.1685 29.59C41.5018 29.59 41.8118 29.53 42.0985 29.41C42.3918 29.29 42.6385 29.1067 42.8385 28.86L43.1285 29.19C42.9018 29.47 42.6152 29.6833 42.2685 29.83C41.9285 29.97 41.5585 30.04 41.1585 30.04ZM48.1488 30V28.81L48.1288 28.63V26.67C48.1288 26.1833 47.9955 25.8133 47.7288 25.56C47.4688 25.3067 47.0855 25.18 46.5788 25.18C46.2188 25.18 45.8822 25.2433 45.5688 25.37C45.2622 25.49 44.9988 25.6467 44.7788 25.84L44.5288 25.48C44.7888 25.2467 45.1022 25.0667 45.4688 24.94C45.8355 24.8067 46.2188 24.74 46.6188 24.74C47.2655 24.74 47.7622 24.9033 48.1088 25.23C48.4555 25.5567 48.6288 26.0433 48.6288 26.69V30H48.1488ZM46.2688 30.04C45.8822 30.04 45.5455 29.98 45.2588 29.86C44.9788 29.7333 44.7622 29.5567 44.6088 29.33C44.4622 29.1033 44.3888 28.8433 44.3888 28.55C44.3888 28.2833 44.4488 28.0433 44.5688 27.83C44.6955 27.61 44.9022 27.4333 45.1888 27.3C45.4755 27.16 45.8588 27.09 46.3388 27.09H48.2588V27.48H46.3488C45.8088 27.48 45.4288 27.58 45.2088 27.78C44.9955 27.98 44.8888 28.23 44.8888 28.53C44.8888 28.8633 45.0155 29.13 45.2688 29.33C45.5222 29.53 45.8788 29.63 46.3388 29.63C46.7788 29.63 47.1488 29.53 47.4488 29.33C47.7555 29.13 47.9822 28.84 48.1288 28.46L48.2688 28.8C48.1288 29.18 47.8888 29.4833 47.5488 29.71C47.2155 29.93 46.7888 30.04 46.2688 30.04ZM50.6889 30V24.78H51.1689V26.21L51.1189 26.05C51.2656 25.63 51.5122 25.3067 51.8589 25.08C52.2056 24.8533 52.6389 24.74 53.1589 24.74V25.23C53.1389 25.23 53.1189 25.23 53.0989 25.23C53.0789 25.2233 53.0589 25.22 53.0389 25.22C52.4589 25.22 52.0056 25.4033 51.6789 25.77C51.3522 26.13 51.1889 26.6333 51.1889 27.28V30H50.6889ZM57.3528 30V23H59.8628C60.4495 23 60.9528 23.0933 61.3728 23.28C61.7928 23.4667 62.1161 23.7367 62.3428 24.09C62.5695 24.4367 62.6828 24.86 62.6828 25.36C62.6828 25.8467 62.5695 26.2667 62.3428 26.62C62.1161 26.9733 61.7928 27.2433 61.3728 27.43C60.9528 27.6167 60.4495 27.71 59.8628 27.71H57.6328L57.8628 27.47V30H57.3528ZM57.8628 27.5L57.6328 27.25H59.8628C60.6161 27.25 61.1861 27.0867 61.5728 26.76C61.9661 26.4267 62.1628 25.96 62.1628 25.36C62.1628 24.7533 61.9661 24.2867 61.5728 23.96C61.1861 23.6267 60.6161 23.46 59.8628 23.46H57.6328L57.8628 23.21V27.5ZM64.0776 30V24.78H64.5576V26.21L64.5076 26.05C64.6542 25.63 64.9009 25.3067 65.2476 25.08C65.5942 24.8533 66.0276 24.74 66.5476 24.74V25.23C66.5276 25.23 66.5076 25.23 66.4876 25.23C66.4676 25.2233 66.4476 25.22 66.4276 25.22C65.8476 25.22 65.3942 25.4033 65.0676 25.77C64.7409 26.13 64.5776 26.6333 64.5776 27.28V30H64.0776ZM69.9164 30.04C69.4164 30.04 68.9697 29.9267 68.5764 29.7C68.1897 29.4733 67.8797 29.16 67.6464 28.76C67.4197 28.36 67.3064 27.9033 67.3064 27.39C67.3064 26.87 67.4197 26.4133 67.6464 26.02C67.8797 25.62 68.1897 25.3067 68.5764 25.08C68.9697 24.8533 69.4164 24.74 69.9164 24.74C70.4164 24.74 70.8631 24.8533 71.2564 25.08C71.6497 25.3067 71.9597 25.62 72.1864 26.02C72.4131 26.4133 72.5264 26.87 72.5264 27.39C72.5264 27.9033 72.4131 28.36 72.1864 28.76C71.9597 29.16 71.6497 29.4733 71.2564 29.7C70.8631 29.9267 70.4164 30.04 69.9164 30.04ZM69.9164 29.59C70.3164 29.59 70.6764 29.5 70.9964 29.32C71.3164 29.1333 71.5664 28.8733 71.7464 28.54C71.9264 28.2067 72.0164 27.8233 72.0164 27.39C72.0164 26.95 71.9264 26.5667 71.7464 26.24C71.5664 25.9067 71.3164 25.65 70.9964 25.47C70.6764 25.2833 70.3164 25.19 69.9164 25.19C69.5164 25.19 69.1564 25.2833 68.8364 25.47C68.5231 25.65 68.2731 25.9067 68.0864 26.24C67.9064 26.5667 67.8164 26.95 67.8164 27.39C67.8164 27.8233 67.9064 28.2067 68.0864 28.54C68.2731 28.8733 68.5231 29.1333 68.8364 29.32C69.1564 29.5 69.5164 29.59 69.9164 29.59ZM75.5976 30.04C75.1376 30.04 74.7842 29.9133 74.5376 29.66C74.2976 29.4067 74.1776 29.06 74.1776 28.62V23.64H74.6776V28.57C74.6776 28.9033 74.7609 29.16 74.9276 29.34C75.0942 29.52 75.3342 29.61 75.6476 29.61C75.9742 29.61 76.2442 29.5133 76.4576 29.32L76.6676 29.67C76.5342 29.7967 76.3709 29.89 76.1776 29.95C75.9909 30.01 75.7976 30.04 75.5976 30.04ZM73.2176 25.21V24.78H76.3376V25.21H73.2176ZM79.9964 30.04C79.4697 30.04 79.0031 29.9267 78.5964 29.7C78.1964 29.4733 77.8797 29.16 77.6464 28.76C77.4197 28.36 77.3064 27.9033 77.3064 27.39C77.3064 26.87 77.4131 26.4133 77.6264 26.02C77.8464 25.62 78.1464 25.3067 78.5264 25.08C78.9064 24.8533 79.3331 24.74 79.8064 24.74C80.2797 24.74 80.7031 24.85 81.0764 25.07C81.4564 25.29 81.7531 25.6 81.9664 26C82.1864 26.3933 82.2964 26.85 82.2964 27.37C82.2964 27.39 82.2931 27.4133 82.2864 27.44C82.2864 27.46 82.2864 27.4833 82.2864 27.51H77.6764V27.12H82.0164L81.8164 27.31C81.8231 26.9033 81.7364 26.54 81.5564 26.22C81.3831 25.8933 81.1464 25.64 80.8464 25.46C80.5464 25.2733 80.1997 25.18 79.8064 25.18C79.4197 25.18 79.0731 25.2733 78.7664 25.46C78.4664 25.64 78.2297 25.8933 78.0564 26.22C77.8831 26.54 77.7964 26.9067 77.7964 27.32V27.41C77.7964 27.8367 77.8897 28.2167 78.0764 28.55C78.2697 28.8767 78.5331 29.1333 78.8664 29.32C79.1997 29.5 79.5797 29.59 80.0064 29.59C80.3397 29.59 80.6497 29.53 80.9364 29.41C81.2297 29.29 81.4764 29.1067 81.6764 28.86L81.9664 29.19C81.7397 29.47 81.4531 29.6833 81.1064 29.83C80.7664 29.97 80.3964 30.04 79.9964 30.04ZM85.9132 30.04C85.4065 30.04 84.9532 29.9267 84.5532 29.7C84.1599 29.4733 83.8465 29.16 83.6132 28.76C83.3865 28.36 83.2732 27.9033 83.2732 27.39C83.2732 26.87 83.3865 26.41 83.6132 26.01C83.8465 25.61 84.1599 25.3 84.5532 25.08C84.9532 24.8533 85.4065 24.74 85.9132 24.74C86.3332 24.74 86.7132 24.82 87.0532 24.98C87.3999 25.14 87.6799 25.38 87.8932 25.7L87.5232 25.97C87.3365 25.7033 87.1032 25.5067 86.8232 25.38C86.5432 25.2533 86.2399 25.19 85.9132 25.19C85.5065 25.19 85.1399 25.2833 84.8132 25.47C84.4932 25.65 84.2399 25.9067 84.0532 26.24C83.8732 26.5667 83.7832 26.95 83.7832 27.39C83.7832 27.83 83.8732 28.2167 84.0532 28.55C84.2399 28.8767 84.4932 29.1333 84.8132 29.32C85.1399 29.5 85.5065 29.59 85.9132 29.59C86.2399 29.59 86.5432 29.5267 86.8232 29.4C87.1032 29.2733 87.3365 29.0767 87.5232 28.81L87.8932 29.08C87.6799 29.4 87.3999 29.64 87.0532 29.8C86.7132 29.96 86.3332 30.04 85.9132 30.04ZM90.9687 30.04C90.5087 30.04 90.1553 29.9133 89.9087 29.66C89.6687 29.4067 89.5487 29.06 89.5487 28.62V23.64H90.0487V28.57C90.0487 28.9033 90.132 29.16 90.2987 29.34C90.4653 29.52 90.7053 29.61 91.0187 29.61C91.3453 29.61 91.6153 29.5133 91.8287 29.32L92.0387 29.67C91.9053 29.7967 91.742 29.89 91.5487 29.95C91.362 30.01 91.1687 30.04 90.9687 30.04ZM88.5887 25.21V24.78H91.7087V25.21H88.5887ZM93.433 30V24.78H93.933V30H93.433ZM93.683 23.51C93.5697 23.51 93.473 23.47 93.393 23.39C93.313 23.31 93.273 23.2167 93.273 23.11C93.273 22.9967 93.313 22.9 93.393 22.82C93.473 22.74 93.5697 22.7 93.683 22.7C93.803 22.7 93.8997 22.74 93.973 22.82C94.053 22.8933 94.093 22.9867 94.093 23.1C94.093 23.2133 94.053 23.31 93.973 23.39C93.8997 23.47 93.803 23.51 93.683 23.51ZM98.0805 30.04C97.5805 30.04 97.1338 29.9267 96.7405 29.7C96.3538 29.4733 96.0438 29.16 95.8105 28.76C95.5838 28.36 95.4705 27.9033 95.4705 27.39C95.4705 26.87 95.5838 26.4133 95.8105 26.02C96.0438 25.62 96.3538 25.3067 96.7405 25.08C97.1338 24.8533 97.5805 24.74 98.0805 24.74C98.5805 24.74 99.0271 24.8533 99.4205 25.08C99.8138 25.3067 100.124 25.62 100.35 26.02C100.577 26.4133 100.69 26.87 100.69 27.39C100.69 27.9033 100.577 28.36 100.35 28.76C100.124 29.16 99.8138 29.4733 99.4205 29.7C99.0271 29.9267 98.5805 30.04 98.0805 30.04ZM98.0805 29.59C98.4805 29.59 98.8405 29.5 99.1605 29.32C99.4805 29.1333 99.7305 28.8733 99.9105 28.54C100.09 28.2067 100.18 27.8233 100.18 27.39C100.18 26.95 100.09 26.5667 99.9105 26.24C99.7305 25.9067 99.4805 25.65 99.1605 25.47C98.8405 25.2833 98.4805 25.19 98.0805 25.19C97.6805 25.19 97.3205 25.2833 97.0005 25.47C96.6871 25.65 96.4371 25.9067 96.2505 26.24C96.0705 26.5667 95.9805 26.95 95.9805 27.39C95.9805 27.8233 96.0705 28.2067 96.2505 28.54C96.4371 28.8733 96.6871 29.1333 97.0005 29.32C97.3205 29.5 97.6805 29.59 98.0805 29.59ZM104.792 24.74C105.218 24.74 105.588 24.8233 105.902 24.99C106.222 25.15 106.468 25.3967 106.642 25.73C106.822 26.0567 106.912 26.4633 106.912 26.95V30H106.412V26.99C106.412 26.4033 106.262 25.9567 105.962 25.65C105.668 25.3433 105.255 25.19 104.722 25.19C104.315 25.19 103.962 25.2733 103.662 25.44C103.362 25.6067 103.132 25.84 102.972 26.14C102.818 26.44 102.742 26.8 102.742 27.22V30H102.242V24.78H102.722V26.23L102.652 26.07C102.812 25.6567 103.075 25.3333 103.442 25.1C103.808 24.86 104.258 24.74 104.792 24.74ZM108.91 30.04C108.797 30.04 108.697 30 108.61 29.92C108.53 29.8333 108.49 29.73 108.49 29.61C108.49 29.49 108.53 29.39 108.61 29.31C108.697 29.23 108.797 29.19 108.91 29.19C109.023 29.19 109.12 29.23 109.2 29.31C109.287 29.39 109.33 29.49 109.33 29.61C109.33 29.73 109.287 29.8333 109.2 29.92C109.12 30 109.023 30.04 108.91 30.04ZM116.66 30.05C116.14 30.05 115.657 29.9633 115.21 29.79C114.77 29.61 114.387 29.36 114.06 29.04C113.734 28.72 113.48 28.3467 113.3 27.92C113.12 27.4867 113.03 27.0133 113.03 26.5C113.03 25.9867 113.12 25.5167 113.3 25.09C113.48 24.6567 113.734 24.28 114.06 23.96C114.394 23.64 114.78 23.3933 115.22 23.22C115.66 23.04 116.14 22.95 116.66 22.95C117.154 22.95 117.614 23.03 118.04 23.19C118.474 23.35 118.844 23.5933 119.15 23.92L118.83 24.25C118.53 23.9567 118.197 23.7467 117.83 23.62C117.47 23.4867 117.087 23.42 116.68 23.42C116.234 23.42 115.817 23.4967 115.43 23.65C115.05 23.8033 114.717 24.02 114.43 24.3C114.15 24.58 113.93 24.9067 113.77 25.28C113.617 25.6533 113.54 26.06 113.54 26.5C113.54 26.94 113.617 27.3467 113.77 27.72C113.93 28.0933 114.15 28.42 114.43 28.7C114.717 28.98 115.05 29.1967 115.43 29.35C115.817 29.5033 116.234 29.58 116.68 29.58C117.087 29.58 117.47 29.5167 117.83 29.39C118.197 29.2567 118.53 29.04 118.83 28.74L119.15 29.07C118.844 29.3967 118.474 29.6433 118.04 29.81C117.614 29.97 117.154 30.05 116.66 30.05ZM120.699 30V22.58H121.199V30H120.699ZM125.426 30.04C124.899 30.04 124.433 29.9267 124.026 29.7C123.626 29.4733 123.309 29.16 123.076 28.76C122.849 28.36 122.736 27.9033 122.736 27.39C122.736 26.87 122.843 26.4133 123.056 26.02C123.276 25.62 123.576 25.3067 123.956 25.08C124.336 24.8533 124.763 24.74 125.236 24.74C125.709 24.74 126.133 24.85 126.506 25.07C126.886 25.29 127.183 25.6 127.396 26C127.616 26.3933 127.726 26.85 127.726 27.37C127.726 27.39 127.723 27.4133 127.716 27.44C127.716 27.46 127.716 27.4833 127.716 27.51H123.106V27.12H127.446L127.246 27.31C127.253 26.9033 127.166 26.54 126.986 26.22C126.813 25.8933 126.576 25.64 126.276 25.46C125.976 25.2733 125.629 25.18 125.236 25.18C124.849 25.18 124.503 25.2733 124.196 25.46C123.896 25.64 123.659 25.8933 123.486 26.22C123.313 26.54 123.226 26.9067 123.226 27.32V27.41C123.226 27.8367 123.319 28.2167 123.506 28.55C123.699 28.8767 123.963 29.1333 124.296 29.32C124.629 29.5 125.009 29.59 125.436 29.59C125.769 29.59 126.079 29.53 126.366 29.41C126.659 29.29 126.906 29.1067 127.106 28.86L127.396 29.19C127.169 29.47 126.883 29.6833 126.536 29.83C126.196 29.97 125.826 30.04 125.426 30.04ZM132.416 30V28.81L132.396 28.63V26.67C132.396 26.1833 132.263 25.8133 131.996 25.56C131.736 25.3067 131.353 25.18 130.846 25.18C130.486 25.18 130.15 25.2433 129.836 25.37C129.53 25.49 129.266 25.6467 129.046 25.84L128.796 25.48C129.056 25.2467 129.37 25.0667 129.736 24.94C130.103 24.8067 130.486 24.74 130.886 24.74C131.533 24.74 132.03 24.9033 132.376 25.23C132.723 25.5567 132.896 26.0433 132.896 26.69V30H132.416ZM130.536 30.04C130.15 30.04 129.813 29.98 129.526 29.86C129.246 29.7333 129.03 29.5567 128.876 29.33C128.73 29.1033 128.656 28.8433 128.656 28.55C128.656 28.2833 128.716 28.0433 128.836 27.83C128.963 27.61 129.17 27.4333 129.456 27.3C129.743 27.16 130.126 27.09 130.606 27.09H132.526V27.48H130.616C130.076 27.48 129.696 27.58 129.476 27.78C129.263 27.98 129.156 28.23 129.156 28.53C129.156 28.8633 129.283 29.13 129.536 29.33C129.79 29.53 130.146 29.63 130.606 29.63C131.046 29.63 131.416 29.53 131.716 29.33C132.023 29.13 132.25 28.84 132.396 28.46L132.536 28.8C132.396 29.18 132.156 29.4833 131.816 29.71C131.483 29.93 131.056 30.04 130.536 30.04ZM137.506 24.74C137.933 24.74 138.303 24.8233 138.616 24.99C138.936 25.15 139.183 25.3967 139.356 25.73C139.536 26.0567 139.626 26.4633 139.626 26.95V30H139.126V26.99C139.126 26.4033 138.976 25.9567 138.676 25.65C138.383 25.3433 137.97 25.19 137.436 25.19C137.03 25.19 136.676 25.2733 136.376 25.44C136.076 25.6067 135.846 25.84 135.686 26.14C135.533 26.44 135.456 26.8 135.456 27.22V30H134.956V24.78H135.436V26.23L135.366 26.07C135.526 25.6567 135.79 25.3333 136.156 25.1C136.523 24.86 136.973 24.74 137.506 24.74ZM144.413 30V23H146.923C147.51 23 148.013 23.0933 148.433 23.28C148.853 23.4667 149.177 23.7367 149.403 24.09C149.63 24.4367 149.743 24.86 149.743 25.36C149.743 25.8467 149.63 26.2667 149.403 26.62C149.177 26.9733 148.853 27.2433 148.433 27.43C148.013 27.6167 147.51 27.71 146.923 27.71H144.693L144.923 27.47V30H144.413ZM144.923 27.5L144.693 27.25H146.923C147.677 27.25 148.247 27.0867 148.633 26.76C149.027 26.4267 149.223 25.96 149.223 25.36C149.223 24.7533 149.027 24.2867 148.633 23.96C148.247 23.6267 147.677 23.46 146.923 23.46H144.693L144.923 23.21V27.5ZM151.138 30V24.78H151.618V26.21L151.568 26.05C151.715 25.63 151.961 25.3067 152.308 25.08C152.655 24.8533 153.088 24.74 153.608 24.74V25.23C153.588 25.23 153.568 25.23 153.548 25.23C153.528 25.2233 153.508 25.22 153.488 25.22C152.908 25.22 152.455 25.4033 152.128 25.77C151.801 26.13 151.638 26.6333 151.638 27.28V30H151.138ZM157.057 30.04C156.53 30.04 156.064 29.9267 155.657 29.7C155.257 29.4733 154.94 29.16 154.707 28.76C154.48 28.36 154.367 27.9033 154.367 27.39C154.367 26.87 154.474 26.4133 154.687 26.02C154.907 25.62 155.207 25.3067 155.587 25.08C155.967 24.8533 156.394 24.74 156.867 24.74C157.34 24.74 157.764 24.85 158.137 25.07C158.517 25.29 158.814 25.6 159.027 26C159.247 26.3933 159.357 26.85 159.357 27.37C159.357 27.39 159.354 27.4133 159.347 27.44C159.347 27.46 159.347 27.4833 159.347 27.51H154.737V27.12H159.077L158.877 27.31C158.884 26.9033 158.797 26.54 158.617 26.22C158.444 25.8933 158.207 25.64 157.907 25.46C157.607 25.2733 157.26 25.18 156.867 25.18C156.48 25.18 156.134 25.2733 155.827 25.46C155.527 25.64 155.29 25.8933 155.117 26.22C154.944 26.54 154.857 26.9067 154.857 27.32V27.41C154.857 27.8367 154.95 28.2167 155.137 28.55C155.33 28.8767 155.594 29.1333 155.927 29.32C156.26 29.5 156.64 29.59 157.067 29.59C157.4 29.59 157.71 29.53 157.997 29.41C158.29 29.29 158.537 29.1067 158.737 28.86L159.027 29.19C158.8 29.47 158.514 29.6833 158.167 29.83C157.827 29.97 157.457 30.04 157.057 30.04ZM162.224 30.04C161.79 30.04 161.384 29.9767 161.004 29.85C160.63 29.7233 160.34 29.5633 160.134 29.37L160.364 28.97C160.564 29.1433 160.83 29.2933 161.164 29.42C161.497 29.54 161.857 29.6 162.244 29.6C162.79 29.6 163.184 29.51 163.424 29.33C163.664 29.15 163.784 28.9133 163.784 28.62C163.784 28.4067 163.72 28.24 163.594 28.12C163.474 27.9933 163.31 27.8967 163.104 27.83C162.897 27.7633 162.67 27.71 162.424 27.67C162.177 27.6233 161.93 27.5733 161.684 27.52C161.437 27.4667 161.21 27.39 161.004 27.29C160.797 27.19 160.63 27.0533 160.504 26.88C160.384 26.7 160.324 26.4633 160.324 26.17C160.324 25.9033 160.397 25.6633 160.544 25.45C160.69 25.2367 160.91 25.0667 161.204 24.94C161.497 24.8067 161.864 24.74 162.304 24.74C162.63 24.74 162.957 24.7867 163.284 24.88C163.617 24.9733 163.887 25.0967 164.094 25.25L163.864 25.65C163.644 25.4833 163.397 25.3633 163.124 25.29C162.85 25.2167 162.574 25.18 162.294 25.18C161.787 25.18 161.414 25.2733 161.174 25.46C160.94 25.6467 160.824 25.88 160.824 26.16C160.824 26.38 160.884 26.5567 161.004 26.69C161.13 26.8167 161.297 26.9167 161.504 26.99C161.71 27.0567 161.937 27.1133 162.184 27.16C162.43 27.2 162.677 27.2467 162.924 27.3C163.17 27.3533 163.397 27.43 163.604 27.53C163.81 27.6233 163.974 27.7567 164.094 27.93C164.22 28.0967 164.284 28.3233 164.284 28.61C164.284 28.8967 164.204 29.1467 164.044 29.36C163.89 29.5733 163.66 29.74 163.354 29.86C163.047 29.98 162.67 30.04 162.224 30.04ZM167.799 30.04C167.272 30.04 166.806 29.9267 166.399 29.7C165.999 29.4733 165.682 29.16 165.449 28.76C165.222 28.36 165.109 27.9033 165.109 27.39C165.109 26.87 165.216 26.4133 165.429 26.02C165.649 25.62 165.949 25.3067 166.329 25.08C166.709 24.8533 167.136 24.74 167.609 24.74C168.082 24.74 168.506 24.85 168.879 25.07C169.259 25.29 169.556 25.6 169.769 26C169.989 26.3933 170.099 26.85 170.099 27.37C170.099 27.39 170.096 27.4133 170.089 27.44C170.089 27.46 170.089 27.4833 170.089 27.51H165.479V27.12H169.819L169.619 27.31C169.626 26.9033 169.539 26.54 169.359 26.22C169.186 25.8933 168.949 25.64 168.649 25.46C168.349 25.2733 168.002 25.18 167.609 25.18C167.222 25.18 166.876 25.2733 166.569 25.46C166.269 25.64 166.032 25.8933 165.859 26.22C165.686 26.54 165.599 26.9067 165.599 27.32V27.41C165.599 27.8367 165.692 28.2167 165.879 28.55C166.072 28.8767 166.336 29.1333 166.669 29.32C167.002 29.5 167.382 29.59 167.809 29.59C168.142 29.59 168.452 29.53 168.739 29.41C169.032 29.29 169.279 29.1067 169.479 28.86L169.769 29.19C169.542 29.47 169.256 29.6833 168.909 29.83C168.569 29.97 168.199 30.04 167.799 30.04ZM174.196 24.74C174.623 24.74 174.993 24.8233 175.306 24.99C175.626 25.15 175.873 25.3967 176.046 25.73C176.226 26.0567 176.316 26.4633 176.316 26.95V30H175.816V26.99C175.816 26.4033 175.666 25.9567 175.366 25.65C175.073 25.3433 174.659 25.19 174.126 25.19C173.719 25.19 173.366 25.2733 173.066 25.44C172.766 25.6067 172.536 25.84 172.376 26.14C172.223 26.44 172.146 26.8 172.146 27.22V30H171.646V24.78H172.126V26.23L172.056 26.07C172.216 25.6567 172.479 25.3333 172.846 25.1C173.213 24.86 173.663 24.74 174.196 24.74ZM179.894 30.04C179.434 30.04 179.081 29.9133 178.834 29.66C178.594 29.4067 178.474 29.06 178.474 28.62V23.64H178.974V28.57C178.974 28.9033 179.058 29.16 179.224 29.34C179.391 29.52 179.631 29.61 179.944 29.61C180.271 29.61 180.541 29.5133 180.754 29.32L180.964 29.67C180.831 29.7967 180.668 29.89 180.474 29.95C180.288 30.01 180.094 30.04 179.894 30.04ZM177.514 25.21V24.78H180.634V25.21H177.514ZM185.649 30V28.81L185.629 28.63V26.67C185.629 26.1833 185.495 25.8133 185.229 25.56C184.969 25.3067 184.585 25.18 184.079 25.18C183.719 25.18 183.382 25.2433 183.069 25.37C182.762 25.49 182.499 25.6467 182.279 25.84L182.029 25.48C182.289 25.2467 182.602 25.0667 182.969 24.94C183.335 24.8067 183.719 24.74 184.119 24.74C184.765 24.74 185.262 24.9033 185.609 25.23C185.955 25.5567 186.129 26.0433 186.129 26.69V30H185.649ZM183.769 30.04C183.382 30.04 183.045 29.98 182.759 29.86C182.479 29.7333 182.262 29.5567 182.109 29.33C181.962 29.1033 181.889 28.8433 181.889 28.55C181.889 28.2833 181.949 28.0433 182.069 27.83C182.195 27.61 182.402 27.4333 182.689 27.3C182.975 27.16 183.359 27.09 183.839 27.09H185.759V27.48H183.849C183.309 27.48 182.929 27.58 182.709 27.78C182.495 27.98 182.389 28.23 182.389 28.53C182.389 28.8633 182.515 29.13 182.769 29.33C183.022 29.53 183.379 29.63 183.839 29.63C184.279 29.63 184.649 29.53 184.949 29.33C185.255 29.13 185.482 28.84 185.629 28.46L185.769 28.8C185.629 29.18 185.389 29.4833 185.049 29.71C184.715 29.93 184.289 30.04 183.769 30.04ZM189.709 30.04C189.249 30.04 188.896 29.9133 188.649 29.66C188.409 29.4067 188.289 29.06 188.289 28.62V23.64H188.789V28.57C188.789 28.9033 188.872 29.16 189.039 29.34C189.206 29.52 189.446 29.61 189.759 29.61C190.086 29.61 190.356 29.5133 190.569 29.32L190.779 29.67C190.646 29.7967 190.482 29.89 190.289 29.95C190.102 30.01 189.909 30.04 189.709 30.04ZM187.329 25.21V24.78H190.449V25.21H187.329ZM192.173 30V24.78H192.673V30H192.173ZM192.423 23.51C192.31 23.51 192.213 23.47 192.133 23.39C192.053 23.31 192.013 23.2167 192.013 23.11C192.013 22.9967 192.053 22.9 192.133 22.82C192.213 22.74 192.31 22.7 192.423 22.7C192.543 22.7 192.64 22.74 192.713 22.82C192.793 22.8933 192.833 22.9867 192.833 23.1C192.833 23.2133 192.793 23.31 192.713 23.39C192.64 23.47 192.543 23.51 192.423 23.51ZM196.821 30.04C196.321 30.04 195.874 29.9267 195.481 29.7C195.094 29.4733 194.784 29.16 194.551 28.76C194.324 28.36 194.211 27.9033 194.211 27.39C194.211 26.87 194.324 26.4133 194.551 26.02C194.784 25.62 195.094 25.3067 195.481 25.08C195.874 24.8533 196.321 24.74 196.821 24.74C197.321 24.74 197.767 24.8533 198.161 25.08C198.554 25.3067 198.864 25.62 199.091 26.02C199.317 26.4133 199.431 26.87 199.431 27.39C199.431 27.9033 199.317 28.36 199.091 28.76C198.864 29.16 198.554 29.4733 198.161 29.7C197.767 29.9267 197.321 30.04 196.821 30.04ZM196.821 29.59C197.221 29.59 197.581 29.5 197.901 29.32C198.221 29.1333 198.471 28.8733 198.651 28.54C198.831 28.2067 198.921 27.8233 198.921 27.39C198.921 26.95 198.831 26.5667 198.651 26.24C198.471 25.9067 198.221 25.65 197.901 25.47C197.581 25.2833 197.221 25.19 196.821 25.19C196.421 25.19 196.061 25.2833 195.741 25.47C195.427 25.65 195.177 25.9067 194.991 26.24C194.811 26.5667 194.721 26.95 194.721 27.39C194.721 27.8233 194.811 28.2067 194.991 28.54C195.177 28.8733 195.427 29.1333 195.741 29.32C196.061 29.5 196.421 29.59 196.821 29.59ZM203.532 24.74C203.959 24.74 204.329 24.8233 204.642 24.99C204.962 25.15 205.209 25.3967 205.382 25.73C205.562 26.0567 205.652 26.4633 205.652 26.95V30H205.152V26.99C205.152 26.4033 205.002 25.9567 204.702 25.65C204.409 25.3433 203.995 25.19 203.462 25.19C203.055 25.19 202.702 25.2733 202.402 25.44C202.102 25.6067 201.872 25.84 201.712 26.14C201.559 26.44 201.482 26.8 201.482 27.22V30H200.982V24.78H201.462V26.23L201.392 26.07C201.552 25.6567 201.815 25.3333 202.182 25.1C202.549 24.86 202.999 24.74 203.532 24.74ZM207.6 31.94H207.13C207.517 31.2733 207.8 30.5533 207.98 29.78C208.16 29.0067 208.25 28.1667 208.25 27.26C208.25 26.3533 208.16 25.5133 207.98 24.74C207.8 23.9667 207.517 23.2467 207.13 22.58H207.6C207.967 23.1667 208.25 23.8633 208.45 24.67C208.65 25.47 208.75 26.3333 208.75 27.26C208.75 28.1867 208.65 29.0467 208.45 29.84C208.25 30.6333 207.967 31.3333 207.6 31.94ZM210.873 30.04C210.76 30.04 210.66 30 210.573 29.92C210.493 29.8333 210.453 29.73 210.453 29.61C210.453 29.49 210.493 29.39 210.573 29.31C210.66 29.23 210.76 29.19 210.873 29.19C210.986 29.19 211.083 29.23 211.163 29.31C211.25 29.39 211.293 29.49 211.293 29.61C211.293 29.73 211.25 29.8333 211.163 29.92C211.083 30 210.986 30.04 210.873 30.04Z" fill="black"/>
</svg>
