<svg width="199" height="65" viewBox="0 0 199 65" fill="none" xmlns="http://www.w3.org/2000/svg">
<path d="M0.00021873 35L11.2322 9.8H16.9922L28.2602 35H22.1402L12.9242 12.752H15.2282L5.97622 35H0.00021873ZM5.61622 29.6L7.16422 25.172H20.1242L21.7082 29.6H5.61622ZM30.8747 35V9.8H43.1867C46.3547 9.8 48.7307 10.4 50.3147 11.6C51.9227 12.8 52.7267 14.384 52.7267 16.352C52.7267 17.672 52.4027 18.824 51.7547 19.808C51.1067 20.768 50.2187 21.512 49.0907 22.04C47.9627 22.568 46.6667 22.832 45.2027 22.832L45.8867 21.356C47.4707 21.356 48.8747 21.62 50.0987 22.148C51.3227 22.652 52.2707 23.408 52.9427 24.416C53.6387 25.424 53.9867 26.66 53.9867 28.124C53.9867 30.284 53.1347 31.976 51.4307 33.2C49.7267 34.4 47.2187 35 43.9067 35H30.8747ZM36.6707 30.608H43.4747C44.9867 30.608 46.1267 30.368 46.8947 29.888C47.6867 29.384 48.0827 28.592 48.0827 27.512C48.0827 26.456 47.6867 25.676 46.8947 25.172C46.1267 24.644 44.9867 24.38 43.4747 24.38H36.2387V20.132H42.4667C43.8827 20.132 44.9627 19.892 45.7067 19.412C46.4747 18.908 46.8587 18.152 46.8587 17.144C46.8587 16.16 46.4747 15.428 45.7067 14.948C44.9627 14.444 43.8827 14.192 42.4667 14.192H36.6707V30.608ZM70.6421 35.432C68.6501 35.432 66.8021 35.108 65.0981 34.46C63.4181 33.812 61.9541 32.9 60.7061 31.724C59.4821 30.548 58.5221 29.168 57.8261 27.584C57.1541 26 56.8181 24.272 56.8181 22.4C56.8181 20.528 57.1541 18.8 57.8261 17.216C58.5221 15.632 59.4941 14.252 60.7421 13.076C61.9901 11.9 63.4541 10.988 65.1341 10.34C66.8141 9.692 68.6381 9.368 70.6061 9.368C72.5981 9.368 74.4221 9.692 76.0781 10.34C77.7581 10.988 79.2101 11.9 80.4341 13.076C81.6821 14.252 82.6541 15.632 83.3501 17.216C84.0461 18.776 84.3941 20.504 84.3941 22.4C84.3941 24.272 84.0461 26.012 83.3501 27.62C82.6541 29.204 81.6821 30.584 80.4341 31.76C79.2101 32.912 77.7581 33.812 76.0781 34.46C74.4221 35.108 72.6101 35.432 70.6421 35.432ZM70.6061 30.464C71.7341 30.464 72.7661 30.272 73.7021 29.888C74.6621 29.504 75.5021 28.952 76.2221 28.232C76.9421 27.512 77.4941 26.66 77.8781 25.676C78.2861 24.692 78.4901 23.6 78.4901 22.4C78.4901 21.2 78.2861 20.108 77.8781 19.124C77.4941 18.14 76.9421 17.288 76.2221 16.568C75.5261 15.848 74.6981 15.296 73.7381 14.912C72.7781 14.528 71.7341 14.336 70.6061 14.336C69.4781 14.336 68.4341 14.528 67.4741 14.912C66.5381 15.296 65.7101 15.848 64.9901 16.568C64.2701 17.288 63.7061 18.14 63.2981 19.124C62.9141 20.108 62.7221 21.2 62.7221 22.4C62.7221 23.576 62.9141 24.668 63.2981 25.676C63.7061 26.66 64.2581 27.512 64.9541 28.232C65.6741 28.952 66.5141 29.504 67.4741 29.888C68.4341 30.272 69.4781 30.464 70.6061 30.464ZM99.9731 35.432C96.3971 35.432 93.6011 34.436 91.5851 32.444C89.5691 30.452 88.5611 27.608 88.5611 23.912V9.8H94.3931V23.696C94.3931 26.096 94.8851 27.824 95.8691 28.88C96.8531 29.936 98.2331 30.464 100.009 30.464C101.785 30.464 103.165 29.936 104.149 28.88C105.133 27.824 105.625 26.096 105.625 23.696V9.8H111.385V23.912C111.385 27.608 110.377 30.452 108.361 32.444C106.345 34.436 103.549 35.432 99.9731 35.432ZM121.946 35V14.552H113.882V9.8H135.842V14.552H127.778V35H121.946ZM160.372 35.432C156.796 35.432 154 34.436 151.984 32.444C149.968 30.452 148.96 27.608 148.96 23.912V9.8H154.792V23.696C154.792 26.096 155.284 27.824 156.268 28.88C157.252 29.936 158.632 30.464 160.408 30.464C162.184 30.464 163.564 29.936 164.548 28.88C165.532 27.824 166.023 26.096 166.023 23.696V9.8H171.784V23.912C171.784 27.608 170.776 30.452 168.76 32.444C166.744 34.436 163.948 35.432 160.372 35.432ZM185.827 35.432C183.811 35.432 181.879 35.168 180.031 34.64C178.183 34.088 176.695 33.38 175.567 32.516L177.547 28.124C178.627 28.892 179.899 29.528 181.363 30.032C182.851 30.512 184.351 30.752 185.863 30.752C187.015 30.752 187.939 30.644 188.635 30.428C189.355 30.188 189.883 29.864 190.219 29.456C190.555 29.048 190.723 28.58 190.723 28.052C190.723 27.38 190.459 26.852 189.931 26.468C189.403 26.06 188.707 25.736 187.843 25.496C186.979 25.232 186.019 24.992 184.963 24.776C183.931 24.536 182.887 24.248 181.831 23.912C180.799 23.576 179.851 23.144 178.987 22.616C178.123 22.088 177.415 21.392 176.863 20.528C176.335 19.664 176.071 18.56 176.071 17.216C176.071 15.776 176.455 14.468 177.223 13.292C178.015 12.092 179.191 11.144 180.751 10.448C182.335 9.728 184.315 9.368 186.691 9.368C188.275 9.368 189.835 9.56 191.371 9.944C192.907 10.304 194.263 10.856 195.439 11.6L193.639 16.028C192.463 15.356 191.287 14.864 190.111 14.552C188.935 14.216 187.783 14.048 186.655 14.048C185.527 14.048 184.603 14.18 183.883 14.444C183.163 14.708 182.647 15.056 182.335 15.488C182.023 15.896 181.867 16.376 181.867 16.928C181.867 17.576 182.131 18.104 182.659 18.512C183.187 18.896 183.883 19.208 184.747 19.448C185.611 19.688 186.559 19.928 187.591 20.168C188.647 20.408 189.691 20.684 190.723 20.996C191.779 21.308 192.739 21.728 193.603 22.256C194.467 22.784 195.163 23.48 195.691 24.344C196.243 25.208 196.519 26.3 196.519 27.62C196.519 29.036 196.123 30.332 195.331 31.508C194.539 32.684 193.351 33.632 191.767 34.352C190.207 35.072 188.227 35.432 185.827 35.432Z" fill="white"/>
<path d="M5.30022 61.16C4.42555 61.16 3.58822 61.0373 2.78822 60.792C1.98822 60.536 1.35355 60.2107 0.884219 59.816L1.60422 58.2C2.05222 58.552 2.60689 58.8453 3.26822 59.08C3.92955 59.3147 4.60689 59.432 5.30022 59.432C5.88689 59.432 6.36155 59.368 6.72422 59.24C7.08689 59.112 7.35355 58.9413 7.52422 58.728C7.69489 58.504 7.78022 58.2533 7.78022 57.976C7.78022 57.6347 7.65755 57.3627 7.41222 57.16C7.16689 56.9467 6.84689 56.7813 6.45222 56.664C6.06822 56.536 5.63622 56.4187 5.15622 56.312C4.68689 56.2053 4.21222 56.0827 3.73222 55.944C3.26289 55.7947 2.83089 55.608 2.43622 55.384C2.05222 55.1493 1.73755 54.84 1.49222 54.456C1.24689 54.072 1.12422 53.5813 1.12422 52.984C1.12422 52.376 1.28422 51.8213 1.60422 51.32C1.93489 50.808 2.43089 50.4027 3.09222 50.104C3.76422 49.7947 4.61222 49.64 5.63622 49.64C6.30822 49.64 6.97489 49.7253 7.63622 49.896C8.29755 50.0667 8.87355 50.312 9.36422 50.632L8.70822 52.248C8.20689 51.9493 7.68955 51.7307 7.15622 51.592C6.62289 51.4427 6.11089 51.368 5.62022 51.368C5.04422 51.368 4.57489 51.4373 4.21222 51.576C3.86022 51.7147 3.59889 51.896 3.42822 52.12C3.26822 52.344 3.18822 52.6 3.18822 52.888C3.18822 53.2293 3.30555 53.5067 3.54022 53.72C3.78555 53.9227 4.10022 54.0827 4.48422 54.2C4.87889 54.3173 5.31622 54.4347 5.79622 54.552C6.27622 54.6587 6.75089 54.7813 7.22022 54.92C7.70022 55.0587 8.13222 55.24 8.51622 55.464C8.91089 55.688 9.22555 55.992 9.46022 56.376C9.70555 56.76 9.82822 57.2453 9.82822 57.832C9.82822 58.4293 9.66289 58.984 9.33222 59.496C9.01222 59.9973 8.51622 60.4027 7.84422 60.712C7.17222 61.0107 6.32422 61.16 5.30022 61.16ZM22.4827 52.36C23.1654 52.36 23.7681 52.4933 24.2907 52.76C24.8241 53.0267 25.2401 53.4373 25.5387 53.992C25.8374 54.536 25.9867 55.24 25.9867 56.104V61H23.9867V56.36C23.9867 55.6027 23.8214 55.0373 23.4907 54.664C23.1601 54.2907 22.6854 54.104 22.0667 54.104C21.6294 54.104 21.2401 54.2 20.8987 54.392C20.5681 54.584 20.3067 54.8667 20.1147 55.24C19.9334 55.6133 19.8427 56.088 19.8427 56.664V61H17.8427V56.36C17.8427 55.6027 17.6774 55.0373 17.3467 54.664C17.0161 54.2907 16.5414 54.104 15.9227 54.104C15.4854 54.104 15.0961 54.2 14.7547 54.392C14.4241 54.584 14.1627 54.8667 13.9707 55.24C13.7894 55.6133 13.6987 56.088 13.6987 56.664V61H11.6987V52.456H13.6027V54.728L13.2667 54.056C13.5547 53.5013 13.9707 53.08 14.5147 52.792C15.0694 52.504 15.6987 52.36 16.4027 52.36C17.2027 52.36 17.8961 52.5573 18.4827 52.952C19.0801 53.3467 19.4747 53.944 19.6667 54.744L18.8827 54.472C19.1601 53.832 19.6187 53.32 20.2587 52.936C20.8987 52.552 21.6401 52.36 22.4827 52.36ZM33.8065 61V59.272L33.6945 58.904V55.88C33.6945 55.2933 33.5185 54.84 33.1665 54.52C32.8145 54.1893 32.2811 54.024 31.5665 54.024C31.0865 54.024 30.6118 54.0987 30.1425 54.248C29.6838 54.3973 29.2945 54.6053 28.9745 54.872L28.1905 53.416C28.6491 53.064 29.1931 52.8027 29.8225 52.632C30.4625 52.4507 31.1238 52.36 31.8065 52.36C33.0438 52.36 33.9985 52.6587 34.6705 53.256C35.3531 53.8427 35.6945 54.7547 35.6945 55.992V61H33.8065ZM31.1185 61.112C30.4785 61.112 29.9185 61.0053 29.4385 60.792C28.9585 60.568 28.5851 60.264 28.3185 59.88C28.0625 59.4853 27.9345 59.0427 27.9345 58.552C27.9345 58.072 28.0465 57.64 28.2705 57.256C28.5051 56.872 28.8838 56.568 29.4065 56.344C29.9291 56.12 30.6225 56.008 31.4865 56.008H33.9665V57.336H31.6305C30.9478 57.336 30.4891 57.448 30.2545 57.672C30.0198 57.8853 29.9025 58.152 29.9025 58.472C29.9025 58.8347 30.0465 59.1227 30.3345 59.336C30.6225 59.5493 31.0225 59.656 31.5345 59.656C32.0251 59.656 32.4625 59.544 32.8465 59.32C33.2411 59.096 33.5238 58.7653 33.6945 58.328L34.0305 59.528C33.8385 60.0293 33.4918 60.4187 32.9905 60.696C32.4998 60.9733 31.8758 61.112 31.1185 61.112ZM38.2612 61V52.456H40.1652V54.808L39.9412 54.12C40.1972 53.544 40.5972 53.1067 41.1412 52.808C41.6959 52.5093 42.3839 52.36 43.2052 52.36V54.264C43.1199 54.2427 43.0399 54.232 42.9652 54.232C42.8906 54.2213 42.8159 54.216 42.7412 54.216C41.9839 54.216 41.3812 54.44 40.9332 54.888C40.4852 55.3253 40.2612 55.9813 40.2612 56.856V61H38.2612ZM48.4303 61.112C47.4917 61.112 46.7663 60.872 46.2543 60.392C45.7423 59.9013 45.4863 59.1813 45.4863 58.232V50.568H47.4863V58.184C47.4863 58.5893 47.5877 58.904 47.7903 59.128C48.0037 59.352 48.297 59.464 48.6703 59.464C49.1183 59.464 49.4917 59.3467 49.7903 59.112L50.3503 60.536C50.1157 60.728 49.8277 60.872 49.4863 60.968C49.145 61.064 48.793 61.112 48.4303 61.112ZM44.0783 54.12V52.52H49.7743V54.12H44.0783ZM56.6095 61V49.8H61.2175C62.2095 49.8 63.0575 49.96 63.7615 50.28C64.4761 50.6 65.0255 51.0587 65.4095 51.656C65.7935 52.2533 65.9855 52.9627 65.9855 53.784C65.9855 54.6053 65.7935 55.3147 65.4095 55.912C65.0255 56.5093 64.4761 56.968 63.7615 57.288C63.0575 57.608 62.2095 57.768 61.2175 57.768H57.7615L58.6895 56.792V61H56.6095ZM58.6895 57.016L57.7615 56.008H61.1215C62.0388 56.008 62.7268 55.816 63.1855 55.432C63.6548 55.0373 63.8895 54.488 63.8895 53.784C63.8895 53.0693 63.6548 52.52 63.1855 52.136C62.7268 51.752 62.0388 51.56 61.1215 51.56H57.7615L58.6895 50.536V57.016ZM71.6793 61.112C70.8047 61.112 70.026 60.9253 69.3433 60.552C68.6607 60.168 68.122 59.6453 67.7273 58.984C67.3327 58.3227 67.1353 57.5707 67.1353 56.728C67.1353 55.8747 67.3327 55.1227 67.7273 54.472C68.122 53.8107 68.6607 53.2933 69.3433 52.92C70.026 52.5467 70.8047 52.36 71.6793 52.36C72.5647 52.36 73.3487 52.5467 74.0313 52.92C74.7247 53.2933 75.2633 53.8053 75.6473 54.456C76.042 55.1067 76.2393 55.864 76.2393 56.728C76.2393 57.5707 76.042 58.3227 75.6473 58.984C75.2633 59.6453 74.7247 60.168 74.0313 60.552C73.3487 60.9253 72.5647 61.112 71.6793 61.112ZM71.6793 59.4C72.17 59.4 72.6073 59.2933 72.9913 59.08C73.3753 58.8667 73.674 58.5573 73.8873 58.152C74.1113 57.7467 74.2233 57.272 74.2233 56.728C74.2233 56.1733 74.1113 55.6987 73.8873 55.304C73.674 54.8987 73.3753 54.5893 72.9913 54.376C72.6073 54.1627 72.1753 54.056 71.6953 54.056C71.2047 54.056 70.7673 54.1627 70.3833 54.376C70.01 54.5893 69.7113 54.8987 69.4873 55.304C69.2633 55.6987 69.1513 56.1733 69.1513 56.728C69.1513 57.272 69.2633 57.7467 69.4873 58.152C69.7113 58.5573 70.01 58.8667 70.3833 59.08C70.7673 59.2933 71.1993 59.4 71.6793 59.4ZM78.1518 61V49.128H80.1518V61H78.1518ZM83.4808 64.216C83.0648 64.216 82.6488 64.1467 82.2328 64.008C81.8168 63.8693 81.4702 63.6773 81.1928 63.432L81.9928 61.96C82.1955 62.1413 82.4248 62.2853 82.6808 62.392C82.9368 62.4987 83.1982 62.552 83.4648 62.552C83.8275 62.552 84.1208 62.4613 84.3448 62.28C84.5688 62.0987 84.7768 61.7947 84.9688 61.368L85.4648 60.248L85.6248 60.008L88.8568 52.456H90.7768L86.7768 61.688C86.5102 62.328 86.2115 62.8347 85.8808 63.208C85.5608 63.5813 85.1982 63.8427 84.7928 63.992C84.3982 64.1413 83.9608 64.216 83.4808 64.216ZM85.2408 61.304L81.3848 52.456H83.4648L86.6008 59.832L85.2408 61.304ZM96.6407 61V49.8H101.249C102.241 49.8 103.089 49.96 103.793 50.28C104.507 50.6 105.057 51.0587 105.441 51.656C105.825 52.2533 106.017 52.9627 106.017 53.784C106.017 54.6053 105.825 55.3147 105.441 55.912C105.057 56.5093 104.507 56.968 103.793 57.288C103.089 57.608 102.241 57.768 101.249 57.768H97.7927L98.7207 56.792V61H96.6407ZM98.7207 57.016L97.7927 56.008H101.153C102.07 56.008 102.758 55.816 103.217 55.432C103.686 55.0373 103.921 54.488 103.921 53.784C103.921 53.0693 103.686 52.52 103.217 52.136C102.758 51.752 102.07 51.56 101.153 51.56H97.7927L98.7207 50.536V57.016ZM113.088 61V59.272L112.976 58.904V55.88C112.976 55.2933 112.8 54.84 112.448 54.52C112.096 54.1893 111.562 54.024 110.848 54.024C110.368 54.024 109.893 54.0987 109.424 54.248C108.965 54.3973 108.576 54.6053 108.256 54.872L107.472 53.416C107.93 53.064 108.474 52.8027 109.104 52.632C109.744 52.4507 110.405 52.36 111.088 52.36C112.325 52.36 113.28 52.6587 113.952 53.256C114.634 53.8427 114.976 54.7547 114.976 55.992V61H113.088ZM110.4 61.112C109.76 61.112 109.2 61.0053 108.72 60.792C108.24 60.568 107.866 60.264 107.6 59.88C107.344 59.4853 107.216 59.0427 107.216 58.552C107.216 58.072 107.328 57.64 107.552 57.256C107.786 56.872 108.165 56.568 108.688 56.344C109.21 56.12 109.904 56.008 110.768 56.008H113.248V57.336H110.912C110.229 57.336 109.77 57.448 109.536 57.672C109.301 57.8853 109.184 58.152 109.184 58.472C109.184 58.8347 109.328 59.1227 109.616 59.336C109.904 59.5493 110.304 59.656 110.816 59.656C111.306 59.656 111.744 59.544 112.128 59.32C112.522 59.096 112.805 58.7653 112.976 58.328L113.312 59.528C113.12 60.0293 112.773 60.4187 112.272 60.696C111.781 60.9733 111.157 61.112 110.4 61.112ZM121.478 61.112C120.582 61.112 119.782 60.9253 119.078 60.552C118.385 60.168 117.841 59.6453 117.446 58.984C117.051 58.3227 116.854 57.5707 116.854 56.728C116.854 55.8747 117.051 55.1227 117.446 54.472C117.841 53.8107 118.385 53.2933 119.078 52.92C119.782 52.5467 120.582 52.36 121.478 52.36C122.31 52.36 123.041 52.5307 123.67 52.872C124.31 53.2027 124.795 53.6933 125.126 54.344L123.59 55.24C123.334 54.8347 123.019 54.536 122.646 54.344C122.283 54.152 121.889 54.056 121.462 54.056C120.971 54.056 120.529 54.1627 120.134 54.376C119.739 54.5893 119.43 54.8987 119.206 55.304C118.982 55.6987 118.87 56.1733 118.87 56.728C118.87 57.2827 118.982 57.7627 119.206 58.168C119.43 58.5627 119.739 58.8667 120.134 59.08C120.529 59.2933 120.971 59.4 121.462 59.4C121.889 59.4 122.283 59.304 122.646 59.112C123.019 58.92 123.334 58.6213 123.59 58.216L125.126 59.112C124.795 59.752 124.31 60.248 123.67 60.6C123.041 60.9413 122.31 61.112 121.478 61.112ZM128.409 59.096L128.457 56.584L132.921 52.456H135.321L131.529 56.264L130.473 57.144L128.409 59.096ZM126.777 61V49.128H128.777V61H126.777ZM133.225 61L130.105 57.144L131.369 55.544L135.657 61H133.225ZM142.056 61V59.272L141.944 58.904V55.88C141.944 55.2933 141.768 54.84 141.416 54.52C141.064 54.1893 140.531 54.024 139.816 54.024C139.336 54.024 138.862 54.0987 138.392 54.248C137.934 54.3973 137.544 54.6053 137.224 54.872L136.44 53.416C136.899 53.064 137.443 52.8027 138.072 52.632C138.712 52.4507 139.374 52.36 140.056 52.36C141.294 52.36 142.248 52.6587 142.92 53.256C143.603 53.8427 143.944 54.7547 143.944 55.992V61H142.056ZM139.368 61.112C138.728 61.112 138.168 61.0053 137.688 60.792C137.208 60.568 136.835 60.264 136.568 59.88C136.312 59.4853 136.184 59.0427 136.184 58.552C136.184 58.072 136.296 57.64 136.52 57.256C136.755 56.872 137.134 56.568 137.656 56.344C138.179 56.12 138.872 56.008 139.736 56.008H142.216V57.336H139.88C139.198 57.336 138.739 57.448 138.504 57.672C138.27 57.8853 138.152 58.152 138.152 58.472C138.152 58.8347 138.296 59.1227 138.584 59.336C138.872 59.5493 139.272 59.656 139.784 59.656C140.275 59.656 140.712 59.544 141.096 59.32C141.491 59.096 141.774 58.7653 141.944 58.328L142.28 59.528C142.088 60.0293 141.742 60.4187 141.24 60.696C140.75 60.9733 140.126 61.112 139.368 61.112ZM150.399 64.216C149.61 64.216 148.836 64.1093 148.079 63.896C147.332 63.6933 146.719 63.3947 146.239 63L147.135 61.496C147.508 61.8053 147.978 62.0507 148.543 62.232C149.119 62.424 149.7 62.52 150.287 62.52C151.226 62.52 151.914 62.3013 152.351 61.864C152.788 61.4373 153.007 60.792 153.007 59.928V58.408L153.167 56.472L153.103 54.536V52.456H155.007V59.704C155.007 61.2507 154.612 62.3867 153.823 63.112C153.034 63.848 151.892 64.216 150.399 64.216ZM150.143 60.616C149.332 60.616 148.596 60.4453 147.935 60.104C147.284 59.752 146.767 59.2667 146.383 58.648C146.01 58.0293 145.823 57.304 145.823 56.472C145.823 55.6507 146.01 54.9307 146.383 54.312C146.767 53.6933 147.284 53.2133 147.935 52.872C148.596 52.5307 149.332 52.36 150.143 52.36C150.868 52.36 151.519 52.504 152.095 52.792C152.671 53.08 153.13 53.528 153.471 54.136C153.823 54.744 153.999 55.5227 153.999 56.472C153.999 57.4213 153.823 58.2053 153.471 58.824C153.13 59.432 152.671 59.8853 152.095 60.184C151.519 60.472 150.868 60.616 150.143 60.616ZM150.447 58.92C150.948 58.92 151.396 58.8187 151.791 58.616C152.186 58.4027 152.49 58.1147 152.703 57.752C152.927 57.3787 153.039 56.952 153.039 56.472C153.039 55.992 152.927 55.5707 152.703 55.208C152.49 54.8347 152.186 54.552 151.791 54.36C151.396 54.1573 150.948 54.056 150.447 54.056C149.946 54.056 149.492 54.1573 149.087 54.36C148.692 54.552 148.383 54.8347 148.159 55.208C147.946 55.5707 147.839 55.992 147.839 56.472C147.839 56.952 147.946 57.3787 148.159 57.752C148.383 58.1147 148.692 58.4027 149.087 58.616C149.492 58.8187 149.946 58.92 150.447 58.92ZM157.636 61V52.456H159.636V61H157.636ZM158.644 51.048C158.271 51.048 157.962 50.9307 157.716 50.696C157.482 50.4613 157.364 50.1787 157.364 49.848C157.364 49.5067 157.482 49.224 157.716 49C157.962 48.7653 158.271 48.648 158.644 48.648C159.018 48.648 159.322 48.76 159.556 48.984C159.802 49.1973 159.924 49.4693 159.924 49.8C159.924 50.152 159.807 50.4507 159.572 50.696C159.338 50.9307 159.028 51.048 158.644 51.048ZM167.109 52.36C167.792 52.36 168.4 52.4933 168.933 52.76C169.477 53.0267 169.904 53.4373 170.213 53.992C170.523 54.536 170.677 55.24 170.677 56.104V61H168.677V56.36C168.677 55.6027 168.496 55.0373 168.133 54.664C167.781 54.2907 167.285 54.104 166.645 54.104C166.176 54.104 165.76 54.2 165.397 54.392C165.035 54.584 164.752 54.872 164.549 55.256C164.357 55.6293 164.261 56.104 164.261 56.68V61H162.261V52.456H164.165V54.76L163.829 54.056C164.128 53.512 164.56 53.096 165.125 52.808C165.701 52.5093 166.363 52.36 167.109 52.36ZM177.102 64.216C176.313 64.216 175.539 64.1093 174.782 63.896C174.035 63.6933 173.422 63.3947 172.942 63L173.838 61.496C174.211 61.8053 174.681 62.0507 175.246 62.232C175.822 62.424 176.403 62.52 176.99 62.52C177.929 62.52 178.617 62.3013 179.054 61.864C179.491 61.4373 179.71 60.792 179.71 59.928V58.408L179.87 56.472L179.806 54.536V52.456H181.71V59.704C181.71 61.2507 181.315 62.3867 180.526 63.112C179.737 63.848 178.595 64.216 177.102 64.216ZM176.846 60.616C176.035 60.616 175.299 60.4453 174.638 60.104C173.987 59.752 173.47 59.2667 173.086 58.648C172.713 58.0293 172.526 57.304 172.526 56.472C172.526 55.6507 172.713 54.9307 173.086 54.312C173.47 53.6933 173.987 53.2133 174.638 52.872C175.299 52.5307 176.035 52.36 176.846 52.36C177.571 52.36 178.222 52.504 178.798 52.792C179.374 53.08 179.833 53.528 180.174 54.136C180.526 54.744 180.702 55.5227 180.702 56.472C180.702 57.4213 180.526 58.2053 180.174 58.824C179.833 59.432 179.374 59.8853 178.798 60.184C178.222 60.472 177.571 60.616 176.846 60.616ZM177.15 58.92C177.651 58.92 178.099 58.8187 178.494 58.616C178.889 58.4027 179.193 58.1147 179.406 57.752C179.63 57.3787 179.742 56.952 179.742 56.472C179.742 55.992 179.63 55.5707 179.406 55.208C179.193 54.8347 178.889 54.552 178.494 54.36C178.099 54.1573 177.651 54.056 177.15 54.056C176.649 54.056 176.195 54.1573 175.79 54.36C175.395 54.552 175.086 54.8347 174.862 55.208C174.649 55.5707 174.542 55.992 174.542 56.472C174.542 56.952 174.649 57.3787 174.862 57.752C175.086 58.1147 175.395 58.4027 175.79 58.616C176.195 58.8187 176.649 58.92 177.15 58.92Z" fill="white"/>
</svg>
