<svg width="189" height="129" viewBox="0 0 189 129" fill="none" xmlns="http://www.w3.org/2000/svg">
<path d="M3.756 12.144C3.084 12.144 2.44 12.056 1.824 11.88C1.208 11.696 0.712 11.46 0.336 11.172L0.996 9.708C1.356 9.964 1.78 10.176 2.268 10.344C2.764 10.504 3.264 10.584 3.768 10.584C4.152 10.584 4.46 10.548 4.692 10.476C4.932 10.396 5.108 10.288 5.22 10.152C5.332 10.016 5.388 9.86 5.388 9.684C5.388 9.46 5.3 9.284 5.124 9.156C4.948 9.02 4.716 8.912 4.428 8.832C4.14 8.744 3.82 8.664 3.468 8.592C3.124 8.512 2.776 8.416 2.424 8.304C2.08 8.192 1.764 8.048 1.476 7.872C1.188 7.696 0.952 7.464 0.768 7.176C0.592 6.888 0.504 6.52 0.504 6.072C0.504 5.592 0.632 5.156 0.888 4.764C1.152 4.364 1.544 4.048 2.064 3.816C2.592 3.576 3.252 3.456 4.044 3.456C4.572 3.456 5.092 3.52 5.604 3.648C6.116 3.768 6.568 3.952 6.96 4.2L6.36 5.676C5.968 5.452 5.576 5.288 5.184 5.184C4.792 5.072 4.408 5.016 4.032 5.016C3.656 5.016 3.348 5.06 3.108 5.148C2.868 5.236 2.696 5.352 2.592 5.496C2.488 5.632 2.436 5.792 2.436 5.976C2.436 6.192 2.524 6.368 2.7 6.504C2.876 6.632 3.108 6.736 3.396 6.816C3.684 6.896 4 6.976 4.344 7.056C4.696 7.136 5.044 7.228 5.388 7.332C5.74 7.436 6.06 7.576 6.348 7.752C6.636 7.928 6.868 8.16 7.044 8.448C7.228 8.736 7.32 9.1 7.32 9.54C7.32 10.012 7.188 10.444 6.924 10.836C6.66 11.228 6.264 11.544 5.736 11.784C5.216 12.024 4.556 12.144 3.756 12.144ZM16.7843 5.448C17.2963 5.448 17.7483 5.552 18.1403 5.76C18.5403 5.96 18.8523 6.272 19.0763 6.696C19.3083 7.112 19.4243 7.648 19.4243 8.304V12H17.5523V8.592C17.5523 8.072 17.4443 7.688 17.2283 7.44C17.0123 7.192 16.7083 7.068 16.3163 7.068C16.0443 7.068 15.8003 7.132 15.5843 7.26C15.3683 7.38 15.2003 7.564 15.0803 7.812C14.9603 8.06 14.9003 8.376 14.9003 8.76V12H13.0283V8.592C13.0283 8.072 12.9203 7.688 12.7043 7.44C12.4963 7.192 12.1963 7.068 11.8043 7.068C11.5323 7.068 11.2883 7.132 11.0723 7.26C10.8563 7.38 10.6883 7.564 10.5683 7.812C10.4483 8.06 10.3883 8.376 10.3883 8.76V12H8.51634V5.544H10.3043V7.308L9.96834 6.792C10.1923 6.352 10.5083 6.02 10.9163 5.796C11.3323 5.564 11.8043 5.448 12.3323 5.448C12.9243 5.448 13.4403 5.6 13.8803 5.904C14.3283 6.2 14.6243 6.656 14.7683 7.272L14.1083 7.092C14.3243 6.588 14.6683 6.188 15.1403 5.892C15.6203 5.596 16.1683 5.448 16.7843 5.448ZM25.0623 12V10.74L24.9423 10.464V8.208C24.9423 7.808 24.8183 7.496 24.5703 7.272C24.3303 7.048 23.9583 6.936 23.4543 6.936C23.1103 6.936 22.7703 6.992 22.4343 7.104C22.1063 7.208 21.8263 7.352 21.5943 7.536L20.9223 6.228C21.2743 5.98 21.6983 5.788 22.1943 5.652C22.6903 5.516 23.1943 5.448 23.7063 5.448C24.6903 5.448 25.4543 5.68 25.9983 6.144C26.5423 6.608 26.8143 7.332 26.8143 8.316V12H25.0623ZM23.0943 12.096C22.5903 12.096 22.1583 12.012 21.7983 11.844C21.4383 11.668 21.1623 11.432 20.9703 11.136C20.7783 10.84 20.6823 10.508 20.6823 10.14C20.6823 9.756 20.7743 9.42 20.9583 9.132C21.1503 8.844 21.4503 8.62 21.8583 8.46C22.2663 8.292 22.7983 8.208 23.4543 8.208H25.1703V9.3H23.6583C23.2183 9.3 22.9143 9.372 22.7463 9.516C22.5863 9.66 22.5063 9.84 22.5063 10.056C22.5063 10.296 22.5983 10.488 22.7823 10.632C22.9743 10.768 23.2343 10.836 23.5623 10.836C23.8743 10.836 24.1543 10.764 24.4023 10.62C24.6503 10.468 24.8303 10.248 24.9423 9.96L25.2303 10.824C25.0943 11.24 24.8463 11.556 24.4863 11.772C24.1263 11.988 23.6623 12.096 23.0943 12.096ZM28.5085 12V5.544H30.2965V7.368L30.0445 6.84C30.2365 6.384 30.5445 6.04 30.9685 5.808C31.3925 5.568 31.9085 5.448 32.5165 5.448V7.176C32.4365 7.168 32.3645 7.164 32.3005 7.164C32.2365 7.156 32.1685 7.152 32.0965 7.152C31.5845 7.152 31.1685 7.3 30.8485 7.596C30.5365 7.884 30.3805 8.336 30.3805 8.952V12H28.5085ZM36.4923 12.096C35.7323 12.096 35.1403 11.904 34.7163 11.52C34.2923 11.128 34.0803 10.548 34.0803 9.78V4.116H35.9523V9.756C35.9523 10.028 36.0243 10.24 36.1683 10.392C36.3123 10.536 36.5083 10.608 36.7563 10.608C37.0523 10.608 37.3043 10.528 37.5123 10.368L38.0163 11.688C37.8243 11.824 37.5923 11.928 37.3203 12C37.0563 12.064 36.7803 12.096 36.4923 12.096ZM33.0843 7.128V5.688H37.5603V7.128H33.0843ZM39.6671 12.084C39.3951 12.084 39.1631 11.992 38.9711 11.808C38.7791 11.616 38.6831 11.376 38.6831 11.088C38.6831 10.784 38.7791 10.544 38.9711 10.368C39.1631 10.184 39.3951 10.092 39.6671 10.092C39.9391 10.092 40.1711 10.184 40.3631 10.368C40.5551 10.544 40.6511 10.784 40.6511 11.088C40.6511 11.376 40.5551 11.616 40.3631 11.808C40.1711 11.992 39.9391 12.084 39.6671 12.084ZM48.1332 12.072C47.5092 12.072 46.9092 11.972 46.3332 11.772C45.7652 11.564 45.3252 11.3 45.0132 10.98L45.3612 10.296C45.6572 10.584 46.0532 10.828 46.5492 11.028C47.0532 11.22 47.5812 11.316 48.1332 11.316C48.6612 11.316 49.0892 11.252 49.4172 11.124C49.7532 10.988 49.9972 10.808 50.1492 10.584C50.3092 10.36 50.3892 10.112 50.3892 9.84C50.3892 9.512 50.2932 9.248 50.1012 9.048C49.9172 8.848 49.6732 8.692 49.3692 8.58C49.0652 8.46 48.7292 8.356 48.3612 8.268C47.9932 8.18 47.6252 8.088 47.2572 7.992C46.8892 7.888 46.5492 7.752 46.2372 7.584C45.9332 7.416 45.6852 7.196 45.4932 6.924C45.3092 6.644 45.2172 6.28 45.2172 5.832C45.2172 5.416 45.3252 5.036 45.5412 4.692C45.7652 4.34 46.1052 4.06 46.5612 3.852C47.0172 3.636 47.6012 3.528 48.3132 3.528C48.7852 3.528 49.2532 3.596 49.7172 3.732C50.1812 3.86 50.5812 4.04 50.9172 4.272L50.6172 4.98C50.2572 4.74 49.8732 4.564 49.4652 4.452C49.0652 4.34 48.6772 4.284 48.3012 4.284C47.7972 4.284 47.3812 4.352 47.0532 4.488C46.7252 4.624 46.4812 4.808 46.3212 5.04C46.1692 5.264 46.0932 5.52 46.0932 5.808C46.0932 6.136 46.1852 6.4 46.3692 6.6C46.5612 6.8 46.8092 6.956 47.1132 7.068C47.4252 7.18 47.7652 7.28 48.1332 7.368C48.5012 7.456 48.8652 7.552 49.2252 7.656C49.5932 7.76 49.9292 7.896 50.2332 8.064C50.5452 8.224 50.7932 8.44 50.9772 8.712C51.1692 8.984 51.2652 9.34 51.2652 9.78C51.2652 10.188 51.1532 10.568 50.9292 10.92C50.7052 11.264 50.3612 11.544 49.8972 11.76C49.4412 11.968 48.8532 12.072 48.1332 12.072ZM55.012 12.06C54.42 12.06 53.964 11.9 53.644 11.58C53.324 11.26 53.164 10.808 53.164 10.224V4.308H54.016V10.176C54.016 10.544 54.108 10.828 54.292 11.028C54.484 11.228 54.756 11.328 55.108 11.328C55.484 11.328 55.796 11.22 56.044 11.004L56.344 11.616C56.176 11.768 55.972 11.88 55.732 11.952C55.5 12.024 55.26 12.06 55.012 12.06ZM52.036 6.408V5.7H55.936V6.408H52.036ZM57.895 12V5.7H58.711V7.416L58.627 7.116C58.803 6.636 59.099 6.272 59.515 6.024C59.931 5.768 60.447 5.64 61.063 5.64V6.468C61.031 6.468 60.999 6.468 60.967 6.468C60.935 6.46 60.903 6.456 60.871 6.456C60.207 6.456 59.687 6.66 59.311 7.068C58.935 7.468 58.747 8.04 58.747 8.784V12H57.895ZM65.1271 12.06C64.5191 12.06 63.9711 11.924 63.4831 11.652C63.0031 11.372 62.6231 10.992 62.3431 10.512C62.0631 10.024 61.9231 9.468 61.9231 8.844C61.9231 8.212 62.0631 7.656 62.3431 7.176C62.6231 6.696 63.0031 6.32 63.4831 6.048C63.9631 5.776 64.5111 5.64 65.1271 5.64C65.7511 5.64 66.3031 5.776 66.7831 6.048C67.2711 6.32 67.6511 6.696 67.9231 7.176C68.2031 7.656 68.3431 8.212 68.3431 8.844C68.3431 9.468 68.2031 10.024 67.9231 10.512C67.6511 10.992 67.2711 11.372 66.7831 11.652C66.2951 11.924 65.7431 12.06 65.1271 12.06ZM65.1271 11.304C65.5831 11.304 65.9871 11.204 66.3391 11.004C66.6911 10.796 66.9671 10.508 67.1671 10.14C67.3751 9.764 67.4791 9.332 67.4791 8.844C67.4791 8.348 67.3751 7.916 67.1671 7.548C66.9671 7.18 66.6911 6.896 66.3391 6.696C65.9871 6.488 65.5871 6.384 65.1391 6.384C64.6911 6.384 64.2911 6.488 63.9391 6.696C63.5871 6.896 63.3071 7.18 63.0991 7.548C62.8911 7.916 62.7871 8.348 62.7871 8.844C62.7871 9.332 62.8911 9.764 63.0991 10.14C63.3071 10.508 63.5871 10.796 63.9391 11.004C64.2911 11.204 64.6871 11.304 65.1271 11.304ZM73.2985 5.64C73.8105 5.64 74.2585 5.74 74.6425 5.94C75.0345 6.132 75.3385 6.428 75.5545 6.828C75.7785 7.228 75.8905 7.732 75.8905 8.34V12H75.0385V8.424C75.0385 7.76 74.8705 7.26 74.5345 6.924C74.2065 6.58 73.7425 6.408 73.1425 6.408C72.6945 6.408 72.3025 6.5 71.9665 6.684C71.6385 6.86 71.3825 7.12 71.1985 7.464C71.0225 7.8 70.9345 8.208 70.9345 8.688V12H70.0825V5.7H70.8985V7.428L70.7665 7.104C70.9665 6.648 71.2865 6.292 71.7265 6.036C72.1665 5.772 72.6905 5.64 73.2985 5.64ZM80.8799 14.388C80.3039 14.388 79.7519 14.304 79.2239 14.136C78.6959 13.968 78.2679 13.728 77.9399 13.416L78.3719 12.768C78.6679 13.032 79.0319 13.24 79.4639 13.392C79.9039 13.552 80.3679 13.632 80.8559 13.632C81.6559 13.632 82.2439 13.444 82.6199 13.068C82.9959 12.7 83.1839 12.124 83.1839 11.34V9.768L83.3039 8.688L83.2199 7.608V5.7H84.0359V11.232C84.0359 12.32 83.7679 13.116 83.2319 13.62C82.7039 14.132 81.9199 14.388 80.8799 14.388ZM80.7239 11.76C80.1239 11.76 79.5839 11.632 79.1039 11.376C78.6239 11.112 78.2439 10.748 77.9639 10.284C77.6919 9.82 77.5559 9.288 77.5559 8.688C77.5559 8.088 77.6919 7.56 77.9639 7.104C78.2439 6.64 78.6239 6.28 79.1039 6.024C79.5839 5.768 80.1239 5.64 80.7239 5.64C81.2839 5.64 81.7879 5.756 82.2359 5.988C82.6839 6.22 83.0399 6.564 83.3039 7.02C83.5679 7.476 83.6999 8.032 83.6999 8.688C83.6999 9.344 83.5679 9.9 83.3039 10.356C83.0399 10.812 82.6839 11.16 82.2359 11.4C81.7879 11.64 81.2839 11.76 80.7239 11.76ZM80.8079 11.004C81.2719 11.004 81.6839 10.908 82.0439 10.716C82.4039 10.516 82.6879 10.244 82.8959 9.9C83.1039 9.548 83.2079 9.144 83.2079 8.688C83.2079 8.232 83.1039 7.832 82.8959 7.488C82.6879 7.144 82.4039 6.876 82.0439 6.684C81.6839 6.484 81.2719 6.384 80.8079 6.384C80.3519 6.384 79.9399 6.484 79.5719 6.684C79.2119 6.876 78.9279 7.144 78.7199 7.488C78.5199 7.832 78.4199 8.232 78.4199 8.688C78.4199 9.144 78.5199 9.548 78.7199 9.9C78.9279 10.244 79.2119 10.516 79.5719 10.716C79.9399 10.908 80.3519 11.004 80.8079 11.004ZM86.6828 12.084C86.4108 12.084 86.1788 11.992 85.9868 11.808C85.7948 11.616 85.6988 11.376 85.6988 11.088C85.6988 10.784 85.7948 10.544 85.9868 10.368C86.1788 10.184 86.4108 10.092 86.6828 10.092C86.9548 10.092 87.1868 10.184 87.3788 10.368C87.5708 10.544 87.6668 10.784 87.6668 11.088C87.6668 11.376 87.5708 11.616 87.3788 11.808C87.1868 11.992 86.9548 12.084 86.6828 12.084ZM95.1728 12.096C94.5328 12.096 93.9208 12 93.3368 11.808C92.7528 11.608 92.2928 11.352 91.9568 11.04L92.4008 10.104C92.7208 10.384 93.1288 10.616 93.6248 10.8C94.1208 10.984 94.6368 11.076 95.1728 11.076C95.6608 11.076 96.0568 11.02 96.3608 10.908C96.6648 10.796 96.8888 10.644 97.0328 10.452C97.1768 10.252 97.2488 10.028 97.2488 9.78C97.2488 9.492 97.1528 9.26 96.9608 9.084C96.7768 8.908 96.5328 8.768 96.2288 8.664C95.9328 8.552 95.6048 8.456 95.2448 8.376C94.8848 8.296 94.5208 8.204 94.1528 8.1C93.7928 7.988 93.4608 7.848 93.1568 7.68C92.8608 7.512 92.6208 7.288 92.4368 7.008C92.2528 6.72 92.1608 6.352 92.1608 5.904C92.1608 5.472 92.2728 5.076 92.4968 4.716C92.7288 4.348 93.0808 4.056 93.5528 3.84C94.0328 3.616 94.6408 3.504 95.3768 3.504C95.8648 3.504 96.3488 3.568 96.8288 3.696C97.3088 3.824 97.7248 4.008 98.0768 4.248L97.6808 5.208C97.3208 4.968 96.9408 4.796 96.5408 4.692C96.1408 4.58 95.7528 4.524 95.3768 4.524C94.9048 4.524 94.5168 4.584 94.2128 4.704C93.9088 4.824 93.6848 4.984 93.5408 5.184C93.4048 5.384 93.3368 5.608 93.3368 5.856C93.3368 6.152 93.4288 6.388 93.6128 6.564C93.8048 6.74 94.0488 6.88 94.3448 6.984C94.6488 7.088 94.9808 7.184 95.3408 7.272C95.7008 7.352 96.0608 7.444 96.4208 7.548C96.7888 7.652 97.1208 7.788 97.4168 7.956C97.7208 8.124 97.9648 8.348 98.1488 8.628C98.3328 8.908 98.4248 9.268 98.4248 9.708C98.4248 10.132 98.3088 10.528 98.0768 10.896C97.8448 11.256 97.4848 11.548 96.9968 11.772C96.5168 11.988 95.9088 12.096 95.1728 12.096ZM102.686 12.072C102.142 12.072 101.662 11.972 101.246 11.772C100.838 11.572 100.518 11.268 100.286 10.86C100.062 10.444 99.95 9.924 99.95 9.3V5.64H101.102V9.168C101.102 9.792 101.25 10.26 101.546 10.572C101.85 10.884 102.274 11.04 102.818 11.04C103.218 11.04 103.566 10.96 103.862 10.8C104.158 10.632 104.386 10.392 104.546 10.08C104.706 9.76 104.786 9.376 104.786 8.928V5.64H105.938V12H104.846V10.284L105.026 10.74C104.818 11.164 104.506 11.492 104.09 11.724C103.674 11.956 103.206 12.072 102.686 12.072ZM109.955 12.072C109.427 12.072 108.923 12 108.443 11.856C107.971 11.712 107.599 11.536 107.327 11.328L107.807 10.416C108.079 10.6 108.415 10.756 108.815 10.884C109.215 11.012 109.623 11.076 110.039 11.076C110.575 11.076 110.959 11 111.191 10.848C111.431 10.696 111.551 10.484 111.551 10.212C111.551 10.012 111.479 9.856 111.335 9.744C111.191 9.632 110.999 9.548 110.759 9.492C110.527 9.436 110.267 9.388 109.979 9.348C109.691 9.3 109.403 9.244 109.115 9.18C108.827 9.108 108.563 9.012 108.323 8.892C108.083 8.764 107.891 8.592 107.747 8.376C107.603 8.152 107.531 7.856 107.531 7.488C107.531 7.104 107.639 6.768 107.855 6.48C108.071 6.192 108.375 5.972 108.767 5.82C109.167 5.66 109.639 5.58 110.183 5.58C110.599 5.58 111.019 5.632 111.443 5.736C111.875 5.832 112.227 5.972 112.499 6.156L112.007 7.068C111.719 6.876 111.419 6.744 111.107 6.672C110.795 6.6 110.483 6.564 110.171 6.564C109.667 6.564 109.291 6.648 109.043 6.816C108.795 6.976 108.671 7.184 108.671 7.44C108.671 7.656 108.743 7.824 108.887 7.944C109.039 8.056 109.231 8.144 109.463 8.208C109.703 8.272 109.967 8.328 110.255 8.376C110.543 8.416 110.831 8.472 111.119 8.544C111.407 8.608 111.667 8.7 111.899 8.82C112.139 8.94 112.331 9.108 112.475 9.324C112.627 9.54 112.703 9.828 112.703 10.188C112.703 10.572 112.591 10.904 112.367 11.184C112.143 11.464 111.827 11.684 111.419 11.844C111.011 11.996 110.523 12.072 109.955 12.072ZM116.327 12.072C115.687 12.072 115.191 11.9 114.839 11.556C114.487 11.212 114.311 10.72 114.311 10.08V4.248H115.463V10.032C115.463 10.376 115.547 10.64 115.715 10.824C115.891 11.008 116.139 11.1 116.459 11.1C116.819 11.1 117.119 11 117.359 10.8L117.719 11.628C117.543 11.78 117.331 11.892 117.083 11.964C116.843 12.036 116.591 12.072 116.327 12.072ZM113.231 6.588V5.64H117.287V6.588H113.231ZM123.06 12V10.656L123 10.404V8.112C123 7.624 122.856 7.248 122.568 6.984C122.288 6.712 121.864 6.576 121.296 6.576C120.92 6.576 120.552 6.64 120.192 6.768C119.832 6.888 119.528 7.052 119.28 7.26L118.8 6.396C119.128 6.132 119.52 5.932 119.976 5.796C120.44 5.652 120.924 5.58 121.428 5.58C122.3 5.58 122.972 5.792 123.444 6.216C123.916 6.64 124.152 7.288 124.152 8.16V12H123.06ZM120.972 12.072C120.5 12.072 120.084 11.992 119.724 11.832C119.372 11.672 119.1 11.452 118.908 11.172C118.716 10.884 118.62 10.56 118.62 10.2C118.62 9.856 118.7 9.544 118.86 9.264C119.028 8.984 119.296 8.76 119.664 8.592C120.04 8.424 120.544 8.34 121.176 8.34H123.192V9.168H121.224C120.648 9.168 120.26 9.264 120.06 9.456C119.86 9.648 119.76 9.88 119.76 10.152C119.76 10.464 119.884 10.716 120.132 10.908C120.38 11.092 120.724 11.184 121.164 11.184C121.596 11.184 121.972 11.088 122.292 10.896C122.62 10.704 122.856 10.424 123 10.056L123.228 10.848C123.076 11.224 122.808 11.524 122.424 11.748C122.04 11.964 121.556 12.072 120.972 12.072ZM126.283 12V5.64H127.435V12H126.283ZM126.859 4.416C126.635 4.416 126.447 4.344 126.295 4.2C126.151 4.056 126.079 3.88 126.079 3.672C126.079 3.456 126.151 3.276 126.295 3.132C126.447 2.988 126.635 2.916 126.859 2.916C127.083 2.916 127.267 2.988 127.411 3.132C127.563 3.268 127.639 3.44 127.639 3.648C127.639 3.864 127.567 4.048 127.423 4.2C127.279 4.344 127.091 4.416 126.859 4.416ZM133.031 5.58C133.551 5.58 134.007 5.68 134.399 5.88C134.799 6.08 135.111 6.384 135.335 6.792C135.559 7.2 135.671 7.716 135.671 8.34V12H134.519V8.472C134.519 7.856 134.367 7.392 134.063 7.08C133.767 6.768 133.347 6.612 132.803 6.612C132.395 6.612 132.039 6.692 131.735 6.852C131.431 7.012 131.195 7.248 131.027 7.56C130.867 7.872 130.787 8.26 130.787 8.724V12H129.635V5.64H130.739V7.356L130.559 6.9C130.767 6.484 131.087 6.16 131.519 5.928C131.951 5.696 132.455 5.58 133.031 5.58ZM141.751 12V10.656L141.691 10.404V8.112C141.691 7.624 141.547 7.248 141.259 6.984C140.979 6.712 140.555 6.576 139.987 6.576C139.611 6.576 139.243 6.64 138.883 6.768C138.523 6.888 138.219 7.052 137.971 7.26L137.491 6.396C137.819 6.132 138.211 5.932 138.667 5.796C139.131 5.652 139.615 5.58 140.119 5.58C140.991 5.58 141.663 5.792 142.135 6.216C142.607 6.64 142.843 7.288 142.843 8.16V12H141.751ZM139.663 12.072C139.191 12.072 138.775 11.992 138.415 11.832C138.063 11.672 137.791 11.452 137.599 11.172C137.407 10.884 137.311 10.56 137.311 10.2C137.311 9.856 137.391 9.544 137.551 9.264C137.719 8.984 137.987 8.76 138.355 8.592C138.731 8.424 139.235 8.34 139.867 8.34H141.883V9.168H139.915C139.339 9.168 138.951 9.264 138.751 9.456C138.551 9.648 138.451 9.88 138.451 10.152C138.451 10.464 138.575 10.716 138.823 10.908C139.071 11.092 139.415 11.184 139.855 11.184C140.287 11.184 140.663 11.088 140.983 10.896C141.311 10.704 141.547 10.424 141.691 10.056L141.919 10.848C141.767 11.224 141.499 11.524 141.115 11.748C140.731 11.964 140.247 12.072 139.663 12.072ZM148.347 12.072C147.803 12.072 147.311 11.952 146.871 11.712C146.439 11.464 146.095 11.1 145.839 10.62C145.591 10.14 145.467 9.54 145.467 8.82C145.467 8.1 145.595 7.5 145.851 7.02C146.115 6.54 146.463 6.18 146.895 5.94C147.335 5.7 147.819 5.58 148.347 5.58C148.971 5.58 149.523 5.716 150.003 5.988C150.483 6.26 150.863 6.64 151.143 7.128C151.423 7.608 151.563 8.172 151.563 8.82C151.563 9.468 151.423 10.036 151.143 10.524C150.863 11.012 150.483 11.392 150.003 11.664C149.523 11.936 148.971 12.072 148.347 12.072ZM144.975 12V3.096H146.127V7.332L146.007 8.808L146.079 10.284V12H144.975ZM148.251 11.064C148.659 11.064 149.023 10.972 149.343 10.788C149.671 10.604 149.927 10.344 150.111 10.008C150.303 9.664 150.399 9.268 150.399 8.82C150.399 8.364 150.303 7.972 150.111 7.644C149.927 7.308 149.671 7.048 149.343 6.864C149.023 6.68 148.659 6.588 148.251 6.588C147.851 6.588 147.487 6.68 147.159 6.864C146.839 7.048 146.583 7.308 146.391 7.644C146.207 7.972 146.115 8.364 146.115 8.82C146.115 9.268 146.207 9.664 146.391 10.008C146.583 10.344 146.839 10.604 147.159 10.788C147.487 10.972 147.851 11.064 148.251 11.064ZM153.155 12V3.096H154.307V12H153.155ZM159.338 12.072C158.658 12.072 158.058 11.932 157.538 11.652C157.026 11.372 156.626 10.988 156.338 10.5C156.058 10.012 155.918 9.452 155.918 8.82C155.918 8.188 156.054 7.628 156.326 7.14C156.606 6.652 156.986 6.272 157.466 6C157.954 5.72 158.502 5.58 159.11 5.58C159.726 5.58 160.27 5.716 160.742 5.988C161.214 6.26 161.582 6.644 161.846 7.14C162.118 7.628 162.254 8.2 162.254 8.856C162.254 8.904 162.25 8.96 162.242 9.024C162.242 9.088 162.238 9.148 162.23 9.204H156.818V8.376H161.63L161.162 8.664C161.17 8.256 161.086 7.892 160.91 7.572C160.734 7.252 160.49 7.004 160.178 6.828C159.874 6.644 159.518 6.552 159.11 6.552C158.71 6.552 158.354 6.644 158.042 6.828C157.73 7.004 157.486 7.256 157.31 7.584C157.134 7.904 157.046 8.272 157.046 8.688V8.88C157.046 9.304 157.142 9.684 157.334 10.02C157.534 10.348 157.81 10.604 158.162 10.788C158.514 10.972 158.918 11.064 159.374 11.064C159.75 11.064 160.09 11 160.394 10.872C160.706 10.744 160.978 10.552 161.21 10.296L161.846 11.04C161.558 11.376 161.198 11.632 160.766 11.808C160.342 11.984 159.866 12.072 159.338 12.072ZM164.226 12.084C163.954 12.084 163.722 11.992 163.53 11.808C163.338 11.616 163.242 11.376 163.242 11.088C163.242 10.784 163.338 10.544 163.53 10.368C163.722 10.184 163.954 10.092 164.226 10.092C164.498 10.092 164.73 10.184 164.922 10.368C165.114 10.544 165.21 10.784 165.21 11.088C165.21 11.376 165.114 11.616 164.922 11.808C164.73 11.992 164.498 12.084 164.226 12.084ZM169.008 9.156V8.172H181.008V9.156H169.008ZM1.26 27V18.6H4.536C5.272 18.6 5.9 18.716 6.42 18.948C6.94 19.18 7.34 19.516 7.62 19.956C7.9 20.396 8.04 20.92 8.04 21.528C8.04 22.136 7.9 22.66 7.62 23.1C7.34 23.532 6.94 23.868 6.42 24.108C5.9 24.34 5.272 24.456 4.536 24.456H1.92L2.46 23.892V27H1.26ZM2.46 24.012L1.92 23.412H4.5C5.268 23.412 5.848 23.248 6.24 22.92C6.64 22.592 6.84 22.128 6.84 21.528C6.84 20.928 6.64 20.464 6.24 20.136C5.848 19.808 5.268 19.644 4.5 19.644H1.92L2.46 19.044V24.012ZM13.5244 27V25.656L13.4644 25.404V23.112C13.4644 22.624 13.3204 22.248 13.0324 21.984C12.7524 21.712 12.3284 21.576 11.7604 21.576C11.3844 21.576 11.0164 21.64 10.6564 21.768C10.2964 21.888 9.99238 22.052 9.74438 22.26L9.26438 21.396C9.59238 21.132 9.98438 20.932 10.4404 20.796C10.9044 20.652 11.3884 20.58 11.8924 20.58C12.7644 20.58 13.4364 20.792 13.9084 21.216C14.3804 21.64 14.6164 22.288 14.6164 23.16V27H13.5244ZM11.4364 27.072C10.9644 27.072 10.5484 26.992 10.1884 26.832C9.83638 26.672 9.56438 26.452 9.37238 26.172C9.18038 25.884 9.08438 25.56 9.08438 25.2C9.08438 24.856 9.16438 24.544 9.32438 24.264C9.49238 23.984 9.76038 23.76 10.1284 23.592C10.5044 23.424 11.0084 23.34 11.6404 23.34H13.6564V24.168H11.6884C11.1124 24.168 10.7244 24.264 10.5244 24.456C10.3244 24.648 10.2244 24.88 10.2244 25.152C10.2244 25.464 10.3484 25.716 10.5964 25.908C10.8444 26.092 11.1884 26.184 11.6284 26.184C12.0604 26.184 12.4364 26.088 12.7564 25.896C13.0844 25.704 13.3204 25.424 13.4644 25.056L13.6924 25.848C13.5404 26.224 13.2724 26.524 12.8884 26.748C12.5044 26.964 12.0204 27.072 11.4364 27.072ZM19.5203 27.072C18.8723 27.072 18.2923 26.932 17.7803 26.652C17.2763 26.372 16.8803 25.988 16.5923 25.5C16.3043 25.012 16.1603 24.452 16.1603 23.82C16.1603 23.188 16.3043 22.628 16.5923 22.14C16.8803 21.652 17.2763 21.272 17.7803 21C18.2923 20.72 18.8723 20.58 19.5203 20.58C20.0963 20.58 20.6083 20.696 21.0563 20.928C21.5123 21.152 21.8643 21.488 22.1123 21.936L21.2363 22.5C21.0283 22.188 20.7723 21.96 20.4683 21.816C20.1723 21.664 19.8523 21.588 19.5083 21.588C19.0923 21.588 18.7203 21.68 18.3923 21.864C18.0643 22.048 17.8043 22.308 17.6123 22.644C17.4203 22.972 17.3243 23.364 17.3243 23.82C17.3243 24.276 17.4203 24.672 17.6123 25.008C17.8043 25.344 18.0643 25.604 18.3923 25.788C18.7203 25.972 19.0923 26.064 19.5083 26.064C19.8523 26.064 20.1723 25.992 20.4683 25.848C20.7723 25.696 21.0283 25.464 21.2363 25.152L22.1123 25.704C21.8643 26.144 21.5123 26.484 21.0563 26.724C20.6083 26.956 20.0963 27.072 19.5203 27.072ZM24.4577 25.464L24.4817 23.988L28.1417 20.64H29.5337L26.7257 23.4L26.1017 23.928L24.4577 25.464ZM23.5217 27V18.096H24.6737V27H23.5217ZM28.3817 27L25.8857 23.904L26.6297 22.98L29.7977 27H28.3817ZM34.747 27V25.656L34.687 25.404V23.112C34.687 22.624 34.543 22.248 34.255 21.984C33.975 21.712 33.551 21.576 32.983 21.576C32.607 21.576 32.239 21.64 31.879 21.768C31.519 21.888 31.215 22.052 30.967 22.26L30.487 21.396C30.815 21.132 31.207 20.932 31.663 20.796C32.127 20.652 32.611 20.58 33.115 20.58C33.987 20.58 34.659 20.792 35.131 21.216C35.603 21.64 35.839 22.288 35.839 23.16V27H34.747ZM32.659 27.072C32.187 27.072 31.771 26.992 31.411 26.832C31.059 26.672 30.787 26.452 30.595 26.172C30.403 25.884 30.307 25.56 30.307 25.2C30.307 24.856 30.387 24.544 30.547 24.264C30.715 23.984 30.983 23.76 31.351 23.592C31.727 23.424 32.231 23.34 32.863 23.34H34.879V24.168H32.911C32.335 24.168 31.947 24.264 31.747 24.456C31.547 24.648 31.447 24.88 31.447 25.152C31.447 25.464 31.571 25.716 31.819 25.908C32.067 26.092 32.411 26.184 32.851 26.184C33.283 26.184 33.659 26.088 33.979 25.896C34.307 25.704 34.543 25.424 34.687 25.056L34.915 25.848C34.763 26.224 34.495 26.524 34.111 26.748C33.727 26.964 33.243 27.072 32.659 27.072ZM40.7549 29.4C40.1709 29.4 39.6029 29.316 39.0509 29.148C38.5069 28.988 38.0629 28.756 37.7189 28.452L38.2709 27.564C38.5669 27.82 38.9309 28.02 39.3629 28.164C39.7949 28.316 40.2469 28.392 40.7189 28.392C41.4709 28.392 42.0229 28.216 42.3749 27.864C42.7269 27.512 42.9029 26.976 42.9029 26.256V24.912L43.0229 23.652L42.9629 22.38V20.64H44.0549V26.136C44.0549 27.256 43.7749 28.08 43.2149 28.608C42.6549 29.136 41.8349 29.4 40.7549 29.4ZM40.6109 26.736C39.9949 26.736 39.4429 26.608 38.9549 26.352C38.4749 26.088 38.0909 25.724 37.8029 25.26C37.5229 24.796 37.3829 24.26 37.3829 23.652C37.3829 23.036 37.5229 22.5 37.8029 22.044C38.0909 21.58 38.4749 21.22 38.9549 20.964C39.4429 20.708 39.9949 20.58 40.6109 20.58C41.1549 20.58 41.6509 20.692 42.0989 20.916C42.5469 21.132 42.9029 21.468 43.1669 21.924C43.4389 22.38 43.5749 22.956 43.5749 23.652C43.5749 24.34 43.4389 24.912 43.1669 25.368C42.9029 25.824 42.5469 26.168 42.0989 26.4C41.6509 26.624 41.1549 26.736 40.6109 26.736ZM40.7429 25.728C41.1669 25.728 41.5429 25.64 41.8709 25.464C42.1989 25.288 42.4549 25.044 42.6389 24.732C42.8309 24.42 42.9269 24.06 42.9269 23.652C42.9269 23.244 42.8309 22.884 42.6389 22.572C42.4549 22.26 42.1989 22.02 41.8709 21.852C41.5429 21.676 41.1669 21.588 40.7429 21.588C40.3189 21.588 39.9389 21.676 39.6029 21.852C39.2749 22.02 39.0149 22.26 38.8229 22.572C38.6389 22.884 38.5469 23.244 38.5469 23.652C38.5469 24.06 38.6389 24.42 38.8229 24.732C39.0149 25.044 39.2749 25.288 39.6029 25.464C39.9389 25.64 40.3189 25.728 40.7429 25.728ZM46.2561 27V20.64H47.4081V27H46.2561ZM46.8321 19.416C46.6081 19.416 46.4201 19.344 46.2681 19.2C46.1241 19.056 46.0521 18.88 46.0521 18.672C46.0521 18.456 46.1241 18.276 46.2681 18.132C46.4201 17.988 46.6081 17.916 46.8321 17.916C47.0561 17.916 47.2401 17.988 47.3841 18.132C47.5361 18.268 47.6121 18.44 47.6121 18.648C47.6121 18.864 47.5401 19.048 47.3961 19.2C47.2521 19.344 47.0641 19.416 46.8321 19.416ZM53.0036 20.58C53.5236 20.58 53.9796 20.68 54.3716 20.88C54.7716 21.08 55.0836 21.384 55.3076 21.792C55.5316 22.2 55.6436 22.716 55.6436 23.34V27H54.4916V23.472C54.4916 22.856 54.3396 22.392 54.0356 22.08C53.7396 21.768 53.3196 21.612 52.7756 21.612C52.3676 21.612 52.0116 21.692 51.7076 21.852C51.4036 22.012 51.1676 22.248 50.9996 22.56C50.8396 22.872 50.7596 23.26 50.7596 23.724V27H49.6076V20.64H50.7116V22.356L50.5316 21.9C50.7396 21.484 51.0596 21.16 51.4916 20.928C51.9236 20.696 52.4276 20.58 53.0036 20.58ZM60.5596 29.4C59.9756 29.4 59.4076 29.316 58.8556 29.148C58.3116 28.988 57.8676 28.756 57.5236 28.452L58.0756 27.564C58.3716 27.82 58.7356 28.02 59.1676 28.164C59.5996 28.316 60.0516 28.392 60.5236 28.392C61.2756 28.392 61.8276 28.216 62.1796 27.864C62.5316 27.512 62.7076 26.976 62.7076 26.256V24.912L62.8276 23.652L62.7676 22.38V20.64H63.8596V26.136C63.8596 27.256 63.5796 28.08 63.0196 28.608C62.4596 29.136 61.6396 29.4 60.5596 29.4ZM60.4156 26.736C59.7996 26.736 59.2476 26.608 58.7596 26.352C58.2796 26.088 57.8956 25.724 57.6076 25.26C57.3276 24.796 57.1876 24.26 57.1876 23.652C57.1876 23.036 57.3276 22.5 57.6076 22.044C57.8956 21.58 58.2796 21.22 58.7596 20.964C59.2476 20.708 59.7996 20.58 60.4156 20.58C60.9596 20.58 61.4556 20.692 61.9036 20.916C62.3516 21.132 62.7076 21.468 62.9716 21.924C63.2436 22.38 63.3796 22.956 63.3796 23.652C63.3796 24.34 63.2436 24.912 62.9716 25.368C62.7076 25.824 62.3516 26.168 61.9036 26.4C61.4556 26.624 60.9596 26.736 60.4156 26.736ZM60.5476 25.728C60.9716 25.728 61.3476 25.64 61.6756 25.464C62.0036 25.288 62.2596 25.044 62.4436 24.732C62.6356 24.42 62.7316 24.06 62.7316 23.652C62.7316 23.244 62.6356 22.884 62.4436 22.572C62.2596 22.26 62.0036 22.02 61.6756 21.852C61.3476 21.676 60.9716 21.588 60.5476 21.588C60.1236 21.588 59.7436 21.676 59.4076 21.852C59.0796 22.02 58.8196 22.26 58.6276 22.572C58.4436 22.884 58.3516 23.244 58.3516 23.652C58.3516 24.06 58.4436 24.42 58.6276 24.732C58.8196 25.044 59.0796 25.288 59.4076 25.464C59.7436 25.64 60.1236 25.728 60.5476 25.728ZM70.5314 22.572H74.8634V23.604H70.5314V22.572ZM70.6514 27H69.4514V18.6H75.3794V19.644H70.6514V27ZM79.4254 27.072C78.7854 27.072 78.2174 26.932 77.7214 26.652C77.2254 26.372 76.8334 25.988 76.5454 25.5C76.2574 25.004 76.1134 24.444 76.1134 23.82C76.1134 23.188 76.2574 22.628 76.5454 22.14C76.8334 21.652 77.2254 21.272 77.7214 21C78.2174 20.72 78.7854 20.58 79.4254 20.58C80.0574 20.58 80.6214 20.72 81.1174 21C81.6214 21.272 82.0134 21.652 82.2934 22.14C82.5814 22.62 82.7254 23.18 82.7254 23.82C82.7254 24.452 82.5814 25.012 82.2934 25.5C82.0134 25.988 81.6214 26.372 81.1174 26.652C80.6214 26.932 80.0574 27.072 79.4254 27.072ZM79.4254 26.064C79.8334 26.064 80.1974 25.972 80.5174 25.788C80.8454 25.604 81.1014 25.344 81.2854 25.008C81.4694 24.664 81.5614 24.268 81.5614 23.82C81.5614 23.364 81.4694 22.972 81.2854 22.644C81.1014 22.308 80.8454 22.048 80.5174 21.864C80.1974 21.68 79.8334 21.588 79.4254 21.588C79.0174 21.588 78.6534 21.68 78.3334 21.864C78.0134 22.048 77.7574 22.308 77.5654 22.644C77.3734 22.972 77.2774 23.364 77.2774 23.82C77.2774 24.268 77.3734 24.664 77.5654 25.008C77.7574 25.344 78.0134 25.604 78.3334 25.788C78.6534 25.972 79.0174 26.064 79.4254 26.064ZM84.3186 27V20.64H85.4226V22.368L85.3146 21.936C85.4906 21.496 85.7866 21.16 86.2026 20.928C86.6186 20.696 87.1306 20.58 87.7386 20.58V21.696C87.6906 21.688 87.6426 21.684 87.5946 21.684C87.5546 21.684 87.5146 21.684 87.4746 21.684C86.8586 21.684 86.3706 21.868 86.0106 22.236C85.6506 22.604 85.4706 23.136 85.4706 23.832V27H84.3186ZM93.7231 22.224H98.0431V23.244H93.7231V22.224ZM93.8311 25.956H98.7271V27H92.6311V18.6H98.5591V19.644H93.8311V25.956ZM102.065 27L99.2807 20.64H100.481L102.953 26.4H102.377L104.897 20.64H106.025L103.241 27H102.065ZM109.756 27.072C109.076 27.072 108.476 26.932 107.956 26.652C107.444 26.372 107.044 25.988 106.756 25.5C106.476 25.012 106.336 24.452 106.336 23.82C106.336 23.188 106.472 22.628 106.744 22.14C107.024 21.652 107.404 21.272 107.884 21C108.372 20.72 108.92 20.58 109.528 20.58C110.144 20.58 110.688 20.716 111.16 20.988C111.632 21.26 112 21.644 112.264 22.14C112.536 22.628 112.672 23.2 112.672 23.856C112.672 23.904 112.668 23.96 112.66 24.024C112.66 24.088 112.656 24.148 112.648 24.204H107.236V23.376H112.048L111.58 23.664C111.588 23.256 111.504 22.892 111.328 22.572C111.152 22.252 110.908 22.004 110.596 21.828C110.292 21.644 109.936 21.552 109.528 21.552C109.128 21.552 108.772 21.644 108.46 21.828C108.148 22.004 107.904 22.256 107.728 22.584C107.552 22.904 107.464 23.272 107.464 23.688V23.88C107.464 24.304 107.56 24.684 107.752 25.02C107.952 25.348 108.228 25.604 108.58 25.788C108.932 25.972 109.336 26.064 109.792 26.064C110.168 26.064 110.508 26 110.812 25.872C111.124 25.744 111.396 25.552 111.628 25.296L112.264 26.04C111.976 26.376 111.616 26.632 111.184 26.808C110.76 26.984 110.284 27.072 109.756 27.072ZM114.272 27V20.64H115.376V22.368L115.268 21.936C115.444 21.496 115.74 21.16 116.156 20.928C116.572 20.696 117.084 20.58 117.692 20.58V21.696C117.644 21.688 117.596 21.684 117.548 21.684C117.508 21.684 117.468 21.684 117.428 21.684C116.812 21.684 116.324 21.868 115.964 22.236C115.604 22.604 115.424 23.136 115.424 23.832V27H114.272ZM119.645 29.4C119.341 29.4 119.045 29.348 118.757 29.244C118.469 29.148 118.221 29.004 118.013 28.812L118.505 27.948C118.665 28.1 118.841 28.216 119.033 28.296C119.225 28.376 119.429 28.416 119.645 28.416C119.925 28.416 120.157 28.344 120.341 28.2C120.525 28.056 120.697 27.8 120.857 27.432L121.253 26.556L121.373 26.412L123.869 20.64H124.997L121.913 27.636C121.729 28.084 121.521 28.436 121.289 28.692C121.065 28.948 120.817 29.128 120.545 29.232C120.273 29.344 119.973 29.4 119.645 29.4ZM121.157 27.204L118.253 20.64H119.453L121.925 26.304L121.157 27.204ZM129.463 27V18.6H130.663V27H129.463ZM136.406 20.58C136.926 20.58 137.382 20.68 137.774 20.88C138.174 21.08 138.486 21.384 138.71 21.792C138.934 22.2 139.046 22.716 139.046 23.34V27H137.894V23.472C137.894 22.856 137.742 22.392 137.438 22.08C137.142 21.768 136.722 21.612 136.178 21.612C135.77 21.612 135.414 21.692 135.11 21.852C134.806 22.012 134.57 22.248 134.402 22.56C134.242 22.872 134.162 23.26 134.162 23.724V27H133.01V20.64H134.114V22.356L133.934 21.9C134.142 21.484 134.462 21.16 134.894 20.928C135.326 20.696 135.83 20.58 136.406 20.58ZM143.806 27.072C143.19 27.072 142.638 26.936 142.15 26.664C141.67 26.392 141.29 26.012 141.01 25.524C140.73 25.036 140.59 24.468 140.59 23.82C140.59 23.172 140.73 22.608 141.01 22.128C141.29 21.64 141.67 21.26 142.15 20.988C142.638 20.716 143.19 20.58 143.806 20.58C144.342 20.58 144.826 20.7 145.258 20.94C145.69 21.18 146.034 21.54 146.29 22.02C146.554 22.5 146.686 23.1 146.686 23.82C146.686 24.54 146.558 25.14 146.302 25.62C146.054 26.1 145.714 26.464 145.282 26.712C144.85 26.952 144.358 27.072 143.806 27.072ZM143.902 26.064C144.302 26.064 144.662 25.972 144.982 25.788C145.31 25.604 145.566 25.344 145.75 25.008C145.942 24.664 146.038 24.268 146.038 23.82C146.038 23.364 145.942 22.972 145.75 22.644C145.566 22.308 145.31 22.048 144.982 21.864C144.662 21.68 144.302 21.588 143.902 21.588C143.494 21.588 143.13 21.68 142.81 21.864C142.49 22.048 142.234 22.308 142.042 22.644C141.85 22.972 141.754 23.364 141.754 23.82C141.754 24.268 141.85 24.664 142.042 25.008C142.234 25.344 142.49 25.604 142.81 25.788C143.13 25.972 143.494 26.064 143.902 26.064ZM146.074 27V25.284L146.146 23.808L146.026 22.332V18.096H147.178V27H146.074ZM152.034 27.072C151.49 27.072 151.01 26.972 150.594 26.772C150.186 26.572 149.866 26.268 149.634 25.86C149.41 25.444 149.298 24.924 149.298 24.3V20.64H150.45V24.168C150.45 24.792 150.598 25.26 150.894 25.572C151.198 25.884 151.622 26.04 152.166 26.04C152.566 26.04 152.914 25.96 153.21 25.8C153.506 25.632 153.734 25.392 153.894 25.08C154.054 24.76 154.134 24.376 154.134 23.928V20.64H155.286V27H154.194V25.284L154.374 25.74C154.166 26.164 153.854 26.492 153.438 26.724C153.022 26.956 152.554 27.072 152.034 27.072ZM159.303 27.072C158.775 27.072 158.271 27 157.791 26.856C157.319 26.712 156.947 26.536 156.675 26.328L157.155 25.416C157.427 25.6 157.763 25.756 158.163 25.884C158.563 26.012 158.971 26.076 159.387 26.076C159.923 26.076 160.307 26 160.539 25.848C160.779 25.696 160.899 25.484 160.899 25.212C160.899 25.012 160.827 24.856 160.683 24.744C160.539 24.632 160.347 24.548 160.107 24.492C159.875 24.436 159.615 24.388 159.327 24.348C159.039 24.3 158.751 24.244 158.463 24.18C158.175 24.108 157.911 24.012 157.671 23.892C157.431 23.764 157.239 23.592 157.095 23.376C156.951 23.152 156.879 22.856 156.879 22.488C156.879 22.104 156.987 21.768 157.203 21.48C157.419 21.192 157.723 20.972 158.115 20.82C158.515 20.66 158.987 20.58 159.531 20.58C159.947 20.58 160.367 20.632 160.791 20.736C161.223 20.832 161.575 20.972 161.847 21.156L161.355 22.068C161.067 21.876 160.767 21.744 160.455 21.672C160.143 21.6 159.831 21.564 159.519 21.564C159.015 21.564 158.639 21.648 158.391 21.816C158.143 21.976 158.019 22.184 158.019 22.44C158.019 22.656 158.091 22.824 158.235 22.944C158.387 23.056 158.579 23.144 158.811 23.208C159.051 23.272 159.315 23.328 159.603 23.376C159.891 23.416 160.179 23.472 160.467 23.544C160.755 23.608 161.015 23.7 161.247 23.82C161.487 23.94 161.679 24.108 161.823 24.324C161.975 24.54 162.051 24.828 162.051 25.188C162.051 25.572 161.939 25.904 161.715 26.184C161.491 26.464 161.175 26.684 160.767 26.844C160.359 26.996 159.871 27.072 159.303 27.072ZM165.674 27.072C165.034 27.072 164.538 26.9 164.186 26.556C163.834 26.212 163.658 25.72 163.658 25.08V19.248H164.81V25.032C164.81 25.376 164.894 25.64 165.062 25.824C165.238 26.008 165.486 26.1 165.806 26.1C166.166 26.1 166.466 26 166.706 25.8L167.066 26.628C166.89 26.78 166.678 26.892 166.43 26.964C166.19 27.036 165.938 27.072 165.674 27.072ZM162.578 21.588V20.64H166.634V21.588H162.578ZM168.459 27V20.64H169.563V22.368L169.455 21.936C169.631 21.496 169.927 21.16 170.343 20.928C170.759 20.696 171.271 20.58 171.879 20.58V21.696C171.831 21.688 171.783 21.684 171.735 21.684C171.695 21.684 171.655 21.684 171.615 21.684C170.999 21.684 170.511 21.868 170.151 22.236C169.791 22.604 169.611 23.136 169.611 23.832V27H168.459ZM173.833 29.4C173.529 29.4 173.233 29.348 172.945 29.244C172.657 29.148 172.409 29.004 172.201 28.812L172.693 27.948C172.853 28.1 173.029 28.216 173.221 28.296C173.413 28.376 173.617 28.416 173.833 28.416C174.113 28.416 174.345 28.344 174.529 28.2C174.713 28.056 174.885 27.8 175.045 27.432L175.441 26.556L175.561 26.412L178.057 20.64H179.185L176.101 27.636C175.917 28.084 175.709 28.436 175.477 28.692C175.253 28.948 175.005 29.128 174.733 29.232C174.461 29.344 174.161 29.4 173.833 29.4ZM175.345 27.204L172.441 20.64H173.641L176.113 26.304L175.345 27.204ZM180.632 27.084C180.36 27.084 180.128 26.992 179.936 26.808C179.744 26.616 179.648 26.376 179.648 26.088C179.648 25.784 179.744 25.544 179.936 25.368C180.128 25.184 180.36 25.092 180.632 25.092C180.904 25.092 181.136 25.184 181.328 25.368C181.52 25.544 181.616 25.784 181.616 26.088C181.616 26.376 181.52 26.616 181.328 26.808C181.136 26.992 180.904 27.084 180.632 27.084Z" fill="white"/>
<path d="M51.732 59.12C51.076 59.12 50.448 59.028 49.848 58.844C49.248 58.652 48.772 58.408 48.42 58.112L48.96 56.9C49.296 57.164 49.712 57.384 50.208 57.56C50.704 57.736 51.212 57.824 51.732 57.824C52.172 57.824 52.528 57.776 52.8 57.68C53.072 57.584 53.272 57.456 53.4 57.296C53.528 57.128 53.592 56.94 53.592 56.732C53.592 56.476 53.5 56.272 53.316 56.12C53.132 55.96 52.892 55.836 52.596 55.748C52.308 55.652 51.984 55.564 51.624 55.484C51.272 55.404 50.916 55.312 50.556 55.208C50.204 55.096 49.88 54.956 49.584 54.788C49.296 54.612 49.06 54.38 48.876 54.092C48.692 53.804 48.6 53.436 48.6 52.988C48.6 52.532 48.72 52.116 48.96 51.74C49.208 51.356 49.58 51.052 50.076 50.828C50.58 50.596 51.216 50.48 51.984 50.48C52.488 50.48 52.988 50.544 53.484 50.672C53.98 50.8 54.412 50.984 54.78 51.224L54.288 52.436C53.912 52.212 53.524 52.048 53.124 51.944C52.724 51.832 52.34 51.776 51.972 51.776C51.54 51.776 51.188 51.828 50.916 51.932C50.652 52.036 50.456 52.172 50.328 52.34C50.208 52.508 50.148 52.7 50.148 52.916C50.148 53.172 50.236 53.38 50.412 53.54C50.596 53.692 50.832 53.812 51.12 53.9C51.416 53.988 51.744 54.076 52.104 54.164C52.464 54.244 52.82 54.336 53.172 54.44C53.532 54.544 53.856 54.68 54.144 54.848C54.44 55.016 54.676 55.244 54.852 55.532C55.036 55.82 55.128 56.184 55.128 56.624C55.128 57.072 55.004 57.488 54.756 57.872C54.516 58.248 54.144 58.552 53.64 58.784C53.136 59.008 52.5 59.12 51.732 59.12ZM64.6189 52.52C65.1309 52.52 65.5829 52.62 65.9749 52.82C66.3749 53.02 66.6869 53.328 66.9109 53.744C67.1349 54.152 67.2469 54.68 67.2469 55.328V59H65.7469V55.52C65.7469 54.952 65.6229 54.528 65.3749 54.248C65.1269 53.968 64.7709 53.828 64.3069 53.828C63.9789 53.828 63.6869 53.9 63.4309 54.044C63.1829 54.188 62.9869 54.4 62.8429 54.68C62.7069 54.96 62.6389 55.316 62.6389 55.748V59H61.1389V55.52C61.1389 54.952 61.0149 54.528 60.7669 54.248C60.5189 53.968 60.1629 53.828 59.6989 53.828C59.3709 53.828 59.0789 53.9 58.8229 54.044C58.5749 54.188 58.3789 54.4 58.2349 54.68C58.0989 54.96 58.0309 55.316 58.0309 55.748V59H56.5309V52.592H57.9589V54.296L57.7069 53.792C57.9229 53.376 58.2349 53.06 58.6429 52.844C59.0589 52.628 59.5309 52.52 60.0589 52.52C60.6589 52.52 61.1789 52.668 61.6189 52.964C62.0669 53.26 62.3629 53.708 62.5069 54.308L61.9189 54.104C62.1269 53.624 62.4709 53.24 62.9509 52.952C63.4309 52.664 63.9869 52.52 64.6189 52.52ZM73.1117 59V57.704L73.0277 57.428V55.16C73.0277 54.72 72.8957 54.38 72.6317 54.14C72.3677 53.892 71.9677 53.768 71.4317 53.768C71.0717 53.768 70.7157 53.824 70.3637 53.936C70.0197 54.048 69.7277 54.204 69.4877 54.404L68.8997 53.312C69.2437 53.048 69.6517 52.852 70.1237 52.724C70.6037 52.588 71.0997 52.52 71.6117 52.52C72.5397 52.52 73.2557 52.744 73.7597 53.192C74.2717 53.632 74.5277 54.316 74.5277 55.244V59H73.1117ZM71.0957 59.084C70.6157 59.084 70.1957 59.004 69.8357 58.844C69.4757 58.676 69.1957 58.448 68.9957 58.16C68.8037 57.864 68.7077 57.532 68.7077 57.164C68.7077 56.804 68.7917 56.48 68.9597 56.192C69.1357 55.904 69.4197 55.676 69.8117 55.508C70.2037 55.34 70.7237 55.256 71.3717 55.256H73.2317V56.252H71.4797C70.9677 56.252 70.6237 56.336 70.4477 56.504C70.2717 56.664 70.1837 56.864 70.1837 57.104C70.1837 57.376 70.2917 57.592 70.5077 57.752C70.7237 57.912 71.0237 57.992 71.4077 57.992C71.7757 57.992 72.1037 57.908 72.3917 57.74C72.6877 57.572 72.8997 57.324 73.0277 56.996L73.2797 57.896C73.1357 58.272 72.8757 58.564 72.4997 58.772C72.1317 58.98 71.6637 59.084 71.0957 59.084ZM76.4528 59V52.592H77.8808V54.356L77.7128 53.84C77.9048 53.408 78.2048 53.08 78.6128 52.856C79.0288 52.632 79.5448 52.52 80.1608 52.52V53.948C80.0968 53.932 80.0368 53.924 79.9808 53.924C79.9248 53.916 79.8688 53.912 79.8128 53.912C79.2448 53.912 78.7928 54.08 78.4568 54.416C78.1208 54.744 77.9528 55.236 77.9528 55.892V59H76.4528ZM84.0796 59.084C83.3756 59.084 82.8316 58.904 82.4476 58.544C82.0636 58.176 81.8716 57.636 81.8716 56.924V51.176H83.3716V56.888C83.3716 57.192 83.4476 57.428 83.5996 57.596C83.7596 57.764 83.9796 57.848 84.2596 57.848C84.5956 57.848 84.8756 57.76 85.0996 57.584L85.5196 58.652C85.3436 58.796 85.1276 58.904 84.8716 58.976C84.6156 59.048 84.3516 59.084 84.0796 59.084ZM80.8156 53.84V52.64H85.0876V53.84H80.8156ZM90.2139 59V50.6H93.6699C94.4139 50.6 95.0499 50.72 95.5779 50.96C96.1139 51.2 96.5259 51.544 96.8139 51.992C97.1019 52.44 97.2459 52.972 97.2459 53.588C97.2459 54.204 97.1019 54.736 96.8139 55.184C96.5259 55.632 96.1139 55.976 95.5779 56.216C95.0499 56.456 94.4139 56.576 93.6699 56.576H91.0779L91.7739 55.844V59H90.2139ZM91.7739 56.012L91.0779 55.256H93.5979C94.2859 55.256 94.8019 55.112 95.1459 54.824C95.4979 54.528 95.6739 54.116 95.6739 53.588C95.6739 53.052 95.4979 52.64 95.1459 52.352C94.8019 52.064 94.2859 51.92 93.5979 51.92H91.0779L91.7739 51.152V56.012ZM101.516 59.084C100.86 59.084 100.276 58.944 99.7643 58.664C99.2523 58.376 98.8483 57.984 98.5523 57.488C98.2563 56.992 98.1083 56.428 98.1083 55.796C98.1083 55.156 98.2563 54.592 98.5523 54.104C98.8483 53.608 99.2523 53.22 99.7643 52.94C100.276 52.66 100.86 52.52 101.516 52.52C102.18 52.52 102.768 52.66 103.28 52.94C103.8 53.22 104.204 53.604 104.492 54.092C104.788 54.58 104.936 55.148 104.936 55.796C104.936 56.428 104.788 56.992 104.492 57.488C104.204 57.984 103.8 58.376 103.28 58.664C102.768 58.944 102.18 59.084 101.516 59.084ZM101.516 57.8C101.884 57.8 102.212 57.72 102.5 57.56C102.788 57.4 103.012 57.168 103.172 56.864C103.34 56.56 103.424 56.204 103.424 55.796C103.424 55.38 103.34 55.024 103.172 54.728C103.012 54.424 102.788 54.192 102.5 54.032C102.212 53.872 101.888 53.792 101.528 53.792C101.16 53.792 100.832 53.872 100.544 54.032C100.264 54.192 100.04 54.424 99.8723 54.728C99.7043 55.024 99.6203 55.38 99.6203 55.796C99.6203 56.204 99.7043 56.56 99.8723 56.864C100.04 57.168 100.264 57.4 100.544 57.56C100.832 57.72 101.156 57.8 101.516 57.8ZM106.371 59V50.096H107.871V59H106.371ZM110.367 61.412C110.055 61.412 109.743 61.36 109.431 61.256C109.119 61.152 108.859 61.008 108.651 60.824L109.251 59.72C109.403 59.856 109.575 59.964 109.767 60.044C109.959 60.124 110.155 60.164 110.355 60.164C110.627 60.164 110.847 60.096 111.015 59.96C111.183 59.824 111.339 59.596 111.483 59.276L111.855 58.436L111.975 58.256L114.399 52.592H115.839L112.839 59.516C112.639 59.996 112.415 60.376 112.167 60.656C111.927 60.936 111.655 61.132 111.351 61.244C111.055 61.356 110.727 61.412 110.367 61.412ZM111.687 59.228L108.795 52.592H110.355L112.707 58.124L111.687 59.228ZM120.237 59V50.6H123.693C124.437 50.6 125.073 50.72 125.601 50.96C126.137 51.2 126.549 51.544 126.837 51.992C127.125 52.44 127.269 52.972 127.269 53.588C127.269 54.204 127.125 54.736 126.837 55.184C126.549 55.632 126.137 55.976 125.601 56.216C125.073 56.456 124.437 56.576 123.693 56.576H121.101L121.797 55.844V59H120.237ZM121.797 56.012L121.101 55.256H123.621C124.309 55.256 124.825 55.112 125.169 54.824C125.521 54.528 125.697 54.116 125.697 53.588C125.697 53.052 125.521 52.64 125.169 52.352C124.825 52.064 124.309 51.92 123.621 51.92H121.101L121.797 51.152V56.012ZM132.573 59V57.704L132.489 57.428V55.16C132.489 54.72 132.357 54.38 132.093 54.14C131.829 53.892 131.429 53.768 130.893 53.768C130.533 53.768 130.177 53.824 129.825 53.936C129.481 54.048 129.189 54.204 128.949 54.404L128.361 53.312C128.705 53.048 129.113 52.852 129.585 52.724C130.065 52.588 130.561 52.52 131.073 52.52C132.001 52.52 132.717 52.744 133.221 53.192C133.733 53.632 133.989 54.316 133.989 55.244V59H132.573ZM130.557 59.084C130.077 59.084 129.657 59.004 129.297 58.844C128.937 58.676 128.657 58.448 128.457 58.16C128.265 57.864 128.169 57.532 128.169 57.164C128.169 56.804 128.253 56.48 128.421 56.192C128.597 55.904 128.881 55.676 129.273 55.508C129.665 55.34 130.185 55.256 130.833 55.256H132.693V56.252H130.941C130.429 56.252 130.085 56.336 129.909 56.504C129.733 56.664 129.645 56.864 129.645 57.104C129.645 57.376 129.753 57.592 129.969 57.752C130.185 57.912 130.485 57.992 130.869 57.992C131.237 57.992 131.565 57.908 131.853 57.74C132.149 57.572 132.361 57.324 132.489 56.996L132.741 57.896C132.597 58.272 132.337 58.564 131.961 58.772C131.593 58.98 131.125 59.084 130.557 59.084ZM138.865 59.084C138.193 59.084 137.593 58.944 137.065 58.664C136.545 58.376 136.137 57.984 135.841 57.488C135.545 56.992 135.397 56.428 135.397 55.796C135.397 55.156 135.545 54.592 135.841 54.104C136.137 53.608 136.545 53.22 137.065 52.94C137.593 52.66 138.193 52.52 138.865 52.52C139.489 52.52 140.037 52.648 140.509 52.904C140.989 53.152 141.353 53.52 141.601 54.008L140.449 54.68C140.257 54.376 140.021 54.152 139.741 54.008C139.469 53.864 139.173 53.792 138.853 53.792C138.485 53.792 138.153 53.872 137.857 54.032C137.561 54.192 137.329 54.424 137.161 54.728C136.993 55.024 136.909 55.38 136.909 55.796C136.909 56.212 136.993 56.572 137.161 56.876C137.329 57.172 137.561 57.4 137.857 57.56C138.153 57.72 138.485 57.8 138.853 57.8C139.173 57.8 139.469 57.728 139.741 57.584C140.021 57.44 140.257 57.216 140.449 56.912L141.601 57.584C141.353 58.064 140.989 58.436 140.509 58.7C140.037 58.956 139.489 59.084 138.865 59.084ZM144.063 57.572L144.099 55.688L147.447 52.592H149.247L146.403 55.448L145.611 56.108L144.063 57.572ZM142.839 59V50.096H144.339V59H142.839ZM147.675 59L145.335 56.108L146.283 54.908L149.499 59H147.675ZM154.299 59V57.704L154.215 57.428V55.16C154.215 54.72 154.083 54.38 153.819 54.14C153.555 53.892 153.155 53.768 152.619 53.768C152.259 53.768 151.903 53.824 151.551 53.936C151.207 54.048 150.915 54.204 150.675 54.404L150.087 53.312C150.431 53.048 150.839 52.852 151.311 52.724C151.791 52.588 152.287 52.52 152.799 52.52C153.727 52.52 154.443 52.744 154.947 53.192C155.459 53.632 155.715 54.316 155.715 55.244V59H154.299ZM152.283 59.084C151.803 59.084 151.383 59.004 151.023 58.844C150.663 58.676 150.383 58.448 150.183 58.16C149.991 57.864 149.895 57.532 149.895 57.164C149.895 56.804 149.979 56.48 150.147 56.192C150.323 55.904 150.607 55.676 150.999 55.508C151.391 55.34 151.911 55.256 152.559 55.256H154.419V56.252H152.667C152.155 56.252 151.811 56.336 151.635 56.504C151.459 56.664 151.371 56.864 151.371 57.104C151.371 57.376 151.479 57.592 151.695 57.752C151.911 57.912 152.211 57.992 152.595 57.992C152.963 57.992 153.291 57.908 153.579 57.74C153.875 57.572 154.087 57.324 154.215 56.996L154.467 57.896C154.323 58.272 154.063 58.564 153.687 58.772C153.319 58.98 152.851 59.084 152.283 59.084ZM160.556 61.412C159.964 61.412 159.384 61.332 158.816 61.172C158.256 61.02 157.796 60.796 157.436 60.5L158.108 59.372C158.388 59.604 158.74 59.788 159.164 59.924C159.596 60.068 160.032 60.14 160.472 60.14C161.176 60.14 161.692 59.976 162.02 59.648C162.348 59.328 162.512 58.844 162.512 58.196V57.056L162.632 55.604L162.584 54.152V52.592H164.012V58.028C164.012 59.188 163.716 60.04 163.124 60.584C162.532 61.136 161.676 61.412 160.556 61.412ZM160.364 58.712C159.756 58.712 159.204 58.584 158.708 58.328C158.22 58.064 157.832 57.7 157.544 57.236C157.264 56.772 157.124 56.228 157.124 55.604C157.124 54.988 157.264 54.448 157.544 53.984C157.832 53.52 158.22 53.16 158.708 52.904C159.204 52.648 159.756 52.52 160.364 52.52C160.908 52.52 161.396 52.628 161.828 52.844C162.26 53.06 162.604 53.396 162.86 53.852C163.124 54.308 163.256 54.892 163.256 55.604C163.256 56.316 163.124 56.904 162.86 57.368C162.604 57.824 162.26 58.164 161.828 58.388C161.396 58.604 160.908 58.712 160.364 58.712ZM160.592 57.44C160.968 57.44 161.304 57.364 161.6 57.212C161.896 57.052 162.124 56.836 162.284 56.564C162.452 56.284 162.536 55.964 162.536 55.604C162.536 55.244 162.452 54.928 162.284 54.656C162.124 54.376 161.896 54.164 161.6 54.02C161.304 53.868 160.968 53.792 160.592 53.792C160.216 53.792 159.876 53.868 159.572 54.02C159.276 54.164 159.044 54.376 158.876 54.656C158.716 54.928 158.636 55.244 158.636 55.604C158.636 55.964 158.716 56.284 158.876 56.564C159.044 56.836 159.276 57.052 159.572 57.212C159.876 57.364 160.216 57.44 160.592 57.44ZM165.984 59V52.592H167.484V59H165.984ZM166.74 51.536C166.46 51.536 166.228 51.448 166.044 51.272C165.868 51.096 165.78 50.884 165.78 50.636C165.78 50.38 165.868 50.168 166.044 50C166.228 49.824 166.46 49.736 166.74 49.736C167.02 49.736 167.248 49.82 167.424 49.988C167.608 50.148 167.7 50.352 167.7 50.6C167.7 50.864 167.612 51.088 167.436 51.272C167.26 51.448 167.028 51.536 166.74 51.536ZM173.089 52.52C173.601 52.52 174.057 52.62 174.457 52.82C174.865 53.02 175.185 53.328 175.417 53.744C175.649 54.152 175.765 54.68 175.765 55.328V59H174.265V55.52C174.265 54.952 174.129 54.528 173.857 54.248C173.593 53.968 173.221 53.828 172.741 53.828C172.389 53.828 172.077 53.9 171.805 54.044C171.533 54.188 171.321 54.404 171.169 54.692C171.025 54.972 170.953 55.328 170.953 55.76V59H169.453V52.592H170.881V54.32L170.629 53.792C170.853 53.384 171.177 53.072 171.601 52.856C172.033 52.632 172.529 52.52 173.089 52.52ZM180.583 61.412C179.991 61.412 179.411 61.332 178.843 61.172C178.283 61.02 177.823 60.796 177.463 60.5L178.135 59.372C178.415 59.604 178.767 59.788 179.191 59.924C179.623 60.068 180.059 60.14 180.499 60.14C181.203 60.14 181.719 59.976 182.047 59.648C182.375 59.328 182.539 58.844 182.539 58.196V57.056L182.659 55.604L182.611 54.152V52.592H184.039V58.028C184.039 59.188 183.743 60.04 183.151 60.584C182.559 61.136 181.703 61.412 180.583 61.412ZM180.391 58.712C179.783 58.712 179.231 58.584 178.735 58.328C178.247 58.064 177.859 57.7 177.571 57.236C177.291 56.772 177.151 56.228 177.151 55.604C177.151 54.988 177.291 54.448 177.571 53.984C177.859 53.52 178.247 53.16 178.735 52.904C179.231 52.648 179.783 52.52 180.391 52.52C180.935 52.52 181.423 52.628 181.855 52.844C182.287 53.06 182.631 53.396 182.887 53.852C183.151 54.308 183.283 54.892 183.283 55.604C183.283 56.316 183.151 56.904 182.887 57.368C182.631 57.824 182.287 58.164 181.855 58.388C181.423 58.604 180.935 58.712 180.391 58.712ZM180.619 57.44C180.995 57.44 181.331 57.364 181.627 57.212C181.923 57.052 182.151 56.836 182.311 56.564C182.479 56.284 182.563 55.964 182.563 55.604C182.563 55.244 182.479 54.928 182.311 54.656C182.151 54.376 181.923 54.164 181.627 54.02C181.331 53.868 180.995 53.792 180.619 53.792C180.243 53.792 179.903 53.868 179.599 54.02C179.303 54.164 179.071 54.376 178.903 54.656C178.743 54.928 178.663 55.244 178.663 55.604C178.663 55.964 178.743 56.284 178.903 56.564C179.071 56.836 179.303 57.052 179.599 57.212C179.903 57.364 180.243 57.44 180.619 57.44Z" fill="white"/>
<path d="M141.003 128.903C140.992 128.869 141.011 128.839 141.052 128.831C141.089 128.822 141.124 128.814 141.129 128.811C141.134 128.809 141.165 128.833 141.197 128.865C141.228 128.897 141.246 128.94 141.235 128.961C141.224 128.983 141.173 129 141.119 129C141.066 129 141.023 128.991 141.023 128.981C141.023 128.97 141.014 128.935 141.003 128.903Z" fill="white"/>
<path d="M166.767 90.0866C166.926 90.053 167.109 90.0174 167.173 90.0078C167.236 89.9985 167.515 89.9973 167.791 90.0054C168.121 90.0151 168.4 90.0468 168.603 90.0975C168.773 90.14 168.999 90.2088 169.105 90.2502C169.212 90.2916 169.432 90.401 169.596 90.4934C169.759 90.5858 170.269 90.957 170.729 91.3186C171.188 91.6801 171.629 92.0142 171.707 92.061C171.786 92.1078 171.928 92.1917 172.024 92.2478C172.12 92.3038 172.294 92.3897 172.41 92.4388C172.527 92.4879 172.762 92.5718 172.932 92.6251C173.102 92.6785 173.424 92.7524 173.647 92.7895C173.947 92.839 174.18 92.8514 174.536 92.8367C174.944 92.82 175.219 92.7736 176.295 92.5405C176.997 92.3885 177.596 92.2601 177.627 92.2555C177.66 92.2505 177.72 92.3193 177.77 92.4206C177.818 92.5165 177.945 92.8166 178.052 93.0876C178.16 93.3587 178.309 93.7852 178.385 94.035C178.461 94.2848 178.573 94.6981 178.634 94.9533C178.695 95.2085 178.779 95.6261 178.822 95.8813C178.864 96.1365 178.922 96.5108 178.949 96.7127C178.981 96.9478 179 97.5255 179 98.3174C179.001 99.2821 178.985 99.6823 178.93 100.135C178.892 100.454 178.848 100.735 178.834 100.761C178.819 100.786 177.79 101.06 176.547 101.37C174.368 101.913 174.283 101.931 174.209 101.866C174.167 101.828 173.795 101.484 173.382 101.101C172.969 100.719 172.508 100.294 172.357 100.157C172.206 100.02 171.743 99.5942 171.328 99.2102C170.913 98.8262 170.322 98.2772 170.012 97.9895C169.703 97.7018 169.139 97.1798 168.758 96.8287C168.377 96.478 167.717 95.8678 167.291 95.473L167.236 95.4225C166.828 95.0451 166.433 94.6793 166.342 94.5949C166.246 94.5063 166.129 94.4336 166.081 94.4329C166.033 94.4321 165.824 94.5206 165.617 94.6301C165.41 94.7395 164.892 95.0032 164.467 95.2159C164.042 95.4285 163.372 95.7491 162.979 95.9285C162.586 96.1079 162.072 96.3291 161.838 96.4207C161.604 96.512 161.317 96.6137 161.201 96.6462C161.084 96.679 160.858 96.7285 160.698 96.7564C160.539 96.7842 160.191 96.8063 159.925 96.8051C159.659 96.8039 159.337 96.7807 159.21 96.7533C159.082 96.7262 158.873 96.6562 158.746 96.5978C158.618 96.5395 158.421 96.4153 158.307 96.3218C158.193 96.2286 158.077 96.1087 158.049 96.0553C158.022 96.0024 157.962 95.8806 157.917 95.7847C157.872 95.6892 157.816 95.5063 157.792 95.3787C157.764 95.2337 157.758 94.9873 157.774 94.7213C157.788 94.4874 157.808 94.2438 157.818 94.18C157.828 94.1162 157.841 94.0609 157.847 94.057C157.852 94.0531 158.109 93.934 158.417 93.7925C158.726 93.6506 159.091 93.4867 159.229 93.4279C159.367 93.3691 159.611 93.2593 159.77 93.1839C159.93 93.1081 160.234 92.9685 160.447 92.8734C160.659 92.7779 161.003 92.6197 161.21 92.5215C161.417 92.4237 161.596 92.3433 161.606 92.3433C161.617 92.3433 161.848 92.24 162.119 92.1144C162.39 91.9883 163.403 91.5251 164.37 91.085C165.337 90.645 166.207 90.2544 166.303 90.2166C166.399 90.179 166.607 90.1207 166.767 90.0866Z" fill="white"/>
<path d="M161.432 90.1864C161.613 90.121 161.796 90.0592 161.838 90.0484C161.881 90.0375 162.011 90.0379 162.128 90.0491C162.245 90.06 162.437 90.0936 162.553 90.1238C162.67 90.1535 162.931 90.2316 163.133 90.297C163.335 90.3623 163.492 90.4223 163.481 90.43C163.471 90.4381 163.192 90.5684 162.863 90.7204C162.533 90.872 162.107 91.0661 161.916 91.1511C161.724 91.2366 161.481 91.3464 161.374 91.3955C161.268 91.4446 160.581 91.7582 159.848 92.0927C159.114 92.4268 158.375 92.7655 158.205 92.8452C158.035 92.9248 157.722 93.0644 157.509 93.1549C157.296 93.2458 157.097 93.3486 157.064 93.3838C157.032 93.4186 156.963 93.6382 156.91 93.8718C156.828 94.2298 156.813 94.3926 156.814 94.9146C156.814 95.5152 156.818 95.5442 156.942 95.9007C157.013 96.1029 157.117 96.3465 157.173 96.442C157.229 96.5379 157.414 96.7556 157.585 96.9257C157.768 97.109 157.99 97.2857 158.127 97.358C158.255 97.4257 158.516 97.5332 158.707 97.5974C158.899 97.6616 159.22 97.7347 159.422 97.7594C159.625 97.7842 159.964 97.795 160.176 97.7834C160.389 97.7718 160.737 97.7269 160.949 97.6836C161.162 97.6403 161.54 97.5348 161.79 97.4489C162.04 97.3631 162.492 97.1867 162.795 97.0576C163.098 96.9284 163.546 96.7278 163.79 96.6114C164.027 96.4992 164.579 96.2263 165.807 95.6074C165.886 95.5675 165.981 95.5756 166.052 95.6285C166.115 95.6756 166.385 95.9154 166.651 96.1613C166.916 96.4068 167.23 96.698 167.347 96.8078C167.463 96.9176 168.151 97.5533 168.874 98.2203C169.596 98.887 170.318 99.5559 170.478 99.7063C170.638 99.8567 171.003 100.198 171.289 100.463C171.575 100.729 172.271 101.38 172.835 101.909C173.398 102.439 173.928 102.935 174.01 103.011C174.093 103.088 174.206 103.238 174.261 103.344C174.347 103.508 174.362 103.587 174.361 103.866C174.361 104.157 174.347 104.225 174.236 104.456C174.167 104.599 174.029 104.801 173.928 104.904C173.827 105.006 173.648 105.14 173.531 105.2C173.502 105.215 173.475 105.228 173.447 105.24C173.002 105.425 172.504 105.149 172.159 104.812C171.862 104.521 171.139 103.807 170.555 103.225C169.769 102.442 169.467 102.165 169.395 102.161C169.342 102.158 169.273 102.159 169.241 102.162C169.209 102.166 169.144 102.211 169.096 102.263C169.042 102.321 169.009 102.407 169.009 102.484C169.01 102.596 169.095 102.694 169.811 103.399C170.233 103.814 170.918 104.492 172.09 105.654C172.195 105.758 172.247 105.904 172.233 106.051C172.22 106.178 172.184 106.387 172.152 106.515C172.121 106.642 172.04 106.85 171.972 106.975C171.905 107.101 171.772 107.271 171.676 107.354C171.58 107.437 171.411 107.539 171.299 107.58C171.165 107.63 170.998 107.656 170.806 107.656C170.647 107.656 170.477 107.64 170.429 107.621C170.381 107.603 170.194 107.441 170.014 107.263C169.833 107.084 169.072 106.334 168.323 105.596C167.573 104.857 166.921 104.243 166.873 104.231C166.825 104.22 166.738 104.228 166.68 104.251C166.621 104.273 166.546 104.348 166.512 104.417C166.478 104.486 166.46 104.578 166.471 104.62C166.482 104.663 166.984 105.186 167.586 105.784C168.122 106.316 168.749 106.933 169.423 107.587C169.582 107.741 169.668 107.956 169.657 108.178C169.645 108.456 169.622 108.564 169.541 108.719C169.486 108.825 169.383 108.966 169.312 109.033C169.241 109.099 169.096 109.186 168.989 109.226C168.849 109.279 168.696 109.299 168.429 109.298C167.806 109.296 167.27 108.897 166.826 108.459L165.981 107.627C165.145 106.803 164.371 106.045 164.261 105.945C164.131 105.825 164.026 105.761 163.961 105.761C163.899 105.761 163.817 105.808 163.742 105.887C163.646 105.987 163.627 106.035 163.644 106.128C163.66 106.216 163.926 106.503 164.762 107.327C165.321 107.879 165.981 108.528 166.695 109.226C166.798 109.327 166.836 109.478 166.792 109.616C166.752 109.739 166.662 109.945 166.592 110.072C166.522 110.2 166.398 110.364 166.316 110.437C166.235 110.509 166.098 110.6 166.013 110.639C165.928 110.677 165.811 110.709 165.752 110.71C165.694 110.71 165.611 110.732 165.57 110.759C165.508 110.797 165.483 110.797 165.444 110.758C165.417 110.731 165.342 110.709 165.279 110.709C165.215 110.709 165.067 110.669 164.95 110.622C164.833 110.574 164.642 110.476 164.525 110.403C164.444 110.353 164.338 110.281 164.197 110.177C164.071 110.084 164.032 109.914 164.099 109.773C164.163 109.64 164.244 109.401 164.279 109.241C164.325 109.034 164.336 108.863 164.319 108.642C164.306 108.471 164.262 108.228 164.223 108.1C164.183 107.973 164.1 107.764 164.038 107.637C163.963 107.482 163.819 107.299 163.607 107.086C163.366 106.844 163.219 106.734 163.008 106.633C162.891 106.577 162.719 106.512 162.46 106.44C162.293 106.393 162.16 106.263 162.119 106.094C162.082 105.943 161.993 105.697 161.92 105.548C161.834 105.37 161.698 105.184 161.524 105.005C161.378 104.855 161.146 104.667 161.007 104.586C160.869 104.505 160.66 104.408 160.543 104.368C160.427 104.33 160.265 104.288 160.186 104.275C160.067 104.257 160.037 104.234 160.018 104.147C160.006 104.088 159.962 103.936 159.922 103.808C159.881 103.681 159.783 103.466 159.703 103.33C159.623 103.195 159.436 102.968 159.287 102.826C159.113 102.659 158.913 102.516 158.727 102.423C158.598 102.36 158.416 102.29 158.147 102.224C158.017 102.192 157.91 102.096 157.872 101.968C157.838 101.853 157.764 101.663 157.708 101.546C157.652 101.429 157.519 101.229 157.41 101.101C157.303 100.974 157.124 100.802 157.014 100.719C156.903 100.636 156.709 100.519 156.581 100.459C156.454 100.399 156.245 100.323 156.117 100.291C155.99 100.258 155.746 100.231 155.576 100.231C155.406 100.231 155.163 100.258 155.035 100.291C154.907 100.323 154.681 100.408 154.533 100.478C154.384 100.549 154.171 100.679 154.059 100.767C153.947 100.855 153.729 101.088 153.574 101.285C153.419 101.482 153.121 101.869 152.912 102.145C152.703 102.422 152.525 102.666 152.516 102.687C152.507 102.708 152.061 102.504 151.525 102.234C150.989 101.964 150.54 101.72 150.526 101.693C150.512 101.665 150.456 101.33 150.402 100.947C150.347 100.564 150.291 100.129 150.277 99.9801C150.262 99.8312 150.237 99.692 150.219 99.6707C150.202 99.6495 150.194 99.032 150.201 98.298C150.207 97.5645 150.233 96.7815 150.258 96.558C150.282 96.3349 150.345 95.9173 150.397 95.63C150.449 95.3431 150.536 94.9514 150.591 94.76C150.646 94.5686 150.761 94.1947 150.847 93.9286C150.933 93.663 151.108 93.1843 151.236 92.8653C151.365 92.5463 151.511 92.2025 151.561 92.1016C151.649 91.9257 151.657 91.9199 151.759 91.9597C151.817 91.9825 152.24 92.1418 152.696 92.3139C153.153 92.4859 153.649 92.6588 153.798 92.6978C153.947 92.7369 154.243 92.7891 154.455 92.8135C154.779 92.851 154.914 92.8479 155.286 92.7953C155.531 92.7605 155.853 92.6948 156.001 92.6491C156.15 92.6035 156.524 92.4446 156.833 92.2961C157.141 92.1472 157.784 91.8383 158.263 91.6094C158.741 91.3804 159.324 91.102 159.558 90.9911C159.792 90.8797 160.235 90.6802 160.543 90.5468C160.852 90.4138 161.252 90.2514 161.432 90.1864Z" fill="white"/>
<path d="M154.687 101.487C154.772 101.419 154.938 101.326 155.054 101.28C155.228 101.212 155.331 101.199 155.615 101.21C155.892 101.219 156.006 101.243 156.175 101.323C156.292 101.378 156.471 101.503 156.572 101.601C156.672 101.698 156.808 101.887 156.872 102.02C156.976 102.232 156.99 102.303 156.992 102.609C156.993 102.801 156.977 103.001 156.955 103.054C156.934 103.108 156.928 103.174 156.942 103.203C156.963 103.246 157.015 103.243 157.238 103.188C157.434 103.141 157.587 103.129 157.789 103.146C157.976 103.162 158.137 103.204 158.272 103.271C158.384 103.327 158.545 103.429 158.63 103.497C158.724 103.573 158.838 103.727 158.92 103.887C159.051 104.143 159.055 104.168 159.055 104.58C159.055 104.948 159.043 105.03 158.968 105.171C158.92 105.262 158.89 105.349 158.9 105.365C158.911 105.38 158.898 105.42 158.871 105.452C158.831 105.5 158.833 105.503 158.881 105.466C158.913 105.442 159.074 105.377 159.239 105.321C159.441 105.253 159.62 105.22 159.79 105.22C159.942 105.22 160.136 105.252 160.282 105.3C160.415 105.345 160.601 105.445 160.696 105.523C160.79 105.6 160.931 105.76 161.007 105.877C161.096 106.013 161.164 106.18 161.196 106.341C161.23 106.507 161.236 106.677 161.217 106.844C161.198 107.007 161.142 107.183 161.059 107.346C160.988 107.485 160.93 107.611 160.93 107.627C160.93 107.642 160.96 107.64 160.998 107.621C161.035 107.602 161.161 107.537 161.278 107.476C161.475 107.374 161.523 107.366 161.916 107.366C162.315 107.367 162.355 107.374 162.573 107.487C162.7 107.553 162.882 107.692 162.977 107.796C163.071 107.9 163.193 108.08 163.247 108.197C163.33 108.377 163.345 108.466 163.345 108.778C163.346 109.116 163.336 109.166 163.221 109.396C163.151 109.534 162.921 109.873 162.707 110.15C162.494 110.426 162.264 110.701 162.195 110.762C162.126 110.822 161.983 110.916 161.877 110.972C161.713 111.058 161.622 111.076 161.278 111.09C160.894 111.105 160.859 111.1 160.621 110.991C160.457 110.917 160.308 110.811 160.194 110.687C160.097 110.583 159.976 110.411 159.926 110.304C159.875 110.198 159.823 110.028 159.811 109.927C159.799 109.826 159.781 109.743 159.77 109.743C159.76 109.743 159.751 109.709 159.751 109.666C159.751 109.624 159.76 109.589 159.77 109.589C159.781 109.59 159.802 109.507 159.817 109.406C159.833 109.304 159.852 109.178 159.86 109.125C159.868 109.072 159.885 109.007 159.899 108.98C159.914 108.951 159.879 108.959 159.812 108.999C159.751 109.036 159.62 109.115 159.523 109.173C159.425 109.232 159.245 109.299 159.123 109.323C159.001 109.346 158.788 109.355 158.649 109.342C158.494 109.328 158.317 109.279 158.185 109.214C158.069 109.157 157.894 109.031 157.797 108.934C157.7 108.837 157.57 108.653 157.507 108.526C157.405 108.317 157.393 108.256 157.395 107.926C157.396 107.658 157.415 107.517 157.466 107.404C157.505 107.319 157.551 107.202 157.571 107.143C157.604 107.042 157.601 107.038 157.499 107.062C157.441 107.075 157.323 107.123 157.238 107.167C157.111 107.233 157.013 107.248 156.678 107.248C156.306 107.25 156.253 107.24 156.04 107.135C155.913 107.073 155.733 106.942 155.64 106.845C155.548 106.749 155.427 106.574 155.371 106.457C155.293 106.293 155.267 106.169 155.255 105.916C155.246 105.733 155.26 105.518 155.285 105.432C155.316 105.325 155.317 105.266 155.289 105.239C155.262 105.213 155.175 105.225 155.026 105.274C154.853 105.33 154.734 105.342 154.494 105.327C154.253 105.312 154.133 105.281 153.953 105.191C153.823 105.126 153.645 104.991 153.549 104.886C153.454 104.782 153.332 104.602 153.278 104.485C153.193 104.302 153.18 104.219 153.18 103.885C153.18 103.516 153.186 103.487 153.317 103.247C153.392 103.109 153.696 102.684 153.993 102.303C154.29 101.922 154.602 101.554 154.687 101.487Z" fill="white"/>
<circle cx="164.5" cy="99.5" r="19" stroke="white"/>
</svg>
