<svg width="219" height="134" viewBox="0 0 219 134" fill="none" xmlns="http://www.w3.org/2000/svg">
<line x1="3" y1="39" x2="3" y2="134" stroke="#D7D7D7" stroke-width="6"/>
<path d="M25.284 21.22C24.0813 21.22 22.974 21.022 21.962 20.626C20.95 20.23 20.07 19.68 19.322 18.976C18.574 18.2573 17.9947 17.4213 17.584 16.468C17.1733 15.5 16.968 14.444 16.968 13.3C16.968 12.156 17.1733 11.1073 17.584 10.154C17.9947 9.186 18.574 8.35 19.322 7.646C20.07 6.92733 20.95 6.37 21.962 5.974C22.974 5.578 24.074 5.38 25.262 5.38C26.4647 5.38 27.5647 5.578 28.562 5.974C29.574 6.37 30.454 6.92733 31.202 7.646C31.95 8.35 32.5293 9.186 32.94 10.154C33.3507 11.1073 33.556 12.156 33.556 13.3C33.556 14.444 33.3507 15.5 32.94 16.468C32.5293 17.436 31.95 18.272 31.202 18.976C30.454 19.68 29.574 20.23 28.562 20.626C27.5647 21.022 26.472 21.22 25.284 21.22ZM25.262 18.712C26.0393 18.712 26.758 18.58 27.418 18.316C28.078 18.052 28.65 17.678 29.134 17.194C29.618 16.6953 29.992 16.1233 30.256 15.478C30.5347 14.818 30.674 14.092 30.674 13.3C30.674 12.508 30.5347 11.7893 30.256 11.144C29.992 10.484 29.618 9.912 29.134 9.428C28.65 8.92933 28.078 8.548 27.418 8.284C26.758 8.02 26.0393 7.888 25.262 7.888C24.4847 7.888 23.766 8.02 23.106 8.284C22.4607 8.548 21.8887 8.92933 21.39 9.428C20.906 9.912 20.5247 10.484 20.246 11.144C19.982 11.7893 19.85 12.508 19.85 13.3C19.85 14.0773 19.982 14.796 20.246 15.456C20.5247 16.116 20.906 16.6953 21.39 17.194C21.874 17.678 22.446 18.052 23.106 18.316C23.766 18.58 24.4847 18.712 25.262 18.712ZM41.2955 21.154C40.2982 21.154 39.4182 20.9707 38.6555 20.604C37.8929 20.2227 37.2989 19.6507 36.8735 18.888C36.4482 18.1107 36.2355 17.1353 36.2355 15.962V9.252H38.9855V15.588C38.9855 16.644 39.2202 17.436 39.6895 17.964C40.1735 18.4773 40.8555 18.734 41.7355 18.734C42.3809 18.734 42.9382 18.602 43.4075 18.338C43.8915 18.074 44.2655 17.678 44.5295 17.15C44.8082 16.622 44.9475 15.9693 44.9475 15.192V9.252H47.6975V21H45.0795V17.832L45.5415 18.8C45.1455 19.5627 44.5662 20.1493 43.8035 20.56C43.0409 20.956 42.2049 21.154 41.2955 21.154ZM51.2981 21V9.252H53.9161V12.486L53.6081 11.54C53.9601 10.748 54.5101 10.1467 55.2581 9.736C56.0208 9.32533 56.9668 9.12 58.0961 9.12V11.738C57.9788 11.7087 57.8688 11.694 57.7661 11.694C57.6635 11.6793 57.5608 11.672 57.4581 11.672C56.4168 11.672 55.5881 11.98 54.9721 12.596C54.3561 13.1973 54.0481 14.0993 54.0481 15.302V21H51.2981Z" fill="#1E231C"/>
<path d="M71.4345 21L64.7025 5.6H67.8045L73.8105 19.526H72.0285L78.1005 5.6H80.9605L74.2505 21H71.4345ZM82.429 21V9.252H85.179V21H82.429ZM83.815 7.316C83.3017 7.316 82.8763 7.15467 82.539 6.832C82.2163 6.50933 82.055 6.12067 82.055 5.666C82.055 5.19667 82.2163 4.808 82.539 4.5C82.8763 4.17733 83.3017 4.016 83.815 4.016C84.3283 4.016 84.7463 4.17 85.069 4.478C85.4063 4.77133 85.575 5.14533 85.575 5.6C85.575 6.084 85.4137 6.49467 85.091 6.832C84.7683 7.15467 84.343 7.316 83.815 7.316ZM92.4184 21.154C91.4357 21.154 90.4897 21.0293 89.5804 20.78C88.6857 20.516 87.9744 20.2007 87.4464 19.834L88.5024 17.744C89.0304 18.0813 89.661 18.36 90.3944 18.58C91.1277 18.8 91.861 18.91 92.5944 18.91C93.4597 18.91 94.083 18.7927 94.4644 18.558C94.8604 18.3233 95.0584 18.008 95.0584 17.612C95.0584 17.2893 94.9264 17.0473 94.6624 16.886C94.3984 16.71 94.0537 16.578 93.6284 16.49C93.203 16.402 92.7264 16.3213 92.1984 16.248C91.685 16.1747 91.1644 16.0793 90.6364 15.962C90.123 15.83 89.6537 15.6467 89.2284 15.412C88.803 15.1627 88.4584 14.8327 88.1944 14.422C87.9304 14.0113 87.7984 13.4687 87.7984 12.794C87.7984 12.046 88.011 11.4007 88.4364 10.858C88.8617 10.3007 89.4557 9.87533 90.2184 9.582C90.9957 9.274 91.9124 9.12 92.9684 9.12C93.7604 9.12 94.5597 9.208 95.3664 9.384C96.173 9.56 96.8404 9.80933 97.3684 10.132L96.3124 12.222C95.755 11.8847 95.1904 11.6573 94.6184 11.54C94.061 11.408 93.5037 11.342 92.9464 11.342C92.1104 11.342 91.487 11.4667 91.0764 11.716C90.6804 11.9653 90.4824 12.2807 90.4824 12.662C90.4824 13.014 90.6144 13.278 90.8784 13.454C91.1424 13.63 91.487 13.7693 91.9124 13.872C92.3377 13.9747 92.807 14.0627 93.3204 14.136C93.8484 14.1947 94.369 14.29 94.8824 14.422C95.3957 14.554 95.865 14.7373 96.2904 14.972C96.7304 15.192 97.0824 15.5073 97.3464 15.918C97.6104 16.3287 97.7424 16.864 97.7424 17.524C97.7424 18.2573 97.5224 18.8953 97.0824 19.438C96.657 19.9807 96.0484 20.406 95.2564 20.714C94.4644 21.0073 93.5184 21.154 92.4184 21.154ZM100.111 21V9.252H102.861V21H100.111ZM101.497 7.316C100.983 7.316 100.558 7.15467 100.221 6.832C99.898 6.50933 99.7366 6.12067 99.7366 5.666C99.7366 5.19667 99.898 4.808 100.221 4.5C100.558 4.17733 100.983 4.016 101.497 4.016C102.01 4.016 102.428 4.17 102.751 4.478C103.088 4.77133 103.257 5.14533 103.257 5.6C103.257 6.084 103.095 6.49467 102.773 6.832C102.45 7.15467 102.025 7.316 101.497 7.316ZM111.75 21.154C110.547 21.154 109.477 20.8973 108.538 20.384C107.599 19.856 106.859 19.1373 106.316 18.228C105.773 17.3187 105.502 16.2847 105.502 15.126C105.502 13.9527 105.773 12.9187 106.316 12.024C106.859 11.1147 107.599 10.4033 108.538 9.89C109.477 9.37667 110.547 9.12 111.75 9.12C112.967 9.12 114.045 9.37667 114.984 9.89C115.937 10.4033 116.678 11.1073 117.206 12.002C117.749 12.8967 118.02 13.938 118.02 15.126C118.02 16.2847 117.749 17.3187 117.206 18.228C116.678 19.1373 115.937 19.856 114.984 20.384C114.045 20.8973 112.967 21.154 111.75 21.154ZM111.75 18.8C112.425 18.8 113.026 18.6533 113.554 18.36C114.082 18.0667 114.493 17.6413 114.786 17.084C115.094 16.5267 115.248 15.874 115.248 15.126C115.248 14.3633 115.094 13.7107 114.786 13.168C114.493 12.6107 114.082 12.1853 113.554 11.892C113.026 11.5987 112.432 11.452 111.772 11.452C111.097 11.452 110.496 11.5987 109.968 11.892C109.455 12.1853 109.044 12.6107 108.736 13.168C108.428 13.7107 108.274 14.3633 108.274 15.126C108.274 15.874 108.428 16.5267 108.736 17.084C109.044 17.6413 109.455 18.0667 109.968 18.36C110.496 18.6533 111.09 18.8 111.75 18.8ZM127.316 9.12C128.254 9.12 129.09 9.30333 129.824 9.67C130.572 10.0367 131.158 10.6013 131.584 11.364C132.009 12.112 132.222 13.08 132.222 14.268V21H129.472V14.62C129.472 13.5787 129.222 12.8013 128.724 12.288C128.24 11.7747 127.558 11.518 126.678 11.518C126.032 11.518 125.46 11.65 124.962 11.914C124.463 12.178 124.074 12.574 123.796 13.102C123.532 13.6153 123.4 14.268 123.4 15.06V21H120.65V9.252H123.268V12.42L122.806 11.452C123.216 10.704 123.81 10.132 124.588 9.736C125.38 9.32533 126.289 9.12 127.316 9.12Z" fill="#0BA754"/>
<path d="M141.966 15.896L141.438 5.6H144.694L144.144 15.896H141.966ZM143.066 21.154C142.553 21.154 142.128 20.9853 141.79 20.648C141.453 20.3107 141.284 19.9073 141.284 19.438C141.284 18.9687 141.453 18.5727 141.79 18.25C142.128 17.9127 142.553 17.744 143.066 17.744C143.58 17.744 143.998 17.9127 144.32 18.25C144.643 18.5727 144.804 18.9687 144.804 19.438C144.804 19.9073 144.643 20.3107 144.32 20.648C143.998 20.9853 143.58 21.154 143.066 21.154Z" fill="#251F22"/>
<path d="M18.904 45.644H16.3V44.612H22.744V45.644H20.14V53H18.904V45.644ZM25.4762 53.18C24.8282 53.18 24.2562 53.06 23.7602 52.82C23.2722 52.572 22.8882 52.22 22.6082 51.764C22.3362 51.3 22.2002 50.756 22.2002 50.132C22.2002 49.516 22.3362 48.976 22.6082 48.512C22.8802 48.048 23.2642 47.692 23.7602 47.444C24.2562 47.188 24.8282 47.06 25.4762 47.06C26.1242 47.06 26.6962 47.188 27.1922 47.444C27.6882 47.692 28.0722 48.048 28.3442 48.512C28.6242 48.976 28.7642 49.516 28.7642 50.132C28.7642 50.756 28.6242 51.3 28.3442 51.764C28.0722 52.22 27.6882 52.572 27.1922 52.82C26.6962 53.06 26.1242 53.18 25.4762 53.18ZM25.4762 52.22C26.1002 52.22 26.5962 52.028 26.9642 51.644C27.3322 51.26 27.5162 50.756 27.5162 50.132C27.5162 49.484 27.3322 48.972 26.9642 48.596C26.5962 48.22 26.1002 48.032 25.4762 48.032C24.8522 48.032 24.3562 48.22 23.9882 48.596C23.6202 48.972 23.4362 49.484 23.4362 50.132C23.4362 50.756 23.6202 51.26 23.9882 51.644C24.3562 52.028 24.8522 52.22 25.4762 52.22ZM34.5222 44.612H38.3742C39.1182 44.612 39.6942 44.804 40.1022 45.188C40.5102 45.572 40.7142 46.132 40.7142 46.868C40.7142 47.284 40.6142 47.652 40.4142 47.972C40.2222 48.284 39.9662 48.516 39.6462 48.668C40.5422 48.932 40.9902 49.584 40.9902 50.624C40.9902 51.112 40.8822 51.536 40.6662 51.896C40.4582 52.248 40.1702 52.52 39.8022 52.712C39.4342 52.904 39.0262 53 38.5782 53H34.5222V44.612ZM38.2182 48.212C38.6102 48.212 38.9182 48.104 39.1422 47.888C39.3662 47.672 39.4782 47.352 39.4782 46.928C39.4782 46.44 39.3662 46.1 39.1422 45.908C38.9262 45.708 38.5902 45.608 38.1342 45.608H35.7462V48.212H38.2182ZM38.3022 52.004C38.7742 52.004 39.1342 51.9 39.3822 51.692C39.6302 51.484 39.7542 51.128 39.7542 50.624C39.7542 50.12 39.6222 49.76 39.3582 49.544C39.1022 49.328 38.7142 49.22 38.1942 49.22H35.7462V52.004H38.3022ZM45.4832 53.18C44.4192 53.18 43.5832 52.916 42.9752 52.388C42.3752 51.852 42.0752 51.1 42.0752 50.132C42.0752 49.188 42.3432 48.44 42.8792 47.888C43.4232 47.336 44.1952 47.06 45.1952 47.06C45.8592 47.06 46.4232 47.188 46.8872 47.444C47.3512 47.692 47.6992 48.04 47.9312 48.488C48.1712 48.928 48.2912 49.432 48.2912 50V50.6H43.2272C43.2672 51.144 43.4952 51.552 43.9112 51.824C44.3352 52.088 44.9072 52.22 45.6272 52.22C45.9952 52.22 46.3672 52.188 46.7432 52.124C47.1192 52.052 47.4512 51.96 47.7392 51.848V52.82C47.4832 52.924 47.1432 53.008 46.7192 53.072C46.3032 53.144 45.8912 53.18 45.4832 53.18ZM47.1512 49.748C47.1352 49.204 46.9552 48.784 46.6112 48.488C46.2752 48.184 45.7952 48.032 45.1712 48.032C44.5632 48.032 44.0912 48.188 43.7552 48.5C43.4192 48.812 43.2432 49.228 43.2272 49.748H47.1512ZM57.1653 44.612H58.3413L61.6893 53H60.4413L59.6013 50.912H55.8933L55.0773 53H53.8173L57.1653 44.612ZM59.2653 49.892L57.7533 45.968L56.2413 49.892H59.2653ZM71.6519 53.18C70.7879 53.18 70.0199 53 69.3479 52.64C68.6759 52.28 68.1519 51.772 67.7759 51.116C67.3999 50.452 67.2119 49.684 67.2119 48.812C67.2119 47.94 67.3999 47.172 67.7759 46.508C68.1519 45.844 68.6759 45.332 69.3479 44.972C70.0199 44.612 70.7879 44.432 71.6519 44.432C72.8119 44.432 73.7759 44.72 74.5439 45.296V46.472C73.8479 45.864 72.9199 45.56 71.7599 45.56C71.1279 45.56 70.5599 45.692 70.0559 45.956C69.5519 46.22 69.1559 46.6 68.8679 47.096C68.5879 47.584 68.4479 48.156 68.4479 48.812C68.4479 49.468 68.5879 50.044 68.8679 50.54C69.1479 51.036 69.5359 51.416 70.0319 51.68C70.5279 51.944 71.0879 52.076 71.7119 52.076C72.4399 52.076 73.0359 51.928 73.4999 51.632V49.436H71.9039V48.44H74.7239V52.28C74.3479 52.592 73.9039 52.82 73.3919 52.964C72.8879 53.108 72.3079 53.18 71.6519 53.18ZM76.0417 44.132H77.2537V53H76.0417V44.132ZM81.8551 53.18C81.2071 53.18 80.6351 53.06 80.1391 52.82C79.6511 52.572 79.2671 52.22 78.9871 51.764C78.7151 51.3 78.5791 50.756 78.5791 50.132C78.5791 49.516 78.7151 48.976 78.9871 48.512C79.2591 48.048 79.6431 47.692 80.1391 47.444C80.6351 47.188 81.2071 47.06 81.8551 47.06C82.5031 47.06 83.0751 47.188 83.5711 47.444C84.0671 47.692 84.4511 48.048 84.7231 48.512C85.0031 48.976 85.1431 49.516 85.1431 50.132C85.1431 50.756 85.0031 51.3 84.7231 51.764C84.4511 52.22 84.0671 52.572 83.5711 52.82C83.0751 53.06 82.5031 53.18 81.8551 53.18ZM81.8551 52.22C82.4791 52.22 82.9751 52.028 83.3431 51.644C83.7111 51.26 83.8951 50.756 83.8951 50.132C83.8951 49.484 83.7111 48.972 83.3431 48.596C82.9751 48.22 82.4791 48.032 81.8551 48.032C81.2311 48.032 80.7351 48.22 80.3671 48.596C79.9991 48.972 79.8151 49.484 79.8151 50.132C79.8151 50.756 79.9991 51.26 80.3671 51.644C80.7351 52.028 81.2311 52.22 81.8551 52.22ZM89.8599 53.18C89.3399 53.18 88.8879 53.1 88.5039 52.94C88.1279 52.772 87.7799 52.512 87.4599 52.16V53H86.2839V44.132H87.4959V48.008C87.7599 47.696 88.0999 47.46 88.5159 47.3C88.9319 47.14 89.3799 47.06 89.8599 47.06C90.4359 47.06 90.9519 47.192 91.4079 47.456C91.8719 47.712 92.2319 48.072 92.4879 48.536C92.7519 49 92.8839 49.532 92.8839 50.132C92.8839 50.74 92.7519 51.276 92.4879 51.74C92.2319 52.196 91.8719 52.552 91.4079 52.808C90.9519 53.056 90.4359 53.18 89.8599 53.18ZM89.5839 52.22C89.9759 52.22 90.3279 52.136 90.6399 51.968C90.9599 51.792 91.2079 51.544 91.3839 51.224C91.5679 50.904 91.6599 50.54 91.6599 50.132C91.6599 49.724 91.5679 49.36 91.3839 49.04C91.2079 48.72 90.9599 48.472 90.6399 48.296C90.3279 48.12 89.9759 48.032 89.5839 48.032C89.0959 48.032 88.6599 48.164 88.2759 48.428C87.8919 48.692 87.6319 49.044 87.4959 49.484V50.78C87.6479 51.22 87.9079 51.572 88.2759 51.836C88.6519 52.092 89.0879 52.22 89.5839 52.22ZM95.9651 53.18C95.2691 53.18 94.7091 53.004 94.2851 52.652C93.8691 52.292 93.6611 51.808 93.6611 51.2C93.6611 50.56 93.8611 50.068 94.2611 49.724C94.6691 49.372 95.2451 49.196 95.9891 49.196C96.7811 49.196 97.4531 49.356 98.0051 49.676V49.376C98.0051 48.92 97.8651 48.584 97.5851 48.368C97.3131 48.144 96.8811 48.032 96.2891 48.032C95.9371 48.032 95.5931 48.068 95.2571 48.14C94.9291 48.204 94.6331 48.296 94.3691 48.416V47.432C94.6091 47.32 94.9211 47.232 95.3051 47.168C95.6891 47.096 96.0611 47.06 96.4211 47.06C97.3731 47.06 98.0771 47.272 98.5331 47.696C98.9971 48.112 99.2291 48.692 99.2291 49.436V53H98.0891V52.352C97.8411 52.624 97.5451 52.832 97.2011 52.976C96.8651 53.112 96.4531 53.18 95.9651 53.18ZM96.2651 52.256C96.6491 52.256 96.9971 52.18 97.3091 52.028C97.6211 51.876 97.8531 51.664 98.0051 51.392V50.612C97.4851 50.276 96.9051 50.108 96.2651 50.108C95.8011 50.108 95.4531 50.2 95.2211 50.384C94.9971 50.56 94.8851 50.832 94.8851 51.2C94.8851 51.904 95.3451 52.256 96.2651 52.256ZM100.733 44.132H101.945V53H100.733V44.132ZM107.952 44.612H109.176V51.98H113.424V53H107.952V44.612ZM117.19 53.18C116.126 53.18 115.29 52.916 114.682 52.388C114.082 51.852 113.782 51.1 113.782 50.132C113.782 49.188 114.05 48.44 114.586 47.888C115.13 47.336 115.902 47.06 116.902 47.06C117.566 47.06 118.13 47.188 118.594 47.444C119.058 47.692 119.406 48.04 119.638 48.488C119.878 48.928 119.998 49.432 119.998 50V50.6H114.934C114.974 51.144 115.202 51.552 115.618 51.824C116.042 52.088 116.614 52.22 117.334 52.22C117.702 52.22 118.074 52.188 118.45 52.124C118.826 52.052 119.158 51.96 119.446 51.848V52.82C119.19 52.924 118.85 53.008 118.426 53.072C118.01 53.144 117.598 53.18 117.19 53.18ZM118.858 49.748C118.842 49.204 118.662 48.784 118.318 48.488C117.982 48.184 117.502 48.032 116.878 48.032C116.27 48.032 115.798 48.188 115.462 48.5C115.126 48.812 114.95 49.228 114.934 49.748H118.858ZM123.387 53.18C122.691 53.18 122.131 53.004 121.707 52.652C121.291 52.292 121.083 51.808 121.083 51.2C121.083 50.56 121.283 50.068 121.683 49.724C122.091 49.372 122.667 49.196 123.411 49.196C124.203 49.196 124.875 49.356 125.427 49.676V49.376C125.427 48.92 125.287 48.584 125.007 48.368C124.735 48.144 124.303 48.032 123.711 48.032C123.359 48.032 123.015 48.068 122.679 48.14C122.351 48.204 122.055 48.296 121.791 48.416V47.432C122.031 47.32 122.343 47.232 122.727 47.168C123.111 47.096 123.483 47.06 123.843 47.06C124.795 47.06 125.499 47.272 125.955 47.696C126.419 48.112 126.651 48.692 126.651 49.436V53H125.511V52.352C125.263 52.624 124.967 52.832 124.623 52.976C124.287 53.112 123.875 53.18 123.387 53.18ZM123.687 52.256C124.071 52.256 124.419 52.18 124.731 52.028C125.043 51.876 125.275 51.664 125.427 51.392V50.612C124.907 50.276 124.327 50.108 123.687 50.108C123.223 50.108 122.875 50.2 122.643 50.384C122.419 50.56 122.307 50.832 122.307 51.2C122.307 51.904 122.767 52.256 123.687 52.256ZM130.939 53.18C130.363 53.18 129.843 53.056 129.379 52.808C128.923 52.552 128.563 52.196 128.299 51.74C128.043 51.276 127.915 50.74 127.915 50.132C127.915 49.532 128.043 49 128.299 48.536C128.563 48.072 128.923 47.712 129.379 47.456C129.843 47.192 130.363 47.06 130.939 47.06C131.979 47.06 132.767 47.376 133.303 48.008V44.132H134.515V53H133.339V52.16C133.019 52.512 132.667 52.772 132.283 52.94C131.907 53.1 131.459 53.18 130.939 53.18ZM131.215 52.22C131.711 52.22 132.143 52.092 132.511 51.836C132.887 51.572 133.151 51.22 133.303 50.78V49.484C133.167 49.044 132.907 48.692 132.523 48.428C132.147 48.164 131.711 48.032 131.215 48.032C130.823 48.032 130.467 48.12 130.147 48.296C129.835 48.472 129.587 48.72 129.403 49.04C129.227 49.36 129.139 49.724 129.139 50.132C129.139 50.54 129.227 50.904 129.403 51.224C129.587 51.544 129.835 51.792 130.147 51.968C130.467 52.136 130.823 52.22 131.215 52.22ZM139.245 53.18C138.181 53.18 137.345 52.916 136.737 52.388C136.137 51.852 135.837 51.1 135.837 50.132C135.837 49.188 136.105 48.44 136.641 47.888C137.185 47.336 137.957 47.06 138.957 47.06C139.621 47.06 140.185 47.188 140.649 47.444C141.113 47.692 141.461 48.04 141.693 48.488C141.933 48.928 142.053 49.432 142.053 50V50.6H136.989C137.029 51.144 137.257 51.552 137.673 51.824C138.097 52.088 138.669 52.22 139.389 52.22C139.757 52.22 140.129 52.188 140.505 52.124C140.881 52.052 141.213 51.96 141.501 51.848V52.82C141.245 52.924 140.905 53.008 140.481 53.072C140.065 53.144 139.653 53.18 139.245 53.18ZM140.913 49.748C140.897 49.204 140.717 48.784 140.373 48.488C140.037 48.184 139.557 48.032 138.933 48.032C138.325 48.032 137.853 48.188 137.517 48.5C137.181 48.812 137.005 49.228 136.989 49.748H140.913ZM143.378 47.24H144.554V48.272C144.794 47.92 145.13 47.66 145.562 47.492C146.002 47.324 146.51 47.24 147.086 47.24V48.188C146.47 48.188 145.942 48.288 145.502 48.488C145.062 48.688 144.758 49.004 144.59 49.436V53H143.378V47.24ZM152.612 44.612H153.848V53H152.612V44.612ZM155.413 47.24H156.589V48.068C156.861 47.724 157.193 47.472 157.585 47.312C157.985 47.144 158.401 47.06 158.833 47.06C159.601 47.06 160.173 47.264 160.549 47.672C160.925 48.08 161.113 48.628 161.113 49.316V53H159.901V49.436C159.901 48.5 159.453 48.032 158.557 48.032C158.173 48.032 157.813 48.124 157.477 48.308C157.149 48.484 156.865 48.756 156.625 49.124V53H155.413V47.24ZM169.378 53.18C168.898 53.18 168.422 53.136 167.95 53.048C167.486 52.968 167.106 52.856 166.81 52.712V51.608C167.578 51.968 168.406 52.148 169.294 52.148C170.542 52.148 171.166 51.728 171.166 50.888C171.166 50.6 171.098 50.368 170.962 50.192C170.826 50.016 170.63 49.864 170.374 49.736C170.118 49.6 169.702 49.416 169.126 49.184C168.334 48.864 167.762 48.512 167.41 48.128C167.058 47.744 166.882 47.26 166.882 46.676C166.882 46.236 167.002 45.848 167.242 45.512C167.482 45.168 167.818 44.904 168.25 44.72C168.682 44.528 169.178 44.432 169.738 44.432C170.194 44.432 170.606 44.468 170.974 44.54C171.342 44.612 171.702 44.728 172.054 44.888V45.944C171.358 45.632 170.654 45.476 169.942 45.476C169.366 45.476 168.926 45.58 168.622 45.788C168.318 45.996 168.166 46.292 168.166 46.676C168.166 46.94 168.23 47.164 168.358 47.348C168.494 47.524 168.69 47.684 168.946 47.828C169.21 47.964 169.598 48.136 170.11 48.344C170.678 48.576 171.126 48.796 171.454 49.004C171.782 49.212 172.03 49.468 172.198 49.772C172.374 50.068 172.462 50.44 172.462 50.888C172.462 51.616 172.202 52.18 171.682 52.58C171.162 52.98 170.394 53.18 169.378 53.18ZM173.776 47.24H174.928V48.068C175.2 47.732 175.508 47.48 175.852 47.312C176.196 47.144 176.552 47.06 176.92 47.06C177.384 47.06 177.752 47.14 178.024 47.3C178.296 47.452 178.496 47.688 178.624 48.008C178.88 47.696 179.192 47.46 179.56 47.3C179.936 47.14 180.312 47.06 180.688 47.06C181.392 47.06 181.9 47.24 182.212 47.6C182.524 47.952 182.68 48.476 182.68 49.172V53H181.504V49.328C181.504 48.856 181.416 48.524 181.24 48.332C181.064 48.132 180.764 48.032 180.34 48.032C179.732 48.032 179.236 48.296 178.852 48.824C178.868 48.944 178.876 49.14 178.876 49.412V53H177.7V49.328C177.7 48.856 177.62 48.524 177.46 48.332C177.3 48.132 177.012 48.032 176.596 48.032C175.988 48.032 175.444 48.376 174.964 49.064V53H173.776V47.24ZM186.071 53.18C185.375 53.18 184.815 53.004 184.391 52.652C183.975 52.292 183.767 51.808 183.767 51.2C183.767 50.56 183.967 50.068 184.367 49.724C184.775 49.372 185.351 49.196 186.095 49.196C186.887 49.196 187.559 49.356 188.111 49.676V49.376C188.111 48.92 187.971 48.584 187.691 48.368C187.419 48.144 186.987 48.032 186.395 48.032C186.043 48.032 185.699 48.068 185.363 48.14C185.035 48.204 184.739 48.296 184.475 48.416V47.432C184.715 47.32 185.027 47.232 185.411 47.168C185.795 47.096 186.167 47.06 186.527 47.06C187.479 47.06 188.183 47.272 188.639 47.696C189.103 48.112 189.335 48.692 189.335 49.436V53H188.195V52.352C187.947 52.624 187.651 52.832 187.307 52.976C186.971 53.112 186.559 53.18 186.071 53.18ZM186.371 52.256C186.755 52.256 187.103 52.18 187.415 52.028C187.727 51.876 187.959 51.664 188.111 51.392V50.612C187.591 50.276 187.011 50.108 186.371 50.108C185.907 50.108 185.559 50.2 185.327 50.384C185.103 50.56 184.991 50.832 184.991 51.2C184.991 51.904 185.451 52.256 186.371 52.256ZM190.839 47.24H192.015V48.272C192.255 47.92 192.591 47.66 193.023 47.492C193.463 47.324 193.971 47.24 194.547 47.24V48.188C193.931 48.188 193.403 48.288 192.963 48.488C192.523 48.688 192.219 49.004 192.051 49.436V53H190.839V47.24ZM197.852 53.18C197.268 53.18 196.816 53.012 196.496 52.676C196.184 52.34 196.028 51.864 196.028 51.248V48.176H195.152V47.24H196.028V45.512H197.252V47.24H198.668V48.176H197.252V51.164C197.252 51.548 197.324 51.82 197.468 51.98C197.62 52.14 197.892 52.22 198.284 52.22C198.516 52.22 198.748 52.168 198.98 52.064V53.024C198.676 53.128 198.3 53.18 197.852 53.18ZM19.888 63.612H21.064L24.412 72H23.164L22.324 69.912H18.616L17.8 72H16.54L19.888 63.612ZM21.988 68.892L20.476 64.968L18.964 68.892H21.988ZM25.7331 66.24H26.9091V67.068C27.1811 66.724 27.5131 66.472 27.9051 66.312C28.3051 66.144 28.7211 66.06 29.1531 66.06C29.9211 66.06 30.4931 66.264 30.8691 66.672C31.2451 67.08 31.4331 67.628 31.4331 68.316V72H30.2211V68.436C30.2211 67.5 29.7731 67.032 28.8771 67.032C28.4931 67.032 28.1331 67.124 27.7971 67.308C27.4691 67.484 27.1851 67.756 26.9451 68.124V72H25.7331V66.24ZM35.7124 72.18C35.1364 72.18 34.6164 72.056 34.1524 71.808C33.6964 71.552 33.3364 71.196 33.0724 70.74C32.8164 70.276 32.6884 69.74 32.6884 69.132C32.6884 68.532 32.8164 68 33.0724 67.536C33.3364 67.072 33.6964 66.712 34.1524 66.456C34.6164 66.192 35.1364 66.06 35.7124 66.06C36.7524 66.06 37.5404 66.376 38.0764 67.008V63.132H39.2884V72H38.1124V71.16C37.7924 71.512 37.4404 71.772 37.0564 71.94C36.6804 72.1 36.2324 72.18 35.7124 72.18ZM35.9884 71.22C36.4844 71.22 36.9164 71.092 37.2844 70.836C37.6604 70.572 37.9244 70.22 38.0764 69.78V68.484C37.9404 68.044 37.6804 67.692 37.2964 67.428C36.9204 67.164 36.4844 67.032 35.9884 67.032C35.5964 67.032 35.2404 67.12 34.9204 67.296C34.6084 67.472 34.3604 67.72 34.1764 68.04C34.0004 68.36 33.9124 68.724 33.9124 69.132C33.9124 69.54 34.0004 69.904 34.1764 70.224C34.3604 70.544 34.6084 70.792 34.9204 70.968C35.2404 71.136 35.5964 71.22 35.9884 71.22ZM47.6197 72.18C47.1397 72.18 46.6637 72.136 46.1917 72.048C45.7277 71.968 45.3477 71.856 45.0517 71.712V70.608C45.8197 70.968 46.6477 71.148 47.5357 71.148C48.7837 71.148 49.4077 70.728 49.4077 69.888C49.4077 69.6 49.3397 69.368 49.2037 69.192C49.0677 69.016 48.8717 68.864 48.6157 68.736C48.3597 68.6 47.9437 68.416 47.3677 68.184C46.5757 67.864 46.0037 67.512 45.6517 67.128C45.2997 66.744 45.1237 66.26 45.1237 65.676C45.1237 65.236 45.2437 64.848 45.4837 64.512C45.7237 64.168 46.0597 63.904 46.4917 63.72C46.9237 63.528 47.4197 63.432 47.9797 63.432C48.4357 63.432 48.8477 63.468 49.2157 63.54C49.5837 63.612 49.9437 63.728 50.2957 63.888V64.944C49.5997 64.632 48.8957 64.476 48.1837 64.476C47.6077 64.476 47.1677 64.58 46.8637 64.788C46.5597 64.996 46.4077 65.292 46.4077 65.676C46.4077 65.94 46.4717 66.164 46.5997 66.348C46.7357 66.524 46.9317 66.684 47.1877 66.828C47.4517 66.964 47.8397 67.136 48.3517 67.344C48.9197 67.576 49.3677 67.796 49.6957 68.004C50.0237 68.212 50.2717 68.468 50.4397 68.772C50.6157 69.068 50.7037 69.44 50.7037 69.888C50.7037 70.616 50.4437 71.18 49.9237 71.58C49.4037 71.98 48.6357 72.18 47.6197 72.18ZM54.1345 72.18C53.3585 72.18 52.7705 71.972 52.3705 71.556C51.9785 71.14 51.7825 70.584 51.7825 69.888V66.24H52.9945V69.84C52.9945 70.76 53.4545 71.22 54.3745 71.22C55.1825 71.22 55.8145 70.856 56.2705 70.128V66.24H57.4825V72H56.3065V71.184C56.0345 71.528 55.7105 71.78 55.3345 71.94C54.9665 72.1 54.5665 72.18 54.1345 72.18ZM61.1618 72.18C60.7618 72.18 60.3378 72.128 59.8898 72.024C59.4418 71.928 59.0898 71.796 58.8338 71.628V70.596C59.1458 70.78 59.5058 70.932 59.9138 71.052C60.3218 71.164 60.7178 71.22 61.1018 71.22C61.5338 71.22 61.8498 71.168 62.0498 71.064C62.2498 70.96 62.3498 70.792 62.3498 70.56C62.3498 70.384 62.3018 70.244 62.2058 70.14C62.1178 70.028 61.9618 69.928 61.7378 69.84C61.5218 69.752 61.1938 69.648 60.7538 69.528C60.2818 69.392 59.9058 69.256 59.6258 69.12C59.3538 68.976 59.1458 68.796 59.0018 68.58C58.8658 68.364 58.7978 68.084 58.7978 67.74C58.7978 67.188 59.0138 66.772 59.4458 66.492C59.8858 66.204 60.4738 66.06 61.2098 66.06C61.5938 66.06 61.9698 66.096 62.3378 66.168C62.7058 66.24 63.0018 66.34 63.2258 66.468V67.476C62.9938 67.34 62.7058 67.232 62.3618 67.152C62.0258 67.072 61.6818 67.032 61.3298 67.032C60.9058 67.032 60.5818 67.084 60.3578 67.188C60.1338 67.292 60.0218 67.476 60.0218 67.74C60.0218 67.908 60.0698 68.044 60.1658 68.148C60.2618 68.252 60.4138 68.344 60.6218 68.424C60.8378 68.496 61.1778 68.592 61.6418 68.712C62.3698 68.912 62.8738 69.148 63.1538 69.42C63.4418 69.692 63.5858 70.068 63.5858 70.548C63.5858 71.044 63.3818 71.44 62.9738 71.736C62.5658 72.032 61.9618 72.18 61.1618 72.18ZM66.9531 72.18C66.3691 72.18 65.9171 72.012 65.5971 71.676C65.2851 71.34 65.1291 70.864 65.1291 70.248V67.176H64.2531V66.24H65.1291V64.512H66.3531V66.24H67.7691V67.176H66.3531V70.164C66.3531 70.548 66.4251 70.82 66.5691 70.98C66.7211 71.14 66.9931 71.22 67.3851 71.22C67.6171 71.22 67.8491 71.168 68.0811 71.064V72.024C67.7771 72.128 67.4011 72.18 66.9531 72.18ZM71.1096 72.18C70.4136 72.18 69.8536 72.004 69.4296 71.652C69.0136 71.292 68.8056 70.808 68.8056 70.2C68.8056 69.56 69.0056 69.068 69.4056 68.724C69.8136 68.372 70.3896 68.196 71.1336 68.196C71.9256 68.196 72.5976 68.356 73.1496 68.676V68.376C73.1496 67.92 73.0096 67.584 72.7296 67.368C72.4576 67.144 72.0256 67.032 71.4336 67.032C71.0816 67.032 70.7376 67.068 70.4016 67.14C70.0736 67.204 69.7776 67.296 69.5136 67.416V66.432C69.7536 66.32 70.0656 66.232 70.4496 66.168C70.8336 66.096 71.2056 66.06 71.5656 66.06C72.5176 66.06 73.2216 66.272 73.6776 66.696C74.1416 67.112 74.3736 67.692 74.3736 68.436V72H73.2336V71.352C72.9856 71.624 72.6896 71.832 72.3456 71.976C72.0096 72.112 71.5976 72.18 71.1096 72.18ZM71.4096 71.256C71.7936 71.256 72.1416 71.18 72.4536 71.028C72.7656 70.876 72.9976 70.664 73.1496 70.392V69.612C72.6296 69.276 72.0496 69.108 71.4096 69.108C70.9456 69.108 70.5976 69.2 70.3656 69.384C70.1416 69.56 70.0296 69.832 70.0296 70.2C70.0296 70.904 70.4896 71.256 71.4096 71.256ZM76.5857 65.112C76.3857 65.112 76.2177 65.044 76.0817 64.908C75.9457 64.772 75.8777 64.604 75.8777 64.404C75.8777 64.204 75.9457 64.036 76.0817 63.9C76.2177 63.764 76.3857 63.696 76.5857 63.696C76.7937 63.696 76.9657 63.764 77.1017 63.9C77.2457 64.036 77.3177 64.204 77.3177 64.404C77.3177 64.604 77.2457 64.772 77.1017 64.908C76.9657 65.044 76.7937 65.112 76.5857 65.112ZM75.9737 66.24H77.2097V72H75.9737V66.24ZM78.8777 66.24H80.0537V67.068C80.3257 66.724 80.6577 66.472 81.0497 66.312C81.4497 66.144 81.8657 66.06 82.2977 66.06C83.0657 66.06 83.6377 66.264 84.0137 66.672C84.3897 67.08 84.5777 67.628 84.5777 68.316V72H83.3657V68.436C83.3657 67.5 82.9177 67.032 82.0217 67.032C81.6377 67.032 81.2777 67.124 80.9417 67.308C80.6137 67.484 80.3297 67.756 80.0897 68.124V72H78.8777V66.24ZM87.9612 72.18C87.2652 72.18 86.7052 72.004 86.2812 71.652C85.8652 71.292 85.6572 70.808 85.6572 70.2C85.6572 69.56 85.8572 69.068 86.2572 68.724C86.6652 68.372 87.2412 68.196 87.9852 68.196C88.7772 68.196 89.4492 68.356 90.0012 68.676V68.376C90.0012 67.92 89.8612 67.584 89.5812 67.368C89.3092 67.144 88.8772 67.032 88.2852 67.032C87.9332 67.032 87.5892 67.068 87.2532 67.14C86.9252 67.204 86.6292 67.296 86.3652 67.416V66.432C86.6052 66.32 86.9172 66.232 87.3012 66.168C87.6852 66.096 88.0572 66.06 88.4172 66.06C89.3692 66.06 90.0732 66.272 90.5292 66.696C90.9932 67.112 91.2252 67.692 91.2252 68.436V72H90.0852V71.352C89.8372 71.624 89.5412 71.832 89.1972 71.976C88.8612 72.112 88.4492 72.18 87.9612 72.18ZM88.2612 71.256C88.6452 71.256 88.9932 71.18 89.3052 71.028C89.6172 70.876 89.8492 70.664 90.0012 70.392V69.612C89.4812 69.276 88.9012 69.108 88.2612 69.108C87.7972 69.108 87.4492 69.2 87.2172 69.384C86.9932 69.56 86.8812 69.832 86.8812 70.2C86.8812 70.904 87.3412 71.256 88.2612 71.256ZM96.3052 72.18C95.7852 72.18 95.3332 72.1 94.9492 71.94C94.5732 71.772 94.2252 71.512 93.9052 71.16V72H92.7292V63.132H93.9412V67.008C94.2052 66.696 94.5452 66.46 94.9612 66.3C95.3772 66.14 95.8252 66.06 96.3052 66.06C96.8812 66.06 97.3972 66.192 97.8532 66.456C98.3172 66.712 98.6772 67.072 98.9332 67.536C99.1972 68 99.3292 68.532 99.3292 69.132C99.3292 69.74 99.1972 70.276 98.9332 70.74C98.6772 71.196 98.3172 71.552 97.8532 71.808C97.3972 72.056 96.8812 72.18 96.3052 72.18ZM96.0292 71.22C96.4212 71.22 96.7732 71.136 97.0852 70.968C97.4052 70.792 97.6532 70.544 97.8292 70.224C98.0132 69.904 98.1052 69.54 98.1052 69.132C98.1052 68.724 98.0132 68.36 97.8292 68.04C97.6532 67.72 97.4052 67.472 97.0852 67.296C96.7732 67.12 96.4212 67.032 96.0292 67.032C95.5412 67.032 95.1052 67.164 94.7212 67.428C94.3372 67.692 94.0772 68.044 93.9412 68.484V69.78C94.0932 70.22 94.3532 70.572 94.7212 70.836C95.0972 71.092 95.5332 71.22 96.0292 71.22ZM100.651 63.132H101.863V72H100.651V63.132ZM106.596 72.18C105.532 72.18 104.696 71.916 104.088 71.388C103.488 70.852 103.188 70.1 103.188 69.132C103.188 68.188 103.456 67.44 103.992 66.888C104.536 66.336 105.308 66.06 106.308 66.06C106.972 66.06 107.536 66.188 108 66.444C108.464 66.692 108.812 67.04 109.044 67.488C109.284 67.928 109.404 68.432 109.404 69V69.6H104.34C104.38 70.144 104.608 70.552 105.024 70.824C105.448 71.088 106.02 71.22 106.74 71.22C107.108 71.22 107.48 71.188 107.856 71.124C108.232 71.052 108.564 70.96 108.852 70.848V71.82C108.596 71.924 108.256 72.008 107.832 72.072C107.416 72.144 107.004 72.18 106.596 72.18ZM108.264 68.748C108.248 68.204 108.068 67.784 107.724 67.488C107.388 67.184 106.908 67.032 106.284 67.032C105.676 67.032 105.204 67.188 104.868 67.5C104.532 67.812 104.356 68.228 104.34 68.748H108.264ZM115.171 63.612H118.399C119.303 63.612 120.015 63.84 120.535 64.296C121.063 64.744 121.327 65.384 121.327 66.216C121.327 67.064 121.067 67.708 120.547 68.148C120.027 68.58 119.311 68.796 118.399 68.796H116.395V72H115.171V63.612ZM118.267 67.776C118.827 67.776 119.271 67.66 119.599 67.428C119.927 67.196 120.091 66.792 120.091 66.216C120.091 65.64 119.927 65.236 119.599 65.004C119.271 64.764 118.827 64.644 118.267 64.644H116.395V67.776H118.267ZM123.809 72.18C123.113 72.18 122.553 72.004 122.129 71.652C121.713 71.292 121.505 70.808 121.505 70.2C121.505 69.56 121.705 69.068 122.105 68.724C122.513 68.372 123.089 68.196 123.833 68.196C124.625 68.196 125.297 68.356 125.849 68.676V68.376C125.849 67.92 125.709 67.584 125.429 67.368C125.157 67.144 124.725 67.032 124.133 67.032C123.781 67.032 123.437 67.068 123.101 67.14C122.773 67.204 122.477 67.296 122.213 67.416V66.432C122.453 66.32 122.765 66.232 123.149 66.168C123.533 66.096 123.905 66.06 124.265 66.06C125.217 66.06 125.921 66.272 126.377 66.696C126.841 67.112 127.073 67.692 127.073 68.436V72H125.933V71.352C125.685 71.624 125.389 71.832 125.045 71.976C124.709 72.112 124.297 72.18 123.809 72.18ZM124.109 71.256C124.493 71.256 124.841 71.18 125.153 71.028C125.465 70.876 125.697 70.664 125.849 70.392V69.612C125.329 69.276 124.749 69.108 124.109 69.108C123.645 69.108 123.297 69.2 123.065 69.384C122.841 69.56 122.729 69.832 122.729 70.2C122.729 70.904 123.189 71.256 124.109 71.256ZM131.379 72.18C130.739 72.18 130.171 72.06 129.675 71.82C129.179 71.58 128.791 71.232 128.511 70.776C128.239 70.312 128.103 69.764 128.103 69.132C128.103 68.5 128.239 67.956 128.511 67.5C128.791 67.036 129.179 66.68 129.675 66.432C130.179 66.184 130.755 66.06 131.403 66.06C132.283 66.06 132.987 66.232 133.515 66.576V67.572C132.995 67.212 132.331 67.032 131.523 67.032C130.867 67.032 130.335 67.212 129.927 67.572C129.527 67.924 129.326 68.444 129.326 69.132C129.326 69.82 129.527 70.34 129.927 70.692C130.327 71.044 130.851 71.22 131.499 71.22C132.307 71.22 133.003 71.028 133.587 70.644V71.628C133.307 71.82 132.987 71.96 132.627 72.048C132.275 72.136 131.859 72.18 131.379 72.18ZM134.905 63.132H136.117V72H134.905V63.132ZM136.129 69.084L138.781 66.24H140.257L137.593 69.084L140.533 72H139.057L136.129 69.084ZM143.145 72.18C142.449 72.18 141.889 72.004 141.465 71.652C141.049 71.292 140.841 70.808 140.841 70.2C140.841 69.56 141.041 69.068 141.441 68.724C141.849 68.372 142.425 68.196 143.169 68.196C143.961 68.196 144.633 68.356 145.185 68.676V68.376C145.185 67.92 145.045 67.584 144.765 67.368C144.493 67.144 144.061 67.032 143.469 67.032C143.117 67.032 142.773 67.068 142.437 67.14C142.109 67.204 141.813 67.296 141.549 67.416V66.432C141.789 66.32 142.101 66.232 142.485 66.168C142.869 66.096 143.241 66.06 143.601 66.06C144.553 66.06 145.257 66.272 145.713 66.696C146.177 67.112 146.409 67.692 146.409 68.436V72H145.269V71.352C145.021 71.624 144.725 71.832 144.381 71.976C144.045 72.112 143.633 72.18 143.145 72.18ZM143.445 71.256C143.829 71.256 144.177 71.18 144.489 71.028C144.801 70.876 145.033 70.664 145.185 70.392V69.612C144.665 69.276 144.085 69.108 143.445 69.108C142.981 69.108 142.633 69.2 142.401 69.384C142.177 69.56 142.065 69.832 142.065 70.2C142.065 70.904 142.525 71.256 143.445 71.256ZM150.925 74.76C150.533 74.76 150.149 74.728 149.773 74.664C149.405 74.6 149.093 74.508 148.837 74.388V73.392C149.437 73.664 150.133 73.8 150.925 73.8C151.669 73.8 152.209 73.636 152.545 73.308C152.889 72.988 153.061 72.5 153.061 71.844V71.232C152.533 71.864 151.757 72.18 150.733 72.18C150.149 72.18 149.625 72.052 149.161 71.796C148.697 71.54 148.333 71.18 148.069 70.716C147.805 70.252 147.673 69.72 147.673 69.12C147.673 68.512 147.801 67.98 148.057 67.524C148.321 67.06 148.681 66.7 149.137 66.444C149.601 66.188 150.121 66.06 150.697 66.06C151.233 66.06 151.685 66.14 152.053 66.3C152.429 66.452 152.777 66.708 153.097 67.068V66.24H154.273V71.712C154.273 72.696 153.997 73.448 153.445 73.968C152.901 74.496 152.061 74.76 150.925 74.76ZM150.973 71.22C151.469 71.22 151.905 71.088 152.281 70.824C152.665 70.56 152.925 70.208 153.061 69.768V68.472C152.909 68.024 152.645 67.672 152.269 67.416C151.901 67.16 151.469 67.032 150.973 67.032C150.581 67.032 150.225 67.12 149.905 67.296C149.593 67.464 149.345 67.708 149.161 68.028C148.985 68.348 148.897 68.712 148.897 69.12C148.897 69.536 148.985 69.904 149.161 70.224C149.345 70.536 149.593 70.78 149.905 70.956C150.225 71.132 150.581 71.22 150.973 71.22ZM156.543 65.112C156.343 65.112 156.175 65.044 156.039 64.908C155.903 64.772 155.835 64.604 155.835 64.404C155.835 64.204 155.903 64.036 156.039 63.9C156.175 63.764 156.343 63.696 156.543 63.696C156.751 63.696 156.923 63.764 157.059 63.9C157.203 64.036 157.275 64.204 157.275 64.404C157.275 64.604 157.203 64.772 157.059 64.908C156.923 65.044 156.751 65.112 156.543 65.112ZM155.931 66.24H157.167V72H155.931V66.24ZM158.835 66.24H160.011V67.068C160.283 66.724 160.615 66.472 161.007 66.312C161.407 66.144 161.823 66.06 162.255 66.06C163.023 66.06 163.595 66.264 163.971 66.672C164.347 67.08 164.535 67.628 164.535 68.316V72H163.323V68.436C163.323 67.5 162.875 67.032 161.979 67.032C161.595 67.032 161.235 67.124 160.899 67.308C160.571 67.484 160.287 67.756 160.047 68.124V72H158.835V66.24ZM169.042 74.76C168.65 74.76 168.266 74.728 167.89 74.664C167.522 74.6 167.21 74.508 166.954 74.388V73.392C167.554 73.664 168.25 73.8 169.042 73.8C169.786 73.8 170.326 73.636 170.662 73.308C171.006 72.988 171.178 72.5 171.178 71.844V71.232C170.65 71.864 169.874 72.18 168.85 72.18C168.266 72.18 167.742 72.052 167.278 71.796C166.814 71.54 166.45 71.18 166.186 70.716C165.922 70.252 165.79 69.72 165.79 69.12C165.79 68.512 165.918 67.98 166.174 67.524C166.438 67.06 166.798 66.7 167.254 66.444C167.718 66.188 168.238 66.06 168.814 66.06C169.35 66.06 169.802 66.14 170.17 66.3C170.546 66.452 170.894 66.708 171.214 67.068V66.24H172.39V71.712C172.39 72.696 172.114 73.448 171.562 73.968C171.018 74.496 170.178 74.76 169.042 74.76ZM169.09 71.22C169.586 71.22 170.022 71.088 170.398 70.824C170.782 70.56 171.042 70.208 171.178 69.768V68.472C171.026 68.024 170.762 67.672 170.386 67.416C170.018 67.16 169.586 67.032 169.09 67.032C168.698 67.032 168.342 67.12 168.022 67.296C167.71 67.464 167.462 67.708 167.278 68.028C167.102 68.348 167.014 68.712 167.014 69.12C167.014 69.536 167.102 69.904 167.278 70.224C167.462 70.536 167.71 70.78 168.022 70.956C168.342 71.132 168.698 71.22 169.09 71.22ZM16.78 82.612H19.48C20.384 82.612 21.168 82.78 21.832 83.116C22.496 83.452 23.004 83.932 23.356 84.556C23.716 85.18 23.896 85.916 23.896 86.764C23.896 88.156 23.492 89.212 22.684 89.932C21.884 90.644 20.76 91 19.312 91H16.78V82.612ZM19.3 89.98C20.42 89.98 21.26 89.704 21.82 89.152C22.38 88.6 22.66 87.804 22.66 86.764C22.66 85.804 22.384 85.044 21.832 84.484C21.288 83.924 20.508 83.644 19.492 83.644H18.004V89.98H19.3ZM28.3855 91.18C27.3215 91.18 26.4855 90.916 25.8775 90.388C25.2775 89.852 24.9775 89.1 24.9775 88.132C24.9775 87.188 25.2455 86.44 25.7815 85.888C26.3255 85.336 27.0975 85.06 28.0975 85.06C28.7615 85.06 29.3255 85.188 29.7895 85.444C30.2535 85.692 30.6015 86.04 30.8335 86.488C31.0735 86.928 31.1935 87.432 31.1935 88V88.6H26.1295C26.1695 89.144 26.3975 89.552 26.8135 89.824C27.2375 90.088 27.8095 90.22 28.5295 90.22C28.8975 90.22 29.2695 90.188 29.6455 90.124C30.0215 90.052 30.3535 89.96 30.6415 89.848V90.82C30.3855 90.924 30.0455 91.008 29.6215 91.072C29.2055 91.144 28.7935 91.18 28.3855 91.18ZM30.0535 87.748C30.0375 87.204 29.8575 86.784 29.5135 86.488C29.1775 86.184 28.6975 86.032 28.0735 86.032C27.4655 86.032 26.9935 86.188 26.6575 86.5C26.3215 86.812 26.1455 87.228 26.1295 87.748H30.0535ZM32.5183 82.132H33.7303V91H32.5183V82.132ZM36.0036 84.112C35.8036 84.112 35.6356 84.044 35.4996 83.908C35.3636 83.772 35.2956 83.604 35.2956 83.404C35.2956 83.204 35.3636 83.036 35.4996 82.9C35.6356 82.764 35.8036 82.696 36.0036 82.696C36.2116 82.696 36.3836 82.764 36.5196 82.9C36.6636 83.036 36.7356 83.204 36.7356 83.404C36.7356 83.604 36.6636 83.772 36.5196 83.908C36.3836 84.044 36.2116 84.112 36.0036 84.112ZM35.3916 85.24H36.6276V91H35.3916V85.24ZM38.0556 85.24H39.3396L41.0316 89.38L42.7236 85.24H44.0076L41.5596 91H40.5036L38.0556 85.24ZM48.0144 91.18C46.9504 91.18 46.1144 90.916 45.5064 90.388C44.9064 89.852 44.6064 89.1 44.6064 88.132C44.6064 87.188 44.8744 86.44 45.4104 85.888C45.9544 85.336 46.7264 85.06 47.7264 85.06C48.3904 85.06 48.9544 85.188 49.4184 85.444C49.8824 85.692 50.2304 86.04 50.4624 86.488C50.7024 86.928 50.8224 87.432 50.8224 88V88.6H45.7584C45.7984 89.144 46.0264 89.552 46.4424 89.824C46.8664 90.088 47.4384 90.22 48.1584 90.22C48.5264 90.22 48.8984 90.188 49.2744 90.124C49.6504 90.052 49.9824 89.96 50.2704 89.848V90.82C50.0144 90.924 49.6744 91.008 49.2504 91.072C48.8344 91.144 48.4224 91.18 48.0144 91.18ZM49.6824 87.748C49.6664 87.204 49.4864 86.784 49.1424 86.488C48.8064 86.184 48.3264 86.032 47.7024 86.032C47.0944 86.032 46.6224 86.188 46.2864 86.5C45.9504 86.812 45.7744 87.228 45.7584 87.748H49.6824ZM52.1472 85.24H53.3232V86.272C53.5632 85.92 53.8992 85.66 54.3312 85.492C54.7712 85.324 55.2792 85.24 55.8552 85.24V86.188C55.2392 86.188 54.7112 86.288 54.2712 86.488C53.8312 86.688 53.5272 87.004 53.3592 87.436V91H52.1472V85.24ZM57.6482 84.112C57.4482 84.112 57.2802 84.044 57.1442 83.908C57.0082 83.772 56.9402 83.604 56.9402 83.404C56.9402 83.204 57.0082 83.036 57.1442 82.9C57.2802 82.764 57.4482 82.696 57.6482 82.696C57.8562 82.696 58.0282 82.764 58.1642 82.9C58.3082 83.036 58.3802 83.204 58.3802 83.404C58.3802 83.604 58.3082 83.772 58.1642 83.908C58.0282 84.044 57.8562 84.112 57.6482 84.112ZM57.0362 85.24H58.2722V91H57.0362V85.24ZM59.9402 85.24H61.1162V86.068C61.3882 85.724 61.7202 85.472 62.1122 85.312C62.5122 85.144 62.9282 85.06 63.3602 85.06C64.1282 85.06 64.7002 85.264 65.0762 85.672C65.4522 86.08 65.6402 86.628 65.6402 87.316V91H64.4282V87.436C64.4282 86.5 63.9802 86.032 63.0842 86.032C62.7002 86.032 62.3402 86.124 62.0042 86.308C61.6762 86.484 61.3922 86.756 61.1522 87.124V91H59.9402V85.24ZM70.1475 93.76C69.7555 93.76 69.3715 93.728 68.9955 93.664C68.6275 93.6 68.3155 93.508 68.0595 93.388V92.392C68.6595 92.664 69.3555 92.8 70.1475 92.8C70.8915 92.8 71.4315 92.636 71.7675 92.308C72.1115 91.988 72.2835 91.5 72.2835 90.844V90.232C71.7555 90.864 70.9795 91.18 69.9555 91.18C69.3715 91.18 68.8475 91.052 68.3835 90.796C67.9195 90.54 67.5555 90.18 67.2915 89.716C67.0275 89.252 66.8955 88.72 66.8955 88.12C66.8955 87.512 67.0235 86.98 67.2795 86.524C67.5435 86.06 67.9035 85.7 68.3595 85.444C68.8235 85.188 69.3435 85.06 69.9195 85.06C70.4555 85.06 70.9075 85.14 71.2755 85.3C71.6515 85.452 71.9995 85.708 72.3195 86.068V85.24H73.4955V90.712C73.4955 91.696 73.2195 92.448 72.6675 92.968C72.1235 93.496 71.2835 93.76 70.1475 93.76ZM70.1955 90.22C70.6915 90.22 71.1275 90.088 71.5035 89.824C71.8875 89.56 72.1475 89.208 72.2835 88.768V87.472C72.1315 87.024 71.8675 86.672 71.4915 86.416C71.1235 86.16 70.6915 86.032 70.1955 86.032C69.8035 86.032 69.4475 86.12 69.1275 86.296C68.8155 86.464 68.5675 86.708 68.3835 87.028C68.2075 87.348 68.1195 87.712 68.1195 88.12C68.1195 88.536 68.2075 88.904 68.3835 89.224C68.5675 89.536 68.8155 89.78 69.1275 89.956C69.4475 90.132 69.8035 90.22 70.1955 90.22ZM83.8908 91C82.9788 91 82.1708 90.828 81.4668 90.484C80.7708 90.14 80.2268 89.652 79.8348 89.02C79.4508 88.38 79.2588 87.636 79.2588 86.788C79.2588 85.932 79.4508 85.176 79.8348 84.52C80.2188 83.856 80.7468 83.344 81.4188 82.984C82.0908 82.616 82.8428 82.432 83.6748 82.432C84.5068 82.432 85.2588 82.616 85.9308 82.984C86.6028 83.344 87.1308 83.856 87.5148 84.52C87.8988 85.176 88.0908 85.932 88.0908 86.788C88.0908 87.468 87.9348 88.092 87.6228 88.66C87.3188 89.22 86.9148 89.648 86.4108 89.944H88.2228V91H83.8908ZM83.6748 89.884C84.2908 89.884 84.8388 89.764 85.3188 89.524C85.7988 89.284 86.1708 88.932 86.4348 88.468C86.7068 87.996 86.8428 87.436 86.8428 86.788C86.8428 86.148 86.7028 85.584 86.4228 85.096C86.1428 84.6 85.7628 84.22 85.2828 83.956C84.8028 83.692 84.2668 83.56 83.6748 83.56C83.0828 83.56 82.5428 83.692 82.0548 83.956C81.5748 84.22 81.1948 84.596 80.9148 85.084C80.6348 85.572 80.4948 86.14 80.4948 86.788C80.4948 87.444 80.6268 88.004 80.8908 88.468C81.1628 88.932 81.5388 89.284 82.0188 89.524C82.4988 89.764 83.0508 89.884 83.6748 89.884ZM91.5993 91.18C90.8233 91.18 90.2353 90.972 89.8353 90.556C89.4433 90.14 89.2473 89.584 89.2473 88.888V85.24H90.4593V88.84C90.4593 89.76 90.9193 90.22 91.8393 90.22C92.6473 90.22 93.2793 89.856 93.7353 89.128V85.24H94.9473V91H93.7713V90.184C93.4993 90.528 93.1753 90.78 92.7993 90.94C92.4313 91.1 92.0313 91.18 91.5993 91.18ZM98.3909 91.18C97.6949 91.18 97.1349 91.004 96.7109 90.652C96.2949 90.292 96.0869 89.808 96.0869 89.2C96.0869 88.56 96.2869 88.068 96.6869 87.724C97.0949 87.372 97.6709 87.196 98.4149 87.196C99.2069 87.196 99.8789 87.356 100.431 87.676V87.376C100.431 86.92 100.291 86.584 100.011 86.368C99.7389 86.144 99.3069 86.032 98.7149 86.032C98.3629 86.032 98.0189 86.068 97.6829 86.14C97.3549 86.204 97.0589 86.296 96.7949 86.416V85.432C97.0349 85.32 97.3469 85.232 97.7309 85.168C98.1149 85.096 98.4869 85.06 98.8469 85.06C99.7989 85.06 100.503 85.272 100.959 85.696C101.423 86.112 101.655 86.692 101.655 87.436V91H100.515V90.352C100.267 90.624 99.9709 90.832 99.6269 90.976C99.2909 91.112 98.8789 91.18 98.3909 91.18ZM98.6909 90.256C99.0749 90.256 99.4229 90.18 99.7349 90.028C100.047 89.876 100.279 89.664 100.431 89.392V88.612C99.9109 88.276 99.3309 88.108 98.6909 88.108C98.2269 88.108 97.8789 88.2 97.6469 88.384C97.4229 88.56 97.3109 88.832 97.3109 89.2C97.3109 89.904 97.7709 90.256 98.6909 90.256ZM103.159 82.132H104.371V91H103.159V82.132ZM106.644 84.112C106.444 84.112 106.276 84.044 106.14 83.908C106.004 83.772 105.936 83.604 105.936 83.404C105.936 83.204 106.004 83.036 106.14 82.9C106.276 82.764 106.444 82.696 106.644 82.696C106.852 82.696 107.024 82.764 107.16 82.9C107.304 83.036 107.376 83.204 107.376 83.404C107.376 83.604 107.304 83.772 107.16 83.908C107.024 84.044 106.852 84.112 106.644 84.112ZM106.032 85.24H107.268V91H106.032V85.24ZM111.156 91.18C110.572 91.18 110.12 91.012 109.8 90.676C109.488 90.34 109.332 89.864 109.332 89.248V86.176H108.456V85.24H109.332V83.512H110.556V85.24H111.972V86.176H110.556V89.164C110.556 89.548 110.628 89.82 110.772 89.98C110.924 90.14 111.196 90.22 111.588 90.22C111.82 90.22 112.052 90.168 112.284 90.064V91.024C111.98 91.128 111.604 91.18 111.156 91.18ZM114.168 93.376C113.736 93.376 113.376 93.332 113.088 93.244V92.296C113.296 92.376 113.552 92.416 113.856 92.416C114.136 92.416 114.356 92.344 114.516 92.2C114.676 92.064 114.82 91.84 114.948 91.528L115.224 90.856L112.704 85.24H113.952L115.872 89.668L117.66 85.24H118.908L116.316 91.648C116.076 92.248 115.788 92.684 115.452 92.956C115.124 93.236 114.696 93.376 114.168 93.376ZM119.934 90.364H121.206L120.066 92.776H118.962L119.934 90.364ZM126.971 82.612H128.207V91H126.971V82.612ZM129.772 85.24H130.948V86.068C131.22 85.724 131.552 85.472 131.944 85.312C132.344 85.144 132.76 85.06 133.192 85.06C133.96 85.06 134.532 85.264 134.908 85.672C135.284 86.08 135.472 86.628 135.472 87.316V91H134.26V87.436C134.26 86.5 133.812 86.032 132.916 86.032C132.532 86.032 132.172 86.124 131.836 86.308C131.508 86.484 131.224 86.756 130.984 87.124V91H129.772V85.24ZM136.968 85.24H138.144V86.068C138.416 85.724 138.748 85.472 139.14 85.312C139.54 85.144 139.956 85.06 140.388 85.06C141.156 85.06 141.728 85.264 142.104 85.672C142.48 86.08 142.668 86.628 142.668 87.316V91H141.456V87.436C141.456 86.5 141.008 86.032 140.112 86.032C139.728 86.032 139.368 86.124 139.032 86.308C138.704 86.484 138.42 86.756 138.18 87.124V91H136.968V85.24ZM147.023 91.18C146.375 91.18 145.803 91.06 145.307 90.82C144.819 90.572 144.435 90.22 144.155 89.764C143.883 89.3 143.747 88.756 143.747 88.132C143.747 87.516 143.883 86.976 144.155 86.512C144.427 86.048 144.811 85.692 145.307 85.444C145.803 85.188 146.375 85.06 147.023 85.06C147.671 85.06 148.243 85.188 148.739 85.444C149.235 85.692 149.619 86.048 149.891 86.512C150.171 86.976 150.311 87.516 150.311 88.132C150.311 88.756 150.171 89.3 149.891 89.764C149.619 90.22 149.235 90.572 148.739 90.82C148.243 91.06 147.671 91.18 147.023 91.18ZM147.023 90.22C147.647 90.22 148.143 90.028 148.511 89.644C148.879 89.26 149.063 88.756 149.063 88.132C149.063 87.484 148.879 86.972 148.511 86.596C148.143 86.22 147.647 86.032 147.023 86.032C146.399 86.032 145.903 86.22 145.535 86.596C145.167 86.972 144.983 87.484 144.983 88.132C144.983 88.756 145.167 89.26 145.535 89.644C145.903 90.028 146.399 90.22 147.023 90.22ZM150.603 85.24H151.887L153.579 89.38L155.271 85.24H156.555L154.107 91H153.051L150.603 85.24ZM159.399 91.18C158.703 91.18 158.143 91.004 157.719 90.652C157.303 90.292 157.095 89.808 157.095 89.2C157.095 88.56 157.295 88.068 157.695 87.724C158.103 87.372 158.679 87.196 159.423 87.196C160.215 87.196 160.887 87.356 161.439 87.676V87.376C161.439 86.92 161.299 86.584 161.019 86.368C160.747 86.144 160.315 86.032 159.723 86.032C159.371 86.032 159.027 86.068 158.691 86.14C158.363 86.204 158.067 86.296 157.803 86.416V85.432C158.043 85.32 158.355 85.232 158.739 85.168C159.123 85.096 159.495 85.06 159.855 85.06C160.807 85.06 161.511 85.272 161.967 85.696C162.431 86.112 162.663 86.692 162.663 87.436V91H161.523V90.352C161.275 90.624 160.979 90.832 160.635 90.976C160.299 91.112 159.887 91.18 159.399 91.18ZM159.699 90.256C160.083 90.256 160.431 90.18 160.743 90.028C161.055 89.876 161.287 89.664 161.439 89.392V88.612C160.919 88.276 160.339 88.108 159.699 88.108C159.235 88.108 158.887 88.2 158.655 88.384C158.431 88.56 158.319 88.832 158.319 89.2C158.319 89.904 158.779 90.256 159.699 90.256ZM166.082 91.18C165.498 91.18 165.046 91.012 164.726 90.676C164.414 90.34 164.258 89.864 164.258 89.248V86.176H163.382V85.24H164.258V83.512H165.482V85.24H166.898V86.176H165.482V89.164C165.482 89.548 165.554 89.82 165.698 89.98C165.85 90.14 166.122 90.22 166.514 90.22C166.746 90.22 166.978 90.168 167.21 90.064V91.024C166.906 91.128 166.53 91.18 166.082 91.18ZM169.058 84.112C168.858 84.112 168.69 84.044 168.554 83.908C168.418 83.772 168.35 83.604 168.35 83.404C168.35 83.204 168.418 83.036 168.554 82.9C168.69 82.764 168.858 82.696 169.058 82.696C169.266 82.696 169.438 82.764 169.574 82.9C169.718 83.036 169.79 83.204 169.79 83.404C169.79 83.604 169.718 83.772 169.574 83.908C169.438 84.044 169.266 84.112 169.058 84.112ZM168.446 85.24H169.682V91H168.446V85.24ZM174.386 91.18C173.738 91.18 173.166 91.06 172.67 90.82C172.182 90.572 171.798 90.22 171.518 89.764C171.246 89.3 171.11 88.756 171.11 88.132C171.11 87.516 171.246 86.976 171.518 86.512C171.79 86.048 172.174 85.692 172.67 85.444C173.166 85.188 173.738 85.06 174.386 85.06C175.034 85.06 175.606 85.188 176.102 85.444C176.598 85.692 176.982 86.048 177.254 86.512C177.534 86.976 177.674 87.516 177.674 88.132C177.674 88.756 177.534 89.3 177.254 89.764C176.982 90.22 176.598 90.572 176.102 90.82C175.606 91.06 175.034 91.18 174.386 91.18ZM174.386 90.22C175.01 90.22 175.506 90.028 175.874 89.644C176.242 89.26 176.426 88.756 176.426 88.132C176.426 87.484 176.242 86.972 175.874 86.596C175.506 86.22 175.01 86.032 174.386 86.032C173.762 86.032 173.266 86.22 172.898 86.596C172.53 86.972 172.346 87.484 172.346 88.132C172.346 88.756 172.53 89.26 172.898 89.644C173.266 90.028 173.762 90.22 174.386 90.22ZM178.991 85.24H180.167V86.068C180.439 85.724 180.771 85.472 181.163 85.312C181.563 85.144 181.979 85.06 182.411 85.06C183.179 85.06 183.751 85.264 184.127 85.672C184.503 86.08 184.691 86.628 184.691 87.316V91H183.479V87.436C183.479 86.5 183.031 86.032 182.135 86.032C181.751 86.032 181.391 86.124 181.055 86.308C180.727 86.484 180.443 86.756 180.203 87.124V91H178.991V85.24ZM186.918 90.364H188.19L187.05 92.776H185.946L186.918 90.364ZM197.064 82.612H198.24L201.588 91H200.34L199.5 88.912H195.792L194.976 91H193.716L197.064 82.612ZM199.164 87.892L197.652 83.968L196.14 87.892H199.164ZM202.909 85.24H204.085V86.068C204.357 85.724 204.689 85.472 205.081 85.312C205.481 85.144 205.897 85.06 206.329 85.06C207.097 85.06 207.669 85.264 208.045 85.672C208.421 86.08 208.609 86.628 208.609 87.316V91H207.397V87.436C207.397 86.5 206.949 86.032 206.053 86.032C205.669 86.032 205.309 86.124 204.973 86.308C204.645 86.484 204.361 86.756 204.121 87.124V91H202.909V85.24ZM212.888 91.18C212.312 91.18 211.792 91.056 211.328 90.808C210.872 90.552 210.512 90.196 210.248 89.74C209.992 89.276 209.864 88.74 209.864 88.132C209.864 87.532 209.992 87 210.248 86.536C210.512 86.072 210.872 85.712 211.328 85.456C211.792 85.192 212.312 85.06 212.888 85.06C213.928 85.06 214.716 85.376 215.252 86.008V82.132H216.464V91H215.288V90.16C214.968 90.512 214.616 90.772 214.232 90.94C213.856 91.1 213.408 91.18 212.888 91.18ZM213.164 90.22C213.66 90.22 214.092 90.092 214.46 89.836C214.836 89.572 215.1 89.22 215.252 88.78V87.484C215.116 87.044 214.856 86.692 214.472 86.428C214.096 86.164 213.66 86.032 213.164 86.032C212.772 86.032 212.416 86.12 212.096 86.296C211.784 86.472 211.536 86.72 211.352 87.04C211.176 87.36 211.088 87.724 211.088 88.132C211.088 88.54 211.176 88.904 211.352 89.224C211.536 89.544 211.784 89.792 212.096 89.968C212.416 90.136 212.772 90.22 213.164 90.22ZM18.904 102.644H16.3V101.612H22.744V102.644H20.14V110H18.904V102.644ZM22.9206 104.24H24.0966V105.272C24.3366 104.92 24.6726 104.66 25.1046 104.492C25.5446 104.324 26.0526 104.24 26.6286 104.24V105.188C26.0126 105.188 25.4846 105.288 25.0446 105.488C24.6046 105.688 24.3006 106.004 24.1326 106.436V110H22.9206V104.24ZM29.947 110.18C29.171 110.18 28.583 109.972 28.183 109.556C27.791 109.14 27.595 108.584 27.595 107.888V104.24H28.807V107.84C28.807 108.76 29.267 109.22 30.187 109.22C30.995 109.22 31.627 108.856 32.083 108.128V104.24H33.295V110H32.119V109.184C31.847 109.528 31.523 109.78 31.147 109.94C30.779 110.1 30.379 110.18 29.947 110.18ZM36.9743 110.18C36.5743 110.18 36.1503 110.128 35.7023 110.024C35.2543 109.928 34.9023 109.796 34.6463 109.628V108.596C34.9583 108.78 35.3183 108.932 35.7263 109.052C36.1343 109.164 36.5303 109.22 36.9143 109.22C37.3463 109.22 37.6623 109.168 37.8623 109.064C38.0623 108.96 38.1623 108.792 38.1623 108.56C38.1623 108.384 38.1143 108.244 38.0183 108.14C37.9303 108.028 37.7743 107.928 37.5503 107.84C37.3343 107.752 37.0063 107.648 36.5663 107.528C36.0943 107.392 35.7183 107.256 35.4383 107.12C35.1663 106.976 34.9583 106.796 34.8143 106.58C34.6783 106.364 34.6103 106.084 34.6103 105.74C34.6103 105.188 34.8263 104.772 35.2583 104.492C35.6983 104.204 36.2863 104.06 37.0223 104.06C37.4063 104.06 37.7823 104.096 38.1503 104.168C38.5183 104.24 38.8143 104.34 39.0383 104.468V105.476C38.8063 105.34 38.5183 105.232 38.1743 105.152C37.8383 105.072 37.4943 105.032 37.1423 105.032C36.7183 105.032 36.3943 105.084 36.1703 105.188C35.9463 105.292 35.8343 105.476 35.8343 105.74C35.8343 105.908 35.8823 106.044 35.9783 106.148C36.0743 106.252 36.2263 106.344 36.4343 106.424C36.6503 106.496 36.9903 106.592 37.4543 106.712C38.1823 106.912 38.6863 107.148 38.9663 107.42C39.2543 107.692 39.3983 108.068 39.3983 108.548C39.3983 109.044 39.1943 109.44 38.7863 109.736C38.3783 110.032 37.7743 110.18 36.9743 110.18ZM42.7656 110.18C42.1816 110.18 41.7296 110.012 41.4096 109.676C41.0976 109.34 40.9416 108.864 40.9416 108.248V105.176H40.0656V104.24H40.9416V102.512H42.1656V104.24H43.5816V105.176H42.1656V108.164C42.1656 108.548 42.2376 108.82 42.3816 108.98C42.5336 109.14 42.8056 109.22 43.1976 109.22C43.4296 109.22 43.6616 109.168 43.8936 109.064V110.024C43.5896 110.128 43.2136 110.18 42.7656 110.18ZM51.5993 102.644H48.9953V101.612H55.4393V102.644H52.8353V110H51.5993V102.644ZM56.5183 101.132H57.7303V105.032C58.2823 104.384 59.0183 104.06 59.9383 104.06C60.7063 104.06 61.2783 104.264 61.6543 104.672C62.0303 105.08 62.2183 105.628 62.2183 106.316V110H61.0063V106.436C61.0063 105.5 60.5583 105.032 59.6623 105.032C59.2783 105.032 58.9183 105.124 58.5823 105.308C58.2543 105.484 57.9703 105.756 57.7303 106.124V110H56.5183V101.132ZM63.7136 104.24H64.8896V105.272C65.1296 104.92 65.4656 104.66 65.8976 104.492C66.3376 104.324 66.8456 104.24 67.4216 104.24V105.188C66.8056 105.188 66.2776 105.288 65.8376 105.488C65.3976 105.688 65.0936 106.004 64.9256 106.436V110H63.7136V104.24ZM71.3668 110.18C70.7188 110.18 70.1468 110.06 69.6508 109.82C69.1628 109.572 68.7788 109.22 68.4988 108.764C68.2268 108.3 68.0908 107.756 68.0908 107.132C68.0908 106.516 68.2268 105.976 68.4988 105.512C68.7708 105.048 69.1548 104.692 69.6508 104.444C70.1468 104.188 70.7188 104.06 71.3668 104.06C72.0148 104.06 72.5868 104.188 73.0828 104.444C73.5788 104.692 73.9628 105.048 74.2348 105.512C74.5148 105.976 74.6548 106.516 74.6548 107.132C74.6548 107.756 74.5148 108.3 74.2348 108.764C73.9628 109.22 73.5788 109.572 73.0828 109.82C72.5868 110.06 72.0148 110.18 71.3668 110.18ZM71.3668 109.22C71.9908 109.22 72.4868 109.028 72.8548 108.644C73.2228 108.26 73.4068 107.756 73.4068 107.132C73.4068 106.484 73.2228 105.972 72.8548 105.596C72.4868 105.22 71.9908 105.032 71.3668 105.032C70.7428 105.032 70.2468 105.22 69.8788 105.596C69.5108 105.972 69.3268 106.484 69.3268 107.132C69.3268 107.756 69.5108 108.26 69.8788 108.644C70.2468 109.028 70.7428 109.22 71.3668 109.22ZM78.2634 110.18C77.4874 110.18 76.8994 109.972 76.4994 109.556C76.1074 109.14 75.9114 108.584 75.9114 107.888V104.24H77.1234V107.84C77.1234 108.76 77.5834 109.22 78.5034 109.22C79.3114 109.22 79.9434 108.856 80.3994 108.128V104.24H81.6114V110H80.4354V109.184C80.1634 109.528 79.8394 109.78 79.4634 109.94C79.0954 110.1 78.6954 110.18 78.2634 110.18ZM86.1787 112.76C85.7867 112.76 85.4027 112.728 85.0267 112.664C84.6587 112.6 84.3467 112.508 84.0907 112.388V111.392C84.6907 111.664 85.3867 111.8 86.1787 111.8C86.9227 111.8 87.4627 111.636 87.7987 111.308C88.1427 110.988 88.3147 110.5 88.3147 109.844V109.232C87.7867 109.864 87.0107 110.18 85.9867 110.18C85.4027 110.18 84.8787 110.052 84.4147 109.796C83.9507 109.54 83.5867 109.18 83.3227 108.716C83.0587 108.252 82.9267 107.72 82.9267 107.12C82.9267 106.512 83.0547 105.98 83.3107 105.524C83.5747 105.06 83.9347 104.7 84.3907 104.444C84.8547 104.188 85.3747 104.06 85.9507 104.06C86.4867 104.06 86.9387 104.14 87.3067 104.3C87.6827 104.452 88.0307 104.708 88.3507 105.068V104.24H89.5267V109.712C89.5267 110.696 89.2507 111.448 88.6987 111.968C88.1547 112.496 87.3147 112.76 86.1787 112.76ZM86.2267 109.22C86.7227 109.22 87.1587 109.088 87.5347 108.824C87.9187 108.56 88.1787 108.208 88.3147 107.768V106.472C88.1627 106.024 87.8987 105.672 87.5227 105.416C87.1547 105.16 86.7227 105.032 86.2267 105.032C85.8347 105.032 85.4787 105.12 85.1587 105.296C84.8467 105.464 84.5987 105.708 84.4147 106.028C84.2387 106.348 84.1507 106.712 84.1507 107.12C84.1507 107.536 84.2387 107.904 84.4147 108.224C84.5987 108.536 84.8467 108.78 85.1587 108.956C85.4787 109.132 85.8347 109.22 86.2267 109.22ZM91.0886 101.132H92.3006V105.032C92.8526 104.384 93.5886 104.06 94.5086 104.06C95.2766 104.06 95.8486 104.264 96.2246 104.672C96.6006 105.08 96.7886 105.628 96.7886 106.316V110H95.5766V106.436C95.5766 105.5 95.1286 105.032 94.2326 105.032C93.8486 105.032 93.4886 105.124 93.1526 105.308C92.8246 105.484 92.5406 105.756 92.3006 106.124V110H91.0886V101.132ZM102.725 101.612H108.257V102.644H103.949V105.296H107.165V106.316H103.949V108.98H108.257V110H102.725V101.612ZM108.497 104.24H109.781L111.473 108.38L113.165 104.24H114.449L112.001 110H110.945L108.497 104.24ZM118.456 110.18C117.392 110.18 116.556 109.916 115.948 109.388C115.348 108.852 115.048 108.1 115.048 107.132C115.048 106.188 115.316 105.44 115.852 104.888C116.396 104.336 117.168 104.06 118.168 104.06C118.832 104.06 119.396 104.188 119.86 104.444C120.324 104.692 120.672 105.04 120.904 105.488C121.144 105.928 121.264 106.432 121.264 107V107.6H116.2C116.24 108.144 116.468 108.552 116.884 108.824C117.308 109.088 117.88 109.22 118.6 109.22C118.968 109.22 119.34 109.188 119.716 109.124C120.092 109.052 120.424 108.96 120.712 108.848V109.82C120.456 109.924 120.116 110.008 119.692 110.072C119.276 110.144 118.864 110.18 118.456 110.18ZM120.124 106.748C120.108 106.204 119.928 105.784 119.584 105.488C119.248 105.184 118.768 105.032 118.144 105.032C117.536 105.032 117.064 105.188 116.728 105.5C116.392 105.812 116.216 106.228 116.2 106.748H120.124ZM122.589 104.24H123.765V105.272C124.005 104.92 124.341 104.66 124.773 104.492C125.213 104.324 125.721 104.24 126.297 104.24V105.188C125.681 105.188 125.153 105.288 124.713 105.488C124.273 105.688 123.969 106.004 123.801 106.436V110H122.589V104.24ZM128.43 112.376C127.998 112.376 127.638 112.332 127.35 112.244V111.296C127.558 111.376 127.814 111.416 128.118 111.416C128.398 111.416 128.618 111.344 128.778 111.2C128.938 111.064 129.082 110.84 129.21 110.528L129.486 109.856L126.966 104.24H128.214L130.134 108.668L131.922 104.24H133.17L130.578 110.648C130.338 111.248 130.05 111.684 129.714 111.956C129.386 112.236 128.958 112.376 128.43 112.376ZM138.69 101.612H141.918C142.822 101.612 143.534 101.84 144.054 102.296C144.582 102.744 144.846 103.384 144.846 104.216C144.846 105.064 144.586 105.708 144.066 106.148C143.546 106.58 142.83 106.796 141.918 106.796H139.914V110H138.69V101.612ZM141.786 105.776C142.346 105.776 142.79 105.66 143.118 105.428C143.446 105.196 143.61 104.792 143.61 104.216C143.61 103.64 143.446 103.236 143.118 103.004C142.79 102.764 142.346 102.644 141.786 102.644H139.914V105.776H141.786ZM145.921 104.24H147.097V105.272C147.337 104.92 147.673 104.66 148.105 104.492C148.545 104.324 149.053 104.24 149.629 104.24V105.188C149.013 105.188 148.485 105.288 148.045 105.488C147.605 105.688 147.301 106.004 147.133 106.436V110H145.921V104.24ZM153.574 110.18C152.926 110.18 152.354 110.06 151.858 109.82C151.37 109.572 150.986 109.22 150.706 108.764C150.434 108.3 150.298 107.756 150.298 107.132C150.298 106.516 150.434 105.976 150.706 105.512C150.978 105.048 151.362 104.692 151.858 104.444C152.354 104.188 152.926 104.06 153.574 104.06C154.222 104.06 154.794 104.188 155.29 104.444C155.786 104.692 156.17 105.048 156.442 105.512C156.722 105.976 156.862 106.516 156.862 107.132C156.862 107.756 156.722 108.3 156.442 108.764C156.17 109.22 155.786 109.572 155.29 109.82C154.794 110.06 154.222 110.18 153.574 110.18ZM153.574 109.22C154.198 109.22 154.694 109.028 155.062 108.644C155.43 108.26 155.614 107.756 155.614 107.132C155.614 106.484 155.43 105.972 155.062 105.596C154.694 105.22 154.198 105.032 153.574 105.032C152.95 105.032 152.454 105.22 152.086 105.596C151.718 105.972 151.534 106.484 151.534 107.132C151.534 107.756 151.718 108.26 152.086 108.644C152.454 109.028 152.95 109.22 153.574 109.22ZM160.787 110.18C160.211 110.18 159.691 110.056 159.227 109.808C158.771 109.552 158.411 109.196 158.147 108.74C157.891 108.276 157.763 107.74 157.763 107.132C157.763 106.532 157.891 106 158.147 105.536C158.411 105.072 158.771 104.712 159.227 104.456C159.691 104.192 160.211 104.06 160.787 104.06C161.827 104.06 162.615 104.376 163.151 105.008V101.132H164.363V110H163.187V109.16C162.867 109.512 162.515 109.772 162.131 109.94C161.755 110.1 161.307 110.18 160.787 110.18ZM161.063 109.22C161.559 109.22 161.991 109.092 162.359 108.836C162.735 108.572 162.999 108.22 163.151 107.78V106.484C163.015 106.044 162.755 105.692 162.371 105.428C161.995 105.164 161.559 105.032 161.063 105.032C160.671 105.032 160.315 105.12 159.995 105.296C159.683 105.472 159.435 105.72 159.251 106.04C159.075 106.36 158.987 106.724 158.987 107.132C158.987 107.54 159.075 107.904 159.251 108.224C159.435 108.544 159.683 108.792 159.995 108.968C160.315 109.136 160.671 109.22 161.063 109.22ZM168.217 110.18C167.441 110.18 166.853 109.972 166.453 109.556C166.061 109.14 165.865 108.584 165.865 107.888V104.24H167.077V107.84C167.077 108.76 167.537 109.22 168.457 109.22C169.265 109.22 169.897 108.856 170.353 108.128V104.24H171.565V110H170.389V109.184C170.117 109.528 169.793 109.78 169.417 109.94C169.049 110.1 168.649 110.18 168.217 110.18ZM176.156 110.18C175.516 110.18 174.948 110.06 174.452 109.82C173.956 109.58 173.568 109.232 173.288 108.776C173.016 108.312 172.88 107.764 172.88 107.132C172.88 106.5 173.016 105.956 173.288 105.5C173.568 105.036 173.956 104.68 174.452 104.432C174.956 104.184 175.532 104.06 176.18 104.06C177.06 104.06 177.764 104.232 178.292 104.576V105.572C177.772 105.212 177.108 105.032 176.3 105.032C175.644 105.032 175.112 105.212 174.704 105.572C174.304 105.924 174.104 106.444 174.104 107.132C174.104 107.82 174.304 108.34 174.704 108.692C175.104 109.044 175.628 109.22 176.276 109.22C177.084 109.22 177.78 109.028 178.364 108.644V109.628C178.084 109.82 177.764 109.96 177.404 110.048C177.052 110.136 176.636 110.18 176.156 110.18ZM181.902 110.18C181.318 110.18 180.866 110.012 180.546 109.676C180.234 109.34 180.078 108.864 180.078 108.248V105.176H179.202V104.24H180.078V102.512H181.302V104.24H182.718V105.176H181.302V108.164C181.302 108.548 181.374 108.82 181.518 108.98C181.67 109.14 181.942 109.22 182.334 109.22C182.566 109.22 182.798 109.168 183.03 109.064V110.024C182.726 110.128 182.35 110.18 181.902 110.18ZM188.372 101.612H189.644L191.516 107.984L193.364 101.612H194.324L196.16 107.984L198.032 101.612H199.304L196.856 110H195.692L193.832 103.664L191.984 110H190.82L188.372 101.612ZM202.889 110.18C201.825 110.18 200.989 109.916 200.381 109.388C199.781 108.852 199.481 108.1 199.481 107.132C199.481 106.188 199.749 105.44 200.285 104.888C200.829 104.336 201.601 104.06 202.601 104.06C203.265 104.06 203.829 104.188 204.293 104.444C204.757 104.692 205.105 105.04 205.337 105.488C205.577 105.928 205.697 106.432 205.697 107V107.6H200.633C200.673 108.144 200.901 108.552 201.317 108.824C201.741 109.088 202.313 109.22 203.033 109.22C203.401 109.22 203.773 109.188 204.149 109.124C204.525 109.052 204.857 108.96 205.145 108.848V109.82C204.889 109.924 204.549 110.008 204.125 110.072C203.709 110.144 203.297 110.18 202.889 110.18ZM204.557 106.748C204.541 106.204 204.361 105.784 204.017 105.488C203.681 105.184 203.201 105.032 202.577 105.032C201.969 105.032 201.497 105.188 201.161 105.5C200.825 105.812 200.649 106.228 200.633 106.748H204.557ZM16.78 120.612H18.004L20.992 127.152L23.98 120.612H25.204V129H24.016V123.036L21.292 129H20.692L17.956 123.036V129H16.78V120.612ZM28.8284 129.18C28.1324 129.18 27.5724 129.004 27.1484 128.652C26.7324 128.292 26.5244 127.808 26.5244 127.2C26.5244 126.56 26.7244 126.068 27.1244 125.724C27.5324 125.372 28.1084 125.196 28.8524 125.196C29.6444 125.196 30.3164 125.356 30.8684 125.676V125.376C30.8684 124.92 30.7284 124.584 30.4484 124.368C30.1764 124.144 29.7444 124.032 29.1524 124.032C28.8004 124.032 28.4564 124.068 28.1204 124.14C27.7924 124.204 27.4964 124.296 27.2324 124.416V123.432C27.4724 123.32 27.7844 123.232 28.1684 123.168C28.5524 123.096 28.9244 123.06 29.2844 123.06C30.2364 123.06 30.9404 123.272 31.3964 123.696C31.8604 124.112 32.0924 124.692 32.0924 125.436V129H30.9524V128.352C30.7044 128.624 30.4084 128.832 30.0644 128.976C29.7284 129.112 29.3164 129.18 28.8284 129.18ZM29.1284 128.256C29.5124 128.256 29.8604 128.18 30.1724 128.028C30.4844 127.876 30.7164 127.664 30.8684 127.392V126.612C30.3484 126.276 29.7684 126.108 29.1284 126.108C28.6644 126.108 28.3164 126.2 28.0844 126.384C27.8604 126.56 27.7484 126.832 27.7484 127.2C27.7484 127.904 28.2084 128.256 29.1284 128.256ZM33.5964 120.132H34.8084V129H33.5964V120.132ZM34.8204 126.084L37.4724 123.24H38.9484L36.2844 126.084L39.2244 129H37.7484L34.8204 126.084ZM43.5964 129.18C42.5324 129.18 41.6964 128.916 41.0884 128.388C40.4884 127.852 40.1884 127.1 40.1884 126.132C40.1884 125.188 40.4564 124.44 40.9924 123.888C41.5364 123.336 42.3084 123.06 43.3084 123.06C43.9724 123.06 44.5364 123.188 45.0004 123.444C45.4644 123.692 45.8124 124.04 46.0444 124.488C46.2844 124.928 46.4044 125.432 46.4044 126V126.6H41.3404C41.3804 127.144 41.6084 127.552 42.0244 127.824C42.4484 128.088 43.0204 128.22 43.7404 128.22C44.1084 128.22 44.4804 128.188 44.8564 128.124C45.2324 128.052 45.5644 127.96 45.8524 127.848V128.82C45.5964 128.924 45.2564 129.008 44.8324 129.072C44.4164 129.144 44.0044 129.18 43.5964 129.18ZM45.2644 125.748C45.2484 125.204 45.0684 124.784 44.7244 124.488C44.3884 124.184 43.9084 124.032 43.2844 124.032C42.6764 124.032 42.2044 124.188 41.8684 124.5C41.5324 124.812 41.3564 125.228 41.3404 125.748H45.2644ZM48.0532 129C47.8932 129 47.7572 128.948 47.6452 128.844C47.5412 128.732 47.4892 128.596 47.4892 128.436C47.4892 128.276 47.5412 128.14 47.6452 128.028C47.7572 127.916 47.8932 127.86 48.0532 127.86C48.2132 127.86 48.3492 127.916 48.4612 128.028C48.5732 128.14 48.6292 128.276 48.6292 128.436C48.6292 128.596 48.5732 128.732 48.4612 128.844C48.3492 128.948 48.2132 129 48.0532 129Z" fill="black"/>
<line x1="20" y1="29.5" x2="58" y2="29.5" stroke="black"/>
</svg>
