<svg width="190" height="28" viewBox="0 0 190 28" fill="none" xmlns="http://www.w3.org/2000/svg">
<rect width="190" height="28" fill="url(#paint0_linear_326_63)"/>
<rect width="190" height="28" fill="black" fill-opacity="0.2"/>
<path d="M17.3076 13.1689V14.8438C17.3076 15.6094 17.2301 16.2633 17.0752 16.8057C16.9202 17.348 16.6969 17.7923 16.4053 18.1387C16.1136 18.4805 15.765 18.7334 15.3594 18.8975C14.9538 19.057 14.5026 19.1367 14.0059 19.1367C13.6094 19.1367 13.2402 19.0866 12.8984 18.9863C12.5566 18.8815 12.249 18.722 11.9756 18.5078C11.7067 18.2891 11.4743 18.0111 11.2783 17.6738C11.0869 17.3366 10.9388 16.9333 10.834 16.4639C10.7337 15.9945 10.6836 15.4544 10.6836 14.8438V13.1689C10.6836 12.4033 10.7611 11.7516 10.916 11.2139C11.0755 10.6761 11.3011 10.2363 11.5928 9.89453C11.8844 9.55273 12.2331 9.30436 12.6387 9.14941C13.0443 8.98991 13.4954 8.91016 13.9922 8.91016C14.3932 8.91016 14.7624 8.96029 15.0996 9.06055C15.4414 9.16081 15.7467 9.31803 16.0156 9.53223C16.2891 9.74186 16.5215 10.0153 16.7129 10.3525C16.9043 10.6852 17.0501 11.0863 17.1504 11.5557C17.2552 12.0205 17.3076 12.5583 17.3076 13.1689ZM15.5029 15.0898V12.916C15.5029 12.5332 15.4801 12.2005 15.4346 11.918C15.3936 11.6309 15.332 11.387 15.25 11.1865C15.168 10.986 15.0654 10.8242 14.9424 10.7012C14.8193 10.5736 14.6781 10.4801 14.5186 10.4209C14.359 10.3617 14.1836 10.332 13.9922 10.332C13.7552 10.332 13.5433 10.3799 13.3564 10.4756C13.1696 10.5667 13.0124 10.7126 12.8848 10.9131C12.7572 11.1136 12.6592 11.3802 12.5908 11.7129C12.527 12.041 12.4951 12.4421 12.4951 12.916V15.0898C12.4951 15.4727 12.5156 15.8076 12.5566 16.0947C12.6022 16.3818 12.666 16.6279 12.748 16.833C12.8346 17.0381 12.9372 17.2067 13.0557 17.3389C13.1787 17.4665 13.32 17.5622 13.4795 17.626C13.639 17.6852 13.8145 17.7148 14.0059 17.7148C14.2474 17.7148 14.4593 17.667 14.6416 17.5713C14.8285 17.4756 14.9857 17.3252 15.1133 17.1201C15.2409 16.9105 15.3366 16.6393 15.4004 16.3066C15.4688 15.9694 15.5029 15.5638 15.5029 15.0898ZM21.2514 13.2236H22.27C22.63 13.2236 22.9262 13.1621 23.1586 13.0391C23.3956 12.9115 23.5711 12.7383 23.685 12.5195C23.8035 12.2962 23.8627 12.0387 23.8627 11.7471C23.8627 11.46 23.8103 11.2116 23.7055 11.002C23.6007 10.7878 23.4412 10.6237 23.227 10.5098C23.0174 10.3913 22.7485 10.332 22.4204 10.332C22.156 10.332 21.9122 10.3844 21.6889 10.4893C21.4702 10.5941 21.2947 10.7445 21.1625 10.9404C21.0349 11.1318 20.9711 11.362 20.9711 11.6309H19.1596C19.1596 11.0931 19.3009 10.6214 19.5834 10.2158C19.8705 9.80566 20.2579 9.48438 20.7455 9.25195C21.2332 9.01953 21.7778 8.90332 22.3793 8.90332C23.0356 8.90332 23.6098 9.0127 24.102 9.23145C24.5987 9.44564 24.9838 9.76237 25.2573 10.1816C25.5353 10.6009 25.6743 11.1204 25.6743 11.7402C25.6743 12.0365 25.6036 12.3327 25.4623 12.6289C25.3256 12.9206 25.1228 13.1849 24.8539 13.4219C24.5896 13.6543 24.2638 13.8434 23.8764 13.9893C23.4936 14.1305 23.0538 14.2012 22.5571 14.2012H21.2514V13.2236ZM21.2514 14.6182V13.6543H22.5571C23.1176 13.6543 23.603 13.7204 24.0131 13.8525C24.4278 13.9801 24.7696 14.1624 25.0385 14.3994C25.3074 14.6318 25.5056 14.903 25.6332 15.2129C25.7654 15.5228 25.8315 15.8555 25.8315 16.2109C25.8315 16.6758 25.7449 17.0905 25.5717 17.4551C25.3985 17.8151 25.1547 18.1204 24.8403 18.3711C24.5304 18.6217 24.1658 18.8132 23.7465 18.9453C23.3273 19.0729 22.8738 19.1367 22.3862 19.1367C21.9623 19.1367 21.5499 19.0798 21.1489 18.9658C20.7524 18.8473 20.3946 18.6719 20.0756 18.4395C19.7566 18.2025 19.5037 17.9062 19.3168 17.5508C19.13 17.1908 19.0366 16.7738 19.0366 16.2998H20.8481C20.8481 16.5732 20.9142 16.8171 21.0463 17.0312C21.183 17.2454 21.3699 17.4141 21.6069 17.5371C21.8484 17.6556 22.1196 17.7148 22.4204 17.7148C22.753 17.7148 23.0379 17.6556 23.2748 17.5371C23.5164 17.4141 23.701 17.2409 23.8286 17.0176C23.9562 16.7897 24.02 16.5186 24.02 16.2041C24.02 15.8304 23.9493 15.5273 23.808 15.2949C23.6668 15.0625 23.464 14.8916 23.1996 14.7822C22.9399 14.6729 22.63 14.6182 22.27 14.6182H21.2514ZM28.0048 18.1182C28.0048 17.8447 28.0982 17.6146 28.285 17.4277C28.4719 17.2409 28.7248 17.1475 29.0438 17.1475C29.3628 17.1475 29.6158 17.2409 29.8026 17.4277C29.9895 17.6146 30.0829 17.8447 30.0829 18.1182C30.0829 18.387 29.9895 18.6149 29.8026 18.8018C29.6158 18.984 29.3628 19.0752 29.0438 19.0752C28.7248 19.0752 28.4719 18.984 28.285 18.8018C28.0982 18.6149 28.0048 18.387 28.0048 18.1182ZM36.4329 15.3701H33.8695V13.8936H36.4329C36.8522 13.8936 37.1917 13.8252 37.4515 13.6885C37.7158 13.5472 37.9095 13.3558 38.0325 13.1143C38.1556 12.8682 38.2171 12.5879 38.2171 12.2734C38.2171 11.9681 38.1556 11.6833 38.0325 11.4189C37.9095 11.1546 37.7158 10.9404 37.4515 10.7764C37.1917 10.6123 36.8522 10.5303 36.4329 10.5303H34.4847V19H32.6048V9.04688H36.4329C37.2077 9.04688 37.8685 9.18587 38.4154 9.46387C38.9668 9.7373 39.3861 10.1178 39.6732 10.6055C39.9648 11.0885 40.1107 11.64 40.1107 12.2598C40.1107 12.9023 39.9648 13.4561 39.6732 13.9209C39.3861 14.3857 38.9668 14.7435 38.4154 14.9941C37.8685 15.2448 37.2077 15.3701 36.4329 15.3701ZM45.9754 15.3701H43.4119V13.8936H45.9754C46.3946 13.8936 46.7341 13.8252 46.9939 13.6885C47.2582 13.5472 47.4519 13.3558 47.575 13.1143C47.698 12.8682 47.7595 12.5879 47.7595 12.2734C47.7595 11.9681 47.698 11.6833 47.575 11.4189C47.4519 11.1546 47.2582 10.9404 46.9939 10.7764C46.7341 10.6123 46.3946 10.5303 45.9754 10.5303H44.0271V19H42.1472V9.04688H45.9754C46.7501 9.04688 47.4109 9.18587 47.9578 9.46387C48.5092 9.7373 48.9285 10.1178 49.2156 10.6055C49.5073 11.0885 49.6531 11.64 49.6531 12.2598C49.6531 12.9023 49.5073 13.4561 49.2156 13.9209C48.9285 14.3857 48.5092 14.7435 47.9578 14.9941C47.4109 15.2448 46.7501 15.3701 45.9754 15.3701ZM59.5504 14.5635H57.0075L56.9938 13.2373H59.1745C59.5482 13.2373 59.8603 13.1849 60.111 13.0801C60.3616 12.9753 60.5508 12.8226 60.6784 12.6221C60.8105 12.4215 60.8766 12.1777 60.8766 11.8906C60.8766 11.5716 60.8151 11.3118 60.692 11.1113C60.5735 10.9108 60.3867 10.765 60.1315 10.6738C59.8763 10.5781 59.5527 10.5303 59.1608 10.5303H57.6159V19H55.736V9.04688H59.1608C59.7259 9.04688 60.2295 9.10156 60.6715 9.21094C61.1181 9.31576 61.4964 9.47982 61.8063 9.70312C62.1162 9.92643 62.3509 10.2067 62.5104 10.5439C62.6745 10.8812 62.7565 11.2822 62.7565 11.7471C62.7565 12.1572 62.6608 12.5355 62.4694 12.8818C62.2825 13.2236 61.9931 13.5016 61.6012 13.7158C61.2138 13.93 60.7217 14.0531 60.1246 14.085L59.5504 14.5635ZM59.4684 19H56.4538L57.2399 17.5234H59.4684C59.8421 17.5234 60.1497 17.4619 60.3913 17.3389C60.6373 17.2158 60.8196 17.0472 60.9381 16.833C61.0612 16.6143 61.1227 16.3636 61.1227 16.0811C61.1227 15.7712 61.068 15.5023 60.9586 15.2744C60.8538 15.0465 60.6852 14.8711 60.4528 14.748C60.2249 14.625 59.9241 14.5635 59.5504 14.5635H57.5954L57.609 13.2373H60.0973L60.528 13.75C61.1022 13.7546 61.5693 13.8685 61.9293 14.0918C62.2939 14.3151 62.5628 14.6022 62.736 14.9531C62.9092 15.304 62.9957 15.6823 62.9957 16.0879C62.9957 16.7259 62.8567 17.2614 62.5788 17.6943C62.3053 18.1273 61.9043 18.4531 61.3756 18.6719C60.8515 18.8906 60.2158 19 59.4684 19ZM64.7247 15.377V15.2334C64.7247 14.6911 64.8022 14.1921 64.9571 13.7363C65.1121 13.276 65.3376 12.8773 65.6339 12.54C65.9301 12.2028 66.2924 11.9408 66.7208 11.7539C67.1492 11.5625 67.6368 11.4668 68.1837 11.4668C68.7397 11.4668 69.2318 11.5625 69.6602 11.7539C70.0932 11.9408 70.4578 12.2028 70.754 12.54C71.0502 12.8773 71.2758 13.276 71.4307 13.7363C71.5857 14.1921 71.6632 14.6911 71.6632 15.2334V15.377C71.6632 15.9147 71.5857 16.4137 71.4307 16.874C71.2758 17.3298 71.0502 17.7285 70.754 18.0703C70.4578 18.4076 70.0955 18.6696 69.6671 18.8564C69.2387 19.0433 68.7488 19.1367 68.1973 19.1367C67.6505 19.1367 67.1606 19.0433 66.7276 18.8564C66.2947 18.6696 65.9301 18.4076 65.6339 18.0703C65.3376 17.7285 65.1121 17.3298 64.9571 16.874C64.8022 16.4137 64.7247 15.9147 64.7247 15.377ZM66.5294 15.2334V15.377C66.5294 15.7005 66.5613 16.0036 66.6251 16.2861C66.6889 16.5687 66.7869 16.8171 66.919 17.0312C67.0512 17.2454 67.2221 17.4141 67.4317 17.5371C67.6459 17.6556 67.9011 17.7148 68.1973 17.7148C68.489 17.7148 68.7397 17.6556 68.9493 17.5371C69.1589 17.4141 69.3298 17.2454 69.462 17.0312C69.5987 16.8171 69.699 16.5687 69.7628 16.2861C69.8266 16.0036 69.8585 15.7005 69.8585 15.377V15.2334C69.8585 14.9144 69.8266 14.6159 69.7628 14.3379C69.699 14.0553 69.5987 13.807 69.462 13.5928C69.3298 13.374 69.1567 13.2031 68.9425 13.0801C68.7328 12.9525 68.4799 12.8887 68.1837 12.8887C67.892 12.8887 67.6414 12.9525 67.4317 13.0801C67.2221 13.2031 67.0512 13.374 66.919 13.5928C66.7869 13.807 66.6889 14.0553 66.6251 14.3379C66.5613 14.6159 66.5294 14.9144 66.5294 15.2334ZM74.8003 11.6035L76.1196 13.9551L77.4595 11.6035H79.4214L77.2476 15.2266L79.5103 19H77.5484L76.1333 16.5322L74.7114 19H72.7495L75.0054 15.2266L72.8452 11.6035H74.8003ZM90.4193 16.416C90.4193 16.2246 90.3897 16.0537 90.3305 15.9033C90.2758 15.7484 90.1732 15.6094 90.0229 15.4863C89.877 15.3587 89.6697 15.2357 89.4008 15.1172C89.1365 14.9941 88.7947 14.8665 88.3754 14.7344C87.9105 14.5885 87.4776 14.4245 87.0766 14.2422C86.6755 14.0599 86.3223 13.848 86.017 13.6064C85.7162 13.3649 85.4815 13.0869 85.3129 12.7725C85.1443 12.4535 85.06 12.0843 85.06 11.665C85.06 11.2549 85.1465 10.8812 85.3197 10.5439C85.4975 10.2067 85.7481 9.91732 86.0717 9.67578C86.3952 9.42969 86.7758 9.24056 87.2133 9.1084C87.6553 8.97624 88.143 8.91016 88.6762 8.91016C89.4145 8.91016 90.0525 9.0446 90.5902 9.31348C91.1326 9.58236 91.5518 9.94694 91.848 10.4072C92.1443 10.8675 92.2924 11.3848 92.2924 11.959H90.4193C90.4193 11.6491 90.3533 11.3757 90.2211 11.1387C90.0935 10.9017 89.8975 10.7148 89.6332 10.5781C89.3734 10.4414 89.0453 10.373 88.6488 10.373C88.266 10.373 87.947 10.43 87.6918 10.5439C87.4411 10.6579 87.252 10.8128 87.1244 11.0088C87.0014 11.2048 86.9398 11.4235 86.9398 11.665C86.9398 11.8473 86.9831 12.0114 87.0697 12.1572C87.1563 12.2985 87.2862 12.4329 87.4594 12.5605C87.6326 12.6836 87.8467 12.7998 88.102 12.9092C88.3617 13.014 88.6625 13.1188 89.0043 13.2236C89.5512 13.3877 90.0297 13.57 90.4398 13.7705C90.8546 13.971 91.1986 14.1989 91.4721 14.4541C91.7501 14.7093 91.9574 14.9964 92.0941 15.3154C92.2354 15.6344 92.3061 15.9967 92.3061 16.4023C92.3061 16.8307 92.2217 17.2135 92.0531 17.5508C91.8845 17.888 91.643 18.1751 91.3285 18.4121C91.0141 18.6491 90.6358 18.8291 90.1937 18.9521C89.7562 19.0752 89.2663 19.1367 88.724 19.1367C88.2409 19.1367 87.7624 19.0729 87.2885 18.9453C86.8191 18.8132 86.393 18.6172 86.0102 18.3574C85.6273 18.0931 85.322 17.7604 85.0941 17.3594C84.8663 16.9538 84.7523 16.4798 84.7523 15.9375H86.6391C86.6391 16.252 86.6892 16.5208 86.7895 16.7441C86.8943 16.9629 87.0401 17.1429 87.227 17.2842C87.4184 17.4209 87.6417 17.5212 87.8969 17.585C88.1521 17.6488 88.4278 17.6807 88.724 17.6807C89.1068 17.6807 89.4213 17.6283 89.6674 17.5234C89.918 17.4141 90.1049 17.2637 90.2279 17.0723C90.3555 16.8809 90.4193 16.6621 90.4193 16.416ZM97.6786 11.6035V12.9023H93.4403V11.6035H97.6786ZM94.575 9.78516H96.3866V16.8672C96.3866 17.0859 96.4162 17.2546 96.4754 17.373C96.5347 17.4915 96.6235 17.5713 96.742 17.6123C96.8605 17.6533 97.0018 17.6738 97.1659 17.6738C97.2844 17.6738 97.3937 17.667 97.494 17.6533C97.5942 17.6396 97.6786 17.626 97.7469 17.6123L97.7538 18.9658C97.6034 19.016 97.4325 19.057 97.2411 19.0889C97.0542 19.1208 96.8423 19.1367 96.6053 19.1367C96.1997 19.1367 95.8442 19.0684 95.5389 18.9316C95.2336 18.7904 94.9966 18.5648 94.828 18.2549C94.6594 17.9404 94.575 17.5257 94.575 17.0107V9.78516ZM101.246 13.1143V19H99.4417V11.6035H101.151L101.246 13.1143ZM103.495 11.5557L103.468 13.2373C103.368 13.2191 103.254 13.2054 103.126 13.1963C103.003 13.1872 102.887 13.1826 102.778 13.1826C102.5 13.1826 102.256 13.2214 102.046 13.2988C101.837 13.3717 101.661 13.4788 101.52 13.6201C101.383 13.7614 101.278 13.9346 101.205 14.1396C101.132 14.3402 101.091 14.568 101.082 14.8232L100.693 14.7754C100.693 14.306 100.741 13.8708 100.836 13.4697C100.932 13.0687 101.071 12.7178 101.253 12.417C101.435 12.1162 101.663 11.8838 101.937 11.7197C102.215 11.5511 102.534 11.4668 102.894 11.4668C102.994 11.4668 103.101 11.4759 103.215 11.4941C103.334 11.5078 103.427 11.5283 103.495 11.5557ZM108.888 17.4277V14.0166C108.888 13.766 108.845 13.5495 108.759 13.3672C108.672 13.1849 108.54 13.0436 108.362 12.9434C108.184 12.8431 107.959 12.793 107.685 12.793C107.444 12.793 107.232 12.834 107.05 12.916C106.872 12.998 106.735 13.1143 106.639 13.2646C106.544 13.4105 106.496 13.5791 106.496 13.7705H104.684C104.684 13.4652 104.757 13.1758 104.903 12.9023C105.049 12.6243 105.256 12.3783 105.525 12.1641C105.799 11.9453 106.124 11.7744 106.503 11.6514C106.885 11.5283 107.314 11.4668 107.788 11.4668C108.348 11.4668 108.847 11.5625 109.285 11.7539C109.727 11.9408 110.073 12.2233 110.324 12.6016C110.579 12.9798 110.707 13.4561 110.707 14.0303V17.2568C110.707 17.626 110.73 17.9427 110.775 18.207C110.825 18.4668 110.898 18.6924 110.994 18.8838V19H109.155C109.068 18.8132 109.002 18.5762 108.957 18.2891C108.911 17.9974 108.888 17.7103 108.888 17.4277ZM109.141 14.4951L109.155 15.5684H108.013C107.731 15.5684 107.482 15.598 107.268 15.6572C107.054 15.7119 106.879 15.7939 106.742 15.9033C106.605 16.0081 106.503 16.1357 106.434 16.2861C106.366 16.432 106.332 16.5983 106.332 16.7852C106.332 16.9674 106.373 17.1315 106.455 17.2773C106.541 17.4232 106.664 17.5394 106.824 17.626C106.988 17.708 107.179 17.749 107.398 17.749C107.717 17.749 107.995 17.6852 108.232 17.5576C108.469 17.4255 108.654 17.266 108.786 17.0791C108.918 16.8923 108.989 16.7145 108.998 16.5459L109.517 17.3252C109.454 17.512 109.358 17.7103 109.23 17.9199C109.103 18.1296 108.939 18.3255 108.738 18.5078C108.537 18.6901 108.296 18.8405 108.013 18.959C107.731 19.0775 107.403 19.1367 107.029 19.1367C106.551 19.1367 106.122 19.041 105.744 18.8496C105.366 18.6582 105.067 18.3962 104.848 18.0635C104.63 17.7308 104.52 17.3525 104.52 16.9287C104.52 16.5368 104.593 16.1904 104.739 15.8896C104.885 15.5889 105.101 15.3359 105.388 15.1309C105.676 14.9212 106.031 14.764 106.455 14.6592C106.883 14.5498 107.373 14.4951 107.925 14.4951H109.141ZM114.698 13.0254V21.8438H112.887V11.6035H114.562L114.698 13.0254ZM119.449 15.2266V15.3701C119.449 15.9079 119.386 16.4069 119.258 16.8672C119.135 17.3229 118.953 17.7217 118.711 18.0635C118.47 18.4007 118.169 18.665 117.809 18.8564C117.453 19.0433 117.043 19.1367 116.578 19.1367C116.123 19.1367 115.726 19.0501 115.389 18.877C115.052 18.6992 114.767 18.4486 114.534 18.125C114.302 17.8014 114.115 17.4255 113.974 16.9971C113.837 16.5641 113.735 16.0924 113.666 15.582V15.124C113.735 14.5817 113.837 14.0895 113.974 13.6475C114.115 13.2008 114.302 12.8158 114.534 12.4922C114.767 12.1641 115.049 11.9111 115.382 11.7334C115.719 11.5557 116.113 11.4668 116.565 11.4668C117.034 11.4668 117.446 11.5557 117.802 11.7334C118.162 11.9111 118.465 12.1663 118.711 12.499C118.957 12.8317 119.142 13.2282 119.265 13.6885C119.388 14.1488 119.449 14.6615 119.449 15.2266ZM117.638 15.3701V15.2266C117.638 14.8984 117.608 14.5954 117.549 14.3174C117.49 14.0348 117.399 13.7887 117.276 13.5791C117.152 13.3649 116.993 13.1986 116.797 13.0801C116.601 12.9616 116.364 12.9023 116.086 12.9023C115.808 12.9023 115.569 12.9479 115.368 13.0391C115.168 13.1302 115.004 13.2601 114.876 13.4287C114.749 13.5973 114.648 13.7979 114.575 14.0303C114.507 14.2581 114.461 14.5111 114.439 14.7891V15.9238C114.48 16.2611 114.559 16.5641 114.678 16.833C114.796 17.1019 114.97 17.3161 115.197 17.4756C115.43 17.6351 115.731 17.7148 116.1 17.7148C116.378 17.7148 116.615 17.6533 116.811 17.5303C117.007 17.4072 117.166 17.2386 117.289 17.0244C117.412 16.8057 117.501 16.555 117.556 16.2725C117.611 15.9899 117.638 15.6891 117.638 15.3701ZM123.133 13.0254V21.8438H121.322V11.6035H122.997L123.133 13.0254ZM127.884 15.2266V15.3701C127.884 15.9079 127.821 16.4069 127.693 16.8672C127.57 17.3229 127.388 17.7217 127.146 18.0635C126.905 18.4007 126.604 18.665 126.244 18.8564C125.888 19.0433 125.478 19.1367 125.013 19.1367C124.558 19.1367 124.161 19.0501 123.824 18.877C123.487 18.6992 123.202 18.4486 122.969 18.125C122.737 17.8014 122.55 17.4255 122.409 16.9971C122.272 16.5641 122.17 16.0924 122.101 15.582V15.124C122.17 14.5817 122.272 14.0895 122.409 13.6475C122.55 13.2008 122.737 12.8158 122.969 12.4922C123.202 12.1641 123.484 11.9111 123.817 11.7334C124.154 11.5557 124.548 11.4668 125 11.4668C125.469 11.4668 125.881 11.5557 126.237 11.7334C126.597 11.9111 126.9 12.1663 127.146 12.499C127.392 12.8317 127.577 13.2282 127.7 13.6885C127.823 14.1488 127.884 14.6615 127.884 15.2266ZM126.073 15.3701V15.2266C126.073 14.8984 126.043 14.5954 125.984 14.3174C125.925 14.0348 125.834 13.7887 125.711 13.5791C125.588 13.3649 125.428 13.1986 125.232 13.0801C125.036 12.9616 124.799 12.9023 124.521 12.9023C124.243 12.9023 124.004 12.9479 123.803 13.0391C123.603 13.1302 123.439 13.2601 123.311 13.4287C123.184 13.5973 123.083 13.7979 123.01 14.0303C122.942 14.2581 122.896 14.5111 122.874 14.7891V15.9238C122.915 16.2611 122.994 16.5641 123.113 16.833C123.231 17.1019 123.405 17.3161 123.632 17.4756C123.865 17.6351 124.166 17.7148 124.535 17.7148C124.813 17.7148 125.05 17.6533 125.246 17.5303C125.442 17.4072 125.601 17.2386 125.724 17.0244C125.847 16.8057 125.936 16.555 125.991 16.2725C126.046 15.9899 126.073 15.6891 126.073 15.3701ZM131.678 11.6035V19H129.866V11.6035H131.678ZM129.743 9.66895C129.743 9.40007 129.834 9.17676 130.017 8.99902C130.203 8.82129 130.454 8.73242 130.769 8.73242C131.083 8.73242 131.331 8.82129 131.514 8.99902C131.701 9.17676 131.794 9.40007 131.794 9.66895C131.794 9.93327 131.701 10.1543 131.514 10.332C131.331 10.5098 131.083 10.5986 130.769 10.5986C130.454 10.5986 130.203 10.5098 130.017 10.332C129.834 10.1543 129.743 9.93327 129.743 9.66895ZM135.731 13.1826V19H133.926V11.6035H135.622L135.731 13.1826ZM135.444 15.0352H134.911C134.915 14.4974 134.988 14.0098 135.129 13.5723C135.271 13.1348 135.469 12.7588 135.724 12.4443C135.984 12.1299 136.291 11.8883 136.647 11.7197C137.002 11.5511 137.399 11.4668 137.836 11.4668C138.192 11.4668 138.513 11.5169 138.8 11.6172C139.087 11.7174 139.333 11.877 139.539 12.0957C139.748 12.3145 139.908 12.6016 140.017 12.957C140.131 13.3079 140.188 13.7409 140.188 14.2559V19H138.37V14.2422C138.37 13.9049 138.319 13.6383 138.219 13.4424C138.124 13.2464 137.982 13.1074 137.795 13.0254C137.613 12.9434 137.388 12.9023 137.119 12.9023C136.841 12.9023 136.597 12.9593 136.387 13.0732C136.182 13.1826 136.009 13.3353 135.868 13.5312C135.731 13.7272 135.626 13.9528 135.553 14.208C135.48 14.4632 135.444 14.7389 135.444 15.0352ZM147.044 11.6035H148.684V18.7744C148.684 19.4443 148.539 20.0117 148.247 20.4766C147.96 20.946 147.557 21.3014 147.037 21.543C146.518 21.7891 145.914 21.9121 145.226 21.9121C144.929 21.9121 144.608 21.8711 144.262 21.7891C143.92 21.707 143.589 21.5771 143.27 21.3994C142.956 21.2262 142.694 21.0007 142.484 20.7227L143.298 19.6562C143.544 19.9434 143.822 20.1598 144.132 20.3057C144.442 20.4561 144.777 20.5312 145.137 20.5312C145.501 20.5312 145.811 20.4629 146.066 20.3262C146.326 20.194 146.524 19.998 146.661 19.7383C146.802 19.4831 146.873 19.1686 146.873 18.7949V13.292L147.044 11.6035ZM142.047 15.3906V15.2471C142.047 14.682 142.115 14.1693 142.252 13.709C142.389 13.2441 142.585 12.8454 142.84 12.5127C143.1 12.18 143.412 11.9225 143.776 11.7402C144.145 11.5579 144.56 11.4668 145.02 11.4668C145.508 11.4668 145.918 11.5557 146.251 11.7334C146.588 11.9111 146.866 12.1641 147.085 12.4922C147.308 12.8203 147.481 13.21 147.604 13.6611C147.732 14.1077 147.83 14.5999 147.898 15.1377V15.5273C147.835 16.0514 147.732 16.5322 147.591 16.9697C147.454 17.4072 147.272 17.79 147.044 18.1182C146.816 18.4417 146.533 18.6924 146.196 18.8701C145.859 19.0479 145.462 19.1367 145.007 19.1367C144.551 19.1367 144.141 19.0433 143.776 18.8564C143.412 18.6696 143.1 18.4076 142.84 18.0703C142.585 17.7331 142.389 17.3366 142.252 16.8809C142.115 16.4251 142.047 15.9284 142.047 15.3906ZM143.851 15.2471V15.3906C143.851 15.7096 143.883 16.0081 143.947 16.2861C144.011 16.5641 144.109 16.8102 144.241 17.0244C144.373 17.234 144.54 17.3981 144.74 17.5166C144.941 17.6351 145.18 17.6943 145.458 17.6943C145.832 17.6943 146.137 17.6169 146.374 17.4619C146.615 17.3024 146.798 17.0859 146.921 16.8125C147.048 16.5345 147.13 16.2223 147.167 15.876V14.8027C147.144 14.5293 147.094 14.2764 147.017 14.0439C146.944 13.8115 146.841 13.611 146.709 13.4424C146.577 13.2738 146.408 13.1416 146.203 13.0459C145.998 12.9502 145.754 12.9023 145.472 12.9023C145.198 12.9023 144.959 12.9639 144.754 13.0869C144.549 13.2054 144.38 13.3717 144.248 13.5859C144.116 13.8001 144.016 14.0485 143.947 14.3311C143.883 14.6136 143.851 14.9189 143.851 15.2471ZM155.054 9.04688H158.671C159.427 9.04688 160.077 9.16081 160.619 9.38867C161.161 9.61654 161.578 9.95378 161.87 10.4004C162.162 10.847 162.307 11.3962 162.307 12.0479C162.307 12.5628 162.216 13.0094 162.034 13.3877C161.852 13.766 161.594 14.0827 161.262 14.3379C160.933 14.5931 160.546 14.7936 160.099 14.9395L159.512 15.2402H156.319L156.305 13.7568H158.691C159.079 13.7568 159.4 13.6885 159.655 13.5518C159.91 13.415 160.102 13.2259 160.229 12.9844C160.361 12.7428 160.428 12.4671 160.428 12.1572C160.428 11.8245 160.364 11.5374 160.236 11.2959C160.109 11.0498 159.915 10.8607 159.655 10.7285C159.395 10.5964 159.067 10.5303 158.671 10.5303H156.934V19H155.054V9.04688ZM160.674 19L158.37 14.543L160.359 14.5361L162.69 18.9043V19H160.674ZM164.057 15.377V15.2334C164.057 14.6911 164.134 14.1921 164.289 13.7363C164.444 13.276 164.67 12.8773 164.966 12.54C165.262 12.2028 165.625 11.9408 166.053 11.7539C166.481 11.5625 166.969 11.4668 167.516 11.4668C168.072 11.4668 168.564 11.5625 168.992 11.7539C169.425 11.9408 169.79 12.2028 170.086 12.54C170.382 12.8773 170.608 13.276 170.763 13.7363C170.918 14.1921 170.995 14.6911 170.995 15.2334V15.377C170.995 15.9147 170.918 16.4137 170.763 16.874C170.608 17.3298 170.382 17.7285 170.086 18.0703C169.79 18.4076 169.428 18.6696 168.999 18.8564C168.571 19.0433 168.081 19.1367 167.53 19.1367C166.983 19.1367 166.493 19.0433 166.06 18.8564C165.627 18.6696 165.262 18.4076 164.966 18.0703C164.67 17.7285 164.444 17.3298 164.289 16.874C164.134 16.4137 164.057 15.9147 164.057 15.377ZM165.862 15.2334V15.377C165.862 15.7005 165.893 16.0036 165.957 16.2861C166.021 16.5687 166.119 16.8171 166.251 17.0312C166.383 17.2454 166.554 17.4141 166.764 17.5371C166.978 17.6556 167.233 17.7148 167.53 17.7148C167.821 17.7148 168.072 17.6556 168.281 17.5371C168.491 17.4141 168.662 17.2454 168.794 17.0312C168.931 16.8171 169.031 16.5687 169.095 16.2861C169.159 16.0036 169.191 15.7005 169.191 15.377V15.2334C169.191 14.9144 169.159 14.6159 169.095 14.3379C169.031 14.0553 168.931 13.807 168.794 13.5928C168.662 13.374 168.489 13.2031 168.275 13.0801C168.065 12.9525 167.812 12.8887 167.516 12.8887C167.224 12.8887 166.974 12.9525 166.764 13.0801C166.554 13.2031 166.383 13.374 166.251 13.5928C166.119 13.807 166.021 14.0553 165.957 14.3379C165.893 14.6159 165.862 14.9144 165.862 15.2334ZM174.782 8.5V19H172.97V8.5H174.782ZM178.979 8.5V19H177.167V8.5H178.979Z" fill="white"/>
<defs>
<linearGradient id="paint0_linear_326_63" x1="95" y1="0" x2="95" y2="28" gradientUnits="userSpaceOnUse">
<stop stop-color="#37B349"/>
<stop offset="1" stop-color="#0C8E46"/>
</linearGradient>
</defs>
</svg>
