<svg width="124" height="28" viewBox="0 0 124 28" fill="none" xmlns="http://www.w3.org/2000/svg">
<rect width="124" height="28" fill="url(#paint0_linear_326_69)"/>
<rect width="124" height="28" fill="black" fill-opacity="0.2"/>
<path d="M17.3076 13.1689V14.8438C17.3076 15.6094 17.2301 16.2633 17.0752 16.8057C16.9202 17.348 16.6969 17.7923 16.4053 18.1387C16.1136 18.4805 15.765 18.7334 15.3594 18.8975C14.9538 19.057 14.5026 19.1367 14.0059 19.1367C13.6094 19.1367 13.2402 19.0866 12.8984 18.9863C12.5566 18.8815 12.249 18.722 11.9756 18.5078C11.7067 18.2891 11.4743 18.0111 11.2783 17.6738C11.0869 17.3366 10.9388 16.9333 10.834 16.4639C10.7337 15.9945 10.6836 15.4544 10.6836 14.8438V13.1689C10.6836 12.4033 10.7611 11.7516 10.916 11.2139C11.0755 10.6761 11.3011 10.2363 11.5928 9.89453C11.8844 9.55273 12.2331 9.30436 12.6387 9.14941C13.0443 8.98991 13.4954 8.91016 13.9922 8.91016C14.3932 8.91016 14.7624 8.96029 15.0996 9.06055C15.4414 9.16081 15.7467 9.31803 16.0156 9.53223C16.2891 9.74186 16.5215 10.0153 16.7129 10.3525C16.9043 10.6852 17.0501 11.0863 17.1504 11.5557C17.2552 12.0205 17.3076 12.5583 17.3076 13.1689ZM15.5029 15.0898V12.916C15.5029 12.5332 15.4801 12.2005 15.4346 11.918C15.3936 11.6309 15.332 11.387 15.25 11.1865C15.168 10.986 15.0654 10.8242 14.9424 10.7012C14.8193 10.5736 14.6781 10.4801 14.5186 10.4209C14.359 10.3617 14.1836 10.332 13.9922 10.332C13.7552 10.332 13.5433 10.3799 13.3564 10.4756C13.1696 10.5667 13.0124 10.7126 12.8848 10.9131C12.7572 11.1136 12.6592 11.3802 12.5908 11.7129C12.527 12.041 12.4951 12.4421 12.4951 12.916V15.0898C12.4951 15.4727 12.5156 15.8076 12.5566 16.0947C12.6022 16.3818 12.666 16.6279 12.748 16.833C12.8346 17.0381 12.9372 17.2067 13.0557 17.3389C13.1787 17.4665 13.32 17.5622 13.4795 17.626C13.639 17.6852 13.8145 17.7148 14.0059 17.7148C14.2474 17.7148 14.4593 17.667 14.6416 17.5713C14.8285 17.4756 14.9857 17.3252 15.1133 17.1201C15.2409 16.9105 15.3366 16.6393 15.4004 16.3066C15.4688 15.9694 15.5029 15.5638 15.5029 15.0898ZM26.0161 17.5781V19H19.2758V17.7832L22.5092 14.29C22.8465 13.9072 23.1131 13.5745 23.309 13.292C23.505 13.0094 23.644 12.7542 23.726 12.5264C23.8126 12.2939 23.8559 12.0729 23.8559 11.8633C23.8559 11.5579 23.8012 11.2913 23.6918 11.0635C23.5825 10.8311 23.423 10.651 23.2133 10.5234C23.0082 10.3958 22.7553 10.332 22.4545 10.332C22.1218 10.332 21.837 10.4095 21.6 10.5645C21.3676 10.7148 21.1899 10.9245 21.0668 11.1934C20.9483 11.4622 20.8891 11.7699 20.8891 12.1162H19.0776C19.0776 11.5283 19.2143 10.9928 19.4877 10.5098C19.7612 10.0221 20.1531 9.63249 20.6635 9.34082C21.1739 9.04915 21.7801 8.90332 22.4819 8.90332C23.1655 8.90332 23.7442 9.01725 24.2182 9.24512C24.6922 9.46842 25.0522 9.78743 25.2983 10.2021C25.5444 10.6169 25.6674 11.1113 25.6674 11.6855C25.6674 12.0046 25.615 12.319 25.5102 12.6289C25.4054 12.9388 25.2573 13.2464 25.0659 13.5518C24.879 13.8525 24.6557 14.1579 24.3959 14.4678C24.1362 14.7777 23.8468 15.0944 23.5278 15.418L21.5864 17.5781H26.0161ZM28.0048 18.1182C28.0048 17.8447 28.0982 17.6146 28.285 17.4277C28.4719 17.2409 28.7248 17.1475 29.0438 17.1475C29.3628 17.1475 29.6158 17.2409 29.8026 17.4277C29.9895 17.6146 30.0829 17.8447 30.0829 18.1182C30.0829 18.387 29.9895 18.6149 29.8026 18.8018C29.6158 18.984 29.3628 19.0752 29.0438 19.0752C28.7248 19.0752 28.4719 18.984 28.285 18.8018C28.0982 18.6149 28.0048 18.387 28.0048 18.1182ZM37.8138 16.416C37.8138 16.2246 37.7842 16.0537 37.7249 15.9033C37.6702 15.7484 37.5677 15.6094 37.4173 15.4863C37.2715 15.3587 37.0641 15.2357 36.7952 15.1172C36.5309 14.9941 36.1891 14.8665 35.7698 14.7344C35.305 14.5885 34.8721 14.4245 34.471 14.2422C34.07 14.0599 33.7168 13.848 33.4114 13.6064C33.1107 13.3649 32.876 13.0869 32.7073 12.7725C32.5387 12.4535 32.4544 12.0843 32.4544 11.665C32.4544 11.2549 32.541 10.8812 32.7142 10.5439C32.8919 10.2067 33.1426 9.91732 33.4661 9.67578C33.7897 9.42969 34.1702 9.24056 34.6077 9.1084C35.0498 8.97624 35.5374 8.91016 36.0706 8.91016C36.8089 8.91016 37.4469 9.0446 37.9847 9.31348C38.527 9.58236 38.9463 9.94694 39.2425 10.4072C39.5387 10.8675 39.6868 11.3848 39.6868 11.959H37.8138C37.8138 11.6491 37.7477 11.3757 37.6155 11.1387C37.4879 10.9017 37.292 10.7148 37.0277 10.5781C36.7679 10.4414 36.4398 10.373 36.0433 10.373C35.6605 10.373 35.3415 10.43 35.0863 10.5439C34.8356 10.6579 34.6465 10.8128 34.5189 11.0088C34.3958 11.2048 34.3343 11.4235 34.3343 11.665C34.3343 11.8473 34.3776 12.0114 34.4642 12.1572C34.5508 12.2985 34.6807 12.4329 34.8538 12.5605C35.027 12.6836 35.2412 12.7998 35.4964 12.9092C35.7562 13.014 36.057 13.1188 36.3988 13.2236C36.9456 13.3877 37.4241 13.57 37.8343 13.7705C38.249 13.971 38.5931 14.1989 38.8665 14.4541C39.1445 14.7093 39.3519 14.9964 39.4886 15.3154C39.6299 15.6344 39.7005 15.9967 39.7005 16.4023C39.7005 16.8307 39.6162 17.2135 39.4476 17.5508C39.279 17.888 39.0374 18.1751 38.723 18.4121C38.4085 18.6491 38.0303 18.8291 37.5882 18.9521C37.1507 19.0752 36.6608 19.1367 36.1185 19.1367C35.6354 19.1367 35.1569 19.0729 34.6829 18.9453C34.2135 18.8132 33.7874 18.6172 33.4046 18.3574C33.0218 18.0931 32.7165 17.7604 32.4886 17.3594C32.2607 16.9538 32.1468 16.4798 32.1468 15.9375H34.0335C34.0335 16.252 34.0836 16.5208 34.1839 16.7441C34.2887 16.9629 34.4346 17.1429 34.6214 17.2842C34.8128 17.4209 35.0361 17.5212 35.2913 17.585C35.5465 17.6488 35.8223 17.6807 36.1185 17.6807C36.5013 17.6807 36.8157 17.6283 37.0618 17.5234C37.3125 17.4141 37.4993 17.2637 37.6224 17.0723C37.75 16.8809 37.8138 16.6621 37.8138 16.416ZM45.073 11.6035V12.9023H40.8347V11.6035H45.073ZM41.9695 9.78516H43.781V16.8672C43.781 17.0859 43.8106 17.2546 43.8699 17.373C43.9291 17.4915 44.018 17.5713 44.1365 17.6123C44.255 17.6533 44.3962 17.6738 44.5603 17.6738C44.6788 17.6738 44.7882 17.667 44.8884 17.6533C44.9887 17.6396 45.073 17.626 45.1414 17.6123L45.1482 18.9658C44.9978 19.016 44.8269 19.057 44.6355 19.0889C44.4487 19.1208 44.2367 19.1367 43.9998 19.1367C43.5942 19.1367 43.2387 19.0684 42.9334 18.9316C42.628 18.7904 42.391 18.5648 42.2224 18.2549C42.0538 17.9404 41.9695 17.5257 41.9695 17.0107V9.78516ZM48.6408 13.1143V19H46.8361V11.6035H48.5451L48.6408 13.1143ZM50.8898 11.5557L50.8625 13.2373C50.7622 13.2191 50.6483 13.2054 50.5207 13.1963C50.3977 13.1872 50.2814 13.1826 50.1721 13.1826C49.8941 13.1826 49.6503 13.2214 49.4406 13.2988C49.231 13.3717 49.0555 13.4788 48.9143 13.6201C48.7775 13.7614 48.6727 13.9346 48.5998 14.1396C48.5269 14.3402 48.4859 14.568 48.4768 14.8232L48.0871 14.7754C48.0871 14.306 48.135 13.8708 48.2307 13.4697C48.3264 13.0687 48.4654 12.7178 48.6477 12.417C48.8299 12.1162 49.0578 11.8838 49.3312 11.7197C49.6092 11.5511 49.9283 11.4668 50.2883 11.4668C50.3885 11.4668 50.4956 11.4759 50.6096 11.4941C50.7281 11.5078 50.8215 11.5283 50.8898 11.5557ZM55.6266 19.1367C55.0661 19.1367 54.5625 19.0456 54.1159 18.8633C53.6692 18.681 53.2887 18.4281 52.9743 18.1045C52.6644 17.7764 52.4251 17.3958 52.2565 16.9629C52.0924 16.5254 52.0104 16.056 52.0104 15.5547V15.2812C52.0104 14.7116 52.0924 14.1943 52.2565 13.7295C52.4205 13.2601 52.653 12.8568 52.9538 12.5195C53.2545 12.1823 53.6146 11.9225 54.0338 11.7402C54.4531 11.5579 54.9157 11.4668 55.4215 11.4668C55.9456 11.4668 56.4082 11.5557 56.8092 11.7334C57.2103 11.9066 57.5452 12.1527 57.8141 12.4717C58.083 12.7907 58.2858 13.1735 58.4225 13.6201C58.5592 14.0622 58.6276 14.5521 58.6276 15.0898V15.8486H52.8307V14.6045H56.8502V14.4678C56.8411 14.1807 56.7864 13.9186 56.6862 13.6816C56.5859 13.4401 56.431 13.2487 56.2213 13.1074C56.0117 12.9616 55.7405 12.8887 55.4079 12.8887C55.139 12.8887 54.9043 12.9479 54.7038 13.0664C54.5078 13.1803 54.3437 13.3444 54.2116 13.5586C54.084 13.7682 53.9883 14.0189 53.9245 14.3105C53.8607 14.6022 53.8288 14.9258 53.8288 15.2812V15.5547C53.8288 15.8646 53.8698 16.1517 53.9518 16.416C54.0384 16.6803 54.1637 16.9105 54.3278 17.1064C54.4964 17.2979 54.6969 17.4482 54.9293 17.5576C55.1663 17.6624 55.4352 17.7148 55.736 17.7148C56.1142 17.7148 56.456 17.6419 56.7614 17.4961C57.0713 17.3457 57.3401 17.1247 57.568 16.833L58.4772 17.7764C58.3222 18.0042 58.1126 18.223 57.8483 18.4326C57.5885 18.6423 57.2741 18.8132 56.9049 18.9453C56.5358 19.0729 56.1097 19.1367 55.6266 19.1367ZM63.8975 11.6035V12.9023H59.6593V11.6035H63.8975ZM60.794 9.78516H62.6055V16.8672C62.6055 17.0859 62.6352 17.2546 62.6944 17.373C62.7537 17.4915 62.8425 17.5713 62.961 17.6123C63.0795 17.6533 63.2208 17.6738 63.3848 17.6738C63.5033 17.6738 63.6127 17.667 63.713 17.6533C63.8132 17.6396 63.8975 17.626 63.9659 17.6123L63.9727 18.9658C63.8223 19.016 63.6514 19.057 63.46 19.0889C63.2732 19.1208 63.0613 19.1367 62.8243 19.1367C62.4187 19.1367 62.0632 19.0684 61.7579 18.9316C61.4526 18.7904 61.2156 18.5648 61.047 18.2549C60.8783 17.9404 60.794 17.5257 60.794 17.0107V9.78516ZM68.6958 17.7148C68.951 17.7148 69.1789 17.6647 69.3794 17.5645C69.5799 17.4642 69.7394 17.3229 69.8579 17.1406C69.981 16.9583 70.0471 16.7464 70.0562 16.5049H71.7583C71.7492 17.0062 71.6079 17.4551 71.3345 17.8516C71.0611 18.248 70.6965 18.5625 70.2407 18.7949C69.7896 19.0228 69.2837 19.1367 68.7232 19.1367C68.1535 19.1367 67.6568 19.041 67.2329 18.8496C66.8091 18.6582 66.4559 18.3916 66.1734 18.0498C65.8954 17.708 65.6857 17.3115 65.5445 16.8604C65.4077 16.4092 65.3394 15.9261 65.3394 15.4111V15.1924C65.3394 14.6774 65.4077 14.1943 65.5445 13.7432C65.6857 13.292 65.8954 12.8955 66.1734 12.5537C66.4559 12.2119 66.8091 11.9453 67.2329 11.7539C67.6568 11.5625 68.1512 11.4668 68.7163 11.4668C69.3133 11.4668 69.8374 11.583 70.2886 11.8154C70.7443 12.0479 71.0998 12.376 71.355 12.7998C71.6148 13.2236 71.7492 13.7227 71.7583 14.2969H70.0562C70.0471 14.0326 69.9878 13.7956 69.8784 13.5859C69.7691 13.3763 69.6141 13.2077 69.4136 13.0801C69.2131 12.9525 68.9693 12.8887 68.6821 12.8887C68.3768 12.8887 68.1216 12.9525 67.9165 13.0801C67.716 13.2077 67.5588 13.3831 67.4448 13.6064C67.3355 13.8252 67.258 14.0713 67.2124 14.3447C67.1714 14.6136 67.1509 14.8962 67.1509 15.1924V15.4111C67.1509 15.7119 67.1714 15.999 67.2124 16.2725C67.258 16.5459 67.3355 16.792 67.4448 17.0107C67.5588 17.2249 67.716 17.3958 67.9165 17.5234C68.1216 17.651 68.3814 17.7148 68.6958 17.7148ZM75.292 8.5V19H73.4804V8.5H75.292ZM75.0048 15.0352H74.4716C74.4716 14.5202 74.54 14.0462 74.6767 13.6133C74.8134 13.1803 75.0071 12.8044 75.2578 12.4854C75.5084 12.1618 75.8069 11.9111 76.1533 11.7334C76.5042 11.5557 76.8916 11.4668 77.3154 11.4668C77.68 11.4668 78.0104 11.5192 78.3066 11.624C78.6074 11.7243 78.8649 11.8861 79.0791 12.1094C79.2933 12.3327 79.4573 12.6243 79.5713 12.9844C79.6897 13.3398 79.749 13.7728 79.749 14.2832V19H77.9306V14.2695C77.9306 13.9277 77.8805 13.6589 77.7802 13.4629C77.68 13.2624 77.5364 13.1188 77.3496 13.0322C77.1673 12.9456 76.9417 12.9023 76.6728 12.9023C76.3811 12.9023 76.1305 12.9593 75.9209 13.0732C75.7112 13.1826 75.538 13.3353 75.4013 13.5312C75.2692 13.7272 75.1689 13.9528 75.1005 14.208C75.0367 14.4632 75.0048 14.7389 75.0048 15.0352ZM87.9647 9.04688V19H86.0848V9.04688H87.9647ZM91.9774 13.3467V14.8301H87.4725V13.3467H91.9774ZM92.5038 9.04688V10.5303H87.4725V9.04688H92.5038ZM96.1194 11.6035V19H94.3079V11.6035H96.1194ZM94.1848 9.66895C94.1848 9.40007 94.276 9.17676 94.4583 8.99902C94.6451 8.82129 94.8958 8.73242 95.2102 8.73242C95.5247 8.73242 95.7731 8.82129 95.9554 8.99902C96.1422 9.17676 96.2356 9.40007 96.2356 9.66895C96.2356 9.93327 96.1422 10.1543 95.9554 10.332C95.7731 10.5098 95.5247 10.5986 95.2102 10.5986C94.8958 10.5986 94.6451 10.5098 94.4583 10.332C94.276 10.1543 94.1848 9.93327 94.1848 9.66895ZM100.316 8.5V19H98.5046V8.5H100.316ZM104.397 13.1211V19H102.592V11.6035H104.294L104.397 13.1211ZM104.13 15.0352H103.576C103.576 14.5202 103.638 14.0462 103.761 13.6133C103.888 13.1803 104.075 12.8044 104.321 12.4854C104.568 12.1618 104.871 11.9111 105.231 11.7334C105.595 11.5557 106.017 11.4668 106.495 11.4668C106.828 11.4668 107.133 11.5169 107.411 11.6172C107.689 11.7129 107.929 11.8656 108.129 12.0752C108.334 12.2803 108.491 12.5492 108.601 12.8818C108.71 13.21 108.765 13.6042 108.765 14.0645V19H106.96V14.249C106.96 13.9027 106.91 13.6315 106.81 13.4355C106.714 13.2396 106.575 13.1029 106.393 13.0254C106.21 12.9434 105.992 12.9023 105.736 12.9023C105.454 12.9023 105.21 12.9593 105.005 13.0732C104.805 13.1826 104.638 13.3353 104.506 13.5312C104.378 13.7272 104.283 13.9528 104.219 14.208C104.16 14.4632 104.13 14.7389 104.13 15.0352ZM108.628 14.7002L107.883 14.8369C107.888 14.3721 107.951 13.9368 108.074 13.5312C108.197 13.1211 108.377 12.7633 108.614 12.458C108.856 12.1481 109.154 11.9066 109.51 11.7334C109.87 11.5557 110.285 11.4668 110.754 11.4668C111.119 11.4668 111.447 11.5192 111.738 11.624C112.035 11.7243 112.288 11.8861 112.497 12.1094C112.707 12.3281 112.866 12.613 112.976 12.9639C113.09 13.3148 113.147 13.7432 113.147 14.249V19H111.328V14.2422C111.328 13.8822 111.278 13.6064 111.178 13.415C111.082 13.2236 110.943 13.0915 110.761 13.0186C110.579 12.9411 110.364 12.9023 110.118 12.9023C109.868 12.9023 109.649 12.9502 109.462 13.0459C109.28 13.137 109.125 13.2646 108.997 13.4287C108.874 13.5928 108.781 13.7842 108.717 14.0029C108.658 14.2171 108.628 14.4495 108.628 14.7002Z" fill="white"/>
<defs>
<linearGradient id="paint0_linear_326_69" x1="62" y1="0" x2="62" y2="28" gradientUnits="userSpaceOnUse">
<stop stop-color="#37B349"/>
<stop offset="1" stop-color="#0C8E46"/>
</linearGradient>
</defs>
</svg>
