<svg width="571" height="51" viewBox="0 0 571 51" fill="none" xmlns="http://www.w3.org/2000/svg">
<line x1="151" y1="17" x2="571" y2="17" stroke="#0A7238" stroke-width="8"/>
<path d="M1.44 10.224H8.16C10 10.224 11.472 10.712 12.576 11.688C13.696 12.664 14.256 14 14.256 15.696C14.256 17.456 13.704 18.8 12.6 19.728C11.496 20.64 10.008 21.096 8.136 21.096H4.488V27H1.44V10.224ZM7.776 18.576C10.064 18.576 11.208 17.616 11.208 15.696C11.208 13.728 10.064 12.744 7.776 12.744H4.488V18.576H7.776ZM17.1422 10.224H24.1502C26.0062 10.224 27.4382 10.68 28.4462 11.592C29.4542 12.504 29.9582 13.824 29.9582 15.552C29.9582 16.784 29.6542 17.832 29.0462 18.696C28.4382 19.56 27.5742 20.176 26.4542 20.544L29.8622 27H26.7422L23.5022 20.856H20.1902V27H17.1422V10.224ZM23.5982 18.336C24.5902 18.336 25.3902 18.104 25.9982 17.64C26.6062 17.176 26.9102 16.48 26.9102 15.552C26.9102 13.68 25.8062 12.744 23.5982 12.744H20.1902V18.336H23.5982ZM41.3856 27.36C39.7056 27.36 38.1856 27 36.8256 26.28C35.4816 25.544 34.4176 24.512 33.6336 23.184C32.8656 21.856 32.4816 20.336 32.4816 18.624C32.4816 16.912 32.8656 15.392 33.6336 14.064C34.4176 12.736 35.4816 11.704 36.8256 10.968C38.1856 10.232 39.7056 9.864 41.3856 9.864C43.0496 9.864 44.5536 10.232 45.8976 10.968C47.2576 11.704 48.3216 12.736 49.0896 14.064C49.8736 15.392 50.2656 16.912 50.2656 18.624C50.2656 20.336 49.8736 21.856 49.0896 23.184C48.3216 24.496 47.2576 25.52 45.8976 26.256C44.5536 26.992 43.0496 27.36 41.3856 27.36ZM41.3856 24.6C42.4576 24.6 43.4336 24.36 44.3136 23.88C45.1936 23.384 45.8896 22.688 46.4016 21.792C46.9296 20.88 47.1936 19.824 47.1936 18.624C47.1936 17.44 46.9376 16.4 46.4256 15.504C45.9136 14.592 45.2176 13.888 44.3376 13.392C43.4576 12.896 42.4736 12.648 41.3856 12.648C40.2976 12.648 39.3056 12.896 38.4096 13.392C37.5296 13.888 36.8336 14.592 36.3216 15.504C35.8096 16.4 35.5536 17.44 35.5536 18.624C35.5536 19.824 35.8096 20.88 36.3216 21.792C36.8496 22.688 37.5536 23.384 38.4336 23.88C39.3296 24.36 40.3136 24.6 41.3856 24.6ZM53.6325 10.224H59.2485C61.0725 10.224 62.6565 10.56 64.0005 11.232C65.3445 11.904 66.3765 12.864 67.0965 14.112C67.8165 15.36 68.1765 16.832 68.1765 18.528C68.1765 21.312 67.3685 23.424 65.7525 24.864C64.1365 26.288 61.8805 27 58.9845 27H53.6325V10.224ZM59.0325 24.48C60.9845 24.48 62.4805 23.96 63.5205 22.92C64.5765 21.864 65.1045 20.4 65.1045 18.528C65.1045 17.392 64.8725 16.392 64.4085 15.528C63.9445 14.648 63.2805 13.968 62.4165 13.488C61.5525 12.992 60.5285 12.744 59.3445 12.744H56.6805V24.48H59.0325ZM78.5938 27.36C76.2258 27.36 74.4338 26.744 73.2178 25.512C72.0178 24.264 71.4178 22.584 71.4178 20.472V10.224H74.4658V20.52C74.4658 21.848 74.8338 22.864 75.5698 23.568C76.3218 24.256 77.3298 24.6 78.5938 24.6C79.8418 24.6 80.8338 24.256 81.5698 23.568C82.3218 22.864 82.6978 21.848 82.6978 20.52V10.224H85.7458V20.472C85.7458 22.584 85.1458 24.264 83.9458 25.512C82.7458 26.744 80.9618 27.36 78.5938 27.36ZM97.9626 27.36C96.2026 27.36 94.6426 27.008 93.2826 26.304C91.9226 25.584 90.8666 24.568 90.1146 23.256C89.3626 21.928 88.9866 20.384 88.9866 18.624C88.9866 16.864 89.3626 15.328 90.1146 14.016C90.8666 12.688 91.9226 11.664 93.2826 10.944C94.6426 10.224 96.2026 9.864 97.9626 9.864C100.283 9.864 102.219 10.416 103.771 11.52V14.424C102.379 13.24 100.531 12.648 98.2266 12.648C96.9946 12.648 95.9146 12.896 94.9866 13.392C94.0586 13.872 93.3386 14.56 92.8266 15.456C92.3146 16.352 92.0586 17.408 92.0586 18.624C92.0586 19.84 92.3146 20.896 92.8266 21.792C93.3546 22.688 94.0826 23.384 95.0106 23.88C95.9386 24.36 97.0106 24.6 98.2266 24.6C99.4106 24.6 100.467 24.456 101.395 24.168C102.323 23.864 103.179 23.384 103.963 22.728V25.632C102.491 26.784 100.491 27.36 97.9626 27.36ZM111.312 12.744H106.248V10.224H119.424V12.744H114.36V27H111.312V12.744ZM126.539 27.36C125.547 27.36 124.563 27.264 123.587 27.072C122.627 26.896 121.835 26.656 121.211 26.352V23.736C122.011 24.12 122.851 24.408 123.731 24.6C124.611 24.792 125.475 24.888 126.323 24.888C127.395 24.888 128.211 24.688 128.771 24.288C129.331 23.888 129.611 23.336 129.611 22.632C129.611 22.136 129.483 21.728 129.227 21.408C128.971 21.072 128.595 20.784 128.099 20.544C127.603 20.288 126.843 19.96 125.819 19.56C124.251 18.92 123.115 18.208 122.411 17.424C121.707 16.64 121.355 15.664 121.355 14.496C121.355 13.584 121.603 12.776 122.099 12.072C122.595 11.368 123.291 10.824 124.187 10.44C125.083 10.056 126.115 9.864 127.283 9.864C128.243 9.864 129.091 9.944 129.827 10.104C130.579 10.248 131.315 10.48 132.035 10.8V13.344C130.643 12.672 129.235 12.336 127.811 12.336C126.787 12.336 125.995 12.528 125.435 12.912C124.875 13.28 124.595 13.808 124.595 14.496C124.595 14.992 124.723 15.4 124.979 15.72C125.235 16.024 125.571 16.288 125.987 16.512C126.419 16.72 127.187 17.056 128.291 17.52C129.411 17.984 130.291 18.44 130.931 18.888C131.587 19.336 132.075 19.864 132.395 20.472C132.731 21.064 132.899 21.792 132.899 22.656C132.899 24.144 132.363 25.304 131.291 26.136C130.219 26.952 128.635 27.36 126.539 27.36Z" fill="#1E231C"/>
<path d="M3.108 46.18C2.628 46.18 2.152 46.136 1.68 46.048C1.216 45.968 0.836 45.856 0.54 45.712V44.608C1.308 44.968 2.136 45.148 3.024 45.148C4.272 45.148 4.896 44.728 4.896 43.888C4.896 43.6 4.828 43.368 4.692 43.192C4.556 43.016 4.36 42.864 4.104 42.736C3.848 42.6 3.432 42.416 2.856 42.184C2.064 41.864 1.492 41.512 1.14 41.128C0.788 40.744 0.612 40.26 0.612 39.676C0.612 39.236 0.732 38.848 0.972 38.512C1.212 38.168 1.548 37.904 1.98 37.72C2.412 37.528 2.908 37.432 3.468 37.432C3.924 37.432 4.336 37.468 4.704 37.54C5.072 37.612 5.432 37.728 5.784 37.888V38.944C5.088 38.632 4.384 38.476 3.672 38.476C3.096 38.476 2.656 38.58 2.352 38.788C2.048 38.996 1.896 39.292 1.896 39.676C1.896 39.94 1.96 40.164 2.088 40.348C2.224 40.524 2.42 40.684 2.676 40.828C2.94 40.964 3.328 41.136 3.84 41.344C4.408 41.576 4.856 41.796 5.184 42.004C5.512 42.212 5.76 42.468 5.928 42.772C6.104 43.068 6.192 43.44 6.192 43.888C6.192 44.616 5.932 45.18 5.412 45.58C4.892 45.98 4.124 46.18 3.108 46.18ZM7.98656 37.612H9.21056L12.1986 44.152L15.1866 37.612H16.4106V46H15.2226V40.036L12.4986 46H11.8986L9.16256 40.036V46H7.98656V37.612ZM21.2542 37.612H22.4302L25.7782 46H24.5302L23.6902 43.912H19.9822L19.1662 46H17.9062L21.2542 37.612ZM23.3542 42.892L21.8422 38.968L20.3302 42.892H23.3542ZM27.5794 37.612H30.9514C31.8474 37.612 32.5354 37.828 33.0154 38.26C33.4954 38.692 33.7354 39.324 33.7354 40.156C33.7354 40.772 33.5714 41.296 33.2434 41.728C32.9154 42.152 32.4514 42.44 31.8514 42.592L33.6994 46H32.4274L30.6394 42.688H28.8034V46H27.5794V37.612ZM30.7474 41.656C31.2834 41.656 31.7074 41.532 32.0194 41.284C32.3394 41.028 32.4994 40.652 32.4994 40.156C32.4994 39.612 32.3434 39.224 32.0314 38.992C31.7274 38.76 31.2994 38.644 30.7474 38.644H28.8034V41.656H30.7474ZM37.2381 38.644H34.6341V37.612H41.0781V38.644H38.4741V46H37.2381V38.644Z" fill="#BE1C65"/>
<path d="M47.5584 37.612H50.7864C51.6904 37.612 52.4024 37.84 52.9224 38.296C53.4504 38.744 53.7144 39.384 53.7144 40.216C53.7144 41.064 53.4544 41.708 52.9344 42.148C52.4144 42.58 51.6984 42.796 50.7864 42.796H48.7824V46H47.5584V37.612ZM50.6544 41.776C51.2144 41.776 51.6584 41.66 51.9864 41.428C52.3144 41.196 52.4784 40.792 52.4784 40.216C52.4784 39.64 52.3144 39.236 51.9864 39.004C51.6584 38.764 51.2144 38.644 50.6544 38.644H48.7824V41.776H50.6544ZM59.2691 46.18C58.4371 46.18 57.6851 46 57.0131 45.64C56.3411 45.272 55.8131 44.756 55.4291 44.092C55.0451 43.428 54.8531 42.668 54.8531 41.812C54.8531 40.956 55.0451 40.196 55.4291 39.532C55.8131 38.868 56.3411 38.352 57.0131 37.984C57.6851 37.616 58.4371 37.432 59.2691 37.432C60.1011 37.432 60.8531 37.616 61.5251 37.984C62.1971 38.352 62.7251 38.868 63.1091 39.532C63.4931 40.196 63.6851 40.956 63.6851 41.812C63.6851 42.668 63.4931 43.428 63.1091 44.092C62.7251 44.756 62.1971 45.272 61.5251 45.64C60.8531 46 60.1011 46.18 59.2691 46.18ZM59.2691 45.076C59.8611 45.076 60.3971 44.944 60.8771 44.68C61.3651 44.408 61.7491 44.028 62.0291 43.54C62.3091 43.044 62.4491 42.468 62.4491 41.812C62.4491 41.164 62.3091 40.596 62.0291 40.108C61.7571 39.612 61.3811 39.232 60.9011 38.968C60.4211 38.696 59.8851 38.56 59.2931 38.56C58.6931 38.56 58.1491 38.692 57.6611 38.956C57.1811 39.22 56.7971 39.6 56.5091 40.096C56.2291 40.592 56.0891 41.164 56.0891 41.812C56.0891 42.468 56.2291 43.044 56.5091 43.54C56.7891 44.028 57.1691 44.408 57.6491 44.68C58.1371 44.944 58.6771 45.076 59.2691 45.076ZM65.4872 37.612H66.7112V44.98H70.9592V46H65.4872V37.612ZM73.826 42.82L70.778 37.612H72.086L74.426 41.656L76.802 37.612H78.098L75.014 42.82V46H73.826V42.82Z" fill="#0A7238"/>
</svg>
