<svg width="212" height="28" viewBox="0 0 212 28" fill="none" xmlns="http://www.w3.org/2000/svg">
<rect width="212" height="28" fill="url(#paint0_linear_326_76)"/>
<rect width="212" height="28" fill="black" fill-opacity="0.2"/>
<path d="M17.3076 13.1689V14.8438C17.3076 15.6094 17.2301 16.2633 17.0752 16.8057C16.9202 17.348 16.6969 17.7923 16.4053 18.1387C16.1136 18.4805 15.765 18.7334 15.3594 18.8975C14.9538 19.057 14.5026 19.1367 14.0059 19.1367C13.6094 19.1367 13.2402 19.0866 12.8984 18.9863C12.5566 18.8815 12.249 18.722 11.9756 18.5078C11.7067 18.2891 11.4743 18.0111 11.2783 17.6738C11.0869 17.3366 10.9388 16.9333 10.834 16.4639C10.7337 15.9945 10.6836 15.4544 10.6836 14.8438V13.1689C10.6836 12.4033 10.7611 11.7516 10.916 11.2139C11.0755 10.6761 11.3011 10.2363 11.5928 9.89453C11.8844 9.55273 12.2331 9.30436 12.6387 9.14941C13.0443 8.98991 13.4954 8.91016 13.9922 8.91016C14.3932 8.91016 14.7624 8.96029 15.0996 9.06055C15.4414 9.16081 15.7467 9.31803 16.0156 9.53223C16.2891 9.74186 16.5215 10.0153 16.7129 10.3525C16.9043 10.6852 17.0501 11.0863 17.1504 11.5557C17.2552 12.0205 17.3076 12.5583 17.3076 13.1689ZM15.5029 15.0898V12.916C15.5029 12.5332 15.4801 12.2005 15.4346 11.918C15.3936 11.6309 15.332 11.387 15.25 11.1865C15.168 10.986 15.0654 10.8242 14.9424 10.7012C14.8193 10.5736 14.6781 10.4801 14.5186 10.4209C14.359 10.3617 14.1836 10.332 13.9922 10.332C13.7552 10.332 13.5433 10.3799 13.3564 10.4756C13.1696 10.5667 13.0124 10.7126 12.8848 10.9131C12.7572 11.1136 12.6592 11.3802 12.5908 11.7129C12.527 12.041 12.4951 12.4421 12.4951 12.916V15.0898C12.4951 15.4727 12.5156 15.8076 12.5566 16.0947C12.6022 16.3818 12.666 16.6279 12.748 16.833C12.8346 17.0381 12.9372 17.2067 13.0557 17.3389C13.1787 17.4665 13.32 17.5622 13.4795 17.626C13.639 17.6852 13.8145 17.7148 14.0059 17.7148C14.2474 17.7148 14.4593 17.667 14.6416 17.5713C14.8285 17.4756 14.9857 17.3252 15.1133 17.1201C15.2409 16.9105 15.3366 16.6393 15.4004 16.3066C15.4688 15.9694 15.5029 15.5638 15.5029 15.0898ZM23.9243 9.01953V19H22.1127V11.1318L19.7133 11.9248V10.4619L23.7192 9.01953H23.9243ZM28.0048 18.1182C28.0048 17.8447 28.0982 17.6146 28.285 17.4277C28.4719 17.2409 28.7248 17.1475 29.0438 17.1475C29.3628 17.1475 29.6158 17.2409 29.8026 17.4277C29.9895 17.6146 30.0829 17.8447 30.0829 18.1182C30.0829 18.387 29.9895 18.6149 29.8026 18.8018C29.6158 18.984 29.3628 19.0752 29.0438 19.0752C28.7248 19.0752 28.4719 18.984 28.285 18.8018C28.0982 18.6149 28.0048 18.387 28.0048 18.1182ZM36.8773 9.04688V19H35.0042V9.04688H36.8773ZM39.9671 9.04688V10.5303H31.9486V9.04688H39.9671ZM42.9675 13.1143V19H41.1629V11.6035H42.8718L42.9675 13.1143ZM45.2166 11.5557L45.1892 13.2373C45.089 13.2191 44.975 13.2054 44.8474 13.1963C44.7244 13.1872 44.6082 13.1826 44.4988 13.1826C44.2208 13.1826 43.977 13.2214 43.7673 13.2988C43.5577 13.3717 43.3823 13.4788 43.241 13.6201C43.1043 13.7614 42.9994 13.9346 42.9265 14.1396C42.8536 14.3402 42.8126 14.568 42.8035 14.8232L42.4138 14.7754C42.4138 14.306 42.4617 13.8708 42.5574 13.4697C42.6531 13.0687 42.7921 12.7178 42.9744 12.417C43.1567 12.1162 43.3845 11.8838 43.658 11.7197C43.936 11.5511 44.255 11.4668 44.615 11.4668C44.7153 11.4668 44.8224 11.4759 44.9363 11.4941C45.0548 11.5078 45.1482 11.5283 45.2166 11.5557ZM50.6096 17.4277V14.0166C50.6096 13.766 50.5663 13.5495 50.4797 13.3672C50.3931 13.1849 50.2609 13.0436 50.0832 12.9434C49.9055 12.8431 49.6799 12.793 49.4064 12.793C49.1649 12.793 48.953 12.834 48.7707 12.916C48.593 12.998 48.4562 13.1143 48.3605 13.2646C48.2648 13.4105 48.217 13.5791 48.217 13.7705H46.4055C46.4055 13.4652 46.4784 13.1758 46.6242 12.9023C46.7701 12.6243 46.9774 12.3783 47.2463 12.1641C47.5197 11.9453 47.8456 11.7744 48.2238 11.6514C48.6066 11.5283 49.035 11.4668 49.509 11.4668C50.0695 11.4668 50.5686 11.5625 51.0061 11.7539C51.4481 11.9408 51.7945 12.2233 52.0451 12.6016C52.3003 12.9798 52.4279 13.4561 52.4279 14.0303V17.2568C52.4279 17.626 52.4507 17.9427 52.4963 18.207C52.5464 18.4668 52.6193 18.6924 52.715 18.8838V19H50.8762C50.7896 18.8132 50.7235 18.5762 50.6779 18.2891C50.6324 17.9974 50.6096 17.7103 50.6096 17.4277ZM50.8625 14.4951L50.8762 15.5684H49.7346C49.452 15.5684 49.2036 15.598 48.9895 15.6572C48.7753 15.7119 48.5998 15.7939 48.4631 15.9033C48.3264 16.0081 48.2238 16.1357 48.1555 16.2861C48.0871 16.432 48.0529 16.5983 48.0529 16.7852C48.0529 16.9674 48.0939 17.1315 48.176 17.2773C48.2626 17.4232 48.3856 17.5394 48.5451 17.626C48.7092 17.708 48.9006 17.749 49.1193 17.749C49.4383 17.749 49.7163 17.6852 49.9533 17.5576C50.1903 17.4255 50.3749 17.266 50.507 17.0791C50.6392 16.8923 50.7098 16.7145 50.7189 16.5459L51.2385 17.3252C51.1747 17.512 51.079 17.7103 50.9514 17.9199C50.8238 18.1296 50.6597 18.3255 50.4592 18.5078C50.2587 18.6901 50.0171 18.8405 49.7346 18.959C49.452 19.0775 49.1239 19.1367 48.7502 19.1367C48.2717 19.1367 47.8433 19.041 47.465 18.8496C47.0868 18.6582 46.7883 18.3962 46.5695 18.0635C46.3508 17.7308 46.2414 17.3525 46.2414 16.9287C46.2414 16.5368 46.3143 16.1904 46.4602 15.8896C46.606 15.5889 46.8225 15.3359 47.1096 15.1309C47.3967 14.9212 47.7521 14.764 48.176 14.6592C48.6044 14.5498 49.0943 14.4951 49.6457 14.4951H50.8625ZM56.3854 13.1826V19H54.5807V11.6035H56.276L56.3854 13.1826ZM56.0983 15.0352H55.5651C55.5696 14.4974 55.6426 14.0098 55.7838 13.5723C55.9251 13.1348 56.1233 12.7588 56.3786 12.4443C56.6383 12.1299 56.9459 11.8883 57.3014 11.7197C57.6569 11.5511 58.0534 11.4668 58.4909 11.4668C58.8463 11.4668 59.1676 11.5169 59.4547 11.6172C59.7418 11.7174 59.9879 11.877 60.193 12.0957C60.4026 12.3145 60.5621 12.6016 60.6715 12.957C60.7855 13.3079 60.8424 13.7409 60.8424 14.2559V19H59.0241V14.2422C59.0241 13.9049 58.9739 13.6383 58.8737 13.4424C58.778 13.2464 58.6367 13.1074 58.4498 13.0254C58.2676 12.9434 58.042 12.9023 57.7731 12.9023C57.4951 12.9023 57.2513 12.9593 57.0416 13.0732C56.8366 13.1826 56.6634 13.3353 56.5221 13.5312C56.3854 13.7272 56.2806 13.9528 56.2077 14.208C56.1347 14.4632 56.0983 14.7389 56.0983 15.0352ZM67.0626 16.9766C67.0626 16.8216 67.0216 16.6826 66.9395 16.5596C66.8575 16.4365 66.7026 16.3249 66.4747 16.2246C66.2514 16.1198 65.9233 16.0218 65.4903 15.9307C65.1075 15.8486 64.7543 15.7461 64.4307 15.623C64.1072 15.5 63.8292 15.3519 63.5968 15.1787C63.3643 15.001 63.182 14.7936 63.0499 14.5566C62.9223 14.3151 62.8585 14.0371 62.8585 13.7227C62.8585 13.4173 62.9246 13.1302 63.0567 12.8613C63.1889 12.5879 63.3803 12.3486 63.6309 12.1436C63.8816 11.9339 64.1869 11.7699 64.547 11.6514C64.907 11.5283 65.3126 11.4668 65.7637 11.4668C66.3927 11.4668 66.9327 11.5693 67.3839 11.7744C67.8396 11.9795 68.1882 12.262 68.4298 12.6221C68.6713 12.9775 68.7921 13.3786 68.7921 13.8252H66.9874C66.9874 13.6292 66.9418 13.4515 66.8507 13.292C66.7641 13.1325 66.6296 13.0049 66.4473 12.9092C66.2651 12.8089 66.0349 12.7588 65.7569 12.7588C65.5063 12.7588 65.2943 12.7998 65.1212 12.8818C64.9526 12.9639 64.8249 13.071 64.7384 13.2031C64.6518 13.3353 64.6085 13.4811 64.6085 13.6406C64.6085 13.7591 64.6313 13.8662 64.6768 13.9619C64.727 14.0531 64.8067 14.1374 64.9161 14.2148C65.0255 14.2923 65.1736 14.363 65.3604 14.4268C65.5518 14.4906 65.7865 14.5521 66.0645 14.6113C66.616 14.7207 67.0968 14.8665 67.5069 15.0488C67.9216 15.2266 68.2452 15.4635 68.4776 15.7598C68.71 16.056 68.8262 16.4342 68.8262 16.8945C68.8262 17.2227 68.7556 17.5234 68.6143 17.7969C68.4731 18.0658 68.268 18.3005 67.9991 18.501C67.7302 18.7015 67.4089 18.8587 67.0352 18.9727C66.6615 19.082 66.24 19.1367 65.7706 19.1367C65.0915 19.1367 64.5173 19.016 64.0479 18.7744C63.5785 18.5283 63.2231 18.2184 62.9815 17.8447C62.74 17.4665 62.6192 17.0745 62.6192 16.6689H64.3487C64.3624 16.9561 64.4399 17.1862 64.5811 17.3594C64.7224 17.5326 64.9001 17.6579 65.1143 17.7354C65.3331 17.8083 65.5632 17.8447 65.8048 17.8447C66.0782 17.8447 66.3083 17.8083 66.4952 17.7354C66.682 17.6579 66.8233 17.5553 66.919 17.4277C67.0147 17.2956 67.0626 17.1452 67.0626 16.9766ZM72.565 13.0254V21.8438H70.7534V11.6035H72.4282L72.565 13.0254ZM77.3159 15.2266V15.3701C77.3159 15.9079 77.2521 16.4069 77.1245 16.8672C77.0015 17.3229 76.8192 17.7217 76.5777 18.0635C76.3361 18.4007 76.0353 18.665 75.6753 18.8564C75.3198 19.0433 74.9097 19.1367 74.4448 19.1367C73.9891 19.1367 73.5926 19.0501 73.2554 18.877C72.9182 18.6992 72.6333 18.4486 72.4009 18.125C72.1685 17.8014 71.9816 17.4255 71.8404 16.9971C71.7036 16.5641 71.6011 16.0924 71.5327 15.582V15.124C71.6011 14.5817 71.7036 14.0895 71.8404 13.6475C71.9816 13.2008 72.1685 12.8158 72.4009 12.4922C72.6333 12.1641 72.9159 11.9111 73.2486 11.7334C73.5858 11.5557 73.98 11.4668 74.4312 11.4668C74.9006 11.4668 75.313 11.5557 75.6685 11.7334C76.0285 11.9111 76.3316 12.1663 76.5777 12.499C76.8237 12.8317 77.0083 13.2282 77.1314 13.6885C77.2544 14.1488 77.3159 14.6615 77.3159 15.2266ZM75.5044 15.3701V15.2266C75.5044 14.8984 75.4748 14.5954 75.4155 14.3174C75.3563 14.0348 75.2652 13.7887 75.1421 13.5791C75.0191 13.3649 74.8596 13.1986 74.6636 13.0801C74.4676 12.9616 74.2307 12.9023 73.9527 12.9023C73.6747 12.9023 73.4354 12.9479 73.2349 13.0391C73.0344 13.1302 72.8703 13.2601 72.7427 13.4287C72.6151 13.5973 72.5148 13.7979 72.4419 14.0303C72.3736 14.2581 72.328 14.5111 72.3052 14.7891V15.9238C72.3462 16.2611 72.426 16.5641 72.5445 16.833C72.6629 17.1019 72.8361 17.3161 73.064 17.4756C73.2964 17.6351 73.5972 17.7148 73.9663 17.7148C74.2443 17.7148 74.4813 17.6533 74.6773 17.5303C74.8732 17.4072 75.0327 17.2386 75.1558 17.0244C75.2788 16.8057 75.3677 16.555 75.4224 16.2725C75.4771 15.9899 75.5044 15.6891 75.5044 15.3701ZM83.2695 17.4277V14.0166C83.2695 13.766 83.2262 13.5495 83.1396 13.3672C83.053 13.1849 82.9209 13.0436 82.7431 12.9434C82.5654 12.8431 82.3398 12.793 82.0664 12.793C81.8248 12.793 81.6129 12.834 81.4306 12.916C81.2529 12.998 81.1162 13.1143 81.0205 13.2646C80.9248 13.4105 80.8769 13.5791 80.8769 13.7705H79.0654C79.0654 13.4652 79.1383 13.1758 79.2841 12.9023C79.43 12.6243 79.6373 12.3783 79.9062 12.1641C80.1796 11.9453 80.5055 11.7744 80.8838 11.6514C81.2666 11.5283 81.6949 11.4668 82.1689 11.4668C82.7295 11.4668 83.2285 11.5625 83.666 11.7539C84.108 11.9408 84.4544 12.2233 84.705 12.6016C84.9602 12.9798 85.0879 13.4561 85.0879 14.0303V17.2568C85.0879 17.626 85.1106 17.9427 85.1562 18.207C85.2063 18.4668 85.2793 18.6924 85.375 18.8838V19H83.5361C83.4495 18.8132 83.3834 18.5762 83.3379 18.2891C83.2923 17.9974 83.2695 17.7103 83.2695 17.4277ZM83.5224 14.4951L83.5361 15.5684H82.3945C82.1119 15.5684 81.8636 15.598 81.6494 15.6572C81.4352 15.7119 81.2597 15.7939 81.123 15.9033C80.9863 16.0081 80.8838 16.1357 80.8154 16.2861C80.747 16.432 80.7129 16.5983 80.7129 16.7852C80.7129 16.9674 80.7539 17.1315 80.8359 17.2773C80.9225 17.4232 81.0455 17.5394 81.205 17.626C81.3691 17.708 81.5605 17.749 81.7793 17.749C82.0983 17.749 82.3763 17.6852 82.6132 17.5576C82.8502 17.4255 83.0348 17.266 83.167 17.0791C83.2991 16.8923 83.3698 16.7145 83.3789 16.5459L83.8984 17.3252C83.8346 17.512 83.7389 17.7103 83.6113 17.9199C83.4837 18.1296 83.3196 18.3255 83.1191 18.5078C82.9186 18.6901 82.677 18.8405 82.3945 18.959C82.1119 19.0775 81.7838 19.1367 81.4101 19.1367C80.9316 19.1367 80.5032 19.041 80.125 18.8496C79.7467 18.6582 79.4482 18.3962 79.2295 18.0635C79.0107 17.7308 78.9013 17.3525 78.9013 16.9287C78.9013 16.5368 78.9742 16.1904 79.1201 15.8896C79.2659 15.5889 79.4824 15.3359 79.7695 15.1309C80.0566 14.9212 80.4121 14.764 80.8359 14.6592C81.2643 14.5498 81.7542 14.4951 82.3056 14.4951H83.5224ZM89.0795 13.1143V19H87.2748V11.6035H88.9838L89.0795 13.1143ZM91.3285 11.5557L91.3012 13.2373C91.2009 13.2191 91.087 13.2054 90.9594 13.1963C90.8363 13.1872 90.7201 13.1826 90.6107 13.1826C90.3327 13.1826 90.0889 13.2214 89.8793 13.2988C89.6697 13.3717 89.4942 13.4788 89.3529 13.6201C89.2162 13.7614 89.1114 13.9346 89.0385 14.1396C88.9656 14.3402 88.9245 14.568 88.9154 14.8232L88.5258 14.7754C88.5258 14.306 88.5736 13.8708 88.6693 13.4697C88.765 13.0687 88.904 12.7178 89.0863 12.417C89.2686 12.1162 89.4965 11.8838 89.7699 11.7197C90.0479 11.5511 90.3669 11.4668 90.727 11.4668C90.8272 11.4668 90.9343 11.4759 91.0482 11.4941C91.1667 11.5078 91.2602 11.5283 91.3285 11.5557ZM96.0653 19.1367C95.5047 19.1367 95.0011 19.0456 94.5545 18.8633C94.1079 18.681 93.7274 18.4281 93.4129 18.1045C93.103 17.7764 92.8638 17.3958 92.6952 16.9629C92.5311 16.5254 92.4491 16.056 92.4491 15.5547V15.2812C92.4491 14.7116 92.5311 14.1943 92.6952 13.7295C92.8592 13.2601 93.0916 12.8568 93.3924 12.5195C93.6932 12.1823 94.0532 11.9225 94.4725 11.7402C94.8918 11.5579 95.3543 11.4668 95.8602 11.4668C96.3843 11.4668 96.8469 11.5557 97.2479 11.7334C97.6489 11.9066 97.9839 12.1527 98.2528 12.4717C98.5217 12.7907 98.7245 13.1735 98.8612 13.6201C98.9979 14.0622 99.0663 14.5521 99.0663 15.0898V15.8486H93.2694V14.6045H97.2889V14.4678C97.2798 14.1807 97.2251 13.9186 97.1248 13.6816C97.0246 13.4401 96.8696 13.2487 96.66 13.1074C96.4504 12.9616 96.1792 12.8887 95.8465 12.8887C95.5776 12.8887 95.3429 12.9479 95.1424 13.0664C94.9465 13.1803 94.7824 13.3444 94.6502 13.5586C94.5226 13.7682 94.4269 14.0189 94.3631 14.3105C94.2993 14.6022 94.2674 14.9258 94.2674 15.2812V15.5547C94.2674 15.8646 94.3084 16.1517 94.3905 16.416C94.4771 16.6803 94.6024 16.9105 94.7664 17.1064C94.9351 17.2979 95.1356 17.4482 95.368 17.5576C95.605 17.6624 95.8739 17.7148 96.1747 17.7148C96.5529 17.7148 96.8947 17.6419 97.2 17.4961C97.5099 17.3457 97.7788 17.1247 98.0067 16.833L98.9159 17.7764C98.7609 18.0042 98.5513 18.223 98.287 18.4326C98.0272 18.6423 97.7127 18.8132 97.3436 18.9453C96.9745 19.0729 96.5484 19.1367 96.0653 19.1367ZM102.607 13.1826V19H100.802V11.6035H102.497L102.607 13.1826ZM102.32 15.0352H101.786C101.791 14.4974 101.864 14.0098 102.005 13.5723C102.146 13.1348 102.345 12.7588 102.6 12.4443C102.86 12.1299 103.167 11.8883 103.523 11.7197C103.878 11.5511 104.275 11.4668 104.712 11.4668C105.068 11.4668 105.389 11.5169 105.676 11.6172C105.963 11.7174 106.209 11.877 106.414 12.0957C106.624 12.3145 106.783 12.6016 106.893 12.957C107.007 13.3079 107.064 13.7409 107.064 14.2559V19H105.245V14.2422C105.245 13.9049 105.195 13.6383 105.095 13.4424C104.999 13.2464 104.858 13.1074 104.671 13.0254C104.489 12.9434 104.263 12.9023 103.994 12.9023C103.716 12.9023 103.473 12.9593 103.263 13.0732C103.058 13.1826 102.885 13.3353 102.743 13.5312C102.607 13.7272 102.502 13.9528 102.429 14.208C102.356 14.4632 102.32 14.7389 102.32 15.0352ZM112.717 11.6035V12.9023H108.478V11.6035H112.717ZM109.613 9.78516H111.425V16.8672C111.425 17.0859 111.454 17.2546 111.513 17.373C111.573 17.4915 111.662 17.5713 111.78 17.6123C111.898 17.6533 112.04 17.6738 112.204 17.6738C112.322 17.6738 112.432 17.667 112.532 17.6533C112.632 17.6396 112.717 17.626 112.785 17.6123L112.792 18.9658C112.641 19.016 112.47 19.057 112.279 19.0889C112.092 19.1208 111.88 19.1367 111.643 19.1367C111.238 19.1367 110.882 19.0684 110.577 18.9316C110.272 18.7904 110.035 18.5648 109.866 18.2549C109.697 17.9404 109.613 17.5257 109.613 17.0107V9.78516ZM122.491 15.3701H119.927V13.8936H122.491C122.91 13.8936 123.25 13.8252 123.509 13.6885C123.774 13.5472 123.967 13.3558 124.09 13.1143C124.213 12.8682 124.275 12.5879 124.275 12.2734C124.275 11.9681 124.213 11.6833 124.09 11.4189C123.967 11.1546 123.774 10.9404 123.509 10.7764C123.25 10.6123 122.91 10.5303 122.491 10.5303H120.543V19H118.663V9.04688H122.491C123.266 9.04688 123.926 9.18587 124.473 9.46387C125.025 9.7373 125.444 10.1178 125.731 10.6055C126.023 11.0885 126.169 11.64 126.169 12.2598C126.169 12.9023 126.023 13.4561 125.731 13.9209C125.444 14.3857 125.025 14.7435 124.473 14.9941C123.926 15.2448 123.266 15.3701 122.491 15.3701ZM129.982 8.5V19H128.171V8.5H129.982ZM136.339 17.4277V14.0166C136.339 13.766 136.296 13.5495 136.209 13.3672C136.123 13.1849 135.991 13.0436 135.813 12.9434C135.635 12.8431 135.41 12.793 135.136 12.793C134.895 12.793 134.683 12.834 134.5 12.916C134.323 12.998 134.186 13.1143 134.09 13.2646C133.995 13.4105 133.947 13.5791 133.947 13.7705H132.135C132.135 13.4652 132.208 13.1758 132.354 12.9023C132.5 12.6243 132.707 12.3783 132.976 12.1641C133.249 11.9453 133.575 11.7744 133.954 11.6514C134.336 11.5283 134.765 11.4668 135.239 11.4668C135.799 11.4668 136.298 11.5625 136.736 11.7539C137.178 11.9408 137.524 12.2233 137.775 12.6016C138.03 12.9798 138.158 13.4561 138.158 14.0303V17.2568C138.158 17.626 138.18 17.9427 138.226 18.207C138.276 18.4668 138.349 18.6924 138.445 18.8838V19H136.606C136.519 18.8132 136.453 18.5762 136.408 18.2891C136.362 17.9974 136.339 17.7103 136.339 17.4277ZM136.592 14.4951L136.606 15.5684H135.464C135.182 15.5684 134.933 15.598 134.719 15.6572C134.505 15.7119 134.33 15.7939 134.193 15.9033C134.056 16.0081 133.954 16.1357 133.885 16.2861C133.817 16.432 133.783 16.5983 133.783 16.7852C133.783 16.9674 133.824 17.1315 133.906 17.2773C133.992 17.4232 134.115 17.5394 134.275 17.626C134.439 17.708 134.63 17.749 134.849 17.749C135.168 17.749 135.446 17.6852 135.683 17.5576C135.92 17.4255 136.105 17.266 136.237 17.0791C136.369 16.8923 136.44 16.7145 136.449 16.5459L136.968 17.3252C136.904 17.512 136.809 17.7103 136.681 17.9199C136.554 18.1296 136.389 18.3255 136.189 18.5078C135.988 18.6901 135.747 18.8405 135.464 18.959C135.182 19.0775 134.854 19.1367 134.48 19.1367C134.001 19.1367 133.573 19.041 133.195 18.8496C132.817 18.6582 132.518 18.3962 132.299 18.0635C132.081 17.7308 131.971 17.3525 131.971 16.9287C131.971 16.5368 132.044 16.1904 132.19 15.8896C132.336 15.5889 132.552 15.3359 132.839 15.1309C133.126 14.9212 133.482 14.764 133.906 14.6592C134.334 14.5498 134.824 14.4951 135.375 14.4951H136.592ZM144.412 16.9766C144.412 16.8216 144.371 16.6826 144.289 16.5596C144.207 16.4365 144.052 16.3249 143.824 16.2246C143.601 16.1198 143.273 16.0218 142.84 15.9307C142.457 15.8486 142.104 15.7461 141.78 15.623C141.457 15.5 141.179 15.3519 140.946 15.1787C140.714 15.001 140.531 14.7936 140.399 14.5566C140.272 14.3151 140.208 14.0371 140.208 13.7227C140.208 13.4173 140.274 13.1302 140.406 12.8613C140.538 12.5879 140.73 12.3486 140.98 12.1436C141.231 11.9339 141.536 11.7699 141.896 11.6514C142.256 11.5283 142.662 11.4668 143.113 11.4668C143.742 11.4668 144.282 11.5693 144.733 11.7744C145.189 11.9795 145.538 12.262 145.779 12.6221C146.021 12.9775 146.142 13.3786 146.142 13.8252H144.337C144.337 13.6292 144.291 13.4515 144.2 13.292C144.114 13.1325 143.979 13.0049 143.797 12.9092C143.615 12.8089 143.384 12.7588 143.106 12.7588C142.856 12.7588 142.644 12.7998 142.471 12.8818C142.302 12.9639 142.174 13.071 142.088 13.2031C142.001 13.3353 141.958 13.4811 141.958 13.6406C141.958 13.7591 141.981 13.8662 142.026 13.9619C142.076 14.0531 142.156 14.1374 142.266 14.2148C142.375 14.2923 142.523 14.363 142.71 14.4268C142.901 14.4906 143.136 14.5521 143.414 14.6113C143.965 14.7207 144.446 14.8665 144.856 15.0488C145.271 15.2266 145.595 15.4635 145.827 15.7598C146.059 16.056 146.176 16.4342 146.176 16.8945C146.176 17.2227 146.105 17.5234 145.964 17.7969C145.823 18.0658 145.617 18.3005 145.349 18.501C145.08 18.7015 144.758 18.8587 144.385 18.9727C144.011 19.082 143.589 19.1367 143.12 19.1367C142.441 19.1367 141.867 19.016 141.397 18.7744C140.928 18.5283 140.573 18.2184 140.331 17.8447C140.089 17.4665 139.969 17.0745 139.969 16.6689H141.698C141.712 16.9561 141.789 17.1862 141.931 17.3594C142.072 17.5326 142.25 17.6579 142.464 17.7354C142.683 17.8083 142.913 17.8447 143.154 17.8447C143.428 17.8447 143.658 17.8083 143.845 17.7354C144.031 17.6579 144.173 17.5553 144.268 17.4277C144.364 17.2956 144.412 17.1452 144.412 16.9766ZM151.61 11.6035V12.9023H147.371V11.6035H151.61ZM148.506 9.78516H150.318V16.8672C150.318 17.0859 150.347 17.2546 150.407 17.373C150.466 17.4915 150.555 17.5713 150.673 17.6123C150.792 17.6533 150.933 17.6738 151.097 17.6738C151.216 17.6738 151.325 17.667 151.425 17.6533C151.525 17.6396 151.61 17.626 151.678 17.6123L151.685 18.9658C151.535 19.016 151.364 19.057 151.172 19.0889C150.985 19.1208 150.773 19.1367 150.536 19.1367C150.131 19.1367 149.775 19.0684 149.47 18.9316C149.165 18.7904 148.928 18.5648 148.759 18.2549C148.591 17.9404 148.506 17.5257 148.506 17.0107V9.78516ZM155.287 11.6035V19H153.475V11.6035H155.287ZM153.352 9.66895C153.352 9.40007 153.443 9.17676 153.626 8.99902C153.813 8.82129 154.063 8.73242 154.378 8.73242C154.692 8.73242 154.941 8.82129 155.123 8.99902C155.31 9.17676 155.403 9.40007 155.403 9.66895C155.403 9.93327 155.31 10.1543 155.123 10.332C154.941 10.5098 154.692 10.5986 154.378 10.5986C154.063 10.5986 153.813 10.5098 153.626 10.332C153.443 10.1543 153.352 9.93327 153.352 9.66895ZM160.605 17.7148C160.86 17.7148 161.088 17.6647 161.288 17.5645C161.489 17.4642 161.648 17.3229 161.767 17.1406C161.89 16.9583 161.956 16.7464 161.965 16.5049H163.667C163.658 17.0062 163.517 17.4551 163.243 17.8516C162.97 18.248 162.605 18.5625 162.15 18.7949C161.698 19.0228 161.193 19.1367 160.632 19.1367C160.062 19.1367 159.566 19.041 159.142 18.8496C158.718 18.6582 158.365 18.3916 158.082 18.0498C157.804 17.708 157.595 17.3115 157.453 16.8604C157.317 16.4092 157.248 15.9261 157.248 15.4111V15.1924C157.248 14.6774 157.317 14.1943 157.453 13.7432C157.595 13.292 157.804 12.8955 158.082 12.5537C158.365 12.2119 158.718 11.9453 159.142 11.7539C159.566 11.5625 160.06 11.4668 160.625 11.4668C161.222 11.4668 161.746 11.583 162.197 11.8154C162.653 12.0479 163.009 12.376 163.264 12.7998C163.524 13.2236 163.658 13.7227 163.667 14.2969H161.965C161.956 14.0326 161.897 13.7956 161.787 13.5859C161.678 13.3763 161.523 13.2077 161.322 13.0801C161.122 12.9525 160.878 12.8887 160.591 12.8887C160.286 12.8887 160.031 12.9525 159.825 13.0801C159.625 13.2077 159.468 13.3831 159.354 13.6064C159.244 13.8252 159.167 14.0713 159.121 14.3447C159.08 14.6136 159.06 14.8962 159.06 15.1924V15.4111C159.06 15.7119 159.08 15.999 159.121 16.2725C159.167 16.5459 159.244 16.792 159.354 17.0107C159.468 17.2249 159.625 17.3958 159.825 17.5234C160.031 17.651 160.29 17.7148 160.605 17.7148ZM173.428 14.5635H170.885L170.871 13.2373H173.052C173.426 13.2373 173.738 13.1849 173.988 13.0801C174.239 12.9753 174.428 12.8226 174.556 12.6221C174.688 12.4215 174.754 12.1777 174.754 11.8906C174.754 11.5716 174.693 11.3118 174.569 11.1113C174.451 10.9108 174.264 10.765 174.009 10.6738C173.754 10.5781 173.43 10.5303 173.038 10.5303H171.493V19H169.613V9.04688H173.038C173.603 9.04688 174.107 9.10156 174.549 9.21094C174.996 9.31576 175.374 9.47982 175.684 9.70312C175.994 9.92643 176.228 10.2067 176.388 10.5439C176.552 10.8812 176.634 11.2822 176.634 11.7471C176.634 12.1572 176.538 12.5355 176.347 12.8818C176.16 13.2236 175.871 13.5016 175.479 13.7158C175.091 13.93 174.599 14.0531 174.002 14.085L173.428 14.5635ZM173.346 19H170.331L171.117 17.5234H173.346C173.72 17.5234 174.027 17.4619 174.269 17.3389C174.515 17.2158 174.697 17.0472 174.816 16.833C174.939 16.6143 175 16.3636 175 16.0811C175 15.7712 174.945 15.5023 174.836 15.2744C174.731 15.0465 174.563 14.8711 174.33 14.748C174.102 14.625 173.802 14.5635 173.428 14.5635H171.473L171.486 13.2373H173.975L174.405 13.75C174.98 13.7546 175.447 13.8685 175.807 14.0918C176.171 14.3151 176.44 14.6022 176.613 14.9531C176.787 15.304 176.873 15.6823 176.873 16.0879C176.873 16.7259 176.734 17.2614 176.456 17.6943C176.183 18.1273 175.782 18.4531 175.253 18.6719C174.729 18.8906 174.093 19 173.346 19ZM182.998 17.4277V14.0166C182.998 13.766 182.954 13.5495 182.868 13.3672C182.781 13.1849 182.649 13.0436 182.471 12.9434C182.294 12.8431 182.068 12.793 181.794 12.793C181.553 12.793 181.341 12.834 181.159 12.916C180.981 12.998 180.844 13.1143 180.749 13.2646C180.653 13.4105 180.605 13.5791 180.605 13.7705H178.794C178.794 13.4652 178.866 13.1758 179.012 12.9023C179.158 12.6243 179.365 12.3783 179.634 12.1641C179.908 11.9453 180.234 11.7744 180.612 11.6514C180.995 11.5283 181.423 11.4668 181.897 11.4668C182.458 11.4668 182.957 11.5625 183.394 11.7539C183.836 11.9408 184.183 12.2233 184.433 12.6016C184.688 12.9798 184.816 13.4561 184.816 14.0303V17.2568C184.816 17.626 184.839 17.9427 184.884 18.207C184.934 18.4668 185.007 18.6924 185.103 18.8838V19H183.264C183.178 18.8132 183.112 18.5762 183.066 18.2891C183.02 17.9974 182.998 17.7103 182.998 17.4277ZM183.251 14.4951L183.264 15.5684H182.123C181.84 15.5684 181.592 15.598 181.378 15.6572C181.163 15.7119 180.988 15.7939 180.851 15.9033C180.714 16.0081 180.612 16.1357 180.544 16.2861C180.475 16.432 180.441 16.5983 180.441 16.7852C180.441 16.9674 180.482 17.1315 180.564 17.2773C180.651 17.4232 180.774 17.5394 180.933 17.626C181.097 17.708 181.289 17.749 181.507 17.749C181.826 17.749 182.104 17.6852 182.341 17.5576C182.578 17.4255 182.763 17.266 182.895 17.0791C183.027 16.8923 183.098 16.7145 183.107 16.5459L183.627 17.3252C183.563 17.512 183.467 17.7103 183.339 17.9199C183.212 18.1296 183.048 18.3255 182.847 18.5078C182.647 18.6901 182.405 18.8405 182.123 18.959C181.84 19.0775 181.512 19.1367 181.138 19.1367C180.66 19.1367 180.231 19.041 179.853 18.8496C179.475 18.6582 179.176 18.3962 178.958 18.0635C178.739 17.7308 178.629 17.3525 178.629 16.9287C178.629 16.5368 178.702 16.1904 178.848 15.8896C178.994 15.5889 179.211 15.3359 179.498 15.1309C179.785 14.9212 180.14 14.764 180.564 14.6592C180.992 14.5498 181.482 14.4951 182.034 14.4951H183.251ZM191.706 11.6035H193.347V18.7744C193.347 19.4443 193.201 20.0117 192.909 20.4766C192.622 20.946 192.219 21.3014 191.699 21.543C191.18 21.7891 190.576 21.9121 189.888 21.9121C189.591 21.9121 189.27 21.8711 188.924 21.7891C188.582 21.707 188.252 21.5771 187.933 21.3994C187.618 21.2262 187.356 21.0007 187.146 20.7227L187.96 19.6562C188.206 19.9434 188.484 20.1598 188.794 20.3057C189.104 20.4561 189.439 20.5312 189.799 20.5312C190.163 20.5312 190.473 20.4629 190.729 20.3262C190.988 20.194 191.187 19.998 191.323 19.7383C191.465 19.4831 191.535 19.1686 191.535 18.7949V13.292L191.706 11.6035ZM186.709 15.3906V15.2471C186.709 14.682 186.777 14.1693 186.914 13.709C187.051 13.2441 187.247 12.8454 187.502 12.5127C187.762 12.18 188.074 11.9225 188.438 11.7402C188.808 11.5579 189.222 11.4668 189.683 11.4668C190.17 11.4668 190.58 11.5557 190.913 11.7334C191.25 11.9111 191.528 12.1641 191.747 12.4922C191.97 12.8203 192.144 13.21 192.267 13.6611C192.394 14.1077 192.492 14.5999 192.561 15.1377V15.5273C192.497 16.0514 192.394 16.5322 192.253 16.9697C192.116 17.4072 191.934 17.79 191.706 18.1182C191.478 18.4417 191.196 18.6924 190.858 18.8701C190.521 19.0479 190.125 19.1367 189.669 19.1367C189.213 19.1367 188.803 19.0433 188.438 18.8564C188.074 18.6696 187.762 18.4076 187.502 18.0703C187.247 17.7331 187.051 17.3366 186.914 16.8809C186.777 16.4251 186.709 15.9284 186.709 15.3906ZM188.514 15.2471V15.3906C188.514 15.7096 188.546 16.0081 188.609 16.2861C188.673 16.5641 188.771 16.8102 188.903 17.0244C189.035 17.234 189.202 17.3981 189.402 17.5166C189.603 17.6351 189.842 17.6943 190.12 17.6943C190.494 17.6943 190.799 17.6169 191.036 17.4619C191.278 17.3024 191.46 17.0859 191.583 16.8125C191.711 16.5345 191.793 16.2223 191.829 15.876V14.8027C191.806 14.5293 191.756 14.2764 191.679 14.0439C191.606 13.8115 191.503 13.611 191.371 13.4424C191.239 13.2738 191.07 13.1416 190.865 13.0459C190.66 12.9502 190.416 12.9023 190.134 12.9023C189.86 12.9023 189.621 12.9639 189.416 13.0869C189.211 13.2054 189.042 13.3717 188.91 13.5859C188.778 13.8001 188.678 14.0485 188.609 14.3311C188.546 14.6136 188.514 14.9189 188.514 15.2471ZM199.601 16.9766C199.601 16.8216 199.56 16.6826 199.478 16.5596C199.396 16.4365 199.241 16.3249 199.013 16.2246C198.79 16.1198 198.462 16.0218 198.029 15.9307C197.646 15.8486 197.293 15.7461 196.969 15.623C196.646 15.5 196.368 15.3519 196.135 15.1787C195.903 15.001 195.72 14.7936 195.588 14.5566C195.461 14.3151 195.397 14.0371 195.397 13.7227C195.397 13.4173 195.463 13.1302 195.595 12.8613C195.727 12.5879 195.919 12.3486 196.169 12.1436C196.42 11.9339 196.725 11.7699 197.085 11.6514C197.445 11.5283 197.851 11.4668 198.302 11.4668C198.931 11.4668 199.471 11.5693 199.922 11.7744C200.378 11.9795 200.727 12.262 200.968 12.6221C201.21 12.9775 201.331 13.3786 201.331 13.8252H199.526C199.526 13.6292 199.48 13.4515 199.389 13.292C199.303 13.1325 199.168 13.0049 198.986 12.9092C198.803 12.8089 198.573 12.7588 198.295 12.7588C198.045 12.7588 197.833 12.7998 197.66 12.8818C197.491 12.9639 197.363 13.071 197.277 13.2031C197.19 13.3353 197.147 13.4811 197.147 13.6406C197.147 13.7591 197.17 13.8662 197.215 13.9619C197.265 14.0531 197.345 14.1374 197.455 14.2148C197.564 14.2923 197.712 14.363 197.899 14.4268C198.09 14.4906 198.325 14.5521 198.603 14.6113C199.154 14.7207 199.635 14.8665 200.045 15.0488C200.46 15.2266 200.784 15.4635 201.016 15.7598C201.248 16.056 201.365 16.4342 201.365 16.8945C201.365 17.2227 201.294 17.5234 201.153 17.7969C201.011 18.0658 200.806 18.3005 200.538 18.501C200.269 18.7015 199.947 18.8587 199.574 18.9727C199.2 19.082 198.778 19.1367 198.309 19.1367C197.63 19.1367 197.056 19.016 196.586 18.7744C196.117 18.5283 195.761 18.2184 195.52 17.8447C195.278 17.4665 195.158 17.0745 195.158 16.6689H196.887C196.901 16.9561 196.978 17.1862 197.12 17.3594C197.261 17.5326 197.439 17.6579 197.653 17.7354C197.872 17.8083 198.102 17.8447 198.343 17.8447C198.617 17.8447 198.847 17.8083 199.034 17.7354C199.22 17.6579 199.362 17.5553 199.457 17.4277C199.553 17.2956 199.601 17.1452 199.601 16.9766Z" fill="white"/>
<defs>
<linearGradient id="paint0_linear_326_76" x1="106" y1="0" x2="106" y2="28" gradientUnits="userSpaceOnUse">
<stop stop-color="#37B349"/>
<stop offset="1" stop-color="#0C8E46"/>
</linearGradient>
</defs>
</svg>
