<svg width="320" height="102" viewBox="0 0 320 102" fill="none" xmlns="http://www.w3.org/2000/svg">
<path d="M20.696 50.728C16.9867 50.728 13.7453 50.052 10.972 48.7C8.23333 47.348 6.11867 45.476 4.628 43.084C3.13733 40.6573 2.392 37.8667 2.392 34.712C2.392 31.5573 2.94667 28.6453 4.056 25.976C5.16533 23.3067 6.72533 21.0013 8.736 19.06C10.7467 17.084 13.1387 15.5587 15.912 14.484C18.72 13.4093 21.8227 12.872 25.22 12.872C28.5827 12.872 31.564 13.4613 34.164 14.64C36.764 15.8187 38.7053 17.5173 39.988 19.736L32.552 25.664C31.72 24.2773 30.628 23.22 29.276 22.492C27.9587 21.764 26.3813 21.4 24.544 21.4C22.776 21.4 21.164 21.712 19.708 22.336C18.2867 22.96 17.056 23.844 16.016 24.988C14.976 26.132 14.1787 27.484 13.624 29.044C13.0693 30.5693 12.792 32.2333 12.792 34.036C12.792 35.6653 13.1387 37.104 13.832 38.352C14.56 39.5653 15.5827 40.5187 16.9 41.212C18.252 41.8707 19.8467 42.2 21.684 42.2C23.3133 42.2 24.8733 41.8707 26.364 41.212C27.8893 40.5533 29.2933 39.4787 30.576 37.988L36.66 43.968C34.6147 46.4293 32.2573 48.18 29.588 49.22C26.9187 50.2253 23.9547 50.728 20.696 50.728ZM54.5833 50.468C51.602 50.468 49.002 49.9307 46.7833 48.856C44.5647 47.7813 42.8487 46.2907 41.6353 44.384C40.422 42.4427 39.8153 40.1893 39.8153 37.624C39.8153 34.504 40.5607 31.7307 42.0513 29.304C43.542 26.8427 45.5873 24.9013 48.1873 23.48C50.7873 22.0587 53.7687 21.348 57.1313 21.348C60.1473 21.348 62.7473 21.8853 64.9313 22.96C67.15 24 68.866 25.4733 70.0793 27.38C71.2927 29.2867 71.8993 31.54 71.8993 34.14C71.8993 37.26 71.154 40.0507 69.6633 42.512C68.1727 44.9733 66.1273 46.9147 63.5273 48.336C60.9273 49.7573 57.946 50.468 54.5833 50.468ZM55.1553 42.616C56.4727 42.616 57.634 42.2867 58.6393 41.628C59.6447 40.9347 60.4247 39.9987 60.9793 38.82C61.5687 37.6413 61.8633 36.2547 61.8633 34.66C61.8633 33.1 61.3953 31.8 60.4593 30.76C59.558 29.72 58.258 29.2 56.5593 29.2C55.242 29.2 54.0807 29.5293 53.0753 30.188C52.07 30.8467 51.2727 31.7827 50.6833 32.996C50.1287 34.1747 49.8513 35.5613 49.8513 37.156C49.8513 38.82 50.3193 40.1547 51.2553 41.16C52.1913 42.1307 53.4913 42.616 55.1553 42.616ZM97.7974 21.348C100.189 21.348 102.217 21.8507 103.881 22.856C105.545 23.8267 106.724 25.2827 107.417 27.224C108.145 29.1307 108.215 31.5227 107.625 34.4L104.505 50H94.6254L97.5374 35.336C97.9187 33.5333 97.7974 32.1467 97.1734 31.176C96.584 30.2053 95.4747 29.72 93.8454 29.72C92.1814 29.72 90.7774 30.24 89.6334 31.28C88.4894 32.32 87.692 33.9147 87.2414 36.064L84.4334 50H74.5534L80.1694 21.816H89.5294L87.9174 29.72L86.6694 27.432C88.0214 25.3173 89.6854 23.7747 91.6614 22.804C93.672 21.8333 95.7174 21.348 97.7974 21.348ZM124.28 50.468C122.096 50.468 120.224 50.052 118.664 49.22C117.104 48.3533 115.995 47.1053 115.336 45.476C114.678 43.812 114.574 41.836 115.024 39.548L119.808 15.524H129.688L124.904 39.496C124.731 40.5707 124.852 41.4027 125.268 41.992C125.684 42.5467 126.395 42.824 127.4 42.824C127.92 42.824 128.423 42.7547 128.908 42.616C129.394 42.4773 129.879 42.2693 130.364 41.992L131.612 48.804C130.572 49.3933 129.411 49.8093 128.128 50.052C126.88 50.3293 125.598 50.468 124.28 50.468ZM112.736 30.24L114.244 22.856H134.628L133.172 30.24H112.736ZM148.13 50.468C146.119 50.468 144.195 49.9653 142.358 48.96C140.52 47.9547 139.03 46.4987 137.886 44.592C136.776 42.6853 136.222 40.3627 136.222 37.624C136.222 35.2667 136.62 33.1 137.418 31.124C138.215 29.148 139.307 27.432 140.694 25.976C142.115 24.52 143.744 23.3933 145.582 22.596C147.454 21.764 149.43 21.348 151.51 21.348C153.798 21.348 155.756 21.7987 157.386 22.7C159.05 23.5667 160.263 24.988 161.026 26.964C161.788 28.9053 161.962 31.54 161.546 34.868C161.234 38.0227 160.488 40.7787 159.31 43.136C158.131 45.4933 156.606 47.3133 154.734 48.596C152.862 49.844 150.66 50.468 148.13 50.468ZM151.562 42.512C152.879 42.512 154.04 42.1827 155.046 41.524C156.051 40.8653 156.831 39.9467 157.386 38.768C157.975 37.5893 158.27 36.22 158.27 34.66C158.27 33.0307 157.802 31.7307 156.866 30.76C155.93 29.7547 154.612 29.252 152.914 29.252C151.631 29.252 150.47 29.5987 149.43 30.292C148.424 30.9507 147.627 31.8693 147.038 33.048C146.483 34.2267 146.206 35.596 146.206 37.156C146.206 38.7853 146.674 40.0853 147.61 41.056C148.546 42.0267 149.863 42.512 151.562 42.512ZM155.722 50L156.71 45.268L158.582 35.96L159.83 26.652L160.818 21.816H170.698L165.082 50H155.722ZM188.238 50.468C185.222 50.468 182.605 49.9307 180.386 48.856C178.167 47.7813 176.434 46.2907 175.186 44.384C173.973 42.4427 173.366 40.1893 173.366 37.624C173.366 34.504 174.111 31.7307 175.602 29.304C177.093 26.8427 179.155 24.9013 181.79 23.48C184.425 22.0587 187.441 21.348 190.838 21.348C194.027 21.348 196.783 22.024 199.106 23.376C201.463 24.728 203.162 26.6 204.202 28.992L195.778 32.996C195.258 31.6787 194.513 30.7253 193.542 30.136C192.606 29.5467 191.531 29.252 190.318 29.252C189.001 29.252 187.805 29.5987 186.73 30.292C185.69 30.9507 184.875 31.852 184.286 32.996C183.697 34.14 183.402 35.492 183.402 37.052C183.402 38.6813 183.87 39.9987 184.806 41.004C185.742 42.0093 187.111 42.512 188.914 42.512C190.197 42.512 191.341 42.2347 192.346 41.68C193.386 41.0907 194.27 40.1373 194.998 38.82L202.226 43.188C200.874 45.476 198.967 47.2613 196.506 48.544C194.079 49.8267 191.323 50.468 188.238 50.468ZM217.74 50.468C215.556 50.468 213.684 50.052 212.124 49.22C210.564 48.3533 209.455 47.1053 208.796 45.476C208.138 43.812 208.034 41.836 208.484 39.548L213.268 15.524H223.148L218.364 39.496C218.191 40.5707 218.312 41.4027 218.728 41.992C219.144 42.5467 219.855 42.824 220.86 42.824C221.38 42.824 221.883 42.7547 222.368 42.616C222.854 42.4773 223.339 42.2693 223.824 41.992L225.072 48.804C224.032 49.3933 222.871 49.8093 221.588 50.052C220.34 50.3293 219.058 50.468 217.74 50.468ZM206.196 30.24L207.704 22.856H228.088L226.632 30.24H206.196Z" fill="url(#paint0_linear_307_127)"/>
<path d="M260.46 50.832C256.681 50.832 253.527 50.1213 250.996 48.7C248.465 47.244 246.663 45.2333 245.588 42.668C244.548 40.068 244.375 37.052 245.068 33.62L249.072 13.6H261.344L257.392 33.412C257.149 34.6947 257.063 35.804 257.132 36.74C257.201 37.676 257.427 38.456 257.808 39.08C258.224 39.704 258.779 40.172 259.472 40.484C260.165 40.7613 260.997 40.9 261.968 40.9C263.147 40.9 264.152 40.6573 264.984 40.172C265.851 39.6867 266.561 38.8893 267.116 37.78C267.705 36.6707 268.173 35.2147 268.52 33.412L272.472 13.6H284.536L280.428 34.14C279.353 39.5827 277.152 43.7253 273.824 46.568C270.496 49.4107 266.041 50.832 260.46 50.832ZM298.377 50.832C296.228 50.832 294.165 50.676 292.189 50.364C290.213 50.052 288.411 49.6187 286.781 49.064C285.187 48.4747 283.8 47.8333 282.621 47.14L287.353 38.092C288.705 38.8547 290.057 39.496 291.409 40.016C292.796 40.5013 294.165 40.8653 295.517 41.108C296.904 41.3507 298.273 41.472 299.625 41.472C300.7 41.472 301.584 41.3853 302.277 41.212C303.005 41.0387 303.543 40.796 303.889 40.484C304.271 40.1373 304.461 39.756 304.461 39.34C304.461 38.7853 304.149 38.3347 303.525 37.988C302.901 37.6413 302.069 37.3293 301.029 37.052C300.024 36.7747 298.897 36.4973 297.649 36.22C296.436 35.908 295.205 35.5267 293.957 35.076C292.709 34.5907 291.565 33.984 290.525 33.256C289.52 32.528 288.705 31.6093 288.081 30.5C287.457 29.3907 287.145 28.0387 287.145 26.444C287.145 23.6707 287.873 21.2613 289.329 19.216C290.82 17.1707 292.935 15.5933 295.673 14.484C298.447 13.34 301.74 12.768 305.553 12.768C308.257 12.768 310.771 13.0453 313.093 13.6C315.451 14.12 317.479 14.8827 319.177 15.888L314.757 24.832C313.301 23.9307 311.707 23.2547 309.973 22.804C308.275 22.3533 306.541 22.128 304.773 22.128C303.595 22.128 302.607 22.2493 301.809 22.492C301.012 22.7 300.405 22.9947 299.989 23.376C299.608 23.7573 299.417 24.156 299.417 24.572C299.417 25.1267 299.729 25.5947 300.353 25.976C300.977 26.3227 301.809 26.6347 302.849 26.912C303.889 27.1547 305.016 27.432 306.229 27.744C307.477 28.0213 308.708 28.3853 309.921 28.836C311.169 29.252 312.313 29.824 313.353 30.552C314.393 31.2453 315.225 32.1467 315.849 33.256C316.473 34.3307 316.785 35.6653 316.785 37.26C316.785 39.964 316.04 42.3387 314.549 44.384C313.059 46.3947 310.927 47.972 308.153 49.116C305.415 50.26 302.156 50.832 298.377 50.832Z" fill="#1D1D1D"/>
<path d="M14.756 95.308C13.2013 95.308 11.8373 95.022 10.664 94.45C9.50533 93.878 8.60333 93.086 7.958 92.074C7.32733 91.0473 7.012 89.8667 7.012 88.532C7.012 87.1973 7.24667 85.9653 7.716 84.836C8.18533 83.7067 8.85267 82.7313 9.718 81.91C10.5833 81.074 11.61 80.4287 12.798 79.974C14.0007 79.5193 15.3353 79.292 16.802 79.292C18.342 79.292 19.6693 79.534 20.784 80.018C21.9133 80.502 22.8227 81.206 23.512 82.13L20.388 84.594C19.8747 83.9633 19.3173 83.5233 18.716 83.274C18.1147 83.0247 17.4107 82.9 16.604 82.9C15.812 82.9 15.0933 83.032 14.448 83.296C13.8173 83.56 13.2747 83.934 12.82 84.418C12.3653 84.902 12.0133 85.474 11.764 86.134C11.5293 86.7793 11.412 87.4833 11.412 88.246C11.412 88.9353 11.566 89.544 11.874 90.072C12.182 90.5853 12.6293 90.9887 13.216 91.282C13.8027 91.5607 14.514 91.7 15.35 91.7C16.0247 91.7 16.67 91.59 17.286 91.37C17.9167 91.15 18.5473 90.7833 19.178 90.27L20.828 93.46C20.036 94.0467 19.1193 94.5013 18.078 94.824C17.0367 95.1467 15.9293 95.308 14.756 95.308ZM17.11 92.778L18.276 86.97H22.126L20.828 93.46L17.11 92.778ZM30.2557 95.198C28.9797 95.198 27.865 94.978 26.9117 94.538C25.973 94.0833 25.2397 93.4527 24.7117 92.646C24.1837 91.8247 23.9197 90.864 23.9197 89.764C23.9197 88.444 24.2204 87.2707 24.8217 86.244C25.423 85.2027 26.2664 84.3813 27.3517 83.78C28.437 83.1787 29.6984 82.878 31.1357 82.878C32.353 82.878 33.3944 83.098 34.2597 83.538C35.1397 83.978 35.8144 84.594 36.2837 85.386C36.7677 86.1633 37.0097 87.0727 37.0097 88.114C37.0097 88.466 36.9877 88.8033 36.9437 89.126C36.8997 89.4487 36.841 89.764 36.7677 90.072H27.1977L27.5937 87.872H34.8317L33.0937 88.51C33.211 87.938 33.189 87.4613 33.0277 87.08C32.881 86.684 32.6244 86.3833 32.2577 86.178C31.9057 85.958 31.4657 85.848 30.9377 85.848C30.263 85.848 29.7057 86.0167 29.2657 86.354C28.8404 86.6913 28.5177 87.1533 28.2977 87.74C28.0924 88.312 27.9897 88.9353 27.9897 89.61C27.9897 90.4313 28.217 91.04 28.6717 91.436C29.1264 91.8173 29.8084 92.008 30.7177 92.008C31.2457 92.008 31.759 91.9273 32.2577 91.766C32.771 91.59 33.2184 91.348 33.5997 91.04L35.3377 93.658C34.5897 94.2153 33.7757 94.6113 32.8957 94.846C32.0304 95.0807 31.1504 95.198 30.2557 95.198ZM43.273 95.198C42.349 95.198 41.557 95.022 40.897 94.67C40.237 94.3033 39.7677 93.7753 39.489 93.086C39.2103 92.382 39.1663 91.546 39.357 90.578L41.381 80.414H45.561L43.537 90.556C43.4637 91.0107 43.515 91.3627 43.691 91.612C43.867 91.8467 44.1677 91.964 44.593 91.964C44.813 91.964 45.0257 91.9347 45.231 91.876C45.4363 91.8173 45.6417 91.7293 45.847 91.612L46.375 94.494C45.935 94.7433 45.4437 94.9193 44.901 95.022C44.373 95.1393 43.8303 95.198 43.273 95.198ZM38.389 86.64L39.027 83.516H47.651L47.035 86.64H38.389ZM55.3132 95L58.3932 79.6H62.7492L59.6692 95H55.3132ZM72.8443 82.878C73.8563 82.878 74.7143 83.0907 75.4183 83.516C76.1223 83.9267 76.6209 84.5427 76.9143 85.364C77.2223 86.1707 77.2516 87.1827 77.0023 88.4L75.6823 95H71.5023L72.7343 88.796C72.8956 88.0333 72.8443 87.4467 72.5803 87.036C72.3309 86.6253 71.8616 86.42 71.1723 86.42C70.4683 86.42 69.8743 86.64 69.3903 87.08C68.9063 87.52 68.5689 88.1947 68.3783 89.104L67.1903 95H63.0103L65.3863 83.076H69.3463L68.6643 86.42L68.1363 85.452C68.7083 84.5573 69.4123 83.9047 70.2483 83.494C71.0989 83.0833 71.9643 82.878 72.8443 82.878ZM89.065 95L91.463 83.054H86.733L87.437 79.6H101.231L100.527 83.054H95.819L93.421 95H89.065ZM105.435 95.198C104.173 95.198 103.073 94.9707 102.135 94.516C101.196 94.0613 100.47 93.4307 99.9567 92.624C99.4433 91.8027 99.1867 90.8493 99.1867 89.764C99.1867 88.444 99.502 87.2707 100.133 86.244C100.763 85.2027 101.629 84.3813 102.729 83.78C103.829 83.1787 105.09 82.878 106.513 82.878C107.789 82.878 108.889 83.1053 109.813 83.56C110.751 84 111.477 84.6233 111.991 85.43C112.504 86.2367 112.761 87.19 112.761 88.29C112.761 89.61 112.445 90.7907 111.815 91.832C111.184 92.8733 110.319 93.6947 109.219 94.296C108.119 94.8973 106.857 95.198 105.435 95.198ZM105.677 91.876C106.234 91.876 106.725 91.7367 107.151 91.458C107.576 91.1647 107.906 90.7687 108.141 90.27C108.39 89.7713 108.515 89.1847 108.515 88.51C108.515 87.85 108.317 87.3 107.921 86.86C107.539 86.42 106.989 86.2 106.271 86.2C105.713 86.2 105.222 86.3393 104.797 86.618C104.371 86.8967 104.034 87.2927 103.785 87.806C103.55 88.3047 103.433 88.8913 103.433 89.566C103.433 90.27 103.631 90.8347 104.027 91.26C104.423 91.6707 104.973 91.876 105.677 91.876ZM119.01 95.198C118.042 95.198 117.198 94.9927 116.48 94.582C115.776 94.1567 115.277 93.5333 114.984 92.712C114.69 91.8907 114.661 90.8713 114.896 89.654L116.216 83.076H120.396L119.164 89.258C119.002 90.0207 119.046 90.6073 119.296 91.018C119.56 91.4287 120.022 91.634 120.682 91.634C121.386 91.634 121.972 91.4213 122.442 90.996C122.926 90.556 123.256 89.8813 123.432 88.972L124.62 83.076H128.8L126.424 95H122.464L123.146 91.634L123.674 92.602C123.102 93.4967 122.398 94.1567 121.562 94.582C120.74 94.9927 119.89 95.198 119.01 95.198ZM136.222 95.198C134.946 95.198 133.839 94.9707 132.9 94.516C131.961 94.0613 131.228 93.4307 130.7 92.624C130.187 91.8027 129.93 90.8493 129.93 89.764C129.93 88.444 130.245 87.2707 130.876 86.244C131.507 85.2027 132.379 84.3813 133.494 83.78C134.609 83.1787 135.885 82.878 137.322 82.878C138.671 82.878 139.837 83.164 140.82 83.736C141.817 84.308 142.536 85.1 142.976 86.112L139.412 87.806C139.192 87.2487 138.877 86.8453 138.466 86.596C138.07 86.3467 137.615 86.222 137.102 86.222C136.545 86.222 136.039 86.3687 135.584 86.662C135.144 86.9407 134.799 87.322 134.55 87.806C134.301 88.29 134.176 88.862 134.176 89.522C134.176 90.2113 134.374 90.7687 134.77 91.194C135.166 91.6193 135.745 91.832 136.508 91.832C137.051 91.832 137.535 91.7147 137.96 91.48C138.4 91.2307 138.774 90.8273 139.082 90.27L142.14 92.118C141.568 93.086 140.761 93.8413 139.72 94.384C138.693 94.9267 137.527 95.198 136.222 95.198ZM153.021 82.878C154.004 82.878 154.847 83.0907 155.551 83.516C156.27 83.9267 156.783 84.5427 157.091 85.364C157.399 86.1707 157.429 87.1827 157.179 88.4L155.859 95H151.679L152.911 88.796C153.073 88.0333 153.021 87.4467 152.757 87.036C152.508 86.6253 152.039 86.42 151.349 86.42C150.645 86.42 150.051 86.64 149.567 87.08C149.083 87.52 148.746 88.1947 148.555 89.104L147.367 95H143.187L146.443 78.676H150.623L149.083 86.398L148.313 85.452C148.885 84.5573 149.589 83.9047 150.425 83.494C151.276 83.0833 152.141 82.878 153.021 82.878ZM170.232 89.39C170.335 88.8767 170.503 88.4367 170.738 88.07C170.987 87.6887 171.266 87.3587 171.574 87.08C171.897 86.7867 172.219 86.5153 172.542 86.266C172.879 86.0167 173.187 85.782 173.466 85.562C173.759 85.3273 173.994 85.0853 174.17 84.836C174.346 84.572 174.434 84.2713 174.434 83.934C174.434 83.5673 174.28 83.274 173.972 83.054C173.679 82.834 173.246 82.724 172.674 82.724C172.073 82.724 171.508 82.8707 170.98 83.164C170.452 83.4427 170.005 83.8313 169.638 84.33L166.822 82.46C167.482 81.5067 168.399 80.744 169.572 80.172C170.76 79.5853 172.109 79.292 173.62 79.292C174.705 79.292 175.644 79.446 176.436 79.754C177.228 80.062 177.837 80.502 178.262 81.074C178.702 81.6313 178.922 82.2987 178.922 83.076C178.922 83.692 178.812 84.2273 178.592 84.682C178.387 85.1367 178.115 85.5327 177.778 85.87C177.455 86.2073 177.096 86.5153 176.7 86.794C176.319 87.0727 175.945 87.344 175.578 87.608C175.226 87.8573 174.918 88.1287 174.654 88.422C174.39 88.7007 174.221 89.0233 174.148 89.39H170.232ZM171.354 95.198C170.665 95.198 170.093 94.9927 169.638 94.582C169.198 94.1713 168.978 93.6653 168.978 93.064C168.978 92.36 169.227 91.7807 169.726 91.326C170.239 90.8567 170.87 90.622 171.618 90.622C172.322 90.622 172.887 90.82 173.312 91.216C173.752 91.612 173.972 92.1107 173.972 92.712C173.972 93.1667 173.855 93.5847 173.62 93.966C173.385 94.3327 173.07 94.6333 172.674 94.868C172.293 95.088 171.853 95.198 171.354 95.198Z" fill="#505050"/>
<defs>
<linearGradient id="paint0_linear_307_127" x1="114.5" y1="0" x2="114.5" y2="63" gradientUnits="userSpaceOnUse">
<stop stop-color="#0A7238"/>
<stop offset="1" stop-color="#22863A"/>
</linearGradient>
</defs>
</svg>
