<svg width="203" height="64" viewBox="0 0 203 64" fill="none" xmlns="http://www.w3.org/2000/svg">
<path d="M13.1453 32.4624C10.7893 32.4624 8.7305 32.033 6.96899 31.1743C5.22949 30.3156 3.88634 29.1265 2.93953 27.6072C1.99271 26.0659 1.51931 24.2934 1.51931 22.2897C1.51931 20.2859 1.87161 18.4363 2.57621 16.7409C3.28082 15.0454 4.27167 13.5812 5.54877 12.3481C6.82587 11.093 8.34517 10.1242 10.1067 9.44162C11.8902 8.75903 13.8609 8.41774 16.0188 8.41774C18.1546 8.41774 20.0482 8.79206 21.6996 9.5407C23.3511 10.2893 24.5841 11.3683 25.3988 12.7775L20.6758 16.5427C20.1473 15.662 19.4537 14.9904 18.595 14.528C17.7583 14.0656 16.7564 13.8344 15.5894 13.8344C14.4664 13.8344 13.4426 14.0326 12.5178 14.4289C11.615 14.8252 10.8333 15.3867 10.1727 16.1133C9.51217 16.84 9.00574 17.6987 8.65344 18.6896C8.30113 19.6584 8.12498 20.7153 8.12498 21.8603C8.12498 22.8952 8.34517 23.809 8.78555 24.6016C9.24795 25.3723 9.8975 25.9778 10.7342 26.4182C11.593 26.8366 12.6058 27.0457 13.7728 27.0457C14.8077 27.0457 15.7986 26.8366 16.7454 26.4182C17.7142 25.9998 18.606 25.3173 19.4207 24.3704L23.285 28.1687C21.9859 29.7321 20.4886 30.844 18.7931 31.5046C17.0977 32.1431 15.2151 32.4624 13.1453 32.4624ZM34.637 32.2973C32.7433 32.2973 31.0919 31.956 29.6827 31.2734C28.2735 30.5908 27.1836 29.644 26.4129 28.4329C25.6422 27.1999 25.2569 25.7686 25.2569 24.1392C25.2569 22.1575 25.7303 20.396 26.6771 18.8547C27.6239 17.2914 28.9231 16.0583 30.5745 15.1555C32.2259 14.2528 34.1195 13.8014 36.2554 13.8014C38.171 13.8014 39.8224 14.1427 41.2096 14.8252C42.6188 15.4858 43.7088 16.4216 44.4794 17.6327C45.2501 18.8437 45.6354 20.2749 45.6354 21.9263C45.6354 23.908 45.162 25.6806 44.2152 27.2439C43.2684 28.8073 41.9693 30.0403 40.3178 30.9431C38.6664 31.8459 36.7728 32.2973 34.637 32.2973ZM35.0003 27.31C35.837 27.31 36.5746 27.1008 37.2132 26.6824C37.8517 26.2421 38.3472 25.6475 38.6995 24.8989C39.0738 24.1503 39.2609 23.2695 39.2609 22.2566C39.2609 21.2658 38.9637 20.4401 38.3692 19.7795C37.7967 19.1189 36.971 18.7886 35.892 18.7886C35.0553 18.7886 34.3177 18.9978 33.6791 19.4162C33.0406 19.8345 32.5342 20.4291 32.1598 21.1997C31.8075 21.9484 31.6314 22.8291 31.6314 23.842C31.6314 24.8989 31.9286 25.7466 32.5231 26.3852C33.1177 27.0017 33.9434 27.31 35.0003 27.31ZM62.0848 13.8014C63.6041 13.8014 64.8922 14.1206 65.9492 14.7592C67.0061 15.3757 67.7547 16.3005 68.1951 17.5336C68.6575 18.7446 68.7015 20.2639 68.3272 22.0915L66.3455 32H60.0701L61.9197 22.686C62.1619 21.541 62.0848 20.6603 61.6885 20.0437C61.3142 19.4272 60.6096 19.1189 59.5747 19.1189C58.5178 19.1189 57.626 19.4492 56.8994 20.1098C56.1728 20.7704 55.6663 21.7832 55.3801 23.1484L53.5965 32H47.3211L50.8882 14.0986H56.8333L55.8094 19.1189L55.0168 17.6657C55.8755 16.3225 56.9324 15.3427 58.1875 14.7262C59.4646 14.1096 60.7637 13.8014 62.0848 13.8014ZM78.9058 32.2973C77.5186 32.2973 76.3296 32.033 75.3388 31.5046C74.3479 30.9541 73.6433 30.1614 73.2249 29.1265C72.8066 28.0696 72.7405 26.8145 73.0268 25.3613L76.0654 10.1022H82.3408L79.3022 25.3283C79.1921 26.0109 79.2691 26.5393 79.5334 26.9136C79.7976 27.2659 80.249 27.4421 80.8875 27.4421C81.2178 27.4421 81.5371 27.398 81.8454 27.31C82.1536 27.2219 82.4619 27.0898 82.7701 26.9136L83.5628 31.2403C82.9023 31.6147 82.1646 31.8789 81.3499 32.033C80.5572 32.2092 79.7425 32.2973 78.9058 32.2973ZM71.5735 19.4492L72.5314 14.7592H85.4785L84.5537 19.4492H71.5735ZM94.054 32.2973C92.7769 32.2973 91.5548 31.978 90.3878 31.3394C89.2208 30.7009 88.274 29.7761 87.5474 28.565C86.8428 27.354 86.4905 25.8787 86.4905 24.1392C86.4905 22.642 86.7437 21.2658 87.2501 20.0107C87.7566 18.7556 88.4502 17.6657 89.3309 16.7409C90.2337 15.8161 91.2686 15.1005 92.4356 14.594C93.6246 14.0656 94.8797 13.8014 96.2008 13.8014C97.6541 13.8014 98.8981 14.0876 99.933 14.6601C100.99 15.2106 101.761 16.1134 102.245 17.3684C102.729 18.6015 102.84 20.2749 102.575 22.3887C102.377 24.3925 101.904 26.143 101.155 27.6403C100.406 29.1375 99.4376 30.2935 98.2486 31.1082C97.0596 31.9009 95.6614 32.2973 94.054 32.2973ZM96.2339 27.2439C97.0706 27.2439 97.8082 27.0347 98.4468 26.6164C99.0853 26.198 99.5807 25.6145 99.933 24.8659C100.307 24.1172 100.495 23.2475 100.495 22.2566C100.495 21.2217 100.197 20.396 99.6027 19.7795C99.0082 19.141 98.1715 18.8217 97.0926 18.8217C96.2779 18.8217 95.5403 19.0419 94.8797 19.4822C94.2411 19.9006 93.7347 20.4841 93.3604 21.2327C93.0081 21.9814 92.8319 22.8511 92.8319 23.842C92.8319 24.8769 93.1292 25.7026 93.7237 26.3191C94.3182 26.9356 95.1549 27.2439 96.2339 27.2439ZM98.8761 32L99.5037 28.9944L100.693 23.0823L101.485 17.1703L102.113 14.0986H108.388L104.821 32H98.8761ZM119.529 32.2973C117.614 32.2973 115.951 31.956 114.542 31.2734C113.133 30.5908 112.032 29.644 111.239 28.4329C110.468 27.1999 110.083 25.7686 110.083 24.1392C110.083 22.1575 110.556 20.396 111.503 18.8547C112.45 17.2914 113.76 16.0583 115.434 15.1555C117.107 14.2528 119.023 13.8014 121.181 13.8014C123.206 13.8014 124.957 14.2307 126.432 15.0895C127.929 15.9482 129.008 17.1372 129.669 18.6565L124.318 21.1997C123.988 20.363 123.515 19.7575 122.898 19.3832C122.304 19.0088 121.621 18.8217 120.85 18.8217C120.014 18.8217 119.254 19.0419 118.571 19.4822C117.911 19.9006 117.393 20.4731 117.019 21.1997C116.645 21.9263 116.458 22.7851 116.458 23.7759C116.458 24.8108 116.755 25.6475 117.349 26.2861C117.944 26.9246 118.814 27.2439 119.959 27.2439C120.773 27.2439 121.5 27.0678 122.138 26.7155C122.799 26.3411 123.36 25.7356 123.823 24.8989L128.414 27.6733C127.555 29.1265 126.344 30.2605 124.781 31.0752C123.239 31.8899 121.489 32.2973 119.529 32.2973ZM138.268 32.2973C136.881 32.2973 135.692 32.033 134.701 31.5046C133.71 30.9541 133.005 30.1614 132.587 29.1265C132.169 28.0696 132.103 26.8145 132.389 25.3613L135.427 10.1022H141.703L138.664 25.3283C138.554 26.0109 138.631 26.5393 138.895 26.9136C139.16 27.2659 139.611 27.4421 140.25 27.4421C140.58 27.4421 140.899 27.398 141.207 27.31C141.516 27.2219 141.824 27.0898 142.132 26.9136L142.925 31.2403C142.264 31.6147 141.527 31.8789 140.712 32.033C139.919 32.2092 139.105 32.2973 138.268 32.2973ZM130.936 19.4492L131.893 14.7592H144.841L143.916 19.4492H130.936Z" fill="white"/>
<path d="M165.434 32.5285C163.034 32.5285 161.03 32.0771 159.423 31.1743C157.816 30.2495 156.671 28.9724 155.988 27.343C155.327 25.6916 155.217 23.7759 155.658 21.5961L158.201 8.88013H165.996L163.485 21.4639C163.331 22.2786 163.276 22.9833 163.32 23.5778C163.364 24.1723 163.507 24.6677 163.75 25.064C164.014 25.4604 164.366 25.7576 164.807 25.9558C165.247 26.132 165.775 26.22 166.392 26.22C167.141 26.22 167.779 26.0659 168.308 25.7576C168.858 25.4494 169.309 24.9429 169.662 24.2383C170.036 23.5337 170.333 22.6089 170.553 21.4639L173.064 8.88013H180.726L178.117 21.9263C177.434 25.3833 176.036 28.0146 173.922 29.8201C171.809 31.6257 168.979 32.5285 165.434 32.5285ZM189.518 32.5285C188.153 32.5285 186.842 32.4294 185.587 32.2312C184.332 32.033 183.187 31.7578 182.152 31.4055C181.139 31.0312 180.259 30.6238 179.51 30.1834L182.516 24.4365C183.374 24.9209 184.233 25.3283 185.092 25.6586C185.973 25.9668 186.842 26.198 187.701 26.3521C188.582 26.5063 189.452 26.5833 190.31 26.5833C190.993 26.5833 191.554 26.5283 191.995 26.4182C192.457 26.3081 192.799 26.154 193.019 25.9558C193.261 25.7356 193.382 25.4934 193.382 25.2292C193.382 24.8769 193.184 24.5906 192.787 24.3704C192.391 24.1503 191.863 23.9521 191.202 23.7759C190.564 23.5998 189.848 23.4236 189.055 23.2475C188.285 23.0493 187.503 22.8071 186.71 22.5209C185.918 22.2126 185.191 21.8273 184.53 21.3649C183.892 20.9025 183.374 20.319 182.978 19.6144C182.582 18.9098 182.384 18.051 182.384 17.0381C182.384 15.2766 182.846 13.7463 183.771 12.4472C184.718 11.1481 186.061 10.1462 187.8 9.44162C189.562 8.71499 191.654 8.35168 194.076 8.35168C195.793 8.35168 197.389 8.52783 198.865 8.88013C200.362 9.21042 201.65 9.69483 202.729 10.3334L199.922 16.0143C198.997 15.4418 197.984 15.0124 196.883 14.7262C195.804 14.4399 194.703 14.2968 193.58 14.2968C192.832 14.2968 192.204 14.3739 191.698 14.528C191.191 14.6601 190.806 14.8473 190.542 15.0895C190.299 15.3317 190.178 15.5849 190.178 15.8491C190.178 16.2014 190.376 16.4987 190.773 16.7409C191.169 16.9611 191.698 17.1592 192.358 17.3354C193.019 17.4895 193.734 17.6657 194.505 17.8639C195.298 18.04 196.079 18.2712 196.85 18.5575C197.643 18.8217 198.369 19.185 199.03 19.6474C199.69 20.0878 200.219 20.6603 200.615 21.3649C201.012 22.0474 201.21 22.8952 201.21 23.908C201.21 25.6255 200.736 27.1338 199.79 28.4329C198.843 29.71 197.489 30.7119 195.727 31.4385C193.988 32.1651 191.918 32.5285 189.518 32.5285Z" fill="black"/>
<path d="M9.37251 59.9273C8.38504 59.9273 7.51868 59.7456 6.77343 59.3823C6.03749 59.019 5.46457 58.5159 5.05468 57.8731C4.65411 57.221 4.45382 56.4711 4.45382 55.6234C4.45382 54.7757 4.60287 53.9932 4.90097 53.2759C5.19907 52.5585 5.62294 51.939 6.17256 51.4174C6.72219 50.8864 7.37429 50.4765 8.12886 50.1877C8.89275 49.8989 9.74048 49.7545 10.672 49.7545C11.6502 49.7545 12.4933 49.9082 13.2013 50.2156C13.9186 50.5231 14.4961 50.9702 14.934 51.5571L12.9497 53.1221C12.6237 52.7216 12.2697 52.4421 11.8877 52.2837C11.5058 52.1254 11.0586 52.0462 10.5463 52.0462C10.0432 52.0462 9.58677 52.13 9.17688 52.2977C8.7763 52.4654 8.43162 52.7029 8.14283 53.0104C7.85405 53.3178 7.63047 53.6811 7.4721 54.1003C7.32305 54.5102 7.24853 54.9573 7.24853 55.4418C7.24853 55.8796 7.34634 56.2662 7.54197 56.6016C7.7376 56.9276 8.02173 57.1838 8.39436 57.3701C8.76699 57.5471 9.2188 57.6356 9.74979 57.6356C10.1783 57.6356 10.5882 57.5657 10.9795 57.426C11.38 57.2863 11.7806 57.0534 12.1812 56.7273L13.2292 58.7535C12.7262 59.1261 12.1439 59.4149 11.4825 59.6198C10.8211 59.8248 10.1178 59.9273 9.37251 59.9273ZM10.8677 58.3203L11.6083 54.6313H14.0536L13.2292 58.7535L10.8677 58.3203ZM19.2173 59.8574C18.4068 59.8574 17.6988 59.7177 17.0933 59.4382C16.4971 59.1494 16.0313 58.7488 15.696 58.2365C15.3606 57.7148 15.1929 57.1046 15.1929 56.4059C15.1929 55.5675 15.3839 54.8223 15.7658 54.1702C16.1478 53.5087 16.6834 52.9871 17.3728 52.6051C18.0622 52.2232 18.8633 52.0322 19.7762 52.0322C20.5494 52.0322 21.2109 52.1719 21.7605 52.4514C22.3194 52.7309 22.748 53.1221 23.0461 53.6252C23.3535 54.1189 23.5072 54.6965 23.5072 55.3579C23.5072 55.5815 23.4932 55.7957 23.4653 56.0007C23.4373 56.2056 23.4001 56.4059 23.3535 56.6016H17.275L17.5265 55.2042H22.1238L21.0199 55.6094C21.0944 55.2461 21.0804 54.9434 20.978 54.7012C20.8848 54.4496 20.7218 54.2587 20.4889 54.1282C20.2653 53.9885 19.9858 53.9186 19.6505 53.9186C19.222 53.9186 18.868 54.0258 18.5885 54.24C18.3183 54.4543 18.1134 54.7477 17.9737 55.1204C17.8432 55.4837 17.778 55.8796 17.778 56.3081C17.778 56.8298 17.9224 57.2164 18.2112 57.4679C18.5 57.7101 18.9332 57.8312 19.5107 57.8312C19.8461 57.8312 20.1722 57.78 20.4889 57.6775C20.8149 57.5657 21.0991 57.412 21.3413 57.2164L22.4452 58.8792C21.9701 59.2332 21.4531 59.4848 20.8941 59.6338C20.3445 59.7829 19.7856 59.8574 19.2173 59.8574ZM27.4854 59.8574C26.8985 59.8574 26.3954 59.7456 25.9762 59.522C25.557 59.2891 25.2589 58.9538 25.0819 58.5159C24.9049 58.0688 24.877 57.5378 24.9981 56.9229L26.2837 50.4672H28.9386L27.6531 56.909C27.6065 57.1978 27.6391 57.4213 27.7509 57.5797C27.8627 57.7288 28.0536 57.8033 28.3238 57.8033C28.4635 57.8033 28.5986 57.7846 28.729 57.7474C28.8594 57.7101 28.9899 57.6542 29.1203 57.5797L29.4557 59.4102C29.1762 59.5686 28.8641 59.6804 28.5194 59.7456C28.1841 59.8201 27.8394 59.8574 27.4854 59.8574ZM24.3833 54.4217L24.7885 52.4374H30.2661L29.8749 54.4217H24.3833ZM35.1328 59.7316L37.0891 49.9501H39.8559L37.8996 59.7316H35.1328ZM46.2679 52.0322C46.9107 52.0322 47.4557 52.1673 47.9028 52.4374C48.35 52.6983 48.6667 53.0895 48.853 53.6112C49.0486 54.1236 49.0673 54.7664 48.9089 55.5396L48.0705 59.7316H45.4155L46.198 55.7911C46.3005 55.3067 46.2679 54.934 46.1002 54.6732C45.9419 54.4124 45.6437 54.2819 45.2059 54.2819C44.7588 54.2819 44.3815 54.4217 44.0741 54.7012C43.7666 54.9806 43.5524 55.4091 43.4313 55.9867L42.6767 59.7316H40.0217L41.5309 52.158H44.0461L43.6129 54.2819L43.2776 53.6671C43.6409 53.0989 44.088 52.6843 44.619 52.4235C45.1593 52.1626 45.709 52.0322 46.2679 52.0322ZM56.5707 59.7316L58.0938 52.144H55.0895L55.5366 49.9501H64.298L63.8509 52.144H60.8605L59.3374 59.7316H56.5707ZM66.9681 59.8574C66.1669 59.8574 65.4682 59.713 64.872 59.4242C64.2758 59.1354 63.8147 58.7348 63.4887 58.2225C63.1626 57.7008 62.9996 57.0953 62.9996 56.4059C62.9996 55.5675 63.1999 54.8223 63.6004 54.1702C64.001 53.5087 64.5506 52.9871 65.2493 52.6051C65.948 52.2232 66.7491 52.0322 67.6528 52.0322C68.4632 52.0322 69.1619 52.1766 69.7488 52.4654C70.345 52.7449 70.8061 53.1408 71.1322 53.6531C71.4582 54.1655 71.6213 54.771 71.6213 55.4697C71.6213 56.3081 71.421 57.058 71.0204 57.7194C70.6198 58.3809 70.0702 58.9025 69.3715 59.2845C68.6728 59.6664 67.8717 59.8574 66.9681 59.8574ZM67.1218 57.7474C67.4758 57.7474 67.7878 57.6589 68.058 57.4819C68.3282 57.2956 68.5378 57.0441 68.6868 56.7273C68.8452 56.4106 68.9244 56.038 68.9244 55.6094C68.9244 55.1902 68.7986 54.8409 68.5471 54.5614C68.3049 54.2819 67.9555 54.1422 67.4991 54.1422C67.1451 54.1422 66.833 54.2307 66.5628 54.4077C66.2927 54.5847 66.0784 54.8362 65.9201 55.1623C65.771 55.479 65.6965 55.8516 65.6965 56.2802C65.6965 56.7273 65.8222 57.086 66.0738 57.3561C66.3253 57.617 66.6746 57.7474 67.1218 57.7474ZM75.5903 59.8574C74.9754 59.8574 74.4398 59.727 73.9833 59.4661C73.5362 59.196 73.2194 58.8001 73.0331 58.2784C72.8468 57.7567 72.8282 57.1093 72.9772 56.3361L73.8156 52.158H76.4706L75.6881 56.0845C75.5856 56.5689 75.6136 56.9416 75.7719 57.2024C75.9396 57.4633 76.2331 57.5937 76.6523 57.5937C77.0994 57.5937 77.4721 57.4586 77.7702 57.1884C78.0776 56.909 78.2872 56.4805 78.399 55.9029L79.1535 52.158H81.8085L80.2994 59.7316H77.7841L78.2173 57.5937L78.5527 58.2085C78.1894 58.7768 77.7422 59.196 77.2112 59.4661C76.6895 59.727 76.1492 59.8574 75.5903 59.8574ZM86.5229 59.8574C85.7125 59.8574 85.0091 59.713 84.4129 59.4242C83.8167 59.1354 83.351 58.7348 83.0156 58.2225C82.6895 57.7008 82.5265 57.0953 82.5265 56.4059C82.5265 55.5675 82.7268 54.8223 83.1274 54.1702C83.5279 53.5087 84.0822 52.9871 84.7902 52.6051C85.4982 52.2232 86.3087 52.0322 87.2216 52.0322C88.0787 52.0322 88.8193 52.2139 89.4434 52.5772C90.0769 52.9405 90.5334 53.4435 90.8128 54.0863L88.5491 55.1623C88.4094 54.8083 88.2091 54.5521 87.9482 54.3937C87.6967 54.2354 87.4079 54.1562 87.0819 54.1562C86.7279 54.1562 86.4065 54.2493 86.1177 54.4357C85.8382 54.6127 85.6193 54.8549 85.461 55.1623C85.3026 55.4697 85.2234 55.833 85.2234 56.2522C85.2234 56.6901 85.3492 57.0441 85.6007 57.3142C85.8522 57.5844 86.2202 57.7194 86.7046 57.7194C87.0493 57.7194 87.3567 57.6449 87.6269 57.4959C87.9063 57.3375 88.1439 57.0813 88.3395 56.7273L90.2818 57.9011C89.9185 58.5159 89.4062 58.9957 88.7447 59.3404C88.0926 59.685 87.352 59.8574 86.5229 59.8574ZM97.1933 52.0322C97.8174 52.0322 98.3531 52.1673 98.8002 52.4374C99.2567 52.6983 99.5828 53.0895 99.7784 53.6112C99.974 54.1236 99.9926 54.7664 99.8343 55.5396L98.9959 59.7316H96.3409L97.1234 55.7911C97.2259 55.3067 97.1933 54.934 97.0256 54.6732C96.8672 54.4124 96.5691 54.2819 96.1313 54.2819C95.6841 54.2819 95.3068 54.4217 94.9994 54.7012C94.692 54.9806 94.4778 55.4091 94.3566 55.9867L93.6021 59.7316H90.9471L93.0152 49.3633H95.6702L94.692 54.268L94.2029 53.6671C94.5663 53.0989 95.0134 52.6843 95.5444 52.4235C96.0847 52.1626 96.6343 52.0322 97.1933 52.0322ZM108.125 56.1684C108.19 55.8423 108.297 55.5629 108.446 55.33C108.605 55.0878 108.782 54.8782 108.977 54.7012C109.182 54.5148 109.387 54.3425 109.592 54.1841C109.806 54.0258 110.002 53.8767 110.179 53.737C110.365 53.5879 110.514 53.4342 110.626 53.2759C110.738 53.1082 110.794 52.9172 110.794 52.7029C110.794 52.47 110.696 52.2837 110.5 52.144C110.314 52.0043 110.039 51.9344 109.676 51.9344C109.294 51.9344 108.935 52.0275 108.6 52.2139C108.265 52.3909 107.98 52.6377 107.748 52.9545L105.959 51.7667C106.378 51.1612 106.96 50.6768 107.706 50.3135C108.46 49.9408 109.317 49.7545 110.277 49.7545C110.966 49.7545 111.562 49.8523 112.065 50.048C112.568 50.2436 112.955 50.5231 113.225 50.8864C113.505 51.2404 113.644 51.6642 113.644 52.158C113.644 52.5492 113.575 52.8893 113.435 53.178C113.304 53.4668 113.132 53.7183 112.918 53.9326C112.713 54.1469 112.485 54.3425 112.233 54.5195C111.991 54.6965 111.753 54.8688 111.52 55.0365C111.297 55.1949 111.101 55.3672 110.934 55.5535C110.766 55.7305 110.659 55.9355 110.612 56.1684H108.125ZM108.837 59.8574C108.4 59.8574 108.036 59.727 107.748 59.4661C107.468 59.2053 107.328 58.8839 107.328 58.502C107.328 58.0548 107.487 57.6868 107.803 57.398C108.13 57.0999 108.53 56.9509 109.005 56.9509C109.452 56.9509 109.811 57.0767 110.081 57.3282C110.361 57.5797 110.5 57.8964 110.5 58.2784C110.5 58.5672 110.426 58.8327 110.277 59.0749C110.128 59.3078 109.927 59.4987 109.676 59.6478C109.434 59.7875 109.154 59.8574 108.837 59.8574Z" fill="black"/>
</svg>
