<svg width="190" height="16" viewBox="0 0 190 16" fill="none" xmlns="http://www.w3.org/2000/svg">
<path d="M2.66683 13.3333C2.30016 13.3333 1.98639 13.2029 1.7255 12.942C1.46461 12.6811 1.33394 12.3671 1.3335 12V3.99999C1.3335 3.63332 1.46416 3.31955 1.7255 3.05866C1.98683 2.79777 2.30061 2.6671 2.66683 2.66666H13.3335C13.7002 2.66666 14.0142 2.79732 14.2755 3.05866C14.5368 3.31999 14.6673 3.63377 14.6668 3.99999V12C14.6668 12.3667 14.5364 12.6807 14.2755 12.942C14.0146 13.2033 13.7006 13.3338 13.3335 13.3333H2.66683ZM8.00016 8.66666L13.3335 5.33332V3.99999L8.00016 7.33332L2.66683 3.99999V5.33332L8.00016 8.66666Z" fill="black"/>
<path d="M24.99 11.5V6.25H25.7V11.5H24.99ZM25.35 5.09C25.2033 5.09 25.08 5.04 24.98 4.94C24.88 4.84 24.83 4.72 24.83 4.58C24.83 4.44 24.88 4.32333 24.98 4.23C25.08 4.13 25.2033 4.08 25.35 4.08C25.4967 4.08 25.62 4.12667 25.72 4.22C25.82 4.31333 25.87 4.43 25.87 4.57C25.87 4.71667 25.82 4.84 25.72 4.94C25.6267 5.04 25.5033 5.09 25.35 5.09ZM30.3555 6.2C30.7822 6.2 31.1555 6.28333 31.4755 6.45C31.8022 6.61 32.0555 6.85667 32.2355 7.19C32.4222 7.52333 32.5155 7.94333 32.5155 8.45V11.5H31.8055V8.52C31.8055 7.96667 31.6655 7.55 31.3855 7.27C31.1122 6.98333 30.7255 6.84 30.2255 6.84C29.8522 6.84 29.5255 6.91667 29.2455 7.07C28.9722 7.21667 28.7589 7.43333 28.6055 7.72C28.4589 8 28.3855 8.34 28.3855 8.74V11.5H27.6755V6.25H28.3555V7.69L28.2455 7.42C28.4122 7.04 28.6789 6.74333 29.0455 6.53C29.4122 6.31 29.8489 6.2 30.3555 6.2ZM34.5534 11.5V5.59C34.5534 5.12333 34.69 4.74667 34.9634 4.46C35.2367 4.17333 35.63 4.03 36.1434 4.03C36.3434 4.03 36.5367 4.05667 36.7234 4.11C36.91 4.16333 37.0667 4.24667 37.1934 4.36L36.9534 4.89C36.8534 4.80333 36.7367 4.74 36.6034 4.7C36.47 4.65333 36.3267 4.63 36.1734 4.63C35.8734 4.63 35.6434 4.71333 35.4834 4.88C35.3234 5.04667 35.2434 5.29333 35.2434 5.62V6.42L35.2634 6.75V11.5H34.5534ZM33.6134 6.84V6.25H36.8634V6.84H33.6134ZM39.8741 11.55C39.3675 11.55 38.9108 11.4367 38.5041 11.21C38.1041 10.9767 37.7875 10.66 37.5541 10.26C37.3208 9.85333 37.2041 9.39 37.2041 8.87C37.2041 8.34333 37.3208 7.88 37.5541 7.48C37.7875 7.08 38.1041 6.76667 38.5041 6.54C38.9041 6.31333 39.3608 6.2 39.8741 6.2C40.3941 6.2 40.8541 6.31333 41.2541 6.54C41.6608 6.76667 41.9775 7.08 42.2041 7.48C42.4375 7.88 42.5541 8.34333 42.5541 8.87C42.5541 9.39 42.4375 9.85333 42.2041 10.26C41.9775 10.66 41.6608 10.9767 41.2541 11.21C40.8475 11.4367 40.3875 11.55 39.8741 11.55ZM39.8741 10.92C40.2541 10.92 40.5908 10.8367 40.8841 10.67C41.1775 10.4967 41.4075 10.2567 41.5741 9.95C41.7475 9.63667 41.8341 9.27667 41.8341 8.87C41.8341 8.45667 41.7475 8.09667 41.5741 7.79C41.4075 7.48333 41.1775 7.24667 40.8841 7.08C40.5908 6.90667 40.2575 6.82 39.8841 6.82C39.5108 6.82 39.1775 6.90667 38.8841 7.08C38.5908 7.24667 38.3575 7.48333 38.1841 7.79C38.0108 8.09667 37.9241 8.45667 37.9241 8.87C37.9241 9.27667 38.0108 9.63667 38.1841 9.95C38.3575 10.2567 38.5908 10.4967 38.8841 10.67C39.1775 10.8367 39.5075 10.92 39.8741 10.92ZM48.1637 13.5C47.477 13.5 46.8503 13.3867 46.2837 13.16C45.717 12.94 45.227 12.6267 44.8137 12.22C44.407 11.82 44.0903 11.3433 43.8637 10.79C43.6437 10.23 43.5337 9.62 43.5337 8.96C43.5337 8.29333 43.6437 7.68667 43.8637 7.14C44.0903 6.58667 44.4103 6.11 44.8237 5.71C45.2437 5.30333 45.7403 4.99 46.3137 4.77C46.887 4.55 47.517 4.44 48.2037 4.44C48.8837 4.44 49.5037 4.54667 50.0637 4.76C50.6303 4.97333 51.1203 5.27667 51.5337 5.67C51.947 6.05667 52.2637 6.52 52.4837 7.06C52.7103 7.6 52.8237 8.19667 52.8237 8.85C52.8237 9.41 52.757 9.89333 52.6237 10.3C52.497 10.7 52.3103 11.01 52.0637 11.23C51.817 11.4433 51.5203 11.55 51.1737 11.55C50.8337 11.55 50.5603 11.4467 50.3537 11.24C50.147 11.0333 50.0437 10.7433 50.0437 10.37V9.58L50.1237 8.94L50.0237 7.94V6.43H50.6737V10.22C50.6737 10.5 50.7337 10.6967 50.8537 10.81C50.9737 10.9233 51.1203 10.98 51.2937 10.98C51.5003 10.98 51.6803 10.8967 51.8337 10.73C51.987 10.5633 52.1037 10.3233 52.1837 10.01C52.2703 9.69 52.3137 9.30667 52.3137 8.86C52.3137 8.27333 52.2137 7.74 52.0137 7.26C51.8137 6.78 51.5303 6.36667 51.1637 6.02C50.797 5.67333 50.3637 5.41 49.8637 5.23C49.3637 5.04333 48.8103 4.95 48.2037 4.95C47.597 4.95 47.0403 5.04667 46.5337 5.24C46.027 5.43333 45.5903 5.71 45.2237 6.07C44.8637 6.42333 44.5837 6.84667 44.3837 7.34C44.1837 7.82667 44.0837 8.36667 44.0837 8.96C44.0837 9.55333 44.1803 10.0967 44.3737 10.59C44.5737 11.0833 44.8537 11.5067 45.2137 11.86C45.5737 12.22 46.0037 12.4967 46.5037 12.69C47.0037 12.89 47.557 12.99 48.1637 12.99C48.4637 12.99 48.7837 12.9533 49.1237 12.88C49.4703 12.8067 49.7903 12.6967 50.0837 12.55L50.2537 13.04C49.9537 13.1933 49.6137 13.3067 49.2337 13.38C48.8537 13.46 48.497 13.5 48.1637 13.5ZM48.0437 11.55C47.5703 11.55 47.147 11.44 46.7737 11.22C46.4003 10.9933 46.1037 10.6867 45.8837 10.3C45.6703 9.90667 45.5637 9.46 45.5637 8.96C45.5637 8.46 45.6703 8.01667 45.8837 7.63C46.1037 7.24333 46.4003 6.94 46.7737 6.72C47.147 6.5 47.5703 6.39 48.0437 6.39C48.5037 6.39 48.9103 6.49333 49.2637 6.7C49.6237 6.90667 49.9037 7.20333 50.1037 7.59C50.3103 7.97 50.4137 8.42667 50.4137 8.96C50.4137 9.49333 50.3103 9.95333 50.1037 10.34C49.9037 10.7267 49.627 11.0267 49.2737 11.24C48.9203 11.4467 48.5103 11.55 48.0437 11.55ZM48.1337 10.97C48.4937 10.97 48.817 10.8867 49.1037 10.72C49.397 10.5533 49.6237 10.32 49.7837 10.02C49.9503 9.71333 50.0337 9.36 50.0337 8.96C50.0337 8.55333 49.9503 8.20333 49.7837 7.91C49.6237 7.61 49.397 7.38 49.1037 7.22C48.817 7.05333 48.4937 6.97 48.1337 6.97C47.7603 6.97 47.4303 7.05333 47.1437 7.22C46.857 7.38 46.6303 7.61 46.4637 7.91C46.3037 8.21 46.2237 8.56 46.2237 8.96C46.2237 9.36 46.3037 9.71 46.4637 10.01C46.6303 10.31 46.857 10.5467 47.1437 10.72C47.4303 10.8867 47.7603 10.97 48.1337 10.97ZM55.7457 11.55C55.3124 11.55 54.9024 11.49 54.5157 11.37C54.129 11.2433 53.8257 11.0867 53.6057 10.9L53.9257 10.34C54.139 10.5 54.4124 10.64 54.7457 10.76C55.079 10.8733 55.429 10.93 55.7957 10.93C56.2957 10.93 56.6557 10.8533 56.8757 10.7C57.0957 10.54 57.2057 10.33 57.2057 10.07C57.2057 9.87667 57.1424 9.72667 57.0157 9.62C56.8957 9.50667 56.7357 9.42333 56.5357 9.37C56.3357 9.31 56.1124 9.26 55.8657 9.22C55.619 9.18 55.3724 9.13333 55.1257 9.08C54.8857 9.02667 54.6657 8.95 54.4657 8.85C54.2657 8.74333 54.1024 8.6 53.9757 8.42C53.8557 8.24 53.7957 8 53.7957 7.7C53.7957 7.41333 53.8757 7.15667 54.0357 6.93C54.1957 6.70333 54.429 6.52667 54.7357 6.4C55.049 6.26667 55.429 6.2 55.8757 6.2C56.2157 6.2 56.5557 6.24667 56.8957 6.34C57.2357 6.42667 57.5157 6.54333 57.7357 6.69L57.4257 7.26C57.1924 7.1 56.9424 6.98667 56.6757 6.92C56.409 6.84667 56.1424 6.81 55.8757 6.81C55.4024 6.81 55.0524 6.89333 54.8257 7.06C54.6057 7.22 54.4957 7.42667 54.4957 7.68C54.4957 7.88 54.5557 8.03667 54.6757 8.15C54.8024 8.26333 54.9657 8.35333 55.1657 8.42C55.3724 8.48 55.5957 8.53 55.8357 8.57C56.0824 8.61 56.3257 8.66 56.5657 8.72C56.8124 8.77333 57.0357 8.85 57.2357 8.95C57.4424 9.04333 57.6057 9.18 57.7257 9.36C57.8524 9.53333 57.9157 9.76333 57.9157 10.05C57.9157 10.3567 57.829 10.6233 57.6557 10.85C57.489 11.07 57.2424 11.2433 56.9157 11.37C56.5957 11.49 56.2057 11.55 55.7457 11.55ZM65.7785 6.2C66.2052 6.2 66.5752 6.28333 66.8885 6.45C67.2085 6.61 67.4552 6.85667 67.6285 7.19C67.8085 7.52333 67.8985 7.94333 67.8985 8.45V11.5H67.1885V8.52C67.1885 7.96667 67.0552 7.55 66.7885 7.27C66.5285 6.98333 66.1585 6.84 65.6785 6.84C65.3185 6.84 65.0052 6.91667 64.7385 7.07C64.4785 7.21667 64.2752 7.43333 64.1285 7.72C63.9885 8 63.9185 8.34 63.9185 8.74V11.5H63.2085V8.52C63.2085 7.96667 63.0752 7.55 62.8085 7.27C62.5418 6.98333 62.1685 6.84 61.6885 6.84C61.3352 6.84 61.0252 6.91667 60.7585 7.07C60.4918 7.21667 60.2852 7.43333 60.1385 7.72C59.9985 8 59.9285 8.34 59.9285 8.74V11.5H59.2185V6.25H59.8985V7.67L59.7885 7.42C59.9485 7.04 60.2052 6.74333 60.5585 6.53C60.9185 6.31 61.3418 6.2 61.8285 6.2C62.3418 6.2 62.7785 6.33 63.1385 6.59C63.4985 6.84333 63.7318 7.22667 63.8385 7.74L63.5585 7.63C63.7118 7.20333 63.9818 6.86 64.3685 6.6C64.7618 6.33333 65.2318 6.2 65.7785 6.2ZM73.114 11.5V10.34L73.084 10.15V8.21C73.084 7.76333 72.9573 7.42 72.704 7.18C72.4573 6.94 72.0873 6.82 71.594 6.82C71.254 6.82 70.9307 6.87667 70.624 6.99C70.3173 7.10333 70.0573 7.25333 69.844 7.44L69.524 6.91C69.7907 6.68333 70.1107 6.51 70.484 6.39C70.8573 6.26333 71.2507 6.2 71.664 6.2C72.344 6.2 72.8673 6.37 73.234 6.71C73.6073 7.04333 73.794 7.55333 73.794 8.24V11.5H73.114ZM71.304 11.55C70.9107 11.55 70.5673 11.4867 70.274 11.36C69.9873 11.2267 69.7673 11.0467 69.614 10.82C69.4607 10.5867 69.384 10.32 69.384 10.02C69.384 9.74667 69.4473 9.5 69.574 9.28C69.7073 9.05333 69.9207 8.87333 70.214 8.74C70.514 8.6 70.914 8.53 71.414 8.53H73.224V9.06H71.434C70.9273 9.06 70.574 9.15 70.374 9.33C70.1807 9.51 70.084 9.73333 70.084 10C70.084 10.3 70.2007 10.54 70.434 10.72C70.6673 10.9 70.994 10.99 71.414 10.99C71.814 10.99 72.1573 10.9 72.444 10.72C72.7373 10.5333 72.9507 10.2667 73.084 9.92L73.244 10.41C73.1107 10.7567 72.8773 11.0333 72.544 11.24C72.2173 11.4467 71.804 11.55 71.304 11.55ZM75.7224 11.5V6.25H76.4024V7.68L76.3324 7.43C76.4791 7.03 76.7258 6.72667 77.0724 6.52C77.4191 6.30667 77.8491 6.2 78.3624 6.2V6.89C78.3358 6.89 78.3091 6.89 78.2824 6.89C78.2558 6.88333 78.2291 6.88 78.2024 6.88C77.6491 6.88 77.2158 7.05 76.9024 7.39C76.5891 7.72333 76.4324 8.2 76.4324 8.82V11.5H75.7224ZM81.5426 11.55C81.0492 11.55 80.6692 11.4167 80.4026 11.15C80.1359 10.8833 80.0026 10.5067 80.0026 10.02V5.09H80.7126V9.98C80.7126 10.2867 80.7892 10.5233 80.9426 10.69C81.1026 10.8567 81.3292 10.94 81.6226 10.94C81.9359 10.94 82.1959 10.85 82.4026 10.67L82.6526 11.18C82.5126 11.3067 82.3426 11.4 82.1426 11.46C81.9492 11.52 81.7492 11.55 81.5426 11.55ZM79.0626 6.84V6.25H82.3126V6.84H79.0626ZM86.6551 11.55C86.2017 11.55 85.7917 11.4467 85.4251 11.24C85.0584 11.0267 84.7651 10.7233 84.5451 10.33C84.3317 9.93 84.2251 9.44333 84.2251 8.87C84.2251 8.29667 84.3317 7.81333 84.5451 7.42C84.7584 7.02 85.0484 6.71667 85.4151 6.51C85.7817 6.30333 86.1951 6.2 86.6551 6.2C87.1551 6.2 87.6017 6.31333 87.9951 6.54C88.3951 6.76 88.7084 7.07333 88.9351 7.48C89.1617 7.88 89.2751 8.34333 89.2751 8.87C89.2751 9.40333 89.1617 9.87 88.9351 10.27C88.7084 10.67 88.3951 10.9833 87.9951 11.21C87.6017 11.4367 87.1551 11.55 86.6551 11.55ZM83.9451 13.44V6.25H84.6251V7.83L84.5551 8.88L84.6551 9.94V13.44H83.9451ZM86.6051 10.92C86.9784 10.92 87.3117 10.8367 87.6051 10.67C87.8984 10.4967 88.1317 10.2567 88.3051 9.95C88.4784 9.63667 88.5651 9.27667 88.5651 8.87C88.5651 8.46333 88.4784 8.10667 88.3051 7.8C88.1317 7.49333 87.8984 7.25333 87.6051 7.08C87.3117 6.90667 86.9784 6.82 86.6051 6.82C86.2317 6.82 85.8951 6.90667 85.5951 7.08C85.3017 7.25333 85.0684 7.49333 84.8951 7.8C84.7284 8.10667 84.6451 8.46333 84.6451 8.87C84.6451 9.27667 84.7284 9.63667 84.8951 9.95C85.0684 10.2567 85.3017 10.4967 85.5951 10.67C85.8951 10.8367 86.2317 10.92 86.6051 10.92ZM92.8624 11.55C92.3558 11.55 91.8991 11.4367 91.4924 11.21C91.0924 10.9767 90.7758 10.66 90.5424 10.26C90.3091 9.85333 90.1924 9.39 90.1924 8.87C90.1924 8.34333 90.3091 7.88 90.5424 7.48C90.7758 7.08 91.0924 6.76667 91.4924 6.54C91.8924 6.31333 92.3491 6.2 92.8624 6.2C93.3824 6.2 93.8424 6.31333 94.2424 6.54C94.6491 6.76667 94.9658 7.08 95.1924 7.48C95.4258 7.88 95.5424 8.34333 95.5424 8.87C95.5424 9.39 95.4258 9.85333 95.1924 10.26C94.9658 10.66 94.6491 10.9767 94.2424 11.21C93.8358 11.4367 93.3758 11.55 92.8624 11.55ZM92.8624 10.92C93.2424 10.92 93.5791 10.8367 93.8724 10.67C94.1658 10.4967 94.3958 10.2567 94.5624 9.95C94.7358 9.63667 94.8224 9.27667 94.8224 8.87C94.8224 8.45667 94.7358 8.09667 94.5624 7.79C94.3958 7.48333 94.1658 7.24667 93.8724 7.08C93.5791 6.90667 93.2458 6.82 92.8724 6.82C92.4991 6.82 92.1658 6.90667 91.8724 7.08C91.5791 7.24667 91.3458 7.48333 91.1724 7.79C90.9991 8.09667 90.9124 8.45667 90.9124 8.87C90.9124 9.27667 90.9991 9.63667 91.1724 9.95C91.3458 10.2567 91.5791 10.4967 91.8724 10.67C92.1658 10.8367 92.4958 10.92 92.8624 10.92ZM96.992 11.5V4.08H97.702V11.5H96.992ZM99.7175 13.49C99.4708 13.49 99.2342 13.45 99.0075 13.37C98.7875 13.29 98.5975 13.17 98.4375 13.01L98.7675 12.48C98.9008 12.6067 99.0442 12.7033 99.1975 12.77C99.3575 12.8433 99.5342 12.88 99.7275 12.88C99.9608 12.88 100.161 12.8133 100.328 12.68C100.501 12.5533 100.664 12.3267 100.818 12L101.158 11.23L101.238 11.12L103.398 6.25H104.098L101.468 12.13C101.321 12.47 101.158 12.74 100.978 12.94C100.804 13.14 100.614 13.28 100.408 13.36C100.201 13.4467 99.9708 13.49 99.7175 13.49ZM101.118 11.65L98.6975 6.25H99.4375L101.578 11.07L101.118 11.65ZM107.807 11.55C107.354 11.55 106.944 11.4467 106.577 11.24C106.211 11.0267 105.917 10.7233 105.697 10.33C105.484 9.93 105.377 9.44333 105.377 8.87C105.377 8.29667 105.484 7.81333 105.697 7.42C105.911 7.02 106.201 6.71667 106.567 6.51C106.934 6.30333 107.347 6.2 107.807 6.2C108.307 6.2 108.754 6.31333 109.147 6.54C109.547 6.76 109.861 7.07333 110.087 7.48C110.314 7.88 110.427 8.34333 110.427 8.87C110.427 9.40333 110.314 9.87 110.087 10.27C109.861 10.67 109.547 10.9833 109.147 11.21C108.754 11.4367 108.307 11.55 107.807 11.55ZM105.097 13.44V6.25H105.777V7.83L105.707 8.88L105.807 9.94V13.44H105.097ZM107.757 10.92C108.131 10.92 108.464 10.8367 108.757 10.67C109.051 10.4967 109.284 10.2567 109.457 9.95C109.631 9.63667 109.717 9.27667 109.717 8.87C109.717 8.46333 109.631 8.10667 109.457 7.8C109.284 7.49333 109.051 7.25333 108.757 7.08C108.464 6.90667 108.131 6.82 107.757 6.82C107.384 6.82 107.047 6.90667 106.747 7.08C106.454 7.25333 106.221 7.49333 106.047 7.8C105.881 8.10667 105.797 8.46333 105.797 8.87C105.797 9.27667 105.881 9.63667 106.047 9.95C106.221 10.2567 106.454 10.4967 106.747 10.67C107.047 10.8367 107.384 10.92 107.757 10.92ZM115.135 11.5V10.34L115.105 10.15V8.21C115.105 7.76333 114.979 7.42 114.725 7.18C114.479 6.94 114.109 6.82 113.615 6.82C113.275 6.82 112.952 6.87667 112.645 6.99C112.339 7.10333 112.079 7.25333 111.865 7.44L111.545 6.91C111.812 6.68333 112.132 6.51 112.505 6.39C112.879 6.26333 113.272 6.2 113.685 6.2C114.365 6.2 114.889 6.37 115.255 6.71C115.629 7.04333 115.815 7.55333 115.815 8.24V11.5H115.135ZM113.325 11.55C112.932 11.55 112.589 11.4867 112.295 11.36C112.009 11.2267 111.789 11.0467 111.635 10.82C111.482 10.5867 111.405 10.32 111.405 10.02C111.405 9.74667 111.469 9.5 111.595 9.28C111.729 9.05333 111.942 8.87333 112.235 8.74C112.535 8.6 112.935 8.53 113.435 8.53H115.245V9.06H113.455C112.949 9.06 112.595 9.15 112.395 9.33C112.202 9.51 112.105 9.73333 112.105 10C112.105 10.3 112.222 10.54 112.455 10.72C112.689 10.9 113.015 10.99 113.435 10.99C113.835 10.99 114.179 10.9 114.465 10.72C114.759 10.5333 114.972 10.2667 115.105 9.92L115.265 10.41C115.132 10.7567 114.899 11.0333 114.565 11.24C114.239 11.4467 113.825 11.55 113.325 11.55ZM119.924 11.55C119.404 11.55 118.937 11.4367 118.524 11.21C118.117 10.9767 117.797 10.66 117.564 10.26C117.331 9.85333 117.214 9.39 117.214 8.87C117.214 8.34333 117.331 7.88 117.564 7.48C117.797 7.08 118.117 6.76667 118.524 6.54C118.937 6.31333 119.404 6.2 119.924 6.2C120.371 6.2 120.774 6.28667 121.134 6.46C121.494 6.63333 121.777 6.89333 121.984 7.24L121.454 7.6C121.274 7.33333 121.051 7.13667 120.784 7.01C120.517 6.88333 120.227 6.82 119.914 6.82C119.541 6.82 119.204 6.90667 118.904 7.08C118.604 7.24667 118.367 7.48333 118.194 7.79C118.021 8.09667 117.934 8.45667 117.934 8.87C117.934 9.28333 118.021 9.64333 118.194 9.95C118.367 10.2567 118.604 10.4967 118.904 10.67C119.204 10.8367 119.541 10.92 119.914 10.92C120.227 10.92 120.517 10.8567 120.784 10.73C121.051 10.6033 121.274 10.41 121.454 10.15L121.984 10.51C121.777 10.85 121.494 11.11 121.134 11.29C120.774 11.4633 120.371 11.55 119.924 11.55ZM123.861 10.14L123.881 9.23L127.151 6.25H128.021L125.711 8.46L125.311 8.8L123.861 10.14ZM123.301 11.5V4.08H124.011V11.5H123.301ZM127.371 11.5L125.181 8.77L125.641 8.22L128.241 11.5H127.371ZM132.499 11.5V10.34L132.469 10.15V8.21C132.469 7.76333 132.342 7.42 132.089 7.18C131.842 6.94 131.472 6.82 130.979 6.82C130.639 6.82 130.315 6.87667 130.009 6.99C129.702 7.10333 129.442 7.25333 129.229 7.44L128.909 6.91C129.175 6.68333 129.495 6.51 129.869 6.39C130.242 6.26333 130.635 6.2 131.049 6.2C131.729 6.2 132.252 6.37 132.619 6.71C132.992 7.04333 133.179 7.55333 133.179 8.24V11.5H132.499ZM130.689 11.55C130.295 11.55 129.952 11.4867 129.659 11.36C129.372 11.2267 129.152 11.0467 128.999 10.82C128.845 10.5867 128.769 10.32 128.769 10.02C128.769 9.74667 128.832 9.5 128.959 9.28C129.092 9.05333 129.305 8.87333 129.599 8.74C129.899 8.6 130.299 8.53 130.799 8.53H132.609V9.06H130.819C130.312 9.06 129.959 9.15 129.759 9.33C129.565 9.51 129.469 9.73333 129.469 10C129.469 10.3 129.585 10.54 129.819 10.72C130.052 10.9 130.379 10.99 130.799 10.99C131.199 10.99 131.542 10.9 131.829 10.72C132.122 10.5333 132.335 10.2667 132.469 9.92L132.629 10.41C132.495 10.7567 132.262 11.0333 131.929 11.24C131.602 11.4467 131.189 11.55 130.689 11.55ZM137.347 13.49C136.867 13.49 136.407 13.42 135.967 13.28C135.527 13.14 135.171 12.94 134.897 12.68L135.257 12.14C135.504 12.36 135.807 12.5333 136.167 12.66C136.534 12.7933 136.921 12.86 137.327 12.86C137.994 12.86 138.484 12.7033 138.797 12.39C139.111 12.0833 139.267 11.6033 139.267 10.95V9.64L139.367 8.74L139.297 7.84V6.25H139.977V10.86C139.977 11.7667 139.754 12.43 139.307 12.85C138.867 13.2767 138.214 13.49 137.347 13.49ZM137.217 11.3C136.717 11.3 136.267 11.1933 135.867 10.98C135.467 10.76 135.151 10.4567 134.917 10.07C134.691 9.68333 134.577 9.24 134.577 8.74C134.577 8.24 134.691 7.8 134.917 7.42C135.151 7.03333 135.467 6.73333 135.867 6.52C136.267 6.30667 136.717 6.2 137.217 6.2C137.684 6.2 138.104 6.29667 138.477 6.49C138.851 6.68333 139.147 6.97 139.367 7.35C139.587 7.73 139.697 8.19333 139.697 8.74C139.697 9.28667 139.587 9.75 139.367 10.13C139.147 10.51 138.851 10.8 138.477 11C138.104 11.2 137.684 11.3 137.217 11.3ZM137.287 10.67C137.674 10.67 138.017 10.59 138.317 10.43C138.617 10.2633 138.854 10.0367 139.027 9.75C139.201 9.45667 139.287 9.12 139.287 8.74C139.287 8.36 139.201 8.02667 139.027 7.74C138.854 7.45333 138.617 7.23 138.317 7.07C138.017 6.90333 137.674 6.82 137.287 6.82C136.907 6.82 136.564 6.90333 136.257 7.07C135.957 7.23 135.721 7.45333 135.547 7.74C135.381 8.02667 135.297 8.36 135.297 8.74C135.297 9.12 135.381 9.45667 135.547 9.75C135.721 10.0367 135.957 10.2633 136.257 10.43C136.564 10.59 136.907 10.67 137.287 10.67ZM141.953 11.5V6.25H142.663V11.5H141.953ZM142.313 5.09C142.166 5.09 142.043 5.04 141.943 4.94C141.843 4.84 141.793 4.72 141.793 4.58C141.793 4.44 141.843 4.32333 141.943 4.23C142.043 4.13 142.166 4.08 142.313 4.08C142.46 4.08 142.583 4.12667 142.683 4.22C142.783 4.31333 142.833 4.43 142.833 4.57C142.833 4.71667 142.783 4.84 142.683 4.94C142.59 5.04 142.466 5.09 142.313 5.09ZM147.318 6.2C147.745 6.2 148.118 6.28333 148.438 6.45C148.765 6.61 149.018 6.85667 149.198 7.19C149.385 7.52333 149.478 7.94333 149.478 8.45V11.5H148.768V8.52C148.768 7.96667 148.628 7.55 148.348 7.27C148.075 6.98333 147.688 6.84 147.188 6.84C146.815 6.84 146.488 6.91667 146.208 7.07C145.935 7.21667 145.722 7.43333 145.568 7.72C145.422 8 145.348 8.34 145.348 8.74V11.5H144.638V6.25H145.318V7.69L145.208 7.42C145.375 7.04 145.642 6.74333 146.008 6.53C146.375 6.31 146.812 6.2 147.318 6.2ZM153.636 13.49C153.156 13.49 152.696 13.42 152.256 13.28C151.816 13.14 151.46 12.94 151.186 12.68L151.546 12.14C151.793 12.36 152.096 12.5333 152.456 12.66C152.823 12.7933 153.21 12.86 153.616 12.86C154.283 12.86 154.773 12.7033 155.086 12.39C155.4 12.0833 155.556 11.6033 155.556 10.95V9.64L155.656 8.74L155.586 7.84V6.25H156.266V10.86C156.266 11.7667 156.043 12.43 155.596 12.85C155.156 13.2767 154.503 13.49 153.636 13.49ZM153.506 11.3C153.006 11.3 152.556 11.1933 152.156 10.98C151.756 10.76 151.44 10.4567 151.206 10.07C150.98 9.68333 150.866 9.24 150.866 8.74C150.866 8.24 150.98 7.8 151.206 7.42C151.44 7.03333 151.756 6.73333 152.156 6.52C152.556 6.30667 153.006 6.2 153.506 6.2C153.973 6.2 154.393 6.29667 154.766 6.49C155.14 6.68333 155.436 6.97 155.656 7.35C155.876 7.73 155.986 8.19333 155.986 8.74C155.986 9.28667 155.876 9.75 155.656 10.13C155.436 10.51 155.14 10.8 154.766 11C154.393 11.2 153.973 11.3 153.506 11.3ZM153.576 10.67C153.963 10.67 154.306 10.59 154.606 10.43C154.906 10.2633 155.143 10.0367 155.316 9.75C155.49 9.45667 155.576 9.12 155.576 8.74C155.576 8.36 155.49 8.02667 155.316 7.74C155.143 7.45333 154.906 7.23 154.606 7.07C154.306 6.90333 153.963 6.82 153.576 6.82C153.196 6.82 152.853 6.90333 152.546 7.07C152.246 7.23 152.01 7.45333 151.836 7.74C151.67 8.02667 151.586 8.36 151.586 8.74C151.586 9.12 151.67 9.45667 151.836 9.75C152.01 10.0367 152.246 10.2633 152.546 10.43C152.853 10.59 153.196 10.67 153.576 10.67ZM158.312 11.55C158.165 11.55 158.039 11.4967 157.932 11.39C157.832 11.2833 157.782 11.1533 157.782 11C157.782 10.84 157.832 10.71 157.932 10.61C158.039 10.51 158.165 10.46 158.312 10.46C158.459 10.46 158.582 10.51 158.682 10.61C158.789 10.71 158.842 10.84 158.842 11C158.842 11.1533 158.789 11.2833 158.682 11.39C158.582 11.4967 158.459 11.55 158.312 11.55ZM162.395 11.55C161.875 11.55 161.408 11.4367 160.995 11.21C160.588 10.9767 160.268 10.66 160.035 10.26C159.801 9.85333 159.685 9.39 159.685 8.87C159.685 8.34333 159.801 7.88 160.035 7.48C160.268 7.08 160.588 6.76667 160.995 6.54C161.408 6.31333 161.875 6.2 162.395 6.2C162.841 6.2 163.245 6.28667 163.605 6.46C163.965 6.63333 164.248 6.89333 164.455 7.24L163.925 7.6C163.745 7.33333 163.521 7.13667 163.255 7.01C162.988 6.88333 162.698 6.82 162.385 6.82C162.011 6.82 161.675 6.90667 161.375 7.08C161.075 7.24667 160.838 7.48333 160.665 7.79C160.491 8.09667 160.405 8.45667 160.405 8.87C160.405 9.28333 160.491 9.64333 160.665 9.95C160.838 10.2567 161.075 10.4967 161.375 10.67C161.675 10.8367 162.011 10.92 162.385 10.92C162.698 10.92 162.988 10.8567 163.255 10.73C163.521 10.6033 163.745 10.41 163.925 10.15L164.455 10.51C164.248 10.85 163.965 11.11 163.605 11.29C163.245 11.4633 162.841 11.55 162.395 11.55ZM167.901 11.55C167.395 11.55 166.938 11.4367 166.531 11.21C166.131 10.9767 165.815 10.66 165.581 10.26C165.348 9.85333 165.231 9.39 165.231 8.87C165.231 8.34333 165.348 7.88 165.581 7.48C165.815 7.08 166.131 6.76667 166.531 6.54C166.931 6.31333 167.388 6.2 167.901 6.2C168.421 6.2 168.881 6.31333 169.281 6.54C169.688 6.76667 170.005 7.08 170.231 7.48C170.465 7.88 170.581 8.34333 170.581 8.87C170.581 9.39 170.465 9.85333 170.231 10.26C170.005 10.66 169.688 10.9767 169.281 11.21C168.875 11.4367 168.415 11.55 167.901 11.55ZM167.901 10.92C168.281 10.92 168.618 10.8367 168.911 10.67C169.205 10.4967 169.435 10.2567 169.601 9.95C169.775 9.63667 169.861 9.27667 169.861 8.87C169.861 8.45667 169.775 8.09667 169.601 7.79C169.435 7.48333 169.205 7.24667 168.911 7.08C168.618 6.90667 168.285 6.82 167.911 6.82C167.538 6.82 167.205 6.90667 166.911 7.08C166.618 7.24667 166.385 7.48333 166.211 7.79C166.038 8.09667 165.951 8.45667 165.951 8.87C165.951 9.27667 166.038 9.63667 166.211 9.95C166.385 10.2567 166.618 10.4967 166.911 10.67C167.205 10.8367 167.535 10.92 167.901 10.92ZM178.591 6.2C179.018 6.2 179.388 6.28333 179.701 6.45C180.021 6.61 180.268 6.85667 180.441 7.19C180.621 7.52333 180.711 7.94333 180.711 8.45V11.5H180.001V8.52C180.001 7.96667 179.868 7.55 179.601 7.27C179.341 6.98333 178.971 6.84 178.491 6.84C178.131 6.84 177.818 6.91667 177.551 7.07C177.291 7.21667 177.088 7.43333 176.941 7.72C176.801 8 176.731 8.34 176.731 8.74V11.5H176.021V8.52C176.021 7.96667 175.888 7.55 175.621 7.27C175.354 6.98333 174.981 6.84 174.501 6.84C174.148 6.84 173.838 6.91667 173.571 7.07C173.304 7.21667 173.098 7.43333 172.951 7.72C172.811 8 172.741 8.34 172.741 8.74V11.5H172.031V6.25H172.711V7.67L172.601 7.42C172.761 7.04 173.018 6.74333 173.371 6.53C173.731 6.31 174.154 6.2 174.641 6.2C175.154 6.2 175.591 6.33 175.951 6.59C176.311 6.84333 176.544 7.22667 176.651 7.74L176.371 7.63C176.524 7.20333 176.794 6.86 177.181 6.6C177.574 6.33333 178.044 6.2 178.591 6.2Z" fill="black"/>
</svg>
