<svg width="328" height="51" viewBox="0 0 328 51" fill="none" xmlns="http://www.w3.org/2000/svg">
<path d="M8 1.33334C9.5913 1.33334 11.1174 1.96548 12.2426 3.0907C13.3679 4.21592 14 5.74204 14 7.33334C14 9.38268 12.8827 11.06 11.7053 12.2633C11.1171 12.8581 10.4753 13.3972 9.788 13.874L9.504 14.0673L9.37067 14.156L9.11933 14.316L8.89533 14.4527L8.618 14.614C8.42976 14.7215 8.21675 14.778 8 14.778C7.78325 14.778 7.57024 14.7215 7.382 14.614L7.10467 14.4527L6.758 14.2393L6.63 14.156L6.35667 13.974C5.61522 13.4724 4.9246 12.8994 4.29467 12.2633C3.11733 11.0593 2 9.38268 2 7.33334C2 5.74204 2.63214 4.21592 3.75736 3.0907C4.88258 1.96548 6.4087 1.33334 8 1.33334ZM8 5.33334C7.73736 5.33334 7.47728 5.38507 7.23463 5.48558C6.99198 5.58609 6.7715 5.73341 6.58579 5.91913C6.40007 6.10485 6.25275 6.32533 6.15224 6.56798C6.05173 6.81063 6 7.0707 6 7.33334C6 7.59599 6.05173 7.85606 6.15224 8.09871C6.25275 8.34136 6.40007 8.56184 6.58579 8.74756C6.7715 8.93327 6.99198 9.08059 7.23463 9.1811C7.47728 9.28161 7.73736 9.33334 8 9.33334C8.53043 9.33334 9.03914 9.12263 9.41421 8.74756C9.78929 8.37248 10 7.86378 10 7.33334C10 6.80291 9.78929 6.2942 9.41421 5.91913C9.03914 5.54406 8.53043 5.33334 8 5.33334Z" fill="black"/>
<path d="M27.756 12.144C27.084 12.144 26.44 12.056 25.824 11.88C25.208 11.696 24.712 11.46 24.336 11.172L24.996 9.708C25.356 9.964 25.78 10.176 26.268 10.344C26.764 10.504 27.264 10.584 27.768 10.584C28.152 10.584 28.46 10.548 28.692 10.476C28.932 10.396 29.108 10.288 29.22 10.152C29.332 10.016 29.388 9.86 29.388 9.684C29.388 9.46 29.3 9.284 29.124 9.156C28.948 9.02 28.716 8.912 28.428 8.832C28.14 8.744 27.82 8.664 27.468 8.592C27.124 8.512 26.776 8.416 26.424 8.304C26.08 8.192 25.764 8.048 25.476 7.872C25.188 7.696 24.952 7.464 24.768 7.176C24.592 6.888 24.504 6.52 24.504 6.072C24.504 5.592 24.632 5.156 24.888 4.764C25.152 4.364 25.544 4.048 26.064 3.816C26.592 3.576 27.252 3.456 28.044 3.456C28.572 3.456 29.092 3.52 29.604 3.648C30.116 3.768 30.568 3.952 30.96 4.2L30.36 5.676C29.968 5.452 29.576 5.288 29.184 5.184C28.792 5.072 28.408 5.016 28.032 5.016C27.656 5.016 27.348 5.06 27.108 5.148C26.868 5.236 26.696 5.352 26.592 5.496C26.488 5.632 26.436 5.792 26.436 5.976C26.436 6.192 26.524 6.368 26.7 6.504C26.876 6.632 27.108 6.736 27.396 6.816C27.684 6.896 28 6.976 28.344 7.056C28.696 7.136 29.044 7.228 29.388 7.332C29.74 7.436 30.06 7.576 30.348 7.752C30.636 7.928 30.868 8.16 31.044 8.448C31.228 8.736 31.32 9.1 31.32 9.54C31.32 10.012 31.188 10.444 30.924 10.836C30.66 11.228 30.264 11.544 29.736 11.784C29.216 12.024 28.556 12.144 27.756 12.144ZM36.4403 5.448C36.9523 5.448 37.4083 5.552 37.8083 5.76C38.2163 5.96 38.5363 6.272 38.7683 6.696C39.0003 7.112 39.1163 7.648 39.1163 8.304V12H37.2443V8.592C37.2443 8.072 37.1283 7.688 36.8963 7.44C36.6723 7.192 36.3523 7.068 35.9363 7.068C35.6403 7.068 35.3723 7.132 35.1323 7.26C34.9003 7.38 34.7163 7.568 34.5803 7.824C34.4523 8.08 34.3883 8.408 34.3883 8.808V12H32.5163V3.096H34.3883V7.332L33.9683 6.792C34.2003 6.36 34.5323 6.028 34.9643 5.796C35.3963 5.564 35.8883 5.448 36.4403 5.448ZM41.512 14.424C41.176 14.424 40.844 14.372 40.516 14.268C40.188 14.164 39.92 14.02 39.712 13.836L40.396 12.504C40.54 12.632 40.704 12.732 40.888 12.804C41.08 12.876 41.268 12.912 41.452 12.912C41.716 12.912 41.924 12.848 42.076 12.72C42.236 12.6 42.38 12.396 42.508 12.108L42.844 11.316L42.988 11.112L45.304 5.544H47.104L44.188 12.396C43.98 12.916 43.74 13.324 43.468 13.62C43.204 13.916 42.908 14.124 42.58 14.244C42.26 14.364 41.904 14.424 41.512 14.424ZM42.616 12.252L39.736 5.544H41.668L43.9 10.944L42.616 12.252ZM51.617 12V10.74L51.497 10.464V8.208C51.497 7.808 51.373 7.496 51.125 7.272C50.885 7.048 50.513 6.936 50.009 6.936C49.665 6.936 49.325 6.992 48.989 7.104C48.661 7.208 48.381 7.352 48.149 7.536L47.477 6.228C47.829 5.98 48.253 5.788 48.749 5.652C49.245 5.516 49.749 5.448 50.261 5.448C51.245 5.448 52.009 5.68 52.553 6.144C53.097 6.608 53.369 7.332 53.369 8.316V12H51.617ZM49.649 12.096C49.145 12.096 48.713 12.012 48.353 11.844C47.993 11.668 47.717 11.432 47.525 11.136C47.333 10.84 47.237 10.508 47.237 10.14C47.237 9.756 47.329 9.42 47.513 9.132C47.705 8.844 48.005 8.62 48.413 8.46C48.821 8.292 49.353 8.208 50.009 8.208H51.725V9.3H50.213C49.773 9.3 49.469 9.372 49.301 9.516C49.141 9.66 49.061 9.84 49.061 10.056C49.061 10.296 49.153 10.488 49.337 10.632C49.529 10.768 49.789 10.836 50.117 10.836C50.429 10.836 50.709 10.764 50.957 10.62C51.205 10.468 51.385 10.248 51.497 9.96L51.785 10.824C51.649 11.24 51.401 11.556 51.041 11.772C50.681 11.988 50.217 12.096 49.649 12.096ZM63.3312 5.448C63.8432 5.448 64.2952 5.552 64.6872 5.76C65.0872 5.96 65.3992 6.272 65.6232 6.696C65.8552 7.112 65.9712 7.648 65.9712 8.304V12H64.0992V8.592C64.0992 8.072 63.9912 7.688 63.7752 7.44C63.5592 7.192 63.2552 7.068 62.8632 7.068C62.5912 7.068 62.3472 7.132 62.1312 7.26C61.9152 7.38 61.7472 7.564 61.6272 7.812C61.5072 8.06 61.4472 8.376 61.4472 8.76V12H59.5752V8.592C59.5752 8.072 59.4672 7.688 59.2512 7.44C59.0432 7.192 58.7432 7.068 58.3512 7.068C58.0792 7.068 57.8352 7.132 57.6192 7.26C57.4032 7.38 57.2352 7.564 57.1152 7.812C56.9952 8.06 56.9352 8.376 56.9352 8.76V12H55.0632V5.544H56.8512V7.308L56.5152 6.792C56.7392 6.352 57.0552 6.02 57.4632 5.796C57.8792 5.564 58.3512 5.448 58.8792 5.448C59.4712 5.448 59.9872 5.6 60.4272 5.904C60.8752 6.2 61.1712 6.656 61.3152 7.272L60.6552 7.092C60.8712 6.588 61.2152 6.188 61.6872 5.892C62.1672 5.596 62.7152 5.448 63.3312 5.448ZM71.1796 12V3.6H74.8156C75.5676 3.6 76.2156 3.724 76.7596 3.972C77.3036 4.212 77.7236 4.56 78.0196 5.016C78.3156 5.472 78.4636 6.016 78.4636 6.648C78.4636 7.272 78.3156 7.812 78.0196 8.268C77.7236 8.724 77.3036 9.076 76.7596 9.324C76.2156 9.564 75.5676 9.684 74.8156 9.684H72.2596L73.1236 8.808V12H71.1796ZM73.1236 9.024L72.2596 8.1H74.7076C75.3076 8.1 75.7556 7.972 76.0516 7.716C76.3476 7.46 76.4956 7.104 76.4956 6.648C76.4956 6.184 76.3476 5.824 76.0516 5.568C75.7556 5.312 75.3076 5.184 74.7076 5.184H72.2596L73.1236 4.26V9.024ZM79.7078 12V5.544H81.4958V7.368L81.2438 6.84C81.4358 6.384 81.7438 6.04 82.1678 5.808C82.5918 5.568 83.1078 5.448 83.7158 5.448V7.176C83.6358 7.168 83.5638 7.164 83.4998 7.164C83.4358 7.156 83.3678 7.152 83.2958 7.152C82.7838 7.152 82.3678 7.3 82.0478 7.596C81.7358 7.884 81.5798 8.336 81.5798 8.952V12H79.7078ZM88.367 12V10.74L88.247 10.464V8.208C88.247 7.808 88.123 7.496 87.875 7.272C87.635 7.048 87.263 6.936 86.759 6.936C86.415 6.936 86.075 6.992 85.739 7.104C85.411 7.208 85.131 7.352 84.899 7.536L84.227 6.228C84.579 5.98 85.003 5.788 85.499 5.652C85.995 5.516 86.499 5.448 87.011 5.448C87.995 5.448 88.759 5.68 89.303 6.144C89.847 6.608 90.119 7.332 90.119 8.316V12H88.367ZM86.399 12.096C85.895 12.096 85.463 12.012 85.103 11.844C84.743 11.668 84.467 11.432 84.275 11.136C84.083 10.84 83.987 10.508 83.987 10.14C83.987 9.756 84.079 9.42 84.263 9.132C84.455 8.844 84.755 8.62 85.163 8.46C85.571 8.292 86.103 8.208 86.759 8.208H88.475V9.3H86.963C86.523 9.3 86.219 9.372 86.051 9.516C85.891 9.66 85.811 9.84 85.811 10.056C85.811 10.296 85.903 10.488 86.087 10.632C86.279 10.768 86.539 10.836 86.867 10.836C87.179 10.836 87.459 10.764 87.707 10.62C87.955 10.468 88.135 10.248 88.247 9.96L88.535 10.824C88.399 11.24 88.151 11.556 87.791 11.772C87.431 11.988 86.967 12.096 86.399 12.096ZM93.3612 10.68L93.4092 8.4L96.4212 5.544H98.6532L95.7612 8.484L94.7892 9.276L93.3612 10.68ZM91.8132 12V3.096H93.6852V12H91.8132ZM96.6252 12L94.4412 9.288L95.6172 7.836L98.8932 12H96.6252ZM103.578 12V10.74L103.458 10.464V8.208C103.458 7.808 103.334 7.496 103.086 7.272C102.846 7.048 102.474 6.936 101.97 6.936C101.626 6.936 101.286 6.992 100.95 7.104C100.622 7.208 100.342 7.352 100.11 7.536L99.4379 6.228C99.7899 5.98 100.214 5.788 100.71 5.652C101.206 5.516 101.71 5.448 102.222 5.448C103.206 5.448 103.97 5.68 104.514 6.144C105.058 6.608 105.33 7.332 105.33 8.316V12H103.578ZM101.61 12.096C101.106 12.096 100.674 12.012 100.314 11.844C99.9539 11.668 99.6779 11.432 99.4859 11.136C99.2939 10.84 99.1979 10.508 99.1979 10.14C99.1979 9.756 99.2899 9.42 99.4739 9.132C99.6659 8.844 99.9659 8.62 100.374 8.46C100.782 8.292 101.314 8.208 101.97 8.208H103.686V9.3H102.174C101.734 9.3 101.43 9.372 101.262 9.516C101.102 9.66 101.022 9.84 101.022 10.056C101.022 10.296 101.114 10.488 101.298 10.632C101.49 10.768 101.75 10.836 102.078 10.836C102.39 10.836 102.67 10.764 102.918 10.62C103.166 10.468 103.346 10.248 103.458 9.96L103.746 10.824C103.61 11.24 103.362 11.556 103.002 11.772C102.642 11.988 102.178 12.096 101.61 12.096ZM109.196 12.096C108.644 12.096 108.112 12.032 107.6 11.904C107.096 11.768 106.696 11.6 106.4 11.4L107.024 10.056C107.32 10.24 107.668 10.392 108.068 10.512C108.476 10.624 108.876 10.68 109.268 10.68C109.7 10.68 110.004 10.628 110.18 10.524C110.364 10.42 110.456 10.276 110.456 10.092C110.456 9.94 110.384 9.828 110.24 9.756C110.104 9.676 109.92 9.616 109.688 9.576C109.456 9.536 109.2 9.496 108.92 9.456C108.648 9.416 108.372 9.364 108.092 9.3C107.812 9.228 107.556 9.124 107.324 8.988C107.092 8.852 106.904 8.668 106.76 8.436C106.624 8.204 106.556 7.904 106.556 7.536C106.556 7.128 106.672 6.768 106.904 6.456C107.144 6.144 107.488 5.9 107.936 5.724C108.384 5.54 108.92 5.448 109.544 5.448C109.984 5.448 110.432 5.496 110.888 5.592C111.344 5.688 111.724 5.828 112.028 6.012L111.404 7.344C111.092 7.16 110.776 7.036 110.456 6.972C110.144 6.9 109.84 6.864 109.544 6.864C109.128 6.864 108.824 6.92 108.632 7.032C108.44 7.144 108.344 7.288 108.344 7.464C108.344 7.624 108.412 7.744 108.548 7.824C108.692 7.904 108.88 7.968 109.112 8.016C109.344 8.064 109.596 8.108 109.868 8.148C110.148 8.18 110.428 8.232 110.708 8.304C110.988 8.376 111.24 8.48 111.464 8.616C111.696 8.744 111.884 8.924 112.028 9.156C112.172 9.38 112.244 9.676 112.244 10.044C112.244 10.444 112.124 10.8 111.884 11.112C111.644 11.416 111.296 11.656 110.84 11.832C110.392 12.008 109.844 12.096 109.196 12.096ZM117.323 5.448C117.835 5.448 118.291 5.552 118.691 5.76C119.099 5.96 119.419 6.272 119.651 6.696C119.883 7.112 119.999 7.648 119.999 8.304V12H118.127V8.592C118.127 8.072 118.011 7.688 117.779 7.44C117.555 7.192 117.235 7.068 116.819 7.068C116.523 7.068 116.255 7.132 116.015 7.26C115.783 7.38 115.599 7.568 115.463 7.824C115.335 8.08 115.271 8.408 115.271 8.808V12H113.399V3.096H115.271V7.332L114.851 6.792C115.083 6.36 115.415 6.028 115.847 5.796C116.279 5.564 116.771 5.448 117.323 5.448ZM126.606 14.328C126.126 13.6 125.754 12.76 125.49 11.808C125.234 10.848 125.106 9.816 125.106 8.712C125.106 7.608 125.234 6.576 125.49 5.616C125.754 4.648 126.126 3.808 126.606 3.096H128.394C127.89 4 127.522 4.912 127.29 5.832C127.058 6.744 126.942 7.704 126.942 8.712C126.942 9.72 127.058 10.684 127.29 11.604C127.522 12.516 127.89 13.424 128.394 14.328H126.606ZM133.536 12.144C132.888 12.144 132.284 12.04 131.724 11.832C131.172 11.616 130.692 11.312 130.284 10.92C129.876 10.528 129.556 10.068 129.324 9.54C129.1 9.012 128.988 8.432 128.988 7.8C128.988 7.168 129.1 6.588 129.324 6.06C129.556 5.532 129.876 5.072 130.284 4.68C130.7 4.288 131.184 3.988 131.736 3.78C132.288 3.564 132.892 3.456 133.548 3.456C134.276 3.456 134.932 3.584 135.516 3.84C136.108 4.088 136.604 4.456 137.004 4.944L135.756 6.096C135.468 5.768 135.148 5.524 134.796 5.364C134.444 5.196 134.06 5.112 133.644 5.112C133.252 5.112 132.892 5.176 132.564 5.304C132.236 5.432 131.952 5.616 131.712 5.856C131.472 6.096 131.284 6.38 131.148 6.708C131.02 7.036 130.956 7.4 130.956 7.8C130.956 8.2 131.02 8.564 131.148 8.892C131.284 9.22 131.472 9.504 131.712 9.744C131.952 9.984 132.236 10.168 132.564 10.296C132.892 10.424 133.252 10.488 133.644 10.488C134.06 10.488 134.444 10.408 134.796 10.248C135.148 10.08 135.468 9.828 135.756 9.492L137.004 10.644C136.604 11.132 136.108 11.504 135.516 11.76C134.932 12.016 134.272 12.144 133.536 12.144ZM140.104 6.984H144.148V8.496H140.104V6.984ZM140.248 10.44H144.82V12H138.316V3.6H144.664V5.16H140.248V10.44ZM150.447 12.144C149.783 12.144 149.167 12.036 148.599 11.82C148.039 11.604 147.551 11.3 147.135 10.908C146.727 10.516 146.407 10.056 146.175 9.528C145.951 9 145.839 8.424 145.839 7.8C145.839 7.176 145.951 6.6 146.175 6.072C146.407 5.544 146.731 5.084 147.147 4.692C147.563 4.3 148.051 3.996 148.611 3.78C149.171 3.564 149.779 3.456 150.435 3.456C151.099 3.456 151.707 3.564 152.259 3.78C152.819 3.996 153.303 4.3 153.711 4.692C154.127 5.084 154.451 5.544 154.683 6.072C154.915 6.592 155.031 7.168 155.031 7.8C155.031 8.424 154.915 9.004 154.683 9.54C154.451 10.068 154.127 10.528 153.711 10.92C153.303 11.304 152.819 11.604 152.259 11.82C151.707 12.036 151.103 12.144 150.447 12.144ZM150.435 10.488C150.811 10.488 151.155 10.424 151.467 10.296C151.787 10.168 152.067 9.984 152.307 9.744C152.547 9.504 152.731 9.22 152.859 8.892C152.995 8.564 153.063 8.2 153.063 7.8C153.063 7.4 152.995 7.036 152.859 6.708C152.731 6.38 152.547 6.096 152.307 5.856C152.075 5.616 151.799 5.432 151.479 5.304C151.159 5.176 150.811 5.112 150.435 5.112C150.059 5.112 149.711 5.176 149.391 5.304C149.079 5.432 148.803 5.616 148.563 5.856C148.323 6.096 148.135 6.38 147.999 6.708C147.871 7.036 147.807 7.4 147.807 7.8C147.807 8.192 147.871 8.556 147.999 8.892C148.135 9.22 148.319 9.504 148.551 9.744C148.791 9.984 149.071 10.168 149.391 10.296C149.711 10.424 150.059 10.488 150.435 10.488ZM157.474 14.328H155.686C156.206 13.424 156.578 12.516 156.802 11.604C157.034 10.684 157.15 9.72 157.15 8.712C157.15 7.704 157.034 6.744 156.802 5.832C156.578 4.912 156.206 4 155.686 3.096H157.474C157.97 3.808 158.346 4.648 158.602 5.616C158.858 6.576 158.986 7.608 158.986 8.712C158.986 9.816 158.858 10.848 158.602 11.808C158.346 12.76 157.97 13.6 157.474 14.328Z" fill="#0A7238"/>
<path d="M26.4 32.05C25.9667 32.05 25.5567 31.99 25.17 31.87C24.7833 31.7433 24.48 31.5867 24.26 31.4L24.58 30.84C24.7933 31 25.0667 31.14 25.4 31.26C25.7333 31.3733 26.0833 31.43 26.45 31.43C26.95 31.43 27.31 31.3533 27.53 31.2C27.75 31.04 27.86 30.83 27.86 30.57C27.86 30.3767 27.7967 30.2267 27.67 30.12C27.55 30.0067 27.39 29.9233 27.19 29.87C26.99 29.81 26.7667 29.76 26.52 29.72C26.2733 29.68 26.0267 29.6333 25.78 29.58C25.54 29.5267 25.32 29.45 25.12 29.35C24.92 29.2433 24.7567 29.1 24.63 28.92C24.51 28.74 24.45 28.5 24.45 28.2C24.45 27.9133 24.53 27.6567 24.69 27.43C24.85 27.2033 25.0833 27.0267 25.39 26.9C25.7033 26.7667 26.0833 26.7 26.53 26.7C26.87 26.7 27.21 26.7467 27.55 26.84C27.89 26.9267 28.17 27.0433 28.39 27.19L28.08 27.76C27.8467 27.6 27.5967 27.4867 27.33 27.42C27.0633 27.3467 26.7967 27.31 26.53 27.31C26.0567 27.31 25.7067 27.3933 25.48 27.56C25.26 27.72 25.15 27.9267 25.15 28.18C25.15 28.38 25.21 28.5367 25.33 28.65C25.4567 28.7633 25.62 28.8533 25.82 28.92C26.0267 28.98 26.25 29.03 26.49 29.07C26.7367 29.11 26.98 29.16 27.22 29.22C27.4667 29.2733 27.69 29.35 27.89 29.45C28.0967 29.5433 28.26 29.68 28.38 29.86C28.5067 30.0333 28.57 30.2633 28.57 30.55C28.57 30.8567 28.4833 31.1233 28.31 31.35C28.1433 31.57 27.8967 31.7433 27.57 31.87C27.25 31.99 26.86 32.05 26.4 32.05ZM36.4328 26.7C36.8595 26.7 37.2295 26.7833 37.5428 26.95C37.8628 27.11 38.1095 27.3567 38.2828 27.69C38.4628 28.0233 38.5528 28.4433 38.5528 28.95V32H37.8428V29.02C37.8428 28.4667 37.7095 28.05 37.4428 27.77C37.1828 27.4833 36.8128 27.34 36.3328 27.34C35.9728 27.34 35.6595 27.4167 35.3928 27.57C35.1328 27.7167 34.9295 27.9333 34.7828 28.22C34.6428 28.5 34.5728 28.84 34.5728 29.24V32H33.8628V29.02C33.8628 28.4667 33.7295 28.05 33.4628 27.77C33.1961 27.4833 32.8228 27.34 32.3428 27.34C31.9895 27.34 31.6795 27.4167 31.4128 27.57C31.1461 27.7167 30.9395 27.9333 30.7928 28.22C30.6528 28.5 30.5828 28.84 30.5828 29.24V32H29.8728V26.75H30.5528V28.17L30.4428 27.92C30.6028 27.54 30.8595 27.2433 31.2128 27.03C31.5728 26.81 31.9961 26.7 32.4828 26.7C32.9961 26.7 33.4328 26.83 33.7928 27.09C34.1528 27.3433 34.3861 27.7267 34.4928 28.24L34.2128 28.13C34.3661 27.7033 34.6361 27.36 35.0228 27.1C35.4161 26.8333 35.8861 26.7 36.4328 26.7ZM43.7683 32V30.84L43.7383 30.65V28.71C43.7383 28.2633 43.6116 27.92 43.3583 27.68C43.1116 27.44 42.7416 27.32 42.2483 27.32C41.9083 27.32 41.5849 27.3767 41.2783 27.49C40.9716 27.6033 40.7116 27.7533 40.4983 27.94L40.1783 27.41C40.4449 27.1833 40.7649 27.01 41.1383 26.89C41.5116 26.7633 41.9049 26.7 42.3183 26.7C42.9983 26.7 43.5216 26.87 43.8883 27.21C44.2616 27.5433 44.4483 28.0533 44.4483 28.74V32H43.7683ZM41.9583 32.05C41.5649 32.05 41.2216 31.9867 40.9283 31.86C40.6416 31.7267 40.4216 31.5467 40.2683 31.32C40.1149 31.0867 40.0383 30.82 40.0383 30.52C40.0383 30.2467 40.1016 30 40.2283 29.78C40.3616 29.5533 40.5749 29.3733 40.8683 29.24C41.1683 29.1 41.5683 29.03 42.0683 29.03H43.8783V29.56H42.0883C41.5816 29.56 41.2283 29.65 41.0283 29.83C40.8349 30.01 40.7383 30.2333 40.7383 30.5C40.7383 30.8 40.8549 31.04 41.0883 31.22C41.3216 31.4 41.6483 31.49 42.0683 31.49C42.4683 31.49 42.8116 31.4 43.0983 31.22C43.3916 31.0333 43.6049 30.7667 43.7383 30.42L43.8983 30.91C43.7649 31.2567 43.5316 31.5333 43.1983 31.74C42.8716 31.9467 42.4583 32.05 41.9583 32.05ZM46.3767 32V26.75H47.0567V28.18L46.9867 27.93C47.1334 27.53 47.3801 27.2267 47.7267 27.02C48.0734 26.8067 48.5034 26.7 49.0167 26.7V27.39C48.9901 27.39 48.9634 27.39 48.9367 27.39C48.9101 27.3833 48.8834 27.38 48.8567 27.38C48.3034 27.38 47.8701 27.55 47.5567 27.89C47.2434 28.2233 47.0867 28.7 47.0867 29.32V32H46.3767ZM52.1969 32.05C51.7035 32.05 51.3235 31.9167 51.0569 31.65C50.7902 31.3833 50.6569 31.0067 50.6569 30.52V25.59H51.3669V30.48C51.3669 30.7867 51.4435 31.0233 51.5969 31.19C51.7569 31.3567 51.9835 31.44 52.2769 31.44C52.5902 31.44 52.8502 31.35 53.0569 31.17L53.3069 31.68C53.1669 31.8067 52.9969 31.9 52.7969 31.96C52.6035 32.02 52.4035 32.05 52.1969 32.05ZM49.7169 27.34V26.75H52.9669V27.34H49.7169ZM59.9266 32.05C59.4732 32.05 59.0632 31.9467 58.6966 31.74C58.3299 31.5267 58.0366 31.2233 57.8166 30.83C57.6032 30.43 57.4966 29.9433 57.4966 29.37C57.4966 28.7967 57.6032 28.3133 57.8166 27.92C58.0299 27.52 58.3199 27.2167 58.6866 27.01C59.0532 26.8033 59.4666 26.7 59.9266 26.7C60.4266 26.7 60.8732 26.8133 61.2666 27.04C61.6666 27.26 61.9799 27.5733 62.2066 27.98C62.4332 28.38 62.5466 28.8433 62.5466 29.37C62.5466 29.9033 62.4332 30.37 62.2066 30.77C61.9799 31.17 61.6666 31.4833 61.2666 31.71C60.8732 31.9367 60.4266 32.05 59.9266 32.05ZM57.2166 33.94V26.75H57.8966V28.33L57.8266 29.38L57.9266 30.44V33.94H57.2166ZM59.8766 31.42C60.2499 31.42 60.5832 31.3367 60.8766 31.17C61.1699 30.9967 61.4032 30.7567 61.5766 30.45C61.7499 30.1367 61.8366 29.7767 61.8366 29.37C61.8366 28.9633 61.7499 28.6067 61.5766 28.3C61.4032 27.9933 61.1699 27.7533 60.8766 27.58C60.5832 27.4067 60.2499 27.32 59.8766 27.32C59.5032 27.32 59.1666 27.4067 58.8666 27.58C58.5732 27.7533 58.3399 27.9933 58.1666 28.3C57.9999 28.6067 57.9166 28.9633 57.9166 29.37C57.9166 29.7767 57.9999 30.1367 58.1666 30.45C58.3399 30.7567 58.5732 30.9967 58.8666 31.17C59.1666 31.3367 59.5032 31.42 59.8766 31.42ZM66.1339 32.05C65.6272 32.05 65.1706 31.9367 64.7639 31.71C64.3639 31.4767 64.0472 31.16 63.8139 30.76C63.5806 30.3533 63.4639 29.89 63.4639 29.37C63.4639 28.8433 63.5806 28.38 63.8139 27.98C64.0472 27.58 64.3639 27.2667 64.7639 27.04C65.1639 26.8133 65.6206 26.7 66.1339 26.7C66.6539 26.7 67.1139 26.8133 67.5139 27.04C67.9206 27.2667 68.2372 27.58 68.4639 27.98C68.6972 28.38 68.8139 28.8433 68.8139 29.37C68.8139 29.89 68.6972 30.3533 68.4639 30.76C68.2372 31.16 67.9206 31.4767 67.5139 31.71C67.1072 31.9367 66.6472 32.05 66.1339 32.05ZM66.1339 31.42C66.5139 31.42 66.8506 31.3367 67.1439 31.17C67.4372 30.9967 67.6672 30.7567 67.8339 30.45C68.0072 30.1367 68.0939 29.7767 68.0939 29.37C68.0939 28.9567 68.0072 28.5967 67.8339 28.29C67.6672 27.9833 67.4372 27.7467 67.1439 27.58C66.8506 27.4067 66.5172 27.32 66.1439 27.32C65.7706 27.32 65.4372 27.4067 65.1439 27.58C64.8506 27.7467 64.6172 27.9833 64.4439 28.29C64.2706 28.5967 64.1839 28.9567 64.1839 29.37C64.1839 29.7767 64.2706 30.1367 64.4439 30.45C64.6172 30.7567 64.8506 30.9967 65.1439 31.17C65.4372 31.3367 65.7672 31.42 66.1339 31.42ZM70.2634 32V24.58H70.9734V32H70.2634ZM72.989 33.99C72.7423 33.99 72.5057 33.95 72.279 33.87C72.059 33.79 71.869 33.67 71.709 33.51L72.039 32.98C72.1723 33.1067 72.3157 33.2033 72.469 33.27C72.629 33.3433 72.8057 33.38 72.999 33.38C73.2323 33.38 73.4323 33.3133 73.599 33.18C73.7723 33.0533 73.9357 32.8267 74.089 32.5L74.429 31.73L74.509 31.62L76.669 26.75H77.369L74.739 32.63C74.5923 32.97 74.429 33.24 74.249 33.44C74.0757 33.64 73.8857 33.78 73.679 33.86C73.4723 33.9467 73.2423 33.99 72.989 33.99ZM74.389 32.15L71.969 26.75H72.709L74.849 31.57L74.389 32.15ZM83.6961 32.05C83.2428 32.05 82.8328 31.9467 82.4661 31.74C82.0994 31.5267 81.8061 31.2233 81.5861 30.83C81.3728 30.43 81.2661 29.9433 81.2661 29.37C81.2661 28.7967 81.3728 28.3133 81.5861 27.92C81.7994 27.52 82.0894 27.2167 82.4561 27.01C82.8228 26.8033 83.2361 26.7 83.6961 26.7C84.1961 26.7 84.6428 26.8133 85.0361 27.04C85.4361 27.26 85.7494 27.5733 85.9761 27.98C86.2028 28.38 86.3161 28.8433 86.3161 29.37C86.3161 29.9033 86.2028 30.37 85.9761 30.77C85.7494 31.17 85.4361 31.4833 85.0361 31.71C84.6428 31.9367 84.1961 32.05 83.6961 32.05ZM80.9861 33.94V26.75H81.6661V28.33L81.5961 29.38L81.6961 30.44V33.94H80.9861ZM83.6461 31.42C84.0194 31.42 84.3528 31.3367 84.6461 31.17C84.9394 30.9967 85.1728 30.7567 85.3461 30.45C85.5194 30.1367 85.6061 29.7767 85.6061 29.37C85.6061 28.9633 85.5194 28.6067 85.3461 28.3C85.1728 27.9933 84.9394 27.7533 84.6461 27.58C84.3528 27.4067 84.0194 27.32 83.6461 27.32C83.2728 27.32 82.9361 27.4067 82.6361 27.58C82.3428 27.7533 82.1094 27.9933 81.9361 28.3C81.7694 28.6067 81.6861 28.9633 81.6861 29.37C81.6861 29.7767 81.7694 30.1367 81.9361 30.45C82.1094 30.7567 82.3428 30.9967 82.6361 31.17C82.9361 31.3367 83.2728 31.42 83.6461 31.42ZM91.0241 32V30.84L90.9941 30.65V28.71C90.9941 28.2633 90.8675 27.92 90.6141 27.68C90.3675 27.44 89.9975 27.32 89.5041 27.32C89.1641 27.32 88.8408 27.3767 88.5341 27.49C88.2275 27.6033 87.9675 27.7533 87.7541 27.94L87.4341 27.41C87.7008 27.1833 88.0208 27.01 88.3941 26.89C88.7675 26.7633 89.1608 26.7 89.5741 26.7C90.2541 26.7 90.7775 26.87 91.1441 27.21C91.5175 27.5433 91.7041 28.0533 91.7041 28.74V32H91.0241ZM89.2141 32.05C88.8208 32.05 88.4775 31.9867 88.1841 31.86C87.8975 31.7267 87.6775 31.5467 87.5241 31.32C87.3708 31.0867 87.2941 30.82 87.2941 30.52C87.2941 30.2467 87.3575 30 87.4841 29.78C87.6175 29.5533 87.8308 29.3733 88.1241 29.24C88.4241 29.1 88.8241 29.03 89.3241 29.03H91.1341V29.56H89.3441C88.8375 29.56 88.4841 29.65 88.2841 29.83C88.0908 30.01 87.9941 30.2333 87.9941 30.5C87.9941 30.8 88.1108 31.04 88.3441 31.22C88.5775 31.4 88.9041 31.49 89.3241 31.49C89.7241 31.49 90.0675 31.4 90.3541 31.22C90.6475 31.0333 90.8608 30.7667 90.9941 30.42L91.1541 30.91C91.0208 31.2567 90.7875 31.5333 90.4541 31.74C90.1275 31.9467 89.7141 32.05 89.2141 32.05ZM95.8126 32.05C95.2926 32.05 94.8259 31.9367 94.4126 31.71C94.0059 31.4767 93.6859 31.16 93.4526 30.76C93.2192 30.3533 93.1026 29.89 93.1026 29.37C93.1026 28.8433 93.2192 28.38 93.4526 27.98C93.6859 27.58 94.0059 27.2667 94.4126 27.04C94.8259 26.8133 95.2926 26.7 95.8126 26.7C96.2592 26.7 96.6626 26.7867 97.0226 26.96C97.3826 27.1333 97.6659 27.3933 97.8726 27.74L97.3426 28.1C97.1626 27.8333 96.9392 27.6367 96.6726 27.51C96.4059 27.3833 96.1159 27.32 95.8026 27.32C95.4292 27.32 95.0926 27.4067 94.7926 27.58C94.4926 27.7467 94.2559 27.9833 94.0826 28.29C93.9092 28.5967 93.8226 28.9567 93.8226 29.37C93.8226 29.7833 93.9092 30.1433 94.0826 30.45C94.2559 30.7567 94.4926 30.9967 94.7926 31.17C95.0926 31.3367 95.4292 31.42 95.8026 31.42C96.1159 31.42 96.4059 31.3567 96.6726 31.23C96.9392 31.1033 97.1626 30.91 97.3426 30.65L97.8726 31.01C97.6659 31.35 97.3826 31.61 97.0226 31.79C96.6626 31.9633 96.2592 32.05 95.8126 32.05ZM99.7492 30.64L99.7692 29.73L103.039 26.75H103.909L101.599 28.96L101.199 29.3L99.7492 30.64ZM99.1892 32V24.58H99.8992V32H99.1892ZM103.259 32L101.069 29.27L101.529 28.72L104.129 32H103.259ZM108.387 32V30.84L108.357 30.65V28.71C108.357 28.2633 108.231 27.92 107.977 27.68C107.731 27.44 107.361 27.32 106.867 27.32C106.527 27.32 106.204 27.3767 105.897 27.49C105.591 27.6033 105.331 27.7533 105.117 27.94L104.797 27.41C105.064 27.1833 105.384 27.01 105.757 26.89C106.131 26.7633 106.524 26.7 106.937 26.7C107.617 26.7 108.141 26.87 108.507 27.21C108.881 27.5433 109.067 28.0533 109.067 28.74V32H108.387ZM106.577 32.05C106.184 32.05 105.841 31.9867 105.547 31.86C105.261 31.7267 105.041 31.5467 104.887 31.32C104.734 31.0867 104.657 30.82 104.657 30.52C104.657 30.2467 104.721 30 104.847 29.78C104.981 29.5533 105.194 29.3733 105.487 29.24C105.787 29.1 106.187 29.03 106.687 29.03H108.497V29.56H106.707C106.201 29.56 105.847 29.65 105.647 29.83C105.454 30.01 105.357 30.2333 105.357 30.5C105.357 30.8 105.474 31.04 105.707 31.22C105.941 31.4 106.267 31.49 106.687 31.49C107.087 31.49 107.431 31.4 107.717 31.22C108.011 31.0333 108.224 30.7667 108.357 30.42L108.517 30.91C108.384 31.2567 108.151 31.5333 107.817 31.74C107.491 31.9467 107.077 32.05 106.577 32.05ZM113.236 33.99C112.756 33.99 112.296 33.92 111.856 33.78C111.416 33.64 111.059 33.44 110.786 33.18L111.146 32.64C111.393 32.86 111.696 33.0333 112.056 33.16C112.423 33.2933 112.809 33.36 113.216 33.36C113.883 33.36 114.373 33.2033 114.686 32.89C114.999 32.5833 115.156 32.1033 115.156 31.45V30.14L115.256 29.24L115.186 28.34V26.75H115.866V31.36C115.866 32.2667 115.643 32.93 115.196 33.35C114.756 33.7767 114.103 33.99 113.236 33.99ZM113.106 31.8C112.606 31.8 112.156 31.6933 111.756 31.48C111.356 31.26 111.039 30.9567 110.806 30.57C110.579 30.1833 110.466 29.74 110.466 29.24C110.466 28.74 110.579 28.3 110.806 27.92C111.039 27.5333 111.356 27.2333 111.756 27.02C112.156 26.8067 112.606 26.7 113.106 26.7C113.573 26.7 113.993 26.7967 114.366 26.99C114.739 27.1833 115.036 27.47 115.256 27.85C115.476 28.23 115.586 28.6933 115.586 29.24C115.586 29.7867 115.476 30.25 115.256 30.63C115.036 31.01 114.739 31.3 114.366 31.5C113.993 31.7 113.573 31.8 113.106 31.8ZM113.176 31.17C113.563 31.17 113.906 31.09 114.206 30.93C114.506 30.7633 114.743 30.5367 114.916 30.25C115.089 29.9567 115.176 29.62 115.176 29.24C115.176 28.86 115.089 28.5267 114.916 28.24C114.743 27.9533 114.506 27.73 114.206 27.57C113.906 27.4033 113.563 27.32 113.176 27.32C112.796 27.32 112.453 27.4033 112.146 27.57C111.846 27.73 111.609 27.9533 111.436 28.24C111.269 28.5267 111.186 28.86 111.186 29.24C111.186 29.62 111.269 29.9567 111.436 30.25C111.609 30.5367 111.846 30.7633 112.146 30.93C112.453 31.09 112.796 31.17 113.176 31.17ZM117.842 32V26.75H118.552V32H117.842ZM118.202 25.59C118.055 25.59 117.932 25.54 117.832 25.44C117.732 25.34 117.682 25.22 117.682 25.08C117.682 24.94 117.732 24.8233 117.832 24.73C117.932 24.63 118.055 24.58 118.202 24.58C118.348 24.58 118.472 24.6267 118.572 24.72C118.672 24.8133 118.722 24.93 118.722 25.07C118.722 25.2167 118.672 25.34 118.572 25.44C118.478 25.54 118.355 25.59 118.202 25.59ZM123.207 26.7C123.634 26.7 124.007 26.7833 124.327 26.95C124.654 27.11 124.907 27.3567 125.087 27.69C125.274 28.0233 125.367 28.4433 125.367 28.95V32H124.657V29.02C124.657 28.4667 124.517 28.05 124.237 27.77C123.964 27.4833 123.577 27.34 123.077 27.34C122.704 27.34 122.377 27.4167 122.097 27.57C121.824 27.7167 121.61 27.9333 121.457 28.22C121.31 28.5 121.237 28.84 121.237 29.24V32H120.527V26.75H121.207V28.19L121.097 27.92C121.264 27.54 121.53 27.2433 121.897 27.03C122.264 26.81 122.7 26.7 123.207 26.7ZM129.525 33.99C129.045 33.99 128.585 33.92 128.145 33.78C127.705 33.64 127.348 33.44 127.075 33.18L127.435 32.64C127.682 32.86 127.985 33.0333 128.345 33.16C128.712 33.2933 129.098 33.36 129.505 33.36C130.172 33.36 130.662 33.2033 130.975 32.89C131.288 32.5833 131.445 32.1033 131.445 31.45V30.14L131.545 29.24L131.475 28.34V26.75H132.155V31.36C132.155 32.2667 131.932 32.93 131.485 33.35C131.045 33.7767 130.392 33.99 129.525 33.99ZM129.395 31.8C128.895 31.8 128.445 31.6933 128.045 31.48C127.645 31.26 127.328 30.9567 127.095 30.57C126.868 30.1833 126.755 29.74 126.755 29.24C126.755 28.74 126.868 28.3 127.095 27.92C127.328 27.5333 127.645 27.2333 128.045 27.02C128.445 26.8067 128.895 26.7 129.395 26.7C129.862 26.7 130.282 26.7967 130.655 26.99C131.028 27.1833 131.325 27.47 131.545 27.85C131.765 28.23 131.875 28.6933 131.875 29.24C131.875 29.7867 131.765 30.25 131.545 30.63C131.325 31.01 131.028 31.3 130.655 31.5C130.282 31.7 129.862 31.8 129.395 31.8ZM129.465 31.17C129.852 31.17 130.195 31.09 130.495 30.93C130.795 30.7633 131.032 30.5367 131.205 30.25C131.378 29.9567 131.465 29.62 131.465 29.24C131.465 28.86 131.378 28.5267 131.205 28.24C131.032 27.9533 130.795 27.73 130.495 27.57C130.195 27.4033 129.852 27.32 129.465 27.32C129.085 27.32 128.742 27.4033 128.435 27.57C128.135 27.73 127.898 27.9533 127.725 28.24C127.558 28.5267 127.475 28.86 127.475 29.24C127.475 29.62 127.558 29.9567 127.725 30.25C127.898 30.5367 128.135 30.7633 128.435 30.93C128.742 31.09 129.085 31.17 129.465 31.17ZM136.898 32V25H137.508L142.338 31.08H142.018V25H142.748V32H142.138L137.318 25.92H137.638V32H136.898ZM147.023 32.05C146.516 32.05 146.059 31.9367 145.653 31.71C145.253 31.4767 144.936 31.16 144.703 30.76C144.469 30.3533 144.353 29.89 144.353 29.37C144.353 28.8433 144.469 28.38 144.703 27.98C144.936 27.58 145.253 27.2667 145.653 27.04C146.053 26.8133 146.509 26.7 147.023 26.7C147.543 26.7 148.003 26.8133 148.403 27.04C148.809 27.2667 149.126 27.58 149.353 27.98C149.586 28.38 149.703 28.8433 149.703 29.37C149.703 29.89 149.586 30.3533 149.353 30.76C149.126 31.16 148.809 31.4767 148.403 31.71C147.996 31.9367 147.536 32.05 147.023 32.05ZM147.023 31.42C147.403 31.42 147.739 31.3367 148.033 31.17C148.326 30.9967 148.556 30.7567 148.723 30.45C148.896 30.1367 148.983 29.7767 148.983 29.37C148.983 28.9567 148.896 28.5967 148.723 28.29C148.556 27.9833 148.326 27.7467 148.033 27.58C147.739 27.4067 147.406 27.32 147.033 27.32C146.659 27.32 146.326 27.4067 146.033 27.58C145.739 27.7467 145.506 27.9833 145.333 28.29C145.159 28.5967 145.073 28.9567 145.073 29.37C145.073 29.7767 145.159 30.1367 145.333 30.45C145.506 30.7567 145.739 30.9967 146.033 31.17C146.326 31.3367 146.656 31.42 147.023 31.42ZM151.076 32.05C150.929 32.05 150.802 31.9967 150.696 31.89C150.596 31.7833 150.546 31.6533 150.546 31.5C150.546 31.34 150.596 31.21 150.696 31.11C150.802 31.01 150.929 30.96 151.076 30.96C151.222 30.96 151.346 31.01 151.446 31.11C151.552 31.21 151.606 31.34 151.606 31.5C151.606 31.6533 151.552 31.7833 151.446 31.89C151.346 31.9967 151.222 32.05 151.076 32.05ZM154.842 32.06C154.336 32.06 153.856 31.98 153.402 31.82C152.956 31.6533 152.596 31.4333 152.322 31.16L152.672 30.59C152.899 30.8233 153.202 31.0167 153.582 31.17C153.969 31.3233 154.389 31.4 154.842 31.4C155.422 31.4 155.866 31.2733 156.172 31.02C156.486 30.7667 156.642 30.4267 156.642 30C156.642 29.5733 156.489 29.2333 156.182 28.98C155.882 28.7267 155.406 28.6 154.752 28.6H154.252V28.07L156.412 25.36L156.512 25.64H152.612V25H157.112V25.51L154.952 28.22L154.602 27.99H154.872C155.712 27.99 156.339 28.1767 156.752 28.55C157.172 28.9233 157.382 29.4033 157.382 29.99C157.382 30.3833 157.289 30.7367 157.102 31.05C156.916 31.3633 156.632 31.61 156.252 31.79C155.879 31.97 155.409 32.06 154.842 32.06ZM160.438 32.06C159.931 32.06 159.451 31.98 158.998 31.82C158.551 31.6533 158.191 31.4333 157.918 31.16L158.268 30.59C158.495 30.8233 158.798 31.0167 159.178 31.17C159.565 31.3233 159.985 31.4 160.438 31.4C161.018 31.4 161.461 31.2733 161.768 31.02C162.081 30.7667 162.238 30.4267 162.238 30C162.238 29.5733 162.085 29.2333 161.778 28.98C161.478 28.7267 161.001 28.6 160.348 28.6H159.848V28.07L162.008 25.36L162.108 25.64H158.208V25H162.708V25.51L160.548 28.22L160.198 27.99H160.468C161.308 27.99 161.935 28.1767 162.348 28.55C162.768 28.9233 162.978 29.4033 162.978 29.99C162.978 30.3833 162.885 30.7367 162.698 31.05C162.511 31.3633 162.228 31.61 161.848 31.79C161.475 31.97 161.005 32.06 160.438 32.06ZM164.033 33.46L164.473 31.61L164.553 32.04C164.399 32.04 164.269 31.99 164.163 31.89C164.063 31.79 164.013 31.66 164.013 31.5C164.013 31.34 164.063 31.21 164.163 31.11C164.269 31.01 164.396 30.96 164.543 30.96C164.696 30.96 164.819 31.0133 164.913 31.12C165.013 31.2267 165.063 31.3533 165.063 31.5C165.063 31.5533 165.059 31.6067 165.053 31.66C165.046 31.7133 165.033 31.7733 165.013 31.84C164.993 31.9067 164.966 31.9867 164.933 32.08L164.513 33.46H164.033ZM172.419 32.06C171.886 32.06 171.392 31.9733 170.939 31.8C170.492 31.62 170.102 31.37 169.769 31.05C169.442 30.73 169.186 30.3533 168.999 29.92C168.819 29.4867 168.729 29.0133 168.729 28.5C168.729 27.9867 168.819 27.5133 168.999 27.08C169.186 26.6467 169.446 26.27 169.779 25.95C170.112 25.63 170.502 25.3833 170.949 25.21C171.402 25.03 171.896 24.94 172.429 24.94C172.962 24.94 173.449 25.0233 173.889 25.19C174.336 25.3567 174.716 25.61 175.029 25.95L174.569 26.42C174.276 26.1267 173.952 25.9167 173.599 25.79C173.246 25.6633 172.866 25.6 172.459 25.6C172.026 25.6 171.626 25.6733 171.259 25.82C170.899 25.96 170.582 26.1633 170.309 26.43C170.042 26.69 169.832 26.9967 169.679 27.35C169.532 27.6967 169.459 28.08 169.459 28.5C169.459 28.9133 169.532 29.2967 169.679 29.65C169.832 30.0033 170.042 30.3133 170.309 30.58C170.582 30.84 170.899 31.0433 171.259 31.19C171.626 31.33 172.022 31.4 172.449 31.4C172.849 31.4 173.226 31.34 173.579 31.22C173.939 31.1 174.269 30.8967 174.569 30.61L174.989 31.17C174.656 31.4633 174.266 31.6867 173.819 31.84C173.372 31.9867 172.906 32.06 172.419 32.06ZM174.279 31.08V28.5H174.989V31.17L174.279 31.08ZM180.223 32V30.84L180.193 30.65V28.71C180.193 28.2633 180.067 27.92 179.813 27.68C179.567 27.44 179.197 27.32 178.703 27.32C178.363 27.32 178.04 27.3767 177.733 27.49C177.427 27.6033 177.167 27.7533 176.953 27.94L176.633 27.41C176.9 27.1833 177.22 27.01 177.593 26.89C177.967 26.7633 178.36 26.7 178.773 26.7C179.453 26.7 179.977 26.87 180.343 27.21C180.717 27.5433 180.903 28.0533 180.903 28.74V32H180.223ZM178.413 32.05C178.02 32.05 177.677 31.9867 177.383 31.86C177.097 31.7267 176.877 31.5467 176.723 31.32C176.57 31.0867 176.493 30.82 176.493 30.52C176.493 30.2467 176.557 30 176.683 29.78C176.817 29.5533 177.03 29.3733 177.323 29.24C177.623 29.1 178.023 29.03 178.523 29.03H180.333V29.56H178.543C178.037 29.56 177.683 29.65 177.483 29.83C177.29 30.01 177.193 30.2333 177.193 30.5C177.193 30.8 177.31 31.04 177.543 31.22C177.777 31.4 178.103 31.49 178.523 31.49C178.923 31.49 179.267 31.4 179.553 31.22C179.847 31.0333 180.06 30.7667 180.193 30.42L180.353 30.91C180.22 31.2567 179.987 31.5333 179.653 31.74C179.327 31.9467 178.913 32.05 178.413 32.05ZM185.512 26.7C185.938 26.7 186.312 26.7833 186.632 26.95C186.958 27.11 187.212 27.3567 187.392 27.69C187.578 28.0233 187.672 28.4433 187.672 28.95V32H186.962V29.02C186.962 28.4667 186.822 28.05 186.542 27.77C186.268 27.4833 185.882 27.34 185.382 27.34C185.008 27.34 184.682 27.4167 184.402 27.57C184.128 27.7167 183.915 27.9333 183.762 28.22C183.615 28.5 183.542 28.84 183.542 29.24V32H182.832V26.75H183.512V28.19L183.402 27.92C183.568 27.54 183.835 27.2433 184.202 27.03C184.568 26.81 185.005 26.7 185.512 26.7ZM191.68 32.05C191.18 32.05 190.73 31.9367 190.33 31.71C189.936 31.4833 189.626 31.17 189.4 30.77C189.173 30.3633 189.06 29.8967 189.06 29.37C189.06 28.8367 189.173 28.37 189.4 27.97C189.626 27.57 189.936 27.26 190.33 27.04C190.73 26.8133 191.18 26.7 191.68 26.7C192.14 26.7 192.55 26.8033 192.91 27.01C193.276 27.2167 193.566 27.52 193.78 27.92C194 28.3133 194.11 28.7967 194.11 29.37C194.11 29.9367 194.003 30.42 193.79 30.82C193.576 31.22 193.286 31.5267 192.92 31.74C192.56 31.9467 192.146 32.05 191.68 32.05ZM191.73 31.42C192.103 31.42 192.436 31.3367 192.73 31.17C193.03 30.9967 193.263 30.7567 193.43 30.45C193.603 30.1367 193.69 29.7767 193.69 29.37C193.69 28.9567 193.603 28.5967 193.43 28.29C193.263 27.9833 193.03 27.7467 192.73 27.58C192.436 27.4067 192.103 27.32 191.73 27.32C191.363 27.32 191.033 27.4067 190.74 27.58C190.446 27.7467 190.213 27.9833 190.04 28.29C189.866 28.5967 189.78 28.9567 189.78 29.37C189.78 29.7767 189.866 30.1367 190.04 30.45C190.213 30.7567 190.446 30.9967 190.74 31.17C191.033 31.3367 191.363 31.42 191.73 31.42ZM193.71 32V30.42L193.78 29.36L193.68 28.3V24.58H194.39V32H193.71ZM199.047 26.7C199.474 26.7 199.847 26.7833 200.167 26.95C200.494 27.11 200.747 27.3567 200.927 27.69C201.114 28.0233 201.207 28.4433 201.207 28.95V32H200.497V29.02C200.497 28.4667 200.357 28.05 200.077 27.77C199.804 27.4833 199.417 27.34 198.917 27.34C198.544 27.34 198.217 27.4167 197.937 27.57C197.664 27.7167 197.45 27.9333 197.297 28.22C197.15 28.5 197.077 28.84 197.077 29.24V32H196.367V24.58H197.077V28.19L196.937 27.92C197.104 27.54 197.37 27.2433 197.737 27.03C198.104 26.81 198.54 26.7 199.047 26.7ZM203.125 32V26.75H203.835V32H203.125ZM203.485 25.59C203.338 25.59 203.215 25.54 203.115 25.44C203.015 25.34 202.965 25.22 202.965 25.08C202.965 24.94 203.015 24.8233 203.115 24.73C203.215 24.63 203.338 24.58 203.485 24.58C203.631 24.58 203.755 24.6267 203.855 24.72C203.955 24.8133 204.005 24.93 204.005 25.07C204.005 25.2167 203.955 25.34 203.855 25.44C203.761 25.54 203.638 25.59 203.485 25.59ZM208.578 32V25H211.198C211.791 25 212.301 25.0967 212.728 25.29C213.154 25.4767 213.481 25.75 213.708 26.11C213.941 26.4633 214.058 26.8933 214.058 27.4C214.058 27.8933 213.941 28.32 213.708 28.68C213.481 29.0333 213.154 29.3067 212.728 29.5C212.301 29.6867 211.791 29.78 211.198 29.78H208.988L209.318 29.44V32H208.578ZM213.358 32L211.558 29.46H212.358L214.168 32H213.358ZM209.318 29.5L208.988 29.15H211.178C211.878 29.15 212.408 28.9967 212.768 28.69C213.134 28.3833 213.317 27.9533 213.317 27.4C213.317 26.84 213.134 26.4067 212.768 26.1C212.408 25.7933 211.878 25.64 211.178 25.64H208.988L209.318 25.29V29.5ZM217.794 32.05C217.287 32.05 216.831 31.9367 216.424 31.71C216.024 31.4767 215.707 31.16 215.474 30.76C215.241 30.3533 215.124 29.89 215.124 29.37C215.124 28.8433 215.241 28.38 215.474 27.98C215.707 27.58 216.024 27.2667 216.424 27.04C216.824 26.8133 217.281 26.7 217.794 26.7C218.314 26.7 218.774 26.8133 219.174 27.04C219.581 27.2667 219.897 27.58 220.124 27.98C220.357 28.38 220.474 28.8433 220.474 29.37C220.474 29.89 220.357 30.3533 220.124 30.76C219.897 31.16 219.581 31.4767 219.174 31.71C218.767 31.9367 218.307 32.05 217.794 32.05ZM217.794 31.42C218.174 31.42 218.511 31.3367 218.804 31.17C219.097 30.9967 219.327 30.7567 219.494 30.45C219.667 30.1367 219.754 29.7767 219.754 29.37C219.754 28.9567 219.667 28.5967 219.494 28.29C219.327 27.9833 219.097 27.7467 218.804 27.58C218.511 27.4067 218.177 27.32 217.804 27.32C217.431 27.32 217.097 27.4067 216.804 27.58C216.511 27.7467 216.277 27.9833 216.104 28.29C215.931 28.5967 215.844 28.9567 215.844 29.37C215.844 29.7767 215.931 30.1367 216.104 30.45C216.277 30.7567 216.511 30.9967 216.804 31.17C217.097 31.3367 217.427 31.42 217.794 31.42ZM225.184 32V30.84L225.154 30.65V28.71C225.154 28.2633 225.028 27.92 224.774 27.68C224.528 27.44 224.158 27.32 223.664 27.32C223.324 27.32 223.001 27.3767 222.694 27.49C222.388 27.6033 222.128 27.7533 221.914 27.94L221.594 27.41C221.861 27.1833 222.181 27.01 222.554 26.89C222.928 26.7633 223.321 26.7 223.734 26.7C224.414 26.7 224.938 26.87 225.304 27.21C225.678 27.5433 225.864 28.0533 225.864 28.74V32H225.184ZM223.374 32.05C222.981 32.05 222.638 31.9867 222.344 31.86C222.058 31.7267 221.838 31.5467 221.684 31.32C221.531 31.0867 221.454 30.82 221.454 30.52C221.454 30.2467 221.518 30 221.644 29.78C221.778 29.5533 221.991 29.3733 222.284 29.24C222.584 29.1 222.984 29.03 223.484 29.03H225.294V29.56H223.504C222.998 29.56 222.644 29.65 222.444 29.83C222.251 30.01 222.154 30.2333 222.154 30.5C222.154 30.8 222.271 31.04 222.504 31.22C222.738 31.4 223.064 31.49 223.484 31.49C223.884 31.49 224.228 31.4 224.514 31.22C224.808 31.0333 225.021 30.7667 225.154 30.42L225.314 30.91C225.181 31.2567 224.948 31.5333 224.614 31.74C224.288 31.9467 223.874 32.05 223.374 32.05ZM229.883 32.05C229.383 32.05 228.933 31.9367 228.533 31.71C228.139 31.4833 227.829 31.17 227.603 30.77C227.376 30.3633 227.263 29.8967 227.263 29.37C227.263 28.8367 227.376 28.37 227.603 27.97C227.829 27.57 228.139 27.26 228.533 27.04C228.933 26.8133 229.383 26.7 229.883 26.7C230.343 26.7 230.753 26.8033 231.113 27.01C231.479 27.2167 231.769 27.52 231.983 27.92C232.203 28.3133 232.313 28.7967 232.313 29.37C232.313 29.9367 232.206 30.42 231.993 30.82C231.779 31.22 231.489 31.5267 231.123 31.74C230.763 31.9467 230.349 32.05 229.883 32.05ZM229.933 31.42C230.306 31.42 230.639 31.3367 230.933 31.17C231.233 30.9967 231.466 30.7567 231.633 30.45C231.806 30.1367 231.893 29.7767 231.893 29.37C231.893 28.9567 231.806 28.5967 231.633 28.29C231.466 27.9833 231.233 27.7467 230.933 27.58C230.639 27.4067 230.306 27.32 229.933 27.32C229.566 27.32 229.236 27.4067 228.943 27.58C228.649 27.7467 228.416 27.9833 228.243 28.29C228.069 28.5967 227.983 28.9567 227.983 29.37C227.983 29.7767 228.069 30.1367 228.243 30.45C228.416 30.7567 228.649 30.9967 228.943 31.17C229.236 31.3367 229.566 31.42 229.933 31.42ZM231.913 32V30.42L231.983 29.36L231.883 28.3V24.58H232.593V32H231.913ZM234.14 33.46L234.58 31.61L234.66 32.04C234.507 32.04 234.377 31.99 234.27 31.89C234.17 31.79 234.12 31.66 234.12 31.5C234.12 31.34 234.17 31.21 234.27 31.11C234.377 31.01 234.503 30.96 234.65 30.96C234.803 30.96 234.927 31.0133 235.02 31.12C235.12 31.2267 235.17 31.3533 235.17 31.5C235.17 31.5533 235.167 31.6067 235.16 31.66C235.153 31.7133 235.14 31.7733 235.12 31.84C235.1 31.9067 235.073 31.9867 235.04 32.08L234.62 33.46H234.14ZM238.336 32L241.536 25H242.266L245.466 32H244.686L241.746 25.43H242.046L239.106 32H238.336ZM239.596 30.13L239.816 29.53H243.886L244.106 30.13H239.596ZM249.154 26.7C249.581 26.7 249.954 26.7833 250.274 26.95C250.601 27.11 250.854 27.3567 251.034 27.69C251.221 28.0233 251.314 28.4433 251.314 28.95V32H250.604V29.02C250.604 28.4667 250.464 28.05 250.184 27.77C249.911 27.4833 249.524 27.34 249.024 27.34C248.651 27.34 248.324 27.4167 248.044 27.57C247.771 27.7167 247.558 27.9333 247.404 28.22C247.258 28.5 247.184 28.84 247.184 29.24V32H246.474V26.75H247.154V28.19L247.044 27.92C247.211 27.54 247.478 27.2433 247.844 27.03C248.211 26.81 248.648 26.7 249.154 26.7ZM255.402 32.05C254.956 32.05 254.566 31.9667 254.232 31.8C253.899 31.6333 253.639 31.3833 253.452 31.05C253.272 30.7167 253.182 30.3 253.182 29.8V26.75H253.892V29.72C253.892 30.28 254.029 30.7033 254.302 30.99C254.582 31.27 254.972 31.41 255.472 31.41C255.839 31.41 256.156 31.3367 256.422 31.19C256.696 31.0367 256.902 30.8167 257.042 30.53C257.189 30.2433 257.262 29.9 257.262 29.5V26.75H257.972V32H257.292V30.56L257.402 30.82C257.236 31.2067 256.976 31.51 256.622 31.73C256.276 31.9433 255.869 32.05 255.402 32.05ZM262.661 32.05C262.208 32.05 261.798 31.9467 261.431 31.74C261.064 31.5267 260.771 31.2233 260.551 30.83C260.338 30.43 260.231 29.9433 260.231 29.37C260.231 28.7967 260.338 28.3133 260.551 27.92C260.764 27.52 261.054 27.2167 261.421 27.01C261.788 26.8033 262.201 26.7 262.661 26.7C263.161 26.7 263.608 26.8133 264.001 27.04C264.401 27.26 264.714 27.5733 264.941 27.98C265.168 28.38 265.281 28.8433 265.281 29.37C265.281 29.9033 265.168 30.37 264.941 30.77C264.714 31.17 264.401 31.4833 264.001 31.71C263.608 31.9367 263.161 32.05 262.661 32.05ZM259.951 33.94V26.75H260.631V28.33L260.561 29.38L260.661 30.44V33.94H259.951ZM262.611 31.42C262.984 31.42 263.318 31.3367 263.611 31.17C263.904 30.9967 264.138 30.7567 264.311 30.45C264.484 30.1367 264.571 29.7767 264.571 29.37C264.571 28.9633 264.484 28.6067 264.311 28.3C264.138 27.9933 263.904 27.7533 263.611 27.58C263.318 27.4067 262.984 27.32 262.611 27.32C262.238 27.32 261.901 27.4067 261.601 27.58C261.308 27.7533 261.074 27.9933 260.901 28.3C260.734 28.6067 260.651 28.9633 260.651 29.37C260.651 29.7767 260.734 30.1367 260.901 30.45C261.074 30.7567 261.308 30.9967 261.601 31.17C261.901 31.3367 262.238 31.42 262.611 31.42ZM269.438 32.05C268.985 32.05 268.575 31.9467 268.208 31.74C267.842 31.5267 267.548 31.2233 267.328 30.83C267.115 30.43 267.008 29.9433 267.008 29.37C267.008 28.7967 267.115 28.3133 267.328 27.92C267.542 27.52 267.832 27.2167 268.198 27.01C268.565 26.8033 268.978 26.7 269.438 26.7C269.938 26.7 270.385 26.8133 270.778 27.04C271.178 27.26 271.492 27.5733 271.718 27.98C271.945 28.38 272.058 28.8433 272.058 29.37C272.058 29.9033 271.945 30.37 271.718 30.77C271.492 31.17 271.178 31.4833 270.778 31.71C270.385 31.9367 269.938 32.05 269.438 32.05ZM266.728 33.94V26.75H267.408V28.33L267.338 29.38L267.438 30.44V33.94H266.728ZM269.388 31.42C269.762 31.42 270.095 31.3367 270.388 31.17C270.682 30.9967 270.915 30.7567 271.088 30.45C271.262 30.1367 271.348 29.7767 271.348 29.37C271.348 28.9633 271.262 28.6067 271.088 28.3C270.915 27.9933 270.682 27.7533 270.388 27.58C270.095 27.4067 269.762 27.32 269.388 27.32C269.015 27.32 268.678 27.4067 268.378 27.58C268.085 27.7533 267.852 27.9933 267.678 28.3C267.512 28.6067 267.428 28.9633 267.428 29.37C267.428 29.7767 267.512 30.1367 267.678 30.45C267.852 30.7567 268.085 30.9967 268.378 31.17C268.678 31.3367 269.015 31.42 269.388 31.42ZM276.766 32V30.84L276.736 30.65V28.71C276.736 28.2633 276.61 27.92 276.356 27.68C276.11 27.44 275.74 27.32 275.246 27.32C274.906 27.32 274.583 27.3767 274.276 27.49C273.97 27.6033 273.71 27.7533 273.496 27.94L273.176 27.41C273.443 27.1833 273.763 27.01 274.136 26.89C274.51 26.7633 274.903 26.7 275.316 26.7C275.996 26.7 276.52 26.87 276.886 27.21C277.26 27.5433 277.446 28.0533 277.446 28.74V32H276.766ZM274.956 32.05C274.563 32.05 274.22 31.9867 273.926 31.86C273.64 31.7267 273.42 31.5467 273.266 31.32C273.113 31.0867 273.036 30.82 273.036 30.52C273.036 30.2467 273.1 30 273.226 29.78C273.36 29.5533 273.573 29.3733 273.866 29.24C274.166 29.1 274.566 29.03 275.066 29.03H276.876V29.56H275.086C274.58 29.56 274.226 29.65 274.026 29.83C273.833 30.01 273.736 30.2333 273.736 30.5C273.736 30.8 273.853 31.04 274.086 31.22C274.32 31.4 274.646 31.49 275.066 31.49C275.466 31.49 275.81 31.4 276.096 31.22C276.39 31.0333 276.603 30.7667 276.736 30.42L276.896 30.91C276.763 31.2567 276.53 31.5333 276.196 31.74C275.87 31.9467 275.456 32.05 274.956 32.05ZM279.375 32V26.75H280.055V28.18L279.985 27.93C280.131 27.53 280.378 27.2267 280.725 27.02C281.071 26.8067 281.501 26.7 282.015 26.7V27.39C281.988 27.39 281.961 27.39 281.935 27.39C281.908 27.3833 281.881 27.38 281.855 27.38C281.301 27.38 280.868 27.55 280.555 27.89C280.241 28.2233 280.085 28.7 280.085 29.32V32H279.375ZM286.02 32.05C285.567 32.05 285.157 31.9467 284.79 31.74C284.424 31.5267 284.13 31.2233 283.91 30.83C283.697 30.43 283.59 29.9433 283.59 29.37C283.59 28.7967 283.697 28.3133 283.91 27.92C284.124 27.52 284.414 27.2167 284.78 27.01C285.147 26.8033 285.56 26.7 286.02 26.7C286.52 26.7 286.967 26.8133 287.36 27.04C287.76 27.26 288.074 27.5733 288.3 27.98C288.527 28.38 288.64 28.8433 288.64 29.37C288.64 29.9033 288.527 30.37 288.3 30.77C288.074 31.17 287.76 31.4833 287.36 31.71C286.967 31.9367 286.52 32.05 286.02 32.05ZM283.31 33.94V26.75H283.99V28.33L283.92 29.38L284.02 30.44V33.94H283.31ZM285.97 31.42C286.344 31.42 286.677 31.3367 286.97 31.17C287.264 30.9967 287.497 30.7567 287.67 30.45C287.844 30.1367 287.93 29.7767 287.93 29.37C287.93 28.9633 287.844 28.6067 287.67 28.3C287.497 27.9933 287.264 27.7533 286.97 27.58C286.677 27.4067 286.344 27.32 285.97 27.32C285.597 27.32 285.26 27.4067 284.96 27.58C284.667 27.7533 284.434 27.9933 284.26 28.3C284.094 28.6067 284.01 28.9633 284.01 29.37C284.01 29.7767 284.094 30.1367 284.26 30.45C284.434 30.7567 284.667 30.9967 284.96 31.17C285.26 31.3367 285.597 31.42 285.97 31.42ZM293.348 32V30.84L293.318 30.65V28.71C293.318 28.2633 293.192 27.92 292.938 27.68C292.692 27.44 292.322 27.32 291.828 27.32C291.488 27.32 291.165 27.3767 290.858 27.49C290.552 27.6033 290.292 27.7533 290.078 27.94L289.758 27.41C290.025 27.1833 290.345 27.01 290.718 26.89C291.092 26.7633 291.485 26.7 291.898 26.7C292.578 26.7 293.102 26.87 293.468 27.21C293.842 27.5433 294.028 28.0533 294.028 28.74V32H293.348ZM291.538 32.05C291.145 32.05 290.802 31.9867 290.508 31.86C290.222 31.7267 290.002 31.5467 289.848 31.32C289.695 31.0867 289.618 30.82 289.618 30.52C289.618 30.2467 289.682 30 289.808 29.78C289.942 29.5533 290.155 29.3733 290.448 29.24C290.748 29.1 291.148 29.03 291.648 29.03H293.458V29.56H291.668C291.162 29.56 290.808 29.65 290.608 29.83C290.415 30.01 290.318 30.2333 290.318 30.5C290.318 30.8 290.435 31.04 290.668 31.22C290.902 31.4 291.228 31.49 291.648 31.49C292.048 31.49 292.392 31.4 292.678 31.22C292.972 31.0333 293.185 30.7667 293.318 30.42L293.478 30.91C293.345 31.2567 293.112 31.5333 292.778 31.74C292.452 31.9467 292.038 32.05 291.538 32.05ZM295.957 32V24.58H296.667V32H295.957ZM301.932 32V30.84L301.902 30.65V28.71C301.902 28.2633 301.776 27.92 301.522 27.68C301.276 27.44 300.906 27.32 300.412 27.32C300.072 27.32 299.749 27.3767 299.442 27.49C299.136 27.6033 298.876 27.7533 298.662 27.94L298.342 27.41C298.609 27.1833 298.929 27.01 299.302 26.89C299.676 26.7633 300.069 26.7 300.482 26.7C301.162 26.7 301.686 26.87 302.052 27.21C302.426 27.5433 302.612 28.0533 302.612 28.74V32H301.932ZM300.122 32.05C299.729 32.05 299.386 31.9867 299.092 31.86C298.806 31.7267 298.586 31.5467 298.432 31.32C298.279 31.0867 298.202 30.82 298.202 30.52C298.202 30.2467 298.266 30 298.392 29.78C298.526 29.5533 298.739 29.3733 299.032 29.24C299.332 29.1 299.732 29.03 300.232 29.03H302.042V29.56H300.252C299.746 29.56 299.392 29.65 299.192 29.83C298.999 30.01 298.902 30.2333 298.902 30.5C298.902 30.8 299.019 31.04 299.252 31.22C299.486 31.4 299.812 31.49 300.232 31.49C300.632 31.49 300.976 31.4 301.262 31.22C301.556 31.0333 301.769 30.7667 301.902 30.42L302.062 30.91C301.929 31.2567 301.696 31.5333 301.362 31.74C301.036 31.9467 300.622 32.05 300.122 32.05ZM304.483 33.99C304.236 33.99 304 33.95 303.773 33.87C303.553 33.79 303.363 33.67 303.203 33.51L303.533 32.98C303.666 33.1067 303.81 33.2033 303.963 33.27C304.123 33.3433 304.3 33.38 304.493 33.38C304.726 33.38 304.926 33.3133 305.093 33.18C305.266 33.0533 305.43 32.8267 305.583 32.5L305.923 31.73L306.003 31.62L308.163 26.75H308.863L306.233 32.63C306.086 32.97 305.923 33.24 305.743 33.44C305.57 33.64 305.38 33.78 305.173 33.86C304.966 33.9467 304.736 33.99 304.483 33.99ZM305.883 32.15L303.463 26.75H304.203L306.343 31.57L305.883 32.15ZM312.997 32V30.84L312.967 30.65V28.71C312.967 28.2633 312.84 27.92 312.587 27.68C312.34 27.44 311.97 27.32 311.477 27.32C311.137 27.32 310.813 27.3767 310.507 27.49C310.2 27.6033 309.94 27.7533 309.727 27.94L309.407 27.41C309.673 27.1833 309.993 27.01 310.367 26.89C310.74 26.7633 311.133 26.7 311.547 26.7C312.227 26.7 312.75 26.87 313.117 27.21C313.49 27.5433 313.677 28.0533 313.677 28.74V32H312.997ZM311.187 32.05C310.793 32.05 310.45 31.9867 310.157 31.86C309.87 31.7267 309.65 31.5467 309.497 31.32C309.343 31.0867 309.267 30.82 309.267 30.52C309.267 30.2467 309.33 30 309.457 29.78C309.59 29.5533 309.803 29.3733 310.097 29.24C310.397 29.1 310.797 29.03 311.297 29.03H313.107V29.56H311.317C310.81 29.56 310.457 29.65 310.257 29.83C310.063 30.01 309.967 30.2333 309.967 30.5C309.967 30.8 310.083 31.04 310.317 31.22C310.55 31.4 310.877 31.49 311.297 31.49C311.697 31.49 312.04 31.4 312.327 31.22C312.62 31.0333 312.833 30.7667 312.967 30.42L313.127 30.91C312.993 31.2567 312.76 31.5333 312.427 31.74C312.1 31.9467 311.687 32.05 311.187 32.05ZM322.165 26.7C322.592 26.7 322.962 26.7833 323.275 26.95C323.595 27.11 323.842 27.3567 324.015 27.69C324.195 28.0233 324.285 28.4433 324.285 28.95V32H323.575V29.02C323.575 28.4667 323.442 28.05 323.175 27.77C322.915 27.4833 322.545 27.34 322.065 27.34C321.705 27.34 321.392 27.4167 321.125 27.57C320.865 27.7167 320.662 27.9333 320.515 28.22C320.375 28.5 320.305 28.84 320.305 29.24V32H319.595V29.02C319.595 28.4667 319.462 28.05 319.195 27.77C318.929 27.4833 318.555 27.34 318.075 27.34C317.722 27.34 317.412 27.4167 317.145 27.57C316.879 27.7167 316.672 27.9333 316.525 28.22C316.385 28.5 316.315 28.84 316.315 29.24V32H315.605V26.75H316.285V28.17L316.175 27.92C316.335 27.54 316.592 27.2433 316.945 27.03C317.305 26.81 317.729 26.7 318.215 26.7C318.729 26.7 319.165 26.83 319.525 27.09C319.885 27.3433 320.119 27.7267 320.225 28.24L319.945 28.13C320.099 27.7033 320.369 27.36 320.755 27.1C321.149 26.8333 321.619 26.7 322.165 26.7ZM26.5 47V40.64H24.04V40H29.7V40.64H27.24V47H26.5ZM30.7322 47V41.75H31.4422V47H30.7322ZM31.0922 40.59C30.9455 40.59 30.8222 40.54 30.7222 40.44C30.6222 40.34 30.5722 40.22 30.5722 40.08C30.5722 39.94 30.6222 39.8233 30.7222 39.73C30.8222 39.63 30.9455 39.58 31.0922 39.58C31.2389 39.58 31.3622 39.6267 31.4622 39.72C31.5622 39.8133 31.6122 39.93 31.6122 40.07C31.6122 40.2167 31.5622 40.34 31.4622 40.44C31.3689 40.54 31.2455 40.59 31.0922 40.59ZM33.4177 47V41.75H34.0977V43.18L34.0277 42.93C34.1744 42.53 34.4211 42.2267 34.7677 42.02C35.1144 41.8067 35.5444 41.7 36.0577 41.7V42.39C36.0311 42.39 36.0044 42.39 35.9777 42.39C35.9511 42.3833 35.9244 42.38 35.8977 42.38C35.3444 42.38 34.9111 42.55 34.5977 42.89C34.2844 43.2233 34.1277 43.7 34.1277 44.32V47H33.4177ZM39.6014 47.05C39.1547 47.05 38.7647 46.9667 38.4314 46.8C38.0981 46.6333 37.8381 46.3833 37.6514 46.05C37.4714 45.7167 37.3814 45.3 37.3814 44.8V41.75H38.0914V44.72C38.0914 45.28 38.2281 45.7033 38.5014 45.99C38.7814 46.27 39.1714 46.41 39.6714 46.41C40.0381 46.41 40.3547 46.3367 40.6214 46.19C40.8947 46.0367 41.1014 45.8167 41.2414 45.53C41.3881 45.2433 41.4614 44.9 41.4614 44.5V41.75H42.1714V47H41.4914V45.56L41.6014 45.82C41.4347 46.2067 41.1747 46.51 40.8214 46.73C40.4747 46.9433 40.0681 47.05 39.6014 47.05ZM46.8602 47.05C46.4068 47.05 45.9968 46.9467 45.6302 46.74C45.2635 46.5267 44.9702 46.2233 44.7502 45.83C44.5368 45.43 44.4302 44.9433 44.4302 44.37C44.4302 43.7967 44.5368 43.3133 44.7502 42.92C44.9635 42.52 45.2535 42.2167 45.6202 42.01C45.9868 41.8033 46.4002 41.7 46.8602 41.7C47.3602 41.7 47.8068 41.8133 48.2002 42.04C48.6002 42.26 48.9135 42.5733 49.1402 42.98C49.3668 43.38 49.4802 43.8433 49.4802 44.37C49.4802 44.9033 49.3668 45.37 49.1402 45.77C48.9135 46.17 48.6002 46.4833 48.2002 46.71C47.8068 46.9367 47.3602 47.05 46.8602 47.05ZM44.1502 48.94V41.75H44.8302V43.33L44.7602 44.38L44.8602 45.44V48.94H44.1502ZM46.8102 46.42C47.1835 46.42 47.5168 46.3367 47.8102 46.17C48.1035 45.9967 48.3368 45.7567 48.5102 45.45C48.6835 45.1367 48.7702 44.7767 48.7702 44.37C48.7702 43.9633 48.6835 43.6067 48.5102 43.3C48.3368 42.9933 48.1035 42.7533 47.8102 42.58C47.5168 42.4067 47.1835 42.32 46.8102 42.32C46.4368 42.32 46.1002 42.4067 45.8002 42.58C45.5068 42.7533 45.2735 42.9933 45.1002 43.3C44.9335 43.6067 44.8502 43.9633 44.8502 44.37C44.8502 44.7767 44.9335 45.1367 45.1002 45.45C45.2735 45.7567 45.5068 45.9967 45.8002 46.17C46.1002 46.3367 46.4368 46.42 46.8102 46.42ZM53.6375 47.05C53.1842 47.05 52.7742 46.9467 52.4075 46.74C52.0408 46.5267 51.7475 46.2233 51.5275 45.83C51.3142 45.43 51.2075 44.9433 51.2075 44.37C51.2075 43.7967 51.3142 43.3133 51.5275 42.92C51.7408 42.52 52.0308 42.2167 52.3975 42.01C52.7642 41.8033 53.1775 41.7 53.6375 41.7C54.1375 41.7 54.5842 41.8133 54.9775 42.04C55.3775 42.26 55.6908 42.5733 55.9175 42.98C56.1442 43.38 56.2575 43.8433 56.2575 44.37C56.2575 44.9033 56.1442 45.37 55.9175 45.77C55.6908 46.17 55.3775 46.4833 54.9775 46.71C54.5842 46.9367 54.1375 47.05 53.6375 47.05ZM50.9275 48.94V41.75H51.6075V43.33L51.5375 44.38L51.6375 45.44V48.94H50.9275ZM53.5875 46.42C53.9608 46.42 54.2942 46.3367 54.5875 46.17C54.8808 45.9967 55.1142 45.7567 55.2875 45.45C55.4608 45.1367 55.5475 44.7767 55.5475 44.37C55.5475 43.9633 55.4608 43.6067 55.2875 43.3C55.1142 42.9933 54.8808 42.7533 54.5875 42.58C54.2942 42.4067 53.9608 42.32 53.5875 42.32C53.2142 42.32 52.8775 42.4067 52.5775 42.58C52.2842 42.7533 52.0508 42.9933 51.8775 43.3C51.7108 43.6067 51.6275 43.9633 51.6275 44.37C51.6275 44.7767 51.7108 45.1367 51.8775 45.45C52.0508 45.7567 52.2842 45.9967 52.5775 46.17C52.8775 46.3367 53.2142 46.42 53.5875 46.42ZM59.8748 47.05C59.4282 47.05 59.0382 46.9667 58.7048 46.8C58.3715 46.6333 58.1115 46.3833 57.9248 46.05C57.7448 45.7167 57.6548 45.3 57.6548 44.8V41.75H58.3648V44.72C58.3648 45.28 58.5015 45.7033 58.7748 45.99C59.0548 46.27 59.4448 46.41 59.9448 46.41C60.3115 46.41 60.6282 46.3367 60.8948 46.19C61.1682 46.0367 61.3748 45.8167 61.5148 45.53C61.6615 45.2433 61.7348 44.9 61.7348 44.5V41.75H62.4448V47H61.7648V45.56L61.8748 45.82C61.7082 46.2067 61.4482 46.51 61.0948 46.73C60.7482 46.9433 60.3415 47.05 59.8748 47.05ZM64.4236 47V41.75H65.1036V43.18L65.0336 42.93C65.1803 42.53 65.4269 42.2267 65.7736 42.02C66.1203 41.8067 66.5503 41.7 67.0636 41.7V42.39C67.0369 42.39 67.0103 42.39 66.9836 42.39C66.9569 42.3833 66.9303 42.38 66.9036 42.38C66.3503 42.38 65.9169 42.55 65.6036 42.89C65.2903 43.2233 65.1336 43.7 65.1336 44.32V47H64.4236ZM70.6645 44.6V43.98H73.2845V44.6H70.6645ZM79.89 47.06C79.27 47.06 78.7467 46.9233 78.32 46.65C77.8933 46.37 77.57 45.97 77.35 45.45C77.13 44.9233 77.02 44.2933 77.02 43.56C77.02 42.7667 77.1533 42.1033 77.42 41.57C77.6933 41.03 78.07 40.6233 78.55 40.35C79.03 40.0767 79.5867 39.94 80.22 39.94C80.5333 39.94 80.8333 39.97 81.12 40.03C81.4067 40.09 81.66 40.1867 81.88 40.32L81.59 40.9C81.41 40.78 81.2033 40.6967 80.97 40.65C80.7367 40.5967 80.49 40.57 80.23 40.57C79.4767 40.57 78.8733 40.81 78.42 41.29C77.9733 41.77 77.75 42.4867 77.75 43.44C77.75 43.5867 77.7567 43.77 77.77 43.99C77.79 44.2033 77.83 44.4167 77.89 44.63L77.64 44.44C77.7133 44.0933 77.8567 43.8 78.07 43.56C78.2833 43.3133 78.55 43.1267 78.87 43C79.19 42.8733 79.54 42.81 79.92 42.81C80.3867 42.81 80.7967 42.8967 81.15 43.07C81.5033 43.2433 81.78 43.4867 81.98 43.8C82.18 44.1133 82.28 44.4833 82.28 44.91C82.28 45.3433 82.1767 45.7233 81.97 46.05C81.7633 46.37 81.4767 46.62 81.11 46.8C80.75 46.9733 80.3433 47.06 79.89 47.06ZM79.86 46.45C80.1933 46.45 80.4867 46.39 80.74 46.27C81 46.1433 81.2033 45.9667 81.35 45.74C81.4967 45.5067 81.57 45.2367 81.57 44.93C81.57 44.47 81.41 44.1033 81.09 43.83C80.7767 43.5567 80.35 43.42 79.81 43.42C79.45 43.42 79.1367 43.4867 78.87 43.62C78.6033 43.7533 78.3933 43.9367 78.24 44.17C78.0867 44.3967 78.01 44.6567 78.01 44.95C78.01 45.2033 78.08 45.4467 78.22 45.68C78.36 45.9067 78.5667 46.0933 78.84 46.24C79.12 46.38 79.46 46.45 79.86 46.45ZM82.9938 45.16V44.64L86.7038 40H87.5038L83.8238 44.64L83.4338 44.52H89.0638V45.16H82.9938ZM86.9438 47V45.16L86.9638 44.52V42.9H87.6638V47H86.9438ZM90.6912 47V40.3L91.0112 40.64H89.0412V40H91.4112V47H90.6912ZM95.9545 47.06C95.3345 47.06 94.8111 46.9233 94.3845 46.65C93.9578 46.37 93.6345 45.97 93.4145 45.45C93.1945 44.9233 93.0845 44.2933 93.0845 43.56C93.0845 42.7667 93.2178 42.1033 93.4845 41.57C93.7578 41.03 94.1345 40.6233 94.6145 40.35C95.0945 40.0767 95.6511 39.94 96.2845 39.94C96.5978 39.94 96.8978 39.97 97.1845 40.03C97.4711 40.09 97.7245 40.1867 97.9445 40.32L97.6545 40.9C97.4745 40.78 97.2678 40.6967 97.0345 40.65C96.8011 40.5967 96.5545 40.57 96.2945 40.57C95.5411 40.57 94.9378 40.81 94.4845 41.29C94.0378 41.77 93.8145 42.4867 93.8145 43.44C93.8145 43.5867 93.8211 43.77 93.8345 43.99C93.8545 44.2033 93.8945 44.4167 93.9545 44.63L93.7045 44.44C93.7778 44.0933 93.9211 43.8 94.1345 43.56C94.3478 43.3133 94.6145 43.1267 94.9345 43C95.2545 42.8733 95.6045 42.81 95.9845 42.81C96.4511 42.81 96.8611 42.8967 97.2145 43.07C97.5678 43.2433 97.8445 43.4867 98.0445 43.8C98.2445 44.1133 98.3445 44.4833 98.3445 44.91C98.3445 45.3433 98.2411 45.7233 98.0345 46.05C97.8278 46.37 97.5411 46.62 97.1745 46.8C96.8145 46.9733 96.4078 47.06 95.9545 47.06ZM95.9245 46.45C96.2578 46.45 96.5511 46.39 96.8045 46.27C97.0645 46.1433 97.2678 45.9667 97.4145 45.74C97.5611 45.5067 97.6345 45.2367 97.6345 44.93C97.6345 44.47 97.4745 44.1033 97.1545 43.83C96.8411 43.5567 96.4145 43.42 95.8745 43.42C95.5145 43.42 95.2011 43.4867 94.9345 43.62C94.6678 43.7533 94.4578 43.9367 94.3045 44.17C94.1511 44.3967 94.0745 44.6567 94.0745 44.95C94.0745 45.2033 94.1445 45.4467 94.2845 45.68C94.4245 45.9067 94.6311 46.0933 94.9045 46.24C95.1845 46.38 95.5245 46.45 95.9245 46.45ZM101.968 47.06C101.428 47.06 100.948 46.92 100.528 46.64C100.108 46.3533 99.7782 45.9467 99.5382 45.42C99.2982 44.8867 99.1782 44.2467 99.1782 43.5C99.1782 42.7533 99.2982 42.1167 99.5382 41.59C99.7782 41.0567 100.108 40.65 100.528 40.37C100.948 40.0833 101.428 39.94 101.968 39.94C102.508 39.94 102.988 40.0833 103.408 40.37C103.828 40.65 104.158 41.0567 104.398 41.59C104.645 42.1167 104.768 42.7533 104.768 43.5C104.768 44.2467 104.645 44.8867 104.398 45.42C104.158 45.9467 103.828 46.3533 103.408 46.64C102.988 46.92 102.508 47.06 101.968 47.06ZM101.968 46.4C102.382 46.4 102.742 46.29 103.048 46.07C103.355 45.8433 103.595 45.5167 103.768 45.09C103.942 44.6567 104.028 44.1267 104.028 43.5C104.028 42.8733 103.942 42.3467 103.768 41.92C103.595 41.4867 103.355 41.16 103.048 40.94C102.742 40.7133 102.382 40.6 101.968 40.6C101.568 40.6 101.212 40.7133 100.898 40.94C100.585 41.16 100.342 41.4867 100.168 41.92C99.9949 42.3467 99.9082 42.8733 99.9082 43.5C99.9082 44.1267 99.9949 44.6567 100.168 45.09C100.342 45.5167 100.585 45.8433 100.898 46.07C101.212 46.29 101.568 46.4 101.968 46.4ZM107.792 47.06C107.285 47.06 106.805 46.98 106.352 46.82C105.905 46.6533 105.545 46.4333 105.272 46.16L105.622 45.59C105.848 45.8233 106.152 46.0167 106.532 46.17C106.918 46.3233 107.338 46.4 107.792 46.4C108.372 46.4 108.815 46.2733 109.122 46.02C109.435 45.7667 109.592 45.4267 109.592 45C109.592 44.5733 109.438 44.2333 109.132 43.98C108.832 43.7267 108.355 43.6 107.702 43.6H107.202V43.07L109.362 40.36L109.462 40.64H105.562V40H110.062V40.51L107.902 43.22L107.552 42.99H107.822C108.662 42.99 109.288 43.1767 109.702 43.55C110.122 43.9233 110.332 44.4033 110.332 44.99C110.332 45.3833 110.238 45.7367 110.052 46.05C109.865 46.3633 109.582 46.61 109.202 46.79C108.828 46.97 108.358 47.06 107.792 47.06ZM111.386 48.46L111.826 46.61L111.906 47.04C111.753 47.04 111.623 46.99 111.516 46.89C111.416 46.79 111.366 46.66 111.366 46.5C111.366 46.34 111.416 46.21 111.516 46.11C111.623 46.01 111.75 45.96 111.896 45.96C112.05 45.96 112.173 46.0133 112.266 46.12C112.366 46.2267 112.416 46.3533 112.416 46.5C112.416 46.5533 112.413 46.6067 112.406 46.66C112.4 46.7133 112.386 46.7733 112.366 46.84C112.346 46.9067 112.32 46.9867 112.286 47.08L111.866 48.46H111.386ZM118.062 47V40.64H115.603V40H121.263V40.64H118.803V47H118.062ZM125.292 47V45.84L125.262 45.65V43.71C125.262 43.2633 125.135 42.92 124.882 42.68C124.635 42.44 124.265 42.32 123.772 42.32C123.432 42.32 123.108 42.3767 122.802 42.49C122.495 42.6033 122.235 42.7533 122.022 42.94L121.702 42.41C121.968 42.1833 122.288 42.01 122.662 41.89C123.035 41.7633 123.428 41.7 123.842 41.7C124.522 41.7 125.045 41.87 125.412 42.21C125.785 42.5433 125.972 43.0533 125.972 43.74V47H125.292ZM123.482 47.05C123.088 47.05 122.745 46.9867 122.452 46.86C122.165 46.7267 121.945 46.5467 121.792 46.32C121.638 46.0867 121.562 45.82 121.562 45.52C121.562 45.2467 121.625 45 121.752 44.78C121.885 44.5533 122.098 44.3733 122.392 44.24C122.692 44.1 123.092 44.03 123.592 44.03H125.402V44.56H123.612C123.105 44.56 122.752 44.65 122.552 44.83C122.358 45.01 122.262 45.2333 122.262 45.5C122.262 45.8 122.378 46.04 122.612 46.22C122.845 46.4 123.172 46.49 123.592 46.49C123.992 46.49 124.335 46.4 124.622 46.22C124.915 46.0333 125.128 45.7667 125.262 45.42L125.422 45.91C125.288 46.2567 125.055 46.5333 124.722 46.74C124.395 46.9467 123.982 47.05 123.482 47.05ZM134.46 41.7C134.887 41.7 135.257 41.7833 135.57 41.95C135.89 42.11 136.137 42.3567 136.31 42.69C136.49 43.0233 136.58 43.4433 136.58 43.95V47H135.87V44.02C135.87 43.4667 135.737 43.05 135.47 42.77C135.21 42.4833 134.84 42.34 134.36 42.34C134 42.34 133.687 42.4167 133.42 42.57C133.16 42.7167 132.957 42.9333 132.81 43.22C132.67 43.5 132.6 43.84 132.6 44.24V47H131.89V44.02C131.89 43.4667 131.757 43.05 131.49 42.77C131.223 42.4833 130.85 42.34 130.37 42.34C130.017 42.34 129.707 42.4167 129.44 42.57C129.173 42.7167 128.967 42.9333 128.82 43.22C128.68 43.5 128.61 43.84 128.61 44.24V47H127.9V41.75H128.58V43.17L128.47 42.92C128.63 42.54 128.887 42.2433 129.24 42.03C129.6 41.81 130.023 41.7 130.51 41.7C131.023 41.7 131.46 41.83 131.82 42.09C132.18 42.3433 132.413 42.7267 132.52 43.24L132.24 43.13C132.393 42.7033 132.663 42.36 133.05 42.1C133.443 41.8333 133.913 41.7 134.46 41.7ZM138.506 47V41.75H139.216V47H138.506ZM138.866 40.59C138.719 40.59 138.596 40.54 138.496 40.44C138.396 40.34 138.346 40.22 138.346 40.08C138.346 39.94 138.396 39.8233 138.496 39.73C138.596 39.63 138.719 39.58 138.866 39.58C139.012 39.58 139.136 39.6267 139.236 39.72C139.336 39.8133 139.386 39.93 139.386 40.07C139.386 40.2167 139.336 40.34 139.236 40.44C139.142 40.54 139.019 40.59 138.866 40.59ZM141.191 47V39.58H141.901V47H141.191ZM146.644 47V40H147.254L152.084 46.08H151.764V40H152.494V47H151.884L147.064 40.92H147.384V47H146.644ZM157.919 47V45.84L157.889 45.65V43.71C157.889 43.2633 157.762 42.92 157.509 42.68C157.262 42.44 156.892 42.32 156.399 42.32C156.059 42.32 155.735 42.3767 155.429 42.49C155.122 42.6033 154.862 42.7533 154.649 42.94L154.329 42.41C154.595 42.1833 154.915 42.01 155.289 41.89C155.662 41.7633 156.055 41.7 156.469 41.7C157.149 41.7 157.672 41.87 158.039 42.21C158.412 42.5433 158.599 43.0533 158.599 43.74V47H157.919ZM156.109 47.05C155.715 47.05 155.372 46.9867 155.079 46.86C154.792 46.7267 154.572 46.5467 154.419 46.32C154.265 46.0867 154.189 45.82 154.189 45.52C154.189 45.2467 154.252 45 154.379 44.78C154.512 44.5533 154.725 44.3733 155.019 44.24C155.319 44.1 155.719 44.03 156.219 44.03H158.029V44.56H156.239C155.732 44.56 155.379 44.65 155.179 44.83C154.985 45.01 154.889 45.2333 154.889 45.5C154.889 45.8 155.005 46.04 155.239 46.22C155.472 46.4 155.799 46.49 156.219 46.49C156.619 46.49 156.962 46.4 157.249 46.22C157.542 46.0333 157.755 45.7667 157.889 45.42L158.049 45.91C157.915 46.2567 157.682 46.5333 157.349 46.74C157.022 46.9467 156.609 47.05 156.109 47.05ZM162.617 47.05C162.117 47.05 161.667 46.9367 161.267 46.71C160.874 46.4833 160.564 46.17 160.337 45.77C160.11 45.3633 159.997 44.8967 159.997 44.37C159.997 43.8367 160.11 43.37 160.337 42.97C160.564 42.57 160.874 42.26 161.267 42.04C161.667 41.8133 162.117 41.7 162.617 41.7C163.077 41.7 163.487 41.8033 163.847 42.01C164.214 42.2167 164.504 42.52 164.717 42.92C164.937 43.3133 165.047 43.7967 165.047 44.37C165.047 44.9367 164.94 45.42 164.727 45.82C164.514 46.22 164.224 46.5267 163.857 46.74C163.497 46.9467 163.084 47.05 162.617 47.05ZM162.667 46.42C163.04 46.42 163.374 46.3367 163.667 46.17C163.967 45.9967 164.2 45.7567 164.367 45.45C164.54 45.1367 164.627 44.7767 164.627 44.37C164.627 43.9567 164.54 43.5967 164.367 43.29C164.2 42.9833 163.967 42.7467 163.667 42.58C163.374 42.4067 163.04 42.32 162.667 42.32C162.3 42.32 161.97 42.4067 161.677 42.58C161.384 42.7467 161.15 42.9833 160.977 43.29C160.804 43.5967 160.717 43.9567 160.717 44.37C160.717 44.7767 160.804 45.1367 160.977 45.45C161.15 45.7567 161.384 45.9967 161.677 46.17C161.97 46.3367 162.3 46.42 162.667 46.42ZM164.647 47V45.42L164.717 44.36L164.617 43.3V39.58H165.327V47H164.647ZM169.474 47.05C169.028 47.05 168.638 46.9667 168.304 46.8C167.971 46.6333 167.711 46.3833 167.524 46.05C167.344 45.7167 167.254 45.3 167.254 44.8V41.75H167.964V44.72C167.964 45.28 168.101 45.7033 168.374 45.99C168.654 46.27 169.044 46.41 169.544 46.41C169.911 46.41 170.228 46.3367 170.494 46.19C170.768 46.0367 170.974 45.8167 171.114 45.53C171.261 45.2433 171.334 44.9 171.334 44.5V41.75H172.044V47H171.364V45.56L171.474 45.82C171.308 46.2067 171.048 46.51 170.694 46.73C170.348 46.9433 169.941 47.05 169.474 47.05ZM173.593 48.46L174.033 46.61L174.113 47.04C173.96 47.04 173.83 46.99 173.723 46.89C173.623 46.79 173.573 46.66 173.573 46.5C173.573 46.34 173.623 46.21 173.723 46.11C173.83 46.01 173.957 45.96 174.103 45.96C174.257 45.96 174.38 46.0133 174.473 46.12C174.573 46.2267 174.623 46.3533 174.623 46.5C174.623 46.5533 174.62 46.6067 174.613 46.66C174.607 46.7133 174.593 46.7733 174.573 46.84C174.553 46.9067 174.527 46.9867 174.493 47.08L174.073 48.46H173.593ZM178.91 47V40H179.65V47H178.91ZM184.457 41.7C184.884 41.7 185.257 41.7833 185.577 41.95C185.904 42.11 186.157 42.3567 186.337 42.69C186.524 43.0233 186.617 43.4433 186.617 43.95V47H185.907V44.02C185.907 43.4667 185.767 43.05 185.487 42.77C185.214 42.4833 184.827 42.34 184.327 42.34C183.954 42.34 183.627 42.4167 183.347 42.57C183.074 42.7167 182.86 42.9333 182.707 43.22C182.56 43.5 182.487 43.84 182.487 44.24V47H181.777V41.75H182.457V43.19L182.347 42.92C182.514 42.54 182.78 42.2433 183.147 42.03C183.514 41.81 183.95 41.7 184.457 41.7ZM190.625 47.05C190.125 47.05 189.675 46.9367 189.275 46.71C188.882 46.4833 188.572 46.17 188.345 45.77C188.118 45.3633 188.005 44.8967 188.005 44.37C188.005 43.8367 188.118 43.37 188.345 42.97C188.572 42.57 188.882 42.26 189.275 42.04C189.675 41.8133 190.125 41.7 190.625 41.7C191.085 41.7 191.495 41.8033 191.855 42.01C192.222 42.2167 192.512 42.52 192.725 42.92C192.945 43.3133 193.055 43.7967 193.055 44.37C193.055 44.9367 192.948 45.42 192.735 45.82C192.522 46.22 192.232 46.5267 191.865 46.74C191.505 46.9467 191.092 47.05 190.625 47.05ZM190.675 46.42C191.048 46.42 191.382 46.3367 191.675 46.17C191.975 45.9967 192.208 45.7567 192.375 45.45C192.548 45.1367 192.635 44.7767 192.635 44.37C192.635 43.9567 192.548 43.5967 192.375 43.29C192.208 42.9833 191.975 42.7467 191.675 42.58C191.382 42.4067 191.048 42.32 190.675 42.32C190.308 42.32 189.978 42.4067 189.685 42.58C189.392 42.7467 189.158 42.9833 188.985 43.29C188.812 43.5967 188.725 43.9567 188.725 44.37C188.725 44.7767 188.812 45.1367 188.985 45.45C189.158 45.7567 189.392 45.9967 189.685 46.17C189.978 46.3367 190.308 46.42 190.675 46.42ZM192.655 47V45.42L192.725 44.36L192.625 43.3V39.58H193.335V47H192.655ZM195.312 47V41.75H196.022V47H195.312ZM195.672 40.59C195.526 40.59 195.402 40.54 195.302 40.44C195.202 40.34 195.152 40.22 195.152 40.08C195.152 39.94 195.202 39.8233 195.302 39.73C195.402 39.63 195.526 39.58 195.672 39.58C195.819 39.58 195.942 39.6267 196.042 39.72C196.142 39.8133 196.192 39.93 196.192 40.07C196.192 40.2167 196.142 40.34 196.042 40.44C195.949 40.54 195.826 40.59 195.672 40.59ZM201.288 47V45.84L201.258 45.65V43.71C201.258 43.2633 201.131 42.92 200.878 42.68C200.631 42.44 200.261 42.32 199.768 42.32C199.428 42.32 199.104 42.3767 198.798 42.49C198.491 42.6033 198.231 42.7533 198.018 42.94L197.698 42.41C197.964 42.1833 198.284 42.01 198.658 41.89C199.031 41.7633 199.424 41.7 199.838 41.7C200.518 41.7 201.041 41.87 201.408 42.21C201.781 42.5433 201.968 43.0533 201.968 43.74V47H201.288ZM199.478 47.05C199.084 47.05 198.741 46.9867 198.448 46.86C198.161 46.7267 197.941 46.5467 197.788 46.32C197.634 46.0867 197.558 45.82 197.558 45.52C197.558 45.2467 197.621 45 197.748 44.78C197.881 44.5533 198.094 44.3733 198.388 44.24C198.688 44.1 199.088 44.03 199.588 44.03H201.398V44.56H199.608C199.101 44.56 198.748 44.65 198.548 44.83C198.354 45.01 198.258 45.2333 198.258 45.5C198.258 45.8 198.374 46.04 198.608 46.22C198.841 46.4 199.168 46.49 199.588 46.49C199.988 46.49 200.331 46.4 200.618 46.22C200.911 46.0333 201.124 45.7667 201.258 45.42L201.418 45.91C201.284 46.2567 201.051 46.5333 200.718 46.74C200.391 46.9467 199.978 47.05 199.478 47.05Z" fill="black"/>
</svg>
