<svg width="73" height="8" viewBox="0 0 73 8" fill="none" xmlns="http://www.w3.org/2000/svg">
<path d="M1.8598 5.68V1.44H2.4898V5.68H1.8598ZM-0.00019531 3.86V3.27H4.3498V3.86H-0.00019531ZM7.75176 -2.74181e-06C8.37176 -2.74181e-06 8.89509 0.139997 9.32176 0.419997C9.74842 0.693331 10.0718 1.09 10.2918 1.61C10.5118 2.13 10.6218 2.76 10.6218 3.5C10.6218 4.28666 10.4851 4.95 10.2118 5.49C9.94509 6.03 9.57176 6.43666 9.09176 6.71C8.61176 6.98333 8.05509 7.12 7.42176 7.12C7.10842 7.12 6.80842 7.09 6.52176 7.03C6.24176 6.97 5.98842 6.87333 5.76176 6.74L6.05176 6.16C6.23176 6.28 6.43842 6.36666 6.67176 6.42C6.91176 6.46666 7.15842 6.49 7.41176 6.49C8.16509 6.49 8.76509 6.25 9.21176 5.77C9.66509 5.29 9.89176 4.57333 9.89176 3.62C9.89176 3.46666 9.88176 3.28333 9.86176 3.07C9.84842 2.85666 9.81176 2.64333 9.75176 2.43L10.0018 2.62C9.93509 2.96666 9.79176 3.26333 9.57176 3.51C9.35842 3.75 9.09176 3.93333 8.77176 4.06C8.45842 4.18666 8.10842 4.25 7.72176 4.25C7.26176 4.25 6.85176 4.16333 6.49176 3.99C6.13842 3.81666 5.86176 3.57333 5.66176 3.26C5.46176 2.94666 5.36176 2.57666 5.36176 2.15C5.36176 1.71 5.46509 1.33 5.67176 1.01C5.87842 0.689997 6.16176 0.44333 6.52176 0.269997C6.88842 0.0899973 7.29842 -2.74181e-06 7.75176 -2.74181e-06ZM7.78176 0.609997C7.44842 0.609997 7.15176 0.67333 6.89176 0.799997C6.63842 0.919997 6.43842 1.09333 6.29176 1.32C6.14509 1.54666 6.07176 1.81666 6.07176 2.13C6.07176 2.59 6.22842 2.95666 6.54176 3.23C6.86176 3.50333 7.29176 3.64 7.83176 3.64C8.19176 3.64 8.50509 3.57333 8.77176 3.44C9.04509 3.30666 9.25509 3.12333 9.40176 2.89C9.55509 2.65666 9.63176 2.39666 9.63176 2.11C9.63176 1.85 9.56176 1.60666 9.42176 1.38C9.28176 1.15333 9.07509 0.969997 8.80176 0.829997C8.52842 0.683331 8.18842 0.609997 7.78176 0.609997ZM12.8855 7.06V0.359997L13.2055 0.699997H11.2355V0.0599971H13.6055V7.06H12.8855ZM19.126 7.06L22.146 0.379997L22.366 0.699997H18.036L18.406 0.349998V2.01H17.696V0.0599971H22.836V0.569997L19.906 7.06H19.126ZM26.2591 7.12C25.6991 7.12 25.2158 7.04 24.8091 6.88C24.4091 6.72 24.0991 6.49 23.8791 6.19C23.6658 5.88333 23.5591 5.52333 23.5591 5.11C23.5591 4.71 23.6624 4.37 23.8691 4.09C24.0824 3.80333 24.3891 3.58333 24.7891 3.43C25.1958 3.27666 25.6858 3.2 26.2591 3.2C26.8258 3.2 27.3124 3.27666 27.7191 3.43C28.1258 3.58333 28.4358 3.80333 28.6491 4.09C28.8691 4.37 28.9791 4.71 28.9791 5.11C28.9791 5.52333 28.8691 5.88333 28.6491 6.19C28.4291 6.49 28.1158 6.72 27.7091 6.88C27.3024 7.04 26.8191 7.12 26.2591 7.12ZM26.2591 6.51C26.8791 6.51 27.3624 6.38333 27.7091 6.13C28.0624 5.87666 28.2391 5.53333 28.2391 5.1C28.2391 4.66666 28.0624 4.32666 27.7091 4.08C27.3624 3.82666 26.8791 3.7 26.2591 3.7C25.6391 3.7 25.1558 3.82666 24.8091 4.08C24.4624 4.32666 24.2891 4.66666 24.2891 5.1C24.2891 5.53333 24.4624 5.87666 24.8091 6.13C25.1558 6.38333 25.6391 6.51 26.2591 6.51ZM26.2591 3.61C25.7391 3.61 25.2958 3.54 24.9291 3.4C24.5691 3.26 24.2924 3.06 24.0991 2.8C23.9058 2.53333 23.8091 2.21666 23.8091 1.85C23.8091 1.46333 23.9091 1.13333 24.1091 0.859998C24.3158 0.579997 24.6024 0.366664 24.9691 0.219997C25.3358 0.0733306 25.7658 -2.74181e-06 26.2591 -2.74181e-06C26.7524 -2.74181e-06 27.1824 0.0733306 27.5491 0.219997C27.9224 0.366664 28.2124 0.579997 28.4191 0.859998C28.6258 1.13333 28.7291 1.46333 28.7291 1.85C28.7291 2.21666 28.6324 2.53333 28.4391 2.8C28.2458 3.06 27.9624 3.26 27.5891 3.4C27.2224 3.54 26.7791 3.61 26.2591 3.61ZM26.2591 3.13C26.8058 3.13 27.2324 3.01666 27.5391 2.79C27.8458 2.56333 27.9991 2.26 27.9991 1.88C27.9991 1.48 27.8391 1.17 27.5191 0.949998C27.2058 0.723331 26.7858 0.609997 26.2591 0.609997C25.7324 0.609997 25.3124 0.723331 24.9991 0.949998C24.6858 1.17 24.5291 1.47666 24.5291 1.87C24.5291 2.25666 24.6791 2.56333 24.9791 2.79C25.2858 3.01666 25.7124 3.13 26.2591 3.13ZM29.8561 5.22V4.7L33.5661 0.0599971H34.3661L30.6861 4.7L30.2961 4.58H35.9261V5.22H29.8561ZM33.8061 7.06V5.22L33.8261 4.58V2.96H34.5261V7.06H33.8061ZM38.7779 7.12C38.2779 7.12 37.8012 7.04 37.3479 6.88C36.8945 6.71333 36.5345 6.49333 36.2679 6.22L36.6179 5.65C36.8379 5.88333 37.1379 6.07666 37.5179 6.23C37.9045 6.38333 38.3212 6.46 38.7679 6.46C39.3612 6.46 39.8112 6.33 40.1179 6.07C40.4312 5.80333 40.5879 5.45666 40.5879 5.03C40.5879 4.73 40.5145 4.47333 40.3679 4.26C40.2279 4.04 39.9879 3.87 39.6479 3.75C39.3079 3.63 38.8412 3.57 38.2479 3.57H36.7579L37.1179 0.0599971H40.9479V0.699997H37.4079L37.7779 0.349998L37.4679 3.29L37.0979 2.93H38.4079C39.1145 2.93 39.6812 3.01666 40.1079 3.19C40.5345 3.36333 40.8412 3.60666 41.0279 3.92C41.2212 4.22666 41.3179 4.58666 41.3179 5C41.3179 5.39333 41.2245 5.75333 41.0379 6.08C40.8512 6.4 40.5712 6.65333 40.1979 6.84C39.8245 7.02666 39.3512 7.12 38.7779 7.12ZM45.0219 7.12C44.4819 7.12 44.0019 6.98 43.5819 6.7C43.1619 6.41333 42.8319 6.00666 42.5919 5.48C42.3519 4.94666 42.2319 4.30666 42.2319 3.56C42.2319 2.81333 42.3519 2.17666 42.5919 1.65C42.8319 1.11666 43.1619 0.709997 43.5819 0.429997C44.0019 0.143331 44.4819 -2.74181e-06 45.0219 -2.74181e-06C45.5619 -2.74181e-06 46.0419 0.143331 46.4619 0.429997C46.8819 0.709997 47.2119 1.11666 47.4519 1.65C47.6986 2.17666 47.8219 2.81333 47.8219 3.56C47.8219 4.30666 47.6986 4.94666 47.4519 5.48C47.2119 6.00666 46.8819 6.41333 46.4619 6.7C46.0419 6.98 45.5619 7.12 45.0219 7.12ZM45.0219 6.46C45.4352 6.46 45.7952 6.35 46.1019 6.13C46.4086 5.90333 46.6486 5.57666 46.8219 5.15C46.9952 4.71666 47.0819 4.18666 47.0819 3.56C47.0819 2.93333 46.9952 2.40666 46.8219 1.98C46.6486 1.54666 46.4086 1.22 46.1019 0.999997C45.7952 0.773331 45.4352 0.659997 45.0219 0.659997C44.6219 0.659997 44.2652 0.773331 43.9519 0.999997C43.6386 1.22 43.3952 1.54666 43.2219 1.98C43.0486 2.40666 42.9619 2.93333 42.9619 3.56C42.9619 4.18666 43.0486 4.71666 43.2219 5.15C43.3952 5.57666 43.6386 5.90333 43.9519 6.13C44.2652 6.35 44.6219 6.46 45.0219 6.46ZM51.723 7.12C51.103 7.12 50.5797 6.98333 50.153 6.71C49.7263 6.43 49.403 6.03 49.183 5.51C48.963 4.98333 48.853 4.35333 48.853 3.62C48.853 2.82666 48.9863 2.16333 49.253 1.63C49.5263 1.09 49.903 0.683331 50.383 0.409997C50.863 0.136664 51.4197 -2.74181e-06 52.053 -2.74181e-06C52.3663 -2.74181e-06 52.6663 0.0299973 52.953 0.0899973C53.2397 0.149997 53.493 0.246664 53.713 0.379997L53.423 0.959997C53.243 0.839997 53.0363 0.756664 52.803 0.709997C52.5697 0.656664 52.323 0.629997 52.063 0.629997C51.3097 0.629997 50.7063 0.869997 50.253 1.35C49.8063 1.83 49.583 2.54666 49.583 3.5C49.583 3.64666 49.5897 3.83 49.603 4.05C49.623 4.26333 49.663 4.47666 49.723 4.69L49.473 4.5C49.5463 4.15333 49.6897 3.86 49.903 3.62C50.1163 3.37333 50.383 3.18666 50.703 3.06C51.023 2.93333 51.373 2.87 51.753 2.87C52.2197 2.87 52.6297 2.95666 52.983 3.13C53.3363 3.30333 53.613 3.54666 53.813 3.86C54.013 4.17333 54.113 4.54333 54.113 4.97C54.113 5.40333 54.0097 5.78333 53.803 6.11C53.5963 6.43 53.3097 6.68 52.943 6.86C52.583 7.03333 52.1763 7.12 51.723 7.12ZM51.693 6.51C52.0263 6.51 52.3197 6.45 52.573 6.33C52.833 6.20333 53.0363 6.02666 53.183 5.8C53.3297 5.56666 53.403 5.29666 53.403 4.99C53.403 4.53 53.243 4.16333 52.923 3.89C52.6097 3.61666 52.183 3.48 51.643 3.48C51.283 3.48 50.9697 3.54666 50.703 3.68C50.4363 3.81333 50.2263 3.99666 50.073 4.23C49.9197 4.45666 49.843 4.71666 49.843 5.01C49.843 5.26333 49.913 5.50666 50.053 5.74C50.193 5.96666 50.3997 6.15333 50.673 6.3C50.953 6.44 51.293 6.51 51.693 6.51ZM57.0368 7.12C56.5301 7.12 56.0501 7.04 55.5968 6.88C55.1501 6.71333 54.7901 6.49333 54.5168 6.22L54.8668 5.65C55.0934 5.88333 55.3968 6.07666 55.7768 6.23C56.1634 6.38333 56.5834 6.46 57.0368 6.46C57.6168 6.46 58.0601 6.33333 58.3668 6.08C58.6801 5.82666 58.8368 5.48666 58.8368 5.06C58.8368 4.63333 58.6834 4.29333 58.3768 4.04C58.0768 3.78666 57.6001 3.66 56.9468 3.66H56.4468V3.13L58.6068 0.419997L58.7068 0.699997H54.8068V0.0599971H59.3068V0.569997L57.1468 3.28L56.7968 3.05H57.0668C57.9068 3.05 58.5334 3.23666 58.9468 3.61C59.3668 3.98333 59.5768 4.46333 59.5768 5.05C59.5768 5.44333 59.4834 5.79666 59.2968 6.11C59.1101 6.42333 58.8268 6.67 58.4468 6.85C58.0734 7.03 57.6034 7.12 57.0368 7.12ZM60.4713 5.22V4.7L64.1813 0.0599971H64.9813L61.3013 4.7L60.9113 4.58H66.5413V5.22H60.4713ZM64.4213 7.06V5.22L64.4413 4.58V2.96H65.1413V7.06H64.4213ZM68.1687 7.06V0.359997L68.4887 0.699997H66.5187V0.0599971H68.8887V7.06H68.1687ZM71.782 7.06V0.359997L72.102 0.699997H70.132V0.0599971H72.502V7.06H71.782Z" fill="black"/>
</svg>
