<svg width="102" height="14" viewBox="0 0 102 14" fill="none" xmlns="http://www.w3.org/2000/svg">
<rect width="14" height="14" fill="white"/>
<path d="M11.6725 8.97167C10.955 8.97167 10.2608 8.855 9.61333 8.645C9.51187 8.61082 9.40285 8.60583 9.29869 8.63058C9.19453 8.65533 9.09941 8.70884 9.02417 8.785L8.10833 9.93417C6.4575 9.14667 4.91167 7.65917 4.08917 5.95L5.22667 4.98167C5.38417 4.81833 5.43083 4.59083 5.36667 4.38667C5.15083 3.73917 5.04 3.045 5.04 2.3275C5.04 2.0125 4.7775 1.75 4.4625 1.75H2.44417C2.12917 1.75 1.75 1.89 1.75 2.3275C1.75 7.74667 6.25917 12.25 11.6725 12.25C12.0867 12.25 12.25 11.8825 12.25 11.5617V9.54917C12.25 9.23417 11.9875 8.97167 11.6725 8.97167Z" fill="black"/>
<path d="M24.56 9.12V4.88H25.19V9.12H24.56ZM22.7 7.3V6.71H27.05V7.3H22.7ZM30.452 3.44C31.072 3.44 31.5953 3.58 32.022 3.86C32.4486 4.13333 32.772 4.53 32.992 5.05C33.212 5.57 33.322 6.2 33.322 6.94C33.322 7.72667 33.1853 8.39 32.912 8.93C32.6453 9.47 32.272 9.87667 31.792 10.15C31.312 10.4233 30.7553 10.56 30.122 10.56C29.8086 10.56 29.5086 10.53 29.222 10.47C28.942 10.41 28.6886 10.3133 28.462 10.18L28.752 9.6C28.932 9.72 29.1386 9.80667 29.372 9.86C29.612 9.90667 29.8586 9.93 30.112 9.93C30.8653 9.93 31.4653 9.69 31.912 9.21C32.3653 8.73 32.592 8.01333 32.592 7.06C32.592 6.90667 32.582 6.72333 32.562 6.51C32.5486 6.29667 32.512 6.08333 32.452 5.87L32.702 6.06C32.6353 6.40667 32.492 6.70333 32.272 6.95C32.0586 7.19 31.792 7.37333 31.472 7.5C31.1586 7.62667 30.8086 7.69 30.422 7.69C29.962 7.69 29.552 7.60333 29.192 7.43C28.8386 7.25667 28.562 7.01333 28.362 6.7C28.162 6.38667 28.062 6.01667 28.062 5.59C28.062 5.15 28.1653 4.77 28.372 4.45C28.5786 4.13 28.862 3.88333 29.222 3.71C29.5886 3.53 29.9986 3.44 30.452 3.44ZM30.482 4.05C30.1486 4.05 29.852 4.11333 29.592 4.24C29.3386 4.36 29.1386 4.53333 28.992 4.76C28.8453 4.98667 28.772 5.25667 28.772 5.57C28.772 6.03 28.9286 6.39667 29.242 6.67C29.562 6.94333 29.992 7.08 30.532 7.08C30.892 7.08 31.2053 7.01333 31.472 6.88C31.7453 6.74667 31.9553 6.56333 32.102 6.33C32.2553 6.09667 32.332 5.83667 32.332 5.55C32.332 5.29 32.262 5.04667 32.122 4.82C31.982 4.59333 31.7753 4.41 31.502 4.27C31.2286 4.12333 30.8886 4.05 30.482 4.05ZM35.5857 10.5V3.8L35.9057 4.14H33.9357V3.5H36.3057V10.5H35.5857ZM42.7762 3.44C43.3962 3.44 43.9195 3.58 44.3462 3.86C44.7728 4.13333 45.0962 4.53 45.3162 5.05C45.5362 5.57 45.6462 6.2 45.6462 6.94C45.6462 7.72667 45.5095 8.39 45.2362 8.93C44.9695 9.47 44.5962 9.87667 44.1162 10.15C43.6362 10.4233 43.0795 10.56 42.4462 10.56C42.1328 10.56 41.8328 10.53 41.5462 10.47C41.2662 10.41 41.0128 10.3133 40.7862 10.18L41.0762 9.6C41.2562 9.72 41.4628 9.80667 41.6962 9.86C41.9362 9.90667 42.1828 9.93 42.4362 9.93C43.1895 9.93 43.7895 9.69 44.2362 9.21C44.6895 8.73 44.9162 8.01333 44.9162 7.06C44.9162 6.90667 44.9062 6.72333 44.8862 6.51C44.8728 6.29667 44.8362 6.08333 44.7762 5.87L45.0262 6.06C44.9595 6.40667 44.8162 6.70333 44.5962 6.95C44.3828 7.19 44.1162 7.37333 43.7962 7.5C43.4828 7.62667 43.1328 7.69 42.7462 7.69C42.2862 7.69 41.8762 7.60333 41.5162 7.43C41.1628 7.25667 40.8862 7.01333 40.6862 6.7C40.4862 6.38667 40.3862 6.01667 40.3862 5.59C40.3862 5.15 40.4895 4.77 40.6962 4.45C40.9028 4.13 41.1862 3.88333 41.5462 3.71C41.9128 3.53 42.3228 3.44 42.7762 3.44ZM42.8062 4.05C42.4728 4.05 42.1762 4.11333 41.9162 4.24C41.6628 4.36 41.4628 4.53333 41.3162 4.76C41.1695 4.98667 41.0962 5.25667 41.0962 5.57C41.0962 6.03 41.2528 6.39667 41.5662 6.67C41.8862 6.94333 42.3162 7.08 42.8562 7.08C43.2162 7.08 43.5295 7.01333 43.7962 6.88C44.0695 6.74667 44.2795 6.56333 44.4262 6.33C44.5795 6.09667 44.6562 5.83667 44.6562 5.55C44.6562 5.29 44.5862 5.04667 44.4462 4.82C44.3062 4.59333 44.0995 4.41 43.8262 4.27C43.5528 4.12333 43.2128 4.05 42.8062 4.05ZM49.4799 10.56C48.9399 10.56 48.4599 10.42 48.0399 10.14C47.6199 9.85333 47.2899 9.44667 47.0499 8.92C46.8099 8.38667 46.6899 7.74667 46.6899 7C46.6899 6.25333 46.8099 5.61667 47.0499 5.09C47.2899 4.55667 47.6199 4.15 48.0399 3.87C48.4599 3.58333 48.9399 3.44 49.4799 3.44C50.0199 3.44 50.4999 3.58333 50.9199 3.87C51.3399 4.15 51.6699 4.55667 51.9099 5.09C52.1566 5.61667 52.2799 6.25333 52.2799 7C52.2799 7.74667 52.1566 8.38667 51.9099 8.92C51.6699 9.44667 51.3399 9.85333 50.9199 10.14C50.4999 10.42 50.0199 10.56 49.4799 10.56ZM49.4799 9.9C49.8933 9.9 50.2533 9.79 50.5599 9.57C50.8666 9.34333 51.1066 9.01667 51.2799 8.59C51.4533 8.15667 51.5399 7.62667 51.5399 7C51.5399 6.37333 51.4533 5.84667 51.2799 5.42C51.1066 4.98667 50.8666 4.66 50.5599 4.44C50.2533 4.21333 49.8933 4.1 49.4799 4.1C49.0799 4.1 48.7233 4.21333 48.4099 4.44C48.0966 4.66 47.8533 4.98667 47.6799 5.42C47.5066 5.84667 47.4199 6.37333 47.4199 7C47.4199 7.62667 47.5066 8.15667 47.6799 8.59C47.8533 9.01667 48.0966 9.34333 48.4099 9.57C48.7233 9.79 49.0799 9.9 49.4799 9.9ZM56.101 10.56C55.561 10.56 55.081 10.42 54.661 10.14C54.241 9.85333 53.911 9.44667 53.671 8.92C53.431 8.38667 53.311 7.74667 53.311 7C53.311 6.25333 53.431 5.61667 53.671 5.09C53.911 4.55667 54.241 4.15 54.661 3.87C55.081 3.58333 55.561 3.44 56.101 3.44C56.641 3.44 57.121 3.58333 57.541 3.87C57.961 4.15 58.291 4.55667 58.531 5.09C58.7777 5.61667 58.901 6.25333 58.901 7C58.901 7.74667 58.7777 8.38667 58.531 8.92C58.291 9.44667 57.961 9.85333 57.541 10.14C57.121 10.42 56.641 10.56 56.101 10.56ZM56.101 9.9C56.5143 9.9 56.8743 9.79 57.181 9.57C57.4877 9.34333 57.7277 9.01667 57.901 8.59C58.0743 8.15667 58.161 7.62667 58.161 7C58.161 6.37333 58.0743 5.84667 57.901 5.42C57.7277 4.98667 57.4877 4.66 57.181 4.44C56.8743 4.21333 56.5143 4.1 56.101 4.1C55.701 4.1 55.3443 4.21333 55.031 4.44C54.7177 4.66 54.4743 4.98667 54.301 5.42C54.1277 5.84667 54.041 6.37333 54.041 7C54.041 7.62667 54.1277 8.15667 54.301 8.59C54.4743 9.01667 54.7177 9.34333 55.031 9.57C55.3443 9.79 55.701 9.9 56.101 9.9ZM61.9245 10.56C61.4178 10.56 60.9378 10.48 60.4845 10.32C60.0378 10.1533 59.6778 9.93333 59.4045 9.66L59.7545 9.09C59.9811 9.32333 60.2845 9.51667 60.6645 9.67C61.0511 9.82333 61.4711 9.9 61.9245 9.9C62.5045 9.9 62.9478 9.77333 63.2545 9.52C63.5678 9.26667 63.7245 8.92667 63.7245 8.5C63.7245 8.07333 63.5711 7.73333 63.2645 7.48C62.9645 7.22667 62.4878 7.1 61.8345 7.1H61.3345V6.57L63.4945 3.86L63.5945 4.14H59.6945V3.5H64.1945V4.01L62.0345 6.72L61.6845 6.49H61.9545C62.7945 6.49 63.4211 6.67667 63.8345 7.05C64.2545 7.42333 64.4645 7.90333 64.4645 8.49C64.4645 8.88333 64.3711 9.23667 64.1845 9.55C63.9978 9.86333 63.7145 10.11 63.3345 10.29C62.9611 10.47 62.4911 10.56 61.9245 10.56ZM68.139 10.56C67.579 10.56 67.0957 10.48 66.689 10.32C66.289 10.16 65.979 9.93 65.759 9.63C65.5457 9.32333 65.439 8.96333 65.439 8.55C65.439 8.15 65.5423 7.81 65.749 7.53C65.9623 7.24333 66.269 7.02333 66.669 6.87C67.0757 6.71667 67.5657 6.64 68.139 6.64C68.7057 6.64 69.1923 6.71667 69.599 6.87C70.0057 7.02333 70.3157 7.24333 70.529 7.53C70.749 7.81 70.859 8.15 70.859 8.55C70.859 8.96333 70.749 9.32333 70.529 9.63C70.309 9.93 69.9957 10.16 69.589 10.32C69.1823 10.48 68.699 10.56 68.139 10.56ZM68.139 9.95C68.759 9.95 69.2423 9.82333 69.589 9.57C69.9423 9.31667 70.119 8.97333 70.119 8.54C70.119 8.10667 69.9423 7.76667 69.589 7.52C69.2423 7.26667 68.759 7.14 68.139 7.14C67.519 7.14 67.0357 7.26667 66.689 7.52C66.3423 7.76667 66.169 8.10667 66.169 8.54C66.169 8.97333 66.3423 9.31667 66.689 9.57C67.0357 9.82333 67.519 9.95 68.139 9.95ZM68.139 7.05C67.619 7.05 67.1757 6.98 66.809 6.84C66.449 6.7 66.1723 6.5 65.979 6.24C65.7857 5.97333 65.689 5.65667 65.689 5.29C65.689 4.90333 65.789 4.57333 65.989 4.3C66.1957 4.02 66.4823 3.80667 66.849 3.66C67.2157 3.51333 67.6457 3.44 68.139 3.44C68.6323 3.44 69.0623 3.51333 69.429 3.66C69.8023 3.80667 70.0923 4.02 70.299 4.3C70.5057 4.57333 70.609 4.90333 70.609 5.29C70.609 5.65667 70.5123 5.97333 70.319 6.24C70.1257 6.5 69.8423 6.7 69.469 6.84C69.1023 6.98 68.659 7.05 68.139 7.05ZM68.139 6.57C68.6857 6.57 69.1123 6.45667 69.419 6.23C69.7257 6.00333 69.879 5.7 69.879 5.32C69.879 4.92 69.719 4.61 69.399 4.39C69.0857 4.16333 68.6657 4.05 68.139 4.05C67.6123 4.05 67.1923 4.16333 66.879 4.39C66.5657 4.61 66.409 4.91667 66.409 5.31C66.409 5.69667 66.559 6.00333 66.859 6.23C67.1657 6.45667 67.5923 6.57 68.139 6.57ZM74.5159 10.56C73.9559 10.56 73.4726 10.48 73.0659 10.32C72.6659 10.16 72.3559 9.93 72.1359 9.63C71.9226 9.32333 71.8159 8.96333 71.8159 8.55C71.8159 8.15 71.9193 7.81 72.1259 7.53C72.3393 7.24333 72.6459 7.02333 73.0459 6.87C73.4526 6.71667 73.9426 6.64 74.5159 6.64C75.0826 6.64 75.5693 6.71667 75.9759 6.87C76.3826 7.02333 76.6926 7.24333 76.9059 7.53C77.1259 7.81 77.2359 8.15 77.2359 8.55C77.2359 8.96333 77.1259 9.32333 76.9059 9.63C76.6859 9.93 76.3726 10.16 75.9659 10.32C75.5593 10.48 75.0759 10.56 74.5159 10.56ZM74.5159 9.95C75.1359 9.95 75.6193 9.82333 75.9659 9.57C76.3193 9.31667 76.4959 8.97333 76.4959 8.54C76.4959 8.10667 76.3193 7.76667 75.9659 7.52C75.6193 7.26667 75.1359 7.14 74.5159 7.14C73.8959 7.14 73.4126 7.26667 73.0659 7.52C72.7193 7.76667 72.5459 8.10667 72.5459 8.54C72.5459 8.97333 72.7193 9.31667 73.0659 9.57C73.4126 9.82333 73.8959 9.95 74.5159 9.95ZM74.5159 7.05C73.9959 7.05 73.5526 6.98 73.1859 6.84C72.8259 6.7 72.5493 6.5 72.3559 6.24C72.1626 5.97333 72.0659 5.65667 72.0659 5.29C72.0659 4.90333 72.1659 4.57333 72.3659 4.3C72.5726 4.02 72.8593 3.80667 73.2259 3.66C73.5926 3.51333 74.0226 3.44 74.5159 3.44C75.0093 3.44 75.4393 3.51333 75.8059 3.66C76.1793 3.80667 76.4693 4.02 76.6759 4.3C76.8826 4.57333 76.9859 4.90333 76.9859 5.29C76.9859 5.65667 76.8893 5.97333 76.6959 6.24C76.5026 6.5 76.2193 6.7 75.8459 6.84C75.4793 6.98 75.0359 7.05 74.5159 7.05ZM74.5159 6.57C75.0626 6.57 75.4893 6.45667 75.7959 6.23C76.1026 6.00333 76.2559 5.7 76.2559 5.32C76.2559 4.92 76.0959 4.61 75.7759 4.39C75.4626 4.16333 75.0426 4.05 74.5159 4.05C73.9893 4.05 73.5693 4.16333 73.2559 4.39C72.9426 4.61 72.7859 4.91667 72.7859 5.31C72.7859 5.69667 72.9359 6.00333 73.2359 6.23C73.5426 6.45667 73.9693 6.57 74.5159 6.57ZM80.3229 10.56C79.8162 10.56 79.3362 10.48 78.8829 10.32C78.4362 10.1533 78.0762 9.93333 77.8029 9.66L78.1529 9.09C78.3796 9.32333 78.6829 9.51667 79.0629 9.67C79.4496 9.82333 79.8696 9.9 80.3229 9.9C80.9029 9.9 81.3462 9.77333 81.6529 9.52C81.9662 9.26667 82.1229 8.92667 82.1229 8.5C82.1229 8.07333 81.9696 7.73333 81.6629 7.48C81.3629 7.22667 80.8862 7.1 80.2329 7.1H79.7329V6.57L81.8929 3.86L81.9929 4.14H78.0929V3.5H82.5929V4.01L80.4329 6.72L80.0829 6.49H80.3529C81.1929 6.49 81.8196 6.67667 82.2329 7.05C82.6529 7.42333 82.8629 7.90333 82.8629 8.49C82.8629 8.88333 82.7696 9.23667 82.5829 9.55C82.3962 9.86333 82.1129 10.11 81.7329 10.29C81.3596 10.47 80.8896 10.56 80.3229 10.56ZM83.7574 8.66V8.14L87.4674 3.5H88.2674L84.5874 8.14L84.1974 8.02H89.8274V8.66H83.7574ZM87.7074 10.5V8.66L87.7274 8.02V6.4H88.4274V10.5H87.7074ZM91.4548 10.5V3.8L91.7748 4.14H89.8048V3.5H92.1748V10.5H91.4548ZM95.0681 10.5V3.8L95.3881 4.14H93.4181V3.5H95.7881V10.5H95.0681ZM100.119 11.96L100.559 10.11L100.639 10.54C100.485 10.54 100.355 10.49 100.249 10.39C100.149 10.29 100.099 10.16 100.099 10C100.099 9.84 100.149 9.71 100.249 9.61C100.355 9.51 100.482 9.46 100.629 9.46C100.782 9.46 100.905 9.51333 100.999 9.62C101.099 9.72667 101.149 9.85333 101.149 10C101.149 10.0533 101.145 10.1067 101.139 10.16C101.132 10.2133 101.119 10.2733 101.099 10.34C101.079 10.4067 101.052 10.4867 101.019 10.58L100.599 11.96H100.119Z" fill="black"/>
</svg>
