<svg width="235" height="28" viewBox="0 0 235 28" fill="none" xmlns="http://www.w3.org/2000/svg">
<rect width="235" height="28" fill="url(#paint0_linear_392_14)"/>
<rect width="235" height="28" fill="black" fill-opacity="0.2"/>
<path d="M15.3662 9.01953V19H13.5547V11.1318L11.1553 11.9248V10.4619L15.1611 9.01953H15.3662ZM23.9243 9.01953V19H22.1127V11.1318L19.7133 11.9248V10.4619L23.7192 9.01953H23.9243ZM28.0048 18.1182C28.0048 17.8447 28.0982 17.6146 28.285 17.4277C28.4719 17.2409 28.7248 17.1475 29.0438 17.1475C29.3628 17.1475 29.6158 17.2409 29.8026 17.4277C29.9895 17.6146 30.0829 17.8447 30.0829 18.1182C30.0829 18.387 29.9895 18.6149 29.8026 18.8018C29.6158 18.984 29.3628 19.0752 29.0438 19.0752C28.7248 19.0752 28.4719 18.984 28.285 18.8018C28.0982 18.6149 28.0048 18.387 28.0048 18.1182ZM37.8138 16.416C37.8138 16.2246 37.7842 16.0537 37.7249 15.9033C37.6702 15.7484 37.5677 15.6094 37.4173 15.4863C37.2715 15.3587 37.0641 15.2357 36.7952 15.1172C36.5309 14.9941 36.1891 14.8665 35.7698 14.7344C35.305 14.5885 34.8721 14.4245 34.471 14.2422C34.07 14.0599 33.7168 13.848 33.4114 13.6064C33.1107 13.3649 32.876 13.0869 32.7073 12.7725C32.5387 12.4535 32.4544 12.0843 32.4544 11.665C32.4544 11.2549 32.541 10.8812 32.7142 10.5439C32.8919 10.2067 33.1426 9.91732 33.4661 9.67578C33.7897 9.42969 34.1702 9.24056 34.6077 9.1084C35.0498 8.97624 35.5374 8.91016 36.0706 8.91016C36.8089 8.91016 37.4469 9.0446 37.9847 9.31348C38.527 9.58236 38.9463 9.94694 39.2425 10.4072C39.5387 10.8675 39.6868 11.3848 39.6868 11.959H37.8138C37.8138 11.6491 37.7477 11.3757 37.6155 11.1387C37.4879 10.9017 37.292 10.7148 37.0277 10.5781C36.7679 10.4414 36.4398 10.373 36.0433 10.373C35.6605 10.373 35.3415 10.43 35.0863 10.5439C34.8356 10.6579 34.6465 10.8128 34.5189 11.0088C34.3958 11.2048 34.3343 11.4235 34.3343 11.665C34.3343 11.8473 34.3776 12.0114 34.4642 12.1572C34.5508 12.2985 34.6807 12.4329 34.8538 12.5605C35.027 12.6836 35.2412 12.7998 35.4964 12.9092C35.7562 13.014 36.057 13.1188 36.3988 13.2236C36.9456 13.3877 37.4241 13.57 37.8343 13.7705C38.249 13.971 38.5931 14.1989 38.8665 14.4541C39.1445 14.7093 39.3519 14.9964 39.4886 15.3154C39.6299 15.6344 39.7005 15.9967 39.7005 16.4023C39.7005 16.8307 39.6162 17.2135 39.4476 17.5508C39.279 17.888 39.0374 18.1751 38.723 18.4121C38.4085 18.6491 38.0303 18.8291 37.5882 18.9521C37.1507 19.0752 36.6608 19.1367 36.1185 19.1367C35.6354 19.1367 35.1569 19.0729 34.6829 18.9453C34.2135 18.8132 33.7874 18.6172 33.4046 18.3574C33.0218 18.0931 32.7165 17.7604 32.4886 17.3594C32.2607 16.9538 32.1468 16.4798 32.1468 15.9375H34.0335C34.0335 16.252 34.0836 16.5208 34.1839 16.7441C34.2887 16.9629 34.4346 17.1429 34.6214 17.2842C34.8128 17.4209 35.0361 17.5212 35.2913 17.585C35.5465 17.6488 35.8223 17.6807 36.1185 17.6807C36.5013 17.6807 36.8157 17.6283 37.0618 17.5234C37.3125 17.4141 37.4993 17.2637 37.6224 17.0723C37.75 16.8809 37.8138 16.6621 37.8138 16.416ZM44.8953 19.1367C44.3347 19.1367 43.8311 19.0456 43.3845 18.8633C42.9379 18.681 42.5574 18.4281 42.2429 18.1045C41.933 17.7764 41.6938 17.3958 41.5252 16.9629C41.3611 16.5254 41.2791 16.056 41.2791 15.5547V15.2812C41.2791 14.7116 41.3611 14.1943 41.5252 13.7295C41.6892 13.2601 41.9216 12.8568 42.2224 12.5195C42.5232 12.1823 42.8832 11.9225 43.3025 11.7402C43.7218 11.5579 44.1843 11.4668 44.6902 11.4668C45.2143 11.4668 45.6768 11.5557 46.0779 11.7334C46.4789 11.9066 46.8139 12.1527 47.0828 12.4717C47.3517 12.7907 47.5545 13.1735 47.6912 13.6201C47.8279 14.0622 47.8962 14.5521 47.8962 15.0898V15.8486H42.0994V14.6045H46.1189V14.4678C46.1098 14.1807 46.0551 13.9186 45.9548 13.6816C45.8546 13.4401 45.6996 13.2487 45.49 13.1074C45.2804 12.9616 45.0092 12.8887 44.6765 12.8887C44.4076 12.8887 44.1729 12.9479 43.9724 13.0664C43.7765 13.1803 43.6124 13.3444 43.4802 13.5586C43.3526 13.7682 43.2569 14.0189 43.1931 14.3105C43.1293 14.6022 43.0974 14.9258 43.0974 15.2812V15.5547C43.0974 15.8646 43.1384 16.1517 43.2205 16.416C43.3071 16.6803 43.4324 16.9105 43.5964 17.1064C43.7651 17.2979 43.9656 17.4482 44.198 17.5576C44.435 17.6624 44.7039 17.7148 45.0046 17.7148C45.3829 17.7148 45.7247 17.6419 46.03 17.4961C46.3399 17.3457 46.6088 17.1247 46.8367 16.833L47.7459 17.7764C47.5909 18.0042 47.3813 18.223 47.117 18.4326C46.8572 18.6423 46.5427 18.8132 46.1736 18.9453C45.8045 19.0729 45.3783 19.1367 44.8953 19.1367ZM51.5803 8.5V19H49.7687V8.5H51.5803ZM56.2282 19H54.4098V10.9199C54.4098 10.3639 54.5169 9.89681 54.7311 9.51855C54.9453 9.13574 55.2506 8.84635 55.6471 8.65039C56.0436 8.45443 56.5107 8.35645 57.0485 8.35645C57.2262 8.35645 57.3948 8.36784 57.5543 8.39062C57.7184 8.41341 57.8802 8.44531 58.0397 8.48633L58.0055 9.86035C57.9189 9.83757 57.8232 9.82161 57.7184 9.8125C57.6181 9.80339 57.5065 9.79883 57.3834 9.79883C57.1373 9.79883 56.9277 9.84212 56.7545 9.92871C56.5814 10.0153 56.4492 10.1429 56.358 10.3115C56.2715 10.4756 56.2282 10.6784 56.2282 10.9199V19ZM57.7252 11.6035V12.9023H53.2955V11.6035H57.7252ZM62.9952 14.0234V15.4521H59.2559V14.0234H62.9952ZM69.1948 10.5576L66.3579 19H64.3687L68.0874 9.04688H69.3589L69.1948 10.5576ZM71.5669 19L68.7163 10.5576L68.5454 9.04688H69.8237L73.563 19H71.5669ZM71.437 15.3018V16.7852H66.0982V15.3018H71.437ZM79.4482 17.4277V8.5H81.2666V19H79.6259L79.4482 17.4277ZM74.6972 15.3906V15.2471C74.6972 14.682 74.761 14.1693 74.8886 13.709C75.0208 13.2441 75.2122 12.8454 75.4629 12.5127C75.7135 12.18 76.0166 11.9225 76.372 11.7402C76.7321 11.5579 77.1399 11.4668 77.5957 11.4668C78.0377 11.4668 78.4228 11.5557 78.7509 11.7334C79.0836 11.9111 79.3662 12.1641 79.5986 12.4922C79.8356 12.8203 80.0247 13.21 80.166 13.6611C80.3073 14.1077 80.4098 14.5999 80.4736 15.1377V15.5273C80.4098 16.0514 80.3073 16.5322 80.166 16.9697C80.0247 17.4072 79.8356 17.79 79.5986 18.1182C79.3662 18.4417 79.0836 18.6924 78.7509 18.8701C78.4183 19.0479 78.0286 19.1367 77.582 19.1367C77.1308 19.1367 76.7252 19.0433 76.3652 18.8564C76.0097 18.6696 75.7067 18.4076 75.456 18.0703C75.2099 17.7331 75.0208 17.3366 74.8886 16.8809C74.761 16.4251 74.6972 15.9284 74.6972 15.3906ZM76.5088 15.2471V15.3906C76.5088 15.7096 76.5361 16.0081 76.5908 16.2861C76.6455 16.5641 76.7343 16.8102 76.8574 17.0244C76.9804 17.234 77.1377 17.3981 77.3291 17.5166C77.525 17.6351 77.762 17.6943 78.04 17.6943C78.3955 17.6943 78.6871 17.6169 78.915 17.4619C79.1474 17.3024 79.3274 17.0859 79.455 16.8125C79.5826 16.5345 79.6647 16.2223 79.7011 15.876V14.8027C79.6829 14.5293 79.6351 14.2764 79.5576 14.0439C79.4847 13.8115 79.3798 13.611 79.2431 13.4424C79.111 13.2738 78.9469 13.1416 78.7509 13.0459C78.555 12.9502 78.3226 12.9023 78.0537 12.9023C77.7757 12.9023 77.5387 12.9639 77.3427 13.0869C77.1468 13.2054 76.9873 13.3717 76.8642 13.5859C76.7412 13.8001 76.65 14.0485 76.5908 14.3311C76.5361 14.6136 76.5088 14.9189 76.5088 15.2471ZM85.2309 8.5V19H83.4193V8.5H85.2309ZM84.9437 15.0352H84.4105C84.4105 14.5202 84.4789 14.0462 84.6156 13.6133C84.7523 13.1803 84.946 12.8044 85.1967 12.4854C85.4473 12.1618 85.7458 11.9111 86.0922 11.7334C86.4431 11.5557 86.8305 11.4668 87.2543 11.4668C87.6189 11.4668 87.9493 11.5192 88.2455 11.624C88.5463 11.7243 88.8038 11.8861 89.018 12.1094C89.2322 12.3327 89.3962 12.6243 89.5102 12.9844C89.6286 13.3398 89.6879 13.7728 89.6879 14.2832V19H87.8695V14.2695C87.8695 13.9277 87.8194 13.6589 87.7191 13.4629C87.6189 13.2624 87.4753 13.1188 87.2885 13.0322C87.1062 12.9456 86.8806 12.9023 86.6117 12.9023C86.3201 12.9023 86.0694 12.9593 85.8598 13.0732C85.6501 13.1826 85.477 13.3353 85.3402 13.5312C85.2081 13.7272 85.1078 13.9528 85.0395 14.208C84.9756 14.4632 84.9437 14.7389 84.9437 15.0352ZM95.1629 19.1367C94.6024 19.1367 94.0988 19.0456 93.6522 18.8633C93.2056 18.681 92.825 18.4281 92.5106 18.1045C92.2007 17.7764 91.9614 17.3958 91.7928 16.9629C91.6288 16.5254 91.5467 16.056 91.5467 15.5547V15.2812C91.5467 14.7116 91.6288 14.1943 91.7928 13.7295C91.9569 13.2601 92.1893 12.8568 92.4901 12.5195C92.7909 12.1823 93.1509 11.9225 93.5702 11.7402C93.9894 11.5579 94.452 11.4668 94.9579 11.4668C95.4819 11.4668 95.9445 11.5557 96.3456 11.7334C96.7466 11.9066 97.0816 12.1527 97.3504 12.4717C97.6193 12.7907 97.8221 13.1735 97.9588 13.6201C98.0956 14.0622 98.1639 14.5521 98.1639 15.0898V15.8486H92.367V14.6045H96.3866V14.4678C96.3775 14.1807 96.3228 13.9186 96.2225 13.6816C96.1222 13.4401 95.9673 13.2487 95.7577 13.1074C95.548 12.9616 95.2769 12.8887 94.9442 12.8887C94.6753 12.8887 94.4406 12.9479 94.2401 13.0664C94.0441 13.1803 93.8801 13.3444 93.7479 13.5586C93.6203 13.7682 93.5246 14.0189 93.4608 14.3105C93.397 14.6022 93.3651 14.9258 93.3651 15.2812V15.5547C93.3651 15.8646 93.4061 16.1517 93.4881 16.416C93.5747 16.6803 93.7 16.9105 93.8641 17.1064C94.0327 17.2979 94.2332 17.4482 94.4657 17.5576C94.7026 17.6624 94.9715 17.7148 95.2723 17.7148C95.6506 17.7148 95.9924 17.6419 96.2977 17.4961C96.6076 17.3457 96.8765 17.1247 97.1043 16.833L98.0135 17.7764C97.8586 18.0042 97.6489 18.223 97.3846 18.4326C97.1248 18.6423 96.8104 18.8132 96.4413 18.9453C96.0721 19.0729 95.646 19.1367 95.1629 19.1367ZM104.001 16.9766C104.001 16.8216 103.96 16.6826 103.878 16.5596C103.796 16.4365 103.641 16.3249 103.413 16.2246C103.19 16.1198 102.862 16.0218 102.429 15.9307C102.046 15.8486 101.693 15.7461 101.369 15.623C101.046 15.5 100.768 15.3519 100.535 15.1787C100.303 15.001 100.121 14.7936 99.9886 14.5566C99.861 14.3151 99.7971 14.0371 99.7971 13.7227C99.7971 13.4173 99.8632 13.1302 99.9954 12.8613C100.128 12.5879 100.319 12.3486 100.57 12.1436C100.82 11.9339 101.126 11.7699 101.486 11.6514C101.846 11.5283 102.251 11.4668 102.702 11.4668C103.331 11.4668 103.871 11.5693 104.323 11.7744C104.778 11.9795 105.127 12.262 105.368 12.6221C105.61 12.9775 105.731 13.3786 105.731 13.8252H103.926C103.926 13.6292 103.88 13.4515 103.789 13.292C103.703 13.1325 103.568 13.0049 103.386 12.9092C103.204 12.8089 102.974 12.7588 102.696 12.7588C102.445 12.7588 102.233 12.7998 102.06 12.8818C101.891 12.9639 101.764 13.071 101.677 13.2031C101.59 13.3353 101.547 13.4811 101.547 13.6406C101.547 13.7591 101.57 13.8662 101.616 13.9619C101.666 14.0531 101.745 14.1374 101.855 14.2148C101.964 14.2923 102.112 14.363 102.299 14.4268C102.491 14.4906 102.725 14.5521 103.003 14.6113C103.555 14.7207 104.035 14.8665 104.446 15.0488C104.86 15.2266 105.184 15.4635 105.416 15.7598C105.649 16.056 105.765 16.4342 105.765 16.8945C105.765 17.2227 105.694 17.5234 105.553 17.7969C105.412 18.0658 105.207 18.3005 104.938 18.501C104.669 18.7015 104.348 18.8587 103.974 18.9727C103.6 19.082 103.179 19.1367 102.709 19.1367C102.03 19.1367 101.456 19.016 100.987 18.7744C100.517 18.5283 100.162 18.2184 99.9202 17.8447C99.6787 17.4665 99.5579 17.0745 99.5579 16.6689H101.287C101.301 16.9561 101.379 17.1862 101.52 17.3594C101.661 17.5326 101.839 17.6579 102.053 17.7354C102.272 17.8083 102.502 17.8447 102.743 17.8447C103.017 17.8447 103.247 17.8083 103.434 17.7354C103.621 17.6579 103.762 17.5553 103.858 17.4277C103.953 17.2956 104.001 17.1452 104.001 16.9766ZM109.613 11.6035V19H107.801V11.6035H109.613ZM107.678 9.66895C107.678 9.40007 107.77 9.17676 107.952 8.99902C108.139 8.82129 108.389 8.73242 108.704 8.73242C109.018 8.73242 109.267 8.82129 109.449 8.99902C109.636 9.17676 109.729 9.40007 109.729 9.66895C109.729 9.93327 109.636 10.1543 109.449 10.332C109.267 10.5098 109.018 10.5986 108.704 10.5986C108.389 10.5986 108.139 10.5098 107.952 10.332C107.77 10.1543 107.678 9.93327 107.678 9.66895ZM114.35 17.6328L116.072 11.6035H117.959L115.423 19H114.275L114.35 17.6328ZM113.092 11.6035L114.835 17.6465L114.897 19H113.741L111.198 11.6035H113.092ZM122.696 19.1367C122.135 19.1367 121.632 19.0456 121.185 18.8633C120.739 18.681 120.358 18.4281 120.044 18.1045C119.734 17.7764 119.494 17.3958 119.326 16.9629C119.162 16.5254 119.08 16.056 119.08 15.5547V15.2812C119.08 14.7116 119.162 14.1943 119.326 13.7295C119.49 13.2601 119.722 12.8568 120.023 12.5195C120.324 12.1823 120.684 11.9225 121.103 11.7402C121.522 11.5579 121.985 11.4668 122.491 11.4668C123.015 11.4668 123.477 11.5557 123.879 11.7334C124.28 11.9066 124.615 12.1527 124.883 12.4717C125.152 12.7907 125.355 13.1735 125.492 13.6201C125.629 14.0622 125.697 14.5521 125.697 15.0898V15.8486H119.9V14.6045H123.92V14.4678C123.91 14.1807 123.856 13.9186 123.755 13.6816C123.655 13.4401 123.5 13.2487 123.291 13.1074C123.081 12.9616 122.81 12.8887 122.477 12.8887C122.208 12.8887 121.974 12.9479 121.773 13.0664C121.577 13.1803 121.413 13.3444 121.281 13.5586C121.153 13.7682 121.058 14.0189 120.994 14.3105C120.93 14.6022 120.898 14.9258 120.898 15.2812V15.5547C120.898 15.8646 120.939 16.1517 121.021 16.416C121.108 16.6803 121.233 16.9105 121.397 17.1064C121.566 17.2979 121.766 17.4482 121.999 17.5576C122.236 17.6624 122.504 17.7148 122.805 17.7148C123.184 17.7148 123.525 17.6419 123.831 17.4961C124.141 17.3457 124.409 17.1247 124.637 16.833L125.546 17.7764C125.392 18.0042 125.182 18.223 124.918 18.4326C124.658 18.6423 124.343 18.8132 123.974 18.9453C123.605 19.0729 123.179 19.1367 122.696 19.1367ZM135.478 15.3701H132.915V13.8936H135.478C135.897 13.8936 136.237 13.8252 136.497 13.6885C136.761 13.5472 136.955 13.3558 137.078 13.1143C137.201 12.8682 137.262 12.5879 137.262 12.2734C137.262 11.9681 137.201 11.6833 137.078 11.4189C136.955 11.1546 136.761 10.9404 136.497 10.7764C136.237 10.6123 135.897 10.5303 135.478 10.5303H133.53V19H131.65V9.04688H135.478C136.253 9.04688 136.914 9.18587 137.46 9.46387C138.012 9.7373 138.431 10.1178 138.718 10.6055C139.01 11.0885 139.156 11.64 139.156 12.2598C139.156 12.9023 139.01 13.4561 138.718 13.9209C138.431 14.3857 138.012 14.7435 137.46 14.9941C136.914 15.2448 136.253 15.3701 135.478 15.3701ZM145.02 15.3701H142.457V13.8936H145.02C145.44 13.8936 145.779 13.8252 146.039 13.6885C146.303 13.5472 146.497 13.3558 146.62 13.1143C146.743 12.8682 146.805 12.5879 146.805 12.2734C146.805 11.9681 146.743 11.6833 146.62 11.4189C146.497 11.1546 146.303 10.9404 146.039 10.7764C145.779 10.6123 145.44 10.5303 145.02 10.5303H143.072V19H141.192V9.04688H145.02C145.795 9.04688 146.456 9.18587 147.003 9.46387C147.554 9.7373 147.974 10.1178 148.261 10.6055C148.552 11.0885 148.698 11.64 148.698 12.2598C148.698 12.9023 148.552 13.4561 148.261 13.9209C147.974 14.3857 147.554 14.7435 147.003 14.9941C146.456 15.2448 145.795 15.3701 145.02 15.3701ZM154.877 9.04688L151.118 19.8545H149.744L153.503 9.04688H154.877ZM162.943 17.5234V19H157.939V17.5234H162.943ZM158.507 9.04688V19H156.627V9.04688H158.507ZM167.735 19H165.588L165.602 17.5234H167.735C168.313 17.5234 168.799 17.3958 169.191 17.1406C169.583 16.8809 169.879 16.5094 170.079 16.0264C170.28 15.5387 170.38 14.9554 170.38 14.2764V13.7637C170.38 13.2396 170.323 12.777 170.209 12.376C170.095 11.9749 169.927 11.6377 169.703 11.3643C169.485 11.0908 169.213 10.8835 168.89 10.7422C168.566 10.6009 168.195 10.5303 167.776 10.5303H165.547V9.04688H167.776C168.441 9.04688 169.047 9.15853 169.594 9.38184C170.145 9.60514 170.622 9.92643 171.023 10.3457C171.428 10.7604 171.738 11.2572 171.952 11.8359C172.171 12.4147 172.281 13.0618 172.281 13.7773V14.2764C172.281 14.9873 172.171 15.6344 171.952 16.2178C171.738 16.7965 171.428 17.2933 171.023 17.708C170.622 18.1227 170.143 18.4417 169.587 18.665C169.031 18.8883 168.414 19 167.735 19ZM166.641 9.04688V19H164.761V9.04688H166.641ZM184.311 15.7256H186.191C186.14 16.391 185.956 16.9811 185.637 17.4961C185.318 18.0065 184.873 18.4076 184.304 18.6992C183.734 18.9909 183.044 19.1367 182.233 19.1367C181.608 19.1367 181.045 19.0273 180.544 18.8086C180.047 18.5853 179.621 18.2686 179.266 17.8584C178.915 17.4437 178.646 16.9469 178.459 16.3682C178.272 15.7848 178.179 15.1309 178.179 14.4062V13.6475C178.179 12.9229 178.275 12.2689 178.466 11.6855C178.657 11.1022 178.931 10.6055 179.286 10.1953C179.646 9.7806 180.077 9.46159 180.578 9.23828C181.084 9.01497 181.649 8.90332 182.274 8.90332C183.085 8.90332 183.771 9.05371 184.331 9.35449C184.892 9.65072 185.327 10.0586 185.637 10.5781C185.947 11.0977 186.134 11.6947 186.197 12.3691H184.318C184.281 11.9499 184.19 11.5944 184.044 11.3027C183.903 11.0111 183.689 10.79 183.401 10.6396C183.119 10.4847 182.743 10.4072 182.274 10.4072C181.909 10.4072 181.588 10.4756 181.31 10.6123C181.036 10.749 180.808 10.9541 180.626 11.2275C180.444 11.4964 180.307 11.8337 180.216 12.2393C180.125 12.6403 180.079 13.1051 180.079 13.6338V14.4062C180.079 14.9121 180.12 15.3656 180.202 15.7666C180.284 16.1676 180.412 16.5072 180.585 16.7852C180.758 17.0632 180.982 17.2751 181.255 17.4209C181.528 17.5667 181.854 17.6396 182.233 17.6396C182.693 17.6396 183.067 17.5667 183.354 17.4209C183.645 17.2751 183.866 17.0609 184.017 16.7783C184.172 16.4958 184.27 16.1449 184.311 15.7256ZM187.749 15.377V15.2334C187.749 14.6911 187.826 14.1921 187.981 13.7363C188.136 13.276 188.362 12.8773 188.658 12.54C188.954 12.2028 189.316 11.9408 189.745 11.7539C190.173 11.5625 190.661 11.4668 191.208 11.4668C191.764 11.4668 192.256 11.5625 192.684 11.7539C193.117 11.9408 193.482 12.2028 193.778 12.54C194.074 12.8773 194.3 13.276 194.455 13.7363C194.61 14.1921 194.687 14.6911 194.687 15.2334V15.377C194.687 15.9147 194.61 16.4137 194.455 16.874C194.3 17.3298 194.074 17.7285 193.778 18.0703C193.482 18.4076 193.119 18.6696 192.691 18.8564C192.263 19.0433 191.773 19.1367 191.221 19.1367C190.674 19.1367 190.184 19.0433 189.752 18.8564C189.319 18.6696 188.954 18.4076 188.658 18.0703C188.362 17.7285 188.136 17.3298 187.981 16.874C187.826 16.4137 187.749 15.9147 187.749 15.377ZM189.553 15.2334V15.377C189.553 15.7005 189.585 16.0036 189.649 16.2861C189.713 16.5687 189.811 16.8171 189.943 17.0312C190.075 17.2454 190.246 17.4141 190.456 17.5371C190.67 17.6556 190.925 17.7148 191.221 17.7148C191.513 17.7148 191.764 17.6556 191.973 17.5371C192.183 17.4141 192.354 17.2454 192.486 17.0312C192.623 16.8171 192.723 16.5687 192.787 16.2861C192.85 16.0036 192.882 15.7005 192.882 15.377V15.2334C192.882 14.9144 192.85 14.6159 192.787 14.3379C192.723 14.0553 192.623 13.807 192.486 13.5928C192.354 13.374 192.181 13.2031 191.966 13.0801C191.757 12.9525 191.504 12.8887 191.208 12.8887C190.916 12.8887 190.665 12.9525 190.456 13.0801C190.246 13.2031 190.075 13.374 189.943 13.5928C189.811 13.807 189.713 14.0553 189.649 14.3379C189.585 14.6159 189.553 14.9144 189.553 15.2334ZM198.904 17.6328L200.627 11.6035H202.514L199.978 19H198.829L198.904 17.6328ZM197.646 11.6035L199.39 17.6465L199.451 19H198.296L195.753 11.6035H197.646ZM207.25 19.1367C206.69 19.1367 206.186 19.0456 205.74 18.8633C205.293 18.681 204.913 18.4281 204.598 18.1045C204.288 17.7764 204.049 17.3958 203.88 16.9629C203.716 16.5254 203.634 16.056 203.634 15.5547V15.2812C203.634 14.7116 203.716 14.1943 203.88 13.7295C204.044 13.2601 204.277 12.8568 204.578 12.5195C204.878 12.1823 205.238 11.9225 205.658 11.7402C206.077 11.5579 206.539 11.4668 207.045 11.4668C207.569 11.4668 208.032 11.5557 208.433 11.7334C208.834 11.9066 209.169 12.1527 209.438 12.4717C209.707 12.7907 209.91 13.1735 210.046 13.6201C210.183 14.0622 210.251 14.5521 210.251 15.0898V15.8486H204.455V14.6045H208.474V14.4678C208.465 14.1807 208.41 13.9186 208.31 13.6816C208.21 13.4401 208.055 13.2487 207.845 13.1074C207.636 12.9616 207.364 12.8887 207.032 12.8887C206.763 12.8887 206.528 12.9479 206.328 13.0664C206.132 13.1803 205.968 13.3444 205.835 13.5586C205.708 13.7682 205.612 14.0189 205.548 14.3105C205.484 14.6022 205.453 14.9258 205.453 15.2812V15.5547C205.453 15.8646 205.494 16.1517 205.576 16.416C205.662 16.6803 205.788 16.9105 205.952 17.1064C206.12 17.2979 206.321 17.4482 206.553 17.5576C206.79 17.6624 207.059 17.7148 207.36 17.7148C207.738 17.7148 208.08 17.6419 208.385 17.4961C208.695 17.3457 208.964 17.1247 209.192 16.833L210.101 17.7764C209.946 18.0042 209.736 18.223 209.472 18.4326C209.212 18.6423 208.898 18.8132 208.529 18.9453C208.16 19.0729 207.734 19.1367 207.25 19.1367ZM213.826 13.1143V19H212.021V11.6035H213.73L213.826 13.1143ZM216.075 11.5557L216.048 13.2373C215.947 13.2191 215.834 13.2054 215.706 13.1963C215.583 13.1872 215.467 13.1826 215.357 13.1826C215.079 13.1826 214.835 13.2214 214.626 13.2988C214.416 13.3717 214.241 13.4788 214.099 13.6201C213.963 13.7614 213.858 13.9346 213.785 14.1396C213.712 14.3402 213.671 14.568 213.662 14.8232L213.272 14.7754C213.272 14.306 213.32 13.8708 213.416 13.4697C213.512 13.0687 213.651 12.7178 213.833 12.417C214.015 12.1162 214.243 11.8838 214.516 11.7197C214.794 11.5511 215.113 11.4668 215.474 11.4668C215.574 11.4668 215.681 11.4759 215.795 11.4941C215.913 11.5078 216.007 11.5283 216.075 11.5557ZM221.694 16.9766C221.694 16.8216 221.653 16.6826 221.571 16.5596C221.489 16.4365 221.334 16.3249 221.106 16.2246C220.882 16.1198 220.554 16.0218 220.121 15.9307C219.739 15.8486 219.385 15.7461 219.062 15.623C218.738 15.5 218.46 15.3519 218.228 15.1787C217.995 15.001 217.813 14.7936 217.681 14.5566C217.553 14.3151 217.49 14.0371 217.49 13.7227C217.49 13.4173 217.556 13.1302 217.688 12.8613C217.82 12.5879 218.011 12.3486 218.262 12.1436C218.513 11.9339 218.818 11.7699 219.178 11.6514C219.538 11.5283 219.944 11.4668 220.395 11.4668C221.024 11.4668 221.564 11.5693 222.015 11.7744C222.471 11.9795 222.819 12.262 223.061 12.6221C223.302 12.9775 223.423 13.3786 223.423 13.8252H221.618C221.618 13.6292 221.573 13.4515 221.482 13.292C221.395 13.1325 221.261 13.0049 221.078 12.9092C220.896 12.8089 220.666 12.7588 220.388 12.7588C220.137 12.7588 219.925 12.7998 219.752 12.8818C219.584 12.9639 219.456 13.071 219.369 13.2031C219.283 13.3353 219.24 13.4811 219.24 13.6406C219.24 13.7591 219.262 13.8662 219.308 13.9619C219.358 14.0531 219.438 14.1374 219.547 14.2148C219.657 14.2923 219.805 14.363 219.992 14.4268C220.183 14.4906 220.418 14.5521 220.696 14.6113C221.247 14.7207 221.728 14.8665 222.138 15.0488C222.553 15.2266 222.876 15.4635 223.109 15.7598C223.341 16.056 223.457 16.4342 223.457 16.8945C223.457 17.2227 223.387 17.5234 223.245 17.7969C223.104 18.0658 222.899 18.3005 222.63 18.501C222.361 18.7015 222.04 18.8587 221.666 18.9727C221.293 19.082 220.871 19.1367 220.402 19.1367C219.723 19.1367 219.148 19.016 218.679 18.7744C218.21 18.5283 217.854 18.2184 217.613 17.8447C217.371 17.4665 217.25 17.0745 217.25 16.6689H218.98C218.993 16.9561 219.071 17.1862 219.212 17.3594C219.353 17.5326 219.531 17.6579 219.745 17.7354C219.964 17.8083 220.194 17.8447 220.436 17.8447C220.709 17.8447 220.939 17.8083 221.126 17.7354C221.313 17.6579 221.454 17.5553 221.55 17.4277C221.646 17.2956 221.694 17.1452 221.694 16.9766Z" fill="white"/>
<defs>
<linearGradient id="paint0_linear_392_14" x1="117.5" y1="0" x2="117.5" y2="28" gradientUnits="userSpaceOnUse">
<stop stop-color="#37B349"/>
<stop offset="1" stop-color="#0C8E46"/>
</linearGradient>
</defs>
</svg>
