<svg width="190" height="15" viewBox="0 0 190 15" fill="none" xmlns="http://www.w3.org/2000/svg">
<g clip-path="url(#clip0_307_105)">
<path d="M4.18701 7.50002C4.18952 8.19268 4.27626 8.88247 4.44535 9.55419H7.14534V5.60419H4.40784C4.26398 6.22596 4.18991 6.86183 4.18701 7.50002Z" fill="black"/>
<path d="M7.854 5.60419V9.55419H10.554C10.7301 8.88334 10.8239 8.19354 10.8332 7.50002C10.8316 6.86199 10.759 6.22611 10.6165 5.60419H7.854Z" fill="black"/>
<path d="M7.49968 0.833344C6.18114 0.833344 4.8922 1.22434 3.79588 1.95688C2.69955 2.68942 1.84506 3.73061 1.34048 4.94879C0.835896 6.16696 0.703874 7.50741 0.961109 8.80061C1.21834 10.0938 1.85328 11.2817 2.78563 12.2141C3.71798 13.1464 4.90587 13.7813 6.19908 14.0386C7.49228 14.2958 8.83273 14.1638 10.0509 13.6592C11.2691 13.1546 12.3103 12.3001 13.0428 11.2038C13.7754 10.1075 14.1663 8.81855 14.1663 7.50001C14.1663 5.7319 13.464 4.03621 12.2137 2.78596C10.9635 1.53572 9.26779 0.833344 7.49968 0.833344ZM12.5913 10.2958H11.083C10.7978 11.1887 10.3762 12.032 9.83301 12.7958C9.43203 12.9701 9.01273 13.0986 8.58301 13.1792C9.35289 12.3428 9.94536 11.3591 10.3247 10.2875H7.85801V13.2667H7.15384V10.2958H4.67468C5.05349 11.3689 5.64599 12.3541 6.41634 13.1917C5.99548 13.112 5.58467 12.9863 5.19134 12.8167C4.64627 12.0464 4.22455 11.1959 3.94134 10.2958H2.40801C2.27498 10.053 2.15941 9.80096 2.06218 9.54168H3.72884C3.57267 8.87222 3.49162 8.18743 3.48718 7.50001C3.48777 6.86283 3.5548 6.22745 3.68718 5.60418H1.98301C2.07079 5.34569 2.17661 5.09368 2.29968 4.85001H3.88718C4.18534 3.85806 4.64727 2.92294 5.25384 2.08334C5.63882 1.92432 6.03971 1.80698 6.44968 1.73334C5.62047 2.62271 4.99486 3.68197 4.61634 4.83751H7.15384V1.66668H7.85801V4.85001H10.3955C10.0177 3.69632 9.39354 2.63856 8.56634 1.75001C8.97568 1.81827 9.37656 1.93001 9.76218 2.08334C10.3652 2.91688 10.8257 3.84478 11.1247 4.82918H12.6955C12.8186 5.07285 12.9244 5.32485 13.0122 5.58334H11.3205C11.4557 6.21328 11.5242 6.85572 11.5247 7.50001C11.5225 8.19146 11.4429 8.88048 11.2872 9.55418H12.9538C12.8507 9.80965 12.7295 10.0575 12.5913 10.2958Z" fill="black"/>
</g>
<path d="M25.06 11.5L23.08 6.25H23.76L25.56 11.12H25.25L27.1 6.25H27.71L29.54 11.12H29.23L31.06 6.25H31.71L29.72 11.5H29.05L27.29 6.92H27.5L25.73 11.5H25.06ZM33.8002 11.5L31.8202 6.25H32.5002L34.3002 11.12H33.9902L35.8402 6.25H36.4502L38.2802 11.12H37.9702L39.8002 6.25H40.4502L38.4602 11.5H37.7902L36.0302 6.92H36.2402L34.4702 11.5H33.8002ZM42.5405 11.5L40.5605 6.25H41.2405L43.0405 11.12H42.7305L44.5805 6.25H45.1905L47.0205 11.12H46.7105L48.5405 6.25H49.1905L47.2005 11.5H46.5305L44.7705 6.92H44.9805L43.2105 11.5H42.5405ZM49.9877 11.55C49.8411 11.55 49.7144 11.4967 49.6077 11.39C49.5077 11.2833 49.4577 11.1533 49.4577 11C49.4577 10.84 49.5077 10.71 49.6077 10.61C49.7144 10.51 49.8411 10.46 49.9877 10.46C50.1344 10.46 50.2577 10.51 50.3577 10.61C50.4644 10.71 50.5177 10.84 50.5177 11C50.5177 11.1533 50.4644 11.2833 50.3577 11.39C50.2577 11.4967 50.1344 11.55 49.9877 11.55ZM53.4469 11.55C53.0135 11.55 52.6035 11.49 52.2169 11.37C51.8302 11.2433 51.5269 11.0867 51.3069 10.9L51.6269 10.34C51.8402 10.5 52.1135 10.64 52.4469 10.76C52.7802 10.8733 53.1302 10.93 53.4969 10.93C53.9969 10.93 54.3569 10.8533 54.5769 10.7C54.7969 10.54 54.9069 10.33 54.9069 10.07C54.9069 9.87667 54.8435 9.72667 54.7169 9.62C54.5969 9.50667 54.4369 9.42333 54.2369 9.37C54.0369 9.31 53.8135 9.26 53.5669 9.22C53.3202 9.18 53.0735 9.13333 52.8269 9.08C52.5869 9.02667 52.3669 8.95 52.1669 8.85C51.9669 8.74333 51.8035 8.6 51.6769 8.42C51.5569 8.24 51.4969 8 51.4969 7.7C51.4969 7.41333 51.5769 7.15667 51.7369 6.93C51.8969 6.70333 52.1302 6.52667 52.4369 6.4C52.7502 6.26667 53.1302 6.2 53.5769 6.2C53.9169 6.2 54.2569 6.24667 54.5969 6.34C54.9369 6.42667 55.2169 6.54333 55.4369 6.69L55.1269 7.26C54.8935 7.1 54.6435 6.98667 54.3769 6.92C54.1102 6.84667 53.8435 6.81 53.5769 6.81C53.1035 6.81 52.7535 6.89333 52.5269 7.06C52.3069 7.22 52.1969 7.42667 52.1969 7.68C52.1969 7.88 52.2569 8.03667 52.3769 8.15C52.5035 8.26333 52.6669 8.35333 52.8669 8.42C53.0735 8.48 53.2969 8.53 53.5369 8.57C53.7835 8.61 54.0269 8.66 54.2669 8.72C54.5135 8.77333 54.7369 8.85 54.9369 8.95C55.1435 9.04333 55.3069 9.18 55.4269 9.36C55.5535 9.53333 55.6169 9.76333 55.6169 10.05C55.6169 10.3567 55.5302 10.6233 55.3569 10.85C55.1902 11.07 54.9435 11.2433 54.6169 11.37C54.2969 11.49 53.9069 11.55 53.4469 11.55ZM63.4797 6.2C63.9064 6.2 64.2764 6.28333 64.5897 6.45C64.9097 6.61 65.1564 6.85667 65.3297 7.19C65.5097 7.52333 65.5997 7.94333 65.5997 8.45V11.5H64.8897V8.52C64.8897 7.96667 64.7564 7.55 64.4897 7.27C64.2297 6.98333 63.8597 6.84 63.3797 6.84C63.0197 6.84 62.7064 6.91667 62.4397 7.07C62.1797 7.21667 61.9764 7.43333 61.8297 7.72C61.6897 8 61.6197 8.34 61.6197 8.74V11.5H60.9097V8.52C60.9097 7.96667 60.7764 7.55 60.5097 7.27C60.243 6.98333 59.8697 6.84 59.3897 6.84C59.0364 6.84 58.7264 6.91667 58.4597 7.07C58.193 7.21667 57.9864 7.43333 57.8397 7.72C57.6997 8 57.6297 8.34 57.6297 8.74V11.5H56.9197V6.25H57.5997V7.67L57.4897 7.42C57.6497 7.04 57.9064 6.74333 58.2597 6.53C58.6197 6.31 59.043 6.2 59.5297 6.2C60.043 6.2 60.4797 6.33 60.8397 6.59C61.1997 6.84333 61.433 7.22667 61.5397 7.74L61.2597 7.63C61.413 7.20333 61.683 6.86 62.0697 6.6C62.463 6.33333 62.933 6.2 63.4797 6.2ZM70.8152 11.5V10.34L70.7852 10.15V8.21C70.7852 7.76333 70.6585 7.42 70.4052 7.18C70.1585 6.94 69.7885 6.82 69.2952 6.82C68.9552 6.82 68.6318 6.87667 68.3252 6.99C68.0185 7.10333 67.7585 7.25333 67.5452 7.44L67.2252 6.91C67.4918 6.68333 67.8118 6.51 68.1852 6.39C68.5585 6.26333 68.9518 6.2 69.3652 6.2C70.0452 6.2 70.5685 6.37 70.9352 6.71C71.3085 7.04333 71.4952 7.55333 71.4952 8.24V11.5H70.8152ZM69.0052 11.55C68.6118 11.55 68.2685 11.4867 67.9752 11.36C67.6885 11.2267 67.4685 11.0467 67.3152 10.82C67.1618 10.5867 67.0852 10.32 67.0852 10.02C67.0852 9.74667 67.1485 9.5 67.2752 9.28C67.4085 9.05333 67.6218 8.87333 67.9152 8.74C68.2152 8.6 68.6152 8.53 69.1152 8.53H70.9252V9.06H69.1352C68.6285 9.06 68.2752 9.15 68.0752 9.33C67.8818 9.51 67.7852 9.73333 67.7852 10C67.7852 10.3 67.9018 10.54 68.1352 10.72C68.3685 10.9 68.6952 10.99 69.1152 10.99C69.5152 10.99 69.8585 10.9 70.1452 10.72C70.4385 10.5333 70.6518 10.2667 70.7852 9.92L70.9452 10.41C70.8118 10.7567 70.5785 11.0333 70.2452 11.24C69.9185 11.4467 69.5052 11.55 69.0052 11.55ZM73.4236 11.5V6.25H74.1036V7.68L74.0336 7.43C74.1803 7.03 74.4269 6.72667 74.7736 6.52C75.1203 6.30667 75.5503 6.2 76.0636 6.2V6.89C76.0369 6.89 76.0103 6.89 75.9836 6.89C75.9569 6.88333 75.9303 6.88 75.9036 6.88C75.3503 6.88 74.9169 7.05 74.6036 7.39C74.2903 7.72333 74.1336 8.2 74.1336 8.82V11.5H73.4236ZM79.2438 11.55C78.7504 11.55 78.3704 11.4167 78.1038 11.15C77.8371 10.8833 77.7038 10.5067 77.7038 10.02V5.09H78.4138V9.98C78.4138 10.2867 78.4904 10.5233 78.6438 10.69C78.8038 10.8567 79.0304 10.94 79.3238 10.94C79.6371 10.94 79.8971 10.85 80.1038 10.67L80.3538 11.18C80.2138 11.3067 80.0438 11.4 79.8438 11.46C79.6504 11.52 79.4504 11.55 79.2438 11.55ZM76.7638 6.84V6.25H80.0138V6.84H76.7638ZM84.3563 11.55C83.9029 11.55 83.4929 11.4467 83.1263 11.24C82.7596 11.0267 82.4663 10.7233 82.2463 10.33C82.0329 9.93 81.9263 9.44333 81.9263 8.87C81.9263 8.29667 82.0329 7.81333 82.2463 7.42C82.4596 7.02 82.7496 6.71667 83.1163 6.51C83.4829 6.30333 83.8963 6.2 84.3563 6.2C84.8563 6.2 85.3029 6.31333 85.6963 6.54C86.0963 6.76 86.4096 7.07333 86.6363 7.48C86.8629 7.88 86.9763 8.34333 86.9763 8.87C86.9763 9.40333 86.8629 9.87 86.6363 10.27C86.4096 10.67 86.0963 10.9833 85.6963 11.21C85.3029 11.4367 84.8563 11.55 84.3563 11.55ZM81.6463 13.44V6.25H82.3263V7.83L82.2563 8.88L82.3563 9.94V13.44H81.6463ZM84.3063 10.92C84.6796 10.92 85.0129 10.8367 85.3063 10.67C85.5996 10.4967 85.8329 10.2567 86.0063 9.95C86.1796 9.63667 86.2663 9.27667 86.2663 8.87C86.2663 8.46333 86.1796 8.10667 86.0063 7.8C85.8329 7.49333 85.5996 7.25333 85.3063 7.08C85.0129 6.90667 84.6796 6.82 84.3063 6.82C83.9329 6.82 83.5963 6.90667 83.2962 7.08C83.0029 7.25333 82.7696 7.49333 82.5963 7.8C82.4296 8.10667 82.3463 8.46333 82.3463 8.87C82.3463 9.27667 82.4296 9.63667 82.5963 9.95C82.7696 10.2567 83.0029 10.4967 83.2962 10.67C83.5963 10.8367 83.9329 10.92 84.3063 10.92ZM90.5636 11.55C90.0569 11.55 89.6003 11.4367 89.1936 11.21C88.7936 10.9767 88.4769 10.66 88.2436 10.26C88.0103 9.85333 87.8936 9.39 87.8936 8.87C87.8936 8.34333 88.0103 7.88 88.2436 7.48C88.4769 7.08 88.7936 6.76667 89.1936 6.54C89.5936 6.31333 90.0503 6.2 90.5636 6.2C91.0836 6.2 91.5436 6.31333 91.9436 6.54C92.3503 6.76667 92.6669 7.08 92.8936 7.48C93.1269 7.88 93.2436 8.34333 93.2436 8.87C93.2436 9.39 93.1269 9.85333 92.8936 10.26C92.6669 10.66 92.3503 10.9767 91.9436 11.21C91.5369 11.4367 91.0769 11.55 90.5636 11.55ZM90.5636 10.92C90.9436 10.92 91.2803 10.8367 91.5736 10.67C91.8669 10.4967 92.0969 10.2567 92.2636 9.95C92.4369 9.63667 92.5236 9.27667 92.5236 8.87C92.5236 8.45667 92.4369 8.09667 92.2636 7.79C92.0969 7.48333 91.8669 7.24667 91.5736 7.08C91.2803 6.90667 90.9469 6.82 90.5736 6.82C90.2003 6.82 89.8669 6.90667 89.5736 7.08C89.2803 7.24667 89.0469 7.48333 88.8736 7.79C88.7003 8.09667 88.6136 8.45667 88.6136 8.87C88.6136 9.27667 88.7003 9.63667 88.8736 9.95C89.0469 10.2567 89.2803 10.4967 89.5736 10.67C89.8669 10.8367 90.1969 10.92 90.5636 10.92ZM94.6931 11.5V4.08H95.4031V11.5H94.6931ZM97.4187 13.49C97.172 13.49 96.9353 13.45 96.7087 13.37C96.4887 13.29 96.2987 13.17 96.1387 13.01L96.4687 12.48C96.602 12.6067 96.7453 12.7033 96.8987 12.77C97.0587 12.8433 97.2353 12.88 97.4287 12.88C97.662 12.88 97.862 12.8133 98.0287 12.68C98.202 12.5533 98.3653 12.3267 98.5187 12L98.8587 11.23L98.9387 11.12L101.099 6.25H101.799L99.1687 12.13C99.022 12.47 98.8587 12.74 98.6787 12.94C98.5053 13.14 98.3153 13.28 98.1087 13.36C97.902 13.4467 97.672 13.49 97.4187 13.49ZM98.8187 11.65L96.3987 6.25H97.1387L99.2787 11.07L98.8187 11.65ZM105.509 11.55C105.055 11.55 104.645 11.4467 104.279 11.24C103.912 11.0267 103.619 10.7233 103.399 10.33C103.185 9.93 103.079 9.44333 103.079 8.87C103.079 8.29667 103.185 7.81333 103.399 7.42C103.612 7.02 103.902 6.71667 104.269 6.51C104.635 6.30333 105.049 6.2 105.509 6.2C106.009 6.2 106.455 6.31333 106.849 6.54C107.249 6.76 107.562 7.07333 107.789 7.48C108.015 7.88 108.129 8.34333 108.129 8.87C108.129 9.40333 108.015 9.87 107.789 10.27C107.562 10.67 107.249 10.9833 106.849 11.21C106.455 11.4367 106.009 11.55 105.509 11.55ZM102.799 13.44V6.25H103.479V7.83L103.409 8.88L103.509 9.94V13.44H102.799ZM105.459 10.92C105.832 10.92 106.165 10.8367 106.459 10.67C106.752 10.4967 106.985 10.2567 107.159 9.95C107.332 9.63667 107.419 9.27667 107.419 8.87C107.419 8.46333 107.332 8.10667 107.159 7.8C106.985 7.49333 106.752 7.25333 106.459 7.08C106.165 6.90667 105.832 6.82 105.459 6.82C105.085 6.82 104.749 6.90667 104.449 7.08C104.155 7.25333 103.922 7.49333 103.749 7.8C103.582 8.10667 103.499 8.46333 103.499 8.87C103.499 9.27667 103.582 9.63667 103.749 9.95C103.922 10.2567 104.155 10.4967 104.449 10.67C104.749 10.8367 105.085 10.92 105.459 10.92ZM112.837 11.5V10.34L112.807 10.15V8.21C112.807 7.76333 112.68 7.42 112.427 7.18C112.18 6.94 111.81 6.82 111.317 6.82C110.977 6.82 110.653 6.87667 110.347 6.99C110.04 7.10333 109.78 7.25333 109.567 7.44L109.247 6.91C109.513 6.68333 109.833 6.51 110.207 6.39C110.58 6.26333 110.973 6.2 111.387 6.2C112.067 6.2 112.59 6.37 112.957 6.71C113.33 7.04333 113.517 7.55333 113.517 8.24V11.5H112.837ZM111.027 11.55C110.633 11.55 110.29 11.4867 109.997 11.36C109.71 11.2267 109.49 11.0467 109.337 10.82C109.183 10.5867 109.107 10.32 109.107 10.02C109.107 9.74667 109.17 9.5 109.297 9.28C109.43 9.05333 109.643 8.87333 109.937 8.74C110.237 8.6 110.637 8.53 111.137 8.53H112.947V9.06H111.157C110.65 9.06 110.297 9.15 110.097 9.33C109.903 9.51 109.807 9.73333 109.807 10C109.807 10.3 109.923 10.54 110.157 10.72C110.39 10.9 110.717 10.99 111.137 10.99C111.537 10.99 111.88 10.9 112.167 10.72C112.46 10.5333 112.673 10.2667 112.807 9.92L112.967 10.41C112.833 10.7567 112.6 11.0333 112.267 11.24C111.94 11.4467 111.527 11.55 111.027 11.55ZM117.625 11.55C117.105 11.55 116.638 11.4367 116.225 11.21C115.818 10.9767 115.498 10.66 115.265 10.26C115.032 9.85333 114.915 9.39 114.915 8.87C114.915 8.34333 115.032 7.88 115.265 7.48C115.498 7.08 115.818 6.76667 116.225 6.54C116.638 6.31333 117.105 6.2 117.625 6.2C118.072 6.2 118.475 6.28667 118.835 6.46C119.195 6.63333 119.478 6.89333 119.685 7.24L119.155 7.6C118.975 7.33333 118.752 7.13667 118.485 7.01C118.218 6.88333 117.928 6.82 117.615 6.82C117.242 6.82 116.905 6.90667 116.605 7.08C116.305 7.24667 116.068 7.48333 115.895 7.79C115.722 8.09667 115.635 8.45667 115.635 8.87C115.635 9.28333 115.722 9.64333 115.895 9.95C116.068 10.2567 116.305 10.4967 116.605 10.67C116.905 10.8367 117.242 10.92 117.615 10.92C117.928 10.92 118.218 10.8567 118.485 10.73C118.752 10.6033 118.975 10.41 119.155 10.15L119.685 10.51C119.478 10.85 119.195 11.11 118.835 11.29C118.475 11.4633 118.072 11.55 117.625 11.55ZM121.562 10.14L121.582 9.23L124.852 6.25H125.722L123.412 8.46L123.012 8.8L121.562 10.14ZM121.002 11.5V4.08H121.712V11.5H121.002ZM125.072 11.5L122.882 8.77L123.342 8.22L125.942 11.5H125.072ZM130.2 11.5V10.34L130.17 10.15V8.21C130.17 7.76333 130.043 7.42 129.79 7.18C129.543 6.94 129.173 6.82 128.68 6.82C128.34 6.82 128.017 6.87667 127.71 6.99C127.403 7.10333 127.143 7.25333 126.93 7.44L126.61 6.91C126.877 6.68333 127.197 6.51 127.57 6.39C127.943 6.26333 128.337 6.2 128.75 6.2C129.43 6.2 129.953 6.37 130.32 6.71C130.693 7.04333 130.88 7.55333 130.88 8.24V11.5H130.2ZM128.39 11.55C127.997 11.55 127.653 11.4867 127.36 11.36C127.073 11.2267 126.853 11.0467 126.7 10.82C126.547 10.5867 126.47 10.32 126.47 10.02C126.47 9.74667 126.533 9.5 126.66 9.28C126.793 9.05333 127.007 8.87333 127.3 8.74C127.6 8.6 128 8.53 128.5 8.53H130.31V9.06H128.52C128.013 9.06 127.66 9.15 127.46 9.33C127.267 9.51 127.17 9.73333 127.17 10C127.17 10.3 127.287 10.54 127.52 10.72C127.753 10.9 128.08 10.99 128.5 10.99C128.9 10.99 129.243 10.9 129.53 10.72C129.823 10.5333 130.037 10.2667 130.17 9.92L130.33 10.41C130.197 10.7567 129.963 11.0333 129.63 11.24C129.303 11.4467 128.89 11.55 128.39 11.55ZM135.048 13.49C134.568 13.49 134.108 13.42 133.668 13.28C133.228 13.14 132.872 12.94 132.598 12.68L132.958 12.14C133.205 12.36 133.508 12.5333 133.868 12.66C134.235 12.7933 134.622 12.86 135.028 12.86C135.695 12.86 136.185 12.7033 136.498 12.39C136.812 12.0833 136.968 11.6033 136.968 10.95V9.64L137.068 8.74L136.998 7.84V6.25H137.678V10.86C137.678 11.7667 137.455 12.43 137.008 12.85C136.568 13.2767 135.915 13.49 135.048 13.49ZM134.918 11.3C134.418 11.3 133.968 11.1933 133.568 10.98C133.168 10.76 132.852 10.4567 132.618 10.07C132.392 9.68333 132.278 9.24 132.278 8.74C132.278 8.24 132.392 7.8 132.618 7.42C132.852 7.03333 133.168 6.73333 133.568 6.52C133.968 6.30667 134.418 6.2 134.918 6.2C135.385 6.2 135.805 6.29667 136.178 6.49C136.552 6.68333 136.848 6.97 137.068 7.35C137.288 7.73 137.398 8.19333 137.398 8.74C137.398 9.28667 137.288 9.75 137.068 10.13C136.848 10.51 136.552 10.8 136.178 11C135.805 11.2 135.385 11.3 134.918 11.3ZM134.988 10.67C135.375 10.67 135.718 10.59 136.018 10.43C136.318 10.2633 136.555 10.0367 136.728 9.75C136.902 9.45667 136.988 9.12 136.988 8.74C136.988 8.36 136.902 8.02667 136.728 7.74C136.555 7.45333 136.318 7.23 136.018 7.07C135.718 6.90333 135.375 6.82 134.988 6.82C134.608 6.82 134.265 6.90333 133.958 7.07C133.658 7.23 133.422 7.45333 133.248 7.74C133.082 8.02667 132.998 8.36 132.998 8.74C132.998 9.12 133.082 9.45667 133.248 9.75C133.422 10.0367 133.658 10.2633 133.958 10.43C134.265 10.59 134.608 10.67 134.988 10.67ZM139.654 11.5V6.25H140.364V11.5H139.654ZM140.014 5.09C139.867 5.09 139.744 5.04 139.644 4.94C139.544 4.84 139.494 4.72 139.494 4.58C139.494 4.44 139.544 4.32333 139.644 4.23C139.744 4.13 139.867 4.08 140.014 4.08C140.161 4.08 140.284 4.12667 140.384 4.22C140.484 4.31333 140.534 4.43 140.534 4.57C140.534 4.71667 140.484 4.84 140.384 4.94C140.291 5.04 140.167 5.09 140.014 5.09ZM145.02 6.2C145.446 6.2 145.82 6.28333 146.14 6.45C146.466 6.61 146.72 6.85667 146.9 7.19C147.086 7.52333 147.18 7.94333 147.18 8.45V11.5H146.47V8.52C146.47 7.96667 146.33 7.55 146.05 7.27C145.776 6.98333 145.39 6.84 144.89 6.84C144.516 6.84 144.19 6.91667 143.91 7.07C143.636 7.21667 143.423 7.43333 143.27 7.72C143.123 8 143.05 8.34 143.05 8.74V11.5H142.34V6.25H143.02V7.69L142.91 7.42C143.076 7.04 143.343 6.74333 143.71 6.53C144.076 6.31 144.513 6.2 145.02 6.2ZM151.337 13.49C150.857 13.49 150.397 13.42 149.957 13.28C149.517 13.14 149.161 12.94 148.887 12.68L149.247 12.14C149.494 12.36 149.797 12.5333 150.157 12.66C150.524 12.7933 150.911 12.86 151.317 12.86C151.984 12.86 152.474 12.7033 152.787 12.39C153.101 12.0833 153.257 11.6033 153.257 10.95V9.64L153.357 8.74L153.287 7.84V6.25H153.967V10.86C153.967 11.7667 153.744 12.43 153.297 12.85C152.857 13.2767 152.204 13.49 151.337 13.49ZM151.207 11.3C150.707 11.3 150.257 11.1933 149.857 10.98C149.457 10.76 149.141 10.4567 148.907 10.07C148.681 9.68333 148.567 9.24 148.567 8.74C148.567 8.24 148.681 7.8 148.907 7.42C149.141 7.03333 149.457 6.73333 149.857 6.52C150.257 6.30667 150.707 6.2 151.207 6.2C151.674 6.2 152.094 6.29667 152.467 6.49C152.841 6.68333 153.137 6.97 153.357 7.35C153.577 7.73 153.687 8.19333 153.687 8.74C153.687 9.28667 153.577 9.75 153.357 10.13C153.137 10.51 152.841 10.8 152.467 11C152.094 11.2 151.674 11.3 151.207 11.3ZM151.277 10.67C151.664 10.67 152.007 10.59 152.307 10.43C152.607 10.2633 152.844 10.0367 153.017 9.75C153.191 9.45667 153.277 9.12 153.277 8.74C153.277 8.36 153.191 8.02667 153.017 7.74C152.844 7.45333 152.607 7.23 152.307 7.07C152.007 6.90333 151.664 6.82 151.277 6.82C150.897 6.82 150.554 6.90333 150.247 7.07C149.947 7.23 149.711 7.45333 149.537 7.74C149.371 8.02667 149.287 8.36 149.287 8.74C149.287 9.12 149.371 9.45667 149.537 9.75C149.711 10.0367 149.947 10.2633 150.247 10.43C150.554 10.59 150.897 10.67 151.277 10.67ZM156.013 11.55C155.866 11.55 155.74 11.4967 155.633 11.39C155.533 11.2833 155.483 11.1533 155.483 11C155.483 10.84 155.533 10.71 155.633 10.61C155.74 10.51 155.866 10.46 156.013 10.46C156.16 10.46 156.283 10.51 156.383 10.61C156.49 10.71 156.543 10.84 156.543 11C156.543 11.1533 156.49 11.2833 156.383 11.39C156.283 11.4967 156.16 11.55 156.013 11.55ZM160.096 11.55C159.576 11.55 159.109 11.4367 158.696 11.21C158.289 10.9767 157.969 10.66 157.736 10.26C157.502 9.85333 157.386 9.39 157.386 8.87C157.386 8.34333 157.502 7.88 157.736 7.48C157.969 7.08 158.289 6.76667 158.696 6.54C159.109 6.31333 159.576 6.2 160.096 6.2C160.542 6.2 160.946 6.28667 161.306 6.46C161.666 6.63333 161.949 6.89333 162.156 7.24L161.626 7.6C161.446 7.33333 161.222 7.13667 160.956 7.01C160.689 6.88333 160.399 6.82 160.086 6.82C159.712 6.82 159.376 6.90667 159.076 7.08C158.776 7.24667 158.539 7.48333 158.366 7.79C158.192 8.09667 158.106 8.45667 158.106 8.87C158.106 9.28333 158.192 9.64333 158.366 9.95C158.539 10.2567 158.776 10.4967 159.076 10.67C159.376 10.8367 159.712 10.92 160.086 10.92C160.399 10.92 160.689 10.8567 160.956 10.73C161.222 10.6033 161.446 10.41 161.626 10.15L162.156 10.51C161.949 10.85 161.666 11.11 161.306 11.29C160.946 11.4633 160.542 11.55 160.096 11.55ZM165.603 11.55C165.096 11.55 164.639 11.4367 164.233 11.21C163.833 10.9767 163.516 10.66 163.283 10.26C163.049 9.85333 162.933 9.39 162.933 8.87C162.933 8.34333 163.049 7.88 163.283 7.48C163.516 7.08 163.833 6.76667 164.233 6.54C164.633 6.31333 165.089 6.2 165.603 6.2C166.123 6.2 166.583 6.31333 166.983 6.54C167.389 6.76667 167.706 7.08 167.933 7.48C168.166 7.88 168.283 8.34333 168.283 8.87C168.283 9.39 168.166 9.85333 167.933 10.26C167.706 10.66 167.389 10.9767 166.983 11.21C166.576 11.4367 166.116 11.55 165.603 11.55ZM165.603 10.92C165.983 10.92 166.319 10.8367 166.613 10.67C166.906 10.4967 167.136 10.2567 167.303 9.95C167.476 9.63667 167.563 9.27667 167.563 8.87C167.563 8.45667 167.476 8.09667 167.303 7.79C167.136 7.48333 166.906 7.24667 166.613 7.08C166.319 6.90667 165.986 6.82 165.613 6.82C165.239 6.82 164.906 6.90667 164.613 7.08C164.319 7.24667 164.086 7.48333 163.913 7.79C163.739 8.09667 163.653 8.45667 163.653 8.87C163.653 9.27667 163.739 9.63667 163.913 9.95C164.086 10.2567 164.319 10.4967 164.613 10.67C164.906 10.8367 165.236 10.92 165.603 10.92ZM176.292 6.2C176.719 6.2 177.089 6.28333 177.402 6.45C177.722 6.61 177.969 6.85667 178.142 7.19C178.322 7.52333 178.412 7.94333 178.412 8.45V11.5H177.702V8.52C177.702 7.96667 177.569 7.55 177.302 7.27C177.042 6.98333 176.672 6.84 176.192 6.84C175.832 6.84 175.519 6.91667 175.252 7.07C174.992 7.21667 174.789 7.43333 174.642 7.72C174.502 8 174.432 8.34 174.432 8.74V11.5H173.722V8.52C173.722 7.96667 173.589 7.55 173.322 7.27C173.056 6.98333 172.682 6.84 172.202 6.84C171.849 6.84 171.539 6.91667 171.272 7.07C171.006 7.21667 170.799 7.43333 170.652 7.72C170.512 8 170.442 8.34 170.442 8.74V11.5H169.732V6.25H170.412V7.67L170.302 7.42C170.462 7.04 170.719 6.74333 171.072 6.53C171.432 6.31 171.856 6.2 172.342 6.2C172.856 6.2 173.292 6.33 173.652 6.59C174.012 6.84333 174.246 7.22667 174.352 7.74L174.072 7.63C174.226 7.20333 174.496 6.86 174.882 6.6C175.276 6.33333 175.746 6.2 176.292 6.2Z" fill="black"/>
<defs>
<clipPath id="clip0_307_105">
<rect width="15" height="15" fill="white"/>
</clipPath>
</defs>
</svg>
