<svg width="43" height="22" viewBox="0 0 43 22" fill="none" xmlns="http://www.w3.org/2000/svg">
<path d="M19.36 16.1C18.8067 16.1 18.3067 15.96 17.86 15.68C17.42 15.4 17.0733 14.9933 16.82 14.46C16.5667 13.92 16.44 13.2667 16.44 12.5C16.44 11.7333 16.5667 11.0833 16.82 10.55C17.0733 10.01 17.42 9.6 17.86 9.32C18.3067 9.04 18.8067 8.9 19.36 8.9C19.92 8.9 20.42 9.04 20.86 9.32C21.3 9.6 21.6467 10.01 21.9 10.55C22.16 11.0833 22.29 11.7333 22.29 12.5C22.29 13.2667 22.16 13.92 21.9 14.46C21.6467 14.9933 21.3 15.4 20.86 15.68C20.42 15.96 19.92 16.1 19.36 16.1ZM19.36 14.97C19.6867 14.97 19.97 14.8833 20.21 14.71C20.45 14.53 20.6367 14.2567 20.77 13.89C20.91 13.5233 20.98 13.06 20.98 12.5C20.98 11.9333 20.91 11.47 20.77 11.11C20.6367 10.7433 20.45 10.4733 20.21 10.3C19.97 10.12 19.6867 10.03 19.36 10.03C19.0467 10.03 18.7667 10.12 18.52 10.3C18.28 10.4733 18.09 10.7433 17.95 11.11C17.8167 11.47 17.75 11.9333 17.75 12.5C17.75 13.06 17.8167 13.5233 17.95 13.89C18.09 14.2567 18.28 14.53 18.52 14.71C18.7667 14.8833 19.0467 14.97 19.36 14.97ZM25.2709 16.1C24.7775 16.1 24.2942 16.03 23.8209 15.89C23.3542 15.7433 22.9609 15.5433 22.6409 15.29L23.2009 14.28C23.4542 14.4867 23.7609 14.6533 24.1209 14.78C24.4809 14.9067 24.8575 14.97 25.2509 14.97C25.7175 14.97 26.0809 14.8767 26.3409 14.69C26.6009 14.4967 26.7309 14.2367 26.7309 13.91C26.7309 13.59 26.6109 13.3367 26.3709 13.15C26.1309 12.9633 25.7442 12.87 25.2109 12.87H24.5709V11.98L26.5709 9.6L26.7409 10.09H22.9809V9H27.7509V9.87L25.7509 12.25L25.0709 11.85H25.4609C26.3209 11.85 26.9642 12.0433 27.3909 12.43C27.8242 12.81 28.0409 13.3 28.0409 13.9C28.0409 14.2933 27.9409 14.6567 27.7409 14.99C27.5409 15.3233 27.2342 15.5933 26.8209 15.8C26.4142 16 25.8975 16.1 25.2709 16.1Z" fill="black"/>
<path fill-rule="evenodd" clip-rule="evenodd" d="M41.1569 12.711L35.4999 18.368L34.0859 16.954L39.0359 12.004L34.0859 7.05401L35.4999 5.64001L41.1569 11.297C41.3444 11.4845 41.4497 11.7389 41.4497 12.004C41.4497 12.2692 41.3444 12.5235 41.1569 12.711Z" fill="#E2E3E3"/>
<path fill-rule="evenodd" clip-rule="evenodd" d="M1.84306 12.711L7.50006 18.368L8.91406 16.954L3.96406 12.004L8.91406 7.05401L7.50006 5.64001L1.84306 11.297C1.65559 11.4845 1.55028 11.7389 1.55028 12.004C1.55028 12.2692 1.65559 12.5235 1.84306 12.711Z" fill="#E2E3E3"/>
</svg>
