<svg width="158" height="28" viewBox="0 0 158 28" fill="none" xmlns="http://www.w3.org/2000/svg">
<rect width="158" height="28" fill="url(#paint0_linear_326_28)"/>
<rect width="158" height="28" fill="black" fill-opacity="0.2"/>
<path d="M17.3076 13.1689V14.8438C17.3076 15.6094 17.2301 16.2633 17.0752 16.8057C16.9202 17.348 16.6969 17.7923 16.4053 18.1387C16.1136 18.4805 15.765 18.7334 15.3594 18.8975C14.9538 19.057 14.5026 19.1367 14.0059 19.1367C13.6094 19.1367 13.2402 19.0866 12.8984 18.9863C12.5566 18.8815 12.249 18.722 11.9756 18.5078C11.7067 18.2891 11.4743 18.0111 11.2783 17.6738C11.0869 17.3366 10.9388 16.9333 10.834 16.4639C10.7337 15.9945 10.6836 15.4544 10.6836 14.8438V13.1689C10.6836 12.4033 10.7611 11.7516 10.916 11.2139C11.0755 10.6761 11.3011 10.2363 11.5928 9.89453C11.8844 9.55273 12.2331 9.30436 12.6387 9.14941C13.0443 8.98991 13.4954 8.91016 13.9922 8.91016C14.3932 8.91016 14.7624 8.96029 15.0996 9.06055C15.4414 9.16081 15.7467 9.31803 16.0156 9.53223C16.2891 9.74186 16.5215 10.0153 16.7129 10.3525C16.9043 10.6852 17.0501 11.0863 17.1504 11.5557C17.2552 12.0205 17.3076 12.5583 17.3076 13.1689ZM15.5029 15.0898V12.916C15.5029 12.5332 15.4801 12.2005 15.4346 11.918C15.3936 11.6309 15.332 11.387 15.25 11.1865C15.168 10.986 15.0654 10.8242 14.9424 10.7012C14.8193 10.5736 14.6781 10.4801 14.5186 10.4209C14.359 10.3617 14.1836 10.332 13.9922 10.332C13.7552 10.332 13.5433 10.3799 13.3564 10.4756C13.1696 10.5667 13.0124 10.7126 12.8848 10.9131C12.7572 11.1136 12.6592 11.3802 12.5908 11.7129C12.527 12.041 12.4951 12.4421 12.4951 12.916V15.0898C12.4951 15.4727 12.5156 15.8076 12.5566 16.0947C12.6022 16.3818 12.666 16.6279 12.748 16.833C12.8346 17.0381 12.9372 17.2067 13.0557 17.3389C13.1787 17.4665 13.32 17.5622 13.4795 17.626C13.639 17.6852 13.8145 17.7148 14.0059 17.7148C14.2474 17.7148 14.4593 17.667 14.6416 17.5713C14.8285 17.4756 14.9857 17.3252 15.1133 17.1201C15.2409 16.9105 15.3366 16.6393 15.4004 16.3066C15.4688 15.9694 15.5029 15.5638 15.5029 15.0898ZM25.8793 16.2793C25.8793 16.8991 25.7335 17.4232 25.4418 17.8516C25.1547 18.2754 24.7605 18.5967 24.2592 18.8154C23.7625 19.0296 23.1974 19.1367 22.5639 19.1367C21.935 19.1367 21.3676 19.0296 20.8618 18.8154C20.3605 18.5967 19.9617 18.2754 19.6655 17.8516C19.3738 17.4232 19.228 16.8991 19.228 16.2793C19.228 15.8646 19.31 15.4886 19.4741 15.1514C19.6427 14.8141 19.8751 14.5247 20.1713 14.2832C20.4676 14.0371 20.8185 13.8503 21.2241 13.7227C21.6297 13.5905 22.0717 13.5244 22.5502 13.5244C23.1883 13.5244 23.7579 13.6406 24.2592 13.873C24.7651 14.1009 25.1616 14.4222 25.4487 14.8369C25.7358 15.2471 25.8793 15.7279 25.8793 16.2793ZM24.061 16.1699C24.061 15.8509 23.9972 15.5752 23.8696 15.3428C23.7465 15.1058 23.5711 14.9235 23.3432 14.7959C23.1153 14.6683 22.851 14.6045 22.5502 14.6045C22.2449 14.6045 21.9783 14.6683 21.7504 14.7959C21.5271 14.9235 21.3517 15.1058 21.2241 15.3428C21.101 15.5752 21.0395 15.8509 21.0395 16.1699C21.0395 16.4935 21.101 16.7715 21.2241 17.0039C21.3517 17.2318 21.5294 17.4072 21.7573 17.5303C21.9851 17.6533 22.254 17.7148 22.5639 17.7148C22.8738 17.7148 23.1404 17.6533 23.3637 17.5303C23.587 17.4072 23.7579 17.2318 23.8764 17.0039C23.9995 16.7715 24.061 16.4935 24.061 16.1699ZM25.6606 11.6719C25.6606 12.1732 25.5284 12.6198 25.2641 13.0117C24.9998 13.3991 24.6329 13.7021 24.1635 13.9209C23.6987 14.1396 23.1655 14.249 22.5639 14.249C21.9623 14.249 21.4246 14.1396 20.9506 13.9209C20.4812 13.7021 20.1121 13.3991 19.8432 13.0117C19.5789 12.6198 19.4467 12.1732 19.4467 11.6719C19.4467 11.0794 19.5812 10.5781 19.85 10.168C20.1189 9.75326 20.4858 9.4388 20.9506 9.22461C21.42 9.01042 21.9532 8.90332 22.5502 8.90332C23.1564 8.90332 23.6941 9.01042 24.1635 9.22461C24.6329 9.4388 24.9998 9.75326 25.2641 10.168C25.5284 10.5781 25.6606 11.0794 25.6606 11.6719ZM23.8559 11.7471C23.8559 11.4645 23.8035 11.2184 23.6987 11.0088C23.5939 10.7946 23.4435 10.6283 23.2475 10.5098C23.0561 10.3913 22.8237 10.332 22.5502 10.332C22.2859 10.332 22.058 10.389 21.8666 10.5029C21.6752 10.6169 21.5271 10.7809 21.4223 10.9951C21.3175 11.2048 21.2651 11.4554 21.2651 11.7471C21.2651 12.0342 21.3175 12.2848 21.4223 12.499C21.5271 12.7132 21.6752 12.8818 21.8666 13.0049C22.0626 13.1234 22.295 13.1826 22.5639 13.1826C22.8328 13.1826 23.0629 13.1234 23.2543 13.0049C23.4457 12.8818 23.5939 12.7132 23.6987 12.499C23.8035 12.2848 23.8559 12.0342 23.8559 11.7471ZM28.0048 18.1182C28.0048 17.8447 28.0982 17.6146 28.285 17.4277C28.4719 17.2409 28.7248 17.1475 29.0438 17.1475C29.3628 17.1475 29.6158 17.2409 29.8026 17.4277C29.9895 17.6146 30.0829 17.8447 30.0829 18.1182C30.0829 18.387 29.9895 18.6149 29.8026 18.8018C29.6158 18.984 29.3628 19.0752 29.0438 19.0752C28.7248 19.0752 28.4719 18.984 28.285 18.8018C28.0982 18.6149 28.0048 18.387 28.0048 18.1182ZM36.4193 14.5635H33.8763L33.8626 13.2373H36.0433C36.417 13.2373 36.7292 13.1849 36.9798 13.0801C37.2305 12.9753 37.4196 12.8226 37.5472 12.6221C37.6793 12.4215 37.7454 12.1777 37.7454 11.8906C37.7454 11.5716 37.6839 11.3118 37.5609 11.1113C37.4424 10.9108 37.2555 10.765 37.0003 10.6738C36.7451 10.5781 36.4215 10.5303 36.0296 10.5303H34.4847V19H32.6048V9.04688H36.0296C36.5947 9.04688 37.0983 9.10156 37.5404 9.21094C37.987 9.31576 38.3652 9.47982 38.6751 9.70312C38.985 9.92643 39.2197 10.2067 39.3792 10.5439C39.5433 10.8812 39.6253 11.2822 39.6253 11.7471C39.6253 12.1572 39.5296 12.5355 39.3382 12.8818C39.1514 13.2236 38.862 13.5016 38.47 13.7158C38.0827 13.93 37.5905 14.0531 36.9935 14.085L36.4193 14.5635ZM36.3372 19H33.3226L34.1087 17.5234H36.3372C36.7109 17.5234 37.0185 17.4619 37.2601 17.3389C37.5062 17.2158 37.6885 17.0472 37.807 16.833C37.93 16.6143 37.9915 16.3636 37.9915 16.0811C37.9915 15.7712 37.9368 15.5023 37.8275 15.2744C37.7226 15.0465 37.554 14.8711 37.3216 14.748C37.0937 14.625 36.793 14.5635 36.4193 14.5635H34.4642L34.4779 13.2373H36.9661L37.3968 13.75C37.971 13.7546 38.4381 13.8685 38.7982 14.0918C39.1627 14.3151 39.4316 14.6022 39.6048 14.9531C39.778 15.304 39.8646 15.6823 39.8646 16.0879C39.8646 16.7259 39.7256 17.2614 39.4476 17.6943C39.1741 18.1273 38.7731 18.4531 38.2445 18.6719C37.7204 18.8906 37.0846 19 36.3372 19ZM46.3171 17.2432V11.6035H48.1355V19H46.4265L46.3171 17.2432ZM46.5496 15.7119L47.1101 15.6982C47.1101 16.195 47.0554 16.653 46.9461 17.0723C46.8367 17.4915 46.6658 17.8561 46.4334 18.166C46.2055 18.4714 45.9161 18.7106 45.5652 18.8838C45.2143 19.0524 44.7996 19.1367 44.3211 19.1367C43.9565 19.1367 43.6238 19.0866 43.323 18.9863C43.0222 18.8815 42.7625 18.7197 42.5437 18.501C42.3295 18.2777 42.1632 17.9928 42.0447 17.6465C41.9262 17.2956 41.867 16.874 41.867 16.3818V11.6035H43.6716V16.3955C43.6716 16.6416 43.699 16.8467 43.7537 17.0107C43.8129 17.1748 43.8927 17.3092 43.9929 17.4141C44.0977 17.5143 44.2185 17.5872 44.3552 17.6328C44.4965 17.6738 44.6469 17.6943 44.8064 17.6943C45.2439 17.6943 45.588 17.6077 45.8386 17.4346C46.0938 17.2568 46.2761 17.0199 46.3855 16.7236C46.4949 16.4229 46.5496 16.0856 46.5496 15.7119ZM50.2883 8.5H52.0998V17.3662L51.9221 19H50.2883V8.5ZM56.8576 15.2266V15.3701C56.8576 15.9215 56.7961 16.4274 56.673 16.8877C56.5546 17.348 56.3745 17.7467 56.133 18.084C55.8915 18.4167 55.5907 18.6764 55.2307 18.8633C54.8752 19.0456 54.4582 19.1367 53.9797 19.1367C53.524 19.1367 53.1275 19.0479 52.7902 18.8701C52.4576 18.6924 52.1773 18.4417 51.9494 18.1182C51.7215 17.79 51.5393 17.4049 51.4025 16.9629C51.2658 16.5163 51.1633 16.0286 51.0949 15.5V15.1104C51.1633 14.5771 51.2658 14.0895 51.4025 13.6475C51.5393 13.2054 51.7215 12.8203 51.9494 12.4922C52.1773 12.1641 52.4576 11.9111 52.7902 11.7334C53.1229 11.5557 53.5148 11.4668 53.966 11.4668C54.4491 11.4668 54.8706 11.5602 55.2307 11.7471C55.5952 11.9294 55.896 12.1891 56.133 12.5264C56.3745 12.859 56.5546 13.2555 56.673 13.7158C56.7961 14.1715 56.8576 14.6751 56.8576 15.2266ZM55.0461 15.3701V15.2266C55.0461 14.9121 55.021 14.6159 54.9709 14.3379C54.9208 14.0553 54.8387 13.807 54.7248 13.5928C54.6109 13.3786 54.4559 13.21 54.26 13.0869C54.064 12.9639 53.8179 12.9023 53.5217 12.9023C53.2391 12.9023 52.9976 12.9502 52.7971 13.0459C52.6011 13.1416 52.437 13.2738 52.3049 13.4424C52.1773 13.611 52.077 13.8092 52.0041 14.0371C51.9357 14.265 51.8902 14.5111 51.8674 14.7754V15.8418C51.8993 16.1927 51.9745 16.5094 52.093 16.792C52.2115 17.07 52.3869 17.291 52.6193 17.4551C52.8563 17.6191 53.1617 17.7012 53.5354 17.7012C53.827 17.7012 54.0708 17.6442 54.2668 17.5303C54.4628 17.4118 54.6177 17.2477 54.7316 17.0381C54.8456 16.8239 54.9253 16.5755 54.9709 16.293C55.021 16.0104 55.0461 15.7028 55.0461 15.3701ZM58.7233 8.5H60.5348V17.3662L60.3571 19H58.7233V8.5ZM65.2926 15.2266V15.3701C65.2926 15.9215 65.2311 16.4274 65.108 16.8877C64.9896 17.348 64.8095 17.7467 64.568 18.084C64.3265 18.4167 64.0257 18.6764 63.6657 18.8633C63.3102 19.0456 62.8932 19.1367 62.4147 19.1367C61.959 19.1367 61.5625 19.0479 61.2252 18.8701C60.8926 18.6924 60.6123 18.4417 60.3844 18.1182C60.1566 17.79 59.9743 17.4049 59.8375 16.9629C59.7008 16.5163 59.5983 16.0286 59.5299 15.5V15.1104C59.5983 14.5771 59.7008 14.0895 59.8375 13.6475C59.9743 13.2054 60.1566 12.8203 60.3844 12.4922C60.6123 12.1641 60.8926 11.9111 61.2252 11.7334C61.5579 11.5557 61.9498 11.4668 62.401 11.4668C62.8841 11.4668 63.3056 11.5602 63.6657 11.7471C64.0302 11.9294 64.331 12.1891 64.568 12.5264C64.8095 12.859 64.9896 13.2555 65.108 13.7158C65.2311 14.1715 65.2926 14.6751 65.2926 15.2266ZM63.4811 15.3701V15.2266C63.4811 14.9121 63.456 14.6159 63.4059 14.3379C63.3558 14.0553 63.2737 13.807 63.1598 13.5928C63.0459 13.3786 62.8909 13.21 62.695 13.0869C62.499 12.9639 62.2529 12.9023 61.9567 12.9023C61.6741 12.9023 61.4326 12.9502 61.2321 13.0459C61.0361 13.1416 60.872 13.2738 60.7399 13.4424C60.6123 13.611 60.512 13.8092 60.4391 14.0371C60.3707 14.265 60.3252 14.5111 60.3024 14.7754V15.8418C60.3343 16.1927 60.4095 16.5094 60.528 16.792C60.6465 17.07 60.8219 17.291 61.0543 17.4551C61.2913 17.6191 61.5967 17.7012 61.9704 17.7012C62.262 17.7012 62.5058 17.6442 62.7018 17.5303C62.8978 17.4118 63.0527 17.2477 63.1666 17.0381C63.2806 16.8239 63.3603 16.5755 63.4059 16.293C63.456 16.0104 63.4811 15.7028 63.4811 15.3701ZM69.0792 8.5V19H67.2677V8.5H69.0792ZM74.6841 19.1367C74.1236 19.1367 73.62 19.0456 73.1734 18.8633C72.7267 18.681 72.3462 18.4281 72.0318 18.1045C71.7219 17.7764 71.4826 17.3958 71.314 16.9629C71.1499 16.5254 71.0679 16.056 71.0679 15.5547V15.2812C71.0679 14.7116 71.1499 14.1943 71.314 13.7295C71.478 13.2601 71.7105 12.8568 72.0112 12.5195C72.312 12.1823 72.6721 11.9225 73.0913 11.7402C73.5106 11.5579 73.9732 11.4668 74.479 11.4668C75.0031 11.4668 75.4657 11.5557 75.8667 11.7334C76.2678 11.9066 76.6027 12.1527 76.8716 12.4717C77.1405 12.7907 77.3433 13.1735 77.48 13.6201C77.6167 14.0622 77.6851 14.5521 77.6851 15.0898V15.8486H71.8882V14.6045H75.9077V14.4678C75.8986 14.1807 75.8439 13.9186 75.7437 13.6816C75.6434 13.4401 75.4885 13.2487 75.2788 13.1074C75.0692 12.9616 74.798 12.8887 74.4654 12.8887C74.1965 12.8887 73.9618 12.9479 73.7612 13.0664C73.5653 13.1803 73.4012 13.3444 73.2691 13.5586C73.1415 13.7682 73.0458 14.0189 72.982 14.3105C72.9182 14.6022 72.8862 14.9258 72.8862 15.2812V15.5547C72.8862 15.8646 72.9273 16.1517 73.0093 16.416C73.0959 16.6803 73.2212 16.9105 73.3853 17.1064C73.5539 17.2979 73.7544 17.4482 73.9868 17.5576C74.2238 17.6624 74.4927 17.7148 74.7935 17.7148C75.1717 17.7148 75.5135 17.6419 75.8189 17.4961C76.1288 17.3457 76.3976 17.1247 76.6255 16.833L77.5347 17.7764C77.3797 18.0042 77.1701 18.223 76.9058 18.4326C76.646 18.6423 76.3316 18.8132 75.9624 18.9453C75.5933 19.0729 75.1672 19.1367 74.6841 19.1367ZM86.0854 17.0928L88.0678 9.04688H89.141L89.2094 10.7422L87.0902 19H85.9555L86.0854 17.0928ZM84.8344 9.04688L86.4613 17.0654V19H85.224L82.9682 9.04688H84.8344ZM91.267 17.0312L92.8666 9.04688H94.7396L92.4838 19H91.2465L91.267 17.0312ZM89.6537 9.04688L91.6361 17.1201L91.7523 19H90.6176L88.5053 10.7354L88.5873 9.04688H89.6537ZM98.0067 13.1143V19H96.202V11.6035H97.911L98.0067 13.1143ZM100.256 11.5557L100.228 13.2373C100.128 13.2191 100.014 13.2054 99.8866 13.1963C99.7635 13.1872 99.6473 13.1826 99.5379 13.1826C99.2599 13.1826 99.0161 13.2214 98.8065 13.2988C98.5969 13.3717 98.4214 13.4788 98.2801 13.6201C98.1434 13.7614 98.0386 13.9346 97.9657 14.1396C97.8928 14.3402 97.8517 14.568 97.8426 14.8232L97.453 14.7754C97.453 14.306 97.5008 13.8708 97.5965 13.4697C97.6922 13.0687 97.8312 12.7178 98.0135 12.417C98.1958 12.1162 98.4237 11.8838 98.6971 11.7197C98.9751 11.5511 99.2941 11.4668 99.6541 11.4668C99.7544 11.4668 99.8615 11.4759 99.9754 11.4941C100.094 11.5078 100.187 11.5283 100.256 11.5557ZM105.649 17.4277V14.0166C105.649 13.766 105.605 13.5495 105.519 13.3672C105.432 13.1849 105.3 13.0436 105.122 12.9434C104.945 12.8431 104.719 12.793 104.446 12.793C104.204 12.793 103.992 12.834 103.81 12.916C103.632 12.998 103.495 13.1143 103.4 13.2646C103.304 13.4105 103.256 13.5791 103.256 13.7705H101.445C101.445 13.4652 101.518 13.1758 101.663 12.9023C101.809 12.6243 102.017 12.3783 102.285 12.1641C102.559 11.9453 102.885 11.7744 103.263 11.6514C103.646 11.5283 104.074 11.4668 104.548 11.4668C105.109 11.4668 105.608 11.5625 106.045 11.7539C106.487 11.9408 106.834 12.2233 107.084 12.6016C107.339 12.9798 107.467 13.4561 107.467 14.0303V17.2568C107.467 17.626 107.49 17.9427 107.535 18.207C107.586 18.4668 107.658 18.6924 107.754 18.8838V19H105.915C105.829 18.8132 105.763 18.5762 105.717 18.2891C105.671 17.9974 105.649 17.7103 105.649 17.4277ZM105.902 14.4951L105.915 15.5684H104.774C104.491 15.5684 104.243 15.598 104.029 15.6572C103.814 15.7119 103.639 15.7939 103.502 15.9033C103.366 16.0081 103.263 16.1357 103.195 16.2861C103.126 16.432 103.092 16.5983 103.092 16.7852C103.092 16.9674 103.133 17.1315 103.215 17.2773C103.302 17.4232 103.425 17.5394 103.584 17.626C103.748 17.708 103.94 17.749 104.158 17.749C104.477 17.749 104.755 17.6852 104.992 17.5576C105.229 17.4255 105.414 17.266 105.546 17.0791C105.678 16.8923 105.749 16.7145 105.758 16.5459L106.278 17.3252C106.214 17.512 106.118 17.7103 105.991 17.9199C105.863 18.1296 105.699 18.3255 105.498 18.5078C105.298 18.6901 105.056 18.8405 104.774 18.959C104.491 19.0775 104.163 19.1367 103.789 19.1367C103.311 19.1367 102.882 19.041 102.504 18.8496C102.126 18.6582 101.827 18.3962 101.609 18.0635C101.39 17.7308 101.281 17.3525 101.281 16.9287C101.281 16.5368 101.353 16.1904 101.499 15.8896C101.645 15.5889 101.862 15.3359 102.149 15.1309C102.436 14.9212 102.791 14.764 103.215 14.6592C103.644 14.5498 104.133 14.4951 104.685 14.4951H105.902ZM111.459 13.0254V21.8438H109.647V11.6035H111.322L111.459 13.0254ZM116.21 15.2266V15.3701C116.21 15.9079 116.146 16.4069 116.018 16.8672C115.895 17.3229 115.713 17.7217 115.471 18.0635C115.23 18.4007 114.929 18.665 114.569 18.8564C114.214 19.0433 113.803 19.1367 113.339 19.1367C112.883 19.1367 112.486 19.0501 112.149 18.877C111.812 18.6992 111.527 18.4486 111.295 18.125C111.062 17.8014 110.875 17.4255 110.734 16.9971C110.597 16.5641 110.495 16.0924 110.426 15.582V15.124C110.495 14.5817 110.597 14.0895 110.734 13.6475C110.875 13.2008 111.062 12.8158 111.295 12.4922C111.527 12.1641 111.81 11.9111 112.142 11.7334C112.48 11.5557 112.874 11.4668 113.325 11.4668C113.794 11.4668 114.207 11.5557 114.562 11.7334C114.922 11.9111 115.225 12.1663 115.471 12.499C115.717 12.8317 115.902 13.2282 116.025 13.6885C116.148 14.1488 116.21 14.6615 116.21 15.2266ZM114.398 15.3701V15.2266C114.398 14.8984 114.369 14.5954 114.309 14.3174C114.25 14.0348 114.159 13.7887 114.036 13.5791C113.913 13.3649 113.753 13.1986 113.557 13.0801C113.361 12.9616 113.124 12.9023 112.846 12.9023C112.568 12.9023 112.329 12.9479 112.129 13.0391C111.928 13.1302 111.764 13.2601 111.636 13.4287C111.509 13.5973 111.409 13.7979 111.336 14.0303C111.267 14.2581 111.222 14.5111 111.199 14.7891V15.9238C111.24 16.2611 111.32 16.5641 111.438 16.833C111.557 17.1019 111.73 17.3161 111.958 17.4756C112.19 17.6351 112.491 17.7148 112.86 17.7148C113.138 17.7148 113.375 17.6533 113.571 17.5303C113.767 17.4072 113.926 17.2386 114.05 17.0244C114.173 16.8057 114.261 16.555 114.316 16.2725C114.371 15.9899 114.398 15.6891 114.398 15.3701ZM122.272 9.04688H125.888C126.645 9.04688 127.294 9.16081 127.837 9.38867C128.379 9.61654 128.796 9.95378 129.088 10.4004C129.379 10.847 129.525 11.3962 129.525 12.0479C129.525 12.5628 129.434 13.0094 129.252 13.3877C129.069 13.766 128.812 14.0827 128.479 14.3379C128.151 14.5931 127.764 14.7936 127.317 14.9395L126.729 15.2402H123.537L123.523 13.7568H125.909C126.296 13.7568 126.617 13.6885 126.873 13.5518C127.128 13.415 127.319 13.2259 127.447 12.9844C127.579 12.7428 127.645 12.4671 127.645 12.1572C127.645 11.8245 127.581 11.5374 127.454 11.2959C127.326 11.0498 127.132 10.8607 126.873 10.7285C126.613 10.5964 126.285 10.5303 125.888 10.5303H124.152V19H122.272V9.04688ZM127.891 19L125.588 14.543L127.577 14.5361L129.908 18.9043V19H127.891ZM131.274 15.377V15.2334C131.274 14.6911 131.352 14.1921 131.507 13.7363C131.662 13.276 131.887 12.8773 132.184 12.54C132.48 12.2028 132.842 11.9408 133.271 11.7539C133.699 11.5625 134.187 11.4668 134.733 11.4668C135.289 11.4668 135.782 11.5625 136.21 11.7539C136.643 11.9408 137.008 12.2028 137.304 12.54C137.6 12.8773 137.826 13.276 137.981 13.7363C138.135 14.1921 138.213 14.6911 138.213 15.2334V15.377C138.213 15.9147 138.135 16.4137 137.981 16.874C137.826 17.3298 137.6 17.7285 137.304 18.0703C137.008 18.4076 136.645 18.6696 136.217 18.8564C135.788 19.0433 135.299 19.1367 134.747 19.1367C134.2 19.1367 133.71 19.0433 133.277 18.8564C132.844 18.6696 132.48 18.4076 132.184 18.0703C131.887 17.7285 131.662 17.3298 131.507 16.874C131.352 16.4137 131.274 15.9147 131.274 15.377ZM133.079 15.2334V15.377C133.079 15.7005 133.111 16.0036 133.175 16.2861C133.239 16.5687 133.337 16.8171 133.469 17.0312C133.601 17.2454 133.772 17.4141 133.981 17.5371C134.196 17.6556 134.451 17.7148 134.747 17.7148C135.039 17.7148 135.289 17.6556 135.499 17.5371C135.709 17.4141 135.88 17.2454 136.012 17.0312C136.148 16.8171 136.249 16.5687 136.313 16.2861C136.376 16.0036 136.408 15.7005 136.408 15.377V15.2334C136.408 14.9144 136.376 14.6159 136.313 14.3379C136.249 14.0553 136.148 13.807 136.012 13.5928C135.88 13.374 135.706 13.2031 135.492 13.0801C135.283 12.9525 135.03 12.8887 134.733 12.8887C134.442 12.8887 134.191 12.9525 133.981 13.0801C133.772 13.2031 133.601 13.374 133.469 13.5928C133.337 13.807 133.239 14.0553 133.175 14.3379C133.111 14.6159 133.079 14.9144 133.079 15.2334ZM141.999 8.5V19H140.188V8.5H141.999ZM146.196 8.5V19H144.385V8.5H146.196Z" fill="white"/>
<defs>
<linearGradient id="paint0_linear_326_28" x1="79" y1="0" x2="79" y2="28" gradientUnits="userSpaceOnUse">
<stop stop-color="#37B349"/>
<stop offset="1" stop-color="#0C8E46"/>
</linearGradient>
</defs>
</svg>
