<svg width="117" height="28" viewBox="0 0 117 28" fill="none" xmlns="http://www.w3.org/2000/svg">
<rect width="117" height="28" fill="url(#paint0_linear_326_35)"/>
<rect width="117" height="28" fill="black" fill-opacity="0.2"/>
<path d="M17.3076 13.1689V14.8438C17.3076 15.6094 17.2301 16.2633 17.0752 16.8057C16.9202 17.348 16.6969 17.7923 16.4053 18.1387C16.1136 18.4805 15.765 18.7334 15.3594 18.8975C14.9538 19.057 14.5026 19.1367 14.0059 19.1367C13.6094 19.1367 13.2402 19.0866 12.8984 18.9863C12.5566 18.8815 12.249 18.722 11.9756 18.5078C11.7067 18.2891 11.4743 18.0111 11.2783 17.6738C11.0869 17.3366 10.9388 16.9333 10.834 16.4639C10.7337 15.9945 10.6836 15.4544 10.6836 14.8438V13.1689C10.6836 12.4033 10.7611 11.7516 10.916 11.2139C11.0755 10.6761 11.3011 10.2363 11.5928 9.89453C11.8844 9.55273 12.2331 9.30436 12.6387 9.14941C13.0443 8.98991 13.4954 8.91016 13.9922 8.91016C14.3932 8.91016 14.7624 8.96029 15.0996 9.06055C15.4414 9.16081 15.7467 9.31803 16.0156 9.53223C16.2891 9.74186 16.5215 10.0153 16.7129 10.3525C16.9043 10.6852 17.0501 11.0863 17.1504 11.5557C17.2552 12.0205 17.3076 12.5583 17.3076 13.1689ZM15.5029 15.0898V12.916C15.5029 12.5332 15.4801 12.2005 15.4346 11.918C15.3936 11.6309 15.332 11.387 15.25 11.1865C15.168 10.986 15.0654 10.8242 14.9424 10.7012C14.8193 10.5736 14.6781 10.4801 14.5186 10.4209C14.359 10.3617 14.1836 10.332 13.9922 10.332C13.7552 10.332 13.5433 10.3799 13.3564 10.4756C13.1696 10.5667 13.0124 10.7126 12.8848 10.9131C12.7572 11.1136 12.6592 11.3802 12.5908 11.7129C12.527 12.041 12.4951 12.4421 12.4951 12.916V15.0898C12.4951 15.4727 12.5156 15.8076 12.5566 16.0947C12.6022 16.3818 12.666 16.6279 12.748 16.833C12.8346 17.0381 12.9372 17.2067 13.0557 17.3389C13.1787 17.4665 13.32 17.5622 13.4795 17.626C13.639 17.6852 13.8145 17.7148 14.0059 17.7148C14.2474 17.7148 14.4593 17.667 14.6416 17.5713C14.8285 17.4756 14.9857 17.3252 15.1133 17.1201C15.2409 16.9105 15.3366 16.6393 15.4004 16.3066C15.4688 15.9694 15.5029 15.5638 15.5029 15.0898ZM25.9614 9.04688V10.0312L22.0512 19H20.144L24.0541 10.4688H18.9955V9.04688H25.9614ZM28.0048 18.1182C28.0048 17.8447 28.0982 17.6146 28.285 17.4277C28.4719 17.2409 28.7248 17.1475 29.0438 17.1475C29.3628 17.1475 29.6158 17.2409 29.8026 17.4277C29.9895 17.6146 30.0829 17.8447 30.0829 18.1182C30.0829 18.387 29.9895 18.6149 29.8026 18.8018C29.6158 18.984 29.3628 19.0752 29.0438 19.0752C28.7248 19.0752 28.4719 18.984 28.285 18.8018C28.0982 18.6149 28.0048 18.387 28.0048 18.1182ZM37.8138 16.416C37.8138 16.2246 37.7842 16.0537 37.7249 15.9033C37.6702 15.7484 37.5677 15.6094 37.4173 15.4863C37.2715 15.3587 37.0641 15.2357 36.7952 15.1172C36.5309 14.9941 36.1891 14.8665 35.7698 14.7344C35.305 14.5885 34.8721 14.4245 34.471 14.2422C34.07 14.0599 33.7168 13.848 33.4114 13.6064C33.1107 13.3649 32.876 13.0869 32.7073 12.7725C32.5387 12.4535 32.4544 12.0843 32.4544 11.665C32.4544 11.2549 32.541 10.8812 32.7142 10.5439C32.8919 10.2067 33.1426 9.91732 33.4661 9.67578C33.7897 9.42969 34.1702 9.24056 34.6077 9.1084C35.0498 8.97624 35.5374 8.91016 36.0706 8.91016C36.8089 8.91016 37.4469 9.0446 37.9847 9.31348C38.527 9.58236 38.9463 9.94694 39.2425 10.4072C39.5387 10.8675 39.6868 11.3848 39.6868 11.959H37.8138C37.8138 11.6491 37.7477 11.3757 37.6155 11.1387C37.4879 10.9017 37.292 10.7148 37.0277 10.5781C36.7679 10.4414 36.4398 10.373 36.0433 10.373C35.6605 10.373 35.3415 10.43 35.0863 10.5439C34.8356 10.6579 34.6465 10.8128 34.5189 11.0088C34.3958 11.2048 34.3343 11.4235 34.3343 11.665C34.3343 11.8473 34.3776 12.0114 34.4642 12.1572C34.5508 12.2985 34.6807 12.4329 34.8538 12.5605C35.027 12.6836 35.2412 12.7998 35.4964 12.9092C35.7562 13.014 36.057 13.1188 36.3988 13.2236C36.9456 13.3877 37.4241 13.57 37.8343 13.7705C38.249 13.971 38.5931 14.1989 38.8665 14.4541C39.1445 14.7093 39.3519 14.9964 39.4886 15.3154C39.6299 15.6344 39.7005 15.9967 39.7005 16.4023C39.7005 16.8307 39.6162 17.2135 39.4476 17.5508C39.279 17.888 39.0374 18.1751 38.723 18.4121C38.4085 18.6491 38.0303 18.8291 37.5882 18.9521C37.1507 19.0752 36.6608 19.1367 36.1185 19.1367C35.6354 19.1367 35.1569 19.0729 34.6829 18.9453C34.2135 18.8132 33.7874 18.6172 33.4046 18.3574C33.0218 18.0931 32.7165 17.7604 32.4886 17.3594C32.2607 16.9538 32.1468 16.4798 32.1468 15.9375H34.0335C34.0335 16.252 34.0836 16.5208 34.1839 16.7441C34.2887 16.9629 34.4346 17.1429 34.6214 17.2842C34.8128 17.4209 35.0361 17.5212 35.2913 17.585C35.5465 17.6488 35.8223 17.6807 36.1185 17.6807C36.5013 17.6807 36.8157 17.6283 37.0618 17.5234C37.3125 17.4141 37.4993 17.2637 37.6224 17.0723C37.75 16.8809 37.8138 16.6621 37.8138 16.416ZM45.9754 17.2432V11.6035H47.7937V19H46.0847L45.9754 17.2432ZM46.2078 15.7119L46.7683 15.6982C46.7683 16.195 46.7136 16.653 46.6043 17.0723C46.4949 17.4915 46.324 17.8561 46.0916 18.166C45.8637 18.4714 45.5743 18.7106 45.2234 18.8838C44.8725 19.0524 44.4578 19.1367 43.9793 19.1367C43.6147 19.1367 43.282 19.0866 42.9812 18.9863C42.6804 18.8815 42.4207 18.7197 42.2019 18.501C41.9877 18.2777 41.8214 17.9928 41.7029 17.6465C41.5844 17.2956 41.5252 16.874 41.5252 16.3818V11.6035H43.3298V16.3955C43.3298 16.6416 43.3572 16.8467 43.4119 17.0107C43.4711 17.1748 43.5509 17.3092 43.6511 17.4141C43.756 17.5143 43.8767 17.5872 44.0134 17.6328C44.1547 17.6738 44.3051 17.6943 44.4646 17.6943C44.9021 17.6943 45.2462 17.6077 45.4968 17.4346C45.752 17.2568 45.9343 17.0199 46.0437 16.7236C46.1531 16.4229 46.2078 16.0856 46.2078 15.7119ZM53.4533 11.6035V12.9023H49.215V11.6035H53.4533ZM50.3498 9.78516H52.1613V16.8672C52.1613 17.0859 52.1909 17.2546 52.2502 17.373C52.3094 17.4915 52.3983 17.5713 52.5168 17.6123C52.6353 17.6533 52.7766 17.6738 52.9406 17.6738C53.0591 17.6738 53.1685 17.667 53.2687 17.6533C53.369 17.6396 53.4533 17.626 53.5217 17.6123L53.5285 18.9658C53.3781 19.016 53.2072 19.057 53.0158 19.0889C52.829 19.1208 52.6171 19.1367 52.3801 19.1367C51.9745 19.1367 51.619 19.0684 51.3137 18.9316C51.0083 18.7904 50.7714 18.5648 50.6027 18.2549C50.4341 17.9404 50.3498 17.5257 50.3498 17.0107V9.78516ZM57.1305 8.5V19H55.319V8.5H57.1305ZM61.3272 11.6035V19H59.5157V11.6035H61.3272ZM59.3927 9.66895C59.3927 9.40007 59.4838 9.17676 59.6661 8.99902C59.8529 8.82129 60.1036 8.73242 60.418 8.73242C60.7325 8.73242 60.9809 8.82129 61.1632 8.99902C61.35 9.17676 61.4434 9.40007 61.4434 9.66895C61.4434 9.93327 61.35 10.1543 61.1632 10.332C60.9809 10.5098 60.7325 10.5986 60.418 10.5986C60.1036 10.5986 59.8529 10.5098 59.6661 10.332C59.4838 10.1543 59.3927 9.93327 59.3927 9.66895ZM71.7236 9.04688V19H69.8505V9.04688H71.7236ZM74.8134 9.04688V10.5303H66.7949V9.04688H74.8134ZM78.1898 17.2227L79.81 11.6035H80.9584L80.6166 13.5449L78.9828 19H77.9916L78.1898 17.2227ZM77.2943 11.6035L78.5111 17.2363L78.6205 19H77.4789L75.5375 11.6035H77.2943ZM82.4623 17.1543L83.6518 11.6035H85.4018L83.474 19H82.3324L82.4623 17.1543ZM81.1361 11.6035L82.7426 17.168L82.9545 19H81.9633L80.3158 13.5449L79.9809 11.6035H81.1361ZM88.9422 11.6035V19H87.1307V11.6035H88.9422ZM87.0077 9.66895C87.0077 9.40007 87.0988 9.17676 87.2811 8.99902C87.4679 8.82129 87.7186 8.73242 88.0331 8.73242C88.3475 8.73242 88.5959 8.82129 88.7782 8.99902C88.965 9.17676 89.0584 9.40007 89.0584 9.66895C89.0584 9.93327 88.965 10.1543 88.7782 10.332C88.5959 10.5098 88.3475 10.5986 88.0331 10.5986C87.7186 10.5986 87.4679 10.5098 87.2811 10.332C87.0988 10.1543 87.0077 9.93327 87.0077 9.66895ZM92.9954 13.1826V19H91.1907V11.6035H92.886L92.9954 13.1826ZM92.7083 15.0352H92.1751C92.1796 14.4974 92.2526 14.0098 92.3938 13.5723C92.5351 13.1348 92.7333 12.7588 92.9886 12.4443C93.2483 12.1299 93.5559 11.8883 93.9114 11.7197C94.2669 11.5511 94.6634 11.4668 95.1009 11.4668C95.4563 11.4668 95.7776 11.5169 96.0647 11.6172C96.3518 11.7174 96.5979 11.877 96.803 12.0957C97.0126 12.3145 97.1721 12.6016 97.2815 12.957C97.3955 13.3079 97.4524 13.7409 97.4524 14.2559V19H95.6341V14.2422C95.6341 13.9049 95.5839 13.6383 95.4837 13.4424C95.388 13.2464 95.2467 13.1074 95.0598 13.0254C94.8776 12.9434 94.652 12.9023 94.3831 12.9023C94.1051 12.9023 93.8613 12.9593 93.6516 13.0732C93.4466 13.1826 93.2734 13.3353 93.1321 13.5312C92.9954 13.7272 92.8906 13.9528 92.8177 14.208C92.7447 14.4632 92.7083 14.7389 92.7083 15.0352ZM102.927 19.1367C102.367 19.1367 101.863 19.0456 101.417 18.8633C100.97 18.681 100.59 18.4281 100.275 18.1045C99.9652 17.7764 99.726 17.3958 99.5573 16.9629C99.3933 16.5254 99.3112 16.056 99.3112 15.5547V15.2812C99.3112 14.7116 99.3933 14.1943 99.5573 13.7295C99.7214 13.2601 99.9538 12.8568 100.255 12.5195C100.555 12.1823 100.915 11.9225 101.335 11.7402C101.754 11.5579 102.217 11.4668 102.722 11.4668C103.246 11.4668 103.709 11.5557 104.11 11.7334C104.511 11.9066 104.846 12.1527 105.115 12.4717C105.384 12.7907 105.587 13.1735 105.723 13.6201C105.86 14.0622 105.928 14.5521 105.928 15.0898V15.8486H100.132V14.6045H104.151V14.4678C104.142 14.1807 104.087 13.9186 103.987 13.6816C103.887 13.4401 103.732 13.2487 103.522 13.1074C103.313 12.9616 103.041 12.8887 102.709 12.8887C102.44 12.8887 102.205 12.9479 102.005 13.0664C101.809 13.1803 101.645 13.3444 101.512 13.5586C101.385 13.7682 101.289 14.0189 101.225 14.3105C101.162 14.6022 101.13 14.9258 101.13 15.2812V15.5547C101.13 15.8646 101.171 16.1517 101.253 16.416C101.339 16.6803 101.465 16.9105 101.629 17.1064C101.797 17.2979 101.998 17.4482 102.23 17.5576C102.467 17.6624 102.736 17.7148 103.037 17.7148C103.415 17.7148 103.757 17.6419 104.062 17.4961C104.372 17.3457 104.641 17.1247 104.869 16.833L105.778 17.7764C105.623 18.0042 105.413 18.223 105.149 18.4326C104.889 18.6423 104.575 18.8132 104.206 18.9453C103.837 19.0729 103.411 19.1367 102.927 19.1367Z" fill="white"/>
<defs>
<linearGradient id="paint0_linear_326_35" x1="58.5" y1="0" x2="58.5" y2="28" gradientUnits="userSpaceOnUse">
<stop stop-color="#37B349"/>
<stop offset="1" stop-color="#0C8E46"/>
</linearGradient>
</defs>
</svg>
