<svg width="43" height="22" viewBox="0 0 43 22" fill="none" xmlns="http://www.w3.org/2000/svg">
<path d="M19.36 16.1C18.8067 16.1 18.3067 15.96 17.86 15.68C17.42 15.4 17.0733 14.9933 16.82 14.46C16.5667 13.92 16.44 13.2667 16.44 12.5C16.44 11.7333 16.5667 11.0833 16.82 10.55C17.0733 10.01 17.42 9.6 17.86 9.32C18.3067 9.04 18.8067 8.9 19.36 8.9C19.92 8.9 20.42 9.04 20.86 9.32C21.3 9.6 21.6467 10.01 21.9 10.55C22.16 11.0833 22.29 11.7333 22.29 12.5C22.29 13.2667 22.16 13.92 21.9 14.46C21.6467 14.9933 21.3 15.4 20.86 15.68C20.42 15.96 19.92 16.1 19.36 16.1ZM19.36 14.97C19.6867 14.97 19.97 14.8833 20.21 14.71C20.45 14.53 20.6367 14.2567 20.77 13.89C20.91 13.5233 20.98 13.06 20.98 12.5C20.98 11.9333 20.91 11.47 20.77 11.11C20.6367 10.7433 20.45 10.4733 20.21 10.3C19.97 10.12 19.6867 10.03 19.36 10.03C19.0467 10.03 18.7667 10.12 18.52 10.3C18.28 10.4733 18.09 10.7433 17.95 11.11C17.8167 11.47 17.75 11.9333 17.75 12.5C17.75 13.06 17.8167 13.5233 17.95 13.89C18.09 14.2567 18.28 14.53 18.52 14.71C18.7667 14.8833 19.0467 14.97 19.36 14.97ZM23.0688 16V15.13L25.8488 12.49C26.0821 12.27 26.2554 12.0767 26.3688 11.91C26.4821 11.7433 26.5554 11.59 26.5888 11.45C26.6288 11.3033 26.6488 11.1667 26.6488 11.04C26.6488 10.72 26.5388 10.4733 26.3188 10.3C26.0988 10.12 25.7754 10.03 25.3488 10.03C25.0088 10.03 24.6988 10.09 24.4188 10.21C24.1454 10.33 23.9088 10.5133 23.7088 10.76L22.7988 10.06C23.0721 9.69333 23.4388 9.41 23.8988 9.21C24.3654 9.00333 24.8854 8.9 25.4588 8.9C25.9654 8.9 26.4054 8.98333 26.7788 9.15C27.1588 9.31 27.4488 9.54 27.6488 9.84C27.8554 10.14 27.9588 10.4967 27.9588 10.91C27.9588 11.1367 27.9288 11.3633 27.8688 11.59C27.8088 11.81 27.6954 12.0433 27.5288 12.29C27.3621 12.5367 27.1188 12.8133 26.7988 13.12L24.4088 15.39L24.1388 14.9H28.2287V16H23.0688Z" fill="black"/>
<path fill-rule="evenodd" clip-rule="evenodd" d="M41.1569 12.711L35.4999 18.368L34.0859 16.954L39.0359 12.004L34.0859 7.05401L35.4999 5.64001L41.1569 11.297C41.3444 11.4845 41.4497 11.7389 41.4497 12.004C41.4497 12.2692 41.3444 12.5235 41.1569 12.711Z" fill="#E2E3E3"/>
<path fill-rule="evenodd" clip-rule="evenodd" d="M1.84306 12.711L7.50006 18.368L8.91406 16.954L3.96406 12.004L8.91406 7.05401L7.50006 5.64001L1.84306 11.297C1.65559 11.4845 1.55028 11.7389 1.55028 12.004C1.55028 12.2692 1.65559 12.5235 1.84306 12.711Z" fill="#E2E3E3"/>
</svg>
