<svg width="125" height="28" viewBox="0 0 125 28" fill="none" xmlns="http://www.w3.org/2000/svg">
<rect width="125" height="28" fill="url(#paint0_linear_326_41)"/>
<rect width="125" height="28" fill="black" fill-opacity="0.2"/>
<path d="M17.3076 13.1689V14.8438C17.3076 15.6094 17.2301 16.2633 17.0752 16.8057C16.9202 17.348 16.6969 17.7923 16.4053 18.1387C16.1136 18.4805 15.765 18.7334 15.3594 18.8975C14.9538 19.057 14.5026 19.1367 14.0059 19.1367C13.6094 19.1367 13.2402 19.0866 12.8984 18.9863C12.5566 18.8815 12.249 18.722 11.9756 18.5078C11.7067 18.2891 11.4743 18.0111 11.2783 17.6738C11.0869 17.3366 10.9388 16.9333 10.834 16.4639C10.7337 15.9945 10.6836 15.4544 10.6836 14.8438V13.1689C10.6836 12.4033 10.7611 11.7516 10.916 11.2139C11.0755 10.6761 11.3011 10.2363 11.5928 9.89453C11.8844 9.55273 12.2331 9.30436 12.6387 9.14941C13.0443 8.98991 13.4954 8.91016 13.9922 8.91016C14.3932 8.91016 14.7624 8.96029 15.0996 9.06055C15.4414 9.16081 15.7467 9.31803 16.0156 9.53223C16.2891 9.74186 16.5215 10.0153 16.7129 10.3525C16.9043 10.6852 17.0501 11.0863 17.1504 11.5557C17.2552 12.0205 17.3076 12.5583 17.3076 13.1689ZM15.5029 15.0898V12.916C15.5029 12.5332 15.4801 12.2005 15.4346 11.918C15.3936 11.6309 15.332 11.387 15.25 11.1865C15.168 10.986 15.0654 10.8242 14.9424 10.7012C14.8193 10.5736 14.6781 10.4801 14.5186 10.4209C14.359 10.3617 14.1836 10.332 13.9922 10.332C13.7552 10.332 13.5433 10.3799 13.3564 10.4756C13.1696 10.5667 13.0124 10.7126 12.8848 10.9131C12.7572 11.1136 12.6592 11.3802 12.5908 11.7129C12.527 12.041 12.4951 12.4421 12.4951 12.916V15.0898C12.4951 15.4727 12.5156 15.8076 12.5566 16.0947C12.6022 16.3818 12.666 16.6279 12.748 16.833C12.8346 17.0381 12.9372 17.2067 13.0557 17.3389C13.1787 17.4665 13.32 17.5622 13.4795 17.626C13.639 17.6852 13.8145 17.7148 14.0059 17.7148C14.2474 17.7148 14.4593 17.667 14.6416 17.5713C14.8285 17.4756 14.9857 17.3252 15.1133 17.1201C15.2409 16.9105 15.3366 16.6393 15.4004 16.3066C15.4688 15.9694 15.5029 15.5638 15.5029 15.0898ZM26.187 15.3701V16.792H19.0161L18.9409 15.6982L23.1586 9.04688H24.601L23.0424 11.6924L20.7797 15.3701H26.187ZM25.0043 9.04688V19H23.1928V9.04688H25.0043ZM28.0048 18.1182C28.0048 17.8447 28.0982 17.6146 28.285 17.4277C28.4719 17.2409 28.7248 17.1475 29.0438 17.1475C29.3628 17.1475 29.6158 17.2409 29.8026 17.4277C29.9895 17.6146 30.0829 17.8447 30.0829 18.1182C30.0829 18.387 29.9895 18.6149 29.8026 18.8018C29.6158 18.984 29.3628 19.0752 29.0438 19.0752C28.7248 19.0752 28.4719 18.984 28.285 18.8018C28.0982 18.6149 28.0048 18.387 28.0048 18.1182ZM36.4193 14.5635H33.8763L33.8626 13.2373H36.0433C36.417 13.2373 36.7292 13.1849 36.9798 13.0801C37.2305 12.9753 37.4196 12.8226 37.5472 12.6221C37.6793 12.4215 37.7454 12.1777 37.7454 11.8906C37.7454 11.5716 37.6839 11.3118 37.5609 11.1113C37.4424 10.9108 37.2555 10.765 37.0003 10.6738C36.7451 10.5781 36.4215 10.5303 36.0296 10.5303H34.4847V19H32.6048V9.04688H36.0296C36.5947 9.04688 37.0983 9.10156 37.5404 9.21094C37.987 9.31576 38.3652 9.47982 38.6751 9.70312C38.985 9.92643 39.2197 10.2067 39.3792 10.5439C39.5433 10.8812 39.6253 11.2822 39.6253 11.7471C39.6253 12.1572 39.5296 12.5355 39.3382 12.8818C39.1514 13.2236 38.862 13.5016 38.47 13.7158C38.0827 13.93 37.5905 14.0531 36.9935 14.085L36.4193 14.5635ZM36.3372 19H33.3226L34.1087 17.5234H36.3372C36.7109 17.5234 37.0185 17.4619 37.2601 17.3389C37.5062 17.2158 37.6885 17.0472 37.807 16.833C37.93 16.6143 37.9915 16.3636 37.9915 16.0811C37.9915 15.7712 37.9368 15.5023 37.8275 15.2744C37.7226 15.0465 37.554 14.8711 37.3216 14.748C37.0937 14.625 36.793 14.5635 36.4193 14.5635H34.4642L34.4779 13.2373H36.9661L37.3968 13.75C37.971 13.7546 38.4381 13.8685 38.7982 14.0918C39.1627 14.3151 39.4316 14.6022 39.6048 14.9531C39.778 15.304 39.8646 15.6823 39.8646 16.0879C39.8646 16.7259 39.7256 17.2614 39.4476 17.6943C39.1741 18.1273 38.7731 18.4531 38.2445 18.6719C37.7204 18.8906 37.0846 19 36.3372 19ZM50.1111 13.7705V14.2832C50.1111 15.0352 50.0108 15.7119 49.8103 16.3135C49.6098 16.9105 49.325 17.4186 48.9558 17.8379C48.5867 18.2572 48.1469 18.5785 47.6365 18.8018C47.1261 19.0251 46.5587 19.1367 45.9343 19.1367C45.3191 19.1367 44.754 19.0251 44.239 18.8018C43.7286 18.5785 43.2865 18.2572 42.9129 17.8379C42.5392 17.4186 42.2498 16.9105 42.0447 16.3135C41.8396 15.7119 41.7371 15.0352 41.7371 14.2832V13.7705C41.7371 13.014 41.8396 12.3372 42.0447 11.7402C42.2498 11.1432 42.5369 10.6351 42.906 10.2158C43.2752 9.79199 43.7149 9.46842 44.2254 9.24512C44.7403 9.02181 45.3054 8.91016 45.9207 8.91016C46.545 8.91016 47.1124 9.02181 47.6228 9.24512C48.1332 9.46842 48.573 9.79199 48.9421 10.2158C49.3158 10.6351 49.603 11.1432 49.8035 11.7402C50.0086 12.3372 50.1111 13.014 50.1111 13.7705ZM48.2107 14.2832V13.7568C48.2107 13.2145 48.1606 12.7383 48.0603 12.3281C47.9601 11.9134 47.8119 11.5648 47.616 11.2822C47.42 10.9997 47.1785 10.7878 46.8914 10.6465C46.6043 10.5007 46.2807 10.4277 45.9207 10.4277C45.5561 10.4277 45.2325 10.5007 44.95 10.6465C44.672 10.7878 44.435 10.9997 44.239 11.2822C44.0431 11.5648 43.8927 11.9134 43.7879 12.3281C43.6876 12.7383 43.6375 13.2145 43.6375 13.7568V14.2832C43.6375 14.821 43.6876 15.2972 43.7879 15.7119C43.8927 16.1266 44.0431 16.4775 44.239 16.7646C44.4395 17.0472 44.6811 17.2614 44.9636 17.4072C45.2462 17.5531 45.5698 17.626 45.9343 17.626C46.2989 17.626 46.6225 17.5531 46.905 17.4072C47.1876 17.2614 47.4246 17.0472 47.616 16.7646C47.8119 16.4775 47.9601 16.1266 48.0603 15.7119C48.1606 15.2972 48.2107 14.821 48.2107 14.2832ZM56.092 15.3701H53.5285V13.8936H56.092C56.5113 13.8936 56.8508 13.8252 57.1105 13.6885C57.3749 13.5472 57.5686 13.3558 57.6916 13.1143C57.8146 12.8682 57.8762 12.5879 57.8762 12.2734C57.8762 11.9681 57.8146 11.6833 57.6916 11.4189C57.5686 11.1546 57.3749 10.9404 57.1105 10.7764C56.8508 10.6123 56.5113 10.5303 56.092 10.5303H54.1437V19H52.2639V9.04688H56.092C56.8667 9.04688 57.5275 9.18587 58.0744 9.46387C58.6258 9.7373 59.0451 10.1178 59.3322 10.6055C59.6239 11.0885 59.7697 11.64 59.7697 12.2598C59.7697 12.9023 59.6239 13.4561 59.3322 13.9209C59.0451 14.3857 58.6258 14.7435 58.0744 14.9941C57.5275 15.2448 56.8667 15.3701 56.092 15.3701ZM65.6344 15.3701H63.0709V13.8936H65.6344C66.0537 13.8936 66.3932 13.8252 66.653 13.6885C66.9173 13.5472 67.111 13.3558 67.234 13.1143C67.3571 12.8682 67.4186 12.5879 67.4186 12.2734C67.4186 11.9681 67.3571 11.6833 67.234 11.4189C67.111 11.1546 66.9173 10.9404 66.653 10.7764C66.3932 10.6123 66.0537 10.5303 65.6344 10.5303H63.6862V19H61.8063V9.04688H65.6344C66.4092 9.04688 67.07 9.18587 67.6168 9.46387C68.1683 9.7373 68.5875 10.1178 68.8746 10.6055C69.1663 11.0885 69.3121 11.64 69.3121 12.2598C69.3121 12.9023 69.1663 13.4561 68.8746 13.9209C68.5875 14.3857 68.1683 14.7435 67.6168 14.9941C67.07 15.2448 66.4092 15.3701 65.6344 15.3701ZM79.3257 9.04688V19H77.4527V9.04688H79.3257ZM82.4156 9.04688V10.5303H74.397V9.04688H82.4156ZM87.1933 17.4277V14.0166C87.1933 13.766 87.15 13.5495 87.0634 13.3672C86.9768 13.1849 86.8447 13.0436 86.667 12.9434C86.4892 12.8431 86.2636 12.793 85.9902 12.793C85.7487 12.793 85.5367 12.834 85.3545 12.916C85.1767 12.998 85.04 13.1143 84.9443 13.2646C84.8486 13.4105 84.8007 13.5791 84.8007 13.7705H82.9892C82.9892 13.4652 83.0621 13.1758 83.208 12.9023C83.3538 12.6243 83.5612 12.3783 83.83 12.1641C84.1035 11.9453 84.4293 11.7744 84.8076 11.6514C85.1904 11.5283 85.6188 11.4668 86.0927 11.4668C86.6533 11.4668 87.1523 11.5625 87.5898 11.7539C88.0319 11.9408 88.3782 12.2233 88.6289 12.6016C88.8841 12.9798 89.0117 13.4561 89.0117 14.0303V17.2568C89.0117 17.626 89.0345 17.9427 89.08 18.207C89.1302 18.4668 89.2031 18.6924 89.2988 18.8838V19H87.4599C87.3733 18.8132 87.3073 18.5762 87.2617 18.2891C87.2161 17.9974 87.1933 17.7103 87.1933 17.4277ZM87.4463 14.4951L87.4599 15.5684H86.3183C86.0358 15.5684 85.7874 15.598 85.5732 15.6572C85.359 15.7119 85.1836 15.7939 85.0468 15.9033C84.9101 16.0081 84.8076 16.1357 84.7392 16.2861C84.6709 16.432 84.6367 16.5983 84.6367 16.7852C84.6367 16.9674 84.6777 17.1315 84.7597 17.2773C84.8463 17.4232 84.9694 17.5394 85.1289 17.626C85.2929 17.708 85.4843 17.749 85.7031 17.749C86.0221 17.749 86.3001 17.6852 86.5371 17.5576C86.7741 17.4255 86.9586 17.266 87.0908 17.0791C87.2229 16.8923 87.2936 16.7145 87.3027 16.5459L87.8222 17.3252C87.7584 17.512 87.6627 17.7103 87.5351 17.9199C87.4075 18.1296 87.2435 18.3255 87.0429 18.5078C86.8424 18.6901 86.6009 18.8405 86.3183 18.959C86.0358 19.0775 85.7076 19.1367 85.3339 19.1367C84.8554 19.1367 84.427 19.041 84.0488 18.8496C83.6705 18.6582 83.372 18.3962 83.1533 18.0635C82.9345 17.7308 82.8252 17.3525 82.8252 16.9287C82.8252 16.5368 82.8981 16.1904 83.0439 15.8896C83.1897 15.5889 83.4062 15.3359 83.6933 15.1309C83.9804 14.9212 84.3359 14.764 84.7597 14.6592C85.1881 14.5498 85.678 14.4951 86.2295 14.4951H87.4463ZM93.0033 13.0254V21.8438H91.1918V11.6035H92.8666L93.0033 13.0254ZM97.7543 15.2266V15.3701C97.7543 15.9079 97.6905 16.4069 97.5629 16.8672C97.4398 17.3229 97.2576 17.7217 97.016 18.0635C96.7745 18.4007 96.4737 18.665 96.1137 18.8564C95.7582 19.0433 95.348 19.1367 94.8832 19.1367C94.4275 19.1367 94.031 19.0501 93.6937 18.877C93.3565 18.6992 93.0717 18.4486 92.8393 18.125C92.6068 17.8014 92.42 17.4255 92.2787 16.9971C92.142 16.5641 92.0395 16.0924 91.9711 15.582V15.124C92.0395 14.5817 92.142 14.0895 92.2787 13.6475C92.42 13.2008 92.6068 12.8158 92.8393 12.4922C93.0717 12.1641 93.3542 11.9111 93.6869 11.7334C94.0242 11.5557 94.4184 11.4668 94.8695 11.4668C95.3389 11.4668 95.7514 11.5557 96.1068 11.7334C96.4669 11.9111 96.7699 12.1663 97.016 12.499C97.2621 12.8317 97.4467 13.2282 97.5697 13.6885C97.6928 14.1488 97.7543 14.6615 97.7543 15.2266ZM95.9428 15.3701V15.2266C95.9428 14.8984 95.9131 14.5954 95.8539 14.3174C95.7947 14.0348 95.7035 13.7887 95.5805 13.5791C95.4574 13.3649 95.2979 13.1986 95.102 13.0801C94.906 12.9616 94.669 12.9023 94.391 12.9023C94.113 12.9023 93.8738 12.9479 93.6732 13.0391C93.4727 13.1302 93.3087 13.2601 93.1811 13.4287C93.0534 13.5973 92.9532 13.7979 92.8803 14.0303C92.8119 14.2581 92.7663 14.5111 92.7436 14.7891V15.9238C92.7846 16.2611 92.8643 16.5641 92.9828 16.833C93.1013 17.1019 93.2745 17.3161 93.5023 17.4756C93.7348 17.6351 94.0355 17.7148 94.4047 17.7148C94.6827 17.7148 94.9197 17.6533 95.1156 17.5303C95.3116 17.4072 95.4711 17.2386 95.5941 17.0244C95.7172 16.8057 95.8061 16.555 95.8607 16.2725C95.9154 15.9899 95.9428 15.6891 95.9428 15.3701ZM102.956 19.1367C102.395 19.1367 101.892 19.0456 101.445 18.8633C100.999 18.681 100.618 18.4281 100.304 18.1045C99.9937 17.7764 99.7544 17.3958 99.5858 16.9629C99.4217 16.5254 99.3397 16.056 99.3397 15.5547V15.2812C99.3397 14.7116 99.4217 14.1943 99.5858 13.7295C99.7498 13.2601 99.9823 12.8568 100.283 12.5195C100.584 12.1823 100.944 11.9225 101.363 11.7402C101.782 11.5579 102.245 11.4668 102.751 11.4668C103.275 11.4668 103.737 11.5557 104.139 11.7334C104.54 11.9066 104.875 12.1527 105.143 12.4717C105.412 12.7907 105.615 13.1735 105.752 13.6201C105.889 14.0622 105.957 14.5521 105.957 15.0898V15.8486H100.16V14.6045H104.18V14.4678C104.17 14.1807 104.116 13.9186 104.015 13.6816C103.915 13.4401 103.76 13.2487 103.551 13.1074C103.341 12.9616 103.07 12.8887 102.737 12.8887C102.468 12.8887 102.234 12.9479 102.033 13.0664C101.837 13.1803 101.673 13.3444 101.541 13.5586C101.413 13.7682 101.318 14.0189 101.254 14.3105C101.19 14.6022 101.158 14.9258 101.158 15.2812V15.5547C101.158 15.8646 101.199 16.1517 101.281 16.416C101.368 16.6803 101.493 16.9105 101.657 17.1064C101.826 17.2979 102.026 17.4482 102.259 17.5576C102.496 17.6624 102.764 17.7148 103.065 17.7148C103.444 17.7148 103.785 17.6419 104.091 17.4961C104.401 17.3457 104.669 17.1247 104.897 16.833L105.806 17.7764C105.652 18.0042 105.442 18.223 105.178 18.4326C104.918 18.6423 104.603 18.8132 104.234 18.9453C103.865 19.0729 103.439 19.1367 102.956 19.1367ZM111.794 16.9766C111.794 16.8216 111.753 16.6826 111.671 16.5596C111.589 16.4365 111.434 16.3249 111.206 16.2246C110.983 16.1198 110.655 16.0218 110.222 15.9307C109.839 15.8486 109.486 15.7461 109.162 15.623C108.839 15.5 108.561 15.3519 108.328 15.1787C108.096 15.001 107.914 14.7936 107.782 14.5566C107.654 14.3151 107.59 14.0371 107.59 13.7227C107.59 13.4173 107.656 13.1302 107.788 12.8613C107.921 12.5879 108.112 12.3486 108.363 12.1436C108.613 11.9339 108.919 11.7699 109.279 11.6514C109.639 11.5283 110.044 11.4668 110.495 11.4668C111.124 11.4668 111.664 11.5693 112.116 11.7744C112.571 11.9795 112.92 12.262 113.161 12.6221C113.403 12.9775 113.524 13.3786 113.524 13.8252H111.719C111.719 13.6292 111.673 13.4515 111.582 13.292C111.496 13.1325 111.361 13.0049 111.179 12.9092C110.997 12.8089 110.767 12.7588 110.489 12.7588C110.238 12.7588 110.026 12.7998 109.853 12.8818C109.684 12.9639 109.557 13.071 109.47 13.2031C109.383 13.3353 109.34 13.4811 109.34 13.6406C109.34 13.7591 109.363 13.8662 109.408 13.9619C109.459 14.0531 109.538 14.1374 109.648 14.2148C109.757 14.2923 109.905 14.363 110.092 14.4268C110.283 14.4906 110.518 14.5521 110.796 14.6113C111.348 14.7207 111.828 14.8665 112.239 15.0488C112.653 15.2266 112.977 15.4635 113.209 15.7598C113.442 16.056 113.558 16.4342 113.558 16.8945C113.558 17.2227 113.487 17.5234 113.346 17.7969C113.205 18.0658 113 18.3005 112.731 18.501C112.462 18.7015 112.141 18.8587 111.767 18.9727C111.393 19.082 110.972 19.1367 110.502 19.1367C109.823 19.1367 109.249 19.016 108.78 18.7744C108.31 18.5283 107.955 18.2184 107.713 17.8447C107.472 17.4665 107.351 17.0745 107.351 16.6689H109.08C109.094 16.9561 109.171 17.1862 109.313 17.3594C109.454 17.5326 109.632 17.6579 109.846 17.7354C110.065 17.8083 110.295 17.8447 110.536 17.8447C110.81 17.8447 111.04 17.8083 111.227 17.7354C111.414 17.6579 111.555 17.5553 111.651 17.4277C111.746 17.2956 111.794 17.1452 111.794 16.9766Z" fill="white"/>
<defs>
<linearGradient id="paint0_linear_326_41" x1="62.5" y1="0" x2="62.5" y2="28" gradientUnits="userSpaceOnUse">
<stop stop-color="#37B349"/>
<stop offset="1" stop-color="#0C8E46"/>
</linearGradient>
</defs>
</svg>
