<svg width="308" height="28" viewBox="0 0 308 28" fill="none" xmlns="http://www.w3.org/2000/svg">
<rect width="308" height="28" fill="url(#paint0_linear_326_48)"/>
<rect width="308" height="28" fill="black" fill-opacity="0.2"/>
<path d="M17.3076 13.1689V14.8438C17.3076 15.6094 17.2301 16.2633 17.0752 16.8057C16.9202 17.348 16.6969 17.7923 16.4053 18.1387C16.1136 18.4805 15.765 18.7334 15.3594 18.8975C14.9538 19.057 14.5026 19.1367 14.0059 19.1367C13.6094 19.1367 13.2402 19.0866 12.8984 18.9863C12.5566 18.8815 12.249 18.722 11.9756 18.5078C11.7067 18.2891 11.4743 18.0111 11.2783 17.6738C11.0869 17.3366 10.9388 16.9333 10.834 16.4639C10.7337 15.9945 10.6836 15.4544 10.6836 14.8438V13.1689C10.6836 12.4033 10.7611 11.7516 10.916 11.2139C11.0755 10.6761 11.3011 10.2363 11.5928 9.89453C11.8844 9.55273 12.2331 9.30436 12.6387 9.14941C13.0443 8.98991 13.4954 8.91016 13.9922 8.91016C14.3932 8.91016 14.7624 8.96029 15.0996 9.06055C15.4414 9.16081 15.7467 9.31803 16.0156 9.53223C16.2891 9.74186 16.5215 10.0153 16.7129 10.3525C16.9043 10.6852 17.0501 11.0863 17.1504 11.5557C17.2552 12.0205 17.3076 12.5583 17.3076 13.1689ZM15.5029 15.0898V12.916C15.5029 12.5332 15.4801 12.2005 15.4346 11.918C15.3936 11.6309 15.332 11.387 15.25 11.1865C15.168 10.986 15.0654 10.8242 14.9424 10.7012C14.8193 10.5736 14.6781 10.4801 14.5186 10.4209C14.359 10.3617 14.1836 10.332 13.9922 10.332C13.7552 10.332 13.5433 10.3799 13.3564 10.4756C13.1696 10.5667 13.0124 10.7126 12.8848 10.9131C12.7572 11.1136 12.6592 11.3802 12.5908 11.7129C12.527 12.041 12.4951 12.4421 12.4951 12.916V15.0898C12.4951 15.4727 12.5156 15.8076 12.5566 16.0947C12.6022 16.3818 12.666 16.6279 12.748 16.833C12.8346 17.0381 12.9372 17.2067 13.0557 17.3389C13.1787 17.4665 13.32 17.5622 13.4795 17.626C13.639 17.6852 13.8145 17.7148 14.0059 17.7148C14.2474 17.7148 14.4593 17.667 14.6416 17.5713C14.8285 17.4756 14.9857 17.3252 15.1133 17.1201C15.2409 16.9105 15.3366 16.6393 15.4004 16.3066C15.4688 15.9694 15.5029 15.5638 15.5029 15.0898ZM21.0668 14.4199L19.6245 14.0713L20.1782 9.04688H25.6538V10.5439H21.6752L21.4155 12.8682C21.5567 12.7816 21.7618 12.695 22.0307 12.6084C22.3041 12.5173 22.6118 12.4717 22.9536 12.4717C23.4275 12.4717 23.8513 12.5492 24.225 12.7041C24.5987 12.8545 24.9155 13.0732 25.1752 13.3604C25.4396 13.6475 25.6378 13.9984 25.77 14.4131C25.9067 14.8232 25.975 15.2881 25.975 15.8076C25.975 16.2633 25.9067 16.6917 25.77 17.0928C25.6378 17.4893 25.435 17.8424 25.1616 18.1523C24.8881 18.4577 24.544 18.6992 24.1293 18.877C23.7146 19.0501 23.227 19.1367 22.6664 19.1367C22.2426 19.1367 21.8347 19.0752 21.4428 18.9521C21.0554 18.8245 20.7068 18.64 20.3969 18.3984C20.087 18.1523 19.8386 17.8516 19.6518 17.4961C19.4695 17.1406 19.3692 16.7327 19.351 16.2725H21.1352C21.1671 16.5778 21.2491 16.8376 21.3813 17.0518C21.5135 17.266 21.6866 17.43 21.9008 17.5439C22.1196 17.6579 22.3725 17.7148 22.6596 17.7148C22.9194 17.7148 23.1427 17.667 23.3295 17.5713C23.5209 17.471 23.6782 17.332 23.8012 17.1543C23.9243 16.9766 24.0154 16.7669 24.0746 16.5254C24.1339 16.2839 24.1635 16.0195 24.1635 15.7324C24.1635 15.4544 24.1293 15.2015 24.061 14.9736C23.9926 14.7412 23.8878 14.5407 23.7465 14.3721C23.6052 14.2035 23.4275 14.0736 23.2133 13.9824C23.0037 13.8913 22.7576 13.8457 22.475 13.8457C22.0968 13.8457 21.8051 13.9027 21.6 14.0166C21.3995 14.1305 21.2218 14.265 21.0668 14.4199ZM28.0048 18.1182C28.0048 17.8447 28.0982 17.6146 28.285 17.4277C28.4719 17.2409 28.7248 17.1475 29.0438 17.1475C29.3628 17.1475 29.6158 17.2409 29.8026 17.4277C29.9895 17.6146 30.0829 17.8447 30.0829 18.1182C30.0829 18.387 29.9895 18.6149 29.8026 18.8018C29.6158 18.984 29.3628 19.0752 29.0438 19.0752C28.7248 19.0752 28.4719 18.984 28.285 18.8018C28.0982 18.6149 28.0048 18.387 28.0048 18.1182ZM34.4847 9.04688V19H32.6048V9.04688H34.4847ZM38.4974 13.3467V14.8301H33.9925V13.3467H38.4974ZM39.0238 9.04688V10.5303H33.9925V9.04688H39.0238ZM42.3523 13.1143V19H40.5476V11.6035H42.2566L42.3523 13.1143ZM44.6013 11.5557L44.574 13.2373C44.4737 13.2191 44.3598 13.2054 44.2322 13.1963C44.1091 13.1872 43.9929 13.1826 43.8836 13.1826C43.6056 13.1826 43.3617 13.2214 43.1521 13.2988C42.9425 13.3717 42.767 13.4788 42.6257 13.6201C42.489 13.7614 42.3842 13.9346 42.3113 14.1396C42.2384 14.3402 42.1974 14.568 42.1882 14.8232L41.7986 14.7754C41.7986 14.306 41.8464 13.8708 41.9421 13.4697C42.0379 13.0687 42.1768 12.7178 42.3591 12.417C42.5414 12.1162 42.7693 11.8838 43.0427 11.7197C43.3207 11.5511 43.6397 11.4668 43.9998 11.4668C44.1 11.4668 44.2071 11.4759 44.3211 11.4941C44.4395 11.5078 44.533 11.5283 44.6013 11.5557ZM49.9943 17.4277V14.0166C49.9943 13.766 49.951 13.5495 49.8645 13.3672C49.7779 13.1849 49.6457 13.0436 49.468 12.9434C49.2902 12.8431 49.0646 12.793 48.7912 12.793C48.5497 12.793 48.3378 12.834 48.1555 12.916C47.9777 12.998 47.841 13.1143 47.7453 13.2646C47.6496 13.4105 47.6018 13.5791 47.6018 13.7705H45.7902C45.7902 13.4652 45.8632 13.1758 46.009 12.9023C46.1548 12.6243 46.3622 12.3783 46.6311 12.1641C46.9045 11.9453 47.2303 11.7744 47.6086 11.6514C47.9914 11.5283 48.4198 11.4668 48.8937 11.4668C49.4543 11.4668 49.9533 11.5625 50.3908 11.7539C50.8329 11.9408 51.1792 12.2233 51.4299 12.6016C51.6851 12.9798 51.8127 13.4561 51.8127 14.0303V17.2568C51.8127 17.626 51.8355 17.9427 51.8811 18.207C51.9312 18.4668 52.0041 18.6924 52.0998 18.8838V19H50.2609C50.1743 18.8132 50.1083 18.5762 50.0627 18.2891C50.0171 17.9974 49.9943 17.7103 49.9943 17.4277ZM50.2473 14.4951L50.2609 15.5684H49.1193C48.8368 15.5684 48.5884 15.598 48.3742 15.6572C48.16 15.7119 47.9846 15.7939 47.8479 15.9033C47.7111 16.0081 47.6086 16.1357 47.5402 16.2861C47.4719 16.432 47.4377 16.5983 47.4377 16.7852C47.4377 16.9674 47.4787 17.1315 47.5607 17.2773C47.6473 17.4232 47.7704 17.5394 47.9299 17.626C48.0939 17.708 48.2854 17.749 48.5041 17.749C48.8231 17.749 49.1011 17.6852 49.3381 17.5576C49.5751 17.4255 49.7596 17.266 49.8918 17.0791C50.024 16.8923 50.0946 16.7145 50.1037 16.5459L50.6232 17.3252C50.5594 17.512 50.4637 17.7103 50.3361 17.9199C50.2085 18.1296 50.0445 18.3255 49.8439 18.5078C49.6434 18.6901 49.4019 18.8405 49.1193 18.959C48.8368 19.0775 48.5087 19.1367 48.135 19.1367C47.6564 19.1367 47.2281 19.041 46.8498 18.8496C46.4715 18.6582 46.173 18.3962 45.9543 18.0635C45.7355 17.7308 45.6262 17.3525 45.6262 16.9287C45.6262 16.5368 45.6991 16.1904 45.8449 15.8896C45.9908 15.5889 46.2072 15.3359 46.4943 15.1309C46.7814 14.9212 47.1369 14.764 47.5607 14.6592C47.9891 14.5498 48.479 14.4951 49.0305 14.4951H50.2473ZM58.7028 11.6035H60.3434V18.7744C60.3434 19.4443 60.1976 20.0117 59.9059 20.4766C59.6188 20.946 59.2155 21.3014 58.6959 21.543C58.1764 21.7891 57.5726 21.9121 56.8844 21.9121C56.5882 21.9121 56.2669 21.8711 55.9205 21.7891C55.5788 21.707 55.2483 21.5771 54.9293 21.3994C54.6149 21.2262 54.3528 21.0007 54.1432 20.7227L54.9567 19.6562C55.2028 19.9434 55.4808 20.1598 55.7907 20.3057C56.1006 20.4561 56.4355 20.5312 56.7955 20.5312C57.1601 20.5312 57.47 20.4629 57.7252 20.3262C57.985 20.194 58.1832 19.998 58.32 19.7383C58.4612 19.4831 58.5319 19.1686 58.5319 18.7949V13.292L58.7028 11.6035ZM53.7057 15.3906V15.2471C53.7057 14.682 53.7741 14.1693 53.9108 13.709C54.0475 13.2441 54.2435 12.8454 54.4987 12.5127C54.7584 12.18 55.0706 11.9225 55.4352 11.7402C55.8043 11.5579 56.2191 11.4668 56.6793 11.4668C57.167 11.4668 57.5771 11.5557 57.9098 11.7334C58.247 11.9111 58.525 12.1641 58.7438 12.4922C58.9671 12.8203 59.1403 13.21 59.2633 13.6611C59.3909 14.1077 59.4889 14.5999 59.5573 15.1377V15.5273C59.4935 16.0514 59.3909 16.5322 59.2496 16.9697C59.1129 17.4072 58.9306 17.79 58.7028 18.1182C58.4749 18.4417 58.1924 18.6924 57.8551 18.8701C57.5179 19.0479 57.1214 19.1367 56.6657 19.1367C56.2099 19.1367 55.7998 19.0433 55.4352 18.8564C55.0706 18.6696 54.7584 18.4076 54.4987 18.0703C54.2435 17.7331 54.0475 17.3366 53.9108 16.8809C53.7741 16.4251 53.7057 15.9284 53.7057 15.3906ZM55.5104 15.2471V15.3906C55.5104 15.7096 55.5423 16.0081 55.6061 16.2861C55.6699 16.5641 55.7679 16.8102 55.9 17.0244C56.0322 17.234 56.1985 17.3981 56.3991 17.5166C56.5996 17.6351 56.8388 17.6943 57.1168 17.6943C57.4905 17.6943 57.7959 17.6169 58.0329 17.4619C58.2744 17.3024 58.4567 17.0859 58.5797 16.8125C58.7073 16.5345 58.7894 16.2223 58.8258 15.876V14.8027C58.803 14.5293 58.7529 14.2764 58.6754 14.0439C58.6025 13.8115 58.5 13.611 58.3678 13.4424C58.2357 13.2738 58.067 13.1416 57.862 13.0459C57.6569 12.9502 57.4131 12.9023 57.1305 12.9023C56.8571 12.9023 56.6178 12.9639 56.4127 13.0869C56.2077 13.2054 56.039 13.3717 55.9069 13.5859C55.7747 13.8001 55.6745 14.0485 55.6061 14.3311C55.5423 14.6136 55.5104 14.9189 55.5104 15.2471ZM64.4444 11.6035V19H62.6329V11.6035H64.4444ZM62.5098 9.66895C62.5098 9.40007 62.601 9.17676 62.7833 8.99902C62.9701 8.82129 63.2208 8.73242 63.5352 8.73242C63.8497 8.73242 64.0981 8.82129 64.2803 8.99902C64.4672 9.17676 64.5606 9.40007 64.5606 9.66895C64.5606 9.93327 64.4672 10.1543 64.2803 10.332C64.0981 10.5098 63.8497 10.5986 63.5352 10.5986C63.2208 10.5986 62.9701 10.5098 62.7833 10.332C62.601 10.1543 62.5098 9.93327 62.5098 9.66895ZM68.6411 8.5V19H66.8296V8.5H68.6411ZM74.2461 19.1367C73.6855 19.1367 73.1819 19.0456 72.7353 18.8633C72.2887 18.681 71.9082 18.4281 71.5937 18.1045C71.2838 17.7764 71.0446 17.3958 70.8759 16.9629C70.7119 16.5254 70.6298 16.056 70.6298 15.5547V15.2812C70.6298 14.7116 70.7119 14.1943 70.8759 13.7295C71.04 13.2601 71.2724 12.8568 71.5732 12.5195C71.874 12.1823 72.234 11.9225 72.6533 11.7402C73.0726 11.5579 73.5351 11.4668 74.041 11.4668C74.5651 11.4668 75.0276 11.5557 75.4287 11.7334C75.8297 11.9066 76.1647 12.1527 76.4336 12.4717C76.7024 12.7907 76.9052 13.1735 77.042 13.6201C77.1787 14.0622 77.247 14.5521 77.247 15.0898V15.8486H71.4502V14.6045H75.4697V14.4678C75.4606 14.1807 75.4059 13.9186 75.3056 13.6816C75.2054 13.4401 75.0504 13.2487 74.8408 13.1074C74.6311 12.9616 74.36 12.8887 74.0273 12.8887C73.7584 12.8887 73.5237 12.9479 73.3232 13.0664C73.1272 13.1803 72.9632 13.3444 72.831 13.5586C72.7034 13.7682 72.6077 14.0189 72.5439 14.3105C72.4801 14.6022 72.4482 14.9258 72.4482 15.2812V15.5547C72.4482 15.8646 72.4892 16.1517 72.5713 16.416C72.6578 16.6803 72.7832 16.9105 72.9472 17.1064C73.1158 17.2979 73.3164 17.4482 73.5488 17.5576C73.7858 17.6624 74.0546 17.7148 74.3554 17.7148C74.7337 17.7148 75.0755 17.6419 75.3808 17.4961C75.6907 17.3457 75.9596 17.1247 76.1875 16.833L77.0966 17.7764C76.9417 18.0042 76.7321 18.223 76.4677 18.4326C76.208 18.6423 75.8935 18.8132 75.5244 18.9453C75.1552 19.0729 74.7291 19.1367 74.2461 19.1367ZM89.8036 13.1553V14.6318H84.5672V13.1553H89.8036ZM85.0799 9.04688V19H83.2V9.04688H85.0799ZM91.1981 9.04688V19H89.3182V9.04688H91.1981ZM97.6096 17.4277V14.0166C97.6096 13.766 97.5664 13.5495 97.4798 13.3672C97.3932 13.1849 97.261 13.0436 97.0833 12.9434C96.9055 12.8431 96.68 12.793 96.4065 12.793C96.165 12.793 95.9531 12.834 95.7708 12.916C95.593 12.998 95.4563 13.1143 95.3606 13.2646C95.2649 13.4105 95.2171 13.5791 95.2171 13.7705H93.4055C93.4055 13.4652 93.4785 13.1758 93.6243 12.9023C93.7701 12.6243 93.9775 12.3783 94.2464 12.1641C94.5198 11.9453 94.8457 11.7744 95.2239 11.6514C95.6067 11.5283 96.0351 11.4668 96.5091 11.4668C97.0696 11.4668 97.5686 11.5625 98.0061 11.7539C98.4482 11.9408 98.7945 12.2233 99.0452 12.6016C99.3004 12.9798 99.428 13.4561 99.428 14.0303V17.2568C99.428 17.626 99.4508 17.9427 99.4964 18.207C99.5465 18.4668 99.6194 18.6924 99.7151 18.8838V19H97.8763C97.7897 18.8132 97.7236 18.5762 97.678 18.2891C97.6324 17.9974 97.6096 17.7103 97.6096 17.4277ZM97.8626 14.4951L97.8763 15.5684H96.7346C96.4521 15.5684 96.2037 15.598 95.9895 15.6572C95.7753 15.7119 95.5999 15.7939 95.4632 15.9033C95.3264 16.0081 95.2239 16.1357 95.1555 16.2861C95.0872 16.432 95.053 16.5983 95.053 16.7852C95.053 16.9674 95.094 17.1315 95.1761 17.2773C95.2626 17.4232 95.3857 17.5394 95.5452 17.626C95.7093 17.708 95.9007 17.749 96.1194 17.749C96.4384 17.749 96.7164 17.6852 96.9534 17.5576C97.1904 17.4255 97.3749 17.266 97.5071 17.0791C97.6393 16.8923 97.7099 16.7145 97.719 16.5459L98.2386 17.3252C98.1748 17.512 98.0791 17.7103 97.9514 17.9199C97.8238 18.1296 97.6598 18.3255 97.4593 18.5078C97.2587 18.6901 97.0172 18.8405 96.7346 18.959C96.4521 19.0775 96.124 19.1367 95.7503 19.1367C95.2718 19.1367 94.8434 19.041 94.4651 18.8496C94.0869 18.6582 93.7884 18.3962 93.5696 18.0635C93.3509 17.7308 93.2415 17.3525 93.2415 16.9287C93.2415 16.5368 93.3144 16.1904 93.4602 15.8896C93.6061 15.5889 93.8225 15.3359 94.1096 15.1309C94.3968 14.9212 94.7522 14.764 95.1761 14.6592C95.6044 14.5498 96.0944 14.4951 96.6458 14.4951H97.8626ZM103.385 13.1826V19H101.581V11.6035H103.276L103.385 13.1826ZM103.098 15.0352H102.565C102.57 14.4974 102.643 14.0098 102.784 13.5723C102.925 13.1348 103.123 12.7588 103.379 12.4443C103.638 12.1299 103.946 11.8883 104.301 11.7197C104.657 11.5511 105.053 11.4668 105.491 11.4668C105.846 11.4668 106.168 11.5169 106.455 11.6172C106.742 11.7174 106.988 11.877 107.193 12.0957C107.403 12.3145 107.562 12.6016 107.672 12.957C107.786 13.3079 107.842 13.7409 107.842 14.2559V19H106.024V14.2422C106.024 13.9049 105.974 13.6383 105.874 13.4424C105.778 13.2464 105.637 13.1074 105.45 13.0254C105.268 12.9434 105.042 12.9023 104.773 12.9023C104.495 12.9023 104.251 12.9593 104.042 13.0732C103.837 13.1826 103.663 13.3353 103.522 13.5312C103.385 13.7272 103.281 13.9528 103.208 14.208C103.135 14.4632 103.098 14.7389 103.098 15.0352ZM114.432 17.4277V8.5H116.25V19H114.61L114.432 17.4277ZM109.681 15.3906V15.2471C109.681 14.682 109.745 14.1693 109.872 13.709C110.004 13.2441 110.196 12.8454 110.446 12.5127C110.697 12.18 111 11.9225 111.356 11.7402C111.716 11.5579 112.124 11.4668 112.579 11.4668C113.021 11.4668 113.406 11.5557 113.735 11.7334C114.067 11.9111 114.35 12.1641 114.582 12.4922C114.819 12.8203 115.008 13.21 115.15 13.6611C115.291 14.1077 115.393 14.5999 115.457 15.1377V15.5273C115.393 16.0514 115.291 16.5322 115.15 16.9697C115.008 17.4072 114.819 17.79 114.582 18.1182C114.35 18.4417 114.067 18.6924 113.735 18.8701C113.402 19.0479 113.012 19.1367 112.566 19.1367C112.114 19.1367 111.709 19.0433 111.349 18.8564C110.993 18.6696 110.69 18.4076 110.44 18.0703C110.194 17.7331 110.004 17.3366 109.872 16.8809C109.745 16.4251 109.681 15.9284 109.681 15.3906ZM111.492 15.2471V15.3906C111.492 15.7096 111.52 16.0081 111.574 16.2861C111.629 16.5641 111.718 16.8102 111.841 17.0244C111.964 17.234 112.121 17.3981 112.313 17.5166C112.509 17.6351 112.746 17.6943 113.024 17.6943C113.379 17.6943 113.671 17.6169 113.899 17.4619C114.131 17.3024 114.311 17.0859 114.439 16.8125C114.566 16.5345 114.648 16.2223 114.685 15.876V14.8027C114.666 14.5293 114.619 14.2764 114.541 14.0439C114.468 13.8115 114.363 13.611 114.227 13.4424C114.095 13.2738 113.93 13.1416 113.735 13.0459C113.539 12.9502 113.306 12.9023 113.037 12.9023C112.759 12.9023 112.522 12.9639 112.326 13.0869C112.13 13.2054 111.971 13.3717 111.848 13.5859C111.725 13.8001 111.634 14.0485 111.574 14.3311C111.52 14.6136 111.492 14.9189 111.492 15.2471ZM120.358 8.5V19H118.546V8.5H120.358ZM125.963 19.1367C125.402 19.1367 124.899 19.0456 124.452 18.8633C124.006 18.681 123.625 18.4281 123.311 18.1045C123.001 17.7764 122.761 17.3958 122.593 16.9629C122.429 16.5254 122.347 16.056 122.347 15.5547V15.2812C122.347 14.7116 122.429 14.1943 122.593 13.7295C122.757 13.2601 122.989 12.8568 123.29 12.5195C123.591 12.1823 123.951 11.9225 124.37 11.7402C124.789 11.5579 125.252 11.4668 125.758 11.4668C126.282 11.4668 126.745 11.5557 127.146 11.7334C127.547 11.9066 127.882 12.1527 128.15 12.4717C128.419 12.7907 128.622 13.1735 128.759 13.6201C128.896 14.0622 128.964 14.5521 128.964 15.0898V15.8486H123.167V14.6045H127.187V14.4678C127.177 14.1807 127.123 13.9186 127.022 13.6816C126.922 13.4401 126.767 13.2487 126.558 13.1074C126.348 12.9616 126.077 12.8887 125.744 12.8887C125.475 12.8887 125.241 12.9479 125.04 13.0664C124.844 13.1803 124.68 13.3444 124.548 13.5586C124.42 13.7682 124.325 14.0189 124.261 14.3105C124.197 14.6022 124.165 14.9258 124.165 15.2812V15.5547C124.165 15.8646 124.206 16.1517 124.288 16.416C124.375 16.6803 124.5 16.9105 124.664 17.1064C124.833 17.2979 125.033 17.4482 125.266 17.5576C125.503 17.6624 125.772 17.7148 126.072 17.7148C126.451 17.7148 126.792 17.6419 127.098 17.4961C127.408 17.3457 127.676 17.1247 127.904 16.833L128.814 17.7764C128.659 18.0042 128.449 18.223 128.185 18.4326C127.925 18.6423 127.61 18.8132 127.241 18.9453C126.872 19.0729 126.446 19.1367 125.963 19.1367ZM137.364 17.0928L139.347 9.04688H140.42L140.488 10.7422L138.369 19H137.234L137.364 17.0928ZM136.113 9.04688L137.74 17.0654V19H136.503L134.247 9.04688H136.113ZM142.546 17.0312L144.145 9.04688H146.018L143.763 19H142.525L142.546 17.0312ZM140.933 9.04688L142.915 17.1201L143.031 19H141.896L139.784 10.7354L139.866 9.04688H140.933ZM149.545 11.6035V19H147.734V11.6035H149.545ZM147.611 9.66895C147.611 9.40007 147.702 9.17676 147.884 8.99902C148.071 8.82129 148.322 8.73242 148.636 8.73242C148.951 8.73242 149.199 8.82129 149.381 8.99902C149.568 9.17676 149.661 9.40007 149.661 9.66895C149.661 9.93327 149.568 10.1543 149.381 10.332C149.199 10.5098 148.951 10.5986 148.636 10.5986C148.322 10.5986 148.071 10.5098 147.884 10.332C147.702 10.1543 147.611 9.93327 147.611 9.66895ZM155.328 11.6035V12.9023H151.09V11.6035H155.328ZM152.224 9.78516H154.036V16.8672C154.036 17.0859 154.066 17.2546 154.125 17.373C154.184 17.4915 154.273 17.5713 154.391 17.6123C154.51 17.6533 154.651 17.6738 154.815 17.6738C154.934 17.6738 155.043 17.667 155.143 17.6533C155.244 17.6396 155.328 17.626 155.396 17.6123L155.403 18.9658C155.253 19.016 155.082 19.057 154.89 19.0889C154.704 19.1208 154.492 19.1367 154.255 19.1367C153.849 19.1367 153.494 19.0684 153.188 18.9316C152.883 18.7904 152.646 18.5648 152.477 18.2549C152.309 17.9404 152.224 17.5257 152.224 17.0107V9.78516ZM158.862 8.5V19H157.05V8.5H158.862ZM158.574 15.0352H158.041C158.041 14.5202 158.11 14.0462 158.246 13.6133C158.383 13.1803 158.577 12.8044 158.827 12.4854C159.078 12.1618 159.377 11.9111 159.723 11.7334C160.074 11.5557 160.461 11.4668 160.885 11.4668C161.25 11.4668 161.58 11.5192 161.876 11.624C162.177 11.7243 162.434 11.8861 162.649 12.1094C162.863 12.3327 163.027 12.6243 163.141 12.9844C163.259 13.3398 163.319 13.7728 163.319 14.2832V19H161.5V14.2695C161.5 13.9277 161.45 13.6589 161.35 13.4629C161.25 13.2624 161.106 13.1188 160.919 13.0322C160.737 12.9456 160.511 12.9023 160.242 12.9023C159.951 12.9023 159.7 12.9593 159.49 13.0732C159.281 13.1826 159.108 13.3353 158.971 13.5312C158.839 13.7272 158.739 13.9528 158.67 14.208C158.606 14.4632 158.574 14.7389 158.574 15.0352ZM175.479 15.7256H177.359C177.308 16.391 177.124 16.9811 176.805 17.4961C176.486 18.0065 176.041 18.4076 175.472 18.6992C174.902 18.9909 174.212 19.1367 173.401 19.1367C172.776 19.1367 172.213 19.0273 171.712 18.8086C171.215 18.5853 170.789 18.2686 170.434 17.8584C170.083 17.4437 169.814 16.9469 169.627 16.3682C169.44 15.7848 169.347 15.1309 169.347 14.4062V13.6475C169.347 12.9229 169.443 12.2689 169.634 11.6855C169.825 11.1022 170.099 10.6055 170.454 10.1953C170.814 9.7806 171.245 9.46159 171.746 9.23828C172.252 9.01497 172.817 8.90332 173.442 8.90332C174.253 8.90332 174.939 9.05371 175.499 9.35449C176.06 9.65072 176.495 10.0586 176.805 10.5781C177.115 11.0977 177.302 11.6947 177.365 12.3691H175.485C175.449 11.9499 175.358 11.5944 175.212 11.3027C175.071 11.0111 174.857 10.79 174.569 10.6396C174.287 10.4847 173.911 10.4072 173.442 10.4072C173.077 10.4072 172.756 10.4756 172.478 10.6123C172.204 10.749 171.976 10.9541 171.794 11.2275C171.612 11.4964 171.475 11.8337 171.384 12.2393C171.293 12.6403 171.247 13.1051 171.247 13.6338V14.4062C171.247 14.9121 171.288 15.3656 171.37 15.7666C171.452 16.1676 171.58 16.5072 171.753 16.7852C171.926 17.0632 172.15 17.2751 172.423 17.4209C172.696 17.5667 173.022 17.6396 173.401 17.6396C173.861 17.6396 174.234 17.5667 174.522 17.4209C174.813 17.2751 175.034 17.0609 175.185 16.7783C175.34 16.4958 175.438 16.1449 175.479 15.7256ZM183.312 17.4277V14.0166C183.312 13.766 183.269 13.5495 183.182 13.3672C183.096 13.1849 182.963 13.0436 182.786 12.9434C182.608 12.8431 182.382 12.793 182.109 12.793C181.867 12.793 181.655 12.834 181.473 12.916C181.295 12.998 181.159 13.1143 181.063 13.2646C180.967 13.4105 180.919 13.5791 180.919 13.7705H179.108C179.108 13.4652 179.181 13.1758 179.327 12.9023C179.473 12.6243 179.68 12.3783 179.949 12.1641C180.222 11.9453 180.548 11.7744 180.926 11.6514C181.309 11.5283 181.738 11.4668 182.211 11.4668C182.772 11.4668 183.271 11.5625 183.709 11.7539C184.151 11.9408 184.497 12.2233 184.748 12.6016C185.003 12.9798 185.13 13.4561 185.13 14.0303V17.2568C185.13 17.626 185.153 17.9427 185.199 18.207C185.249 18.4668 185.322 18.6924 185.418 18.8838V19H183.579C183.492 18.8132 183.426 18.5762 183.38 18.2891C183.335 17.9974 183.312 17.7103 183.312 17.4277ZM183.565 14.4951L183.579 15.5684H182.437C182.155 15.5684 181.906 15.598 181.692 15.6572C181.478 15.7119 181.302 15.7939 181.166 15.9033C181.029 16.0081 180.926 16.1357 180.858 16.2861C180.79 16.432 180.755 16.5983 180.755 16.7852C180.755 16.9674 180.796 17.1315 180.878 17.2773C180.965 17.4232 181.088 17.5394 181.248 17.626C181.412 17.708 181.603 17.749 181.822 17.749C182.141 17.749 182.419 17.6852 182.656 17.5576C182.893 17.4255 183.077 17.266 183.21 17.0791C183.342 16.8923 183.412 16.7145 183.421 16.5459L183.941 17.3252C183.877 17.512 183.781 17.7103 183.654 17.9199C183.526 18.1296 183.362 18.3255 183.162 18.5078C182.961 18.6901 182.72 18.8405 182.437 18.959C182.155 19.0775 181.826 19.1367 181.453 19.1367C180.974 19.1367 180.546 19.041 180.168 18.8496C179.789 18.6582 179.491 18.3962 179.272 18.0635C179.053 17.7308 178.944 17.3525 178.944 16.9287C178.944 16.5368 179.017 16.1904 179.163 15.8896C179.308 15.5889 179.525 15.3359 179.812 15.1309C180.099 14.9212 180.455 14.764 180.878 14.6592C181.307 14.5498 181.797 14.4951 182.348 14.4951H183.565ZM189.122 13.1143V19H187.317V11.6035H189.026L189.122 13.1143ZM191.371 11.5557L191.344 13.2373C191.243 13.2191 191.13 13.2054 191.002 13.1963C190.879 13.1872 190.763 13.1826 190.653 13.1826C190.375 13.1826 190.132 13.2214 189.922 13.2988C189.712 13.3717 189.537 13.4788 189.396 13.6201C189.259 13.7614 189.154 13.9346 189.081 14.1396C189.008 14.3402 188.967 14.568 188.958 14.8232L188.568 14.7754C188.568 14.306 188.616 13.8708 188.712 13.4697C188.808 13.0687 188.947 12.7178 189.129 12.417C189.311 12.1162 189.539 11.8838 189.812 11.7197C190.09 11.5511 190.41 11.4668 190.77 11.4668C190.87 11.4668 190.977 11.4759 191.091 11.4941C191.209 11.5078 191.303 11.5283 191.371 11.5557ZM196.108 19.1367C195.547 19.1367 195.044 19.0456 194.597 18.8633C194.15 18.681 193.77 18.4281 193.456 18.1045C193.146 17.7764 192.906 17.3958 192.738 16.9629C192.574 16.5254 192.492 16.056 192.492 15.5547V15.2812C192.492 14.7116 192.574 14.1943 192.738 13.7295C192.902 13.2601 193.134 12.8568 193.435 12.5195C193.736 12.1823 194.096 11.9225 194.515 11.7402C194.934 11.5579 195.397 11.4668 195.903 11.4668C196.427 11.4668 196.889 11.5557 197.29 11.7334C197.692 11.9066 198.026 12.1527 198.295 12.4717C198.564 12.7907 198.767 13.1735 198.904 13.6201C199.04 14.0622 199.109 14.5521 199.109 15.0898V15.8486H193.312V14.6045H197.331V14.4678C197.322 14.1807 197.268 13.9186 197.167 13.6816C197.067 13.4401 196.912 13.2487 196.703 13.1074C196.493 12.9616 196.222 12.8887 195.889 12.8887C195.62 12.8887 195.386 12.9479 195.185 13.0664C194.989 13.1803 194.825 13.3444 194.693 13.5586C194.565 13.7682 194.47 14.0189 194.406 14.3105C194.342 14.6022 194.31 14.9258 194.31 15.2812V15.5547C194.31 15.8646 194.351 16.1517 194.433 16.416C194.52 16.6803 194.645 16.9105 194.809 17.1064C194.978 17.2979 195.178 17.4482 195.411 17.5576C195.648 17.6624 195.916 17.7148 196.217 17.7148C196.595 17.7148 196.937 17.6419 197.243 17.4961C197.553 17.3457 197.821 17.1247 198.049 16.833L198.958 17.7764C198.803 18.0042 198.594 18.223 198.33 18.4326C198.07 18.6423 197.755 18.8132 197.386 18.9453C197.017 19.0729 196.591 19.1367 196.108 19.1367ZM208.89 15.3701H206.326V13.8936H208.89C209.309 13.8936 209.649 13.8252 209.909 13.6885C210.173 13.5472 210.367 13.3558 210.49 13.1143C210.613 12.8682 210.674 12.5879 210.674 12.2734C210.674 11.9681 210.613 11.6833 210.49 11.4189C210.367 11.1546 210.173 10.9404 209.909 10.7764C209.649 10.6123 209.309 10.5303 208.89 10.5303H206.942V19H205.062V9.04688H208.89C209.665 9.04688 210.326 9.18587 210.872 9.46387C211.424 9.7373 211.843 10.1178 212.13 10.6055C212.422 11.0885 212.568 11.64 212.568 12.2598C212.568 12.9023 212.422 13.4561 212.13 13.9209C211.843 14.3857 211.424 14.7435 210.872 14.9941C210.326 15.2448 209.665 15.3701 208.89 15.3701ZM216.272 13.1143V19H214.468V11.6035H216.177L216.272 13.1143ZM218.521 11.5557L218.494 13.2373C218.394 13.2191 218.28 13.2054 218.152 13.1963C218.029 13.1872 217.913 13.1826 217.803 13.1826C217.525 13.1826 217.282 13.2214 217.072 13.2988C216.862 13.3717 216.687 13.4788 216.546 13.6201C216.409 13.7614 216.304 13.9346 216.231 14.1396C216.158 14.3402 216.117 14.568 216.108 14.8232L215.719 14.7754C215.719 14.306 215.766 13.8708 215.862 13.4697C215.958 13.0687 216.097 12.7178 216.279 12.417C216.461 12.1162 216.689 11.8838 216.963 11.7197C217.241 11.5511 217.56 11.4668 217.92 11.4668C218.02 11.4668 218.127 11.4759 218.241 11.4941C218.359 11.5078 218.453 11.5283 218.521 11.5557ZM221.987 11.6035V19H220.175V11.6035H221.987ZM220.052 9.66895C220.052 9.40007 220.143 9.17676 220.325 8.99902C220.512 8.82129 220.763 8.73242 221.077 8.73242C221.392 8.73242 221.64 8.82129 221.822 8.99902C222.009 9.17676 222.103 9.40007 222.103 9.66895C222.103 9.93327 222.009 10.1543 221.822 10.332C221.64 10.5098 221.392 10.5986 221.077 10.5986C220.763 10.5986 220.512 10.5098 220.325 10.332C220.143 10.1543 220.052 9.93327 220.052 9.66895ZM226.04 13.1826V19H224.235V11.6035H225.93L226.04 13.1826ZM225.753 15.0352H225.219C225.224 14.4974 225.297 14.0098 225.438 13.5723C225.579 13.1348 225.778 12.7588 226.033 12.4443C226.293 12.1299 226.6 11.8883 226.956 11.7197C227.311 11.5511 227.708 11.4668 228.145 11.4668C228.501 11.4668 228.822 11.5169 229.109 11.6172C229.396 11.7174 229.642 11.877 229.847 12.0957C230.057 12.3145 230.216 12.6016 230.326 12.957C230.44 13.3079 230.497 13.7409 230.497 14.2559V19H228.678V14.2422C228.678 13.9049 228.628 13.6383 228.528 13.4424C228.432 13.2464 228.291 13.1074 228.104 13.0254C227.922 12.9434 227.696 12.9023 227.427 12.9023C227.149 12.9023 226.906 12.9593 226.696 13.0732C226.491 13.1826 226.318 13.3353 226.176 13.5312C226.04 13.7272 225.935 13.9528 225.862 14.208C225.789 14.4632 225.753 14.7389 225.753 15.0352ZM236.149 11.6035V12.9023H231.911V11.6035H236.149ZM233.046 9.78516H234.857V16.8672C234.857 17.0859 234.887 17.2546 234.946 17.373C235.006 17.4915 235.094 17.5713 235.213 17.6123C235.331 17.6533 235.473 17.6738 235.637 17.6738C235.755 17.6738 235.865 17.667 235.965 17.6533C236.065 17.6396 236.149 17.626 236.218 17.6123L236.225 18.9658C236.074 19.016 235.903 19.057 235.712 19.0889C235.525 19.1208 235.313 19.1367 235.076 19.1367C234.671 19.1367 234.315 19.0684 234.01 18.9316C233.705 18.7904 233.468 18.5648 233.299 18.2549C233.13 17.9404 233.046 17.5257 233.046 17.0107V9.78516ZM241.235 19.1367C240.674 19.1367 240.171 19.0456 239.724 18.8633C239.278 18.681 238.897 18.4281 238.583 18.1045C238.273 17.7764 238.033 17.3958 237.865 16.9629C237.701 16.5254 237.619 16.056 237.619 15.5547V15.2812C237.619 14.7116 237.701 14.1943 237.865 13.7295C238.029 13.2601 238.261 12.8568 238.562 12.5195C238.863 12.1823 239.223 11.9225 239.642 11.7402C240.061 11.5579 240.524 11.4668 241.03 11.4668C241.554 11.4668 242.016 11.5557 242.417 11.7334C242.819 11.9066 243.153 12.1527 243.422 12.4717C243.691 12.7907 243.894 13.1735 244.031 13.6201C244.167 14.0622 244.236 14.5521 244.236 15.0898V15.8486H238.439V14.6045H242.459V14.4678C242.449 14.1807 242.395 13.9186 242.294 13.6816C242.194 13.4401 242.039 13.2487 241.83 13.1074C241.62 12.9616 241.349 12.8887 241.016 12.8887C240.747 12.8887 240.513 12.9479 240.312 13.0664C240.116 13.1803 239.952 13.3444 239.82 13.5586C239.692 13.7682 239.597 14.0189 239.533 14.3105C239.469 14.6022 239.437 14.9258 239.437 15.2812V15.5547C239.437 15.8646 239.478 16.1517 239.56 16.416C239.647 16.6803 239.772 16.9105 239.936 17.1064C240.105 17.2979 240.305 17.4482 240.538 17.5576C240.775 17.6624 241.043 17.7148 241.344 17.7148C241.723 17.7148 242.064 17.6419 242.37 17.4961C242.68 17.3457 242.948 17.1247 243.176 16.833L244.085 17.7764C243.931 18.0042 243.721 18.223 243.457 18.4326C243.197 18.6423 242.882 18.8132 242.513 18.9453C242.144 19.0729 241.718 19.1367 241.235 19.1367ZM250.442 17.4277V8.5H252.261V19H250.62L250.442 17.4277ZM245.691 15.3906V15.2471C245.691 14.682 245.755 14.1693 245.883 13.709C246.015 13.2441 246.206 12.8454 246.457 12.5127C246.708 12.18 247.011 11.9225 247.366 11.7402C247.726 11.5579 248.134 11.4668 248.59 11.4668C249.032 11.4668 249.417 11.5557 249.745 11.7334C250.078 11.9111 250.36 12.1641 250.593 12.4922C250.83 12.8203 251.019 13.21 251.16 13.6611C251.301 14.1077 251.404 14.5999 251.468 15.1377V15.5273C251.404 16.0514 251.301 16.5322 251.16 16.9697C251.019 17.4072 250.83 17.79 250.593 18.1182C250.36 18.4417 250.078 18.6924 249.745 18.8701C249.412 19.0479 249.023 19.1367 248.576 19.1367C248.125 19.1367 247.719 19.0433 247.359 18.8564C247.004 18.6696 246.701 18.4076 246.45 18.0703C246.204 17.7331 246.015 17.3366 245.883 16.8809C245.755 16.4251 245.691 15.9284 245.691 15.3906ZM247.503 15.2471V15.3906C247.503 15.7096 247.53 16.0081 247.585 16.2861C247.64 16.5641 247.728 16.8102 247.852 17.0244C247.975 17.234 248.132 17.3981 248.323 17.5166C248.519 17.6351 248.756 17.6943 249.034 17.6943C249.39 17.6943 249.681 17.6169 249.909 17.4619C250.142 17.3024 250.322 17.0859 250.449 16.8125C250.577 16.5345 250.659 16.2223 250.695 15.876V14.8027C250.677 14.5293 250.629 14.2764 250.552 14.0439C250.479 13.8115 250.374 13.611 250.237 13.4424C250.105 13.2738 249.941 13.1416 249.745 13.0459C249.549 12.9502 249.317 12.9023 249.048 12.9023C248.77 12.9023 248.533 12.9639 248.337 13.0869C248.141 13.2054 247.981 13.3717 247.858 13.5859C247.735 13.8001 247.644 14.0485 247.585 14.3311C247.53 14.6136 247.503 14.9189 247.503 15.2471ZM262.91 9.04688V19H261.037V9.04688H262.91ZM266 9.04688V10.5303H257.981V9.04688H266ZM270.778 17.4277V14.0166C270.778 13.766 270.734 13.5495 270.648 13.3672C270.561 13.1849 270.429 13.0436 270.251 12.9434C270.074 12.8431 269.848 12.793 269.574 12.793C269.333 12.793 269.121 12.834 268.939 12.916C268.761 12.998 268.624 13.1143 268.529 13.2646C268.433 13.4105 268.385 13.5791 268.385 13.7705H266.574C266.574 13.4652 266.646 13.1758 266.792 12.9023C266.938 12.6243 267.145 12.3783 267.414 12.1641C267.688 11.9453 268.014 11.7744 268.392 11.6514C268.775 11.5283 269.203 11.4668 269.677 11.4668C270.238 11.4668 270.737 11.5625 271.174 11.7539C271.616 11.9408 271.963 12.2233 272.213 12.6016C272.468 12.9798 272.596 13.4561 272.596 14.0303V17.2568C272.596 17.626 272.619 17.9427 272.664 18.207C272.714 18.4668 272.787 18.6924 272.883 18.8838V19H271.044C270.958 18.8132 270.892 18.5762 270.846 18.2891C270.8 17.9974 270.778 17.7103 270.778 17.4277ZM271.031 14.4951L271.044 15.5684H269.903C269.62 15.5684 269.372 15.598 269.158 15.6572C268.943 15.7119 268.768 15.7939 268.631 15.9033C268.494 16.0081 268.392 16.1357 268.324 16.2861C268.255 16.432 268.221 16.5983 268.221 16.7852C268.221 16.9674 268.262 17.1315 268.344 17.2773C268.431 17.4232 268.554 17.5394 268.713 17.626C268.877 17.708 269.069 17.749 269.287 17.749C269.606 17.749 269.884 17.6852 270.121 17.5576C270.358 17.4255 270.543 17.266 270.675 17.0791C270.807 16.8923 270.878 16.7145 270.887 16.5459L271.407 17.3252C271.343 17.512 271.247 17.7103 271.119 17.9199C270.992 18.1296 270.828 18.3255 270.627 18.5078C270.427 18.6901 270.185 18.8405 269.903 18.959C269.62 19.0775 269.292 19.1367 268.918 19.1367C268.44 19.1367 268.011 19.041 267.633 18.8496C267.255 18.6582 266.956 18.3962 266.738 18.0635C266.519 17.7308 266.409 17.3525 266.409 16.9287C266.409 16.5368 266.482 16.1904 266.628 15.8896C266.774 15.5889 266.991 15.3359 267.278 15.1309C267.565 14.9212 267.92 14.764 268.344 14.6592C268.772 14.5498 269.262 14.4951 269.814 14.4951H271.031ZM276.588 13.0254V21.8438H274.776V11.6035H276.451L276.588 13.0254ZM281.339 15.2266V15.3701C281.339 15.9079 281.275 16.4069 281.147 16.8672C281.024 17.3229 280.842 17.7217 280.6 18.0635C280.359 18.4007 280.058 18.665 279.698 18.8564C279.342 19.0433 278.932 19.1367 278.467 19.1367C278.012 19.1367 277.615 19.0501 277.278 18.877C276.941 18.6992 276.656 18.4486 276.424 18.125C276.191 17.8014 276.004 17.4255 275.863 16.9971C275.726 16.5641 275.624 16.0924 275.555 15.582V15.124C275.624 14.5817 275.726 14.0895 275.863 13.6475C276.004 13.2008 276.191 12.8158 276.424 12.4922C276.656 12.1641 276.939 11.9111 277.271 11.7334C277.608 11.5557 278.003 11.4668 278.454 11.4668C278.923 11.4668 279.336 11.5557 279.691 11.7334C280.051 11.9111 280.354 12.1663 280.6 12.499C280.846 12.8317 281.031 13.2282 281.154 13.6885C281.277 14.1488 281.339 14.6615 281.339 15.2266ZM279.527 15.3701V15.2266C279.527 14.8984 279.497 14.5954 279.438 14.3174C279.379 14.0348 279.288 13.7887 279.165 13.5791C279.042 13.3649 278.882 13.1986 278.686 13.0801C278.49 12.9616 278.253 12.9023 277.975 12.9023C277.697 12.9023 277.458 12.9479 277.258 13.0391C277.057 13.1302 276.893 13.2601 276.765 13.4287C276.638 13.5973 276.537 13.7979 276.465 14.0303C276.396 14.2581 276.351 14.5111 276.328 14.7891V15.9238C276.369 16.2611 276.449 16.5641 276.567 16.833C276.686 17.1019 276.859 17.3161 277.087 17.4756C277.319 17.6351 277.62 17.7148 277.989 17.7148C278.267 17.7148 278.504 17.6533 278.7 17.5303C278.896 17.4072 279.055 17.2386 279.178 17.0244C279.301 16.8057 279.39 16.555 279.445 16.2725C279.5 15.9899 279.527 15.6891 279.527 15.3701ZM286.54 19.1367C285.98 19.1367 285.476 19.0456 285.029 18.8633C284.583 18.681 284.202 18.4281 283.888 18.1045C283.578 17.7764 283.339 17.3958 283.17 16.9629C283.006 16.5254 282.924 16.056 282.924 15.5547V15.2812C282.924 14.7116 283.006 14.1943 283.17 13.7295C283.334 13.2601 283.567 12.8568 283.867 12.5195C284.168 12.1823 284.528 11.9225 284.947 11.7402C285.367 11.5579 285.829 11.4668 286.335 11.4668C286.859 11.4668 287.322 11.5557 287.723 11.7334C288.124 11.9066 288.459 12.1527 288.728 12.4717C288.997 12.7907 289.199 13.1735 289.336 13.6201C289.473 14.0622 289.541 14.5521 289.541 15.0898V15.8486H283.744V14.6045H287.764V14.4678C287.755 14.1807 287.7 13.9186 287.6 13.6816C287.5 13.4401 287.345 13.2487 287.135 13.1074C286.925 12.9616 286.654 12.8887 286.321 12.8887C286.053 12.8887 285.818 12.9479 285.617 13.0664C285.421 13.1803 285.257 13.3444 285.125 13.5586C284.998 13.7682 284.902 14.0189 284.838 14.3105C284.774 14.6022 284.742 14.9258 284.742 15.2812V15.5547C284.742 15.8646 284.783 16.1517 284.865 16.416C284.952 16.6803 285.077 16.9105 285.241 17.1064C285.41 17.2979 285.611 17.4482 285.843 17.5576C286.08 17.6624 286.349 17.7148 286.65 17.7148C287.028 17.7148 287.37 17.6419 287.675 17.4961C287.985 17.3457 288.254 17.1247 288.482 16.833L289.391 17.7764C289.236 18.0042 289.026 18.223 288.762 18.4326C288.502 18.6423 288.188 18.8132 287.819 18.9453C287.449 19.0729 287.023 19.1367 286.54 19.1367ZM295.379 16.9766C295.379 16.8216 295.337 16.6826 295.255 16.5596C295.173 16.4365 295.018 16.3249 294.791 16.2246C294.567 16.1198 294.239 16.0218 293.806 15.9307C293.423 15.8486 293.07 15.7461 292.747 15.623C292.423 15.5 292.145 15.3519 291.913 15.1787C291.68 15.001 291.498 14.7936 291.366 14.5566C291.238 14.3151 291.174 14.0371 291.174 13.7227C291.174 13.4173 291.24 13.1302 291.373 12.8613C291.505 12.5879 291.696 12.3486 291.947 12.1436C292.198 11.9339 292.503 11.7699 292.863 11.6514C293.223 11.5283 293.629 11.4668 294.08 11.4668C294.709 11.4668 295.249 11.5693 295.7 11.7744C296.156 11.9795 296.504 12.262 296.746 12.6221C296.987 12.9775 297.108 13.3786 297.108 13.8252H295.303C295.303 13.6292 295.258 13.4515 295.167 13.292C295.08 13.1325 294.946 13.0049 294.763 12.9092C294.581 12.8089 294.351 12.7588 294.073 12.7588C293.822 12.7588 293.61 12.7998 293.437 12.8818C293.268 12.9639 293.141 13.071 293.054 13.2031C292.968 13.3353 292.924 13.4811 292.924 13.6406C292.924 13.7591 292.947 13.8662 292.993 13.9619C293.043 14.0531 293.123 14.1374 293.232 14.2148C293.341 14.2923 293.49 14.363 293.676 14.4268C293.868 14.4906 294.102 14.5521 294.38 14.6113C294.932 14.7207 295.413 14.8665 295.823 15.0488C296.238 15.2266 296.561 15.4635 296.794 15.7598C297.026 16.056 297.142 16.4342 297.142 16.8945C297.142 17.2227 297.072 17.5234 296.93 17.7969C296.789 18.0658 296.584 18.3005 296.315 18.501C296.046 18.7015 295.725 18.8587 295.351 18.9727C294.977 19.082 294.556 19.1367 294.087 19.1367C293.407 19.1367 292.833 19.016 292.364 18.7744C291.894 18.5283 291.539 18.2184 291.297 17.8447C291.056 17.4665 290.935 17.0745 290.935 16.6689H292.665C292.678 16.9561 292.756 17.1862 292.897 17.3594C293.038 17.5326 293.216 17.6579 293.43 17.7354C293.649 17.8083 293.879 17.8447 294.121 17.8447C294.394 17.8447 294.624 17.8083 294.811 17.7354C294.998 17.6579 295.139 17.5553 295.235 17.4277C295.331 17.2956 295.379 17.1452 295.379 16.9766Z" fill="white"/>
<defs>
<linearGradient id="paint0_linear_326_48" x1="154" y1="0" x2="154" y2="28" gradientUnits="userSpaceOnUse">
<stop stop-color="#37B349"/>
<stop offset="1" stop-color="#0C8E46"/>
</linearGradient>
</defs>
</svg>
