<svg width="176" height="28" viewBox="0 0 176 28" fill="none" xmlns="http://www.w3.org/2000/svg">
<rect width="176" height="28" fill="url(#paint0_linear_326_55)"/>
<rect width="176" height="28" fill="black" fill-opacity="0.2"/>
<path d="M17.3076 13.1689V14.8438C17.3076 15.6094 17.2301 16.2633 17.0752 16.8057C16.9202 17.348 16.6969 17.7923 16.4053 18.1387C16.1136 18.4805 15.765 18.7334 15.3594 18.8975C14.9538 19.057 14.5026 19.1367 14.0059 19.1367C13.6094 19.1367 13.2402 19.0866 12.8984 18.9863C12.5566 18.8815 12.249 18.722 11.9756 18.5078C11.7067 18.2891 11.4743 18.0111 11.2783 17.6738C11.0869 17.3366 10.9388 16.9333 10.834 16.4639C10.7337 15.9945 10.6836 15.4544 10.6836 14.8438V13.1689C10.6836 12.4033 10.7611 11.7516 10.916 11.2139C11.0755 10.6761 11.3011 10.2363 11.5928 9.89453C11.8844 9.55273 12.2331 9.30436 12.6387 9.14941C13.0443 8.98991 13.4954 8.91016 13.9922 8.91016C14.3932 8.91016 14.7624 8.96029 15.0996 9.06055C15.4414 9.16081 15.7467 9.31803 16.0156 9.53223C16.2891 9.74186 16.5215 10.0153 16.7129 10.3525C16.9043 10.6852 17.0501 11.0863 17.1504 11.5557C17.2552 12.0205 17.3076 12.5583 17.3076 13.1689ZM15.5029 15.0898V12.916C15.5029 12.5332 15.4801 12.2005 15.4346 11.918C15.3936 11.6309 15.332 11.387 15.25 11.1865C15.168 10.986 15.0654 10.8242 14.9424 10.7012C14.8193 10.5736 14.6781 10.4801 14.5186 10.4209C14.359 10.3617 14.1836 10.332 13.9922 10.332C13.7552 10.332 13.5433 10.3799 13.3564 10.4756C13.1696 10.5667 13.0124 10.7126 12.8848 10.9131C12.7572 11.1136 12.6592 11.3802 12.5908 11.7129C12.527 12.041 12.4951 12.4421 12.4951 12.916V15.0898C12.4951 15.4727 12.5156 15.8076 12.5566 16.0947C12.6022 16.3818 12.666 16.6279 12.748 16.833C12.8346 17.0381 12.9372 17.2067 13.0557 17.3389C13.1787 17.4665 13.32 17.5622 13.4795 17.626C13.639 17.6852 13.8145 17.7148 14.0059 17.7148C14.2474 17.7148 14.4593 17.667 14.6416 17.5713C14.8285 17.4756 14.9857 17.3252 15.1133 17.1201C15.2409 16.9105 15.3366 16.6393 15.4004 16.3066C15.4688 15.9694 15.5029 15.5638 15.5029 15.0898ZM24.3002 8.96484H24.5463V10.4209H24.4301C23.8787 10.4209 23.3933 10.5052 22.9741 10.6738C22.5593 10.8424 22.213 11.0794 21.935 11.3848C21.6616 11.6855 21.4542 12.0433 21.3129 12.458C21.1717 12.8682 21.101 13.3171 21.101 13.8047V15.418C21.101 15.7962 21.1398 16.1289 21.2172 16.416C21.2993 16.6986 21.4109 16.9378 21.5522 17.1338C21.698 17.3252 21.8666 17.4688 22.058 17.5645C22.254 17.6602 22.4682 17.708 22.7006 17.708C22.933 17.708 23.1427 17.6602 23.3295 17.5645C23.5164 17.4688 23.6759 17.3343 23.808 17.1611C23.9448 16.9834 24.0473 16.776 24.1157 16.5391C24.1886 16.3021 24.225 16.0423 24.225 15.7598C24.225 15.4818 24.1909 15.2243 24.1225 14.9873C24.0541 14.7503 23.9539 14.543 23.8217 14.3652C23.6896 14.1829 23.5255 14.0439 23.3295 13.9482C23.1381 13.848 22.9194 13.7979 22.6733 13.7979C22.3543 13.7979 22.0694 13.873 21.8188 14.0234C21.5681 14.1693 21.3699 14.3607 21.2241 14.5977C21.0782 14.8346 20.9985 15.0853 20.9848 15.3496L20.3764 15.0488C20.3992 14.6615 20.4812 14.306 20.6225 13.9824C20.7683 13.6589 20.962 13.3763 21.2036 13.1348C21.4496 12.8932 21.739 12.7064 22.0717 12.5742C22.409 12.4421 22.7827 12.376 23.1928 12.376C23.6668 12.376 24.0815 12.4671 24.437 12.6494C24.7924 12.8271 25.0864 13.071 25.3188 13.3809C25.5558 13.6908 25.7335 14.0485 25.852 14.4541C25.9705 14.8551 26.0297 15.279 26.0297 15.7256C26.0297 16.2041 25.9523 16.6507 25.7973 17.0654C25.6469 17.4801 25.4282 17.8424 25.1411 18.1523C24.8539 18.4622 24.5076 18.7038 24.102 18.877C23.6964 19.0501 23.2407 19.1367 22.7348 19.1367C22.2016 19.1367 21.7231 19.0365 21.2993 18.8359C20.88 18.6354 20.52 18.3574 20.2192 18.002C19.9184 17.6465 19.6883 17.2318 19.5288 16.7578C19.3692 16.2839 19.2895 15.7712 19.2895 15.2197V14.4951C19.2895 13.7158 19.3966 12.9912 19.6108 12.3213C19.825 11.6514 20.1417 11.0658 20.561 10.5645C20.9848 10.0586 21.5089 9.66667 22.1332 9.38867C22.7576 9.10612 23.4799 8.96484 24.3002 8.96484ZM28.0048 18.1182C28.0048 17.8447 28.0982 17.6146 28.285 17.4277C28.4719 17.2409 28.7248 17.1475 29.0438 17.1475C29.3628 17.1475 29.6158 17.2409 29.8026 17.4277C29.9895 17.6146 30.0829 17.8447 30.0829 18.1182C30.0829 18.387 29.9895 18.6149 29.8026 18.8018C29.6158 18.984 29.3628 19.0752 29.0438 19.0752C28.7248 19.0752 28.4719 18.984 28.285 18.8018C28.0982 18.6149 28.0048 18.387 28.0048 18.1182ZM36.4329 15.3701H33.8695V13.8936H36.4329C36.8522 13.8936 37.1917 13.8252 37.4515 13.6885C37.7158 13.5472 37.9095 13.3558 38.0325 13.1143C38.1556 12.8682 38.2171 12.5879 38.2171 12.2734C38.2171 11.9681 38.1556 11.6833 38.0325 11.4189C37.9095 11.1546 37.7158 10.9404 37.4515 10.7764C37.1917 10.6123 36.8522 10.5303 36.4329 10.5303H34.4847V19H32.6048V9.04688H36.4329C37.2077 9.04688 37.8685 9.18587 38.4154 9.46387C38.9668 9.7373 39.3861 10.1178 39.6732 10.6055C39.9648 11.0885 40.1107 11.64 40.1107 12.2598C40.1107 12.9023 39.9648 13.4561 39.6732 13.9209C39.3861 14.3857 38.9668 14.7435 38.4154 14.9941C37.8685 15.2448 37.2077 15.3701 36.4329 15.3701ZM50.2068 13.7705V14.2832C50.2068 15.0352 50.1065 15.7119 49.906 16.3135C49.7055 16.9105 49.4207 17.4186 49.0515 17.8379C48.6824 18.2572 48.2426 18.5785 47.7322 18.8018C47.2218 19.0251 46.6544 19.1367 46.03 19.1367C45.4148 19.1367 44.8497 19.0251 44.3347 18.8018C43.8243 18.5785 43.3823 18.2572 43.0086 17.8379C42.6349 17.4186 42.3455 16.9105 42.1404 16.3135C41.9353 15.7119 41.8328 15.0352 41.8328 14.2832V13.7705C41.8328 13.014 41.9353 12.3372 42.1404 11.7402C42.3455 11.1432 42.6326 10.6351 43.0017 10.2158C43.3709 9.79199 43.8106 9.46842 44.3211 9.24512C44.836 9.02181 45.4011 8.91016 46.0164 8.91016C46.6407 8.91016 47.2081 9.02181 47.7185 9.24512C48.2289 9.46842 48.6687 9.79199 49.0379 10.2158C49.4115 10.6351 49.6987 11.1432 49.8992 11.7402C50.1043 12.3372 50.2068 13.014 50.2068 13.7705ZM48.3064 14.2832V13.7568C48.3064 13.2145 48.2563 12.7383 48.156 12.3281C48.0558 11.9134 47.9076 11.5648 47.7117 11.2822C47.5157 10.9997 47.2742 10.7878 46.9871 10.6465C46.7 10.5007 46.3764 10.4277 46.0164 10.4277C45.6518 10.4277 45.3282 10.5007 45.0457 10.6465C44.7677 10.7878 44.5307 10.9997 44.3347 11.2822C44.1388 11.5648 43.9884 11.9134 43.8836 12.3281C43.7833 12.7383 43.7332 13.2145 43.7332 13.7568V14.2832C43.7332 14.821 43.7833 15.2972 43.8836 15.7119C43.9884 16.1266 44.1388 16.4775 44.3347 16.7646C44.5352 17.0472 44.7768 17.2614 45.0593 17.4072C45.3419 17.5531 45.6655 17.626 46.03 17.626C46.3946 17.626 46.7182 17.5531 47.0007 17.4072C47.2833 17.2614 47.5203 17.0472 47.7117 16.7646C47.9076 16.4775 48.0558 16.1266 48.156 15.7119C48.2563 15.2972 48.3064 14.821 48.3064 14.2832ZM55.3332 19H53.1867L53.2004 17.5234H55.3332C55.912 17.5234 56.3973 17.3958 56.7893 17.1406C57.1812 16.8809 57.4774 16.5094 57.6779 16.0264C57.8784 15.5387 57.9787 14.9554 57.9787 14.2764V13.7637C57.9787 13.2396 57.9217 12.777 57.8078 12.376C57.6939 11.9749 57.5253 11.6377 57.302 11.3643C57.0832 11.0908 56.812 10.8835 56.4885 10.7422C56.1649 10.6009 55.7935 10.5303 55.3742 10.5303H53.1457V9.04688H55.3742C56.0396 9.04688 56.6457 9.15853 57.1926 9.38184C57.744 9.60514 58.2202 9.92643 58.6213 10.3457C59.0269 10.7604 59.3368 11.2572 59.551 11.8359C59.7697 12.4147 59.8791 13.0618 59.8791 13.7773V14.2764C59.8791 14.9873 59.7697 15.6344 59.551 16.2178C59.3368 16.7965 59.0269 17.2933 58.6213 17.708C58.2202 18.1227 57.7417 18.4417 57.1857 18.665C56.6298 18.8883 56.0122 19 55.3332 19ZM54.2395 9.04688V19H52.3596V9.04688H54.2395ZM71.9093 15.7256H73.7891C73.739 16.391 73.5544 16.9811 73.2354 17.4961C72.9164 18.0065 72.4721 18.4076 71.9024 18.6992C71.3328 18.9909 70.6423 19.1367 69.8311 19.1367C69.2068 19.1367 68.644 19.0273 68.1427 18.8086C67.6459 18.5853 67.2198 18.2686 66.8643 17.8584C66.5134 17.4437 66.2445 16.9469 66.0577 16.3682C65.8708 15.7848 65.7774 15.1309 65.7774 14.4062V13.6475C65.7774 12.9229 65.8731 12.2689 66.0645 11.6855C66.2559 11.1022 66.5294 10.6055 66.8848 10.1953C67.2449 9.7806 67.6755 9.46159 68.1768 9.23828C68.6827 9.01497 69.2478 8.90332 69.8721 8.90332C70.6833 8.90332 71.3692 9.05371 71.9298 9.35449C72.4903 9.65072 72.9255 10.0586 73.2354 10.5781C73.5453 11.0977 73.7322 11.6947 73.796 12.3691H71.9161C71.8796 11.9499 71.7885 11.5944 71.6427 11.3027C71.5014 11.0111 71.2872 10.79 71.0001 10.6396C70.7175 10.4847 70.3415 10.4072 69.8721 10.4072C69.5076 10.4072 69.1863 10.4756 68.9083 10.6123C68.6348 10.749 68.407 10.9541 68.2247 11.2275C68.0424 11.4964 67.9057 11.8337 67.8145 12.2393C67.7234 12.6403 67.6778 13.1051 67.6778 13.6338V14.4062C67.6778 14.9121 67.7188 15.3656 67.8009 15.7666C67.8829 16.1676 68.0105 16.5072 68.1837 16.7852C68.3568 17.0632 68.5802 17.2751 68.8536 17.4209C69.127 17.5667 69.4529 17.6396 69.8311 17.6396C70.2914 17.6396 70.6651 17.5667 70.9522 17.4209C71.2439 17.2751 71.4649 17.0609 71.6153 16.7783C71.7703 16.4958 71.8682 16.1449 71.9093 15.7256ZM75.3472 15.377V15.2334C75.3472 14.6911 75.4247 14.1921 75.5796 13.7363C75.7346 13.276 75.9601 12.8773 76.2564 12.54C76.5526 12.2028 76.9149 11.9408 77.3433 11.7539C77.7717 11.5625 78.2593 11.4668 78.8062 11.4668C79.3622 11.4668 79.8544 11.5625 80.2827 11.7539C80.7157 11.9408 81.0803 12.2028 81.3765 12.54C81.6727 12.8773 81.8983 13.276 82.0532 13.7363C82.2082 14.1921 82.2857 14.6911 82.2857 15.2334V15.377C82.2857 15.9147 82.2082 16.4137 82.0532 16.874C81.8983 17.3298 81.6727 17.7285 81.3765 18.0703C81.0803 18.4076 80.718 18.6696 80.2896 18.8564C79.8612 19.0433 79.3713 19.1367 78.8198 19.1367C78.273 19.1367 77.7831 19.0433 77.3501 18.8564C76.9172 18.6696 76.5526 18.4076 76.2564 18.0703C75.9601 17.7285 75.7346 17.3298 75.5796 16.874C75.4247 16.4137 75.3472 15.9147 75.3472 15.377ZM77.1519 15.2334V15.377C77.1519 15.7005 77.1838 16.0036 77.2476 16.2861C77.3114 16.5687 77.4094 16.8171 77.5415 17.0312C77.6737 17.2454 77.8446 17.4141 78.0542 17.5371C78.2684 17.6556 78.5236 17.7148 78.8198 17.7148C79.1115 17.7148 79.3622 17.6556 79.5718 17.5371C79.7814 17.4141 79.9523 17.2454 80.0845 17.0312C80.2212 16.8171 80.3215 16.5687 80.3853 16.2861C80.4491 16.0036 80.481 15.7005 80.481 15.377V15.2334C80.481 14.9144 80.4491 14.6159 80.3853 14.3379C80.3215 14.0553 80.2212 13.807 80.0845 13.5928C79.9523 13.374 79.7792 13.2031 79.565 13.0801C79.3553 12.9525 79.1024 12.8887 78.8062 12.8887C78.5145 12.8887 78.2639 12.9525 78.0542 13.0801C77.8446 13.2031 77.6737 13.374 77.5415 13.5928C77.4094 13.807 77.3114 14.0553 77.2476 14.3379C77.1838 14.6159 77.1519 14.9144 77.1519 15.2334ZM88.5605 17.2432V11.6035H90.3789V19H88.6699L88.5605 17.2432ZM88.7929 15.7119L89.3535 15.6982C89.3535 16.195 89.2988 16.653 89.1894 17.0723C89.08 17.4915 88.9091 17.8561 88.6767 18.166C88.4489 18.4714 88.1595 18.7106 87.8086 18.8838C87.4576 19.0524 87.0429 19.1367 86.5644 19.1367C86.1998 19.1367 85.8671 19.0866 85.5664 18.9863C85.2656 18.8815 85.0058 18.7197 84.7871 18.501C84.5729 18.2777 84.4065 17.9928 84.288 17.6465C84.1696 17.2956 84.1103 16.874 84.1103 16.3818V11.6035H85.915V16.3955C85.915 16.6416 85.9423 16.8467 85.997 17.0107C86.0563 17.1748 86.136 17.3092 86.2363 17.4141C86.3411 17.5143 86.4619 17.5872 86.5986 17.6328C86.7399 17.6738 86.8903 17.6943 87.0498 17.6943C87.4873 17.6943 87.8313 17.6077 88.082 17.4346C88.3372 17.2568 88.5195 17.0199 88.6289 16.7236C88.7382 16.4229 88.7929 16.0856 88.7929 15.7119ZM94.3432 13.1143V19H92.5385V11.6035H94.2475L94.3432 13.1143ZM96.5922 11.5557L96.5648 13.2373C96.4646 13.2191 96.3506 13.2054 96.223 13.1963C96.1 13.1872 95.9838 13.1826 95.8744 13.1826C95.5964 13.1826 95.3526 13.2214 95.143 13.2988C94.9333 13.3717 94.7579 13.4788 94.6166 13.6201C94.4799 13.7614 94.3751 13.9346 94.3021 14.1396C94.2292 14.3402 94.1882 14.568 94.1791 14.8232L93.7895 14.7754C93.7895 14.306 93.8373 13.8708 93.933 13.4697C94.0287 13.0687 94.1677 12.7178 94.35 12.417C94.5323 12.1162 94.7602 11.8838 95.0336 11.7197C95.3116 11.5511 95.6306 11.4668 95.9906 11.4668C96.0909 11.4668 96.198 11.4759 96.3119 11.4941C96.4304 11.5078 96.5238 11.5283 96.5922 11.5557ZM100.057 11.6035V19H98.2459V11.6035H100.057ZM98.1229 9.66895C98.1229 9.40007 98.214 9.17676 98.3963 8.99902C98.5832 8.82129 98.8338 8.73242 99.1483 8.73242C99.4627 8.73242 99.7111 8.82129 99.8934 8.99902C100.08 9.17676 100.174 9.40007 100.174 9.66895C100.174 9.93327 100.08 10.1543 99.8934 10.332C99.7111 10.5098 99.4627 10.5986 99.1483 10.5986C98.8338 10.5986 98.5832 10.5098 98.3963 10.332C98.214 10.1543 98.1229 9.93327 98.1229 9.66895ZM105.662 19.1367C105.102 19.1367 104.598 19.0456 104.152 18.8633C103.705 18.681 103.324 18.4281 103.01 18.1045C102.7 17.7764 102.461 17.3958 102.292 16.9629C102.128 16.5254 102.046 16.056 102.046 15.5547V15.2812C102.046 14.7116 102.128 14.1943 102.292 13.7295C102.456 13.2601 102.689 12.8568 102.99 12.5195C103.29 12.1823 103.65 11.9225 104.07 11.7402C104.489 11.5579 104.951 11.4668 105.457 11.4668C105.981 11.4668 106.444 11.5557 106.845 11.7334C107.246 11.9066 107.581 12.1527 107.85 12.4717C108.119 12.7907 108.322 13.1735 108.458 13.6201C108.595 14.0622 108.663 14.5521 108.663 15.0898V15.8486H102.866V14.6045H106.886V14.4678C106.877 14.1807 106.822 13.9186 106.722 13.6816C106.622 13.4401 106.467 13.2487 106.257 13.1074C106.047 12.9616 105.776 12.8887 105.444 12.8887C105.175 12.8887 104.94 12.9479 104.74 13.0664C104.544 13.1803 104.38 13.3444 104.247 13.5586C104.12 13.7682 104.024 14.0189 103.96 14.3105C103.896 14.6022 103.865 14.9258 103.865 15.2812V15.5547C103.865 15.8646 103.906 16.1517 103.988 16.416C104.074 16.6803 104.199 16.9105 104.364 17.1064C104.532 17.2979 104.733 17.4482 104.965 17.5576C105.202 17.6624 105.471 17.7148 105.772 17.7148C106.15 17.7148 106.492 17.6419 106.797 17.4961C107.107 17.3457 107.376 17.1247 107.604 16.833L108.513 17.7764C108.358 18.0042 108.148 18.223 107.884 18.4326C107.624 18.6423 107.31 18.8132 106.941 18.9453C106.572 19.0729 106.145 19.1367 105.662 19.1367ZM112.238 13.1143V19H110.433V11.6035H112.142L112.238 13.1143ZM114.487 11.5557L114.46 13.2373C114.359 13.2191 114.245 13.2054 114.118 13.1963C113.995 13.1872 113.879 13.1826 113.769 13.1826C113.491 13.1826 113.247 13.2214 113.038 13.2988C112.828 13.3717 112.653 13.4788 112.511 13.6201C112.375 13.7614 112.27 13.9346 112.197 14.1396C112.124 14.3402 112.083 14.568 112.074 14.8232L111.684 14.7754C111.684 14.306 111.732 13.8708 111.828 13.4697C111.924 13.0687 112.063 12.7178 112.245 12.417C112.427 12.1162 112.655 11.8838 112.928 11.7197C113.206 11.5511 113.525 11.4668 113.885 11.4668C113.986 11.4668 114.093 11.4759 114.207 11.4941C114.325 11.5078 114.419 11.5283 114.487 11.5557ZM126.046 15.7256H127.925C127.875 16.391 127.691 16.9811 127.372 17.4961C127.053 18.0065 126.608 18.4076 126.039 18.6992C125.469 18.9909 124.779 19.1367 123.967 19.1367C123.343 19.1367 122.78 19.0273 122.279 18.8086C121.782 18.5853 121.356 18.2686 121.001 17.8584C120.65 17.4437 120.381 16.9469 120.194 16.3682C120.007 15.7848 119.914 15.1309 119.914 14.4062V13.6475C119.914 12.9229 120.009 12.2689 120.201 11.6855C120.392 11.1022 120.666 10.6055 121.021 10.1953C121.381 9.7806 121.812 9.46159 122.313 9.23828C122.819 9.01497 123.384 8.90332 124.008 8.90332C124.82 8.90332 125.505 9.05371 126.066 9.35449C126.627 9.65072 127.062 10.0586 127.372 10.5781C127.682 11.0977 127.868 11.6947 127.932 12.3691H126.052C126.016 11.9499 125.925 11.5944 125.779 11.3027C125.638 11.0111 125.423 10.79 125.136 10.6396C124.854 10.4847 124.478 10.4072 124.008 10.4072C123.644 10.4072 123.323 10.4756 123.045 10.6123C122.771 10.749 122.543 10.9541 122.361 11.2275C122.179 11.4964 122.042 11.8337 121.951 12.2393C121.86 12.6403 121.814 13.1051 121.814 13.6338V14.4062C121.814 14.9121 121.855 15.3656 121.937 15.7666C122.019 16.1676 122.147 16.5072 122.32 16.7852C122.493 17.0632 122.716 17.2751 122.99 17.4209C123.263 17.5667 123.589 17.6396 123.967 17.6396C124.428 17.6396 124.801 17.5667 125.088 17.4209C125.38 17.2751 125.601 17.0609 125.752 16.7783C125.907 16.4958 126.004 16.1449 126.046 15.7256ZM129.483 15.377V15.2334C129.483 14.6911 129.561 14.1921 129.716 13.7363C129.871 13.276 130.096 12.8773 130.393 12.54C130.689 12.2028 131.051 11.9408 131.48 11.7539C131.908 11.5625 132.396 11.4668 132.942 11.4668C133.498 11.4668 133.991 11.5625 134.419 11.7539C134.852 11.9408 135.217 12.2028 135.513 12.54C135.809 12.8773 136.035 13.276 136.189 13.7363C136.344 14.1921 136.422 14.6911 136.422 15.2334V15.377C136.422 15.9147 136.344 16.4137 136.189 16.874C136.035 17.3298 135.809 17.7285 135.513 18.0703C135.217 18.4076 134.854 18.6696 134.426 18.8564C133.997 19.0433 133.508 19.1367 132.956 19.1367C132.409 19.1367 131.919 19.0433 131.486 18.8564C131.053 18.6696 130.689 18.4076 130.393 18.0703C130.096 17.7285 129.871 17.3298 129.716 16.874C129.561 16.4137 129.483 15.9147 129.483 15.377ZM131.288 15.2334V15.377C131.288 15.7005 131.32 16.0036 131.384 16.2861C131.448 16.5687 131.546 16.8171 131.678 17.0312C131.81 17.2454 131.981 17.4141 132.19 17.5371C132.405 17.6556 132.66 17.7148 132.956 17.7148C133.248 17.7148 133.498 17.6556 133.708 17.5371C133.918 17.4141 134.089 17.2454 134.221 17.0312C134.357 16.8171 134.458 16.5687 134.522 16.2861C134.585 16.0036 134.617 15.7005 134.617 15.377V15.2334C134.617 14.9144 134.585 14.6159 134.522 14.3379C134.458 14.0553 134.357 13.807 134.221 13.5928C134.089 13.374 133.915 13.2031 133.701 13.0801C133.492 12.9525 133.239 12.8887 132.942 12.8887C132.651 12.8887 132.4 12.9525 132.19 13.0801C131.981 13.2031 131.81 13.374 131.678 13.5928C131.546 13.807 131.448 14.0553 131.384 14.3379C131.32 14.6159 131.288 14.9144 131.288 15.2334ZM140.639 17.6328L142.362 11.6035H144.249L141.712 19H140.564L140.639 17.6328ZM139.381 11.6035L141.124 17.6465L141.186 19H140.031L137.488 11.6035H139.381ZM148.985 19.1367C148.425 19.1367 147.921 19.0456 147.475 18.8633C147.028 18.681 146.647 18.4281 146.333 18.1045C146.023 17.7764 145.784 17.3958 145.615 16.9629C145.451 16.5254 145.369 16.056 145.369 15.5547V15.2812C145.369 14.7116 145.451 14.1943 145.615 13.7295C145.779 13.2601 146.012 12.8568 146.312 12.5195C146.613 12.1823 146.973 11.9225 147.393 11.7402C147.812 11.5579 148.274 11.4668 148.78 11.4668C149.304 11.4668 149.767 11.5557 150.168 11.7334C150.569 11.9066 150.904 12.1527 151.173 12.4717C151.442 12.7907 151.644 13.1735 151.781 13.6201C151.918 14.0622 151.986 14.5521 151.986 15.0898V15.8486H146.189V14.6045H150.209V14.4678C150.2 14.1807 150.145 13.9186 150.045 13.6816C149.945 13.4401 149.79 13.2487 149.58 13.1074C149.37 12.9616 149.099 12.8887 148.767 12.8887C148.498 12.8887 148.263 12.9479 148.062 13.0664C147.866 13.1803 147.702 13.3444 147.57 13.5586C147.443 13.7682 147.347 14.0189 147.283 14.3105C147.219 14.6022 147.187 14.9258 147.187 15.2812V15.5547C147.187 15.8646 147.228 16.1517 147.31 16.416C147.397 16.6803 147.522 16.9105 147.686 17.1064C147.855 17.2979 148.056 17.4482 148.288 17.5576C148.525 17.6624 148.794 17.7148 149.095 17.7148C149.473 17.7148 149.815 17.6419 150.12 17.4961C150.43 17.3457 150.699 17.1247 150.927 16.833L151.836 17.7764C151.681 18.0042 151.471 18.223 151.207 18.4326C150.947 18.6423 150.633 18.8132 150.264 18.9453C149.894 19.0729 149.468 19.1367 148.985 19.1367ZM155.561 13.1143V19H153.756V11.6035H155.465L155.561 13.1143ZM157.81 11.5557L157.783 13.2373C157.682 13.2191 157.568 13.2054 157.441 13.1963C157.318 13.1872 157.202 13.1826 157.092 13.1826C156.814 13.1826 156.57 13.2214 156.361 13.2988C156.151 13.3717 155.976 13.4788 155.834 13.6201C155.698 13.7614 155.593 13.9346 155.52 14.1396C155.447 14.3402 155.406 14.568 155.397 14.8232L155.007 14.7754C155.007 14.306 155.055 13.8708 155.151 13.4697C155.246 13.0687 155.385 12.7178 155.568 12.417C155.75 12.1162 155.978 11.8838 156.251 11.7197C156.529 11.5511 156.848 11.4668 157.208 11.4668C157.309 11.4668 157.416 11.4759 157.53 11.4941C157.648 11.5078 157.742 11.5283 157.81 11.5557ZM163.429 16.9766C163.429 16.8216 163.387 16.6826 163.305 16.5596C163.223 16.4365 163.068 16.3249 162.841 16.2246C162.617 16.1198 162.289 16.0218 161.856 15.9307C161.473 15.8486 161.12 15.7461 160.797 15.623C160.473 15.5 160.195 15.3519 159.963 15.1787C159.73 15.001 159.548 14.7936 159.416 14.5566C159.288 14.3151 159.224 14.0371 159.224 13.7227C159.224 13.4173 159.29 13.1302 159.423 12.8613C159.555 12.5879 159.746 12.3486 159.997 12.1436C160.248 11.9339 160.553 11.7699 160.913 11.6514C161.273 11.5283 161.679 11.4668 162.13 11.4668C162.759 11.4668 163.299 11.5693 163.75 11.7744C164.206 11.9795 164.554 12.262 164.796 12.6221C165.037 12.9775 165.158 13.3786 165.158 13.8252H163.353C163.353 13.6292 163.308 13.4515 163.217 13.292C163.13 13.1325 162.996 13.0049 162.813 12.9092C162.631 12.8089 162.401 12.7588 162.123 12.7588C161.872 12.7588 161.66 12.7998 161.487 12.8818C161.318 12.9639 161.191 13.071 161.104 13.2031C161.018 13.3353 160.974 13.4811 160.974 13.6406C160.974 13.7591 160.997 13.8662 161.043 13.9619C161.093 14.0531 161.173 14.1374 161.282 14.2148C161.391 14.2923 161.54 14.363 161.726 14.4268C161.918 14.4906 162.152 14.5521 162.43 14.6113C162.982 14.7207 163.463 14.8665 163.873 15.0488C164.288 15.2266 164.611 15.4635 164.844 15.7598C165.076 16.056 165.192 16.4342 165.192 16.8945C165.192 17.2227 165.122 17.5234 164.98 17.7969C164.839 18.0658 164.634 18.3005 164.365 18.501C164.096 18.7015 163.775 18.8587 163.401 18.9727C163.027 19.082 162.606 19.1367 162.137 19.1367C161.457 19.1367 160.883 19.016 160.414 18.7744C159.944 18.5283 159.589 18.2184 159.347 17.8447C159.106 17.4665 158.985 17.0745 158.985 16.6689H160.715C160.728 16.9561 160.806 17.1862 160.947 17.3594C161.088 17.5326 161.266 17.6579 161.48 17.7354C161.699 17.8083 161.929 17.8447 162.171 17.8447C162.444 17.8447 162.674 17.8083 162.861 17.7354C163.048 17.6579 163.189 17.5553 163.285 17.4277C163.381 17.2956 163.429 17.1452 163.429 16.9766Z" fill="white"/>
<defs>
<linearGradient id="paint0_linear_326_55" x1="88" y1="0" x2="88" y2="28" gradientUnits="userSpaceOnUse">
<stop stop-color="#37B349"/>
<stop offset="1" stop-color="#0C8E46"/>
</linearGradient>
</defs>
</svg>
