<svg width="43" height="22" viewBox="0 0 43 22" fill="none" xmlns="http://www.w3.org/2000/svg">
<path d="M19.36 16.1C18.8067 16.1 18.3067 15.96 17.86 15.68C17.42 15.4 17.0733 14.9933 16.82 14.46C16.5667 13.92 16.44 13.2667 16.44 12.5C16.44 11.7333 16.5667 11.0833 16.82 10.55C17.0733 10.01 17.42 9.6 17.86 9.32C18.3067 9.04 18.8067 8.9 19.36 8.9C19.92 8.9 20.42 9.04 20.86 9.32C21.3 9.6 21.6467 10.01 21.9 10.55C22.16 11.0833 22.29 11.7333 22.29 12.5C22.29 13.2667 22.16 13.92 21.9 14.46C21.6467 14.9933 21.3 15.4 20.86 15.68C20.42 15.96 19.92 16.1 19.36 16.1ZM19.36 14.97C19.6867 14.97 19.97 14.8833 20.21 14.71C20.45 14.53 20.6367 14.2567 20.77 13.89C20.91 13.5233 20.98 13.06 20.98 12.5C20.98 11.9333 20.91 11.47 20.77 11.11C20.6367 10.7433 20.45 10.4733 20.21 10.3C19.97 10.12 19.6867 10.03 19.36 10.03C19.0467 10.03 18.7667 10.12 18.52 10.3C18.28 10.4733 18.09 10.7433 17.95 11.11C17.8167 11.47 17.75 11.9333 17.75 12.5C17.75 13.06 17.8167 13.5233 17.95 13.89C18.09 14.2567 18.28 14.53 18.52 14.71C18.7667 14.8833 19.0467 14.97 19.36 14.97ZM23.0685 14.41V13.51L26.5185 9H27.9085L24.5085 13.51L23.8585 13.31H29.4085V14.41H23.0685ZM26.9085 16V14.41L26.9485 13.31V11.9H28.1685V16H26.9085Z" fill="black"/>
<path fill-rule="evenodd" clip-rule="evenodd" d="M41.1569 12.711L35.4999 18.368L34.0859 16.954L39.0359 12.004L34.0859 7.05401L35.4999 5.64001L41.1569 11.297C41.3444 11.4845 41.4497 11.7389 41.4497 12.004C41.4497 12.2692 41.3444 12.5235 41.1569 12.711Z" fill="#E2E3E3"/>
<path fill-rule="evenodd" clip-rule="evenodd" d="M1.84306 12.711L7.50006 18.368L8.91406 16.954L3.96406 12.004L8.91406 7.05401L7.50006 5.64001L1.84306 11.297C1.65559 11.4845 1.55028 11.7389 1.55028 12.004C1.55028 12.2692 1.65559 12.5235 1.84306 12.711Z" fill="#E2E3E3"/>
</svg>
