<svg width="182" height="28" viewBox="0 0 182 28" fill="none" xmlns="http://www.w3.org/2000/svg">
<rect width="182" height="28" fill="url(#paint0_linear_326_13)"/>
<rect width="182" height="28" fill="black" fill-opacity="0.2"/>
<path d="M15.3662 9.01953V19H13.5547V11.1318L11.1553 11.9248V10.4619L15.1611 9.01953H15.3662ZM25.8657 13.1689V14.8438C25.8657 15.6094 25.7882 16.2633 25.6332 16.8057C25.4783 17.348 25.255 17.7923 24.9633 18.1387C24.6717 18.4805 24.323 18.7334 23.9174 18.8975C23.5118 19.057 23.0607 19.1367 22.5639 19.1367C22.1674 19.1367 21.7983 19.0866 21.4565 18.9863C21.1147 18.8815 20.8071 18.722 20.5336 18.5078C20.2648 18.2891 20.0323 18.0111 19.8364 17.6738C19.645 17.3366 19.4968 16.9333 19.392 16.4639C19.2918 15.9945 19.2416 15.4544 19.2416 14.8438V13.1689C19.2416 12.4033 19.3191 11.7516 19.4741 11.2139C19.6336 10.6761 19.8592 10.2363 20.1508 9.89453C20.4425 9.55273 20.7911 9.30436 21.1967 9.14941C21.6023 8.98991 22.0535 8.91016 22.5502 8.91016C22.9513 8.91016 23.3204 8.96029 23.6577 9.06055C23.9995 9.16081 24.3048 9.31803 24.5737 9.53223C24.8471 9.74186 25.0795 10.0153 25.2709 10.3525C25.4623 10.6852 25.6082 11.0863 25.7084 11.5557C25.8133 12.0205 25.8657 12.5583 25.8657 13.1689ZM24.061 15.0898V12.916C24.061 12.5332 24.0382 12.2005 23.9926 11.918C23.9516 11.6309 23.8901 11.387 23.808 11.1865C23.726 10.986 23.6235 10.8242 23.5004 10.7012C23.3774 10.5736 23.2361 10.4801 23.0766 10.4209C22.9171 10.3617 22.7416 10.332 22.5502 10.332C22.3133 10.332 22.1013 10.3799 21.9145 10.4756C21.7276 10.5667 21.5704 10.7126 21.4428 10.9131C21.3152 11.1136 21.2172 11.3802 21.1489 11.7129C21.0851 12.041 21.0532 12.4421 21.0532 12.916V15.0898C21.0532 15.4727 21.0737 15.8076 21.1147 16.0947C21.1603 16.3818 21.2241 16.6279 21.3061 16.833C21.3927 17.0381 21.4952 17.2067 21.6137 17.3389C21.7368 17.4665 21.878 17.5622 22.0375 17.626C22.197 17.6852 22.3725 17.7148 22.5639 17.7148C22.8054 17.7148 23.0174 17.667 23.1996 17.5713C23.3865 17.4756 23.5437 17.3252 23.6713 17.1201C23.7989 16.9105 23.8946 16.6393 23.9584 16.3066C24.0268 15.9694 24.061 15.5638 24.061 15.0898ZM28.0048 18.1182C28.0048 17.8447 28.0982 17.6146 28.285 17.4277C28.4719 17.2409 28.7248 17.1475 29.0438 17.1475C29.3628 17.1475 29.6158 17.2409 29.8026 17.4277C29.9895 17.6146 30.0829 17.8447 30.0829 18.1182C30.0829 18.387 29.9895 18.6149 29.8026 18.8018C29.6158 18.984 29.3628 19.0752 29.0438 19.0752C28.7248 19.0752 28.4719 18.984 28.285 18.8018C28.0982 18.6149 28.0048 18.387 28.0048 18.1182ZM36.4329 15.3701H33.8695V13.8936H36.4329C36.8522 13.8936 37.1917 13.8252 37.4515 13.6885C37.7158 13.5472 37.9095 13.3558 38.0325 13.1143C38.1556 12.8682 38.2171 12.5879 38.2171 12.2734C38.2171 11.9681 38.1556 11.6833 38.0325 11.4189C37.9095 11.1546 37.7158 10.9404 37.4515 10.7764C37.1917 10.6123 36.8522 10.5303 36.4329 10.5303H34.4847V19H32.6048V9.04688H36.4329C37.2077 9.04688 37.8685 9.18587 38.4154 9.46387C38.9668 9.7373 39.3861 10.1178 39.6732 10.6055C39.9648 11.0885 40.1107 11.64 40.1107 12.2598C40.1107 12.9023 39.9648 13.4561 39.6732 13.9209C39.3861 14.3857 38.9668 14.7435 38.4154 14.9941C37.8685 15.2448 37.2077 15.3701 36.4329 15.3701ZM45.6472 17.0518L48.1287 9.04688H50.2136L46.7 19H45.3123L45.6472 17.0518ZM43.3572 9.04688L45.825 17.0518L46.1804 19H44.7791L41.2791 9.04688H43.3572ZM57.5275 15.7256H59.4074C59.3573 16.391 59.1727 16.9811 58.8537 17.4961C58.5347 18.0065 58.0904 18.4076 57.5207 18.6992C56.951 18.9909 56.2606 19.1367 55.4494 19.1367C54.8251 19.1367 54.2622 19.0273 53.7609 18.8086C53.2642 18.5853 52.8381 18.2686 52.4826 17.8584C52.1317 17.4437 51.8628 16.9469 51.676 16.3682C51.4891 15.7848 51.3957 15.1309 51.3957 14.4062V13.6475C51.3957 12.9229 51.4914 12.2689 51.6828 11.6855C51.8742 11.1022 52.1477 10.6055 52.5031 10.1953C52.8632 9.7806 53.2938 9.46159 53.7951 9.23828C54.301 9.01497 54.8661 8.90332 55.4904 8.90332C56.3016 8.90332 56.9875 9.05371 57.548 9.35449C58.1086 9.65072 58.5438 10.0586 58.8537 10.5781C59.1636 11.0977 59.3505 11.6947 59.4143 12.3691H57.5344C57.4979 11.9499 57.4068 11.5944 57.2609 11.3027C57.1197 11.0111 56.9055 10.79 56.6184 10.6396C56.3358 10.4847 55.9598 10.4072 55.4904 10.4072C55.1258 10.4072 54.8046 10.4756 54.5266 10.6123C54.2531 10.749 54.0253 10.9541 53.843 11.2275C53.6607 11.4964 53.524 11.8337 53.4328 12.2393C53.3417 12.6403 53.2961 13.1051 53.2961 13.6338V14.4062C53.2961 14.9121 53.3371 15.3656 53.4191 15.7666C53.5012 16.1676 53.6288 16.5072 53.802 16.7852C53.9751 17.0632 54.1984 17.2751 54.4719 17.4209C54.7453 17.5667 55.0712 17.6396 55.4494 17.6396C55.9097 17.6396 56.2834 17.5667 56.5705 17.4209C56.8622 17.2751 57.0832 17.0609 57.2336 16.7783C57.3885 16.4958 57.4865 16.1449 57.5275 15.7256ZM71.294 15.7256H73.1739C73.1238 16.391 72.9392 16.9811 72.6202 17.4961C72.3012 18.0065 71.8568 18.4076 71.2872 18.6992C70.7175 18.9909 70.0271 19.1367 69.2159 19.1367C68.5915 19.1367 68.0287 19.0273 67.5274 18.8086C67.0307 18.5853 66.6046 18.2686 66.2491 17.8584C65.8982 17.4437 65.6293 16.9469 65.4425 16.3682C65.2556 15.7848 65.1622 15.1309 65.1622 14.4062V13.6475C65.1622 12.9229 65.2579 12.2689 65.4493 11.6855C65.6407 11.1022 65.9141 10.6055 66.2696 10.1953C66.6296 9.7806 67.0603 9.46159 67.5616 9.23828C68.0675 9.01497 68.6326 8.90332 69.2569 8.90332C70.0681 8.90332 70.754 9.05371 71.3145 9.35449C71.8751 9.65072 72.3103 10.0586 72.6202 10.5781C72.9301 11.0977 73.1169 11.6947 73.1807 12.3691H71.3009C71.2644 11.9499 71.1733 11.5944 71.0274 11.3027C70.8861 11.0111 70.672 10.79 70.3848 10.6396C70.1023 10.4847 69.7263 10.4072 69.2569 10.4072C68.8923 10.4072 68.571 10.4756 68.293 10.6123C68.0196 10.749 67.7917 10.9541 67.6095 11.2275C67.4272 11.4964 67.2904 11.8337 67.1993 12.2393C67.1081 12.6403 67.0626 13.1051 67.0626 13.6338V14.4062C67.0626 14.9121 67.1036 15.3656 67.1856 15.7666C67.2677 16.1676 67.3953 16.5072 67.5684 16.7852C67.7416 17.0632 67.9649 17.2751 68.2384 17.4209C68.5118 17.5667 68.8376 17.6396 69.2159 17.6396C69.6762 17.6396 70.0499 17.5667 70.337 17.4209C70.6287 17.2751 70.8497 17.0609 71.0001 16.7783C71.155 16.4958 71.253 16.1449 71.294 15.7256ZM76.9673 8.5V19H75.1558V8.5H76.9673ZM81.164 11.6035V19H79.3525V11.6035H81.164ZM79.2295 9.66895C79.2295 9.40007 79.3206 9.17676 79.5029 8.99902C79.6897 8.82129 79.9404 8.73242 80.2548 8.73242C80.5693 8.73242 80.8177 8.82129 81 8.99902C81.1868 9.17676 81.2802 9.40007 81.2802 9.66895C81.2802 9.93327 81.1868 10.1543 81 10.332C80.8177 10.5098 80.5693 10.5986 80.2548 10.5986C79.9404 10.5986 79.6897 10.5098 79.5029 10.332C79.3206 10.1543 79.2295 9.93327 79.2295 9.66895ZM85.2172 13.1826V19H83.4125V11.6035H85.1078L85.2172 13.1826ZM84.9301 15.0352H84.3969C84.4014 14.4974 84.4743 14.0098 84.6156 13.5723C84.7569 13.1348 84.9551 12.7588 85.2104 12.4443C85.4701 12.1299 85.7777 11.8883 86.1332 11.7197C86.4887 11.5511 86.8852 11.4668 87.3227 11.4668C87.6781 11.4668 87.9994 11.5169 88.2865 11.6172C88.5736 11.7174 88.8197 11.877 89.0248 12.0957C89.2344 12.3145 89.3939 12.6016 89.5033 12.957C89.6173 13.3079 89.6742 13.7409 89.6742 14.2559V19H87.8559V14.2422C87.8559 13.9049 87.8057 13.6383 87.7055 13.4424C87.6098 13.2464 87.4685 13.1074 87.2816 13.0254C87.0993 12.9434 86.8738 12.9023 86.6049 12.9023C86.3269 12.9023 86.0831 12.9593 85.8734 13.0732C85.6684 13.1826 85.4952 13.3353 85.3539 13.5312C85.2172 13.7272 85.1124 13.9528 85.0395 14.208C84.9665 14.4632 84.9301 14.7389 84.9301 15.0352ZM96.5301 11.6035H98.1707V18.7744C98.1707 19.4443 98.0249 20.0117 97.7332 20.4766C97.4461 20.946 97.0428 21.3014 96.5233 21.543C96.0038 21.7891 95.3999 21.9121 94.7118 21.9121C94.4155 21.9121 94.0942 21.8711 93.7479 21.7891C93.4061 21.707 93.0757 21.5771 92.7567 21.3994C92.4422 21.2262 92.1802 21.0007 91.9706 20.7227L92.784 19.6562C93.0301 19.9434 93.3081 20.1598 93.618 20.3057C93.9279 20.4561 94.2629 20.5312 94.6229 20.5312C94.9875 20.5312 95.2974 20.4629 95.5526 20.3262C95.8123 20.194 96.0106 19.998 96.1473 19.7383C96.2886 19.4831 96.3592 19.1686 96.3592 18.7949V13.292L96.5301 11.6035ZM91.5331 15.3906V15.2471C91.5331 14.682 91.6014 14.1693 91.7381 13.709C91.8748 13.2441 92.0708 12.8454 92.326 12.5127C92.5858 12.18 92.898 11.9225 93.2625 11.7402C93.6317 11.5579 94.0464 11.4668 94.5067 11.4668C94.9943 11.4668 95.4045 11.5557 95.7372 11.7334C96.0744 11.9111 96.3524 12.1641 96.5711 12.4922C96.7944 12.8203 96.9676 13.21 97.0907 13.6611C97.2183 14.1077 97.3163 14.5999 97.3846 15.1377V15.5273C97.3208 16.0514 97.2183 16.5322 97.077 16.9697C96.9403 17.4072 96.758 17.79 96.5301 18.1182C96.3023 18.4417 96.0197 18.6924 95.6825 18.8701C95.3452 19.0479 94.9487 19.1367 94.493 19.1367C94.0373 19.1367 93.6271 19.0433 93.2625 18.8564C92.898 18.6696 92.5858 18.4076 92.326 18.0703C92.0708 17.7331 91.8748 17.3366 91.7381 16.8809C91.6014 16.4251 91.5331 15.9284 91.5331 15.3906ZM93.3377 15.2471V15.3906C93.3377 15.7096 93.3696 16.0081 93.4334 16.2861C93.4972 16.5641 93.5952 16.8102 93.7274 17.0244C93.8595 17.234 94.0259 17.3981 94.2264 17.5166C94.4269 17.6351 94.6662 17.6943 94.9442 17.6943C95.3179 17.6943 95.6232 17.6169 95.8602 17.4619C96.1017 17.3024 96.284 17.0859 96.4071 16.8125C96.5347 16.5345 96.6167 16.2223 96.6532 15.876V14.8027C96.6304 14.5293 96.5803 14.2764 96.5028 14.0439C96.4299 13.8115 96.3273 13.611 96.1952 13.4424C96.063 13.2738 95.8944 13.1416 95.6893 13.0459C95.4842 12.9502 95.2404 12.9023 94.9579 12.9023C94.6844 12.9023 94.4452 12.9639 94.2401 13.0869C94.035 13.2054 93.8664 13.3717 93.7342 13.5859C93.6021 13.8001 93.5018 14.0485 93.4334 14.3311C93.3696 14.6136 93.3377 14.9189 93.3377 15.2471ZM106.421 9.04688V19H104.541V9.04688H106.421ZM110.433 13.3467V14.8301H105.928V13.3467H110.433ZM110.96 9.04688V10.5303H105.928V9.04688H110.96ZM114.575 11.6035V19H112.764V11.6035H114.575ZM112.641 9.66895C112.641 9.40007 112.732 9.17676 112.914 8.99902C113.101 8.82129 113.352 8.73242 113.666 8.73242C113.981 8.73242 114.229 8.82129 114.411 8.99902C114.598 9.17676 114.692 9.40007 114.692 9.66895C114.692 9.93327 114.598 10.1543 114.411 10.332C114.229 10.5098 113.981 10.5986 113.666 10.5986C113.352 10.5986 113.101 10.5098 112.914 10.332C112.732 10.1543 112.641 9.93327 112.641 9.66895ZM118.772 8.5V19H116.961V8.5H118.772ZM122.853 13.1211V19H121.048V11.6035H122.75L122.853 13.1211ZM122.586 15.0352H122.032C122.032 14.5202 122.094 14.0462 122.217 13.6133C122.344 13.1803 122.531 12.8044 122.777 12.4854C123.023 12.1618 123.327 11.9111 123.687 11.7334C124.051 11.5557 124.473 11.4668 124.951 11.4668C125.284 11.4668 125.589 11.5169 125.867 11.6172C126.145 11.7129 126.384 11.8656 126.585 12.0752C126.79 12.2803 126.947 12.5492 127.057 12.8818C127.166 13.21 127.221 13.6042 127.221 14.0645V19H125.416V14.249C125.416 13.9027 125.366 13.6315 125.266 13.4355C125.17 13.2396 125.031 13.1029 124.849 13.0254C124.666 12.9434 124.448 12.9023 124.192 12.9023C123.91 12.9023 123.666 12.9593 123.461 13.0732C123.26 13.1826 123.094 13.3353 122.962 13.5312C122.834 13.7272 122.739 13.9528 122.675 14.208C122.616 14.4632 122.586 14.7389 122.586 15.0352ZM127.084 14.7002L126.339 14.8369C126.343 14.3721 126.407 13.9368 126.53 13.5312C126.653 13.1211 126.833 12.7633 127.07 12.458C127.312 12.1481 127.61 11.9066 127.966 11.7334C128.326 11.5557 128.741 11.4668 129.21 11.4668C129.575 11.4668 129.903 11.5192 130.194 11.624C130.491 11.7243 130.744 11.8861 130.953 12.1094C131.163 12.3281 131.322 12.613 131.432 12.9639C131.546 13.3148 131.603 13.7432 131.603 14.249V19H129.784V14.2422C129.784 13.8822 129.734 13.6064 129.634 13.415C129.538 13.2236 129.399 13.0915 129.217 13.0186C129.035 12.9411 128.82 12.9023 128.574 12.9023C128.324 12.9023 128.105 12.9502 127.918 13.0459C127.736 13.137 127.581 13.2646 127.453 13.4287C127.33 13.5928 127.237 13.7842 127.173 14.0029C127.114 14.2171 127.084 14.4495 127.084 14.7002ZM140.413 17.0928L142.395 9.04688H143.469L143.537 10.7422L141.418 19H140.283L140.413 17.0928ZM139.162 9.04688L140.789 17.0654V19H139.552L137.296 9.04688H139.162ZM145.595 17.0312L147.194 9.04688H149.067L146.811 19H145.574L145.595 17.0312ZM143.981 9.04688L145.964 17.1201L146.08 19H144.945L142.833 10.7354L142.915 9.04688H143.981ZM152.334 13.1143V19H150.53V11.6035H152.239L152.334 13.1143ZM154.583 11.5557L154.556 13.2373C154.456 13.2191 154.342 13.2054 154.214 13.1963C154.091 13.1872 153.975 13.1826 153.866 13.1826C153.588 13.1826 153.344 13.2214 153.134 13.2988C152.925 13.3717 152.749 13.4788 152.608 13.6201C152.471 13.7614 152.366 13.9346 152.293 14.1396C152.22 14.3402 152.179 14.568 152.17 14.8232L151.781 14.7754C151.781 14.306 151.828 13.8708 151.924 13.4697C152.02 13.0687 152.159 12.7178 152.341 12.417C152.523 12.1162 152.751 11.8838 153.025 11.7197C153.303 11.5511 153.622 11.4668 153.982 11.4668C154.082 11.4668 154.189 11.4759 154.303 11.4941C154.422 11.5078 154.515 11.5283 154.583 11.5557ZM159.976 17.4277V14.0166C159.976 13.766 159.933 13.5495 159.846 13.3672C159.76 13.1849 159.628 13.0436 159.45 12.9434C159.272 12.8431 159.047 12.793 158.773 12.793C158.532 12.793 158.32 12.834 158.137 12.916C157.96 12.998 157.823 13.1143 157.727 13.2646C157.632 13.4105 157.584 13.5791 157.584 13.7705H155.772C155.772 13.4652 155.845 13.1758 155.991 12.9023C156.137 12.6243 156.344 12.3783 156.613 12.1641C156.887 11.9453 157.212 11.7744 157.591 11.6514C157.973 11.5283 158.402 11.4668 158.876 11.4668C159.436 11.4668 159.935 11.5625 160.373 11.7539C160.815 11.9408 161.161 12.2233 161.412 12.6016C161.667 12.9798 161.795 13.4561 161.795 14.0303V17.2568C161.795 17.626 161.818 17.9427 161.863 18.207C161.913 18.4668 161.986 18.6924 162.082 18.8838V19H160.243C160.156 18.8132 160.09 18.5762 160.045 18.2891C159.999 17.9974 159.976 17.7103 159.976 17.4277ZM160.229 14.4951L160.243 15.5684H159.101C158.819 15.5684 158.57 15.598 158.356 15.6572C158.142 15.7119 157.967 15.7939 157.83 15.9033C157.693 16.0081 157.591 16.1357 157.522 16.2861C157.454 16.432 157.42 16.5983 157.42 16.7852C157.42 16.9674 157.461 17.1315 157.543 17.2773C157.629 17.4232 157.752 17.5394 157.912 17.626C158.076 17.708 158.267 17.749 158.486 17.749C158.805 17.749 159.083 17.6852 159.32 17.5576C159.557 17.4255 159.742 17.266 159.874 17.0791C160.006 16.8923 160.077 16.7145 160.086 16.5459L160.605 17.3252C160.541 17.512 160.446 17.7103 160.318 17.9199C160.191 18.1296 160.026 18.3255 159.826 18.5078C159.625 18.6901 159.384 18.8405 159.101 18.959C158.819 19.0775 158.491 19.1367 158.117 19.1367C157.638 19.1367 157.21 19.041 156.832 18.8496C156.454 18.6582 156.155 18.3962 155.936 18.0635C155.718 17.7308 155.608 17.3525 155.608 16.9287C155.608 16.5368 155.681 16.1904 155.827 15.8896C155.973 15.5889 156.189 15.3359 156.476 15.1309C156.763 14.9212 157.119 14.764 157.543 14.6592C157.971 14.5498 158.461 14.4951 159.012 14.4951H160.229ZM165.786 13.0254V21.8438H163.975V11.6035H165.65L165.786 13.0254ZM170.537 15.2266V15.3701C170.537 15.9079 170.474 16.4069 170.346 16.8672C170.223 17.3229 170.041 17.7217 169.799 18.0635C169.558 18.4007 169.257 18.665 168.897 18.8564C168.541 19.0433 168.131 19.1367 167.666 19.1367C167.211 19.1367 166.814 19.0501 166.477 18.877C166.14 18.6992 165.855 18.4486 165.622 18.125C165.39 17.8014 165.203 17.4255 165.062 16.9971C164.925 16.5641 164.822 16.0924 164.754 15.582V15.124C164.822 14.5817 164.925 14.0895 165.062 13.6475C165.203 13.2008 165.39 12.8158 165.622 12.4922C165.855 12.1641 166.137 11.9111 166.47 11.7334C166.807 11.5557 167.201 11.4668 167.653 11.4668C168.122 11.4668 168.534 11.5557 168.89 11.7334C169.25 11.9111 169.553 12.1663 169.799 12.499C170.045 12.8317 170.23 13.2282 170.353 13.6885C170.476 14.1488 170.537 14.6615 170.537 15.2266ZM168.726 15.3701V15.2266C168.726 14.8984 168.696 14.5954 168.637 14.3174C168.578 14.0348 168.487 13.7887 168.364 13.5791C168.24 13.3649 168.081 13.1986 167.885 13.0801C167.689 12.9616 167.452 12.9023 167.174 12.9023C166.896 12.9023 166.657 12.9479 166.456 13.0391C166.256 13.1302 166.092 13.2601 165.964 13.4287C165.836 13.5973 165.736 13.7979 165.663 14.0303C165.595 14.2581 165.549 14.5111 165.527 14.7891V15.9238C165.568 16.2611 165.647 16.5641 165.766 16.833C165.884 17.1019 166.058 17.3161 166.285 17.4756C166.518 17.6351 166.819 17.7148 167.188 17.7148C167.466 17.7148 167.703 17.6533 167.899 17.5303C168.095 17.4072 168.254 17.2386 168.377 17.0244C168.5 16.8057 168.589 16.555 168.644 16.2725C168.698 15.9899 168.726 15.6891 168.726 15.3701Z" fill="white"/>
<defs>
<linearGradient id="paint0_linear_326_13" x1="91" y1="0" x2="91" y2="28" gradientUnits="userSpaceOnUse">
<stop stop-color="#37B349"/>
<stop offset="1" stop-color="#0C8E46"/>
</linearGradient>
</defs>
</svg>
