<svg width="146" height="28" viewBox="0 0 146 28" fill="none" xmlns="http://www.w3.org/2000/svg">
<rect width="146" height="28" fill="url(#paint0_linear_326_17)"/>
<rect width="146" height="28" fill="black" fill-opacity="0.2"/>
<path d="M17.3076 13.1689V14.8438C17.3076 15.6094 17.2301 16.2633 17.0752 16.8057C16.9202 17.348 16.6969 17.7923 16.4053 18.1387C16.1136 18.4805 15.765 18.7334 15.3594 18.8975C14.9538 19.057 14.5026 19.1367 14.0059 19.1367C13.6094 19.1367 13.2402 19.0866 12.8984 18.9863C12.5566 18.8815 12.249 18.722 11.9756 18.5078C11.7067 18.2891 11.4743 18.0111 11.2783 17.6738C11.0869 17.3366 10.9388 16.9333 10.834 16.4639C10.7337 15.9945 10.6836 15.4544 10.6836 14.8438V13.1689C10.6836 12.4033 10.7611 11.7516 10.916 11.2139C11.0755 10.6761 11.3011 10.2363 11.5928 9.89453C11.8844 9.55273 12.2331 9.30436 12.6387 9.14941C13.0443 8.98991 13.4954 8.91016 13.9922 8.91016C14.3932 8.91016 14.7624 8.96029 15.0996 9.06055C15.4414 9.16081 15.7467 9.31803 16.0156 9.53223C16.2891 9.74186 16.5215 10.0153 16.7129 10.3525C16.9043 10.6852 17.0501 11.0863 17.1504 11.5557C17.2552 12.0205 17.3076 12.5583 17.3076 13.1689ZM15.5029 15.0898V12.916C15.5029 12.5332 15.4801 12.2005 15.4346 11.918C15.3936 11.6309 15.332 11.387 15.25 11.1865C15.168 10.986 15.0654 10.8242 14.9424 10.7012C14.8193 10.5736 14.6781 10.4801 14.5186 10.4209C14.359 10.3617 14.1836 10.332 13.9922 10.332C13.7552 10.332 13.5433 10.3799 13.3564 10.4756C13.1696 10.5667 13.0124 10.7126 12.8848 10.9131C12.7572 11.1136 12.6592 11.3802 12.5908 11.7129C12.527 12.041 12.4951 12.4421 12.4951 12.916V15.0898C12.4951 15.4727 12.5156 15.8076 12.5566 16.0947C12.6022 16.3818 12.666 16.6279 12.748 16.833C12.8346 17.0381 12.9372 17.2067 13.0557 17.3389C13.1787 17.4665 13.32 17.5622 13.4795 17.626C13.639 17.6852 13.8145 17.7148 14.0059 17.7148C14.2474 17.7148 14.4593 17.667 14.6416 17.5713C14.8285 17.4756 14.9857 17.3252 15.1133 17.1201C15.2409 16.9105 15.3366 16.6393 15.4004 16.3066C15.4688 15.9694 15.5029 15.5638 15.5029 15.0898ZM20.6362 17.5986H20.7661C21.3539 17.5986 21.8507 17.5234 22.2563 17.373C22.6664 17.2227 22.9968 17.0107 23.2475 16.7373C23.5027 16.4593 23.6873 16.1289 23.8012 15.7461C23.9197 15.3587 23.9789 14.9303 23.9789 14.4609V12.6562C23.9789 12.2734 23.9402 11.9385 23.8627 11.6514C23.7853 11.3597 23.6759 11.1159 23.5346 10.9199C23.3979 10.724 23.2361 10.5781 23.0493 10.4824C22.8624 10.3822 22.6619 10.332 22.4477 10.332C22.2107 10.332 22.0011 10.3867 21.8188 10.4961C21.6365 10.6055 21.4815 10.7559 21.3539 10.9473C21.2309 11.1341 21.1352 11.3506 21.0668 11.5967C21.003 11.8428 20.9711 12.1025 20.9711 12.376C20.9711 12.6403 21.0008 12.8932 21.06 13.1348C21.1238 13.3763 21.2172 13.5905 21.3403 13.7773C21.4679 13.9642 21.6274 14.1123 21.8188 14.2217C22.0102 14.3265 22.2335 14.3789 22.4887 14.3789C22.7302 14.3789 22.949 14.3333 23.145 14.2422C23.3455 14.1465 23.5187 14.0212 23.6645 13.8662C23.8103 13.7067 23.922 13.5312 23.9995 13.3398C24.0815 13.1439 24.1271 12.9456 24.1362 12.7451L24.7719 13.0186C24.7719 13.3512 24.7013 13.6794 24.56 14.0029C24.4233 14.3265 24.2296 14.6204 23.9789 14.8848C23.7329 15.1445 23.4457 15.3542 23.1176 15.5137C22.7895 15.6686 22.4363 15.7461 22.058 15.7461C21.5886 15.7461 21.1739 15.6595 20.8139 15.4863C20.4539 15.3132 20.1508 15.0739 19.9047 14.7686C19.6632 14.4587 19.4809 14.1032 19.3579 13.7021C19.2348 13.2965 19.1733 12.8636 19.1733 12.4033C19.1733 11.9248 19.2485 11.4759 19.3989 11.0566C19.5493 10.6328 19.7657 10.2614 20.0483 9.94238C20.3354 9.61882 20.6817 9.36589 21.0873 9.18359C21.4929 8.99674 21.9487 8.90332 22.4545 8.90332C22.9786 8.90332 23.4457 9.00586 23.8559 9.21094C24.2661 9.41602 24.6147 9.70085 24.9018 10.0654C25.1889 10.4255 25.4077 10.8516 25.558 11.3438C25.713 11.8359 25.7905 12.3737 25.7905 12.957V13.5928C25.7905 14.208 25.7289 14.7913 25.6059 15.3428C25.4829 15.8942 25.2937 16.3978 25.0385 16.8535C24.7833 17.3092 24.4575 17.7035 24.061 18.0361C23.669 18.3688 23.1996 18.6263 22.6528 18.8086C22.1105 18.9863 21.4907 19.0752 20.7934 19.0752H20.6362V17.5986ZM28.0048 18.1182C28.0048 17.8447 28.0982 17.6146 28.285 17.4277C28.4719 17.2409 28.7248 17.1475 29.0438 17.1475C29.3628 17.1475 29.6158 17.2409 29.8026 17.4277C29.9895 17.6146 30.0829 17.8447 30.0829 18.1182C30.0829 18.387 29.9895 18.6149 29.8026 18.8018C29.6158 18.984 29.3628 19.0752 29.0438 19.0752C28.7248 19.0752 28.4719 18.984 28.285 18.8018C28.0982 18.6149 28.0048 18.387 28.0048 18.1182ZM39.6868 17.5234V19H32.7005V17.5234H39.6868ZM39.557 10.1475L33.473 19H32.181V17.8721L38.2923 9.04688H39.557V10.1475ZM38.887 9.04688V10.5303H32.2015V9.04688H38.887ZM43.4187 11.6035V19H41.6072V11.6035H43.4187ZM41.4841 9.66895C41.4841 9.40007 41.5753 9.17676 41.7576 8.99902C41.9444 8.82129 42.1951 8.73242 42.5095 8.73242C42.824 8.73242 43.0724 8.82129 43.2546 8.99902C43.4415 9.17676 43.5349 9.40007 43.5349 9.66895C43.5349 9.93327 43.4415 10.1543 43.2546 10.332C43.0724 10.5098 42.824 10.5986 42.5095 10.5986C42.1951 10.5986 41.9444 10.5098 41.7576 10.332C41.5753 10.1543 41.4841 9.93327 41.4841 9.66895ZM47.5061 13.0254V21.8438H45.6945V11.6035H47.3693L47.5061 13.0254ZM52.257 15.2266V15.3701C52.257 15.9079 52.1932 16.4069 52.0656 16.8672C51.9426 17.3229 51.7603 17.7217 51.5187 18.0635C51.2772 18.4007 50.9764 18.665 50.6164 18.8564C50.2609 19.0433 49.8508 19.1367 49.3859 19.1367C48.9302 19.1367 48.5337 19.0501 48.1965 18.877C47.8592 18.6992 47.5744 18.4486 47.342 18.125C47.1096 17.8014 46.9227 17.4255 46.7814 16.9971C46.6447 16.5641 46.5422 16.0924 46.4738 15.582V15.124C46.5422 14.5817 46.6447 14.0895 46.7814 13.6475C46.9227 13.2008 47.1096 12.8158 47.342 12.4922C47.5744 12.1641 47.857 11.9111 48.1896 11.7334C48.5269 11.5557 48.9211 11.4668 49.3723 11.4668C49.8417 11.4668 50.2541 11.5557 50.6096 11.7334C50.9696 11.9111 51.2727 12.1663 51.5187 12.499C51.7648 12.8317 51.9494 13.2282 52.0725 13.6885C52.1955 14.1488 52.257 14.6615 52.257 15.2266ZM50.4455 15.3701V15.2266C50.4455 14.8984 50.4159 14.5954 50.3566 14.3174C50.2974 14.0348 50.2062 13.7887 50.0832 13.5791C49.9602 13.3649 49.8007 13.1986 49.6047 13.0801C49.4087 12.9616 49.1717 12.9023 48.8937 12.9023C48.6158 12.9023 48.3765 12.9479 48.176 13.0391C47.9755 13.1302 47.8114 13.2601 47.6838 13.4287C47.5562 13.5973 47.4559 13.7979 47.383 14.0303C47.3146 14.2581 47.2691 14.5111 47.2463 14.7891V15.9238C47.2873 16.2611 47.3671 16.5641 47.4855 16.833C47.604 17.1019 47.7772 17.3161 48.0051 17.4756C48.2375 17.6351 48.5383 17.7148 48.9074 17.7148C49.1854 17.7148 49.4224 17.6533 49.6184 17.5303C49.8143 17.4072 49.9738 17.2386 50.0969 17.0244C50.2199 16.8057 50.3088 16.555 50.3635 16.2725C50.4182 15.9899 50.4455 15.6891 50.4455 15.3701ZM64.6358 17.5234V19H59.6319V17.5234H64.6358ZM60.1993 9.04688V19H58.3194V9.04688H60.1993ZM65.9956 15.377V15.2334C65.9956 14.6911 66.0731 14.1921 66.228 13.7363C66.383 13.276 66.6086 12.8773 66.9048 12.54C67.201 12.2028 67.5633 11.9408 67.9917 11.7539C68.4201 11.5625 68.9077 11.4668 69.4546 11.4668C70.0106 11.4668 70.5028 11.5625 70.9312 11.7539C71.3641 11.9408 71.7287 12.2028 72.0249 12.54C72.3211 12.8773 72.5467 13.276 72.7017 13.7363C72.8566 14.1921 72.9341 14.6911 72.9341 15.2334V15.377C72.9341 15.9147 72.8566 16.4137 72.7017 16.874C72.5467 17.3298 72.3211 17.7285 72.0249 18.0703C71.7287 18.4076 71.3664 18.6696 70.938 18.8564C70.5096 19.0433 70.0197 19.1367 69.4683 19.1367C68.9214 19.1367 68.4315 19.0433 67.9986 18.8564C67.5656 18.6696 67.201 18.4076 66.9048 18.0703C66.6086 17.7285 66.383 17.3298 66.228 16.874C66.0731 16.4137 65.9956 15.9147 65.9956 15.377ZM67.8003 15.2334V15.377C67.8003 15.7005 67.8322 16.0036 67.896 16.2861C67.9598 16.5687 68.0578 16.8171 68.19 17.0312C68.3221 17.2454 68.493 17.4141 68.7027 17.5371C68.9168 17.6556 69.1721 17.7148 69.4683 17.7148C69.7599 17.7148 70.0106 17.6556 70.2202 17.5371C70.4299 17.4141 70.6008 17.2454 70.7329 17.0312C70.8696 16.8171 70.9699 16.5687 71.0337 16.2861C71.0975 16.0036 71.1294 15.7005 71.1294 15.377V15.2334C71.1294 14.9144 71.0975 14.6159 71.0337 14.3379C70.9699 14.0553 70.8696 13.807 70.7329 13.5928C70.6008 13.374 70.4276 13.2031 70.2134 13.0801C70.0038 12.9525 69.7508 12.8887 69.4546 12.8887C69.1629 12.8887 68.9123 12.9525 68.7027 13.0801C68.493 13.2031 68.3221 13.374 68.19 13.5928C68.0578 13.807 67.9598 14.0553 67.896 14.3379C67.8322 14.6159 67.8003 14.9144 67.8003 15.2334ZM77.8418 17.7148C78.097 17.7148 78.3248 17.6647 78.5254 17.5645C78.7259 17.4642 78.8854 17.3229 79.0039 17.1406C79.1269 16.9583 79.193 16.7464 79.2021 16.5049H80.9043C80.8951 17.0062 80.7539 17.4551 80.4804 17.8516C80.207 18.248 79.8424 18.5625 79.3867 18.7949C78.9355 19.0228 78.4296 19.1367 77.8691 19.1367C77.2994 19.1367 76.8027 19.041 76.3789 18.8496C75.955 18.6582 75.6018 18.3916 75.3193 18.0498C75.0413 17.708 74.8317 17.3115 74.6904 16.8604C74.5537 16.4092 74.4853 15.9261 74.4853 15.4111V15.1924C74.4853 14.6774 74.5537 14.1943 74.6904 13.7432C74.8317 13.292 75.0413 12.8955 75.3193 12.5537C75.6018 12.2119 75.955 11.9453 76.3789 11.7539C76.8027 11.5625 77.2972 11.4668 77.8623 11.4668C78.4593 11.4668 78.9834 11.583 79.4345 11.8154C79.8903 12.0479 80.2457 12.376 80.5009 12.7998C80.7607 13.2236 80.8951 13.7227 80.9043 14.2969H79.2021C79.193 14.0326 79.1338 13.7956 79.0244 13.5859C78.915 13.3763 78.7601 13.2077 78.5595 13.0801C78.359 12.9525 78.1152 12.8887 77.8281 12.8887C77.5227 12.8887 77.2675 12.9525 77.0625 13.0801C76.8619 13.2077 76.7047 13.3831 76.5908 13.6064C76.4814 13.8252 76.4039 14.0713 76.3584 14.3447C76.3173 14.6136 76.2968 14.8962 76.2968 15.1924V15.4111C76.2968 15.7119 76.3173 15.999 76.3584 16.2725C76.4039 16.5459 76.4814 16.792 76.5908 17.0107C76.7047 17.2249 76.8619 17.3958 77.0625 17.5234C77.2675 17.651 77.5273 17.7148 77.8418 17.7148ZM84.4721 8.49316V19H82.6674V8.49316H84.4721ZM89.1068 11.6035L85.8871 15.2197L84.1439 16.9902L83.5697 15.5889L84.9164 13.8936L86.9262 11.6035H89.1068ZM87.2611 19L84.9711 15.5547L86.1742 14.3857L89.3529 19H87.2611ZM98.635 15.3701H96.0716V13.8936H98.635C99.0543 13.8936 99.3938 13.8252 99.6536 13.6885C99.9179 13.5472 100.112 13.3558 100.235 13.1143C100.358 12.8682 100.419 12.5879 100.419 12.2734C100.419 11.9681 100.358 11.6833 100.235 11.4189C100.112 11.1546 99.9179 10.9404 99.6536 10.7764C99.3938 10.6123 99.0543 10.5303 98.635 10.5303H96.6868V19H94.8069V9.04688H98.635C99.4098 9.04688 100.071 9.18587 100.617 9.46387C101.169 9.7373 101.588 10.1178 101.875 10.6055C102.167 11.0885 102.313 11.64 102.313 12.2598C102.313 12.9023 102.167 13.4561 101.875 13.9209C101.588 14.3857 101.169 14.7435 100.617 14.9941C100.071 15.2448 99.4098 15.3701 98.635 15.3701ZM103.796 15.377V15.2334C103.796 14.6911 103.873 14.1921 104.028 13.7363C104.183 13.276 104.409 12.8773 104.705 12.54C105.001 12.2028 105.363 11.9408 105.792 11.7539C106.22 11.5625 106.708 11.4668 107.255 11.4668C107.811 11.4668 108.303 11.5625 108.731 11.7539C109.164 11.9408 109.529 12.2028 109.825 12.54C110.121 12.8773 110.347 13.276 110.502 13.7363C110.657 14.1921 110.734 14.6911 110.734 15.2334V15.377C110.734 15.9147 110.657 16.4137 110.502 16.874C110.347 17.3298 110.121 17.7285 109.825 18.0703C109.529 18.4076 109.166 18.6696 108.738 18.8564C108.31 19.0433 107.82 19.1367 107.268 19.1367C106.721 19.1367 106.231 19.0433 105.799 18.8564C105.366 18.6696 105.001 18.4076 104.705 18.0703C104.409 17.7285 104.183 17.3298 104.028 16.874C103.873 16.4137 103.796 15.9147 103.796 15.377ZM105.6 15.2334V15.377C105.6 15.7005 105.632 16.0036 105.696 16.2861C105.76 16.5687 105.858 16.8171 105.99 17.0312C106.122 17.2454 106.293 17.4141 106.503 17.5371C106.717 17.6556 106.972 17.7148 107.268 17.7148C107.56 17.7148 107.811 17.6556 108.02 17.5371C108.23 17.4141 108.401 17.2454 108.533 17.0312C108.67 16.8171 108.77 16.5687 108.834 16.2861C108.898 16.0036 108.929 15.7005 108.929 15.377V15.2334C108.929 14.9144 108.898 14.6159 108.834 14.3379C108.77 14.0553 108.67 13.807 108.533 13.5928C108.401 13.374 108.228 13.2031 108.013 13.0801C107.804 12.9525 107.551 12.8887 107.255 12.8887C106.963 12.8887 106.712 12.9525 106.503 13.0801C106.293 13.2031 106.122 13.374 105.99 13.5928C105.858 13.807 105.76 14.0553 105.696 14.3379C105.632 14.6159 105.6 14.9144 105.6 15.2334ZM117.009 17.2432V11.6035H118.827V19H117.118L117.009 17.2432ZM117.241 15.7119L117.802 15.6982C117.802 16.195 117.747 16.653 117.638 17.0723C117.528 17.4915 117.358 17.8561 117.125 18.166C116.897 18.4714 116.608 18.7106 116.257 18.8838C115.906 19.0524 115.491 19.1367 115.013 19.1367C114.648 19.1367 114.316 19.0866 114.015 18.9863C113.714 18.8815 113.454 18.7197 113.236 18.501C113.021 18.2777 112.855 17.9928 112.736 17.6465C112.618 17.2956 112.559 16.874 112.559 16.3818V11.6035H114.363V16.3955C114.363 16.6416 114.391 16.8467 114.445 17.0107C114.505 17.1748 114.584 17.3092 114.685 17.4141C114.79 17.5143 114.91 17.5872 115.047 17.6328C115.188 17.6738 115.339 17.6943 115.498 17.6943C115.936 17.6943 116.28 17.6077 116.53 17.4346C116.786 17.2568 116.968 17.0199 117.077 16.7236C117.187 16.4229 117.241 16.0856 117.241 15.7119ZM124.022 17.7148C124.277 17.7148 124.505 17.6647 124.706 17.5645C124.906 17.4642 125.066 17.3229 125.184 17.1406C125.307 16.9583 125.373 16.7464 125.382 16.5049H127.085C127.075 17.0062 126.934 17.4551 126.661 17.8516C126.387 18.248 126.023 18.5625 125.567 18.7949C125.116 19.0228 124.61 19.1367 124.049 19.1367C123.48 19.1367 122.983 19.041 122.559 18.8496C122.135 18.6582 121.782 18.3916 121.5 18.0498C121.222 17.708 121.012 17.3115 120.871 16.8604C120.734 16.4092 120.666 15.9261 120.666 15.4111V15.1924C120.666 14.6774 120.734 14.1943 120.871 13.7432C121.012 13.292 121.222 12.8955 121.5 12.5537C121.782 12.2119 122.135 11.9453 122.559 11.7539C122.983 11.5625 123.477 11.4668 124.043 11.4668C124.64 11.4668 125.164 11.583 125.615 11.8154C126.071 12.0479 126.426 12.376 126.681 12.7998C126.941 13.2236 127.075 13.7227 127.085 14.2969H125.382C125.373 14.0326 125.314 13.7956 125.205 13.5859C125.095 13.3763 124.94 13.2077 124.74 13.0801C124.539 12.9525 124.296 12.8887 124.008 12.8887C123.703 12.8887 123.448 12.9525 123.243 13.0801C123.042 13.2077 122.885 13.3831 122.771 13.6064C122.662 13.8252 122.584 14.0713 122.539 14.3447C122.498 14.6136 122.477 14.8962 122.477 15.1924V15.4111C122.477 15.7119 122.498 15.999 122.539 16.2725C122.584 16.5459 122.662 16.792 122.771 17.0107C122.885 17.2249 123.042 17.3958 123.243 17.5234C123.448 17.651 123.708 17.7148 124.022 17.7148ZM130.618 8.5V19H128.807V8.5H130.618ZM130.331 15.0352H129.798C129.798 14.5202 129.866 14.0462 130.003 13.6133C130.14 13.1803 130.333 12.8044 130.584 12.4854C130.835 12.1618 131.133 11.9111 131.48 11.7334C131.83 11.5557 132.218 11.4668 132.642 11.4668C133.006 11.4668 133.337 11.5192 133.633 11.624C133.934 11.7243 134.191 11.8861 134.405 12.1094C134.62 12.3327 134.784 12.6243 134.897 12.9844C135.016 13.3398 135.075 13.7728 135.075 14.2832V19H133.257V14.2695C133.257 13.9277 133.207 13.6589 133.106 13.4629C133.006 13.2624 132.863 13.1188 132.676 13.0322C132.494 12.9456 132.268 12.9023 131.999 12.9023C131.707 12.9023 131.457 12.9593 131.247 13.0732C131.037 13.1826 130.864 13.3353 130.728 13.5312C130.595 13.7272 130.495 13.9528 130.427 14.208C130.363 14.4632 130.331 14.7389 130.331 15.0352Z" fill="white"/>
<defs>
<linearGradient id="paint0_linear_326_17" x1="73" y1="0" x2="73" y2="28" gradientUnits="userSpaceOnUse">
<stop stop-color="#37B349"/>
<stop offset="1" stop-color="#0C8E46"/>
</linearGradient>
</defs>
</svg>
